<svg xmlns="http://www.w3.org/2000/svg" xmlns:xlink="http://www.w3.org/1999/xlink"><symbol id="arrow-down-blue" viewBox="9.4 10.5 5.2 4.5">
<path d="M12 15L14.5981 10.5H9.40192L12 15Z" fill="#1b5ca8"/>
</symbol><symbol id="arrow-down" viewBox="9.4 10.5 5.2 4.5">
<path d="M12 15L14.5981 10.5H9.40192L12 15Z" fill="currentColor"/>
</symbol><symbol id="arrow-up" viewBox="9.4 9 5.2 4.5">
<path d="M12 9L14.5981 13.5H9.40192L12 9Z" fill="currentColor"/>
</symbol><symbol id="close" viewBox="2 2 20 20">
<path d="M3 3L12 12M21 21L12 12M12 12L20.5263 3.47368L3 21" stroke="#1A1919" stroke-width="2"/>
</symbol><symbol id="doc" viewBox="8 4 32 40">
<path d="M30.8282 4H8V44H40V13.1718L30.8282 4ZM38 42H10V6H30L38 14V42ZM16 28H26V26H16V28ZM16 22H32V20H16V22Z" fill="#1B5CA8"/>
</symbol><symbol id="mail" viewBox="2 4 20 16">
<path d="M2 4V20H22V4H2ZM20 6V7.2321L12 11.8511L4 7.2321V6H20ZM4 18V9.5417L12 14.16L20 9.5415V18H4Z" fill="currentColor"/>
</symbol><symbol id="menu" viewBox="0 7 24 10">
<path fill-rule="evenodd" clip-rule="evenodd" d="M24 7H0V9H24V7ZM24 15H0V17H24V15Z" fill="currentColor"/>
</symbol><symbol id="phone" viewBox="1.84 1.83 20.32 20.32">
<path d="M8.33079 15.6692C6.10457 13.4486 4.562 10.636 3.88609 7.56511C3.7751 6.97013 3.88774 6.35513 4.20239 5.83811C4.51704 5.3211 5.01154 4.93849 5.59099 4.76371L7.19409 4.25111L8.67549 7.08731L7.46389 8.29871L6.43389 9.32871L7.09799 10.6251C8.48364 13.3215 10.6787 15.5166 13.3751 16.9022L14.6715 17.5663L15.7015 16.5363L16.9129 15.3247L19.7491 16.8061L19.2365 18.4092C19.0617 18.9887 18.6791 19.4832 18.1621 19.7978C17.6451 20.1125 17.0301 20.2251 16.4351 20.1141C13.3642 19.4382 10.5516 17.8956 8.33099 15.6694L8.33079 15.6692ZM6.91659 17.0834C9.40625 19.581 12.5609 21.3109 16.0054 22.0672C17.0871 22.2861 18.2116 22.0953 19.1606 21.5319C20.1097 20.9685 20.8155 20.0726 21.1413 19.0181L22.1664 15.8122L16.5364 12.8722L14.2864 15.1222C11.9634 13.9276 10.0722 12.0362 8.87799 9.71301L11.128 7.46301L8.18799 1.83301L4.98189 2.85871C3.9274 3.18447 3.03152 3.89034 2.4681 4.83936C1.90469 5.78838 1.71391 6.91287 1.93279 7.99461C2.68915 11.4391 4.41901 14.5938 6.91659 17.0834Z" fill="currentColor"/>
</symbol><symbol id="play" viewBox="0 0 64 64">
<path d="M0 32C0 14.3269 14.3269 0 32 0C49.6731 0 64 14.3269 64 32C64 49.6731 49.6731 64 32 64C14.3269 64 0 49.6731 0 32Z" fill="#1B5CA8"/>
<path d="M42 32L27 40.6603V23.3397L42 32Z" fill="white"/>
</symbol><symbol id="search" viewBox="1.96 1.96 20.24 20.24">
<path d="M22.2069 20.7929L16.3141 14.8999C17.5655 13.2888 18.1557 11.2614 17.9647 9.23038C17.7737 7.19937 16.8158 5.31752 15.286 3.96799C13.7562 2.61845 11.7696 1.90269 9.73062 1.96645C7.69165 2.0302 5.75363 2.86868 4.31115 4.31115C2.86868 5.75363 2.0302 7.69165 1.96645 9.73062C1.90269 11.7696 2.61845 13.7562 3.96799 15.286C5.31752 16.8158 7.19937 17.7737 9.23038 17.9647C11.2614 18.1557 13.2888 17.5655 14.8999 16.3141L20.7929 22.2069L22.2069 20.7929ZM9.99994 15.9999C8.81325 15.9999 7.65322 15.648 6.66652 14.9888C5.67983 14.3295 4.91079 13.3924 4.45667 12.296C4.00254 11.1997 3.88372 9.99329 4.11523 8.8294C4.34674 7.66551 4.91819 6.59642 5.7573 5.7573C6.59642 4.91819 7.66551 4.34674 8.8294 4.11523C9.99329 3.88372 11.1997 4.00254 12.296 4.45667C13.3924 4.91079 14.3295 5.67983 14.9888 6.66652C15.648 7.65322 15.9999 8.81325 15.9999 9.99994C15.9981 11.5907 15.3654 13.1158 14.2406 14.2406C13.1158 15.3654 11.5907 15.9981 9.99994 15.9999Z" fill="currentColor"/>
</symbol></svg>