<svg xmlns="http://www.w3.org/2000/svg" xmlns:xlink="http://www.w3.org/1999/xlink"><symbol id="12" viewBox="0 0 93 76">
<path d="M22.2845 29.38C25.4045 29.3107 27.7098 29.2413 29.2005 29.172V39H1.69247V29.172C5.43647 29.3107 8.2618 29.38 10.1685 29.38V11.44C8.92047 14.1787 6.37247 15.9467 2.52447 16.744C2.42047 12.6533 2.03914 8.92667 1.38047 5.564C4.1538 5.18266 6.0778 4.71466 7.15247 4.16C8.2618 3.57067 9.11114 2.92933 9.70047 2.236C10.3245 1.54266 10.7405 1.07466 10.9485 0.831999V0.727997H22.2845V29.38Z" fill="white"/>
<path d="M42.4129 29.9C53.6796 29.276 62.4156 28.5827 68.6209 27.82C68.0316 29.6227 67.5809 31.5293 67.2689 33.54C66.9569 35.5507 66.8009 37.3707 66.8009 39H29.6209L29.5689 37.908C29.5689 34.5107 30.5569 31.564 32.5329 29.068C34.5436 26.572 37.3343 24.2667 40.9049 22.152C41.9449 21.528 43.5743 20.7307 45.7929 19.76C48.6703 18.512 50.8889 17.42 52.4489 16.484C54.0089 15.5133 54.7889 14.56 54.7889 13.624C54.7889 12.4453 54.3036 11.5093 53.3329 10.816C52.3623 10.1227 50.8543 9.776 48.8089 9.776C46.5556 9.776 44.8396 10.348 43.6609 11.492C42.5169 12.636 41.9449 14.092 41.9449 15.86C41.9449 16.4147 41.9969 16.9867 42.1009 17.576C37.7329 17.0213 33.4863 16.64 29.3609 16.432C29.3609 13.4853 30.1236 10.8333 31.6489 8.476C33.2089 6.084 35.5316 4.19467 38.6169 2.808C41.7369 1.42133 45.5503 0.727997 50.0569 0.727997C54.1823 0.727997 57.6143 1.3 60.3529 2.444C63.1263 3.55333 65.1543 4.97467 66.4369 6.708C67.7543 8.40666 68.4129 10.1573 68.4129 11.96C68.4129 14.04 67.9449 15.8253 67.0089 17.316C66.1076 18.8067 64.7903 20.1413 63.0569 21.32C61.3583 22.464 59.0703 23.712 56.1929 25.064C55.7769 25.272 55.1009 25.5147 54.1649 25.792C53.2289 26.0347 52.6396 26.1907 52.3969 26.26C49.9356 26.988 47.9769 27.5947 46.5209 28.08C45.0649 28.5653 43.6956 29.172 42.4129 29.9Z" fill="white"/>
<path d="M0.679688 73H2.47969V63.16H2.95969L6.19969 73H8.83969L12.0797 63.16H12.5597V73H14.3597V61H10.9997L7.75969 70.96H7.27969L4.03969 61H0.679688V73Z" fill="white"/>
<path d="M25.9988 69.64C25.3988 70.864 24.1988 71.56 22.7588 71.56C20.7428 71.56 19.0627 70.12 18.7987 67.84H28.1588L28.2068 67.552C28.2308 67.336 28.2788 67 28.2788 66.52C28.2788 63.16 25.9028 60.76 22.7588 60.76C19.5188 60.76 16.9988 63.28 16.9988 67C16.9988 70.72 19.5188 73.24 22.7588 73.24C25.2788 73.24 27.0788 71.944 27.9188 69.64H25.9988ZM18.7987 66.16C19.0627 63.976 20.5748 62.44 22.7588 62.44C24.7988 62.44 26.3587 63.976 26.4788 66.16H18.7987Z" fill="white"/>
<path d="M39.4341 69.04C38.9541 70.744 37.6581 71.56 35.9541 71.56C33.7701 71.56 31.9941 69.76 31.9941 67C31.9941 64.24 33.7701 62.44 35.9541 62.44C37.6581 62.44 38.9541 63.28 39.4341 64.84H41.2341C40.6341 62.32 38.6181 60.76 35.9541 60.76C32.7141 60.76 30.1941 63.28 30.1941 67C30.1941 70.72 32.7141 73.24 35.9541 73.24C38.6181 73.24 40.6341 71.704 41.2341 69.04H39.4341Z" fill="white"/>
<path d="M42.7978 73H45.0778L49.3978 68.68H50.8378V73H52.6378V61H46.9978C44.7178 61 43.0378 62.536 43.0378 64.84C43.0378 67.144 44.7178 68.68 46.9978 68.68H47.1178L42.7978 73ZM46.9978 67C45.7738 67 44.8378 66.184 44.8378 64.84C44.8378 63.496 45.7738 62.68 46.9978 62.68H50.8378V67H46.9978Z" fill="white"/>
<path d="M55.9922 73H65.5922V75.88H67.3922V71.32H65.7122V61H63.9122V71.32H57.7922V61H55.9922V73Z" fill="white"/>
<path d="M77.8425 69.64C77.2425 70.864 76.0425 71.56 74.6025 71.56C72.5865 71.56 70.9065 70.12 70.6425 67.84H80.0025L80.0505 67.552C80.0745 67.336 80.1225 67 80.1225 66.52C80.1225 63.16 77.7465 60.76 74.6025 60.76C71.3625 60.76 68.8425 63.28 68.8425 67C68.8425 70.72 71.3625 73.24 74.6025 73.24C77.1225 73.24 78.9225 71.944 79.7625 69.64H77.8425ZM70.6425 66.16C70.9065 63.976 72.4185 62.44 74.6025 62.44C76.6425 62.44 78.2025 63.976 78.3225 66.16H70.6425Z" fill="white"/>
<path d="M82.7578 73H89.2378C91.1578 73 92.5978 71.584 92.5978 69.592C92.5978 68.608 92.1658 67.96 91.7578 67.552C91.4938 67.312 91.2298 67.12 90.9178 67V66.88C91.1818 66.736 91.4218 66.544 91.6378 66.304C91.9978 65.896 92.3578 65.296 92.3578 64.36C92.3578 62.32 91.0378 61 88.9978 61H82.7578V73ZM84.5578 71.44V67.72H88.9978C89.9578 67.72 90.7978 68.44 90.7978 69.592C90.7978 70.72 89.9578 71.44 88.9978 71.44H84.5578ZM84.5578 66.16V62.56H88.7578C89.7178 62.56 90.5578 63.28 90.5578 64.36C90.5578 65.44 89.7178 66.16 88.7578 66.16H84.5578Z" fill="white"/>
</symbol><symbol id="arrow-down-blue" viewBox="9.4 10.5 5.2 4.5">
<path d="M12 15L14.5981 10.5H9.40192L12 15Z" fill="#1b5ca8"/>
</symbol><symbol id="arrow-down" viewBox="9.4 10.5 5.2 4.5">
<path d="M12 15L14.5981 10.5H9.40192L12 15Z" fill="currentColor"/>
</symbol><symbol id="arrow-up" viewBox="9.4 9 5.2 4.5">
<path d="M12 9L14.5981 13.5H9.40192L12 9Z" fill="currentColor"/>
</symbol><symbol id="close" viewBox="2 2 20 20">
<path d="M3 3L12 12M21 21L12 12M12 12L20.5263 3.47368L3 21" stroke="#1A1919" stroke-width="2"/>
</symbol><symbol id="doc" viewBox="8 4 32 40">
<path d="M30.8282 4H8V44H40V13.1718L30.8282 4ZM38 42H10V6H30L38 14V42ZM16 28H26V26H16V28ZM16 22H32V20H16V22Z" fill="#1B5CA8"/>
</symbol><symbol id="facebook-icon" viewBox="0 0 35 35"><path d="M26.05,11.31a4.06,4.06,0,0,0-3.09,1,3.06,3.06,0,0,0-.84,2.15v3.65a.58.58,0,0,0,.58.59h2.18a1.22,1.22,0,0,1,1.2,1.43v.08a1.23,1.23,0,0,1-1.21,1H22.68a.58.58,0,0,0-.58.58l0,10.42a1.23,1.23,0,0,1-1.25,1.23h-.3a1.23,1.23,0,0,1-1.2-1.23l0-10.49a.57.57,0,0,0-.58-.58H16.61A1.22,1.22,0,0,1,15.39,20h0a1.21,1.21,0,0,1,1.22-1.22h2.21a.58.58,0,0,0,.58-.59V13.84A5,5,0,0,1,21.19,10c1-.79,2.83-.87,4.3-.76a1.23,1.23,0,0,1,1.14,1.22S26.61,11.29,26.05,11.31Z"/><path d="M25.37,34.75H9.63A9.39,9.39,0,0,1,.25,25.37V9.63A9.39,9.39,0,0,1,9.63.25H25.37a9.39,9.39,0,0,1,9.38,9.38V25.37A9.39,9.39,0,0,1,25.37,34.75ZM9.63,2.75A6.89,6.89,0,0,0,2.75,9.63V25.37a6.89,6.89,0,0,0,6.88,6.88H25.37a6.89,6.89,0,0,0,6.88-6.88V9.63a6.89,6.89,0,0,0-6.88-6.88Z"/></symbol><symbol id="gear" viewBox="0 0 121 88">
<path d="M100.228 40.56L107.717 34.8077C106.454 30.9903 104.423 27.4721 101.749 24.4696L93.0227 28.08L87.0632 24.64L85.8275 15.2773C81.8899 14.4631 77.8275 14.4631 73.8899 15.2773L72.6541 24.64L66.6947 28.08L57.9688 24.4696C55.2943 27.4721 53.263 30.9903 52 34.8077L59.4896 40.56V47.44L52 53.1923C53.263 57.0096 55.2943 60.528 57.9688 63.5304L66.6947 59.92L72.6541 63.36L73.8899 72.7221C77.8275 73.5363 81.8899 73.5363 85.8275 72.7221L87.0632 63.36L93.0227 59.92L101.749 63.5309C104.423 60.5285 106.454 57.0101 107.717 53.1928L100.228 47.44V40.56ZM104.535 54.1117C103.625 56.3309 102.419 58.4176 100.952 60.3152L94.0411 57.4555L92.8264 56.9528L91.6883 57.6101L85.7288 61.0501L84.5902 61.7075L84.4182 63.0104L83.4398 70.4237C81.0624 70.7448 78.6528 70.7448 76.2755 70.4237L75.2971 63.0104L75.1251 61.7075L73.9864 61.0501L68.0269 57.6101L66.8888 56.9528L65.6741 57.4555L58.7653 60.3152C57.2983 58.4171 56.0934 56.3301 55.1832 54.1107L61.1149 49.5563L62.1573 48.7563V39.2445L61.1149 38.4445L55.1821 33.8891C56.0927 31.6696 57.298 29.5827 58.7653 27.6848L65.6752 30.5445L66.8899 31.0472L68.028 30.3899L73.9875 26.9499L75.1262 26.2925L75.2982 24.9896L76.2766 17.5763C78.6539 17.2552 81.0635 17.2552 83.4408 17.5763L84.4192 24.9896L84.5912 26.2925L85.7299 26.9499L91.6894 30.3899L92.8275 31.0472L94.0422 30.5445L100.952 27.6848C102.419 29.5828 103.624 31.6696 104.534 33.8891L98.6024 38.4437L97.56 39.2437V48.7547L98.6024 49.5547L104.535 54.1117ZM79.8587 34.6667C78.0128 34.6667 76.2083 35.2141 74.6734 36.2396C73.1385 37.2652 71.9422 38.7229 71.2358 40.4283C70.5294 42.1339 70.3446 44.0104 70.7047 45.8208C71.0648 47.6315 71.9537 49.2944 73.259 50.5997C74.5643 51.9051 76.2272 52.7939 78.0379 53.1539C79.8483 53.5141 81.7248 53.3293 83.4304 52.6229C85.1358 51.9165 86.5936 50.7203 87.619 49.1853C88.6446 47.6504 89.192 45.8459 89.192 44C89.1891 41.5256 88.2048 39.1531 86.4552 37.4035C84.7054 35.6537 82.3331 34.6695 79.8587 34.6667ZM79.8587 50.6667C78.54 50.6667 77.2512 50.2757 76.155 49.5432C75.0584 48.8107 74.2041 47.7693 73.6995 46.5512C73.1949 45.3331 73.0629 43.9925 73.3201 42.6995C73.5773 41.4061 74.2123 40.2184 75.1446 39.2859C76.0771 38.3536 77.2648 37.7187 78.5582 37.4614C79.8512 37.2042 81.1918 37.3362 82.4099 37.8408C83.628 38.3454 84.6694 39.2 85.4019 40.2963C86.1344 41.3925 86.5254 42.6813 86.5254 44C86.5235 45.7675 85.8203 47.4621 84.5704 48.7117C83.3208 49.9616 81.6262 50.6648 79.8587 50.6667Z" fill="white"/>
<path d="M1 53L34.5 86.5L51.5 69.5M102 19L120 1" stroke="white" stroke-width="1.5"/>
</symbol><symbol id="instagram-icon" viewBox="0 0 35 35"><path d="M25.37,34.75H9.63A9.39,9.39,0,0,1,.25,25.37V9.63A9.39,9.39,0,0,1,9.63.25H25.37a9.39,9.39,0,0,1,9.38,9.38V25.37A9.39,9.39,0,0,1,25.37,34.75ZM9.63,2.75A6.89,6.89,0,0,0,2.75,9.63V25.37a6.89,6.89,0,0,0,6.88,6.88H25.37a6.89,6.89,0,0,0,6.88-6.88V9.63a6.89,6.89,0,0,0-6.88-6.88Z"/><path d="M17.5,26.53a9,9,0,1,1,9-9A9,9,0,0,1,17.5,26.53ZM17.5,11A6.53,6.53,0,1,0,24,17.5,6.54,6.54,0,0,0,17.5,11Z"/><path d="M26.52,9.84a1.5,1.5,0,0,0,0-3,1.5,1.5,0,0,0,0,3Z"/></symbol><symbol id="mail" viewBox="2 4 20 16">
<path d="M2 4V20H22V4H2ZM20 6V7.2321L12 11.8511L4 7.2321V6H20ZM4 18V9.5417L12 14.16L20 9.5415V18H4Z" fill="currentColor"/>
</symbol><symbol id="menu" viewBox="0 7 24 10">
<path fill-rule="evenodd" clip-rule="evenodd" d="M24 7H0V9H24V7ZM24 15H0V17H24V15Z" fill="currentColor"/>
</symbol><symbol id="phone" viewBox="1.84 1.83 20.32 20.32">
<path d="M8.33079 15.6692C6.10457 13.4486 4.562 10.636 3.88609 7.56511C3.7751 6.97013 3.88774 6.35513 4.20239 5.83811C4.51704 5.3211 5.01154 4.93849 5.59099 4.76371L7.19409 4.25111L8.67549 7.08731L7.46389 8.29871L6.43389 9.32871L7.09799 10.6251C8.48364 13.3215 10.6787 15.5166 13.3751 16.9022L14.6715 17.5663L15.7015 16.5363L16.9129 15.3247L19.7491 16.8061L19.2365 18.4092C19.0617 18.9887 18.6791 19.4832 18.1621 19.7978C17.6451 20.1125 17.0301 20.2251 16.4351 20.1141C13.3642 19.4382 10.5516 17.8956 8.33099 15.6694L8.33079 15.6692ZM6.91659 17.0834C9.40625 19.581 12.5609 21.3109 16.0054 22.0672C17.0871 22.2861 18.2116 22.0953 19.1606 21.5319C20.1097 20.9685 20.8155 20.0726 21.1413 19.0181L22.1664 15.8122L16.5364 12.8722L14.2864 15.1222C11.9634 13.9276 10.0722 12.0362 8.87799 9.71301L11.128 7.46301L8.18799 1.83301L4.98189 2.85871C3.9274 3.18447 3.03152 3.89034 2.4681 4.83936C1.90469 5.78838 1.71391 6.91287 1.93279 7.99461C2.68915 11.4391 4.41901 14.5938 6.91659 17.0834Z" fill="currentColor"/>
</symbol><symbol id="pin-blue" viewBox="0 0 64 70">
<path fill-rule="evenodd" clip-rule="evenodd" d="M35.5783 63.8022C51.5672 62.0231 64 48.4635 64 32C64 14.3269 49.6731 0 32 0C14.3269 0 0 14.3269 0 32C0 48.4635 12.4328 62.0232 28.4217 63.8022L32 70L35.5783 63.8022Z" fill="#1b5ca8"/>
</symbol><symbol id="pin" viewBox="0 0 64 70">
<path fill-rule="evenodd" clip-rule="evenodd" d="M35.5783 63.8022C51.5672 62.0231 64 48.4635 64 32C64 14.3269 49.6731 0 32 0C14.3269 0 0 14.3269 0 32C0 48.4635 12.4328 62.0232 28.4217 63.8022L32 70L35.5783 63.8022Z" fill="#419FD9"/>
</symbol><symbol id="play" viewBox="0 0 64 64">
<path d="M0 32C0 14.3269 14.3269 0 32 0C49.6731 0 64 14.3269 64 32C64 49.6731 49.6731 64 32 64C14.3269 64 0 49.6731 0 32Z" fill="#1B5CA8"/>
<path d="M42 32L27 40.6603V23.3397L42 32Z" fill="white"/>
</symbol><symbol id="search" viewBox="1.96 1.96 20.24 20.24">
<path d="M22.2069 20.7929L16.3141 14.8999C17.5655 13.2888 18.1557 11.2614 17.9647 9.23038C17.7737 7.19937 16.8158 5.31752 15.286 3.96799C13.7562 2.61845 11.7696 1.90269 9.73062 1.96645C7.69165 2.0302 5.75363 2.86868 4.31115 4.31115C2.86868 5.75363 2.0302 7.69165 1.96645 9.73062C1.90269 11.7696 2.61845 13.7562 3.96799 15.286C5.31752 16.8158 7.19937 17.7737 9.23038 17.9647C11.2614 18.1557 13.2888 17.5655 14.8999 16.3141L20.7929 22.2069L22.2069 20.7929ZM9.99994 15.9999C8.81325 15.9999 7.65322 15.648 6.66652 14.9888C5.67983 14.3295 4.91079 13.3924 4.45667 12.296C4.00254 11.1997 3.88372 9.99329 4.11523 8.8294C4.34674 7.66551 4.91819 6.59642 5.7573 5.7573C6.59642 4.91819 7.66551 4.34674 8.8294 4.11523C9.99329 3.88372 11.1997 4.00254 12.296 4.45667C13.3924 4.91079 14.3295 5.67983 14.9888 6.66652C15.648 7.65322 15.9999 8.81325 15.9999 9.99994C15.9981 11.5907 15.3654 13.1158 14.2406 14.2406C13.1158 15.3654 11.5907 15.9981 9.99994 15.9999Z" fill="currentColor"/>
</symbol><symbol id="whatsapp-icon" viewBox="0 0 35 35"><path d="M17.5,34.75a17,17,0,0,1-9-2.54l-3.8,1a2.33,2.33,0,0,1-2.84-2.87l1-3.7A16.86,16.86,0,0,1,.82,21.89a17.5,17.5,0,0,1-.53-5.66A17.26,17.26,0,1,1,20.6,34.47,17.1,17.1,0,0,1,17.5,34.75Zm-9-5.05a2.34,2.34,0,0,1,1.23.35,14.44,14.44,0,0,0,4.37,1.81,15,15,0,0,0,6,.15h0A14.73,14.73,0,0,0,28,7.17,14.73,14.73,0,0,0,2.79,16.41a14.75,14.75,0,0,0,2.24,9,2.37,2.37,0,0,1,.28,1.87l-1,3.49L8,29.78A2.25,2.25,0,0,1,8.53,29.7Z"/><path d="M12.65,10.83h0a1.49,1.49,0,0,1,1.34.86l.82,1.74a1.88,1.88,0,0,1-.15,1.85h0a1.85,1.85,0,0,0-.06,2,7.87,7.87,0,0,0,3.52,3.16,1.82,1.82,0,0,0,2-.42l.09-.09a1.88,1.88,0,0,1,2.13-.37l1.11.53a1.87,1.87,0,0,1,.86,2.55c-.54,1-1.77,1.9-4.56,1.33-5-1-8.38-6.58-8.82-7.34l-.09-.18c-.24-.59-1.39-3.72,1-5.41A1.33,1.33,0,0,1,12.65,10.83Z"/></symbol><symbol id="youtube-icon" viewBox="0 0 35 35"><path d="M25.37,34.75H9.63A9.39,9.39,0,0,1,.25,25.37V9.63A9.39,9.39,0,0,1,9.63.25H25.37a9.39,9.39,0,0,1,9.38,9.38V25.37A9.39,9.39,0,0,1,25.37,34.75ZM9.63,2.75A6.89,6.89,0,0,0,2.75,9.63V25.37a6.89,6.89,0,0,0,6.88,6.88H25.37a6.89,6.89,0,0,0,6.88-6.88V9.63a6.89,6.89,0,0,0-6.88-6.88Z"/><path d="M14.16,24.42A2.46,2.46,0,0,1,11.72,22V13a2.44,2.44,0,0,1,3.8-2l6.68,4.47a2.45,2.45,0,0,1,0,4.06L15.52,24A2.4,2.4,0,0,1,14.16,24.42Zm0-2.49.69,1-.69-1Zm.09-8.79v8.72l6.51-4.36Zm6.58,4.31Z"/></symbol></svg>