<svg width="227" height="39" viewBox="0 0 227 39" fill="none" xmlns="http://www.w3.org/2000/svg">
<path d="M0 4.45007V35.6357L15.4371 20.0429L0 4.45007Z" fill="#2866AF"/>
<path d="M35.2116 0H4.81555L20.0136 15.4202L35.2116 0Z" fill="#50ADE6"/>
<path d="M98.8725 3.04849H108.196L96.6526 23.4418V35.6357H88.4559V23.4418L76.9122 3.04849H86.236L92.5542 16.2586L98.8725 3.04849ZM78.7227 17.9136V20.7701C78.7227 28.9797 71.9586 35.6348 63.9568 35.6348H49.5225V3.0488H63.9568C71.9586 3.0488 78.7227 9.70392 78.7227 17.9136ZM70.4451 18.2126C70.4451 13.866 67.0115 10.3433 62.7767 10.3433H57.7983V28.3422L62.7767 28.3404C67.0115 28.3404 70.4468 24.8176 70.4451 20.471V18.2126ZM5.94202 39H24.0089C31.1198 39 36.8844 33.0857 36.8844 25.7901V7.25391L5.94202 39Z" fill="#1A346D"/>
<path d="M161.002 7.01785C163.595 7.01785 165.726 9.1852 165.726 11.8497C165.726 14.4908 163.584 16.6699 161.002 16.6699H158.073V7.01785H161.002ZM160.133 14.5738H161.002C162.461 14.5738 163.676 13.3302 163.676 11.8497C163.676 10.3458 162.472 9.11414 161.002 9.11414H160.133V14.5738ZM176.169 11.8497C176.169 14.5145 174.051 16.6699 171.446 16.6699C168.841 16.6699 166.734 14.5145 166.734 11.8497C166.734 9.1852 168.841 7.01785 171.446 7.01785C174.051 7.01785 176.169 9.1852 176.169 11.8497ZM168.783 11.8497C168.783 13.3539 169.975 14.5738 171.446 14.5738C172.916 14.5738 174.109 13.3539 174.109 11.8497C174.109 10.3338 172.916 9.11414 171.446 9.11414C169.975 9.11414 168.783 10.3338 168.783 11.8497ZM194.337 10.0496H191.963C191.477 9.48116 190.759 9.11414 189.949 9.11414C188.478 9.11414 187.286 10.3338 187.286 11.8497C187.286 13.3539 188.478 14.5738 189.949 14.5738C190.655 14.5738 191.303 14.2896 191.778 13.8393H189.914V11.7315H194.672C194.672 14.4552 192.635 16.6699 189.949 16.6699C187.344 16.6699 185.237 14.5145 185.237 11.8497C185.237 9.1852 187.344 7.01785 189.949 7.01785C191.94 7.01785 193.642 8.27341 194.337 10.0496ZM198.555 16.6699H196.505V12.6433L193.727 7.01785H196.031L197.536 10.0616L199.029 7.01785H201.333L198.555 12.6433V16.6699ZM208.359 16.6699H206.159L205.557 15.0475H202.674L202.06 16.6699H199.861L203.508 7.01785H204.723L208.359 16.6699ZM204.11 11.2339L203.461 12.9512H204.758L204.11 11.2339ZM178.242 7.01785L182.067 12.0985V7.01785H184.36V16.6699H183.149L179.177 11.5775V16.6699H176.884V7.01785H178.242ZM210.466 7.01785L214.291 12.0985V7.01785H216.584V16.6699H215.372L211.401 11.5775V16.6699H209.108V7.01785H210.466ZM208.178 18.6979L210.727 22.488V18.6979H212.256V25.8982H211.448L208.801 22.0993V25.8982H207.273V18.6979H208.178ZM226.433 10.0496H224.06C223.573 9.48116 222.856 9.11414 222.045 9.11414C220.575 9.11414 219.382 10.3338 219.382 11.8497C219.382 13.3539 220.575 14.5738 222.045 14.5738C222.751 14.5738 223.4 14.2896 223.874 13.8393H222.01V11.7315H226.769C226.769 14.4552 224.731 16.6699 222.045 16.6699C219.44 16.6699 217.333 14.5145 217.333 11.8497C217.333 9.1852 219.44 7.01785 222.045 7.01785C224.036 7.01785 225.739 8.27341 226.433 10.0496ZM159.49 18.6979L161.407 23.61L163.325 18.6979H164.853V25.8982H163.325V22.9209L162.159 25.8982H160.656L159.49 22.9209V25.8982H157.961V18.6979H159.49ZM169.792 18.6979V20.2616H167.072V21.3483H169.792V22.912H167.072V24.3345H169.792V25.8982H165.543V18.6979H169.792V18.6979ZM176.761 20.7653H174.878C174.533 20.4561 174.075 20.2616 173.574 20.2616C172.477 20.2616 171.588 21.1717 171.588 22.3025C171.588 23.4244 172.477 24.3345 173.574 24.3345C174.075 24.3345 174.533 24.1489 174.878 23.8308H176.761C176.191 25.05 174.982 25.8982 173.574 25.8982C171.631 25.8982 170.05 24.2904 170.05 22.3025C170.05 20.3146 171.631 18.6979 173.574 18.6979C174.982 18.6979 176.191 19.546 176.761 20.7653ZM182.4 18.6979V25.8982H180.871V22.912H178.945V25.8982H177.416V18.6979H178.945V21.3483H180.871V18.6979H182.4ZM189.222 25.8982H187.581L187.131 24.6878H184.981L184.523 25.8982H182.882L185.603 18.6979H186.51L189.222 25.8982ZM186.052 21.8431L185.568 23.1241H186.536L186.052 21.8431ZM191.769 20.2616V25.8982H190.24V20.2616H188.702V18.6979H193.297V20.2616H191.769ZM193.918 18.6979H196.975C198.236 18.6979 199.273 19.7581 199.273 21.048C199.273 21.9757 198.729 22.7973 197.943 23.1682L199.256 25.8982H197.554L196.345 23.3892H195.447V25.8982H193.918V18.6979ZM195.447 20.2616V21.8253H196.975C197.39 21.8253 197.744 21.4633 197.744 21.048C197.744 20.6152 197.399 20.2616 196.975 20.2616H195.447ZM206.553 22.3025C206.553 24.2904 204.972 25.8982 203.029 25.8982C201.085 25.8982 199.514 24.2904 199.514 22.3025C199.514 20.3146 201.085 18.6979 203.029 18.6979C204.972 18.6979 206.553 20.3146 206.553 22.3025ZM201.042 22.3025C201.042 23.4244 201.932 24.3345 203.029 24.3345C204.126 24.3345 205.015 23.4244 205.015 22.3025C205.015 21.1717 204.126 20.2616 203.029 20.2616C201.932 20.2616 201.042 21.1717 201.042 22.3025ZM214.513 18.6979V25.8982H212.976V18.6979H214.513ZM221.958 20.7653H220.075C219.729 20.4561 219.272 20.2616 218.771 20.2616C217.674 20.2616 216.784 21.1717 216.784 22.3025C216.784 23.4244 217.674 24.3345 218.771 24.3345C219.272 24.3345 219.729 24.1489 220.075 23.8308H221.958C221.388 25.05 220.178 25.8982 218.771 25.8982C216.827 25.8982 215.247 24.2904 215.247 22.3025C215.247 20.3146 216.827 18.6979 218.771 18.6979C220.178 18.6979 221.388 19.546 221.958 20.7653ZM225.618 21.525C226.43 21.8607 227 22.6734 227 23.6276C227 24.8823 226.007 25.8982 224.78 25.8982C223.623 25.8982 222.673 24.9881 222.569 23.8308H224.124C224.21 24.1224 224.469 24.3345 224.78 24.3345C225.16 24.3345 225.471 24.0163 225.471 23.6276C225.471 23.3892 225.35 23.1771 225.178 23.0535C224.072 22.4792 222.872 22.0639 222.872 20.6593C222.872 19.5726 223.727 18.6979 224.78 18.6979C225.825 18.6979 226.672 19.546 226.689 20.6062H225.16C225.135 20.4118 224.979 20.2616 224.78 20.2616C224.573 20.2616 224.4 20.4383 224.4 20.6593C224.4 20.8005 224.478 20.9331 224.59 20.995L225.618 21.525Z" fill="black"/>
<path d="M149.657 6.99785H149.505C142.084 3.42883 138.578 5.32643 135.108 6.52509C132.931 7.2779 129.883 7.34731 128.606 6.89025C131.354 4.57591 135.028 3.16217 139.067 3.16217C143.168 3.16217 146.896 4.6207 149.657 6.99785ZM150.527 7.80662H127.61C126.733 8.69159 125.98 9.67742 125.371 10.7439C126.45 12.4914 131.373 12.3883 134.295 11.0194C141.695 7.55347 148.262 8.32866 153.146 11.4653C152.485 10.1188 151.597 8.88653 150.527 7.80662ZM153.599 12.4914H124.538C124.229 13.2845 123.994 14.109 123.846 14.9627V14.9648C125.239 16.6273 130.864 17.0396 133.997 15.7804C142.165 12.5003 148.739 12.4914 154.366 16.3046C154.393 16.3046 154.423 16.3069 154.453 16.3069C154.364 14.9761 154.068 13.6968 153.599 12.4914ZM123.653 17.174V17.1874C123.653 17.7049 123.683 18.2158 123.746 18.7176C123.744 18.7199 123.746 18.7199 123.746 18.7221C125.086 22.4211 131.441 21.5205 134.31 20.3487C142.326 17.0776 148.304 17.0126 153.829 21.2426C154.256 19.9588 154.484 18.5966 154.484 17.1874V17.174H123.653V17.174ZM124.527 21.8565C124.651 22.1791 124.788 22.4928 124.938 22.8019C124.938 22.8019 124.936 22.8042 124.938 22.8042C124.941 22.8087 124.943 22.8131 124.945 22.8176C127.079 26.7205 132.459 26.0574 135.047 24.8833C142.067 21.7041 146.309 21.6862 151.136 25.9139C152.193 24.7086 153.035 23.3397 153.609 21.8565H124.527ZM127.579 26.539C131.884 30.778 135.702 30.5584 137.616 29.4561C141.997 26.9334 144.001 27.2403 146.542 29.4561C148.056 28.6943 149.411 27.7041 150.557 26.539H127.579Z" fill="#046BD2"/>
</svg>
