<svg width="362" height="53" viewBox="0 0 362 53" fill="none" xmlns="http://www.w3.org/2000/svg">
<path d="M84.553 18.8723H350.717V7.16959H75.844L84.553 18.8723Z" fill="#201500" stroke="black" stroke-width="0.5" stroke-miterlimit="10" stroke-linecap="round" stroke-linejoin="round"/>
<path d="M356.004 28.5337H353.447C351.939 28.5337 350.717 27.3114 350.717 25.8037V7.178C350.717 5.67024 351.939 4.44795 353.447 4.44795H356.509C358.016 4.44795 359.239 5.67024 359.239 7.178L358.562 26.0661C358.512 27.443 357.382 28.5337 356.004 28.5337Z" fill="#5159A3" stroke="black" stroke-width="0.5" stroke-miterlimit="10" stroke-linecap="round" stroke-linejoin="round"/>
<path d="M84.553 18.8723H26.1582L11.6659 7.16959H75.844L84.553 18.8723Z" fill="#5159A3" stroke="black" stroke-width="0.5" stroke-miterlimit="10" stroke-linecap="round" stroke-linejoin="round"/>
<path d="M14.0812 7.61176L10.8061 5.28474C10.4277 5.01588 10.2029 3.84914 10.2029 3.38495C10.2029 2.3281 9.34619 1.47136 8.28934 1.47136C7.23248 1.47136 6.37573 2.3281 6.37573 3.38495V5.44878C6.37573 6.35407 6.82704 7.19977 7.57909 7.70371L11.3256 10.2143L14.0812 7.61176Z" fill="#5159A3" stroke="black" stroke-width="0.5" stroke-miterlimit="10" stroke-linecap="round" stroke-linejoin="round"/>
<path d="M1.77026 16.1082L12.0626 6.43514C12.3647 6.15125 12.8266 6.12425 13.1597 6.37097L26.0293 15.904C26.2456 16.0642 26.5076 16.1507 26.7767 16.1507H38.6813C39.2416 16.1507 39.4668 16.8736 39.0056 17.1918L27.4158 25.1887C27.0948 25.4103 26.689 25.47 26.3178 25.3504L2.09449 17.5486C1.47324 17.3486 1.29466 16.5552 1.77026 16.1082Z" fill="#5159A3" stroke="black" stroke-width="0.5" stroke-miterlimit="10" stroke-linecap="round" stroke-linejoin="round"/>
<path d="M10.2285 15.4789C11.0223 15.4789 11.6658 14.8354 11.6658 14.0415C11.6658 13.2477 11.0223 12.6042 10.2285 12.6042C9.43465 12.6042 8.79114 13.2477 8.79114 14.0415C8.79114 14.8354 9.43465 15.4789 10.2285 15.4789Z" fill="#5159A3" stroke="black" stroke-width="0.5" stroke-miterlimit="10" stroke-linecap="round" stroke-linejoin="round"/>
<path d="M26.2177 24.0177C27.0115 24.0177 27.6551 23.3742 27.6551 22.5804C27.6551 21.7865 27.0115 21.143 26.2177 21.143C25.4239 21.143 24.7804 21.7865 24.7804 22.5804C24.7804 23.3742 25.4239 24.0177 26.2177 24.0177Z" fill="#5159A3" stroke="black" stroke-width="0.5" stroke-miterlimit="10" stroke-linecap="round" stroke-linejoin="round"/>
<path d="M46.1022 7.16954H44.4692V3.82726C44.4692 3.37633 44.8348 3.01079 45.2857 3.01079C45.7366 3.01079 46.1022 3.37633 46.1022 3.82726V7.16954Z" fill="#221500" stroke="black" stroke-width="0.5" stroke-miterlimit="10" stroke-linecap="round" stroke-linejoin="round"/>
<path d="M68.2361 7.16954H64.9796V3.94451C64.9796 3.77164 65.1197 3.6315 65.2926 3.6315H65.6693C65.8564 3.6315 66.0306 3.72679 66.1315 3.88435L68.2361 7.16954Z" fill="#221500" stroke="black" stroke-width="0.5" stroke-miterlimit="10" stroke-linecap="round" stroke-linejoin="round"/>
<path d="M202.318 3.98807H199.101V0.802359C199.101 0.631597 199.239 0.493164 199.41 0.493164H199.782C199.967 0.493164 200.139 0.587301 200.239 0.742925L202.318 3.98807Z" fill="#221500" stroke="black" stroke-width="0.5" stroke-miterlimit="10" stroke-linecap="round" stroke-linejoin="round"/>
<path d="M73.2075 18.8725H72.0168V23.0229C72.0168 23.3517 72.2834 23.6182 72.6122 23.6182C72.941 23.6182 73.2075 23.3517 73.2075 23.0229V18.8725H73.2075Z" fill="#221500" stroke="black" stroke-width="0.5" stroke-miterlimit="10" stroke-linecap="round" stroke-linejoin="round"/>
<path d="M62.5214 18.8725H61.3307V23.0229C61.3307 23.3517 61.5972 23.6182 61.926 23.6182C62.2548 23.6182 62.5214 23.3517 62.5214 23.0229V18.8725H62.5214Z" fill="#221500" stroke="black" stroke-width="0.5" stroke-miterlimit="10" stroke-linecap="round" stroke-linejoin="round"/>
<path d="M51.9953 18.8725H50.8046V23.0229C50.8046 23.3517 51.0711 23.6182 51.3999 23.6182C51.7287 23.6182 51.9953 23.3517 51.9953 23.0229V18.8725H51.9953Z" fill="#221500" stroke="black" stroke-width="0.5" stroke-miterlimit="10" stroke-linecap="round" stroke-linejoin="round"/>
<path d="M87.4746 19.8929H81.7706C81.595 19.8929 81.4298 19.8095 81.3256 19.6682L71.6033 6.48762C71.4998 6.34733 71.5999 6.14899 71.7743 6.14899H77.4783C77.6539 6.14899 77.8191 6.23242 77.9233 6.37374L87.6456 19.5543C87.7491 19.6946 87.6489 19.8929 87.4746 19.8929Z" fill="#5159A3" stroke="black" stroke-width="0.5" stroke-miterlimit="10" stroke-linecap="round" stroke-linejoin="round"/>
<path d="M142.373 16.9781V19.2132C142.373 19.5913 142.066 19.8979 141.688 19.8979H139.209C138.887 19.8979 138.582 19.7542 138.377 19.5059L129.575 8.84317C129.317 8.5304 129.176 8.13747 129.176 7.73189V4.44795C129.176 4.19397 129.382 3.98808 129.636 3.98808H133.796C134.05 3.98808 134.256 4.19397 134.256 4.44795V6.12549C134.256 6.5309 134.397 6.92368 134.655 7.2364L142.126 16.2916C142.286 16.4849 142.373 16.7276 142.373 16.9781Z" fill="#5159A3" stroke="black" stroke-width="0.5" stroke-miterlimit="10" stroke-linecap="round" stroke-linejoin="round"/>
<path d="M211.309 16.9781V19.2132C211.309 19.5913 211.002 19.8979 210.624 19.8979H208.145C207.823 19.8979 207.518 19.7542 207.313 19.5059L198.511 8.84317C198.253 8.5304 198.112 8.13747 198.112 7.73189V4.44795C198.112 4.19397 198.317 3.98808 198.571 3.98808H202.732C202.986 3.98808 203.192 4.19397 203.192 4.44795V6.12549C203.192 6.5309 203.333 6.92368 203.591 7.2364L211.062 16.2916C211.222 16.4849 211.309 16.7276 211.309 16.9781Z" fill="#5159A3" stroke="black" stroke-width="0.5" stroke-miterlimit="10" stroke-linecap="round" stroke-linejoin="round"/>
<path d="M311.999 5.20865H307.886V1.1352C307.886 0.916846 308.063 0.739845 308.282 0.739845H308.757C308.994 0.739845 309.214 0.860203 309.341 1.0592L311.999 5.20865Z" fill="#221500" stroke="black" stroke-width="0.5" stroke-miterlimit="10" stroke-linecap="round" stroke-linejoin="round"/>
<path d="M318.615 16.3888V19.2092C318.615 19.5953 318.313 19.8979 317.937 19.8979H315.454C315.131 19.8979 314.828 19.7517 314.62 19.5013L305.825 8.83918C305.564 8.52614 305.418 8.14026 305.418 7.73324V5.66759C305.418 5.41515 305.625 5.20863 305.877 5.20863H313.409C313.662 5.20863 313.868 5.41522 313.868 5.66772V9.34595C313.868 9.91981 314.068 10.4758 314.433 10.9186L318.375 15.7001C318.532 15.8985 318.615 16.1385 318.615 16.3888Z" fill="#5159A3" stroke="black" stroke-width="0.5" stroke-miterlimit="10" stroke-linecap="round" stroke-linejoin="round"/>
<path d="M259.133 5.20865H255.02V1.1352C255.02 0.916846 255.197 0.739845 255.415 0.739845H255.891C256.127 0.739845 256.347 0.860203 256.475 1.0592L259.133 5.20865Z" fill="#221500" stroke="black" stroke-width="0.5" stroke-miterlimit="10" stroke-linecap="round" stroke-linejoin="round"/>
<path d="M265.749 16.3888V19.2092C265.749 19.5953 265.446 19.8979 265.071 19.8979H262.588C262.264 19.8979 261.962 19.7517 261.753 19.5013L252.958 8.83918C252.697 8.52614 252.552 8.14026 252.552 7.73324V5.66759C252.552 5.41515 252.758 5.20863 253.01 5.20863H260.543C260.795 5.20863 261.002 5.41522 261.002 5.66772V9.34595C261.002 9.91981 261.202 10.4758 261.567 10.9186L265.509 15.7001C265.665 15.8985 265.749 16.1385 265.749 16.3888Z" fill="#5159A3" stroke="black" stroke-width="0.5" stroke-miterlimit="10" stroke-linecap="round" stroke-linejoin="round"/>
<path d="M201.668 2.97424H255.02" stroke="black" stroke-width="0.5" stroke-miterlimit="10" stroke-linecap="round" stroke-linejoin="round"/>
<path d="M257.702 2.97424H307.886" stroke="black" stroke-width="0.5" stroke-miterlimit="10" stroke-linecap="round" stroke-linejoin="round"/>
<path d="M3.16382 36.7793L0 44.1144H6.32764L3.16382 36.7793Z" fill="#5159A3"/>
<path d="M88.5139 40.4464L83.0391 35.9408V44.9521L88.5139 40.4464Z" fill="#D92B2B"/>
<path d="M211.309 40.4464L205.834 35.9408V44.9521L211.309 40.4464Z" fill="#D92B2B"/>
<path d="M263.176 40.4464L257.702 35.9408V44.9521L263.176 40.4464Z" fill="#D92B2B"/>
<path d="M314.754 40.4464L309.279 35.9408V44.9521L314.754 40.4464Z" fill="#D92B2B"/>
<path d="M361.365 40.4464L355.89 35.9408V44.9521L361.365 40.4464Z" fill="#D92B2B"/>
<path d="M141.963 40.4464L136.489 35.9408V44.9521L141.963 40.4464Z" fill="#D92B2B"/>
<path d="M46.293 11.1603V15.3815L48.4304 13.2709L46.293 11.1603ZM51.1684 10.5579H46.9597L49.0641 12.6452L51.1684 10.5579ZM59.983 10.9706H61.274L59.6756 13.731V15.3815H58.5407V13.731L56.9423 10.9706H58.2333L59.1081 12.7587L59.983 10.9706ZM57.193 12.9827V13.3693C57.193 14.4806 56.2564 15.3814 55.1485 15.3814H53.1499V10.9706H55.1485C56.2564 10.9706 57.193 11.8714 57.193 12.9827ZM56.0469 13.0232C56.0469 12.4348 55.5715 11.958 54.9851 11.958H54.2958V14.3943L54.9851 14.3941C55.5715 14.3941 56.0471 13.9172 56.0469 13.3289V13.0232ZM47.1157 15.8369H49.6173C50.6019 15.8369 51.4 15.0364 51.4 14.0488V11.5398L47.1157 15.8369Z" fill="white"/>
<path d="M70.8222 13.7512L71.288 14.4282V13.7512H71.5673V15.0373H71.4197L70.936 14.3588V15.0373H70.6567V13.7512H70.8222ZM61.926 13.7512L62.2764 14.6286L62.6267 13.7512H62.9061V15.0373H62.6267V14.5055L62.4137 15.0373H62.1391L61.926 14.5055V15.0373H61.6467V13.7512H61.926ZM63.8084 13.7512V14.0305H63.3114V14.2246H63.8084V14.504H63.3114V14.758H63.8084V15.0373H63.032V13.7512H63.8084ZM65.0818 14.1205H64.7378C64.6746 14.0653 64.591 14.0305 64.4995 14.0305C64.2991 14.0305 64.1365 14.1931 64.1365 14.3951C64.1365 14.5955 64.2991 14.758 64.4995 14.758C64.591 14.758 64.6746 14.7249 64.7378 14.6681H65.0818C64.9776 14.8859 64.7567 15.0373 64.4995 15.0373C64.1444 15.0373 63.8556 14.7502 63.8556 14.3951C63.8556 14.04 64.1444 13.7512 64.4995 13.7512C64.7567 13.7512 64.9776 13.9027 65.0818 14.1205ZM66.112 13.7512V15.0373H65.8327V14.504H65.4808V15.0373H65.2015V13.7512H65.4808V14.2246H65.8327V13.7512H66.112ZM67.3585 15.0373H67.0587L66.9766 14.8211H66.5837L66.5 15.0373H66.2002L66.6973 13.7512H66.863L67.3585 15.0373ZM66.7793 14.313L66.691 14.5419H66.8677L66.7793 14.313ZM67.8239 14.0305V15.0373H67.5445V14.0305H67.2636V13.7512H68.1032V14.0305H67.8239ZM68.2166 13.7512H68.7753C69.0057 13.7512 69.195 13.9406 69.195 14.171C69.195 14.3367 69.0956 14.4835 68.952 14.5497L69.1919 15.0373H68.881L68.6601 14.5892H68.4959V15.0373H68.2166V13.7512H68.2166ZM68.4959 14.0305V14.3099H68.7753C68.851 14.3099 68.9157 14.2452 68.9157 14.171C68.9157 14.0937 68.8526 14.0305 68.7753 14.0305H68.4959ZM70.5252 14.3951C70.5252 14.7502 70.2364 15.0373 69.8813 15.0373C69.5263 15.0373 69.239 14.7502 69.239 14.3951C69.239 14.04 69.5263 13.7512 69.8813 13.7512C70.2364 13.7512 70.5252 14.04 70.5252 14.3951ZM69.5183 14.3951C69.5183 14.5955 69.6809 14.758 69.8813 14.758C70.0817 14.758 70.2443 14.5955 70.2443 14.3951C70.2443 14.1931 70.0817 14.0305 69.8813 14.0305C69.6809 14.0305 69.5183 14.1931 69.5183 14.3951ZM71.9797 13.7512V15.0373H71.6988V13.7512H71.9797ZM73.3399 14.1205H72.9959C72.9328 14.0653 72.8491 14.0305 72.7576 14.0305C72.5572 14.0305 72.3946 14.1931 72.3946 14.3951C72.3946 14.5955 72.5572 14.758 72.7576 14.758C72.8491 14.758 72.9328 14.7249 72.9959 14.6681H73.3399C73.2357 14.8859 73.0148 15.0373 72.7576 15.0373C72.4025 15.0373 72.1137 14.7502 72.1137 14.3951C72.1137 14.04 72.4025 13.7512 72.7576 13.7512C73.0148 13.7512 73.2357 13.9027 73.3399 14.1205ZM74.0088 14.2562C74.1571 14.3162 74.2612 14.4613 74.2612 14.6318C74.2612 14.8559 74.0798 15.0373 73.8557 15.0373C73.6442 15.0373 73.4706 14.8748 73.4517 14.6681H73.7358C73.7515 14.7202 73.7989 14.758 73.8557 14.758C73.9251 14.758 73.9819 14.7012 73.9819 14.6318C73.9819 14.5892 73.9599 14.5513 73.9283 14.5292C73.7263 14.4267 73.507 14.3525 73.507 14.1016C73.507 13.9075 73.6632 13.7512 73.8557 13.7512C74.0466 13.7512 74.2013 13.9027 74.2045 14.0921H73.9251C73.9204 14.0574 73.892 14.0305 73.8557 14.0305C73.8178 14.0305 73.7862 14.0621 73.7862 14.1016C73.7862 14.1268 73.8005 14.1505 73.8209 14.1615L74.0088 14.2562Z" fill="white"/>
<path d="M62.0438 11.6421C62.3953 11.6421 62.6841 11.9293 62.6841 12.2824C62.6841 12.6323 62.3937 12.9211 62.0438 12.9211H61.6467V11.6421H62.0438ZM61.9261 12.6433H62.0438C62.2415 12.6433 62.4063 12.4785 62.4063 12.2824C62.4063 12.0831 62.2431 11.9199 62.0438 11.9199H61.9261V12.6433ZM64.0998 12.2824C64.0998 12.6355 63.8126 12.9211 63.4595 12.9211C63.1064 12.9211 62.8207 12.6355 62.8207 12.2824C62.8207 11.9293 63.1064 11.6421 63.4595 11.6421C63.8126 11.6421 64.0998 11.9293 64.0998 12.2824ZM63.0985 12.2824C63.0985 12.4817 63.2602 12.6433 63.4595 12.6433C63.6588 12.6433 63.8204 12.4817 63.8204 12.2824C63.8204 12.0815 63.6588 11.9199 63.4595 11.9199C63.2602 11.9199 63.0985 12.0815 63.0985 12.2824ZM66.5624 12.0438H66.2406C66.1747 11.9685 66.0774 11.9199 65.9676 11.9199C65.7683 11.9199 65.6066 12.0815 65.6066 12.2824C65.6066 12.4817 65.7683 12.6433 65.9676 12.6433C66.0633 12.6433 66.1512 12.6057 66.2155 12.546H65.9628V12.2667H66.6079C66.6079 12.6276 66.3316 12.9211 65.9676 12.9211C65.6144 12.9211 65.3288 12.6355 65.3288 12.2824C65.3288 11.9293 65.6144 11.6421 65.9676 11.6421C66.2375 11.6421 66.4682 11.8085 66.5624 12.0438ZM67.1341 12.9211H66.8563V12.3875L66.4797 11.6421H66.792L66.996 12.0454L67.1984 11.6421H67.5107L67.1341 12.3875V12.9211H67.1341ZM68.4631 12.9211H68.1649L68.0833 12.7061H67.6925L67.6093 12.9211H67.3111L67.8055 11.6421H67.9703L68.4631 12.9211ZM67.8871 12.2008L67.7992 12.4283H67.975L67.8871 12.2008ZM64.3808 11.6421L64.8992 12.3153V11.6421H65.2101V12.9211H65.0458L64.5075 12.2463V12.9211H64.1966V11.6421H64.3808ZM68.7487 11.6421L69.2671 12.3153V11.6421H69.578V12.9211H69.4137L68.8754 12.2463V12.9211H68.5646V11.6421H68.7487ZM70.9131 12.0438H70.5913C70.5254 11.9685 70.4281 11.9199 70.3182 11.9199C70.1189 11.9199 69.9573 12.0815 69.9573 12.2824C69.9573 12.4817 70.1189 12.6433 70.3182 12.6433C70.414 12.6433 70.5018 12.6057 70.5662 12.546H70.3135V12.2667H70.9586C70.9586 12.6276 70.6823 12.9211 70.3182 12.9211C69.9651 12.9211 69.6795 12.6355 69.6795 12.2824C69.6795 11.9293 69.9651 11.6421 70.3182 11.6421C70.5882 11.6421 70.8189 11.8085 70.9131 12.0438Z" fill="white"/>
<path d="M46.293 11.1603V15.3815L48.4304 13.2709L46.293 11.1603ZM51.1684 10.5579H46.9597L49.0641 12.6452L51.1684 10.5579ZM59.983 10.9706H61.274L59.6756 13.731V15.3815H58.5407V13.731L56.9423 10.9706H58.2333L59.1081 12.7587L59.983 10.9706ZM57.193 12.9827V13.3693C57.193 14.4806 56.2564 15.3814 55.1485 15.3814H53.1499V10.9706H55.1485C56.2564 10.9706 57.193 11.8714 57.193 12.9827ZM56.0469 13.0232C56.0469 12.4348 55.5715 11.958 54.9851 11.958H54.2958V14.3943L54.9851 14.3941C55.5715 14.3941 56.0471 13.9172 56.0469 13.3289V13.0232ZM47.1157 15.8369H49.6173C50.6019 15.8369 51.4 15.0364 51.4 14.0488V11.5398L47.1157 15.8369Z" fill="white"/>
<path d="M70.8222 13.7512L71.288 14.4282V13.7512H71.5673V15.0373H71.4197L70.936 14.3588V15.0373H70.6567V13.7512H70.8222ZM61.926 13.7512L62.2764 14.6286L62.6267 13.7512H62.9061V15.0373H62.6267V14.5055L62.4137 15.0373H62.1391L61.926 14.5055V15.0373H61.6467V13.7512H61.926ZM63.8084 13.7512V14.0305H63.3114V14.2246H63.8084V14.504H63.3114V14.758H63.8084V15.0373H63.032V13.7512H63.8084ZM65.0818 14.1205H64.7378C64.6746 14.0653 64.591 14.0305 64.4995 14.0305C64.2991 14.0305 64.1365 14.1931 64.1365 14.3951C64.1365 14.5955 64.2991 14.758 64.4995 14.758C64.591 14.758 64.6746 14.7249 64.7378 14.6681H65.0818C64.9776 14.8859 64.7567 15.0373 64.4995 15.0373C64.1444 15.0373 63.8556 14.7502 63.8556 14.3951C63.8556 14.04 64.1444 13.7512 64.4995 13.7512C64.7567 13.7512 64.9776 13.9027 65.0818 14.1205ZM66.112 13.7512V15.0373H65.8327V14.504H65.4808V15.0373H65.2015V13.7512H65.4808V14.2246H65.8327V13.7512H66.112ZM67.3585 15.0373H67.0587L66.9766 14.8211H66.5837L66.5 15.0373H66.2002L66.6973 13.7512H66.863L67.3585 15.0373ZM66.7793 14.313L66.691 14.5419H66.8677L66.7793 14.313ZM67.8239 14.0305V15.0373H67.5445V14.0305H67.2636V13.7512H68.1032V14.0305H67.8239ZM68.2166 13.7512H68.7753C69.0057 13.7512 69.195 13.9406 69.195 14.171C69.195 14.3367 69.0956 14.4835 68.952 14.5497L69.1919 15.0373H68.881L68.6601 14.5892H68.4959V15.0373H68.2166V13.7512H68.2166ZM68.4959 14.0305V14.3099H68.7753C68.851 14.3099 68.9157 14.2452 68.9157 14.171C68.9157 14.0937 68.8526 14.0305 68.7753 14.0305H68.4959ZM70.5252 14.3951C70.5252 14.7502 70.2364 15.0373 69.8813 15.0373C69.5263 15.0373 69.239 14.7502 69.239 14.3951C69.239 14.04 69.5263 13.7512 69.8813 13.7512C70.2364 13.7512 70.5252 14.04 70.5252 14.3951ZM69.5183 14.3951C69.5183 14.5955 69.6809 14.758 69.8813 14.758C70.0817 14.758 70.2443 14.5955 70.2443 14.3951C70.2443 14.1931 70.0817 14.0305 69.8813 14.0305C69.6809 14.0305 69.5183 14.1931 69.5183 14.3951ZM71.9797 13.7512V15.0373H71.6988V13.7512H71.9797ZM73.3399 14.1205H72.9959C72.9328 14.0653 72.8491 14.0305 72.7576 14.0305C72.5572 14.0305 72.3946 14.1931 72.3946 14.3951C72.3946 14.5955 72.5572 14.758 72.7576 14.758C72.8491 14.758 72.9328 14.7249 72.9959 14.6681H73.3399C73.2357 14.8859 73.0148 15.0373 72.7576 15.0373C72.4025 15.0373 72.1137 14.7502 72.1137 14.3951C72.1137 14.04 72.4025 13.7512 72.7576 13.7512C73.0148 13.7512 73.2357 13.9027 73.3399 14.1205ZM74.0088 14.2562C74.1571 14.3162 74.2612 14.4613 74.2612 14.6318C74.2612 14.8559 74.0798 15.0373 73.8557 15.0373C73.6442 15.0373 73.4706 14.8748 73.4517 14.6681H73.7358C73.7515 14.7202 73.7989 14.758 73.8557 14.758C73.9251 14.758 73.9819 14.7012 73.9819 14.6318C73.9819 14.5892 73.9599 14.5513 73.9283 14.5292C73.7263 14.4267 73.507 14.3525 73.507 14.1016C73.507 13.9075 73.6632 13.7512 73.8557 13.7512C74.0466 13.7512 74.2013 13.9027 74.2045 14.0921H73.9251C73.9204 14.0574 73.892 14.0305 73.8557 14.0305C73.8178 14.0305 73.7862 14.0621 73.7862 14.1016C73.7862 14.1268 73.8005 14.1505 73.8209 14.1615L74.0088 14.2562Z" fill="white"/>
<path d="M62.0438 11.6421C62.3953 11.6421 62.6841 11.9293 62.6841 12.2824C62.6841 12.6323 62.3937 12.9211 62.0438 12.9211H61.6467V11.6421H62.0438ZM61.9261 12.6433H62.0438C62.2415 12.6433 62.4063 12.4785 62.4063 12.2824C62.4063 12.0831 62.2431 11.9199 62.0438 11.9199H61.9261V12.6433ZM64.0998 12.2824C64.0998 12.6355 63.8126 12.9211 63.4595 12.9211C63.1064 12.9211 62.8207 12.6355 62.8207 12.2824C62.8207 11.9293 63.1064 11.6421 63.4595 11.6421C63.8126 11.6421 64.0998 11.9293 64.0998 12.2824ZM63.0985 12.2824C63.0985 12.4817 63.2602 12.6433 63.4595 12.6433C63.6588 12.6433 63.8204 12.4817 63.8204 12.2824C63.8204 12.0815 63.6588 11.9199 63.4595 11.9199C63.2602 11.9199 63.0985 12.0815 63.0985 12.2824ZM66.5624 12.0438H66.2406C66.1747 11.9685 66.0774 11.9199 65.9676 11.9199C65.7683 11.9199 65.6066 12.0815 65.6066 12.2824C65.6066 12.4817 65.7683 12.6433 65.9676 12.6433C66.0633 12.6433 66.1512 12.6057 66.2155 12.546H65.9628V12.2667H66.6079C66.6079 12.6276 66.3316 12.9211 65.9676 12.9211C65.6144 12.9211 65.3288 12.6355 65.3288 12.2824C65.3288 11.9293 65.6144 11.6421 65.9676 11.6421C66.2375 11.6421 66.4682 11.8085 66.5624 12.0438ZM67.1341 12.9211H66.8563V12.3875L66.4797 11.6421H66.792L66.996 12.0454L67.1984 11.6421H67.5107L67.1341 12.3875V12.9211H67.1341ZM68.4631 12.9211H68.1649L68.0833 12.7061H67.6925L67.6093 12.9211H67.3111L67.8055 11.6421H67.9703L68.4631 12.9211ZM67.8871 12.2008L67.7992 12.4283H67.975L67.8871 12.2008ZM64.3808 11.6421L64.8992 12.3153V11.6421H65.2101V12.9211H65.0458L64.5075 12.2463V12.9211H64.1966V11.6421H64.3808ZM68.7487 11.6421L69.2671 12.3153V11.6421H69.578V12.9211H69.4137L68.8754 12.2463V12.9211H68.5646V11.6421H68.7487ZM70.9131 12.0438H70.5913C70.5254 11.9685 70.4281 11.9199 70.3182 11.9199C70.1189 11.9199 69.9573 12.0815 69.9573 12.2824C69.9573 12.4817 70.1189 12.6433 70.3182 12.6433C70.414 12.6433 70.5018 12.6057 70.5662 12.546H70.3135V12.2667H70.9586C70.9586 12.6276 70.6823 12.9211 70.3182 12.9211C69.9651 12.9211 69.6795 12.6355 69.6795 12.2824C69.6795 11.9293 69.9651 11.6421 70.3182 11.6421C70.5882 11.6421 70.8189 11.8085 70.9131 12.0438Z" fill="white"/>
<path d="M15.5698 32.4358L13.0308 39.2033H12.4644L14.9888 32.6018H11.6245V32.094H15.5698V32.4358ZM20.3501 36.2346C20.3501 36.7587 20.3078 37.2144 20.2231 37.6018C20.1418 37.9859 20.0213 38.3049 19.8618 38.5588C19.7056 38.8095 19.5135 38.9966 19.2856 39.1203C19.0578 39.2408 18.799 39.301 18.5093 39.301C18.2228 39.301 17.9657 39.2408 17.7378 39.1203C17.5099 38.9966 17.3162 38.8095 17.1567 38.5588C16.9972 38.3049 16.8735 37.9859 16.7856 37.6018C16.701 37.2144 16.6587 36.7587 16.6587 36.2346V35.0432C16.6587 34.5191 16.701 34.0666 16.7856 33.6858C16.8703 33.3016 16.9907 32.9843 17.147 32.7336C17.3065 32.483 17.5002 32.2974 17.728 32.177C17.9559 32.0565 18.2131 31.9963 18.4995 31.9963C18.786 31.9963 19.0431 32.0565 19.271 32.177C19.5021 32.2974 19.6974 32.483 19.8569 32.7336C20.0164 32.9843 20.1385 33.3016 20.2231 33.6858C20.3078 34.0666 20.3501 34.5191 20.3501 35.0432V36.2346ZM19.8032 34.965C19.8032 34.1512 19.6942 33.5376 19.4761 33.1242C19.2612 32.7108 18.9357 32.5041 18.4995 32.5041C18.0698 32.5041 17.7443 32.7108 17.5229 33.1242C17.3049 33.5376 17.1958 34.1512 17.1958 34.965V36.3029C17.1958 36.7033 17.2235 37.0581 17.2788 37.3674C17.3374 37.6766 17.4204 37.9371 17.5278 38.1486C17.6385 38.3602 17.7752 38.5214 17.938 38.632C18.104 38.7427 18.2944 38.7981 18.5093 38.7981C18.7274 38.7981 18.9162 38.7427 19.0757 38.632C19.2384 38.5214 19.3735 38.3602 19.481 38.1486C19.5884 37.9371 19.6681 37.6766 19.7202 37.3674C19.7756 37.0581 19.8032 36.7033 19.8032 36.3029V34.965ZM25.2134 36.2346C25.2134 36.7587 25.1711 37.2144 25.0864 37.6018C25.005 37.9859 24.8846 38.3049 24.7251 38.5588C24.5688 38.8095 24.3768 38.9966 24.1489 39.1203C23.9211 39.2408 23.6623 39.301 23.3726 39.301C23.0861 39.301 22.8289 39.2408 22.6011 39.1203C22.3732 38.9966 22.1795 38.8095 22.02 38.5588C21.8605 38.3049 21.7368 37.9859 21.6489 37.6018C21.5643 37.2144 21.522 36.7587 21.522 36.2346V35.0432C21.522 34.5191 21.5643 34.0666 21.6489 33.6858C21.7336 33.3016 21.854 32.9843 22.0103 32.7336C22.1698 32.483 22.3634 32.2974 22.5913 32.177C22.8192 32.0565 23.0763 31.9963 23.3628 31.9963C23.6493 31.9963 23.9064 32.0565 24.1343 32.177C24.3654 32.2974 24.5607 32.483 24.7202 32.7336C24.8797 32.9843 25.0018 33.3016 25.0864 33.6858C25.1711 34.0666 25.2134 34.5191 25.2134 35.0432V36.2346ZM24.6665 34.965C24.6665 34.1512 24.5575 33.5376 24.3394 33.1242C24.1245 32.7108 23.799 32.5041 23.3628 32.5041C22.9331 32.5041 22.6076 32.7108 22.3862 33.1242C22.1681 33.5376 22.0591 34.1512 22.0591 34.965V36.3029C22.0591 36.7033 22.0868 37.0581 22.1421 37.3674C22.2007 37.6766 22.2837 37.9371 22.3911 38.1486C22.5018 38.3602 22.6385 38.5214 22.8013 38.632C22.9673 38.7427 23.1577 38.7981 23.3726 38.7981C23.5907 38.7981 23.7795 38.7427 23.939 38.632C24.1017 38.5214 24.2368 38.3602 24.3442 38.1486C24.4517 37.9371 24.5314 37.6766 24.5835 37.3674C24.6388 37.0581 24.6665 36.7033 24.6665 36.3029V34.965ZM30.0767 36.2346C30.0767 36.7587 30.0343 37.2144 29.9497 37.6018C29.8683 37.9859 29.7479 38.3049 29.5884 38.5588C29.4321 38.8095 29.2401 38.9966 29.0122 39.1203C28.7843 39.2408 28.5256 39.301 28.2358 39.301C27.9494 39.301 27.6922 39.2408 27.4644 39.1203C27.2365 38.9966 27.0428 38.8095 26.8833 38.5588C26.7238 38.3049 26.6001 37.9859 26.5122 37.6018C26.4276 37.2144 26.3853 36.7587 26.3853 36.2346V35.0432C26.3853 34.5191 26.4276 34.0666 26.5122 33.6858C26.5968 33.3016 26.7173 32.9843 26.8735 32.7336C27.033 32.483 27.2267 32.2974 27.4546 32.177C27.6825 32.0565 27.9396 31.9963 28.2261 31.9963C28.5125 31.9963 28.7697 32.0565 28.9976 32.177C29.2287 32.2974 29.424 32.483 29.5835 32.7336C29.743 32.9843 29.8651 33.3016 29.9497 33.6858C30.0343 34.0666 30.0767 34.5191 30.0767 35.0432V36.2346ZM29.5298 34.965C29.5298 34.1512 29.4207 33.5376 29.2026 33.1242C28.9878 32.7108 28.6623 32.5041 28.2261 32.5041C27.7964 32.5041 27.4709 32.7108 27.2495 33.1242C27.0314 33.5376 26.9224 34.1512 26.9224 34.965V36.3029C26.9224 36.7033 26.95 37.0581 27.0054 37.3674C27.064 37.6766 27.147 37.9371 27.2544 38.1486C27.3651 38.3602 27.5018 38.5214 27.6646 38.632C27.8306 38.7427 28.021 38.7981 28.2358 38.7981C28.4539 38.7981 28.6427 38.7427 28.8022 38.632C28.965 38.5214 29.1001 38.3602 29.2075 38.1486C29.3149 37.9371 29.3947 37.6766 29.4468 37.3674C29.5021 37.0581 29.5298 36.7033 29.5298 36.3029V34.965ZM34.8667 36.7912H34.2173V39.2033H33.6704V33.9201H34.2173V36.259H34.8569L36.4585 33.9201H37.1323L35.311 36.4738L37.3228 39.2033H36.6147L34.8667 36.7912ZM40.9946 34.4328H38.7925V39.2033H38.2456V33.9201H40.9946V34.4328ZM15.3843 49.2033H14.8423V46.7863H12.5181V49.2033H11.9712V43.9201H12.5181V46.2834H14.8423V43.9201H15.3843V49.2033ZM19.6665 49.2033C19.6405 49.1154 19.6193 49.0064 19.603 48.8762C19.5868 48.7427 19.5754 48.6076 19.5688 48.4709C19.5005 48.5816 19.4191 48.6874 19.3247 48.7883C19.2303 48.8859 19.1213 48.9738 18.9976 49.052C18.8771 49.1268 18.742 49.1871 18.5923 49.2326C18.4425 49.2782 18.2814 49.301 18.1089 49.301C17.8908 49.301 17.6922 49.2701 17.5132 49.2082C17.3374 49.1464 17.186 49.0536 17.0591 48.9299C16.9321 48.8062 16.8345 48.6516 16.7661 48.466C16.6978 48.2805 16.6636 48.064 16.6636 47.8166C16.6636 47.5725 16.7059 47.3479 16.7905 47.1428C16.8752 46.9345 17.0005 46.7554 17.1665 46.6057C17.3358 46.4559 17.5457 46.3387 17.7964 46.2541C18.047 46.1695 18.3384 46.1272 18.6704 46.1272H19.564V45.3899C19.564 45.0123 19.4696 44.7421 19.2808 44.5793C19.0952 44.4133 18.8218 44.3303 18.4604 44.3303C18.2912 44.3303 18.1349 44.3563 17.9917 44.4084C17.8517 44.4605 17.7313 44.5337 17.6304 44.6281C17.5295 44.7193 17.4513 44.83 17.396 44.9602C17.3407 45.0871 17.313 45.2271 17.313 45.3801L16.771 45.3752C16.771 45.1701 16.8117 44.9748 16.8931 44.7893C16.9744 44.6005 17.09 44.4345 17.2397 44.2912C17.3895 44.148 17.5701 44.0341 17.7817 43.9494C17.9933 43.8648 18.2277 43.8225 18.4849 43.8225C18.7225 43.8225 18.939 43.8518 19.1343 43.9104C19.3328 43.9657 19.5037 44.0568 19.647 44.1838C19.7902 44.3075 19.9009 44.4703 19.979 44.6721C20.0604 44.8706 20.1011 45.1132 20.1011 45.3996V48.0949C20.1011 48.1861 20.1043 48.2805 20.1108 48.3781C20.1174 48.4758 20.1255 48.5718 20.1353 48.6662C20.1483 48.7574 20.1629 48.8453 20.1792 48.9299C20.1987 49.0113 20.2199 49.0829 20.2427 49.1447V49.2033H19.6665ZM18.1772 48.7785C18.3465 48.7785 18.5044 48.7557 18.6509 48.7102C18.8006 48.6613 18.9341 48.5962 19.0513 48.5149C19.1685 48.4302 19.2694 48.3326 19.354 48.2219C19.4419 48.1112 19.5119 47.9924 19.564 47.8654V46.5813H18.7485C18.2375 46.5813 17.8534 46.6887 17.5962 46.9035C17.339 47.1184 17.2104 47.4081 17.2104 47.7727C17.2104 48.121 17.2951 48.3765 17.4644 48.5393C17.6369 48.6988 17.8745 48.7785 18.1772 48.7785ZM27.5229 49.2033H23.7534V48.7443L25.7065 46.1076C25.8888 45.8602 26.0418 45.6373 26.1655 45.4387C26.2925 45.2401 26.3934 45.0562 26.4683 44.8869C26.5464 44.7144 26.6017 44.5533 26.6343 44.4035C26.6668 44.2538 26.6831 44.1057 26.6831 43.9592C26.6831 43.7476 26.6571 43.5523 26.605 43.3733C26.5529 43.1942 26.4764 43.0412 26.3755 42.9143C26.2746 42.7841 26.1476 42.6831 25.9946 42.6115C25.8449 42.5399 25.6724 42.5041 25.4771 42.5041C25.272 42.5041 25.0881 42.5448 24.9253 42.6262C24.7625 42.7076 24.6242 42.8215 24.5103 42.968C24.3996 43.1145 24.3133 43.2886 24.2515 43.4904C24.1929 43.689 24.1636 43.9071 24.1636 44.1447H23.6216C23.6216 43.8518 23.6639 43.5751 23.7485 43.3147C23.8332 43.0542 23.9536 42.8264 24.1099 42.6311C24.2694 42.4358 24.4631 42.2811 24.6909 42.1672C24.922 42.0533 25.1841 41.9963 25.4771 41.9963C25.7472 41.9963 25.9914 42.0402 26.2095 42.1281C26.4276 42.216 26.6115 42.3414 26.7612 42.5041C26.9142 42.6669 27.0314 42.8671 27.1128 43.1047C27.1942 43.3423 27.2349 43.6093 27.2349 43.9055C27.2349 44.1203 27.2023 44.3368 27.1372 44.5549C27.0721 44.7697 26.9858 44.9846 26.8784 45.1994C26.771 45.4143 26.6457 45.6275 26.5024 45.8391C26.3625 46.0507 26.2176 46.259 26.0679 46.4641L24.4126 48.7004H27.5229V49.2033ZM29.2905 48.9641C29.2905 49.1106 29.2743 49.257 29.2417 49.4035C29.2124 49.55 29.1685 49.69 29.1099 49.8234C29.0513 49.9602 28.9797 50.0887 28.895 50.2092C28.8104 50.3296 28.7144 50.4387 28.6069 50.5363L28.2603 50.2775C28.41 50.0757 28.5239 49.8723 28.6021 49.6672C28.6802 49.4621 28.7192 49.231 28.7192 48.9738V48.2756H29.2905V48.9641ZM34.1587 46.2346C34.1587 46.7587 34.1164 47.2144 34.0317 47.6018C33.9504 47.9859 33.8299 48.3049 33.6704 48.5588C33.5142 48.8095 33.3221 48.9966 33.0942 49.1203C32.8664 49.2408 32.6076 49.301 32.3179 49.301C32.0314 49.301 31.7743 49.2408 31.5464 49.1203C31.3185 48.9966 31.1248 48.8095 30.9653 48.5588C30.8058 48.3049 30.6821 47.9859 30.5942 47.6018C30.5096 47.2144 30.4673 46.7587 30.4673 46.2346V45.0432C30.4673 44.5191 30.5096 44.0666 30.5942 43.6858C30.6789 43.3016 30.7993 42.9843 30.9556 42.7336C31.1151 42.483 31.3088 42.2974 31.5366 42.177C31.7645 42.0565 32.0216 41.9963 32.3081 41.9963C32.5946 41.9963 32.8517 42.0565 33.0796 42.177C33.3107 42.2974 33.506 42.483 33.6655 42.7336C33.825 42.9843 33.9471 43.3016 34.0317 43.6858C34.1164 44.0666 34.1587 44.5191 34.1587 45.0432V46.2346ZM33.6118 44.965C33.6118 44.1512 33.5028 43.5376 33.2847 43.1242C33.0698 42.7108 32.7443 42.5041 32.3081 42.5041C31.8784 42.5041 31.5529 42.7108 31.3315 43.1242C31.1134 43.5376 31.0044 44.1512 31.0044 44.965V46.3029C31.0044 46.7033 31.0321 47.0581 31.0874 47.3674C31.146 47.6766 31.229 47.9371 31.3364 48.1486C31.4471 48.3602 31.5838 48.5214 31.7466 48.632C31.9126 48.7427 32.103 48.7981 32.3179 48.7981C32.536 48.7981 32.7248 48.7427 32.8843 48.632C33.047 48.5214 33.1821 48.3602 33.2896 48.1486C33.397 47.9371 33.4767 47.6766 33.5288 47.3674C33.5841 47.0581 33.6118 46.7033 33.6118 46.3029V44.965ZM37.9429 48.3977L39.6616 43.9201H40.3306V49.2033H39.7886V44.9602L38.1333 49.2033H37.7524L36.063 44.8527V49.2033H35.5259V43.9201H36.2339L37.9429 48.3977Z" fill="black"/>
<path d="M50.6361 35.3264H51.1488C51.3734 35.3264 51.5687 35.2906 51.7347 35.219C51.904 35.1441 52.0456 35.0448 52.1595 34.9211C52.2735 34.7974 52.3581 34.6525 52.4135 34.4865C52.472 34.3173 52.5013 34.1382 52.5013 33.9494C52.5013 33.7346 52.4769 33.5393 52.4281 33.3635C52.3793 33.1845 52.3044 33.0315 52.2035 32.9045C52.1026 32.7775 51.9756 32.6799 51.8226 32.6115C51.6729 32.5399 51.4939 32.5041 51.2855 32.5041C51.1032 32.5041 50.934 32.5383 50.7777 32.6067C50.6247 32.6718 50.4913 32.7678 50.3773 32.8947C50.2666 33.0217 50.1788 33.1747 50.1136 33.3537C50.0518 33.5328 50.0209 33.7346 50.0209 33.9592H49.4789C49.4789 33.6727 49.5228 33.4091 49.6107 33.1682C49.7019 32.9273 49.8272 32.7206 49.9867 32.5481C50.1495 32.3755 50.3415 32.2404 50.5629 32.1428C50.7842 32.0451 51.0251 31.9963 51.2855 31.9963C51.5492 31.9963 51.7885 32.0402 52.0033 32.1281C52.2214 32.216 52.4069 32.3446 52.5599 32.5139C52.7162 32.6799 52.835 32.885 52.9164 33.1291C53.001 33.3733 53.0433 33.6532 53.0433 33.969C53.0433 34.1285 53.0222 34.288 52.9799 34.4475C52.9375 34.6037 52.8741 34.7518 52.7894 34.8918C52.7048 35.0318 52.599 35.1604 52.472 35.2775C52.3451 35.3915 52.197 35.4859 52.0277 35.5608C52.2263 35.6259 52.3955 35.7154 52.5355 35.8293C52.6788 35.9432 52.7959 36.0751 52.8871 36.2248C52.9782 36.3713 53.045 36.5341 53.0873 36.7131C53.1296 36.8889 53.1508 37.0744 53.1508 37.2697C53.1508 37.592 53.1036 37.8801 53.0092 38.134C52.918 38.3846 52.7894 38.5979 52.6234 38.7736C52.4574 38.9462 52.2605 39.078 52.0326 39.1692C51.808 39.257 51.5638 39.301 51.3002 39.301C51.056 39.301 50.8184 39.2587 50.5873 39.174C50.3594 39.0894 50.156 38.9641 49.9769 38.7981C49.8011 38.6288 49.6595 38.4188 49.5521 38.1682C49.448 37.9143 49.3959 37.618 49.3959 37.2795H49.9379C49.9379 37.5041 49.9704 37.7092 50.0355 37.8947C50.1039 38.0803 50.1967 38.2398 50.3138 38.3733C50.4343 38.5067 50.5775 38.6109 50.7435 38.6858C50.9128 38.7606 51.0983 38.7981 51.3002 38.7981C51.7136 38.7981 52.0342 38.6695 52.2621 38.4123C52.4932 38.1519 52.6088 37.7775 52.6088 37.2893C52.6088 37.0354 52.573 36.8173 52.5013 36.635C52.433 36.4494 52.3337 36.2981 52.2035 36.1809C52.0765 36.0604 51.9235 35.9725 51.7445 35.9172C51.5655 35.8619 51.3669 35.8342 51.1488 35.8342H50.6361V35.3264ZM57.9457 33.925C57.9457 34.1106 57.9213 34.288 57.8724 34.4572C57.8269 34.6233 57.7618 34.7762 57.6771 34.9162C57.5925 35.0529 57.4899 35.1766 57.3695 35.2873C57.2523 35.3947 57.1205 35.4843 56.974 35.5559C57.1433 35.6275 57.2963 35.7203 57.433 35.8342C57.573 35.9481 57.6918 36.0816 57.7894 36.2346C57.8903 36.3843 57.9668 36.5503 58.0189 36.7326C58.0743 36.9149 58.1019 37.1102 58.1019 37.3186C58.1019 37.6408 58.0515 37.9257 57.9506 38.1731C57.8529 38.4205 57.7178 38.6288 57.5453 38.7981C57.376 38.9641 57.1758 39.0894 56.9447 39.174C56.7136 39.2587 56.4662 39.301 56.2025 39.301C55.9323 39.301 55.6817 39.2587 55.4506 39.174C55.2194 39.0894 55.0176 38.9641 54.8451 38.7981C54.6758 38.6288 54.5424 38.4205 54.4447 38.1731C54.347 37.9257 54.2982 37.6408 54.2982 37.3186C54.2982 37.1102 54.3243 36.9149 54.3763 36.7326C54.4284 36.5503 54.5033 36.3843 54.601 36.2346C54.6986 36.0816 54.8158 35.9481 54.9525 35.8342C55.0892 35.7203 55.2406 35.6275 55.4066 35.5559C55.2601 35.4843 55.1267 35.3947 55.0062 35.2873C54.889 35.1766 54.7881 35.0529 54.7035 34.9162C54.6221 34.7762 54.5586 34.6233 54.5131 34.4572C54.4675 34.288 54.4447 34.1106 54.4447 33.925C54.4447 33.6158 54.4886 33.3423 54.5765 33.1047C54.6644 32.8638 54.7865 32.662 54.9427 32.4992C55.099 32.3332 55.2829 32.2079 55.4945 32.1233C55.7094 32.0386 55.9421 31.9963 56.1927 31.9963C56.4401 31.9963 56.6713 32.0386 56.8861 32.1233C57.101 32.2079 57.2865 32.3332 57.4427 32.4992C57.599 32.662 57.7211 32.8638 57.809 33.1047C57.9001 33.3423 57.9457 33.6158 57.9457 33.925ZM57.5551 37.3186C57.5551 37.094 57.5209 36.8889 57.4525 36.7033C57.3842 36.5178 57.2881 36.3599 57.1644 36.2297C57.044 36.0962 56.9008 35.9937 56.7347 35.9221C56.5687 35.8472 56.3881 35.8098 56.1927 35.8098C55.9942 35.8098 55.8119 35.8472 55.6459 35.9221C55.4799 35.9937 55.3366 36.0962 55.2162 36.2297C55.0957 36.3599 55.0013 36.5178 54.933 36.7033C54.8679 36.8889 54.8353 37.094 54.8353 37.3186C54.8353 37.5529 54.8679 37.7629 54.933 37.9484C55.0013 38.1307 55.0957 38.2854 55.2162 38.4123C55.3366 38.5393 55.4799 38.6353 55.6459 38.7004C55.8151 38.7655 56.0007 38.7981 56.2025 38.7981C56.4011 38.7981 56.5817 38.7655 56.7445 38.7004C56.9105 38.6353 57.0538 38.5393 57.1742 38.4123C57.2946 38.2854 57.3874 38.1307 57.4525 37.9484C57.5209 37.7629 57.5551 37.5529 57.5551 37.3186ZM57.4037 33.9201C57.4037 33.715 57.3728 33.5262 57.3109 33.3537C57.2491 33.1779 57.1644 33.0282 57.057 32.9045C56.9496 32.7775 56.821 32.6799 56.6713 32.6115C56.5248 32.5399 56.3653 32.5041 56.1927 32.5041C56.017 32.5041 55.8558 32.5367 55.7094 32.6018C55.5629 32.6669 55.4359 32.7613 55.3285 32.885C55.2243 33.0054 55.1413 33.1535 55.0795 33.3293C55.0209 33.5051 54.9916 33.702 54.9916 33.9201C54.9916 34.1317 55.0209 34.3238 55.0795 34.4963C55.1381 34.6656 55.2211 34.8104 55.3285 34.9309C55.4359 35.0481 55.5629 35.1392 55.7094 35.2043C55.8591 35.2694 56.0219 35.302 56.1976 35.302C56.3702 35.302 56.5297 35.2694 56.6761 35.2043C56.8259 35.1392 56.9545 35.0481 57.0619 34.9309C57.1693 34.8104 57.2523 34.6656 57.3109 34.4963C57.3728 34.3238 57.4037 34.1317 57.4037 33.9201ZM62.9017 36.2346C62.9017 36.7587 62.8594 37.2144 62.7748 37.6018C62.6934 37.9859 62.573 38.3049 62.4135 38.5588C62.2572 38.8095 62.0651 38.9966 61.8373 39.1203C61.6094 39.2408 61.3506 39.301 61.0609 39.301C60.7745 39.301 60.5173 39.2408 60.2894 39.1203C60.0616 38.9966 59.8679 38.8095 59.7084 38.5588C59.5489 38.3049 59.4252 37.9859 59.3373 37.6018C59.2526 37.2144 59.2103 36.7587 59.2103 36.2346V35.0432C59.2103 34.5191 59.2526 34.0666 59.3373 33.6858C59.4219 33.3016 59.5424 32.9843 59.6986 32.7336C59.8581 32.483 60.0518 32.2974 60.2797 32.177C60.5075 32.0565 60.7647 31.9963 61.0511 31.9963C61.3376 31.9963 61.5948 32.0565 61.8226 32.177C62.0538 32.2974 62.2491 32.483 62.4086 32.7336C62.5681 32.9843 62.6901 33.3016 62.7748 33.6858C62.8594 34.0666 62.9017 34.5191 62.9017 35.0432V36.2346ZM62.3549 34.965C62.3549 34.1512 62.2458 33.5376 62.0277 33.1242C61.8129 32.7108 61.4873 32.5041 61.0511 32.5041C60.6215 32.5041 60.2959 32.7108 60.0746 33.1242C59.8565 33.5376 59.7474 34.1512 59.7474 34.965V36.3029C59.7474 36.7033 59.7751 37.0581 59.8304 37.3674C59.889 37.6766 59.972 37.9371 60.0795 38.1486C60.1901 38.3602 60.3269 38.5214 60.4896 38.632C60.6556 38.7427 60.8461 38.7981 61.0609 38.7981C61.279 38.7981 61.4678 38.7427 61.6273 38.632C61.7901 38.5214 61.9252 38.3602 62.0326 38.1486C62.14 37.9371 62.2198 37.6766 62.2719 37.3674C62.3272 37.0581 62.3549 36.7033 62.3549 36.3029V34.965ZM67.765 36.2346C67.765 36.7587 67.7227 37.2144 67.6381 37.6018C67.5567 37.9859 67.4362 38.3049 67.2767 38.5588C67.1205 38.8095 66.9284 38.9966 66.7006 39.1203C66.4727 39.2408 66.2139 39.301 65.9242 39.301C65.6377 39.301 65.3806 39.2408 65.1527 39.1203C64.9248 38.9966 64.7312 38.8095 64.5717 38.5588C64.4122 38.3049 64.2885 37.9859 64.2006 37.6018C64.1159 37.2144 64.0736 36.7587 64.0736 36.2346V35.0432C64.0736 34.5191 64.1159 34.0666 64.2006 33.6858C64.2852 33.3016 64.4056 32.9843 64.5619 32.7336C64.7214 32.483 64.9151 32.2974 65.1429 32.177C65.3708 32.0565 65.628 31.9963 65.9144 31.9963C66.2009 31.9963 66.458 32.0565 66.6859 32.177C66.917 32.2974 67.1123 32.483 67.2719 32.7336C67.4314 32.9843 67.5534 33.3016 67.6381 33.6858C67.7227 34.0666 67.765 34.5191 67.765 35.0432V36.2346ZM67.2181 34.965C67.2181 34.1512 67.1091 33.5376 66.891 33.1242C66.6761 32.7108 66.3506 32.5041 65.9144 32.5041C65.4847 32.5041 65.1592 32.7108 64.9379 33.1242C64.7198 33.5376 64.6107 34.1512 64.6107 34.965V36.3029C64.6107 36.7033 64.6384 37.0581 64.6937 37.3674C64.7523 37.6766 64.8353 37.9371 64.9427 38.1486C65.0534 38.3602 65.1901 38.5214 65.3529 38.632C65.5189 38.7427 65.7094 38.7981 65.9242 38.7981C66.1423 38.7981 66.3311 38.7427 66.4906 38.632C66.6534 38.5214 66.7885 38.3602 66.8959 38.1486C67.0033 37.9371 67.083 37.6766 67.1351 37.3674C67.1905 37.0581 67.2181 36.7033 67.2181 36.3029V34.965ZM72.5551 36.7912H71.9056V39.2033H71.3588V33.9201H71.9056V36.259H72.5453L74.1469 33.9201H74.8207L72.9994 36.4738L75.0111 39.2033H74.3031L72.5551 36.7912ZM78.683 34.4328H76.4808V39.2033H75.934V33.9201H78.683V34.4328ZM53.0726 49.2033H52.5306V46.7863H50.2064V49.2033H49.6595V43.9201H50.2064V46.2834H52.5306V43.9201H53.0726V49.2033ZM57.3549 49.2033C57.3288 49.1154 57.3077 49.0064 57.2914 48.8762C57.2751 48.7427 57.2637 48.6076 57.2572 48.4709C57.1888 48.5816 57.1075 48.6874 57.0131 48.7883C56.9187 48.8859 56.8096 48.9738 56.6859 49.052C56.5655 49.1268 56.4304 49.1871 56.2806 49.2326C56.1309 49.2782 55.9698 49.301 55.7972 49.301C55.5791 49.301 55.3806 49.2701 55.2015 49.2082C55.0258 49.1464 54.8744 49.0536 54.7474 48.9299C54.6205 48.8062 54.5228 48.6516 54.4545 48.466C54.3861 48.2805 54.3519 48.064 54.3519 47.8166C54.3519 47.5725 54.3942 47.3479 54.4789 47.1428C54.5635 46.9345 54.6888 46.7554 54.8549 46.6057C55.0241 46.4559 55.2341 46.3387 55.4847 46.2541C55.7354 46.1695 56.0267 46.1272 56.3588 46.1272H57.2523V45.3899C57.2523 45.0123 57.1579 44.7421 56.9691 44.5793C56.7836 44.4133 56.5101 44.3303 56.1488 44.3303C55.9795 44.3303 55.8233 44.3563 55.6801 44.4084C55.5401 44.4605 55.4196 44.5337 55.3187 44.6281C55.2178 44.7193 55.1397 44.83 55.0844 44.9602C55.029 45.0871 55.0013 45.2271 55.0013 45.3801L54.4594 45.3752C54.4594 45.1701 54.5 44.9748 54.5814 44.7893C54.6628 44.6005 54.7784 44.4345 54.9281 44.2912C55.0778 44.148 55.2585 44.0341 55.4701 43.9494C55.6817 43.8648 55.9161 43.8225 56.1732 43.8225C56.4108 43.8225 56.6273 43.8518 56.8226 43.9104C57.0212 43.9657 57.1921 44.0568 57.3353 44.1838C57.4786 44.3075 57.5892 44.4703 57.6674 44.6721C57.7487 44.8706 57.7894 45.1132 57.7894 45.3996V48.0949C57.7894 48.1861 57.7927 48.2805 57.7992 48.3781C57.8057 48.4758 57.8138 48.5718 57.8236 48.6662C57.8366 48.7574 57.8513 48.8453 57.8676 48.9299C57.8871 49.0113 57.9082 49.0829 57.931 49.1447V49.2033H57.3549ZM55.8656 48.7785C56.0349 48.7785 56.1927 48.7557 56.3392 48.7102C56.489 48.6613 56.6224 48.5962 56.7396 48.5149C56.8568 48.4302 56.9577 48.3326 57.0424 48.2219C57.1302 48.1112 57.2002 47.9924 57.2523 47.8654V46.5813H56.4369C55.9258 46.5813 55.5417 46.6887 55.2845 46.9035C55.0274 47.1184 54.8988 47.4081 54.8988 47.7727C54.8988 48.121 54.9834 48.3765 55.1527 48.5393C55.3252 48.6988 55.5629 48.7785 55.8656 48.7785ZM62.5306 45.3264H63.0433C63.2679 45.3264 63.4633 45.2906 63.6293 45.219C63.7985 45.1441 63.9401 45.0448 64.0541 44.9211C64.168 44.7974 64.2526 44.6525 64.308 44.4865C64.3666 44.3173 64.3959 44.1382 64.3959 43.9494C64.3959 43.7346 64.3715 43.5393 64.3226 43.3635C64.2738 43.1845 64.1989 43.0315 64.098 42.9045C63.9971 42.7775 63.8702 42.6799 63.7172 42.6115C63.5674 42.5399 63.3884 42.5041 63.1801 42.5041C62.9978 42.5041 62.8285 42.5383 62.6722 42.6067C62.5192 42.6718 62.3858 42.7678 62.2719 42.8947C62.1612 43.0217 62.0733 43.1747 62.0082 43.3537C61.9463 43.5328 61.9154 43.7346 61.9154 43.9592H61.3734C61.3734 43.6727 61.4174 43.4091 61.5052 43.1682C61.5964 42.9273 61.7217 42.7206 61.8812 42.5481C62.044 42.3755 62.236 42.2404 62.4574 42.1428C62.6788 42.0451 62.9196 41.9963 63.1801 41.9963C63.4437 41.9963 63.683 42.0402 63.8978 42.1281C64.1159 42.216 64.3015 42.3446 64.4545 42.5139C64.6107 42.6799 64.7295 42.885 64.8109 43.1291C64.8955 43.3733 64.9379 43.6532 64.9379 43.969C64.9379 44.1285 64.9167 44.288 64.8744 44.4475C64.8321 44.6037 64.7686 44.7518 64.684 44.8918C64.5993 45.0318 64.4935 45.1604 64.3666 45.2775C64.2396 45.3915 64.0915 45.4859 63.9222 45.5608C64.1208 45.6259 64.2901 45.7154 64.4301 45.8293C64.5733 45.9432 64.6905 46.0751 64.7816 46.2248C64.8728 46.3713 64.9395 46.5341 64.9818 46.7131C65.0241 46.8889 65.0453 47.0744 65.0453 47.2697C65.0453 47.592 64.9981 47.8801 64.9037 48.134C64.8125 48.3846 64.684 48.5979 64.5179 48.7736C64.3519 48.9462 64.155 49.078 63.9271 49.1692C63.7025 49.257 63.4584 49.301 63.1947 49.301C62.9506 49.301 62.7129 49.2587 62.4818 49.174C62.2539 49.0894 62.0505 48.9641 61.8715 48.7981C61.6957 48.6288 61.5541 48.4188 61.4467 48.1682C61.3425 47.9143 61.2904 47.618 61.2904 47.2795H61.8324C61.8324 47.5041 61.8649 47.7092 61.9301 47.8947C61.9984 48.0803 62.0912 48.2398 62.2084 48.3733C62.3288 48.5067 62.472 48.6109 62.6381 48.6858C62.8073 48.7606 62.9929 48.7981 63.1947 48.7981C63.6081 48.7981 63.9288 48.6695 64.1566 48.4123C64.3877 48.1519 64.5033 47.7775 64.5033 47.2893C64.5033 47.0354 64.4675 46.8173 64.3959 46.635C64.3275 46.4494 64.2282 46.2981 64.098 46.1809C63.9711 46.0604 63.8181 45.9725 63.639 45.9172C63.46 45.8619 63.2614 45.8342 63.0433 45.8342H62.5306V45.3264ZM66.9789 48.9641C66.9789 49.1106 66.9626 49.257 66.9301 49.4035C66.9008 49.55 66.8568 49.69 66.7982 49.8234C66.7396 49.9602 66.668 50.0887 66.5834 50.2092C66.4987 50.3296 66.4027 50.4387 66.2953 50.5363L65.9486 50.2775C66.0983 50.0757 66.2123 49.8723 66.2904 49.6672C66.3685 49.4621 66.4076 49.231 66.4076 48.9738V48.2756H66.9789V48.9641ZM68.5511 45.5608L68.8441 42.094H71.847V42.6506H69.308L69.1078 45.0334C69.1599 44.9911 69.2233 44.9471 69.2982 44.9016C69.3731 44.8527 69.4577 44.8104 69.5521 44.7746C69.6465 44.7356 69.7474 44.7046 69.8549 44.6818C69.9655 44.6558 70.0827 44.6428 70.2064 44.6428C70.4733 44.6428 70.7159 44.6965 70.934 44.8039C71.1521 44.9081 71.3376 45.0595 71.4906 45.258C71.6436 45.4566 71.7624 45.6975 71.847 45.9807C71.9317 46.2639 71.974 46.5829 71.974 46.9377C71.974 47.2795 71.9382 47.5953 71.8666 47.885C71.795 48.1714 71.6859 48.4205 71.5394 48.632C71.3929 48.8404 71.2058 49.0048 70.9779 49.1252C70.7533 49.2424 70.4847 49.301 70.1722 49.301C69.9314 49.301 69.7051 49.2619 69.4935 49.1838C69.2852 49.1024 69.0997 48.9803 68.9369 48.8176C68.7741 48.6548 68.6407 48.4498 68.5365 48.2024C68.4323 47.955 68.3689 47.6652 68.3461 47.3332H68.8636C68.9092 47.8117 69.0443 48.1763 69.2689 48.427C69.4935 48.6744 69.7946 48.7981 70.1722 48.7981C70.5857 48.7981 70.8982 48.6369 71.1097 48.3147C71.3246 47.9924 71.432 47.5367 71.432 46.9475C71.432 46.7001 71.4027 46.469 71.3441 46.2541C71.2855 46.0393 71.1993 45.8537 71.0853 45.6975C70.9747 45.538 70.8363 45.4143 70.6703 45.3264C70.5075 45.2352 70.3187 45.1897 70.1039 45.1897C69.9607 45.1897 69.8353 45.2027 69.7279 45.2287C69.6205 45.2515 69.5228 45.2857 69.4349 45.3313C69.3503 45.3736 69.2705 45.4257 69.1957 45.4875C69.1241 45.5494 69.0524 45.6193 68.9808 45.6975L68.5511 45.5608ZM75.6312 48.3977L77.35 43.9201H78.0189V49.2033H77.4769V44.9602L75.8217 49.2033H75.4408L73.7513 44.8527V49.2033H73.2142V43.9201H73.9222L75.6312 48.3977Z" fill="black"/>
<path d="M105.044 39.2033H101.275V38.7443L103.228 36.1076C103.41 35.8602 103.563 35.6373 103.687 35.4387C103.814 35.2401 103.915 35.0562 103.99 34.8869C104.068 34.7144 104.123 34.5533 104.156 34.4035C104.188 34.2538 104.204 34.1057 104.204 33.9592C104.204 33.7476 104.178 33.5523 104.126 33.3733C104.074 33.1942 103.998 33.0412 103.897 32.9143C103.796 32.7841 103.669 32.6831 103.516 32.6115C103.366 32.5399 103.194 32.5041 102.998 32.5041C102.793 32.5041 102.609 32.5448 102.447 32.6262C102.284 32.7076 102.145 32.8215 102.031 32.968C101.921 33.1145 101.835 33.2886 101.773 33.4904C101.714 33.689 101.685 33.9071 101.685 34.1447H101.143C101.143 33.8518 101.185 33.5751 101.27 33.3147C101.354 33.0542 101.475 32.8264 101.631 32.6311C101.791 32.4358 101.984 32.2811 102.212 32.1672C102.443 32.0533 102.705 31.9963 102.998 31.9963C103.268 31.9963 103.513 32.0402 103.731 32.1281C103.949 32.216 104.133 32.3414 104.282 32.5041C104.435 32.6669 104.553 32.8671 104.634 33.1047C104.715 33.3423 104.756 33.6093 104.756 33.9055C104.756 34.1203 104.724 34.3368 104.658 34.5549C104.593 34.7697 104.507 34.9846 104.4 35.1994C104.292 35.4143 104.167 35.6275 104.024 35.8391C103.884 36.0507 103.739 36.259 103.589 36.4641L101.934 38.7004H105.044V39.2033ZM108.462 39.2033H107.915V32.8117L106.309 33.5295V32.9729L108.369 32.0695H108.462V39.2033ZM114.629 36.2346C114.629 36.7587 114.587 37.2144 114.502 37.6018C114.421 37.9859 114.3 38.3049 114.141 38.5588C113.985 38.8095 113.793 38.9966 113.565 39.1203C113.337 39.2408 113.078 39.301 112.788 39.301C112.502 39.301 112.245 39.2408 112.017 39.1203C111.789 38.9966 111.595 38.8095 111.436 38.5588C111.276 38.3049 111.153 37.9859 111.065 37.6018C110.98 37.2144 110.938 36.7587 110.938 36.2346V35.0432C110.938 34.5191 110.98 34.0666 111.065 33.6858C111.149 33.3016 111.27 32.9843 111.426 32.7336C111.586 32.483 111.779 32.2974 112.007 32.177C112.235 32.0565 112.492 31.9963 112.779 31.9963C113.065 31.9963 113.322 32.0565 113.55 32.177C113.781 32.2974 113.976 32.483 114.136 32.7336C114.295 32.9843 114.418 33.3016 114.502 33.6858C114.587 34.0666 114.629 34.5191 114.629 35.0432V36.2346ZM114.082 34.965C114.082 34.1512 113.973 33.5376 113.755 33.1242C113.54 32.7108 113.215 32.5041 112.779 32.5041C112.349 32.5041 112.023 32.7108 111.802 33.1242C111.584 33.5376 111.475 34.1512 111.475 34.965V36.3029C111.475 36.7033 111.503 37.0581 111.558 37.3674C111.616 37.6766 111.699 37.9371 111.807 38.1486C111.918 38.3602 112.054 38.5214 112.217 38.632C112.383 38.7427 112.573 38.7981 112.788 38.7981C113.006 38.7981 113.195 38.7427 113.355 38.632C113.517 38.5214 113.653 38.3602 113.76 38.1486C113.867 37.9371 113.947 37.6766 113.999 37.3674C114.055 37.0581 114.082 36.7033 114.082 36.3029V34.965ZM119.492 36.2346C119.492 36.7587 119.45 37.2144 119.365 37.6018C119.284 37.9859 119.164 38.3049 119.004 38.5588C118.848 38.8095 118.656 38.9966 118.428 39.1203C118.2 39.2408 117.941 39.301 117.652 39.301C117.365 39.301 117.108 39.2408 116.88 39.1203C116.652 38.9966 116.459 38.8095 116.299 38.5588C116.14 38.3049 116.016 37.9859 115.928 37.6018C115.843 37.2144 115.801 36.7587 115.801 36.2346V35.0432C115.801 34.5191 115.843 34.0666 115.928 33.6858C116.013 33.3016 116.133 32.9843 116.289 32.7336C116.449 32.483 116.642 32.2974 116.87 32.177C117.098 32.0565 117.355 31.9963 117.642 31.9963C117.928 31.9963 118.185 32.0565 118.413 32.177C118.644 32.2974 118.84 32.483 118.999 32.7336C119.159 32.9843 119.281 33.3016 119.365 33.6858C119.45 34.0666 119.492 34.5191 119.492 35.0432V36.2346ZM118.946 34.965C118.946 34.1512 118.837 33.5376 118.618 33.1242C118.404 32.7108 118.078 32.5041 117.642 32.5041C117.212 32.5041 116.887 32.7108 116.665 33.1242C116.447 33.5376 116.338 34.1512 116.338 34.965V36.3029C116.338 36.7033 116.366 37.0581 116.421 37.3674C116.48 37.6766 116.563 37.9371 116.67 38.1486C116.781 38.3602 116.918 38.5214 117.08 38.632C117.246 38.7427 117.437 38.7981 117.652 38.7981C117.87 38.7981 118.059 38.7427 118.218 38.632C118.381 38.5214 118.516 38.3602 118.623 38.1486C118.731 37.9371 118.81 37.6766 118.863 37.3674C118.918 37.0581 118.946 36.7033 118.946 36.3029V34.965ZM124.282 36.7912H123.633V39.2033H123.086V33.9201H123.633V36.259H124.273L125.874 33.9201H126.548L124.727 36.4738L126.739 39.2033H126.031L124.282 36.7912ZM130.41 34.4328H128.208V39.2033H127.661V33.9201H130.41V34.4328ZM104.8 49.2033H104.258V46.7863H101.934V49.2033H101.387V43.9201H101.934V46.2834H104.258V43.9201H104.8V49.2033ZM109.082 49.2033C109.056 49.1154 109.035 49.0064 109.019 48.8762C109.003 48.7427 108.991 48.6076 108.985 48.4709C108.916 48.5816 108.835 48.6874 108.74 48.7883C108.646 48.8859 108.537 48.9738 108.413 49.052C108.293 49.1268 108.158 49.1871 108.008 49.2326C107.858 49.2782 107.697 49.301 107.525 49.301C107.307 49.301 107.108 49.2701 106.929 49.2082C106.753 49.1464 106.602 49.0536 106.475 48.9299C106.348 48.8062 106.25 48.6516 106.182 48.466C106.114 48.2805 106.079 48.064 106.079 47.8166C106.079 47.5725 106.122 47.3479 106.206 47.1428C106.291 46.9345 106.416 46.7554 106.582 46.6057C106.752 46.4559 106.962 46.3387 107.212 46.2541C107.463 46.1695 107.754 46.1272 108.086 46.1272H108.98V45.3899C108.98 45.0123 108.885 44.7421 108.697 44.5793C108.511 44.4133 108.238 44.3303 107.876 44.3303C107.707 44.3303 107.551 44.3563 107.407 44.4084C107.267 44.4605 107.147 44.5337 107.046 44.6281C106.945 44.7193 106.867 44.83 106.812 44.9602C106.756 45.0871 106.729 45.2271 106.729 45.3801L106.187 45.3752C106.187 45.1701 106.227 44.9748 106.309 44.7893C106.39 44.6005 106.506 44.4345 106.656 44.2912C106.805 44.148 106.986 44.0341 107.198 43.9494C107.409 43.8648 107.643 43.8225 107.901 43.8225C108.138 43.8225 108.355 43.8518 108.55 43.9104C108.749 43.9657 108.92 44.0568 109.063 44.1838C109.206 44.3075 109.317 44.4703 109.395 44.6721C109.476 44.8706 109.517 45.1132 109.517 45.3996V48.0949C109.517 48.1861 109.52 48.2805 109.527 48.3781C109.533 48.4758 109.541 48.5718 109.551 48.6662C109.564 48.7574 109.579 48.8453 109.595 48.9299C109.615 49.0113 109.636 49.0829 109.658 49.1447V49.2033H109.082ZM107.593 48.7785C107.762 48.7785 107.92 48.7557 108.067 48.7102C108.216 48.6613 108.35 48.5962 108.467 48.5149C108.584 48.4302 108.685 48.3326 108.77 48.2219C108.858 48.1112 108.928 47.9924 108.98 47.8654V46.5813H108.164C107.653 46.5813 107.269 46.6887 107.012 46.9035C106.755 47.1184 106.626 47.4081 106.626 47.7727C106.626 48.121 106.711 48.3765 106.88 48.5393C107.053 48.6988 107.29 48.7785 107.593 48.7785ZM113.501 45.5608L113.794 42.094H116.797V42.6506H114.258L114.058 45.0334C114.11 44.9911 114.173 44.9471 114.248 44.9016C114.323 44.8527 114.408 44.8104 114.502 44.7746C114.597 44.7356 114.698 44.7046 114.805 44.6818C114.916 44.6558 115.033 44.6428 115.156 44.6428C115.423 44.6428 115.666 44.6965 115.884 44.8039C116.102 44.9081 116.288 45.0595 116.441 45.258C116.594 45.4566 116.712 45.6975 116.797 45.9807C116.882 46.2639 116.924 46.5829 116.924 46.9377C116.924 47.2795 116.888 47.5953 116.817 47.885C116.745 48.1714 116.636 48.4205 116.49 48.632C116.343 48.8404 116.156 49.0048 115.928 49.1252C115.703 49.2424 115.435 49.301 115.122 49.301C114.881 49.301 114.655 49.2619 114.444 49.1838C114.235 49.1024 114.05 48.9803 113.887 48.8176C113.724 48.6548 113.591 48.4498 113.487 48.2024C113.382 47.955 113.319 47.6652 113.296 47.3332H113.814C113.859 47.8117 113.994 48.1763 114.219 48.427C114.444 48.6744 114.745 48.7981 115.122 48.7981C115.536 48.7981 115.848 48.6369 116.06 48.3147C116.275 47.9924 116.382 47.5367 116.382 46.9475C116.382 46.7001 116.353 46.469 116.294 46.2541C116.236 46.0393 116.149 45.8537 116.035 45.6975C115.925 45.538 115.786 45.4143 115.62 45.3264C115.458 45.2352 115.269 45.1897 115.054 45.1897C114.911 45.1897 114.785 45.2027 114.678 45.2287C114.571 45.2515 114.473 45.2857 114.385 45.3313C114.3 45.3736 114.221 45.4257 114.146 45.4875C114.074 45.5494 114.003 45.6193 113.931 45.6975L113.501 45.5608ZM118.706 48.9641C118.706 49.1106 118.69 49.257 118.657 49.4035C118.628 49.55 118.584 49.69 118.526 49.8234C118.467 49.9602 118.395 50.0887 118.311 50.2092C118.226 50.3296 118.13 50.4387 118.023 50.5363L117.676 50.2775C117.826 50.0757 117.94 49.8723 118.018 49.6672C118.096 49.4621 118.135 49.231 118.135 48.9738V48.2756H118.706V48.9641ZM120.733 48.7346C121.149 48.7346 121.499 48.6646 121.782 48.5246C122.066 48.3846 122.294 48.191 122.466 47.9436C122.642 47.6929 122.769 47.3999 122.847 47.0647C122.925 46.7261 122.969 46.3583 122.979 45.9611C122.897 46.0979 122.803 46.2232 122.696 46.3371C122.591 46.4478 122.477 46.5438 122.354 46.6252C122.23 46.7033 122.098 46.7652 121.958 46.8108C121.818 46.8531 121.672 46.8742 121.519 46.8742C121.236 46.8742 120.987 46.8075 120.772 46.674C120.56 46.5406 120.383 46.3632 120.24 46.1418C120.096 45.9205 119.989 45.6665 119.917 45.3801C119.846 45.0936 119.81 44.7974 119.81 44.4914C119.81 44.1496 119.851 43.8274 119.932 43.5246C120.013 43.2219 120.13 42.9582 120.283 42.7336C120.436 42.5057 120.625 42.3267 120.85 42.1965C121.074 42.063 121.332 41.9963 121.621 41.9963C121.944 41.9963 122.224 42.0679 122.461 42.2111C122.702 42.3511 122.901 42.5464 123.057 42.7971C123.213 43.0477 123.329 43.3472 123.404 43.6955C123.482 44.0438 123.521 44.4231 123.521 44.8332V45.3947C123.521 45.743 123.503 46.0816 123.467 46.4104C123.431 46.7359 123.371 47.0419 123.286 47.3283C123.205 47.6148 123.094 47.8768 122.954 48.1145C122.818 48.3488 122.645 48.5507 122.437 48.7199C122.232 48.8892 121.988 49.021 121.704 49.1154C121.424 49.2066 121.101 49.2522 120.733 49.2522H120.63L120.635 48.7346H120.733ZM121.592 46.3615C121.768 46.3615 121.931 46.3274 122.08 46.259C122.23 46.1874 122.364 46.0946 122.481 45.9807C122.598 45.8667 122.699 45.7365 122.783 45.59C122.868 45.4403 122.935 45.2873 122.984 45.1311V44.7746C122.984 44.4035 122.949 44.078 122.881 43.7981C122.813 43.5149 122.718 43.2789 122.598 43.09C122.477 42.898 122.334 42.7531 122.168 42.6555C122.002 42.5578 121.822 42.509 121.626 42.509C121.424 42.509 121.244 42.5627 121.084 42.6701C120.928 42.7743 120.795 42.9159 120.684 43.0949C120.573 43.274 120.489 43.4823 120.43 43.7199C120.371 43.9543 120.342 44.2033 120.342 44.467C120.342 44.7079 120.368 44.9423 120.42 45.1701C120.476 45.398 120.555 45.5998 120.659 45.7756C120.764 45.9514 120.894 46.093 121.05 46.2004C121.206 46.3078 121.387 46.3615 121.592 46.3615ZM127.359 48.3977L129.077 43.9201H129.746V49.2033H129.204V44.9602L127.549 49.2033H127.168L125.479 44.8527V49.2033H124.942V43.9201H125.65L127.359 48.3977Z" fill="black"/>
<path d="M173.56 39.2033H173.013V32.8117L171.406 33.5295V32.9729L173.467 32.0695H173.56V39.2033ZM179.868 39.2033H176.099V38.7443L178.052 36.1076C178.234 35.8602 178.387 35.6373 178.511 35.4387C178.638 35.2401 178.739 35.0562 178.814 34.8869C178.892 34.7144 178.947 34.5533 178.98 34.4035C179.012 34.2538 179.029 34.1057 179.029 33.9592C179.029 33.7476 179.003 33.5523 178.95 33.3733C178.898 33.1942 178.822 33.0412 178.721 32.9143C178.62 32.7841 178.493 32.6831 178.34 32.6115C178.19 32.5399 178.018 32.5041 177.823 32.5041C177.617 32.5041 177.434 32.5448 177.271 32.6262C177.108 32.7076 176.97 32.8215 176.856 32.968C176.745 33.1145 176.659 33.2886 176.597 33.4904C176.538 33.689 176.509 33.9071 176.509 34.1447H175.967C175.967 33.8518 176.009 33.5751 176.094 33.3147C176.179 33.0542 176.299 32.8264 176.455 32.6311C176.615 32.4358 176.809 32.2811 177.036 32.1672C177.267 32.0533 177.53 31.9963 177.823 31.9963C178.093 31.9963 178.337 32.0402 178.555 32.1281C178.773 32.216 178.957 32.3414 179.107 32.5041C179.26 32.6669 179.377 32.8671 179.458 33.1047C179.54 33.3423 179.58 33.6093 179.58 33.9055C179.58 34.1203 179.548 34.3368 179.483 34.5549C179.418 34.7697 179.331 34.9846 179.224 35.1994C179.116 35.4143 178.991 35.6275 178.848 35.8391C178.708 36.0507 178.563 36.259 178.413 36.4641L176.758 38.7004H179.868V39.2033ZM181.294 35.5608L181.587 32.094H184.59V32.6506H182.051L181.851 35.0334C181.903 34.9911 181.966 34.9471 182.041 34.9016C182.116 34.8527 182.201 34.8104 182.295 34.7746C182.39 34.7356 182.49 34.7046 182.598 34.6818C182.709 34.6558 182.826 34.6428 182.949 34.6428C183.216 34.6428 183.459 34.6965 183.677 34.8039C183.895 34.9081 184.081 35.0595 184.234 35.258C184.387 35.4566 184.505 35.6975 184.59 35.9807C184.675 36.2639 184.717 36.5829 184.717 36.9377C184.717 37.2795 184.681 37.5953 184.61 37.885C184.538 38.1714 184.429 38.4205 184.282 38.632C184.136 38.8404 183.949 39.0048 183.721 39.1252C183.496 39.2424 183.228 39.301 182.915 39.301C182.674 39.301 182.448 39.2619 182.237 39.1838C182.028 39.1024 181.843 38.9803 181.68 38.8176C181.517 38.6548 181.384 38.4498 181.28 38.2024C181.175 37.955 181.112 37.6652 181.089 37.3332H181.607C181.652 37.8117 181.787 38.1763 182.012 38.427C182.237 38.6744 182.538 38.7981 182.915 38.7981C183.329 38.7981 183.641 38.6369 183.853 38.3147C184.068 37.9924 184.175 37.5367 184.175 36.9475C184.175 36.7001 184.146 36.469 184.087 36.2541C184.029 36.0393 183.942 35.8537 183.828 35.6975C183.718 35.538 183.579 35.4143 183.413 35.3264C183.251 35.2352 183.062 35.1897 182.847 35.1897C182.704 35.1897 182.578 35.2027 182.471 35.2287C182.364 35.2515 182.266 35.2857 182.178 35.3313C182.093 35.3736 182.014 35.4257 181.939 35.4875C181.867 35.5494 181.795 35.6193 181.724 35.6975L181.294 35.5608ZM189.453 36.2346C189.453 36.7587 189.411 37.2144 189.326 37.6018C189.245 37.9859 189.125 38.3049 188.965 38.5588C188.809 38.8095 188.617 38.9966 188.389 39.1203C188.161 39.2408 187.902 39.301 187.613 39.301C187.326 39.301 187.069 39.2408 186.841 39.1203C186.613 38.9966 186.42 38.8095 186.26 38.5588C186.101 38.3049 185.977 37.9859 185.889 37.6018C185.804 37.2144 185.762 36.7587 185.762 36.2346V35.0432C185.762 34.5191 185.804 34.0666 185.889 33.6858C185.974 33.3016 186.094 32.9843 186.25 32.7336C186.41 32.483 186.603 32.2974 186.831 32.177C187.059 32.0565 187.316 31.9963 187.603 31.9963C187.889 31.9963 188.146 32.0565 188.374 32.177C188.605 32.2974 188.801 32.483 188.96 32.7336C189.12 32.9843 189.242 33.3016 189.326 33.6858C189.411 34.0666 189.453 34.5191 189.453 35.0432V36.2346ZM188.906 34.965C188.906 34.1512 188.797 33.5376 188.579 33.1242C188.365 32.7108 188.039 32.5041 187.603 32.5041C187.173 32.5041 186.848 32.7108 186.626 33.1242C186.408 33.5376 186.299 34.1512 186.299 34.965V36.3029C186.299 36.7033 186.327 37.0581 186.382 37.3674C186.441 37.6766 186.524 37.9371 186.631 38.1486C186.742 38.3602 186.878 38.5214 187.041 38.632C187.207 38.7427 187.398 38.7981 187.613 38.7981C187.831 38.7981 188.019 38.7427 188.179 38.632C188.342 38.5214 188.477 38.3602 188.584 38.1486C188.692 37.9371 188.771 37.6766 188.823 37.3674C188.879 37.0581 188.906 36.7033 188.906 36.3029V34.965ZM194.243 36.7912H193.594V39.2033H193.047V33.9201H193.594V36.259H194.234L195.835 33.9201H196.509L194.688 36.4738L196.699 39.2033H195.991L194.243 36.7912ZM200.371 34.4328H198.169V39.2033H197.622V33.9201H200.371V34.4328ZM174.761 49.2033H174.219V46.7863H171.895V49.2033H171.348V43.9201H171.895V46.2834H174.219V43.9201H174.761V49.2033ZM179.043 49.2033C179.017 49.1154 178.996 49.0064 178.98 48.8762C178.963 48.7427 178.952 48.6076 178.946 48.4709C178.877 48.5816 178.796 48.6874 178.701 48.7883C178.607 48.8859 178.498 48.9738 178.374 49.052C178.254 49.1268 178.119 49.1871 177.969 49.2326C177.819 49.2782 177.658 49.301 177.486 49.301C177.267 49.301 177.069 49.2701 176.89 49.2082C176.714 49.1464 176.563 49.0536 176.436 48.9299C176.309 48.8062 176.211 48.6516 176.143 48.466C176.074 48.2805 176.04 48.064 176.04 47.8166C176.04 47.5725 176.083 47.3479 176.167 47.1428C176.252 46.9345 176.377 46.7554 176.543 46.6057C176.712 46.4559 176.922 46.3387 177.173 46.2541C177.424 46.1695 177.715 46.1272 178.047 46.1272H178.941V45.3899C178.941 45.0123 178.846 44.7421 178.657 44.5793C178.472 44.4133 178.198 44.3303 177.837 44.3303C177.668 44.3303 177.512 44.3563 177.368 44.4084C177.228 44.4605 177.108 44.5337 177.007 44.6281C176.906 44.7193 176.828 44.83 176.773 44.9602C176.717 45.0871 176.69 45.2271 176.69 45.3801L176.148 45.3752C176.148 45.1701 176.188 44.9748 176.27 44.7893C176.351 44.6005 176.467 44.4345 176.616 44.2912C176.766 44.148 176.947 44.0341 177.158 43.9494C177.37 43.8648 177.604 43.8225 177.862 43.8225C178.099 43.8225 178.316 43.8518 178.511 43.9104C178.71 43.9657 178.88 44.0568 179.024 44.1838C179.167 44.3075 179.278 44.4703 179.356 44.6721C179.437 44.8706 179.478 45.1132 179.478 45.3996V48.0949C179.478 48.1861 179.481 48.2805 179.488 48.3781C179.494 48.4758 179.502 48.5718 179.512 48.6662C179.525 48.7574 179.54 48.8453 179.556 48.9299C179.575 49.0113 179.597 49.0829 179.619 49.1447V49.2033H179.043ZM177.554 48.7785C177.723 48.7785 177.881 48.7557 178.028 48.7102C178.177 48.6613 178.311 48.5962 178.428 48.5149C178.545 48.4302 178.646 48.3326 178.731 48.2219C178.819 48.1112 178.889 47.9924 178.941 47.8654V46.5813H178.125C177.614 46.5813 177.23 46.6887 176.973 46.9035C176.716 47.1184 176.587 47.4081 176.587 47.7727C176.587 48.121 176.672 48.3765 176.841 48.5393C177.014 48.6988 177.251 48.7785 177.554 48.7785ZM186.665 43.925C186.665 44.1106 186.641 44.288 186.592 44.4572C186.546 44.6233 186.481 44.7762 186.397 44.9162C186.312 45.0529 186.21 45.1766 186.089 45.2873C185.972 45.3947 185.84 45.4843 185.694 45.5559C185.863 45.6275 186.016 45.7203 186.153 45.8342C186.293 45.9481 186.411 46.0816 186.509 46.2346C186.61 46.3843 186.686 46.5503 186.739 46.7326C186.794 46.9149 186.822 47.1102 186.822 47.3186C186.822 47.6408 186.771 47.9257 186.67 48.1731C186.573 48.4205 186.437 48.6288 186.265 48.7981C186.096 48.9641 185.895 49.0894 185.664 49.174C185.433 49.2587 185.186 49.301 184.922 49.301C184.652 49.301 184.401 49.2587 184.17 49.174C183.939 49.0894 183.737 48.9641 183.565 48.7981C183.395 48.6288 183.262 48.4205 183.164 48.1731C183.067 47.9257 183.018 47.6408 183.018 47.3186C183.018 47.1102 183.044 46.9149 183.096 46.7326C183.148 46.5503 183.223 46.3843 183.321 46.2346C183.418 46.0816 183.535 45.9481 183.672 45.8342C183.809 45.7203 183.96 45.6275 184.126 45.5559C183.98 45.4843 183.846 45.3947 183.726 45.2873C183.609 45.1766 183.508 45.0529 183.423 44.9162C183.342 44.7762 183.278 44.6233 183.233 44.4572C183.187 44.288 183.164 44.1106 183.164 43.925C183.164 43.6158 183.208 43.3423 183.296 43.1047C183.384 42.8638 183.506 42.662 183.662 42.4992C183.819 42.3332 184.003 42.2079 184.214 42.1233C184.429 42.0386 184.662 41.9963 184.912 41.9963C185.16 41.9963 185.391 42.0386 185.606 42.1233C185.821 42.2079 186.006 42.3332 186.162 42.4992C186.319 42.662 186.441 42.8638 186.529 43.1047C186.62 43.3423 186.665 43.6158 186.665 43.925ZM186.275 47.3186C186.275 47.094 186.24 46.8889 186.172 46.7033C186.104 46.5178 186.008 46.3599 185.884 46.2297C185.764 46.0962 185.62 45.9937 185.454 45.9221C185.288 45.8472 185.108 45.8098 184.912 45.8098C184.714 45.8098 184.531 45.8472 184.365 45.9221C184.199 45.9937 184.056 46.0962 183.936 46.2297C183.815 46.3599 183.721 46.5178 183.653 46.7033C183.587 46.8889 183.555 47.094 183.555 47.3186C183.555 47.5529 183.587 47.7629 183.653 47.9484C183.721 48.1307 183.815 48.2854 183.936 48.4123C184.056 48.5393 184.199 48.6353 184.365 48.7004C184.535 48.7655 184.72 48.7981 184.922 48.7981C185.121 48.7981 185.301 48.7655 185.464 48.7004C185.63 48.6353 185.773 48.5393 185.894 48.4123C186.014 48.2854 186.107 48.1307 186.172 47.9484C186.24 47.7629 186.275 47.5529 186.275 47.3186ZM186.123 43.9201C186.123 43.715 186.092 43.5262 186.031 43.3537C185.969 43.1779 185.884 43.0282 185.777 42.9045C185.669 42.7775 185.541 42.6799 185.391 42.6115C185.244 42.5399 185.085 42.5041 184.912 42.5041C184.737 42.5041 184.575 42.5367 184.429 42.6018C184.282 42.6669 184.156 42.7613 184.048 42.885C183.944 43.0054 183.861 43.1535 183.799 43.3293C183.74 43.5051 183.711 43.702 183.711 43.9201C183.711 44.1317 183.74 44.3238 183.799 44.4963C183.858 44.6656 183.941 44.8104 184.048 44.9309C184.156 45.0481 184.282 45.1392 184.429 45.2043C184.579 45.2694 184.741 45.302 184.917 45.302C185.09 45.302 185.249 45.2694 185.396 45.2043C185.545 45.1392 185.674 45.0481 185.781 44.9309C185.889 44.8104 185.972 44.6656 186.031 44.4963C186.092 44.3238 186.123 44.1317 186.123 43.9201ZM188.667 48.9641C188.667 49.1106 188.651 49.257 188.618 49.4035C188.589 49.55 188.545 49.69 188.487 49.8234C188.428 49.9602 188.356 50.0887 188.272 50.2092C188.187 50.3296 188.091 50.4387 187.984 50.5363L187.637 50.2775C187.787 50.0757 187.901 49.8723 187.979 49.6672C188.057 49.4621 188.096 49.231 188.096 48.9738V48.2756H188.667V48.9641ZM190.996 45.3264H191.509C191.734 45.3264 191.929 45.2906 192.095 45.219C192.264 45.1441 192.406 45.0448 192.52 44.9211C192.634 44.7974 192.718 44.6525 192.774 44.4865C192.832 44.3173 192.862 44.1382 192.862 43.9494C192.862 43.7346 192.837 43.5393 192.788 43.3635C192.74 43.1845 192.665 43.0315 192.564 42.9045C192.463 42.7775 192.336 42.6799 192.183 42.6115C192.033 42.5399 191.854 42.5041 191.646 42.5041C191.463 42.5041 191.294 42.5383 191.138 42.6067C190.985 42.6718 190.851 42.7678 190.738 42.8947C190.627 43.0217 190.539 43.1747 190.474 43.3537C190.412 43.5328 190.381 43.7346 190.381 43.9592H189.839C189.839 43.6727 189.883 43.4091 189.971 43.1682C190.062 42.9273 190.187 42.7206 190.347 42.5481C190.51 42.3755 190.702 42.2404 190.923 42.1428C191.144 42.0451 191.385 41.9963 191.646 41.9963C191.909 41.9963 192.149 42.0402 192.364 42.1281C192.582 42.216 192.767 42.3446 192.92 42.5139C193.076 42.6799 193.195 42.885 193.277 43.1291C193.361 43.3733 193.404 43.6532 193.404 43.969C193.404 44.1285 193.382 44.288 193.34 44.4475C193.298 44.6037 193.234 44.7518 193.15 44.8918C193.065 45.0318 192.959 45.1604 192.832 45.2775C192.705 45.3915 192.557 45.4859 192.388 45.5608C192.587 45.6259 192.756 45.7154 192.896 45.8293C193.039 45.9432 193.156 46.0751 193.247 46.2248C193.338 46.3713 193.405 46.5341 193.448 46.7131C193.49 46.8889 193.511 47.0744 193.511 47.2697C193.511 47.592 193.464 47.8801 193.369 48.134C193.278 48.3846 193.15 48.5979 192.984 48.7736C192.818 48.9462 192.621 49.078 192.393 49.1692C192.168 49.257 191.924 49.301 191.66 49.301C191.416 49.301 191.179 49.2587 190.948 49.174C190.72 49.0894 190.516 48.9641 190.337 48.7981C190.161 48.6288 190.02 48.4188 189.912 48.1682C189.808 47.9143 189.756 47.618 189.756 47.2795H190.298C190.298 47.5041 190.331 47.7092 190.396 47.8947C190.464 48.0803 190.557 48.2398 190.674 48.3733C190.795 48.5067 190.938 48.6109 191.104 48.6858C191.273 48.7606 191.459 48.7981 191.66 48.7981C192.074 48.7981 192.394 48.6695 192.622 48.4123C192.853 48.1519 192.969 47.7775 192.969 47.2893C192.969 47.0354 192.933 46.8173 192.862 46.635C192.793 46.4494 192.694 46.2981 192.564 46.1809C192.437 46.0604 192.284 45.9725 192.105 45.9172C191.926 45.8619 191.727 45.8342 191.509 45.8342H190.996V45.3264ZM197.32 48.3977L199.038 43.9201H199.707V49.2033H199.165V44.9602L197.51 49.2033H197.129L195.44 44.8527V49.2033H194.903V43.9201H195.611L197.32 48.3977Z" fill="black"/>
<path d="M220.242 38.7346C220.659 38.7346 221.009 38.6646 221.292 38.5246C221.575 38.3846 221.803 38.191 221.975 37.9436C222.151 37.6929 222.278 37.3999 222.356 37.0647C222.434 36.7261 222.478 36.3583 222.488 35.9611C222.407 36.0979 222.312 36.2232 222.205 36.3371C222.101 36.4478 221.987 36.5438 221.863 36.6252C221.739 36.7033 221.608 36.7652 221.468 36.8108C221.328 36.8531 221.181 36.8742 221.028 36.8742C220.745 36.8742 220.496 36.8075 220.281 36.674C220.07 36.5406 219.892 36.3632 219.749 36.1418C219.606 35.9205 219.498 35.6665 219.427 35.3801C219.355 35.0936 219.319 34.7974 219.319 34.4914C219.319 34.1496 219.36 33.8274 219.441 33.5246C219.523 33.2219 219.64 32.9582 219.793 32.7336C219.946 32.5057 220.135 32.3267 220.359 32.1965C220.584 32.063 220.841 31.9963 221.131 31.9963C221.453 31.9963 221.733 32.0679 221.971 32.2111C222.211 32.3511 222.41 32.5464 222.566 32.7971C222.723 33.0477 222.838 33.3472 222.913 33.6955C222.991 34.0438 223.03 34.4231 223.03 34.8332V35.3947C223.03 35.743 223.012 36.0816 222.976 36.4104C222.941 36.7359 222.88 37.0419 222.796 37.3283C222.714 37.6148 222.604 37.8768 222.464 38.1145C222.327 38.3488 222.155 38.5507 221.946 38.7199C221.741 38.8892 221.497 39.021 221.214 39.1154C220.934 39.2066 220.61 39.2522 220.242 39.2522H220.14L220.144 38.7346H220.242ZM221.101 36.3615C221.277 36.3615 221.44 36.3274 221.59 36.259C221.739 36.1874 221.873 36.0946 221.99 35.9807C222.107 35.8667 222.208 35.7365 222.293 35.59C222.377 35.4403 222.444 35.2873 222.493 35.1311V34.7746C222.493 34.4035 222.459 34.078 222.391 33.7981C222.322 33.5149 222.228 33.2789 222.107 33.09C221.987 32.898 221.844 32.7531 221.678 32.6555C221.512 32.5578 221.331 32.509 221.136 32.509C220.934 32.509 220.753 32.5627 220.594 32.6701C220.437 32.7743 220.304 32.9159 220.193 33.0949C220.083 33.274 219.998 33.4823 219.939 33.7199C219.881 33.9543 219.851 34.2033 219.851 34.467C219.851 34.7079 219.877 34.9423 219.93 35.1701C219.985 35.398 220.065 35.5998 220.169 35.7756C220.273 35.9514 220.403 36.093 220.559 36.2004C220.716 36.3078 220.896 36.3615 221.101 36.3615ZM224.651 35.5608L224.944 32.094H227.947V32.6506H225.408L225.208 35.0334C225.26 34.9911 225.323 34.9471 225.398 34.9016C225.473 34.8527 225.558 34.8104 225.652 34.7746C225.747 34.7356 225.848 34.7046 225.955 34.6818C226.066 34.6558 226.183 34.6428 226.307 34.6428C226.573 34.6428 226.816 34.6965 227.034 34.8039C227.252 34.9081 227.438 35.0595 227.591 35.258C227.744 35.4566 227.863 35.6975 227.947 35.9807C228.032 36.2639 228.074 36.5829 228.074 36.9377C228.074 37.2795 228.038 37.5953 227.967 37.885C227.895 38.1714 227.786 38.4205 227.64 38.632C227.493 38.8404 227.306 39.0048 227.078 39.1252C226.853 39.2424 226.585 39.301 226.272 39.301C226.031 39.301 225.805 39.2619 225.594 39.1838C225.385 39.1024 225.2 38.9803 225.037 38.8176C224.874 38.6548 224.741 38.4498 224.637 38.2024C224.532 37.955 224.469 37.6652 224.446 37.3332H224.964C225.009 37.8117 225.144 38.1763 225.369 38.427C225.594 38.6744 225.895 38.7981 226.272 38.7981C226.686 38.7981 226.998 38.6369 227.21 38.3147C227.425 37.9924 227.532 37.5367 227.532 36.9475C227.532 36.7001 227.503 36.469 227.444 36.2541C227.386 36.0393 227.299 35.8537 227.185 35.6975C227.075 35.538 226.936 35.4143 226.77 35.3264C226.608 35.2352 226.419 35.1897 226.204 35.1897C226.061 35.1897 225.935 35.2027 225.828 35.2287C225.721 35.2515 225.623 35.2857 225.535 35.3313C225.45 35.3736 225.371 35.4257 225.296 35.4875C225.224 35.5494 225.153 35.6193 225.081 35.6975L224.651 35.5608ZM232.81 36.2346C232.81 36.7587 232.768 37.2144 232.683 37.6018C232.602 37.9859 232.482 38.3049 232.322 38.5588C232.166 38.8095 231.974 38.9966 231.746 39.1203C231.518 39.2408 231.259 39.301 230.97 39.301C230.683 39.301 230.426 39.2408 230.198 39.1203C229.97 38.9966 229.777 38.8095 229.617 38.5588C229.458 38.3049 229.334 37.9859 229.246 37.6018C229.161 37.2144 229.119 36.7587 229.119 36.2346V35.0432C229.119 34.5191 229.161 34.0666 229.246 33.6858C229.331 33.3016 229.451 32.9843 229.607 32.7336C229.767 32.483 229.96 32.2974 230.188 32.177C230.416 32.0565 230.673 31.9963 230.96 31.9963C231.246 31.9963 231.503 32.0565 231.731 32.177C231.962 32.2974 232.158 32.483 232.317 32.7336C232.477 32.9843 232.599 33.3016 232.683 33.6858C232.768 34.0666 232.81 34.5191 232.81 35.0432V36.2346ZM232.264 34.965C232.264 34.1512 232.155 33.5376 231.936 33.1242C231.722 32.7108 231.396 32.5041 230.96 32.5041C230.53 32.5041 230.205 32.7108 229.983 33.1242C229.765 33.5376 229.656 34.1512 229.656 34.965V36.3029C229.656 36.7033 229.684 37.0581 229.739 37.3674C229.798 37.6766 229.881 37.9371 229.988 38.1486C230.099 38.3602 230.236 38.5214 230.398 38.632C230.564 38.7427 230.755 38.7981 230.97 38.7981C231.188 38.7981 231.377 38.7427 231.536 38.632C231.699 38.5214 231.834 38.3602 231.941 38.1486C232.049 37.9371 232.128 37.6766 232.181 37.3674C232.236 37.0581 232.264 36.7033 232.264 36.3029V34.965ZM237.6 36.7912H236.951V39.2033H236.404V33.9201H236.951V36.259H237.591L239.192 33.9201H239.866L238.045 36.4738L240.057 39.2033H239.349L237.6 36.7912ZM243.728 34.4328H241.526V39.2033H240.979V33.9201H243.728V34.4328ZM222.981 49.2033H222.439V46.7863H220.115V49.2033H219.568V43.9201H220.115V46.2834H222.439V43.9201H222.981V49.2033ZM227.264 49.2033C227.238 49.1154 227.216 49.0064 227.2 48.8762C227.184 48.7427 227.172 48.6076 227.166 48.4709C227.098 48.5816 227.016 48.6874 226.922 48.7883C226.827 48.8859 226.718 48.9738 226.595 49.052C226.474 49.1268 226.339 49.1871 226.189 49.2326C226.04 49.2782 225.878 49.301 225.706 49.301C225.488 49.301 225.289 49.2701 225.11 49.2082C224.934 49.1464 224.783 49.0536 224.656 48.9299C224.529 48.8062 224.432 48.6516 224.363 48.466C224.295 48.2805 224.261 48.064 224.261 47.8166C224.261 47.5725 224.303 47.3479 224.388 47.1428C224.472 46.9345 224.598 46.7554 224.764 46.6057C224.933 46.4559 225.143 46.3387 225.393 46.2541C225.644 46.1695 225.935 46.1272 226.267 46.1272H227.161V45.3899C227.161 45.0123 227.067 44.7421 226.878 44.5793C226.692 44.4133 226.419 44.3303 226.057 44.3303C225.888 44.3303 225.732 44.3563 225.589 44.4084C225.449 44.4605 225.328 44.5337 225.227 44.6281C225.127 44.7193 225.048 44.83 224.993 44.9602C224.938 45.0871 224.91 45.2271 224.91 45.3801L224.368 45.3752C224.368 45.1701 224.409 44.9748 224.49 44.7893C224.571 44.6005 224.687 44.4345 224.837 44.2912C224.987 44.148 225.167 44.0341 225.379 43.9494C225.59 43.8648 225.825 43.8225 226.082 43.8225C226.32 43.8225 226.536 43.8518 226.731 43.9104C226.93 43.9657 227.101 44.0568 227.244 44.1838C227.387 44.3075 227.498 44.4703 227.576 44.6721C227.657 44.8706 227.698 45.1132 227.698 45.3996V48.0949C227.698 48.1861 227.701 48.2805 227.708 48.3781C227.714 48.4758 227.723 48.5718 227.732 48.6662C227.745 48.7574 227.76 48.8453 227.776 48.9299C227.796 49.0113 227.817 49.0829 227.84 49.1447V49.2033H227.264ZM225.774 48.7785C225.944 48.7785 226.101 48.7557 226.248 48.7102C226.398 48.6613 226.531 48.5962 226.648 48.5149C226.766 48.4302 226.866 48.3326 226.951 48.2219C227.039 48.1112 227.109 47.9924 227.161 47.8654V46.5813H226.346C225.835 46.5813 225.45 46.6887 225.193 46.9035C224.936 47.1184 224.807 47.4081 224.807 47.7727C224.807 48.121 224.892 48.3765 225.061 48.5393C225.234 48.6988 225.472 48.7785 225.774 48.7785ZM233.675 49.2033H233.128V42.8117L231.521 43.5295V42.9729L233.582 42.0695H233.675V49.2033ZM239.842 46.2346C239.842 46.7587 239.799 47.2144 239.715 47.6018C239.633 47.9859 239.513 48.3049 239.353 48.5588C239.197 48.8095 239.005 48.9966 238.777 49.1203C238.549 49.2408 238.291 49.301 238.001 49.301C237.714 49.301 237.457 49.2408 237.229 49.1203C237.002 48.9966 236.808 48.8095 236.648 48.5588C236.489 48.3049 236.365 47.9859 236.277 47.6018C236.193 47.2144 236.15 46.7587 236.15 46.2346V45.0432C236.15 44.5191 236.193 44.0666 236.277 43.6858C236.362 43.3016 236.482 42.9843 236.639 42.7336C236.798 42.483 236.992 42.2974 237.22 42.177C237.447 42.0565 237.705 41.9963 237.991 41.9963C238.278 41.9963 238.535 42.0565 238.763 42.177C238.994 42.2974 239.189 42.483 239.349 42.7336C239.508 42.9843 239.63 43.3016 239.715 43.6858C239.799 44.0666 239.842 44.5191 239.842 45.0432V46.2346ZM239.295 44.965C239.295 44.1512 239.186 43.5376 238.968 43.1242C238.753 42.7108 238.427 42.5041 237.991 42.5041C237.561 42.5041 237.236 42.7108 237.015 43.1242C236.796 43.5376 236.687 44.1512 236.687 44.965V46.3029C236.687 46.7033 236.715 47.0581 236.77 47.3674C236.829 47.6766 236.912 47.9371 237.019 48.1486C237.13 48.3602 237.267 48.5214 237.43 48.632C237.596 48.7427 237.786 48.7981 238.001 48.7981C238.219 48.7981 238.408 48.7427 238.567 48.632C238.73 48.5214 238.865 48.3602 238.973 48.1486C239.08 47.9371 239.16 47.6766 239.212 47.3674C239.267 47.0581 239.295 46.7033 239.295 46.3029V44.965ZM241.751 48.9641C241.751 49.1106 241.735 49.257 241.702 49.4035C241.673 49.55 241.629 49.69 241.57 49.8234C241.512 49.9602 241.44 50.0887 241.355 50.2092C241.271 50.3296 241.175 50.4387 241.067 50.5363L240.721 50.2775C240.87 50.0757 240.984 49.8723 241.062 49.6672C241.141 49.4621 241.18 49.231 241.18 48.9738V48.2756H241.751V48.9641ZM246.702 42.4358L244.163 49.2033H243.597L246.121 42.6018H242.757V42.094H246.702V42.4358ZM250.403 48.3977L252.122 43.9201H252.791V49.2033H252.249V44.9602L250.594 49.2033H250.213L248.523 44.8527V49.2033H247.986V43.9201H248.694L250.403 48.3977Z" fill="black"/>
<path d="M274.057 32.4358L271.518 39.2033H270.951L273.476 32.6018H270.111V32.094H274.057V32.4358ZM275.541 35.5608L275.834 32.094H278.837V32.6506H276.298L276.098 35.0334C276.15 34.9911 276.213 34.9471 276.288 34.9016C276.363 34.8527 276.448 34.8104 276.542 34.7746C276.636 34.7356 276.737 34.7046 276.845 34.6818C276.955 34.6558 277.073 34.6428 277.196 34.6428C277.463 34.6428 277.706 34.6965 277.924 34.8039C278.142 34.9081 278.327 35.0595 278.48 35.258C278.633 35.4566 278.752 35.6975 278.837 35.9807C278.922 36.2639 278.964 36.5829 278.964 36.9377C278.964 37.2795 278.928 37.5953 278.856 37.885C278.785 38.1714 278.676 38.4205 278.529 38.632C278.383 38.8404 278.196 39.0048 277.968 39.1252C277.743 39.2424 277.475 39.301 277.162 39.301C276.921 39.301 276.695 39.2619 276.483 39.1838C276.275 39.1024 276.09 38.9803 275.927 38.8176C275.764 38.6548 275.631 38.4498 275.526 38.2024C275.422 37.955 275.359 37.6652 275.336 37.3332H275.854C275.899 37.8117 276.034 38.1763 276.259 38.427C276.483 38.6744 276.785 38.7981 277.162 38.7981C277.576 38.7981 277.888 38.6369 278.1 38.3147C278.314 37.9924 278.422 37.5367 278.422 36.9475C278.422 36.7001 278.393 36.469 278.334 36.2541C278.275 36.0393 278.189 35.8537 278.075 35.6975C277.965 35.538 277.826 35.4143 277.66 35.3264C277.497 35.2352 277.309 35.1897 277.094 35.1897C276.951 35.1897 276.825 35.2027 276.718 35.2287C276.61 35.2515 276.513 35.2857 276.425 35.3313C276.34 35.3736 276.26 35.4257 276.186 35.4875C276.114 35.5494 276.042 35.6193 275.971 35.6975L275.541 35.5608ZM283.7 36.2346C283.7 36.7587 283.658 37.2144 283.573 37.6018C283.492 37.9859 283.371 38.3049 283.212 38.5588C283.056 38.8095 282.864 38.9966 282.636 39.1203C282.408 39.2408 282.149 39.301 281.859 39.301C281.573 39.301 281.316 39.2408 281.088 39.1203C280.86 38.9966 280.666 38.8095 280.507 38.5588C280.347 38.3049 280.224 37.9859 280.136 37.6018C280.051 37.2144 280.009 36.7587 280.009 36.2346V35.0432C280.009 34.5191 280.051 34.0666 280.136 33.6858C280.22 33.3016 280.341 32.9843 280.497 32.7336C280.657 32.483 280.85 32.2974 281.078 32.177C281.306 32.0565 281.563 31.9963 281.85 31.9963C282.136 31.9963 282.393 32.0565 282.621 32.177C282.852 32.2974 283.048 32.483 283.207 32.7336C283.367 32.9843 283.489 33.3016 283.573 33.6858C283.658 34.0666 283.7 34.5191 283.7 35.0432V36.2346ZM283.153 34.965C283.153 34.1512 283.044 33.5376 282.826 33.1242C282.611 32.7108 282.286 32.5041 281.85 32.5041C281.42 32.5041 281.094 32.7108 280.873 33.1242C280.655 33.5376 280.546 34.1512 280.546 34.965V36.3029C280.546 36.7033 280.574 37.0581 280.629 37.3674C280.688 37.6766 280.771 37.9371 280.878 38.1486C280.989 38.3602 281.125 38.5214 281.288 38.632C281.454 38.7427 281.645 38.7981 281.859 38.7981C282.077 38.7981 282.266 38.7427 282.426 38.632C282.589 38.5214 282.724 38.3602 282.831 38.1486C282.938 37.9371 283.018 37.6766 283.07 37.3674C283.126 37.0581 283.153 36.7033 283.153 36.3029V34.965ZM288.49 36.7912H287.841V39.2033H287.294V33.9201H287.841V36.259H288.48L290.082 33.9201H290.756L288.935 36.4738L290.946 39.2033H290.238L288.49 36.7912ZM294.618 34.4328H292.416V39.2033H291.869V33.9201H294.618V34.4328ZM273.871 49.2033H273.329V46.7863H271.005V49.2033H270.458V43.9201H271.005V46.2834H273.329V43.9201H273.871V49.2033ZM278.153 49.2033C278.127 49.1154 278.106 49.0064 278.09 48.8762C278.074 48.7427 278.062 48.6076 278.056 48.4709C277.987 48.5816 277.906 48.6874 277.812 48.7883C277.717 48.8859 277.608 48.9738 277.484 49.052C277.364 49.1268 277.229 49.1871 277.079 49.2326C276.929 49.2782 276.768 49.301 276.596 49.301C276.378 49.301 276.179 49.2701 276 49.2082C275.824 49.1464 275.673 49.0536 275.546 48.9299C275.419 48.8062 275.321 48.6516 275.253 48.466C275.185 48.2805 275.15 48.064 275.15 47.8166C275.15 47.5725 275.193 47.3479 275.277 47.1428C275.362 46.9345 275.487 46.7554 275.653 46.6057C275.823 46.4559 276.033 46.3387 276.283 46.2541C276.534 46.1695 276.825 46.1272 277.157 46.1272H278.051V45.3899C278.051 45.0123 277.956 44.7421 277.768 44.5793C277.582 44.4133 277.309 44.3303 276.947 44.3303C276.778 44.3303 276.622 44.3563 276.479 44.4084C276.339 44.4605 276.218 44.5337 276.117 44.6281C276.016 44.7193 275.938 44.83 275.883 44.9602C275.827 45.0871 275.8 45.2271 275.8 45.3801L275.258 45.3752C275.258 45.1701 275.299 44.9748 275.38 44.7893C275.461 44.6005 275.577 44.4345 275.727 44.2912C275.876 44.148 276.057 44.0341 276.269 43.9494C276.48 43.8648 276.715 43.8225 276.972 43.8225C277.209 43.8225 277.426 43.8518 277.621 43.9104C277.82 43.9657 277.991 44.0568 278.134 44.1838C278.277 44.3075 278.388 44.4703 278.466 44.6721C278.547 44.8706 278.588 45.1132 278.588 45.3996V48.0949C278.588 48.1861 278.591 48.2805 278.598 48.3781C278.604 48.4758 278.612 48.5718 278.622 48.6662C278.635 48.7574 278.65 48.8453 278.666 48.9299C278.686 49.0113 278.707 49.0829 278.729 49.1447V49.2033H278.153ZM276.664 48.7785C276.833 48.7785 276.991 48.7557 277.138 48.7102C277.287 48.6613 277.421 48.5962 277.538 48.5149C277.655 48.4302 277.756 48.3326 277.841 48.2219C277.929 48.1112 277.999 47.9924 278.051 47.8654V46.5813H277.235C276.724 46.5813 276.34 46.6887 276.083 46.9035C275.826 47.1184 275.697 47.4081 275.697 47.7727C275.697 48.121 275.782 48.3765 275.951 48.5393C276.124 48.6988 276.361 48.7785 276.664 48.7785ZM284.564 49.2033H284.018V42.8117L282.411 43.5295V42.9729L284.472 42.0695H284.564V49.2033ZM288.192 45.3264H288.705C288.93 45.3264 289.125 45.2906 289.291 45.219C289.46 45.1441 289.602 45.0448 289.716 44.9211C289.83 44.7974 289.914 44.6525 289.97 44.4865C290.028 44.3173 290.058 44.1382 290.058 43.9494C290.058 43.7346 290.033 43.5393 289.984 43.3635C289.936 43.1845 289.861 43.0315 289.76 42.9045C289.659 42.7775 289.532 42.6799 289.379 42.6115C289.229 42.5399 289.05 42.5041 288.842 42.5041C288.66 42.5041 288.49 42.5383 288.334 42.6067C288.181 42.6718 288.048 42.7678 287.934 42.8947C287.823 43.0217 287.735 43.1747 287.67 43.3537C287.608 43.5328 287.577 43.7346 287.577 43.9592H287.035C287.035 43.6727 287.079 43.4091 287.167 43.1682C287.258 42.9273 287.383 42.7206 287.543 42.5481C287.706 42.3755 287.898 42.2404 288.119 42.1428C288.34 42.0451 288.581 41.9963 288.842 41.9963C289.105 41.9963 289.345 42.0402 289.56 42.1281C289.778 42.216 289.963 42.3446 290.116 42.5139C290.272 42.6799 290.391 42.885 290.473 43.1291C290.557 43.3733 290.6 43.6532 290.6 43.969C290.6 44.1285 290.578 44.288 290.536 44.4475C290.494 44.6037 290.43 44.7518 290.346 44.8918C290.261 45.0318 290.155 45.1604 290.028 45.2775C289.901 45.3915 289.753 45.4859 289.584 45.5608C289.783 45.6259 289.952 45.7154 290.092 45.8293C290.235 45.9432 290.352 46.0751 290.443 46.2248C290.535 46.3713 290.601 46.5341 290.644 46.7131C290.686 46.8889 290.707 47.0744 290.707 47.2697C290.707 47.592 290.66 47.8801 290.565 48.134C290.474 48.3846 290.346 48.5979 290.18 48.7736C290.014 48.9462 289.817 49.078 289.589 49.1692C289.364 49.257 289.12 49.301 288.856 49.301C288.612 49.301 288.375 49.2587 288.144 49.174C287.916 49.0894 287.712 48.9641 287.533 48.7981C287.357 48.6288 287.216 48.4188 287.108 48.1682C287.004 47.9143 286.952 47.618 286.952 47.2795H287.494C287.494 47.5041 287.527 47.7092 287.592 47.8947C287.66 48.0803 287.753 48.2398 287.87 48.3733C287.991 48.5067 288.134 48.6109 288.3 48.6858C288.469 48.7606 288.655 48.7981 288.856 48.7981C289.27 48.7981 289.59 48.6695 289.818 48.4123C290.049 48.1519 290.165 47.7775 290.165 47.2893C290.165 47.0354 290.129 46.8173 290.058 46.635C289.989 46.4494 289.89 46.2981 289.76 46.1809C289.633 46.0604 289.48 45.9725 289.301 45.9172C289.122 45.8619 288.923 45.8342 288.705 45.8342H288.192V45.3264ZM292.641 48.9641C292.641 49.1106 292.624 49.257 292.592 49.4035C292.562 49.55 292.519 49.69 292.46 49.8234C292.401 49.9602 292.33 50.0887 292.245 50.2092C292.16 50.3296 292.064 50.4387 291.957 50.5363L291.61 50.2775C291.76 50.0757 291.874 49.8723 291.952 49.6672C292.03 49.4621 292.069 49.231 292.069 48.9738V48.2756H292.641V48.9641ZM296.205 49.2033H295.658V42.8117L294.052 43.5295V42.9729L296.112 42.0695H296.205V49.2033ZM301.293 48.3977L303.012 43.9201H303.681V49.2033H303.139V44.9602L301.483 49.2033H301.103L299.413 44.8527V49.2033H298.876V43.9201H299.584L301.293 48.3977Z" fill="black"/>
<path d="M322.175 32.0451V32.5676H322.101C321.743 32.5676 321.426 32.6327 321.149 32.7629C320.872 32.8899 320.638 33.0754 320.446 33.3195C320.254 33.5604 320.103 33.8534 319.992 34.1984C319.885 34.5435 319.819 34.9309 319.797 35.3606C319.963 35.0969 320.169 34.8934 320.417 34.7502C320.664 34.607 320.939 34.5354 321.242 34.5354C321.528 34.5354 321.779 34.5988 321.994 34.7258C322.212 34.8527 322.391 35.0236 322.531 35.2385C322.674 35.4501 322.782 35.6975 322.853 35.9807C322.925 36.2639 322.961 36.5617 322.961 36.8742C322.961 37.216 322.92 37.535 322.839 37.8313C322.757 38.1275 322.64 38.3846 322.487 38.6027C322.334 38.8176 322.147 38.9885 321.926 39.1154C321.707 39.2391 321.458 39.301 321.178 39.301C320.872 39.301 320.599 39.2326 320.358 39.0959C320.121 38.9559 319.919 38.7671 319.753 38.5295C319.587 38.2919 319.46 38.0152 319.372 37.6994C319.287 37.3837 319.245 37.0468 319.245 36.6887V36.0686C319.245 35.4664 319.299 34.9178 319.406 34.4231C319.517 33.9283 319.688 33.5051 319.919 33.1535C320.153 32.802 320.449 32.5302 320.807 32.3381C321.169 32.1428 321.6 32.0451 322.101 32.0451H322.175ZM321.154 35.0481C320.998 35.0481 320.846 35.0774 320.7 35.1359C320.553 35.1945 320.418 35.2759 320.295 35.3801C320.174 35.4843 320.07 35.608 319.982 35.7512C319.894 35.8912 319.829 36.0442 319.787 36.2102V36.6984C319.787 37.0272 319.823 37.3218 319.894 37.5822C319.969 37.8394 320.068 38.0575 320.192 38.2365C320.319 38.4156 320.467 38.5539 320.636 38.6516C320.806 38.746 320.986 38.7932 321.178 38.7932C321.374 38.7932 321.548 38.7443 321.701 38.6467C321.857 38.5458 321.989 38.4107 322.096 38.2414C322.204 38.0689 322.285 37.8671 322.341 37.6359C322.399 37.4048 322.428 37.1591 322.428 36.8986C322.428 36.6512 322.402 36.4152 322.35 36.1906C322.298 35.966 322.219 35.7691 322.111 35.5998C322.007 35.4305 321.875 35.2971 321.716 35.1994C321.556 35.0985 321.369 35.0481 321.154 35.0481ZM327.756 36.2346C327.756 36.7587 327.713 37.2144 327.629 37.6018C327.547 37.9859 327.427 38.3049 327.267 38.5588C327.111 38.8095 326.919 38.9966 326.691 39.1203C326.463 39.2408 326.205 39.301 325.915 39.301C325.628 39.301 325.371 39.2408 325.143 39.1203C324.915 38.9966 324.722 38.8095 324.562 38.5588C324.403 38.3049 324.279 37.9859 324.191 37.6018C324.107 37.2144 324.064 36.7587 324.064 36.2346V35.0432C324.064 34.5191 324.107 34.0666 324.191 33.6858C324.276 33.3016 324.396 32.9843 324.552 32.7336C324.712 32.483 324.906 32.2974 325.134 32.177C325.361 32.0565 325.619 31.9963 325.905 31.9963C326.191 31.9963 326.449 32.0565 326.677 32.177C326.908 32.2974 327.103 32.483 327.262 32.7336C327.422 32.9843 327.544 33.3016 327.629 33.6858C327.713 34.0666 327.756 34.5191 327.756 35.0432V36.2346ZM327.209 34.965C327.209 34.1512 327.1 33.5376 326.882 33.1242C326.667 32.7108 326.341 32.5041 325.905 32.5041C325.475 32.5041 325.15 32.7108 324.928 33.1242C324.71 33.5376 324.601 34.1512 324.601 34.965V36.3029C324.601 36.7033 324.629 37.0581 324.684 37.3674C324.743 37.6766 324.826 37.9371 324.933 38.1486C325.044 38.3602 325.181 38.5214 325.344 38.632C325.51 38.7427 325.7 38.7981 325.915 38.7981C326.133 38.7981 326.322 38.7427 326.481 38.632C326.644 38.5214 326.779 38.3602 326.886 38.1486C326.994 37.9371 327.074 37.6766 327.126 37.3674C327.181 37.0581 327.209 36.7033 327.209 36.3029V34.965ZM332.619 36.2346C332.619 36.7587 332.577 37.2144 332.492 37.6018C332.411 37.9859 332.29 38.3049 332.131 38.5588C331.974 38.8095 331.782 38.9966 331.554 39.1203C331.327 39.2408 331.068 39.301 330.778 39.301C330.492 39.301 330.234 39.2408 330.007 39.1203C329.779 38.9966 329.585 38.8095 329.426 38.5588C329.266 38.3049 329.142 37.9859 329.054 37.6018C328.97 37.2144 328.927 36.7587 328.927 36.2346V35.0432C328.927 34.5191 328.97 34.0666 329.054 33.6858C329.139 33.3016 329.26 32.9843 329.416 32.7336C329.575 32.483 329.769 32.2974 329.997 32.177C330.225 32.0565 330.482 31.9963 330.768 31.9963C331.055 31.9963 331.312 32.0565 331.54 32.177C331.771 32.2974 331.966 32.483 332.126 32.7336C332.285 32.9843 332.407 33.3016 332.492 33.6858C332.577 34.0666 332.619 34.5191 332.619 35.0432V36.2346ZM332.072 34.965C332.072 34.1512 331.963 33.5376 331.745 33.1242C331.53 32.7108 331.205 32.5041 330.768 32.5041C330.339 32.5041 330.013 32.7108 329.792 33.1242C329.574 33.5376 329.465 34.1512 329.465 34.965V36.3029C329.465 36.7033 329.492 37.0581 329.548 37.3674C329.606 37.6766 329.689 37.9371 329.797 38.1486C329.907 38.3602 330.044 38.5214 330.207 38.632C330.373 38.7427 330.563 38.7981 330.778 38.7981C330.996 38.7981 331.185 38.7427 331.344 38.632C331.507 38.5214 331.642 38.3602 331.75 38.1486C331.857 37.9371 331.937 37.6766 331.989 37.3674C332.044 37.0581 332.072 36.7033 332.072 36.3029V34.965ZM337.409 36.7912H336.76V39.2033H336.213V33.9201H336.76V36.259H337.399L339.001 33.9201H339.675L337.853 36.4738L339.865 39.2033H339.157L337.409 36.7912ZM343.537 34.4328H341.335V39.2033H340.788V33.9201H343.537V34.4328ZM322.79 49.2033H322.248V46.7863H319.924V49.2033H319.377V43.9201H319.924V46.2834H322.248V43.9201H322.79V49.2033ZM327.072 49.2033C327.046 49.1154 327.025 49.0064 327.009 48.8762C326.992 48.7427 326.981 48.6076 326.974 48.4709C326.906 48.5816 326.825 48.6874 326.73 48.7883C326.636 48.8859 326.527 48.9738 326.403 49.052C326.283 49.1268 326.148 49.1871 325.998 49.2326C325.848 49.2782 325.687 49.301 325.514 49.301C325.296 49.301 325.098 49.2701 324.919 49.2082C324.743 49.1464 324.592 49.0536 324.465 48.9299C324.338 48.8062 324.24 48.6516 324.172 48.466C324.103 48.2805 324.069 48.064 324.069 47.8166C324.069 47.5725 324.111 47.3479 324.196 47.1428C324.281 46.9345 324.406 46.7554 324.572 46.6057C324.741 46.4559 324.951 46.3387 325.202 46.2541C325.453 46.1695 325.744 46.1272 326.076 46.1272H326.969V45.3899C326.969 45.0123 326.875 44.7421 326.686 44.5793C326.501 44.4133 326.227 44.3303 325.866 44.3303C325.697 44.3303 325.54 44.3563 325.397 44.4084C325.257 44.4605 325.137 44.5337 325.036 44.6281C324.935 44.7193 324.857 44.83 324.802 44.9602C324.746 45.0871 324.719 45.2271 324.719 45.3801L324.177 45.3752C324.177 45.1701 324.217 44.9748 324.299 44.7893C324.38 44.6005 324.496 44.4345 324.645 44.2912C324.795 44.148 324.976 44.0341 325.187 43.9494C325.399 43.8648 325.633 43.8225 325.89 43.8225C326.128 43.8225 326.344 43.8518 326.54 43.9104C326.738 43.9657 326.909 44.0568 327.052 44.1838C327.196 44.3075 327.306 44.4703 327.385 44.6721C327.466 44.8706 327.507 45.1132 327.507 45.3996V48.0949C327.507 48.1861 327.51 48.2805 327.516 48.3781C327.523 48.4758 327.531 48.5718 327.541 48.6662C327.554 48.7574 327.568 48.8453 327.585 48.9299C327.604 49.0113 327.625 49.0829 327.648 49.1447V49.2033H327.072ZM325.583 48.7785C325.752 48.7785 325.91 48.7557 326.056 48.7102C326.206 48.6613 326.34 48.5962 326.457 48.5149C326.574 48.4302 326.675 48.3326 326.76 48.2219C326.847 48.1112 326.917 47.9924 326.969 47.8654V46.5813H326.154C325.643 46.5813 325.259 46.6887 325.002 46.9035C324.745 47.1184 324.616 47.4081 324.616 47.7727C324.616 48.121 324.701 48.3765 324.87 48.5393C325.042 48.6988 325.28 48.7785 325.583 48.7785ZM333.483 49.2033H332.936V42.8117L331.33 43.5295V42.9729L333.39 42.0695H333.483V49.2033ZM336.354 45.5608L336.647 42.094H339.65V42.6506H337.111L336.911 45.0334C336.963 44.9911 337.026 44.9471 337.101 44.9016C337.176 44.8527 337.261 44.8104 337.355 44.7746C337.45 44.7356 337.551 44.7046 337.658 44.6818C337.769 44.6558 337.886 44.6428 338.01 44.6428C338.276 44.6428 338.519 44.6965 338.737 44.8039C338.955 44.9081 339.141 45.0595 339.294 45.258C339.447 45.4566 339.566 45.6975 339.65 45.9807C339.735 46.2639 339.777 46.5829 339.777 46.9377C339.777 47.2795 339.741 47.5953 339.67 47.885C339.598 48.1714 339.489 48.4205 339.343 48.632C339.196 48.8404 339.009 49.0048 338.781 49.1252C338.556 49.2424 338.288 49.301 337.975 49.301C337.734 49.301 337.508 49.2619 337.297 49.1838C337.088 49.1024 336.903 48.9803 336.74 48.8176C336.577 48.6548 336.444 48.4498 336.34 48.2024C336.235 47.955 336.172 47.6652 336.149 47.3332H336.667C336.712 47.8117 336.847 48.1763 337.072 48.427C337.297 48.6744 337.598 48.7981 337.975 48.7981C338.389 48.7981 338.701 48.6369 338.913 48.3147C339.128 47.9924 339.235 47.5367 339.235 46.9475C339.235 46.7001 339.206 46.469 339.147 46.2541C339.089 46.0393 339.002 45.8537 338.888 45.6975C338.778 45.538 338.639 45.4143 338.473 45.3264C338.311 45.2352 338.122 45.1897 337.907 45.1897C337.764 45.1897 337.638 45.2027 337.531 45.2287C337.424 45.2515 337.326 45.2857 337.238 45.3313C337.153 45.3736 337.074 45.4257 336.999 45.4875C336.927 45.5494 336.856 45.6193 336.784 45.6975L336.354 45.5608ZM341.559 48.9641C341.559 49.1106 341.543 49.257 341.51 49.4035C341.481 49.55 341.437 49.69 341.379 49.8234C341.32 49.9602 341.248 50.0887 341.164 50.2092C341.079 50.3296 340.983 50.4387 340.876 50.5363L340.529 50.2775C340.679 50.0757 340.793 49.8723 340.871 49.6672C340.949 49.4621 340.988 49.231 340.988 48.9738V48.2756H341.559V48.9641ZM343.132 45.5608L343.425 42.094H346.427V42.6506H343.888L343.688 45.0334C343.74 44.9911 343.804 44.9471 343.879 44.9016C343.954 44.8527 344.038 44.8104 344.133 44.7746C344.227 44.7356 344.328 44.7046 344.435 44.6818C344.546 44.6558 344.663 44.6428 344.787 44.6428C345.054 44.6428 345.296 44.6965 345.514 44.8039C345.733 44.9081 345.918 45.0595 346.071 45.258C346.224 45.4566 346.343 45.6975 346.427 45.9807C346.512 46.2639 346.554 46.5829 346.554 46.9377C346.554 47.2795 346.519 47.5953 346.447 47.885C346.375 48.1714 346.266 48.4205 346.12 48.632C345.973 48.8404 345.786 49.0048 345.558 49.1252C345.334 49.2424 345.065 49.301 344.753 49.301C344.512 49.301 344.286 49.2619 344.074 49.1838C343.866 49.1024 343.68 48.9803 343.517 48.8176C343.355 48.6548 343.221 48.4498 343.117 48.2024C343.013 47.955 342.949 47.6652 342.927 47.3332H343.444C343.49 47.8117 343.625 48.1763 343.849 48.427C344.074 48.6744 344.375 48.7981 344.753 48.7981C345.166 48.7981 345.479 48.6369 345.69 48.3147C345.905 47.9924 346.012 47.5367 346.012 46.9475C346.012 46.7001 345.983 46.469 345.925 46.2541C345.866 46.0393 345.78 45.8537 345.666 45.6975C345.555 45.538 345.417 45.4143 345.251 45.3264C345.088 45.2352 344.899 45.1897 344.684 45.1897C344.541 45.1897 344.416 45.2027 344.308 45.2287C344.201 45.2515 344.103 45.2857 344.015 45.3313C343.931 45.3736 343.851 45.4257 343.776 45.4875C343.705 45.5494 343.633 45.6193 343.561 45.6975L343.132 45.5608ZM350.212 48.3977L351.93 43.9201H352.599V49.2033H352.057V44.9602L350.402 49.2033H350.021L348.332 44.8527V49.2033H347.795V43.9201H348.503L350.212 48.3977Z" fill="black"/>
</svg>
