<svg width="581" height="53" viewBox="0 0 581 53" fill="none" xmlns="http://www.w3.org/2000/svg">
<path d="M3.16382 36.7795L0 44.1147H6.32765L3.16382 36.7795Z" fill="#5159A3"/>
<path d="M131.534 40.4466L126.059 35.9409V44.9522L131.534 40.4466Z" fill="#D92B2B"/>
<path d="M239.58 40.4466L234.105 35.9409V44.9522L239.58 40.4466Z" fill="#D92B2B"/>
<path d="M319.288 40.4466L313.813 35.9409V44.9522L319.288 40.4466Z" fill="#D92B2B"/>
<path d="M407.841 40.4466L402.366 35.9409V44.9522L407.841 40.4466Z" fill="#D92B2B"/>
<path d="M492.618 40.4466L487.143 35.9409V44.9522L492.618 40.4466Z" fill="#D92B2B"/>
<path d="M573.176 40.4466L567.701 35.9409V44.9522L573.176 40.4466Z" fill="#D92B2B"/>
<path d="M129.87 18.8722H571.478V7.16943H121.161L129.87 18.8722Z" fill="#201500" stroke="black" stroke-width="0.5" stroke-miterlimit="10" stroke-linecap="round" stroke-linejoin="round"/>
<path d="M576.765 28.5338H574.208C572.7 28.5338 571.478 27.3116 571.478 25.8038V7.17804C571.478 5.67026 572.7 4.448 574.208 4.448H577.27C578.778 4.448 580 5.67026 580 7.17804L579.323 26.0662C579.274 27.4431 578.143 28.5338 576.765 28.5338Z" fill="#5159A3" stroke="black" stroke-width="0.5" stroke-miterlimit="10" stroke-linecap="round" stroke-linejoin="round"/>
<path d="M129.87 18.8722H25.7019L11.2095 7.16943H121.161L129.87 18.8722Z" fill="#5159A3" stroke="black" stroke-width="0.5" stroke-miterlimit="10" stroke-linecap="round" stroke-linejoin="round"/>
<path d="M13.6247 7.61173L10.3497 5.2847C9.9713 5.01586 9.74652 4.22398 9.74652 3.75978C9.74652 2.70289 8.88977 1.84619 7.83291 1.84619C6.77606 1.84619 5.91931 2.70289 5.91931 3.75978V5.44879C5.91931 6.35407 6.37063 7.19974 7.12267 7.70368L10.8692 10.2142L13.6247 7.61173Z" fill="#5159A3" stroke="black" stroke-width="0.5" stroke-miterlimit="10" stroke-linecap="round" stroke-linejoin="round"/>
<path d="M1.31378 16.1082L11.6062 6.4352C11.9082 6.15127 12.3702 6.12427 12.7032 6.37102L25.5728 15.9041C25.7891 16.0642 26.0511 16.1507 26.3202 16.1507H38.2248C38.7851 16.1507 39.0103 16.8736 38.5491 17.1918L26.9593 25.1888C26.6383 25.4103 26.2325 25.4701 25.8613 25.3505L1.63801 17.5487C1.01675 17.3486 0.838178 16.5552 1.31378 16.1082Z" fill="#5159A3" stroke="black" stroke-width="0.5" stroke-miterlimit="10" stroke-linecap="round" stroke-linejoin="round"/>
<path d="M9.77229 15.4788C10.5661 15.4788 11.2096 14.8353 11.2096 14.0415C11.2096 13.2477 10.5661 12.6041 9.77229 12.6041C8.97848 12.6041 8.33496 13.2477 8.33496 14.0415C8.33496 14.8353 8.97848 15.4788 9.77229 15.4788Z" fill="#5159A3" stroke="black" stroke-width="0.5" stroke-miterlimit="10" stroke-linecap="round" stroke-linejoin="round"/>
<path d="M25.7613 24.0178C26.5551 24.0178 27.1986 23.3742 27.1986 22.5804C27.1986 21.7866 26.5551 21.1431 25.7613 21.1431C24.9675 21.1431 24.324 21.7866 24.324 22.5804C24.324 23.3742 24.9675 24.0178 25.7613 24.0178Z" fill="#5159A3" stroke="black" stroke-width="0.5" stroke-miterlimit="10" stroke-linecap="round" stroke-linejoin="round"/>
<path d="M50.9444 7.16947H49.3115V4.37212C49.3115 3.92123 49.677 3.55566 50.1279 3.55566C50.5789 3.55566 50.9444 3.92123 50.9444 4.37212V7.16947Z" fill="#221500" stroke="black" stroke-width="0.5" stroke-miterlimit="10" stroke-linecap="round" stroke-linejoin="round"/>
<path d="M108.359 7.16938H105.102V3.94438C105.102 3.7715 105.242 3.63135 105.415 3.63135H105.792C105.979 3.63135 106.153 3.72667 106.254 3.88421L108.359 7.16938Z" fill="#221500" stroke="black" stroke-width="0.5" stroke-miterlimit="10" stroke-linecap="round" stroke-linejoin="round"/>
<path d="M311.12 3.98808H307.903V0.802375C307.903 0.631592 308.042 0.493164 308.212 0.493164H308.584C308.769 0.493164 308.941 0.587277 309.041 0.742901L311.12 3.98808Z" fill="#221500" stroke="black" stroke-width="0.5" stroke-miterlimit="10" stroke-linecap="round" stroke-linejoin="round"/>
<path d="M68.3795 18.8723H67.1888V23.0227C67.1888 23.3515 67.4554 23.618 67.7842 23.618C68.113 23.618 68.3795 23.3515 68.3795 23.0227V18.8723H68.3795Z" fill="#221500" stroke="black" stroke-width="0.5" stroke-miterlimit="10" stroke-linecap="round" stroke-linejoin="round"/>
<path d="M118.524 18.8723H117.334V23.0227C117.334 23.3515 117.6 23.618 117.929 23.618C118.258 23.618 118.524 23.3515 118.524 23.0227V18.8723Z" fill="#221500" stroke="black" stroke-width="0.5" stroke-miterlimit="10" stroke-linecap="round" stroke-linejoin="round"/>
<path d="M94.7788 18.8723H93.5881V23.0227C93.5881 23.3515 93.8547 23.618 94.1835 23.618C94.5123 23.618 94.7788 23.3515 94.7788 23.0227V18.8723H94.7788Z" fill="#221500" stroke="black" stroke-width="0.5" stroke-miterlimit="10" stroke-linecap="round" stroke-linejoin="round"/>
<path d="M132.791 19.8928H127.087C126.912 19.8928 126.746 19.8094 126.642 19.6681L116.92 6.48749C116.816 6.34721 116.917 6.14893 117.091 6.14893H122.795C122.971 6.14893 123.136 6.23235 123.24 6.37364L132.962 19.5542C133.066 19.6945 132.966 19.8928 132.791 19.8928Z" fill="#5159A3" stroke="black" stroke-width="0.5" stroke-miterlimit="10" stroke-linecap="round" stroke-linejoin="round"/>
<path d="M241.219 16.9781V19.2131C241.219 19.5913 240.913 19.8979 240.535 19.8979H238.055C237.733 19.8979 237.428 19.7541 237.224 19.5058L228.422 8.84308C228.163 8.5303 228.022 8.13743 228.022 7.7318V4.44791C228.022 4.1939 228.228 3.98804 228.482 3.98804H232.643C232.897 3.98804 233.103 4.1939 233.103 4.44791V6.12539C233.103 6.53081 233.244 6.92363 233.502 7.23634L240.973 16.2916C241.132 16.4848 241.219 16.7275 241.219 16.9781Z" fill="#5159A3" stroke="black" stroke-width="0.5" stroke-miterlimit="10" stroke-linecap="round" stroke-linejoin="round"/>
<path d="M320.111 16.9781V19.2131C320.111 19.5913 319.804 19.8979 319.426 19.8979H316.947C316.625 19.8979 316.32 19.7541 316.115 19.5058L307.313 8.84308C307.055 8.5303 306.914 8.13743 306.914 7.7318V4.44791C306.914 4.1939 307.12 3.98804 307.374 3.98804H311.534C311.788 3.98804 311.994 4.1939 311.994 4.44791V6.12539C311.994 6.53081 312.135 6.92363 312.393 7.23634L319.864 16.2916C320.024 16.4848 320.111 16.7275 320.111 16.9781Z" fill="#5159A3" stroke="black" stroke-width="0.5" stroke-miterlimit="10" stroke-linecap="round" stroke-linejoin="round"/>
<path d="M406.451 5.20859H402.338V1.13511C402.338 0.916765 402.515 0.739746 402.733 0.739746H403.209C403.445 0.739746 403.665 0.8601 403.792 1.05914L406.451 5.20859Z" fill="#221500" stroke="black" stroke-width="0.5" stroke-miterlimit="10" stroke-linecap="round" stroke-linejoin="round"/>
<path d="M413.066 16.3888V19.2092C413.066 19.5953 412.764 19.8979 412.388 19.8979H409.905C409.582 19.8979 409.279 19.7517 409.071 19.5013L400.276 8.83917C400.015 8.52614 399.869 8.14026 399.869 7.73324V5.66759C399.869 5.41512 400.076 5.20862 400.328 5.20862H407.86C408.113 5.20862 408.32 5.41519 408.32 5.66772V9.3459C408.32 9.91981 408.519 10.4758 408.884 10.9186L412.826 15.7001C412.983 15.8985 413.066 16.1384 413.066 16.3888Z" fill="#5159A3" stroke="black" stroke-width="0.5" stroke-miterlimit="10" stroke-linecap="round" stroke-linejoin="round"/>
<path d="M489.186 5.20859H485.073V1.13511C485.073 0.916765 485.25 0.739746 485.469 0.739746H485.944C486.181 0.739746 486.401 0.8601 486.528 1.05914L489.186 5.20859Z" fill="#221500" stroke="black" stroke-width="0.5" stroke-miterlimit="10" stroke-linecap="round" stroke-linejoin="round"/>
<path d="M495.802 16.3888V19.2092C495.802 19.5953 495.5 19.8979 495.124 19.8979H492.641C492.318 19.8979 492.015 19.7517 491.806 19.5013L483.012 8.83917C482.751 8.52614 482.605 8.14026 482.605 7.73324V5.66759C482.605 5.41512 482.811 5.20862 483.064 5.20862H490.596C490.849 5.20862 491.055 5.41519 491.055 5.66772V9.3459C491.055 9.91981 491.255 10.4758 491.62 10.9186L495.562 15.7001C495.719 15.8985 495.802 16.1384 495.802 16.3888Z" fill="#5159A3" stroke="black" stroke-width="0.5" stroke-miterlimit="10" stroke-linecap="round" stroke-linejoin="round"/>
<path d="M310.47 2.97424H402.338" stroke="black" stroke-width="0.5" stroke-miterlimit="10" stroke-linecap="round" stroke-linejoin="round"/>
<path d="M405.019 2.97424H485.073" stroke="black" stroke-width="0.5" stroke-miterlimit="10" stroke-linecap="round" stroke-linejoin="round"/>
<path d="M88.4811 11.5211V15.7424L90.6185 13.6318L88.4811 11.5211ZM93.3565 10.9188H89.1478L91.2522 13.0061L93.3565 10.9188ZM102.171 11.3314H103.462L101.864 14.0919V15.7424H100.729V14.0919L99.1305 11.3314H100.421L101.296 13.1195L102.171 11.3314ZM99.3811 13.3435V13.7302C99.3811 14.8415 98.4445 15.7423 97.3366 15.7423H95.338V11.3315H97.3366C98.4445 11.3315 99.3811 12.2323 99.3811 13.3435ZM98.235 13.384C98.235 12.7957 97.7596 12.3189 97.1732 12.3189H96.4839V14.7552L97.1732 14.7549C97.7596 14.7549 98.2352 14.2781 98.235 13.6897V13.384ZM89.3038 16.1978H91.8054C92.79 16.1978 93.5881 15.3973 93.5881 14.4097V11.9007L89.3038 16.1978Z" fill="white"/>
<path d="M113.01 14.1121L113.476 14.7891V14.1121H113.755V15.3982H113.608L113.124 14.7196V15.3982H112.845V14.1121H113.01ZM104.114 14.1121L104.465 14.9895L104.815 14.1121H105.094V15.3982H104.815V14.8664L104.602 15.3982H104.327L104.114 14.8664V15.3982H103.835V14.1121H104.114ZM105.997 14.1121V14.3914H105.499V14.5855H105.997V14.8648H105.499V15.1188H105.997V15.3982H105.22V14.1121H105.997ZM107.27 14.4813H106.926C106.863 14.4261 106.779 14.3914 106.688 14.3914C106.487 14.3914 106.325 14.5539 106.325 14.756C106.325 14.9563 106.487 15.1188 106.688 15.1188C106.779 15.1188 106.863 15.0857 106.926 15.0289H107.27C107.166 15.2467 106.945 15.3982 106.688 15.3982C106.333 15.3982 106.044 15.111 106.044 14.756C106.044 14.4008 106.333 14.1121 106.688 14.1121C106.945 14.1121 107.166 14.2635 107.27 14.4813ZM108.3 14.1121V15.3982H108.021V14.8648H107.669V15.3982H107.39V14.1121H107.669V14.5855H108.021V14.1121H108.3ZM109.547 15.3982H109.247L109.165 15.182H108.772L108.688 15.3982H108.388L108.885 14.1121H109.051L109.547 15.3982ZM108.967 14.6739L108.879 14.9027H109.056L108.967 14.6739ZM110.012 14.3914V15.3982H109.733V14.3914H109.452V14.1121H110.291V14.3914H110.012ZM110.405 14.1121H110.963C111.194 14.1121 111.383 14.3014 111.383 14.5318C111.383 14.6976 111.284 14.8443 111.14 14.9106L111.38 15.3982H111.069L110.848 14.95H110.684V15.3982H110.405V14.1121H110.405ZM110.684 14.3914V14.6707H110.963C111.039 14.6707 111.104 14.606 111.104 14.5318C111.104 14.4545 111.041 14.3914 110.963 14.3914H110.684ZM112.713 14.756C112.713 15.111 112.424 15.3982 112.069 15.3982C111.714 15.3982 111.427 15.111 111.427 14.756C111.427 14.4008 111.714 14.1121 112.069 14.1121C112.424 14.1121 112.713 14.4008 112.713 14.756ZM111.706 14.756C111.706 14.9563 111.869 15.1188 112.069 15.1188C112.27 15.1188 112.432 14.9563 112.432 14.756C112.432 14.5539 112.27 14.3914 112.069 14.3914C111.869 14.3914 111.706 14.5539 111.706 14.756ZM114.168 14.1121V15.3982H113.887V14.1121H114.168ZM115.528 14.4813H115.184C115.121 14.4261 115.037 14.3914 114.946 14.3914C114.745 14.3914 114.583 14.5539 114.583 14.756C114.583 14.9563 114.745 15.1188 114.946 15.1188C115.037 15.1188 115.121 15.0857 115.184 15.0289H115.528C115.424 15.2467 115.203 15.3982 114.946 15.3982C114.591 15.3982 114.302 15.111 114.302 14.756C114.302 14.4008 114.591 14.1121 114.946 14.1121C115.203 14.1121 115.424 14.2635 115.528 14.4813ZM116.197 14.617C116.345 14.677 116.449 14.8222 116.449 14.9926C116.449 15.2167 116.268 15.3982 116.044 15.3982C115.832 15.3982 115.659 15.2356 115.64 15.0289H115.924C115.94 15.081 115.987 15.1188 116.044 15.1188C116.113 15.1188 116.17 15.062 116.17 14.9926C116.17 14.95 116.148 14.9122 116.116 14.8901C115.914 14.7875 115.695 14.7133 115.695 14.4624C115.695 14.2683 115.851 14.1121 116.044 14.1121C116.235 14.1121 116.389 14.2635 116.393 14.4529H116.113C116.109 14.4182 116.08 14.3914 116.044 14.3914C116.006 14.3914 115.974 14.4229 115.974 14.4624C115.974 14.4876 115.989 14.5113 116.009 14.5224L116.197 14.617Z" fill="white"/>
<path d="M104.232 12.0029C104.583 12.0029 104.872 12.2901 104.872 12.6432C104.872 12.9932 104.582 13.2819 104.232 13.2819H103.835V12.0029H104.232ZM104.114 13.0042H104.232C104.43 13.0042 104.594 12.8394 104.594 12.6432C104.594 12.4439 104.431 12.2807 104.232 12.2807H104.114V13.0042ZM106.288 12.6432C106.288 12.9963 106.001 13.2819 105.648 13.2819C105.294 13.2819 105.009 12.9963 105.009 12.6432C105.009 12.2901 105.294 12.0029 105.648 12.0029C106.001 12.0029 106.288 12.2901 106.288 12.6432ZM105.287 12.6432C105.287 12.8425 105.448 13.0042 105.648 13.0042C105.847 13.0042 106.009 12.8425 106.009 12.6432C106.009 12.4424 105.847 12.2807 105.648 12.2807C105.448 12.2807 105.287 12.4424 105.287 12.6432ZM108.75 12.4047H108.429C108.363 12.3293 108.266 12.2807 108.156 12.2807C107.956 12.2807 107.795 12.4424 107.795 12.6432C107.795 12.8425 107.956 13.0042 108.156 13.0042C108.251 13.0042 108.339 12.9665 108.404 12.9069H108.151V12.6275H108.796C108.796 12.9884 108.52 13.2819 108.156 13.2819C107.803 13.2819 107.517 12.9963 107.517 12.6432C107.517 12.2901 107.803 12.0029 108.156 12.0029C108.426 12.0029 108.656 12.1693 108.75 12.4047ZM109.322 13.2819H109.044V12.7484L108.668 12.0029H108.98L109.184 12.4063L109.387 12.0029H109.699L109.322 12.7484V13.2819H109.322ZM110.651 13.2819H110.353L110.271 13.067H109.881L109.797 13.2819H109.499L109.994 12.0029H110.158L110.651 13.2819ZM110.075 12.5616L109.987 12.7891H110.163L110.075 12.5616ZM106.569 12.0029L107.087 12.6762V12.0029H107.398V13.2819H107.234L106.696 12.6072V13.2819H106.385V12.0029H106.569ZM110.937 12.0029L111.455 12.6762V12.0029H111.766V13.2819H111.602L111.064 12.6072V13.2819H110.753V12.0029H110.937ZM113.101 12.4047H112.779C112.714 12.3293 112.616 12.2807 112.506 12.2807C112.307 12.2807 112.145 12.4424 112.145 12.6432C112.145 12.8425 112.307 13.0042 112.506 13.0042C112.602 13.0042 112.69 12.9665 112.754 12.9069H112.502V12.6275H113.147C113.147 12.9884 112.87 13.2819 112.506 13.2819C112.153 13.2819 111.868 12.9963 111.868 12.6432C111.868 12.2901 112.153 12.0029 112.506 12.0029C112.776 12.0029 113.007 12.1693 113.101 12.4047Z" fill="white"/>
<path d="M88.4811 11.5211V15.7424L90.6185 13.6318L88.4811 11.5211ZM93.3565 10.9188H89.1478L91.2522 13.0061L93.3565 10.9188ZM102.171 11.3314H103.462L101.864 14.0919V15.7424H100.729V14.0919L99.1305 11.3314H100.421L101.296 13.1195L102.171 11.3314ZM99.3811 13.3435V13.7302C99.3811 14.8415 98.4445 15.7423 97.3366 15.7423H95.338V11.3315H97.3366C98.4445 11.3315 99.3811 12.2323 99.3811 13.3435ZM98.235 13.384C98.235 12.7957 97.7596 12.3189 97.1732 12.3189H96.4839V14.7552L97.1732 14.7549C97.7596 14.7549 98.2352 14.2781 98.235 13.6897V13.384ZM89.3038 16.1978H91.8054C92.79 16.1978 93.5881 15.3973 93.5881 14.4097V11.9007L89.3038 16.1978Z" fill="white"/>
<path d="M113.01 14.1121L113.476 14.7891V14.1121H113.755V15.3982H113.608L113.124 14.7196V15.3982H112.845V14.1121H113.01ZM104.114 14.1121L104.465 14.9895L104.815 14.1121H105.094V15.3982H104.815V14.8664L104.602 15.3982H104.327L104.114 14.8664V15.3982H103.835V14.1121H104.114ZM105.997 14.1121V14.3914H105.499V14.5855H105.997V14.8648H105.499V15.1188H105.997V15.3982H105.22V14.1121H105.997ZM107.27 14.4813H106.926C106.863 14.4261 106.779 14.3914 106.688 14.3914C106.487 14.3914 106.325 14.5539 106.325 14.756C106.325 14.9563 106.487 15.1188 106.688 15.1188C106.779 15.1188 106.863 15.0857 106.926 15.0289H107.27C107.166 15.2467 106.945 15.3982 106.688 15.3982C106.333 15.3982 106.044 15.111 106.044 14.756C106.044 14.4008 106.333 14.1121 106.688 14.1121C106.945 14.1121 107.166 14.2635 107.27 14.4813ZM108.3 14.1121V15.3982H108.021V14.8648H107.669V15.3982H107.39V14.1121H107.669V14.5855H108.021V14.1121H108.3ZM109.547 15.3982H109.247L109.165 15.182H108.772L108.688 15.3982H108.388L108.885 14.1121H109.051L109.547 15.3982ZM108.967 14.6739L108.879 14.9027H109.056L108.967 14.6739ZM110.012 14.3914V15.3982H109.733V14.3914H109.452V14.1121H110.291V14.3914H110.012ZM110.405 14.1121H110.963C111.194 14.1121 111.383 14.3014 111.383 14.5318C111.383 14.6976 111.284 14.8443 111.14 14.9106L111.38 15.3982H111.069L110.848 14.95H110.684V15.3982H110.405V14.1121H110.405ZM110.684 14.3914V14.6707H110.963C111.039 14.6707 111.104 14.606 111.104 14.5318C111.104 14.4545 111.041 14.3914 110.963 14.3914H110.684ZM112.713 14.756C112.713 15.111 112.424 15.3982 112.069 15.3982C111.714 15.3982 111.427 15.111 111.427 14.756C111.427 14.4008 111.714 14.1121 112.069 14.1121C112.424 14.1121 112.713 14.4008 112.713 14.756ZM111.706 14.756C111.706 14.9563 111.869 15.1188 112.069 15.1188C112.27 15.1188 112.432 14.9563 112.432 14.756C112.432 14.5539 112.27 14.3914 112.069 14.3914C111.869 14.3914 111.706 14.5539 111.706 14.756ZM114.168 14.1121V15.3982H113.887V14.1121H114.168ZM115.528 14.4813H115.184C115.121 14.4261 115.037 14.3914 114.946 14.3914C114.745 14.3914 114.583 14.5539 114.583 14.756C114.583 14.9563 114.745 15.1188 114.946 15.1188C115.037 15.1188 115.121 15.0857 115.184 15.0289H115.528C115.424 15.2467 115.203 15.3982 114.946 15.3982C114.591 15.3982 114.302 15.111 114.302 14.756C114.302 14.4008 114.591 14.1121 114.946 14.1121C115.203 14.1121 115.424 14.2635 115.528 14.4813ZM116.197 14.617C116.345 14.677 116.449 14.8222 116.449 14.9926C116.449 15.2167 116.268 15.3982 116.044 15.3982C115.832 15.3982 115.659 15.2356 115.64 15.0289H115.924C115.94 15.081 115.987 15.1188 116.044 15.1188C116.113 15.1188 116.17 15.062 116.17 14.9926C116.17 14.95 116.148 14.9122 116.116 14.8901C115.914 14.7875 115.695 14.7133 115.695 14.4624C115.695 14.2683 115.851 14.1121 116.044 14.1121C116.235 14.1121 116.389 14.2635 116.393 14.4529H116.113C116.109 14.4182 116.08 14.3914 116.044 14.3914C116.006 14.3914 115.974 14.4229 115.974 14.4624C115.974 14.4876 115.989 14.5113 116.009 14.5224L116.197 14.617Z" fill="white"/>
<path d="M104.232 12.0029C104.583 12.0029 104.872 12.2901 104.872 12.6432C104.872 12.9932 104.582 13.2819 104.232 13.2819H103.835V12.0029H104.232ZM104.114 13.0042H104.232C104.43 13.0042 104.594 12.8394 104.594 12.6432C104.594 12.4439 104.431 12.2807 104.232 12.2807H104.114V13.0042ZM106.288 12.6432C106.288 12.9963 106.001 13.2819 105.648 13.2819C105.294 13.2819 105.009 12.9963 105.009 12.6432C105.009 12.2901 105.294 12.0029 105.648 12.0029C106.001 12.0029 106.288 12.2901 106.288 12.6432ZM105.287 12.6432C105.287 12.8425 105.448 13.0042 105.648 13.0042C105.847 13.0042 106.009 12.8425 106.009 12.6432C106.009 12.4424 105.847 12.2807 105.648 12.2807C105.448 12.2807 105.287 12.4424 105.287 12.6432ZM108.75 12.4047H108.429C108.363 12.3293 108.266 12.2807 108.156 12.2807C107.956 12.2807 107.795 12.4424 107.795 12.6432C107.795 12.8425 107.956 13.0042 108.156 13.0042C108.251 13.0042 108.339 12.9665 108.404 12.9069H108.151V12.6275H108.796C108.796 12.9884 108.52 13.2819 108.156 13.2819C107.803 13.2819 107.517 12.9963 107.517 12.6432C107.517 12.2901 107.803 12.0029 108.156 12.0029C108.426 12.0029 108.656 12.1693 108.75 12.4047ZM109.322 13.2819H109.044V12.7484L108.668 12.0029H108.98L109.184 12.4063L109.387 12.0029H109.699L109.322 12.7484V13.2819H109.322ZM110.651 13.2819H110.353L110.271 13.067H109.881L109.797 13.2819H109.499L109.994 12.0029H110.158L110.651 13.2819ZM110.075 12.5616L109.987 12.7891H110.163L110.075 12.5616ZM106.569 12.0029L107.087 12.6762V12.0029H107.398V13.2819H107.234L106.696 12.6072V13.2819H106.385V12.0029H106.569ZM110.937 12.0029L111.455 12.6762V12.0029H111.766V13.2819H111.602L111.064 12.6072V13.2819H110.753V12.0029H110.937ZM113.101 12.4047H112.779C112.714 12.3293 112.616 12.2807 112.506 12.2807C112.307 12.2807 112.145 12.4424 112.145 12.6432C112.145 12.8425 112.307 13.0042 112.506 13.0042C112.602 13.0042 112.69 12.9665 112.754 12.9069H112.502V12.6275H113.147C113.147 12.9884 112.87 13.2819 112.506 13.2819C112.153 13.2819 111.868 12.9963 111.868 12.6432C111.868 12.2901 112.153 12.0029 112.506 12.0029C112.776 12.0029 113.007 12.1693 113.101 12.4047Z" fill="white"/>
<path d="M14.1832 39.2034H13.6363V32.8118L12.0298 33.5295V32.9729L14.0904 32.0696H14.1832V39.2034ZM17.0543 35.5608L17.3472 32.094H20.3502V32.6506H17.8111L17.6109 35.0334C17.663 34.9911 17.7265 34.9472 17.8013 34.9016C17.8762 34.8528 17.9608 34.8105 18.0552 34.7747C18.1496 34.7356 18.2505 34.7047 18.358 34.6819C18.4686 34.6558 18.5858 34.6428 18.7095 34.6428C18.9765 34.6428 19.219 34.6965 19.4371 34.804C19.6552 34.9081 19.8407 35.0595 19.9937 35.2581C20.1467 35.4566 20.2655 35.6975 20.3502 35.9807C20.4348 36.2639 20.4771 36.5829 20.4771 36.9377C20.4771 37.2795 20.4413 37.5953 20.3697 37.885C20.2981 38.1715 20.189 38.4205 20.0425 38.6321C19.8961 38.8404 19.7089 39.0048 19.481 39.1252C19.2564 39.2424 18.9879 39.301 18.6754 39.301C18.4345 39.301 18.2082 39.262 17.9966 39.1838C17.7883 39.1025 17.6028 38.9804 17.44 38.8176C17.2772 38.6549 17.1438 38.4498 17.0396 38.2024C16.9354 37.955 16.872 37.6653 16.8492 37.3333H17.3668C17.4123 37.8118 17.5474 38.1764 17.772 38.427C17.9966 38.6744 18.2977 38.7981 18.6754 38.7981C19.0888 38.7981 19.4013 38.637 19.6129 38.3147C19.8277 37.9924 19.9351 37.5367 19.9351 36.9475C19.9351 36.7001 19.9058 36.469 19.8472 36.2542C19.7886 36.0393 19.7024 35.8538 19.5884 35.6975C19.4778 35.538 19.3394 35.4143 19.1734 35.3264C19.0106 35.2353 18.8218 35.1897 18.607 35.1897C18.4638 35.1897 18.3384 35.2027 18.231 35.2288C18.1236 35.2515 18.0259 35.2857 17.938 35.3313C17.8534 35.3736 17.7737 35.4257 17.6988 35.4875C17.6272 35.5494 17.5556 35.6194 17.4839 35.6975L17.0543 35.5608ZM25.2134 36.2346C25.2134 36.7587 25.1711 37.2144 25.0865 37.6018C25.0051 37.9859 24.8847 38.3049 24.7252 38.5588C24.5689 38.8095 24.3769 38.9967 24.149 39.1204C23.9211 39.2408 23.6623 39.301 23.3726 39.301C23.0862 39.301 22.829 39.2408 22.6011 39.1204C22.3733 38.9967 22.1796 38.8095 22.0201 38.5588C21.8606 38.3049 21.7369 37.9859 21.649 37.6018C21.5644 37.2144 21.522 36.7587 21.522 36.2346V35.0432C21.522 34.5191 21.5644 34.0667 21.649 33.6858C21.7336 33.3017 21.8541 32.9843 22.0103 32.7336C22.1698 32.483 22.3635 32.2974 22.5914 32.177C22.8192 32.0566 23.0764 31.9963 23.3629 31.9963C23.6493 31.9963 23.9065 32.0566 24.1343 32.177C24.3655 32.2974 24.5608 32.483 24.7203 32.7336C24.8798 32.9843 25.0019 33.3017 25.0865 33.6858C25.1711 34.0667 25.2134 34.5191 25.2134 35.0432V36.2346ZM24.6666 34.9651C24.6666 34.1513 24.5575 33.5377 24.3394 33.1243C24.1246 32.7109 23.7991 32.5042 23.3629 32.5042C22.9332 32.5042 22.6076 32.7109 22.3863 33.1243C22.1682 33.5377 22.0591 34.1513 22.0591 34.9651V36.303C22.0591 36.7034 22.0868 37.0582 22.1422 37.3674C22.2007 37.6767 22.2838 37.9371 22.3912 38.1487C22.5019 38.3603 22.6386 38.5214 22.8013 38.6321C22.9673 38.7428 23.1578 38.7981 23.3726 38.7981C23.5907 38.7981 23.7795 38.7428 23.939 38.6321C24.1018 38.5214 24.2369 38.3603 24.3443 38.1487C24.4517 37.9371 24.5315 37.6767 24.5836 37.3674C24.6389 37.0582 24.6666 36.7034 24.6666 36.303V34.9651ZM30.0767 36.2346C30.0767 36.7587 30.0344 37.2144 29.9498 37.6018C29.8684 37.9859 29.7479 38.3049 29.5884 38.5588C29.4322 38.8095 29.2401 38.9967 29.0123 39.1204C28.7844 39.2408 28.5256 39.301 28.2359 39.301C27.9494 39.301 27.6923 39.2408 27.4644 39.1204C27.2366 38.9967 27.0429 38.8095 26.8834 38.5588C26.7239 38.3049 26.6002 37.9859 26.5123 37.6018C26.4276 37.2144 26.3853 36.7587 26.3853 36.2346V35.0432C26.3853 34.5191 26.4276 34.0667 26.5123 33.6858C26.5969 33.3017 26.7173 32.9843 26.8736 32.7336C27.0331 32.483 27.2268 32.2974 27.4547 32.177C27.6825 32.0566 27.9397 31.9963 28.2261 31.9963C28.5126 31.9963 28.7698 32.0566 28.9976 32.177C29.2287 32.2974 29.4241 32.483 29.5836 32.7336C29.7431 32.9843 29.8651 33.3017 29.9498 33.6858C30.0344 34.0667 30.0767 34.5191 30.0767 35.0432V36.2346ZM29.5298 34.9651C29.5298 34.1513 29.4208 33.5377 29.2027 33.1243C28.9879 32.7109 28.6623 32.5042 28.2261 32.5042C27.7964 32.5042 27.4709 32.7109 27.2496 33.1243C27.0315 33.5377 26.9224 34.1513 26.9224 34.9651V36.303C26.9224 36.7034 26.9501 37.0582 27.0054 37.3674C27.064 37.6767 27.147 37.9371 27.2545 38.1487C27.3651 38.3603 27.5019 38.5214 27.6646 38.6321C27.8306 38.7428 28.0211 38.7981 28.2359 38.7981C28.454 38.7981 28.6428 38.7428 28.8023 38.6321C28.9651 38.5214 29.1002 38.3603 29.2076 38.1487C29.315 37.9371 29.3948 37.6767 29.4468 37.3674C29.5022 37.0582 29.5298 36.7034 29.5298 36.303V34.9651ZM34.94 36.2346C34.94 36.7587 34.8977 37.2144 34.813 37.6018C34.7317 37.9859 34.6112 38.3049 34.4517 38.5588C34.2955 38.8095 34.1034 38.9967 33.8755 39.1204C33.6477 39.2408 33.3889 39.301 33.0992 39.301C32.8127 39.301 32.5556 39.2408 32.3277 39.1204C32.0998 38.9967 31.9061 38.8095 31.7466 38.5588C31.5871 38.3049 31.4634 37.9859 31.3755 37.6018C31.2909 37.2144 31.2486 36.7587 31.2486 36.2346V35.0432C31.2486 34.5191 31.2909 34.0667 31.3755 33.6858C31.4602 33.3017 31.5806 32.9843 31.7369 32.7336C31.8964 32.483 32.0901 32.2974 32.3179 32.177C32.5458 32.0566 32.803 31.9963 33.0894 31.9963C33.3759 31.9963 33.633 32.0566 33.8609 32.177C34.092 32.2974 34.2873 32.483 34.4468 32.7336C34.6063 32.9843 34.7284 33.3017 34.813 33.6858C34.8977 34.0667 34.94 34.5191 34.94 35.0432V36.2346ZM34.3931 34.9651C34.3931 34.1513 34.2841 33.5377 34.066 33.1243C33.8511 32.7109 33.5256 32.5042 33.0894 32.5042C32.6597 32.5042 32.3342 32.7109 32.1129 33.1243C31.8948 33.5377 31.7857 34.1513 31.7857 34.9651V36.303C31.7857 36.7034 31.8134 37.0582 31.8687 37.3674C31.9273 37.6767 32.0103 37.9371 32.1177 38.1487C32.2284 38.3603 32.3651 38.5214 32.5279 38.6321C32.6939 38.7428 32.8843 38.7981 33.0992 38.7981C33.3173 38.7981 33.5061 38.7428 33.6656 38.6321C33.8283 38.5214 33.9634 38.3603 34.0709 38.1487C34.1783 37.9371 34.258 37.6767 34.3101 37.3674C34.3655 37.0582 34.3931 36.7034 34.3931 36.303V34.9651ZM39.73 36.7913H39.0806V39.2034H38.5338V33.9202H39.0806V36.259H39.7203L41.3218 33.9202H41.9957L40.1744 36.4739L42.1861 39.2034H41.4781L39.73 36.7913ZM45.858 34.4329H43.6558V39.2034H43.1089V33.9202H45.858V34.4329ZM15.3843 49.2034H14.8423V46.7864H12.5181V49.2034H11.9713V43.9202H12.5181V46.2834H14.8423V43.9202H15.3843V49.2034ZM19.6666 49.2034C19.6405 49.1155 19.6194 49.0064 19.6031 48.8762C19.5868 48.7428 19.5754 48.6077 19.5689 48.4709C19.5005 48.5816 19.4192 48.6874 19.3248 48.7883C19.2304 48.886 19.1213 48.9739 18.9976 49.052C18.8772 49.1269 18.7421 49.1871 18.5923 49.2327C18.4426 49.2782 18.2815 49.301 18.1089 49.301C17.8908 49.301 17.6923 49.2701 17.5132 49.2083C17.3375 49.1464 17.1861 49.0536 17.0591 48.9299C16.9322 48.8062 16.8345 48.6516 16.7662 48.4661C16.6978 48.2805 16.6636 48.064 16.6636 47.8167C16.6636 47.5725 16.706 47.3479 16.7906 47.1428C16.8752 46.9345 17.0005 46.7555 17.1666 46.6057C17.3358 46.456 17.5458 46.3388 17.7964 46.2542C18.0471 46.1695 18.3384 46.1272 18.6705 46.1272H19.564V45.3899C19.564 45.0123 19.4696 44.7421 19.2808 44.5793C19.0953 44.4133 18.8218 44.3303 18.4605 44.3303C18.2912 44.3303 18.135 44.3564 17.9918 44.4084C17.8518 44.4605 17.7313 44.5338 17.6304 44.6282C17.5295 44.7193 17.4514 44.83 17.3961 44.9602C17.3407 45.0872 17.313 45.2271 17.313 45.3801L16.7711 45.3752C16.7711 45.1702 16.8117 44.9749 16.8931 44.7893C16.9745 44.6005 17.0901 44.4345 17.2398 44.2913C17.3895 44.148 17.5702 44.0341 17.7818 43.9495C17.9934 43.8648 18.2278 43.8225 18.4849 43.8225C18.7226 43.8225 18.939 43.8518 19.1343 43.9104C19.3329 43.9657 19.5038 44.0569 19.647 44.1838C19.7903 44.3075 19.9009 44.4703 19.9791 44.6721C20.0604 44.8707 20.1011 45.1132 20.1011 45.3997V48.095C20.1011 48.1861 20.1044 48.2805 20.1109 48.3782C20.1174 48.4758 20.1255 48.5719 20.1353 48.6663C20.1483 48.7574 20.163 48.8453 20.1793 48.9299C20.1988 49.0113 20.22 49.0829 20.2427 49.1448V49.2034H19.6666ZM18.1773 48.7786C18.3466 48.7786 18.5045 48.7558 18.6509 48.7102C18.8007 48.6614 18.9341 48.5963 19.0513 48.5149C19.1685 48.4303 19.2694 48.3326 19.3541 48.2219C19.442 48.1112 19.5119 47.9924 19.564 47.8655V46.5813H18.7486C18.2375 46.5813 17.8534 46.6887 17.5963 46.9036C17.3391 47.1184 17.2105 47.4081 17.2105 47.7727C17.2105 48.121 17.2951 48.3765 17.4644 48.5393C17.6369 48.6988 17.8746 48.7786 18.1773 48.7786ZM27.523 49.2034H23.7535V48.7444L25.7066 46.1077C25.8889 45.8603 26.0419 45.6373 26.1656 45.4387C26.2925 45.2402 26.3935 45.0562 26.4683 44.887C26.5464 44.7144 26.6018 44.5533 26.6343 44.4036C26.6669 44.2538 26.6832 44.1057 26.6832 43.9592C26.6832 43.7476 26.6571 43.5523 26.605 43.3733C26.553 43.1943 26.4765 43.0413 26.3755 42.9143C26.2746 42.7841 26.1477 42.6832 25.9947 42.6116C25.845 42.54 25.6724 42.5042 25.4771 42.5042C25.272 42.5042 25.0881 42.5448 24.9254 42.6262C24.7626 42.7076 24.6242 42.8215 24.5103 42.968C24.3996 43.1145 24.3134 43.2887 24.2515 43.4905C24.1929 43.689 24.1636 43.9071 24.1636 44.1448H23.6216C23.6216 43.8518 23.664 43.5751 23.7486 43.3147C23.8332 43.0543 23.9537 42.8264 24.1099 42.6311C24.2694 42.4358 24.4631 42.2812 24.691 42.1672C24.9221 42.0533 25.1841 41.9963 25.4771 41.9963C25.7473 41.9963 25.9914 42.0403 26.2095 42.1282C26.4276 42.2161 26.6116 42.3414 26.7613 42.5042C26.9143 42.6669 27.0315 42.8671 27.1129 43.1047C27.1942 43.3424 27.2349 43.6093 27.2349 43.9055C27.2349 44.1204 27.2024 44.3368 27.1373 44.5549C27.0722 44.7698 26.9859 44.9846 26.8785 45.1995C26.7711 45.4143 26.6457 45.6275 26.5025 45.8391C26.3625 46.0507 26.2177 46.259 26.0679 46.4641L24.4127 48.7004H27.523V49.2034ZM29.2906 48.9641C29.2906 49.1106 29.2743 49.2571 29.2418 49.4036C29.2125 49.55 29.1685 49.69 29.1099 49.8235C29.0513 49.9602 28.9797 50.0888 28.8951 50.2092C28.8104 50.3297 28.7144 50.4387 28.607 50.5364L28.2603 50.2776C28.4101 50.0758 28.524 49.8723 28.6021 49.6672C28.6802 49.4622 28.7193 49.231 28.7193 48.9739V48.2756H29.2906V48.9641ZM34.1588 46.2346C34.1588 46.7587 34.1164 47.2144 34.0318 47.6018C33.9504 47.9859 33.83 48.3049 33.6705 48.5588C33.5142 48.8095 33.3222 48.9967 33.0943 49.1204C32.8664 49.2408 32.6076 49.301 32.3179 49.301C32.0315 49.301 31.7743 49.2408 31.5464 49.1204C31.3186 48.9967 31.1249 48.8095 30.9654 48.5588C30.8059 48.3049 30.6822 47.9859 30.5943 47.6018C30.5097 47.2144 30.4673 46.7587 30.4673 46.2346V45.0432C30.4673 44.5191 30.5097 44.0667 30.5943 43.6858C30.6789 43.3017 30.7994 42.9843 30.9556 42.7336C31.1151 42.483 31.3088 42.2974 31.5367 42.177C31.7645 42.0566 32.0217 41.9963 32.3082 41.9963C32.5946 41.9963 32.8518 42.0566 33.0797 42.177C33.3108 42.2974 33.5061 42.483 33.6656 42.7336C33.8251 42.9843 33.9472 43.3017 34.0318 43.6858C34.1164 44.0667 34.1588 44.5191 34.1588 45.0432V46.2346ZM33.6119 44.9651C33.6119 44.1513 33.5028 43.5377 33.2847 43.1243C33.0699 42.7109 32.7444 42.5042 32.3082 42.5042C31.8785 42.5042 31.553 42.7109 31.3316 43.1243C31.1135 43.5377 31.0045 44.1513 31.0045 44.9651V46.303C31.0045 46.7034 31.0321 47.0582 31.0875 47.3674C31.1461 47.6767 31.2291 47.9371 31.3365 48.1487C31.4472 48.3603 31.5839 48.5214 31.7466 48.6321C31.9127 48.7428 32.1031 48.7981 32.3179 48.7981C32.536 48.7981 32.7248 48.7428 32.8843 48.6321C33.0471 48.5214 33.1822 48.3603 33.2896 48.1487C33.397 47.9371 33.4768 47.6767 33.5289 47.3674C33.5842 47.0582 33.6119 46.7034 33.6119 46.303V44.9651ZM37.9429 48.3977L39.6617 43.9202H40.3306V49.2034H39.7886V44.9602L38.1334 49.2034H37.7525L36.063 44.8528V49.2034H35.5259V43.9202H36.2339L37.9429 48.3977Z" fill="black"/>
<path d="M93.9097 32.4358L91.3706 39.2034H90.8042L93.3286 32.6018H89.9644V32.094H93.9097V32.4358ZM95.394 35.5608L95.687 32.094H98.6899V32.6506H96.1509L95.9507 35.0334C96.0028 34.9911 96.0662 34.9472 96.1411 34.9016C96.216 34.8528 96.3006 34.8105 96.395 34.7747C96.4894 34.7356 96.5903 34.7047 96.6978 34.6819C96.8084 34.6558 96.9256 34.6428 97.0493 34.6428C97.3162 34.6428 97.5588 34.6965 97.7769 34.804C97.995 34.9081 98.1805 35.0595 98.3335 35.2581C98.4865 35.4566 98.6053 35.6975 98.6899 35.9807C98.7746 36.2639 98.8169 36.5829 98.8169 36.9377C98.8169 37.2795 98.7811 37.5953 98.7095 37.885C98.6379 38.1715 98.5288 38.4205 98.3823 38.6321C98.2358 38.8404 98.0487 39.0048 97.8208 39.1252C97.5962 39.2424 97.3276 39.301 97.0151 39.301C96.7743 39.301 96.548 39.262 96.3364 39.1838C96.1281 39.1025 95.9425 38.9804 95.7798 38.8176C95.617 38.6549 95.4836 38.4498 95.3794 38.2024C95.2752 37.955 95.2118 37.6653 95.189 37.3333H95.7065C95.7521 37.8118 95.8872 38.1764 96.1118 38.427C96.3364 38.6744 96.6375 38.7981 97.0151 38.7981C97.4285 38.7981 97.741 38.637 97.9526 38.3147C98.1675 37.9924 98.2749 37.5367 98.2749 36.9475C98.2749 36.7001 98.2456 36.469 98.187 36.2542C98.1284 36.0393 98.0422 35.8538 97.9282 35.6975C97.8175 35.538 97.6792 35.4143 97.5132 35.3264C97.3504 35.2353 97.1616 35.1897 96.9468 35.1897C96.8035 35.1897 96.6782 35.2027 96.5708 35.2288C96.4634 35.2515 96.3657 35.2857 96.2778 35.3313C96.1932 35.3736 96.1134 35.4257 96.0386 35.4875C95.967 35.5494 95.8953 35.6194 95.8237 35.6975L95.394 35.5608ZM103.553 36.2346C103.553 36.7587 103.511 37.2144 103.426 37.6018C103.345 37.9859 103.224 38.3049 103.065 38.5588C102.909 38.8095 102.717 38.9967 102.489 39.1204C102.261 39.2408 102.002 39.301 101.712 39.301C101.426 39.301 101.169 39.2408 100.941 39.1204C100.713 38.9967 100.519 38.8095 100.36 38.5588C100.2 38.3049 100.077 37.9859 99.9888 37.6018C99.9041 37.2144 99.8618 36.7587 99.8618 36.2346V35.0432C99.8618 34.5191 99.9041 34.0667 99.9888 33.6858C100.073 33.3017 100.194 32.9843 100.35 32.7336C100.51 32.483 100.703 32.2974 100.931 32.177C101.159 32.0566 101.416 31.9963 101.703 31.9963C101.989 31.9963 102.246 32.0566 102.474 32.177C102.705 32.2974 102.901 32.483 103.06 32.7336C103.22 32.9843 103.342 33.3017 103.426 33.6858C103.511 34.0667 103.553 34.5191 103.553 35.0432V36.2346ZM103.006 34.9651C103.006 34.1513 102.897 33.5377 102.679 33.1243C102.464 32.7109 102.139 32.5042 101.703 32.5042C101.273 32.5042 100.947 32.7109 100.726 33.1243C100.508 33.5377 100.399 34.1513 100.399 34.9651V36.303C100.399 36.7034 100.427 37.0582 100.482 37.3674C100.541 37.6767 100.624 37.9371 100.731 38.1487C100.842 38.3603 100.978 38.5214 101.141 38.6321C101.307 38.7428 101.498 38.7981 101.712 38.7981C101.931 38.7981 102.119 38.7428 102.279 38.6321C102.442 38.5214 102.577 38.3603 102.684 38.1487C102.792 37.9371 102.871 37.6767 102.923 37.3674C102.979 37.0582 103.006 36.7034 103.006 36.303V34.9651ZM108.417 36.2346C108.417 36.7587 108.374 37.2144 108.29 37.6018C108.208 37.9859 108.088 38.3049 107.928 38.5588C107.772 38.8095 107.58 38.9967 107.352 39.1204C107.124 39.2408 106.865 39.301 106.576 39.301C106.289 39.301 106.032 39.2408 105.804 39.1204C105.576 38.9967 105.383 38.8095 105.223 38.5588C105.064 38.3049 104.94 37.9859 104.852 37.6018C104.767 37.2144 104.725 36.7587 104.725 36.2346V35.0432C104.725 34.5191 104.767 34.0667 104.852 33.6858C104.937 33.3017 105.057 32.9843 105.213 32.7336C105.373 32.483 105.567 32.2974 105.794 32.177C106.022 32.0566 106.279 31.9963 106.566 31.9963C106.852 31.9963 107.11 32.0566 107.337 32.177C107.569 32.2974 107.764 32.483 107.923 32.7336C108.083 32.9843 108.205 33.3017 108.29 33.6858C108.374 34.0667 108.417 34.5191 108.417 35.0432V36.2346ZM107.87 34.9651C107.87 34.1513 107.761 33.5377 107.542 33.1243C107.328 32.7109 107.002 32.5042 106.566 32.5042C106.136 32.5042 105.811 32.7109 105.589 33.1243C105.371 33.5377 105.262 34.1513 105.262 34.9651V36.303C105.262 36.7034 105.29 37.0582 105.345 37.3674C105.404 37.6767 105.487 37.9371 105.594 38.1487C105.705 38.3603 105.842 38.5214 106.004 38.6321C106.17 38.7428 106.361 38.7981 106.576 38.7981C106.794 38.7981 106.983 38.7428 107.142 38.6321C107.305 38.5214 107.44 38.3603 107.547 38.1487C107.655 37.9371 107.735 37.6767 107.787 37.3674C107.842 37.0582 107.87 36.7034 107.87 36.303V34.9651ZM113.207 36.7913H112.557V39.2034H112.01V33.9202H112.557V36.259H113.197L114.798 33.9202H115.472L113.651 36.4739L115.663 39.2034H114.955L113.207 36.7913ZM119.334 34.4329H117.132V39.2034H116.585V33.9202H119.334V34.4329ZM93.7241 49.2034H93.1821V46.7864H90.8579V49.2034H90.311V43.9202H90.8579V46.2834H93.1821V43.9202H93.7241V49.2034ZM98.0063 49.2034C97.9803 49.1155 97.9591 49.0064 97.9429 48.8762C97.9266 48.7428 97.9152 48.6077 97.9087 48.4709C97.8403 48.5816 97.759 48.6874 97.6646 48.7883C97.5701 48.886 97.4611 48.9739 97.3374 49.052C97.217 49.1269 97.0819 49.1871 96.9321 49.2327C96.7824 49.2782 96.6213 49.301 96.4487 49.301C96.2306 49.301 96.0321 49.2701 95.853 49.2083C95.6772 49.1464 95.5259 49.0536 95.3989 48.9299C95.272 48.8062 95.1743 48.6516 95.106 48.4661C95.0376 48.2805 95.0034 48.064 95.0034 47.8167C95.0034 47.5725 95.0457 47.3479 95.1304 47.1428C95.215 46.9345 95.3403 46.7555 95.5063 46.6057C95.6756 46.456 95.8856 46.3388 96.1362 46.2542C96.3869 46.1695 96.6782 46.1272 97.0103 46.1272H97.9038V45.3899C97.9038 45.0123 97.8094 44.7421 97.6206 44.5793C97.4351 44.4133 97.1616 44.3303 96.8003 44.3303C96.631 44.3303 96.4748 44.3564 96.3315 44.4084C96.1916 44.4605 96.0711 44.5338 95.9702 44.6282C95.8693 44.7193 95.7912 44.83 95.7358 44.9602C95.6805 45.0872 95.6528 45.2271 95.6528 45.3801L95.1108 45.3752C95.1108 45.1702 95.1515 44.9749 95.2329 44.7893C95.3143 44.6005 95.4299 44.4345 95.5796 44.2913C95.7293 44.148 95.91 44.0341 96.1216 43.9495C96.3332 43.8648 96.5675 43.8225 96.8247 43.8225C97.0623 43.8225 97.2788 43.8518 97.4741 43.9104C97.6727 43.9657 97.8436 44.0569 97.9868 44.1838C98.13 44.3075 98.2407 44.4703 98.3188 44.6721C98.4002 44.8707 98.4409 45.1132 98.4409 45.3997V48.095C98.4409 48.1861 98.4442 48.2805 98.4507 48.3782C98.4572 48.4758 98.4653 48.5719 98.4751 48.6663C98.4881 48.7574 98.5028 48.8453 98.519 48.9299C98.5386 49.0113 98.5597 49.0829 98.5825 49.1448V49.2034H98.0063ZM96.5171 48.7786C96.6864 48.7786 96.8442 48.7558 96.9907 48.7102C97.1405 48.6614 97.2739 48.5963 97.3911 48.5149C97.5083 48.4303 97.6092 48.3326 97.6938 48.2219C97.7817 48.1112 97.8517 47.9924 97.9038 47.8655V46.5813H97.0884C96.5773 46.5813 96.1932 46.6887 95.936 46.9036C95.6789 47.1184 95.5503 47.4081 95.5503 47.7727C95.5503 48.121 95.6349 48.3765 95.8042 48.5393C95.9767 48.6988 96.2144 48.7786 96.5171 48.7786ZM105.003 42.0452V42.5676H104.93C104.572 42.5676 104.255 42.6327 103.978 42.7629C103.701 42.8899 103.467 43.0754 103.275 43.3196C103.083 43.5605 102.931 43.8534 102.821 44.1985C102.713 44.5435 102.648 44.9309 102.625 45.3606C102.792 45.0969 102.998 44.8935 103.246 44.7502C103.493 44.607 103.768 44.5354 104.071 44.5354C104.357 44.5354 104.608 44.5989 104.823 44.7258C105.041 44.8528 105.22 45.0237 105.36 45.2385C105.503 45.4501 105.611 45.6975 105.682 45.9807C105.754 46.2639 105.79 46.5618 105.79 46.8743C105.79 47.2161 105.749 47.5351 105.667 47.8313C105.586 48.1275 105.469 48.3847 105.316 48.6028C105.163 48.8176 104.976 48.9885 104.754 49.1155C104.536 49.2392 104.287 49.301 104.007 49.301C103.701 49.301 103.428 49.2327 103.187 49.0959C102.949 48.956 102.748 48.7672 102.582 48.5295C102.416 48.2919 102.289 48.0152 102.201 47.6995C102.116 47.3837 102.074 47.0468 102.074 46.6887V46.0686C102.074 45.4664 102.127 44.9179 102.235 44.4231C102.346 43.9283 102.516 43.5051 102.748 43.1536C102.982 42.802 103.278 42.5302 103.636 42.3381C103.998 42.1428 104.429 42.0452 104.93 42.0452H105.003ZM103.983 45.0481C103.827 45.0481 103.675 45.0774 103.529 45.136C103.382 45.1946 103.247 45.276 103.124 45.3801C103.003 45.4843 102.899 45.608 102.811 45.7512C102.723 45.8912 102.658 46.0442 102.616 46.2102V46.6985C102.616 47.0273 102.652 47.3219 102.723 47.5823C102.798 47.8394 102.897 48.0575 103.021 48.2366C103.148 48.4156 103.296 48.554 103.465 48.6516C103.635 48.746 103.815 48.7932 104.007 48.7932C104.203 48.7932 104.377 48.7444 104.53 48.6467C104.686 48.5458 104.818 48.4107 104.925 48.2415C105.033 48.0689 105.114 47.8671 105.169 47.636C105.228 47.4049 105.257 47.1591 105.257 46.8987C105.257 46.6513 105.231 46.4153 105.179 46.1907C105.127 45.9661 105.047 45.7691 104.94 45.5999C104.836 45.4306 104.704 45.2971 104.544 45.1995C104.385 45.0986 104.198 45.0481 103.983 45.0481ZM107.63 48.9641C107.63 49.1106 107.614 49.2571 107.582 49.4036C107.552 49.55 107.508 49.69 107.45 49.8235C107.391 49.9602 107.319 50.0888 107.235 50.2092C107.15 50.3297 107.054 50.4387 106.947 50.5364L106.6 50.2776C106.75 50.0758 106.864 49.8723 106.942 49.6672C107.02 49.4622 107.059 49.231 107.059 48.9739V48.2756H107.63V48.9641ZM112.499 46.2346C112.499 46.7587 112.456 47.2144 112.372 47.6018C112.29 47.9859 112.17 48.3049 112.01 48.5588C111.854 48.8095 111.662 48.9967 111.434 49.1204C111.206 49.2408 110.947 49.301 110.658 49.301C110.371 49.301 110.114 49.2408 109.886 49.1204C109.658 48.9967 109.465 48.8095 109.305 48.5588C109.146 48.3049 109.022 47.9859 108.934 47.6018C108.849 47.2144 108.807 46.7587 108.807 46.2346V45.0432C108.807 44.5191 108.849 44.0667 108.934 43.6858C109.019 43.3017 109.139 42.9843 109.295 42.7336C109.455 42.483 109.649 42.2974 109.876 42.177C110.104 42.0566 110.361 41.9963 110.648 41.9963C110.934 41.9963 111.192 42.0566 111.419 42.177C111.651 42.2974 111.846 42.483 112.005 42.7336C112.165 42.9843 112.287 43.3017 112.372 43.6858C112.456 44.0667 112.499 44.5191 112.499 45.0432V46.2346ZM111.952 44.9651C111.952 44.1513 111.843 43.5377 111.625 43.1243C111.41 42.7109 111.084 42.5042 110.648 42.5042C110.218 42.5042 109.893 42.7109 109.671 43.1243C109.453 43.5377 109.344 44.1513 109.344 44.9651V46.303C109.344 46.7034 109.372 47.0582 109.427 47.3674C109.486 47.6767 109.569 47.9371 109.676 48.1487C109.787 48.3603 109.924 48.5214 110.086 48.6321C110.252 48.7428 110.443 48.7981 110.658 48.7981C110.876 48.7981 111.065 48.7428 111.224 48.6321C111.387 48.5214 111.522 48.3603 111.629 48.1487C111.737 47.9371 111.817 47.6767 111.869 47.3674C111.924 47.0582 111.952 46.7034 111.952 46.303V44.9651ZM116.283 48.3977L118.001 43.9202H118.67V49.2034H118.128V44.9602L116.473 49.2034H116.092L114.403 44.8528V49.2034H113.866V43.9202H114.574L116.283 48.3977Z" fill="black"/>
<path d="M201.292 36.9084H202.205V37.4163H201.292V39.2034H200.75V37.4163H197.957V37.0696L200.706 32.094H201.292V36.9084ZM198.606 36.9084H200.75V32.9143L200.554 33.3098L198.606 36.9084ZM206.736 36.2346C206.736 36.7587 206.694 37.2144 206.609 37.6018C206.528 37.9859 206.407 38.3049 206.248 38.5588C206.092 38.8095 205.899 38.9967 205.672 39.1204C205.444 39.2408 205.185 39.301 204.895 39.301C204.609 39.301 204.352 39.2408 204.124 39.1204C203.896 38.9967 203.702 38.8095 203.543 38.5588C203.383 38.3049 203.26 37.9859 203.172 37.6018C203.087 37.2144 203.045 36.7587 203.045 36.2346V35.0432C203.045 34.5191 203.087 34.0667 203.172 33.6858C203.256 33.3017 203.377 32.9843 203.533 32.7336C203.692 32.483 203.886 32.2974 204.114 32.177C204.342 32.0566 204.599 31.9963 204.885 31.9963C205.172 31.9963 205.429 32.0566 205.657 32.177C205.888 32.2974 206.083 32.483 206.243 32.7336C206.402 32.9843 206.524 33.3017 206.609 33.6858C206.694 34.0667 206.736 34.5191 206.736 35.0432V36.2346ZM206.189 34.9651C206.189 34.1513 206.08 33.5377 205.862 33.1243C205.647 32.7109 205.322 32.5042 204.885 32.5042C204.456 32.5042 204.13 32.7109 203.909 33.1243C203.691 33.5377 203.582 34.1513 203.582 34.9651V36.303C203.582 36.7034 203.609 37.0582 203.665 37.3674C203.723 37.6767 203.806 37.9371 203.914 38.1487C204.024 38.3603 204.161 38.5214 204.324 38.6321C204.49 38.7428 204.68 38.7981 204.895 38.7981C205.113 38.7981 205.302 38.7428 205.462 38.6321C205.624 38.5214 205.76 38.3603 205.867 38.1487C205.974 37.9371 206.054 37.6767 206.106 37.3674C206.162 37.0582 206.189 36.7034 206.189 36.303V34.9651ZM211.599 36.2346C211.599 36.7587 211.557 37.2144 211.472 37.6018C211.391 37.9859 211.271 38.3049 211.111 38.5588C210.955 38.8095 210.763 38.9967 210.535 39.1204C210.307 39.2408 210.048 39.301 209.759 39.301C209.472 39.301 209.215 39.2408 208.987 39.1204C208.759 38.9967 208.566 38.8095 208.406 38.5588C208.247 38.3049 208.123 37.9859 208.035 37.6018C207.95 37.2144 207.908 36.7587 207.908 36.2346V35.0432C207.908 34.5191 207.95 34.0667 208.035 33.6858C208.12 33.3017 208.24 32.9843 208.396 32.7336C208.556 32.483 208.749 32.2974 208.977 32.177C209.205 32.0566 209.462 31.9963 209.749 31.9963C210.035 31.9963 210.292 32.0566 210.52 32.177C210.751 32.2974 210.947 32.483 211.106 32.7336C211.266 32.9843 211.388 33.3017 211.472 33.6858C211.557 34.0667 211.599 34.5191 211.599 35.0432V36.2346ZM211.052 34.9651C211.052 34.1513 210.943 33.5377 210.725 33.1243C210.51 32.7109 210.185 32.5042 209.749 32.5042C209.319 32.5042 208.994 32.7109 208.772 33.1243C208.554 33.5377 208.445 34.1513 208.445 34.9651V36.303C208.445 36.7034 208.473 37.0582 208.528 37.3674C208.587 37.6767 208.67 37.9371 208.777 38.1487C208.888 38.3603 209.024 38.5214 209.187 38.6321C209.353 38.7428 209.544 38.7981 209.759 38.7981C209.977 38.7981 210.165 38.7428 210.325 38.6321C210.488 38.5214 210.623 38.3603 210.73 38.1487C210.838 37.9371 210.917 37.6767 210.969 37.3674C211.025 37.0582 211.052 36.7034 211.052 36.303V34.9651ZM216.463 36.2346C216.463 36.7587 216.42 37.2144 216.336 37.6018C216.254 37.9859 216.134 38.3049 215.974 38.5588C215.818 38.8095 215.626 38.9967 215.398 39.1204C215.17 39.2408 214.912 39.301 214.622 39.301C214.335 39.301 214.078 39.2408 213.85 39.1204C213.622 38.9967 213.429 38.8095 213.269 38.5588C213.11 38.3049 212.986 37.9859 212.898 37.6018C212.814 37.2144 212.771 36.7587 212.771 36.2346V35.0432C212.771 34.5191 212.814 34.0667 212.898 33.6858C212.983 33.3017 213.103 32.9843 213.26 32.7336C213.419 32.483 213.613 32.2974 213.841 32.177C214.068 32.0566 214.326 31.9963 214.612 31.9963C214.899 31.9963 215.156 32.0566 215.384 32.177C215.615 32.2974 215.81 32.483 215.969 32.7336C216.129 32.9843 216.251 33.3017 216.336 33.6858C216.42 34.0667 216.463 34.5191 216.463 35.0432V36.2346ZM215.916 34.9651C215.916 34.1513 215.807 33.5377 215.589 33.1243C215.374 32.7109 215.048 32.5042 214.612 32.5042C214.182 32.5042 213.857 32.7109 213.635 33.1243C213.417 33.5377 213.308 34.1513 213.308 34.9651V36.303C213.308 36.7034 213.336 37.0582 213.391 37.3674C213.45 37.6767 213.533 37.9371 213.64 38.1487C213.751 38.3603 213.888 38.5214 214.051 38.6321C214.217 38.7428 214.407 38.7981 214.622 38.7981C214.84 38.7981 215.029 38.7428 215.188 38.6321C215.351 38.5214 215.486 38.3603 215.594 38.1487C215.701 37.9371 215.781 37.6767 215.833 37.3674C215.888 37.0582 215.916 36.7034 215.916 36.303V34.9651ZM221.253 36.7913H220.603V39.2034H220.056V33.9202H220.603V36.259H221.243L222.844 33.9202H223.518L221.697 36.4739L223.709 39.2034H223.001L221.253 36.7913ZM227.381 34.4329H225.178V39.2034H224.632V33.9202H227.381V34.4329ZM201.77 49.2034H201.228V46.7864H198.904V49.2034H198.357V43.9202H198.904V46.2834H201.228V43.9202H201.77V49.2034ZM206.052 49.2034C206.026 49.1155 206.005 49.0064 205.989 48.8762C205.973 48.7428 205.961 48.6077 205.955 48.4709C205.886 48.5816 205.805 48.6874 205.711 48.7883C205.616 48.886 205.507 48.9739 205.384 49.052C205.263 49.1269 205.128 49.1871 204.978 49.2327C204.829 49.2782 204.667 49.301 204.495 49.301C204.277 49.301 204.078 49.2701 203.899 49.2083C203.723 49.1464 203.572 49.0536 203.445 48.9299C203.318 48.8062 203.22 48.6516 203.152 48.4661C203.084 48.2805 203.05 48.064 203.05 47.8167C203.05 47.5725 203.092 47.3479 203.177 47.1428C203.261 46.9345 203.386 46.7555 203.552 46.6057C203.722 46.456 203.932 46.3388 204.182 46.2542C204.433 46.1695 204.724 46.1272 205.056 46.1272H205.95V45.3899C205.95 45.0123 205.856 44.7421 205.667 44.5793C205.481 44.4133 205.208 44.3303 204.846 44.3303C204.677 44.3303 204.521 44.3564 204.378 44.4084C204.238 44.4605 204.117 44.5338 204.016 44.6282C203.915 44.7193 203.837 44.83 203.782 44.9602C203.727 45.0872 203.699 45.2271 203.699 45.3801L203.157 45.3752C203.157 45.1702 203.198 44.9749 203.279 44.7893C203.36 44.6005 203.476 44.4345 203.626 44.2913C203.775 44.148 203.956 44.0341 204.168 43.9495C204.379 43.8648 204.614 43.8225 204.871 43.8225C205.108 43.8225 205.325 43.8518 205.52 43.9104C205.719 43.9657 205.89 44.0569 206.033 44.1838C206.176 44.3075 206.287 44.4703 206.365 44.6721C206.446 44.8707 206.487 45.1132 206.487 45.3997V48.095C206.487 48.1861 206.49 48.2805 206.497 48.3782C206.503 48.4758 206.511 48.5719 206.521 48.6663C206.534 48.7574 206.549 48.8453 206.565 48.9299C206.585 49.0113 206.606 49.0829 206.629 49.1448V49.2034H206.052ZM204.563 48.7786C204.733 48.7786 204.89 48.7558 205.037 48.7102C205.187 48.6614 205.32 48.5963 205.437 48.5149C205.554 48.4303 205.655 48.3326 205.74 48.2219C205.828 48.1112 205.898 47.9924 205.95 47.8655V46.5813H205.135C204.623 46.5813 204.239 46.6887 203.982 46.9036C203.725 47.1184 203.596 47.4081 203.596 47.7727C203.596 48.121 203.681 48.3765 203.85 48.5393C204.023 48.6988 204.26 48.7786 204.563 48.7786ZM210.926 48.7346C211.342 48.7346 211.692 48.6646 211.975 48.5247C212.259 48.3847 212.486 48.191 212.659 47.9436C212.835 47.693 212.962 47.4 213.04 47.0647C213.118 46.7262 213.162 46.3583 213.172 45.9612C213.09 46.0979 212.996 46.2232 212.888 46.3372C212.784 46.4478 212.67 46.5439 212.547 46.6252C212.423 46.7034 212.291 46.7652 212.151 46.8108C212.011 46.8531 211.865 46.8743 211.712 46.8743C211.428 46.8743 211.179 46.8075 210.965 46.6741C210.753 46.5406 210.576 46.3632 210.432 46.1418C210.289 45.9205 210.182 45.6666 210.11 45.3801C210.038 45.0937 210.003 44.7974 210.003 44.4915C210.003 44.1497 210.043 43.8274 210.125 43.5247C210.206 43.2219 210.323 42.9583 210.476 42.7336C210.629 42.5058 210.818 42.3267 211.043 42.1965C211.267 42.0631 211.524 41.9963 211.814 41.9963C212.136 41.9963 212.416 42.068 212.654 42.2112C212.895 42.3512 213.094 42.5465 213.25 42.7971C213.406 43.0478 213.522 43.3472 213.596 43.6956C213.675 44.0439 213.714 44.4231 213.714 44.8333V45.3948C213.714 45.7431 213.696 46.0816 213.66 46.4104C213.624 46.7359 213.564 47.0419 213.479 47.3284C213.398 47.6148 213.287 47.8769 213.147 48.1145C213.01 48.3489 212.838 48.5507 212.63 48.72C212.425 48.8892 212.18 49.0211 211.897 49.1155C211.617 49.2066 211.293 49.2522 210.926 49.2522H210.823L210.828 48.7346H210.926ZM211.785 46.3616C211.961 46.3616 212.123 46.3274 212.273 46.259C212.423 46.1874 212.556 46.0946 212.674 45.9807C212.791 45.8668 212.892 45.7366 212.976 45.5901C213.061 45.4403 213.128 45.2874 213.177 45.1311V44.7747C213.177 44.4036 213.142 44.078 213.074 43.7981C213.006 43.5149 212.911 43.2789 212.791 43.0901C212.67 42.898 212.527 42.7532 212.361 42.6555C212.195 42.5579 212.014 42.509 211.819 42.509C211.617 42.509 211.437 42.5627 211.277 42.6702C211.121 42.7743 210.987 42.9159 210.877 43.095C210.766 43.274 210.681 43.4823 210.623 43.72C210.564 43.9543 210.535 44.2034 210.535 44.467C210.535 44.7079 210.561 44.9423 210.613 45.1702C210.668 45.398 210.748 45.5999 210.852 45.7756C210.956 45.9514 211.087 46.093 211.243 46.2004C211.399 46.3079 211.58 46.3616 211.785 46.3616ZM215.677 48.9641C215.677 49.1106 215.66 49.2571 215.628 49.4036C215.598 49.55 215.554 49.69 215.496 49.8235C215.437 49.9602 215.366 50.0888 215.281 50.2092C215.196 50.3297 215.1 50.4387 214.993 50.5364L214.646 50.2776C214.796 50.0758 214.91 49.8723 214.988 49.6672C215.066 49.4622 215.105 49.231 215.105 48.9739V48.2756H215.677V48.9641ZM217.703 48.7346C218.12 48.7346 218.469 48.6646 218.753 48.5247C219.036 48.3847 219.264 48.191 219.436 47.9436C219.612 47.693 219.739 47.4 219.817 47.0647C219.895 46.7262 219.939 46.3583 219.949 45.9612C219.868 46.0979 219.773 46.2232 219.666 46.3372C219.562 46.4478 219.448 46.5439 219.324 46.6252C219.2 46.7034 219.068 46.7652 218.928 46.8108C218.788 46.8531 218.642 46.8743 218.489 46.8743C218.206 46.8743 217.957 46.8075 217.742 46.6741C217.53 46.5406 217.353 46.3632 217.21 46.1418C217.066 45.9205 216.959 45.6666 216.887 45.3801C216.816 45.0937 216.78 44.7974 216.78 44.4915C216.78 44.1497 216.821 43.8274 216.902 43.5247C216.983 43.2219 217.101 42.9583 217.254 42.7336C217.407 42.5058 217.595 42.3267 217.82 42.1965C218.045 42.0631 218.302 41.9963 218.592 41.9963C218.914 41.9963 219.194 42.068 219.431 42.2112C219.672 42.3512 219.871 42.5465 220.027 42.7971C220.183 43.0478 220.299 43.3472 220.374 43.6956C220.452 44.0439 220.491 44.4231 220.491 44.8333V45.3948C220.491 45.7431 220.473 46.0816 220.437 46.4104C220.401 46.7359 220.341 47.0419 220.257 47.3284C220.175 47.6148 220.065 47.8769 219.925 48.1145C219.788 48.3489 219.615 48.5507 219.407 48.72C219.202 48.8892 218.958 49.0211 218.675 49.1155C218.395 49.2066 218.071 49.2522 217.703 49.2522H217.6L217.605 48.7346H217.703ZM218.562 46.3616C218.738 46.3616 218.901 46.3274 219.051 46.259C219.2 46.1874 219.334 46.0946 219.451 45.9807C219.568 45.8668 219.669 45.7366 219.754 45.5901C219.838 45.4403 219.905 45.2874 219.954 45.1311V44.7747C219.954 44.4036 219.92 44.078 219.851 43.7981C219.783 43.5149 219.689 43.2789 219.568 43.0901C219.448 42.898 219.304 42.7532 219.138 42.6555C218.972 42.5579 218.792 42.509 218.596 42.509C218.395 42.509 218.214 42.5627 218.054 42.6702C217.898 42.7743 217.765 42.9159 217.654 43.095C217.543 43.274 217.459 43.4823 217.4 43.72C217.342 43.9543 217.312 44.2034 217.312 44.467C217.312 44.7079 217.338 44.9423 217.39 45.1702C217.446 45.398 217.525 45.5999 217.63 45.7756C217.734 45.9514 217.864 46.093 218.02 46.2004C218.177 46.3079 218.357 46.3616 218.562 46.3616ZM224.329 48.3977L226.048 43.9202H226.717V49.2034H226.175V44.9602L224.519 49.2034H224.138L222.449 44.8528V49.2034H221.912V43.9202H222.62L224.329 48.3977Z" fill="black"/>
<path d="M278.417 39.2034H274.647V38.7444L276.601 36.1077C276.783 35.8603 276.936 35.6373 277.06 35.4387C277.187 35.2402 277.287 35.0562 277.362 34.887C277.44 34.7144 277.496 34.5533 277.528 34.4036C277.561 34.2538 277.577 34.1057 277.577 33.9592C277.577 33.7476 277.551 33.5523 277.499 33.3733C277.447 33.1943 277.37 33.0413 277.27 32.9143C277.169 32.7841 277.042 32.6832 276.889 32.6116C276.739 32.54 276.566 32.5042 276.371 32.5042C276.166 32.5042 275.982 32.5448 275.819 32.6262C275.657 32.7076 275.518 32.8215 275.404 32.968C275.294 33.1145 275.207 33.2887 275.146 33.4905C275.087 33.689 275.058 33.9071 275.058 34.1448H274.516C274.516 33.8518 274.558 33.5751 274.643 33.3147C274.727 33.0543 274.848 32.8264 275.004 32.6311C275.163 32.4358 275.357 32.2812 275.585 32.1672C275.816 32.0533 276.078 31.9963 276.371 31.9963C276.641 31.9963 276.885 32.0403 277.104 32.1282C277.322 32.2161 277.506 32.3414 277.655 32.5042C277.808 32.6669 277.925 32.8671 278.007 33.1047C278.088 33.3424 278.129 33.6093 278.129 33.9055C278.129 34.1204 278.096 34.3368 278.031 34.5549C277.966 34.7698 277.88 34.9846 277.772 35.1995C277.665 35.4143 277.54 35.6275 277.396 35.8391C277.257 36.0507 277.112 36.259 276.962 36.4641L275.307 38.7004H278.417V39.2034ZM279.843 35.5608L280.136 32.094H283.139V32.6506H280.6L280.399 35.0334C280.451 34.9911 280.515 34.9472 280.59 34.9016C280.665 34.8528 280.749 34.8105 280.844 34.7747C280.938 34.7356 281.039 34.7047 281.146 34.6819C281.257 34.6558 281.374 34.6428 281.498 34.6428C281.765 34.6428 282.007 34.6965 282.226 34.804C282.444 34.9081 282.629 35.0595 282.782 35.2581C282.935 35.4566 283.054 35.6975 283.139 35.9807C283.223 36.2639 283.266 36.5829 283.266 36.9377C283.266 37.2795 283.23 37.5953 283.158 37.885C283.087 38.1715 282.978 38.4205 282.831 38.6321C282.685 38.8404 282.497 39.0048 282.27 39.1252C282.045 39.2424 281.776 39.301 281.464 39.301C281.223 39.301 280.997 39.262 280.785 39.1838C280.577 39.1025 280.391 38.9804 280.229 38.8176C280.066 38.6549 279.932 38.4498 279.828 38.2024C279.724 37.955 279.66 37.6653 279.638 37.3333H280.155C280.201 37.8118 280.336 38.1764 280.561 38.427C280.785 38.6744 281.086 38.7981 281.464 38.7981C281.877 38.7981 282.19 38.637 282.401 38.3147C282.616 37.9924 282.724 37.5367 282.724 36.9475C282.724 36.7001 282.694 36.469 282.636 36.2542C282.577 36.0393 282.491 35.8538 282.377 35.6975C282.266 35.538 282.128 35.4143 281.962 35.3264C281.799 35.2353 281.61 35.1897 281.396 35.1897C281.252 35.1897 281.127 35.2027 281.02 35.2288C280.912 35.2515 280.814 35.2857 280.727 35.3313C280.642 35.3736 280.562 35.4257 280.487 35.4875C280.416 35.5494 280.344 35.6194 280.272 35.6975L279.843 35.5608ZM288.002 36.2346C288.002 36.7587 287.96 37.2144 287.875 37.6018C287.794 37.9859 287.673 38.3049 287.514 38.5588C287.357 38.8095 287.165 38.9967 286.938 39.1204C286.71 39.2408 286.451 39.301 286.161 39.301C285.875 39.301 285.618 39.2408 285.39 39.1204C285.162 38.9967 284.968 38.8095 284.809 38.5588C284.649 38.3049 284.525 37.9859 284.438 37.6018C284.353 37.2144 284.311 36.7587 284.311 36.2346V35.0432C284.311 34.5191 284.353 34.0667 284.438 33.6858C284.522 33.3017 284.643 32.9843 284.799 32.7336C284.958 32.483 285.152 32.2974 285.38 32.177C285.608 32.0566 285.865 31.9963 286.151 31.9963C286.438 31.9963 286.695 32.0566 286.923 32.177C287.154 32.2974 287.349 32.483 287.509 32.7336C287.668 32.9843 287.79 33.3017 287.875 33.6858C287.96 34.0667 288.002 34.5191 288.002 35.0432V36.2346ZM287.455 34.9651C287.455 34.1513 287.346 33.5377 287.128 33.1243C286.913 32.7109 286.588 32.5042 286.151 32.5042C285.722 32.5042 285.396 32.7109 285.175 33.1243C284.957 33.5377 284.848 34.1513 284.848 34.9651V36.303C284.848 36.7034 284.875 37.0582 284.931 37.3674C284.989 37.6767 285.072 37.9371 285.18 38.1487C285.29 38.3603 285.427 38.5214 285.59 38.6321C285.756 38.7428 285.946 38.7981 286.161 38.7981C286.379 38.7981 286.568 38.7428 286.728 38.6321C286.89 38.5214 287.025 38.3603 287.133 38.1487C287.24 37.9371 287.32 37.6767 287.372 37.3674C287.427 37.0582 287.455 36.7034 287.455 36.303V34.9651ZM292.865 36.2346C292.865 36.7587 292.823 37.2144 292.738 37.6018C292.657 37.9859 292.536 38.3049 292.377 38.5588C292.221 38.8095 292.029 38.9967 291.801 39.1204C291.573 39.2408 291.314 39.301 291.024 39.301C290.738 39.301 290.481 39.2408 290.253 39.1204C290.025 38.9967 289.831 38.8095 289.672 38.5588C289.512 38.3049 289.389 37.9859 289.301 37.6018C289.216 37.2144 289.174 36.7587 289.174 36.2346V35.0432C289.174 34.5191 289.216 34.0667 289.301 33.6858C289.385 33.3017 289.506 32.9843 289.662 32.7336C289.822 32.483 290.015 32.2974 290.243 32.177C290.471 32.0566 290.728 31.9963 291.015 31.9963C291.301 31.9963 291.558 32.0566 291.786 32.177C292.017 32.2974 292.213 32.483 292.372 32.7336C292.532 32.9843 292.654 33.3017 292.738 33.6858C292.823 34.0667 292.865 34.5191 292.865 35.0432V36.2346ZM292.318 34.9651C292.318 34.1513 292.209 33.5377 291.991 33.1243C291.776 32.7109 291.451 32.5042 291.015 32.5042C290.585 32.5042 290.259 32.7109 290.038 33.1243C289.82 33.5377 289.711 34.1513 289.711 34.9651V36.303C289.711 36.7034 289.739 37.0582 289.794 37.3674C289.853 37.6767 289.936 37.9371 290.043 38.1487C290.154 38.3603 290.29 38.5214 290.453 38.6321C290.619 38.7428 290.81 38.7981 291.024 38.7981C291.243 38.7981 291.431 38.7428 291.591 38.6321C291.754 38.5214 291.889 38.3603 291.996 38.1487C292.104 37.9371 292.183 37.6767 292.235 37.3674C292.291 37.0582 292.318 36.7034 292.318 36.303V34.9651ZM297.655 36.7913H297.006V39.2034H296.459V33.9202H297.006V36.259H297.646L299.247 33.9202H299.921L298.1 36.4739L300.111 39.2034H299.403L297.655 36.7913ZM303.783 34.4329H301.581V39.2034H301.034V33.9202H303.783V34.4329ZM278.173 49.2034H277.631V46.7864H275.307V49.2034H274.76V43.9202H275.307V46.2834H277.631V43.9202H278.173V49.2034ZM282.455 49.2034C282.429 49.1155 282.408 49.0064 282.392 48.8762C282.375 48.7428 282.364 48.6077 282.357 48.4709C282.289 48.5816 282.208 48.6874 282.113 48.7883C282.019 48.886 281.91 48.9739 281.786 49.052C281.666 49.1269 281.531 49.1871 281.381 49.2327C281.231 49.2782 281.07 49.301 280.897 49.301C280.679 49.301 280.481 49.2701 280.302 49.2083C280.126 49.1464 279.975 49.0536 279.848 48.9299C279.721 48.8062 279.623 48.6516 279.555 48.4661C279.486 48.2805 279.452 48.064 279.452 47.8167C279.452 47.5725 279.494 47.3479 279.579 47.1428C279.664 46.9345 279.789 46.7555 279.955 46.6057C280.124 46.456 280.334 46.3388 280.585 46.2542C280.836 46.1695 281.127 46.1272 281.459 46.1272H282.353V45.3899C282.353 45.0123 282.258 44.7421 282.069 44.5793C281.884 44.4133 281.61 44.3303 281.249 44.3303C281.08 44.3303 280.924 44.3564 280.78 44.4084C280.64 44.4605 280.52 44.5338 280.419 44.6282C280.318 44.7193 280.24 44.83 280.185 44.9602C280.129 45.0872 280.102 45.2271 280.102 45.3801L279.56 45.3752C279.56 45.1702 279.6 44.9749 279.682 44.7893C279.763 44.6005 279.879 44.4345 280.028 44.2913C280.178 44.148 280.359 44.0341 280.57 43.9495C280.782 43.8648 281.016 43.8225 281.273 43.8225C281.511 43.8225 281.728 43.8518 281.923 43.9104C282.121 43.9657 282.292 44.0569 282.436 44.1838C282.579 44.3075 282.689 44.4703 282.768 44.6721C282.849 44.8707 282.89 45.1132 282.89 45.3997V48.095C282.89 48.1861 282.893 48.2805 282.899 48.3782C282.906 48.4758 282.914 48.5719 282.924 48.6663C282.937 48.7574 282.951 48.8453 282.968 48.9299C282.987 49.0113 283.008 49.0829 283.031 49.1448V49.2034H282.455ZM280.966 48.7786C281.135 48.7786 281.293 48.7558 281.439 48.7102C281.589 48.6614 281.723 48.5963 281.84 48.5149C281.957 48.4303 282.058 48.3326 282.143 48.2219C282.23 48.1112 282.3 47.9924 282.353 47.8655V46.5813H281.537C281.026 46.5813 280.642 46.6887 280.385 46.9036C280.128 47.1184 279.999 47.4081 279.999 47.7727C279.999 48.121 280.084 48.3765 280.253 48.5393C280.425 48.6988 280.663 48.7786 280.966 48.7786ZM288.866 49.2034H288.319V42.8118L286.713 43.5295V42.9729L288.773 42.0696H288.866V49.2034ZM292.494 45.3264H293.007C293.231 45.3264 293.427 45.2906 293.593 45.219C293.762 45.1441 293.904 45.0448 294.018 44.9211C294.132 44.7974 294.216 44.6526 294.271 44.4866C294.33 44.3173 294.359 44.1383 294.359 43.9495C294.359 43.7346 294.335 43.5393 294.286 43.3635C294.237 43.1845 294.162 43.0315 294.062 42.9045C293.961 42.7776 293.834 42.6799 293.681 42.6116C293.531 42.54 293.352 42.5042 293.144 42.5042C292.961 42.5042 292.792 42.5383 292.636 42.6067C292.483 42.6718 292.349 42.7678 292.235 42.8948C292.125 43.0217 292.037 43.1747 291.972 43.3538C291.91 43.5328 291.879 43.7346 291.879 43.9592H291.337C291.337 43.6728 291.381 43.4091 291.469 43.1682C291.56 42.9273 291.685 42.7206 291.845 42.5481C292.007 42.3756 292.2 42.2405 292.421 42.1428C292.642 42.0452 292.883 41.9963 293.144 41.9963C293.407 41.9963 293.646 42.0403 293.861 42.1282C294.079 42.2161 294.265 42.3446 294.418 42.5139C294.574 42.6799 294.693 42.885 294.774 43.1292C294.859 43.3733 294.901 43.6532 294.901 43.969C294.901 44.1285 294.88 44.288 294.838 44.4475C294.796 44.6038 294.732 44.7519 294.647 44.8918C294.563 45.0318 294.457 45.1604 294.33 45.2776C294.203 45.3915 294.055 45.4859 293.886 45.5608C294.084 45.6259 294.254 45.7154 294.394 45.8293C294.537 45.9433 294.654 46.0751 294.745 46.2249C294.836 46.3713 294.903 46.5341 294.945 46.7131C294.988 46.8889 295.009 47.0745 295.009 47.2698C295.009 47.592 294.962 47.8801 294.867 48.134C294.776 48.3847 294.647 48.5979 294.481 48.7737C294.315 48.9462 294.118 49.078 293.891 49.1692C293.666 49.2571 293.422 49.301 293.158 49.301C292.914 49.301 292.676 49.2587 292.445 49.1741C292.217 49.0894 292.014 48.9641 291.835 48.7981C291.659 48.6288 291.518 48.4189 291.41 48.1682C291.306 47.9143 291.254 47.6181 291.254 47.2795H291.796C291.796 47.5042 291.828 47.7092 291.894 47.8948C291.962 48.0803 292.055 48.2398 292.172 48.3733C292.292 48.5068 292.436 48.6109 292.602 48.6858C292.771 48.7607 292.956 48.7981 293.158 48.7981C293.572 48.7981 293.892 48.6695 294.12 48.4124C294.351 48.1519 294.467 47.7776 294.467 47.2893C294.467 47.0354 294.431 46.8173 294.359 46.635C294.291 46.4495 294.192 46.2981 294.062 46.1809C293.935 46.0605 293.782 45.9726 293.603 45.9172C293.424 45.8619 293.225 45.8342 293.007 45.8342H292.494V45.3264ZM296.942 48.9641C296.942 49.1106 296.926 49.2571 296.894 49.4036C296.864 49.55 296.82 49.69 296.762 49.8235C296.703 49.9602 296.632 50.0888 296.547 50.2092C296.462 50.3297 296.366 50.4387 296.259 50.5364L295.912 50.2776C296.062 50.0758 296.176 49.8723 296.254 49.6672C296.332 49.4622 296.371 49.231 296.371 48.9739V48.2756H296.942V48.9641ZM301.894 42.4358L299.354 49.2034H298.788L301.312 42.6018H297.948V42.094H301.894V42.4358ZM305.595 48.3977L307.313 43.9202H307.982V49.2034H307.44V44.9602L305.785 49.2034H305.404L303.715 44.8528V49.2034H303.178V43.9202H303.886L305.595 48.3977Z" fill="black"/>
<path d="M365.462 39.2034H364.915V32.8118L363.309 33.5295V32.9729L365.369 32.0696H365.462V39.2034ZM371.712 32.4358L369.173 39.2034H368.607L371.131 32.6018H367.767V32.094H371.712V32.4358ZM373.197 35.5608L373.49 32.094H376.492V32.6506H373.953L373.753 35.0334C373.805 34.9911 373.869 34.9472 373.944 34.9016C374.018 34.8528 374.103 34.8105 374.198 34.7747C374.292 34.7356 374.393 34.7047 374.5 34.6819C374.611 34.6558 374.728 34.6428 374.852 34.6428C375.119 34.6428 375.361 34.6965 375.579 34.804C375.797 34.9081 375.983 35.0595 376.136 35.2581C376.289 35.4566 376.408 35.6975 376.492 35.9807C376.577 36.2639 376.619 36.5829 376.619 36.9377C376.619 37.2795 376.584 37.5953 376.512 37.885C376.44 38.1715 376.331 38.4205 376.185 38.6321C376.038 38.8404 375.851 39.0048 375.623 39.1252C375.399 39.2424 375.13 39.301 374.818 39.301C374.577 39.301 374.351 39.262 374.139 39.1838C373.931 39.1025 373.745 38.9804 373.582 38.8176C373.42 38.6549 373.286 38.4498 373.182 38.2024C373.078 37.955 373.014 37.6653 372.991 37.3333H373.509C373.555 37.8118 373.69 38.1764 373.914 38.427C374.139 38.6744 374.44 38.7981 374.818 38.7981C375.231 38.7981 375.544 38.637 375.755 38.3147C375.97 37.9924 376.077 37.5367 376.077 36.9475C376.077 36.7001 376.048 36.469 375.99 36.2542C375.931 36.0393 375.845 35.8538 375.731 35.6975C375.62 35.538 375.482 35.4143 375.316 35.3264C375.153 35.2353 374.964 35.1897 374.749 35.1897C374.606 35.1897 374.481 35.2027 374.373 35.2288C374.266 35.2515 374.168 35.2857 374.08 35.3313C373.996 35.3736 373.916 35.4257 373.841 35.4875C373.769 35.5494 373.698 35.6194 373.626 35.6975L373.197 35.5608ZM381.356 36.2346C381.356 36.7587 381.313 37.2144 381.229 37.6018C381.147 37.9859 381.027 38.3049 380.867 38.5588C380.711 38.8095 380.519 38.9967 380.291 39.1204C380.063 39.2408 379.805 39.301 379.515 39.301C379.228 39.301 378.971 39.2408 378.743 39.1204C378.516 38.9967 378.322 38.8095 378.162 38.5588C378.003 38.3049 377.879 37.9859 377.791 37.6018C377.707 37.2144 377.664 36.7587 377.664 36.2346V35.0432C377.664 34.5191 377.707 34.0667 377.791 33.6858C377.876 33.3017 377.996 32.9843 378.153 32.7336C378.312 32.483 378.506 32.2974 378.734 32.177C378.962 32.0566 379.219 31.9963 379.505 31.9963C379.792 31.9963 380.049 32.0566 380.277 32.177C380.508 32.2974 380.703 32.483 380.863 32.7336C381.022 32.9843 381.144 33.3017 381.229 33.6858C381.313 34.0667 381.356 34.5191 381.356 35.0432V36.2346ZM380.809 34.9651C380.809 34.1513 380.7 33.5377 380.482 33.1243C380.267 32.7109 379.941 32.5042 379.505 32.5042C379.075 32.5042 378.75 32.7109 378.529 33.1243C378.31 33.5377 378.201 34.1513 378.201 34.9651V36.303C378.201 36.7034 378.229 37.0582 378.284 37.3674C378.343 37.6767 378.426 37.9371 378.533 38.1487C378.644 38.3603 378.781 38.5214 378.944 38.6321C379.11 38.7428 379.3 38.7981 379.515 38.7981C379.733 38.7981 379.922 38.7428 380.081 38.6321C380.244 38.5214 380.379 38.3603 380.487 38.1487C380.594 37.9371 380.674 37.6767 380.726 37.3674C380.781 37.0582 380.809 36.7034 380.809 36.303V34.9651ZM386.146 36.7913H385.496V39.2034H384.949V33.9202H385.496V36.259H386.136L387.738 33.9202H388.411L386.59 36.4739L388.602 39.2034H387.894L386.146 36.7913ZM392.274 34.4329H390.072V39.2034H389.525V33.9202H392.274V34.4329ZM366.663 49.2034H366.121V46.7864H363.797V49.2034H363.25V43.9202H363.797V46.2834H366.121V43.9202H366.663V49.2034ZM370.946 49.2034C370.92 49.1155 370.898 49.0064 370.882 48.8762C370.866 48.7428 370.854 48.6077 370.848 48.4709C370.78 48.5816 370.698 48.6874 370.604 48.7883C370.509 48.886 370.4 48.9739 370.277 49.052C370.156 49.1269 370.021 49.1871 369.871 49.2327C369.722 49.2782 369.56 49.301 369.388 49.301C369.17 49.301 368.971 49.2701 368.792 49.2083C368.616 49.1464 368.465 49.0536 368.338 48.9299C368.211 48.8062 368.114 48.6516 368.045 48.4661C367.977 48.2805 367.943 48.064 367.943 47.8167C367.943 47.5725 367.985 47.3479 368.07 47.1428C368.154 46.9345 368.28 46.7555 368.446 46.6057C368.615 46.456 368.825 46.3388 369.075 46.2542C369.326 46.1695 369.617 46.1272 369.949 46.1272H370.843V45.3899C370.843 45.0123 370.749 44.7421 370.56 44.5793C370.374 44.4133 370.101 44.3303 369.74 44.3303C369.57 44.3303 369.414 44.3564 369.271 44.4084C369.131 44.4605 369.01 44.5338 368.909 44.6282C368.809 44.7193 368.73 44.83 368.675 44.9602C368.62 45.0872 368.592 45.2271 368.592 45.3801L368.05 45.3752C368.05 45.1702 368.091 44.9749 368.172 44.7893C368.253 44.6005 368.369 44.4345 368.519 44.2913C368.669 44.148 368.849 44.0341 369.061 43.9495C369.272 43.8648 369.507 43.8225 369.764 43.8225C370.002 43.8225 370.218 43.8518 370.413 43.9104C370.612 43.9657 370.783 44.0569 370.926 44.1838C371.069 44.3075 371.18 44.4703 371.258 44.6721C371.339 44.8707 371.38 45.1132 371.38 45.3997V48.095C371.38 48.1861 371.383 48.2805 371.39 48.3782C371.396 48.4758 371.405 48.5719 371.414 48.6663C371.427 48.7574 371.442 48.8453 371.458 48.9299C371.478 49.0113 371.499 49.0829 371.522 49.1448V49.2034H370.946ZM369.456 48.7786C369.626 48.7786 369.783 48.7558 369.93 48.7102C370.08 48.6614 370.213 48.5963 370.33 48.5149C370.448 48.4303 370.548 48.3326 370.633 48.2219C370.721 48.1112 370.791 47.9924 370.843 47.8655V46.5813H370.028C369.517 46.5813 369.132 46.6887 368.875 46.9036C368.618 47.1184 368.49 47.4081 368.49 47.7727C368.49 48.121 368.574 48.3765 368.743 48.5393C368.916 48.6988 369.154 48.7786 369.456 48.7786ZM377.357 49.2034H376.81V42.8118L375.203 43.5295V42.9729L377.264 42.0696H377.357V49.2034ZM383.607 42.4358L381.068 49.2034H380.501L383.026 42.6018H379.661V42.094H383.607V42.4358ZM385.433 48.9641C385.433 49.1106 385.417 49.2571 385.384 49.4036C385.355 49.55 385.311 49.69 385.252 49.8235C385.194 49.9602 385.122 50.0888 385.037 50.2092C384.953 50.3297 384.857 50.4387 384.749 50.5364L384.403 50.2776C384.552 50.0758 384.666 49.8723 384.744 49.6672C384.823 49.4622 384.862 49.231 384.862 48.9739V48.2756H385.433V48.9641ZM389.583 42.0452V42.5676H389.51C389.152 42.5676 388.835 42.6327 388.558 42.7629C388.281 42.8899 388.047 43.0754 387.855 43.3196C387.663 43.5605 387.511 43.8534 387.401 44.1985C387.293 44.5435 387.228 44.9309 387.205 45.3606C387.371 45.0969 387.578 44.8935 387.825 44.7502C388.073 44.607 388.348 44.5354 388.651 44.5354C388.937 44.5354 389.188 44.5989 389.403 44.7258C389.621 44.8528 389.8 45.0237 389.94 45.2385C390.083 45.4501 390.19 45.6975 390.262 45.9807C390.334 46.2639 390.369 46.5618 390.369 46.8743C390.369 47.2161 390.329 47.5351 390.247 47.8313C390.166 48.1275 390.049 48.3847 389.896 48.6028C389.743 48.8176 389.556 48.9885 389.334 49.1155C389.116 49.2392 388.867 49.301 388.587 49.301C388.281 49.301 388.008 49.2327 387.767 49.0959C387.529 48.956 387.327 48.7672 387.161 48.5295C386.995 48.2919 386.868 48.0152 386.781 47.6995C386.696 47.3837 386.654 47.0468 386.654 46.6887V46.0686C386.654 45.4664 386.707 44.9179 386.815 44.4231C386.925 43.9283 387.096 43.5051 387.327 43.1536C387.562 42.802 387.858 42.5302 388.216 42.3381C388.577 42.1428 389.009 42.0452 389.51 42.0452H389.583ZM388.563 45.0481C388.406 45.0481 388.255 45.0774 388.109 45.136C387.962 45.1946 387.827 45.276 387.703 45.3801C387.583 45.4843 387.479 45.608 387.391 45.7512C387.303 45.8912 387.238 46.0442 387.196 46.2102V46.6985C387.196 47.0273 387.231 47.3219 387.303 47.5823C387.378 47.8394 387.477 48.0575 387.601 48.2366C387.728 48.4156 387.876 48.554 388.045 48.6516C388.214 48.746 388.395 48.7932 388.587 48.7932C388.782 48.7932 388.957 48.7444 389.11 48.6467C389.266 48.5458 389.398 48.4107 389.505 48.2415C389.613 48.0689 389.694 47.8671 389.749 47.636C389.808 47.4049 389.837 47.1591 389.837 46.8987C389.837 46.6513 389.811 46.4153 389.759 46.1907C389.707 45.9661 389.627 45.7691 389.52 45.5999C389.416 45.4306 389.284 45.2971 389.124 45.1995C388.965 45.0986 388.778 45.0481 388.563 45.0481ZM394.085 48.3977L395.804 43.9202H396.473V49.2034H395.931V44.9602L394.276 49.2034H393.895L392.205 44.8528V49.2034H391.668V43.9202H392.376L394.085 48.3977Z" fill="black"/>
<path d="M451.668 39.2034H451.121V32.8118L449.514 33.5295V32.9729L451.575 32.0696H451.668V39.2034ZM455.296 35.3264H455.808C456.033 35.3264 456.228 35.2906 456.394 35.219C456.564 35.1441 456.705 35.0448 456.819 34.9211C456.933 34.7974 457.018 34.6526 457.073 34.4866C457.132 34.3173 457.161 34.1383 457.161 33.9495C457.161 33.7346 457.136 33.5393 457.088 33.3635C457.039 33.1845 456.964 33.0315 456.863 32.9045C456.762 32.7776 456.635 32.6799 456.482 32.6116C456.332 32.54 456.153 32.5042 455.945 32.5042C455.763 32.5042 455.594 32.5383 455.437 32.6067C455.284 32.6718 455.151 32.7678 455.037 32.8948C454.926 33.0217 454.838 33.1747 454.773 33.3538C454.711 33.5328 454.68 33.7346 454.68 33.9592H454.138C454.138 33.6728 454.182 33.4091 454.27 33.1682C454.361 32.9273 454.487 32.7206 454.646 32.5481C454.809 32.3756 455.001 32.2405 455.222 32.1428C455.444 32.0452 455.685 31.9963 455.945 31.9963C456.209 31.9963 456.448 32.0403 456.663 32.1282C456.881 32.2161 457.066 32.3446 457.219 32.5139C457.376 32.6799 457.495 32.885 457.576 33.1292C457.661 33.3733 457.703 33.6532 457.703 33.969C457.703 34.1285 457.682 34.288 457.639 34.4475C457.597 34.6038 457.534 34.7519 457.449 34.8918C457.364 35.0318 457.259 35.1604 457.132 35.2776C457.005 35.3915 456.857 35.4859 456.687 35.5608C456.886 35.6259 457.055 35.7154 457.195 35.8293C457.338 35.9433 457.455 36.0751 457.547 36.2249C457.638 36.3713 457.705 36.5341 457.747 36.7131C457.789 36.8889 457.81 37.0745 457.81 37.2698C457.81 37.592 457.763 37.8801 457.669 38.134C457.578 38.3847 457.449 38.5979 457.283 38.7737C457.117 38.9462 456.92 39.078 456.692 39.1692C456.468 39.2571 456.223 39.301 455.96 39.301C455.716 39.301 455.478 39.2587 455.247 39.1741C455.019 39.0894 454.816 38.9641 454.636 38.7981C454.461 38.6288 454.319 38.4189 454.212 38.1682C454.108 37.9143 454.055 37.6181 454.055 37.2795H454.597C454.597 37.5042 454.63 37.7092 454.695 37.8948C454.763 38.0803 454.856 38.2398 454.973 38.3733C455.094 38.5068 455.237 38.6109 455.403 38.6858C455.572 38.7607 455.758 38.7981 455.96 38.7981C456.373 38.7981 456.694 38.6695 456.922 38.4124C457.153 38.1519 457.268 37.7776 457.268 37.2893C457.268 37.0354 457.233 36.8173 457.161 36.635C457.093 36.4495 456.993 36.2981 456.863 36.1809C456.736 36.0605 456.583 35.9726 456.404 35.9172C456.225 35.8619 456.026 35.8342 455.808 35.8342H455.296V35.3264ZM462.698 36.2346C462.698 36.7587 462.656 37.2144 462.571 37.6018C462.49 37.9859 462.369 38.3049 462.21 38.5588C462.053 38.8095 461.861 38.9967 461.634 39.1204C461.406 39.2408 461.147 39.301 460.857 39.301C460.571 39.301 460.314 39.2408 460.086 39.1204C459.858 38.9967 459.664 38.8095 459.505 38.5588C459.345 38.3049 459.221 37.9859 459.134 37.6018C459.049 37.2144 459.007 36.7587 459.007 36.2346V35.0432C459.007 34.5191 459.049 34.0667 459.134 33.6858C459.218 33.3017 459.339 32.9843 459.495 32.7336C459.654 32.483 459.848 32.2974 460.076 32.177C460.304 32.0566 460.561 31.9963 460.847 31.9963C461.134 31.9963 461.391 32.0566 461.619 32.177C461.85 32.2974 462.045 32.483 462.205 32.7336C462.364 32.9843 462.486 33.3017 462.571 33.6858C462.656 34.0667 462.698 34.5191 462.698 35.0432V36.2346ZM462.151 34.9651C462.151 34.1513 462.042 33.5377 461.824 33.1243C461.609 32.7109 461.284 32.5042 460.847 32.5042C460.418 32.5042 460.092 32.7109 459.871 33.1243C459.653 33.5377 459.544 34.1513 459.544 34.9651V36.303C459.544 36.7034 459.571 37.0582 459.627 37.3674C459.685 37.6767 459.768 37.9371 459.876 38.1487C459.986 38.3603 460.123 38.5214 460.286 38.6321C460.452 38.7428 460.642 38.7981 460.857 38.7981C461.075 38.7981 461.264 38.7428 461.424 38.6321C461.586 38.5214 461.721 38.3603 461.829 38.1487C461.936 37.9371 462.016 37.6767 462.068 37.3674C462.123 37.0582 462.151 36.7034 462.151 36.303V34.9651ZM467.561 36.2346C467.561 36.7587 467.519 37.2144 467.434 37.6018C467.353 37.9859 467.233 38.3049 467.073 38.5588C466.917 38.8095 466.725 38.9967 466.497 39.1204C466.269 39.2408 466.01 39.301 465.72 39.301C465.434 39.301 465.177 39.2408 464.949 39.1204C464.721 38.9967 464.527 38.8095 464.368 38.5588C464.208 38.3049 464.085 37.9859 463.997 37.6018C463.912 37.2144 463.87 36.7587 463.87 36.2346V35.0432C463.87 34.5191 463.912 34.0667 463.997 33.6858C464.081 33.3017 464.202 32.9843 464.358 32.7336C464.518 32.483 464.711 32.2974 464.939 32.177C465.167 32.0566 465.424 31.9963 465.711 31.9963C465.997 31.9963 466.254 32.0566 466.482 32.177C466.713 32.2974 466.909 32.483 467.068 32.7336C467.228 32.9843 467.35 33.3017 467.434 33.6858C467.519 34.0667 467.561 34.5191 467.561 35.0432V36.2346ZM467.014 34.9651C467.014 34.1513 466.905 33.5377 466.687 33.1243C466.472 32.7109 466.147 32.5042 465.711 32.5042C465.281 32.5042 464.955 32.7109 464.734 33.1243C464.516 33.5377 464.407 34.1513 464.407 34.9651V36.303C464.407 36.7034 464.435 37.0582 464.49 37.3674C464.549 37.6767 464.632 37.9371 464.739 38.1487C464.85 38.3603 464.986 38.5214 465.149 38.6321C465.315 38.7428 465.506 38.7981 465.72 38.7981C465.939 38.7981 466.127 38.7428 466.287 38.6321C466.45 38.5214 466.585 38.3603 466.692 38.1487C466.8 37.9371 466.879 37.6767 466.931 37.3674C466.987 37.0582 467.014 36.7034 467.014 36.303V34.9651ZM472.351 36.7913H471.702V39.2034H471.155V33.9202H471.702V36.259H472.342L473.943 33.9202H474.617L472.796 36.4739L474.807 39.2034H474.099L472.351 36.7913ZM478.479 34.4329H476.277V39.2034H475.73V33.9202H478.479V34.4329ZM452.869 49.2034H452.327V46.7864H450.003V49.2034H449.456V43.9202H450.003V46.2834H452.327V43.9202H452.869V49.2034ZM457.151 49.2034C457.125 49.1155 457.104 49.0064 457.088 48.8762C457.071 48.7428 457.06 48.6077 457.053 48.4709C456.985 48.5816 456.904 48.6874 456.809 48.7883C456.715 48.886 456.606 48.9739 456.482 49.052C456.362 49.1269 456.227 49.1871 456.077 49.2327C455.927 49.2782 455.766 49.301 455.594 49.301C455.375 49.301 455.177 49.2701 454.998 49.2083C454.822 49.1464 454.671 49.0536 454.544 48.9299C454.417 48.8062 454.319 48.6516 454.251 48.4661C454.182 48.2805 454.148 48.064 454.148 47.8167C454.148 47.5725 454.191 47.3479 454.275 47.1428C454.36 46.9345 454.485 46.7555 454.651 46.6057C454.82 46.456 455.03 46.3388 455.281 46.2542C455.532 46.1695 455.823 46.1272 456.155 46.1272H457.049V45.3899C457.049 45.0123 456.954 44.7421 456.765 44.5793C456.58 44.4133 456.306 44.3303 455.945 44.3303C455.776 44.3303 455.62 44.3564 455.476 44.4084C455.336 44.4605 455.216 44.5338 455.115 44.6282C455.014 44.7193 454.936 44.83 454.881 44.9602C454.825 45.0872 454.798 45.2271 454.798 45.3801L454.256 45.3752C454.256 45.1702 454.296 44.9749 454.378 44.7893C454.459 44.6005 454.575 44.4345 454.724 44.2913C454.874 44.148 455.055 44.0341 455.266 43.9495C455.478 43.8648 455.712 43.8225 455.969 43.8225C456.207 43.8225 456.424 43.8518 456.619 43.9104C456.817 43.9657 456.988 44.0569 457.132 44.1838C457.275 44.3075 457.385 44.4703 457.464 44.6721C457.545 44.8707 457.586 45.1132 457.586 45.3997V48.095C457.586 48.1861 457.589 48.2805 457.595 48.3782C457.602 48.4758 457.61 48.5719 457.62 48.6663C457.633 48.7574 457.648 48.8453 457.664 48.9299C457.683 49.0113 457.705 49.0829 457.727 49.1448V49.2034H457.151ZM455.662 48.7786C455.831 48.7786 455.989 48.7558 456.135 48.7102C456.285 48.6614 456.419 48.5963 456.536 48.5149C456.653 48.4303 456.754 48.3326 456.839 48.2219C456.927 48.1112 456.997 47.9924 457.049 47.8655V46.5813H456.233C455.722 46.5813 455.338 46.6887 455.081 46.9036C454.824 47.1184 454.695 47.4081 454.695 47.7727C454.695 48.121 454.78 48.3765 454.949 48.5393C455.122 48.6988 455.359 48.7786 455.662 48.7786ZM465.008 49.2034H461.238V48.7444L463.191 46.1077C463.373 45.8603 463.526 45.6373 463.65 45.4387C463.777 45.2402 463.878 45.0562 463.953 44.887C464.031 44.7144 464.086 44.5533 464.119 44.4036C464.151 44.2538 464.168 44.1057 464.168 43.9592C464.168 43.7476 464.142 43.5523 464.09 43.3733C464.038 43.1943 463.961 43.0413 463.86 42.9143C463.759 42.7841 463.632 42.6832 463.479 42.6116C463.33 42.54 463.157 42.5042 462.962 42.5042C462.757 42.5042 462.573 42.5448 462.41 42.6262C462.247 42.7076 462.109 42.8215 461.995 42.968C461.884 43.1145 461.798 43.2887 461.736 43.4905C461.677 43.689 461.648 43.9071 461.648 44.1448H461.106C461.106 43.8518 461.149 43.5751 461.233 43.3147C461.318 43.0543 461.438 42.8264 461.594 42.6311C461.754 42.4358 461.948 42.2812 462.176 42.1672C462.407 42.0533 462.669 41.9963 462.962 41.9963C463.232 41.9963 463.476 42.0403 463.694 42.1282C463.912 42.2161 464.096 42.3414 464.246 42.5042C464.399 42.6669 464.516 42.8671 464.597 43.1047C464.679 43.3424 464.719 43.6093 464.719 43.9055C464.719 44.1204 464.687 44.3368 464.622 44.5549C464.557 44.7698 464.47 44.9846 464.363 45.1995C464.256 45.4143 464.13 45.6275 463.987 45.8391C463.847 46.0507 463.702 46.259 463.552 46.4641L461.897 48.7004H465.008V49.2034ZM468.426 49.2034H467.879V42.8118L466.272 43.5295V42.9729L468.333 42.0696H468.426V49.2034ZM471.638 48.9641C471.638 49.1106 471.622 49.2571 471.59 49.4036C471.56 49.55 471.516 49.69 471.458 49.8235C471.399 49.9602 471.328 50.0888 471.243 50.2092C471.158 50.3297 471.062 50.4387 470.955 50.5364L470.608 50.2776C470.758 50.0758 470.872 49.8723 470.95 49.6672C471.028 49.4622 471.067 49.231 471.067 48.9739V48.2756H471.638V48.9641ZM475.926 46.9084H476.839V47.4163H475.926V49.2034H475.384V47.4163H472.591V47.0696L475.34 42.094H475.926V46.9084ZM473.24 46.9084H475.384V42.9143L475.188 43.3098L473.24 46.9084ZM480.291 48.3977L482.01 43.9202H482.678V49.2034H482.136V44.9602L480.481 49.2034H480.1L478.411 44.8528V49.2034H477.874V43.9202H478.582L480.291 48.3977Z" fill="black"/>
<path d="M531.444 39.2034H530.897V32.8118L529.291 33.5295V32.9729L531.351 32.0696H531.444V39.2034ZM537.611 36.2346C537.611 36.7587 537.569 37.2144 537.484 37.6018C537.403 37.9859 537.282 38.3049 537.123 38.5588C536.966 38.8095 536.774 38.9967 536.546 39.1204C536.319 39.2408 536.06 39.301 535.77 39.301C535.484 39.301 535.226 39.2408 534.999 39.1204C534.771 38.9967 534.577 38.8095 534.417 38.5588C534.258 38.3049 534.134 37.9859 534.046 37.6018C533.962 37.2144 533.919 36.7587 533.919 36.2346V35.0432C533.919 34.5191 533.962 34.0667 534.046 33.6858C534.131 33.3017 534.251 32.9843 534.408 32.7336C534.567 32.483 534.761 32.2974 534.989 32.177C535.217 32.0566 535.474 31.9963 535.76 31.9963C536.047 31.9963 536.304 32.0566 536.532 32.177C536.763 32.2974 536.958 32.483 537.118 32.7336C537.277 32.9843 537.399 33.3017 537.484 33.6858C537.569 34.0667 537.611 34.5191 537.611 35.0432V36.2346ZM537.064 34.9651C537.064 34.1513 536.955 33.5377 536.737 33.1243C536.522 32.7109 536.196 32.5042 535.76 32.5042C535.331 32.5042 535.005 32.7109 534.784 33.1243C534.566 33.5377 534.457 34.1513 534.457 34.9651V36.303C534.457 36.7034 534.484 37.0582 534.54 37.3674C534.598 37.6767 534.681 37.9371 534.789 38.1487C534.899 38.3603 535.036 38.5214 535.199 38.6321C535.365 38.7428 535.555 38.7981 535.77 38.7981C535.988 38.7981 536.177 38.7428 536.336 38.6321C536.499 38.5214 536.634 38.3603 536.742 38.1487C536.849 37.9371 536.929 37.6767 536.981 37.3674C537.036 37.0582 537.064 36.7034 537.064 36.303V34.9651ZM542.474 36.2346C542.474 36.7587 542.432 37.2144 542.347 37.6018C542.266 37.9859 542.145 38.3049 541.986 38.5588C541.83 38.8095 541.638 38.9967 541.41 39.1204C541.182 39.2408 540.923 39.301 540.633 39.301C540.347 39.301 540.09 39.2408 539.862 39.1204C539.634 38.9967 539.44 38.8095 539.281 38.5588C539.121 38.3049 538.998 37.9859 538.91 37.6018C538.825 37.2144 538.783 36.7587 538.783 36.2346V35.0432C538.783 34.5191 538.825 34.0667 538.91 33.6858C538.994 33.3017 539.115 32.9843 539.271 32.7336C539.431 32.483 539.624 32.2974 539.852 32.177C540.08 32.0566 540.337 31.9963 540.624 31.9963C540.91 31.9963 541.167 32.0566 541.395 32.177C541.626 32.2974 541.821 32.483 541.981 32.7336C542.14 32.9843 542.263 33.3017 542.347 33.6858C542.432 34.0667 542.474 34.5191 542.474 35.0432V36.2346ZM541.927 34.9651C541.927 34.1513 541.818 33.5377 541.6 33.1243C541.385 32.7109 541.06 32.5042 540.624 32.5042C540.194 32.5042 539.868 32.7109 539.647 33.1243C539.429 33.5377 539.32 34.1513 539.32 34.9651V36.303C539.32 36.7034 539.347 37.0582 539.403 37.3674C539.461 37.6767 539.544 37.9371 539.652 38.1487C539.763 38.3603 539.899 38.5214 540.062 38.6321C540.228 38.7428 540.418 38.7981 540.633 38.7981C540.851 38.7981 541.04 38.7428 541.2 38.6321C541.362 38.5214 541.498 38.3603 541.605 38.1487C541.712 37.9371 541.792 37.6767 541.844 37.3674C541.9 37.0582 541.927 36.7034 541.927 36.303V34.9651ZM547.337 36.2346C547.337 36.7587 547.295 37.2144 547.21 37.6018C547.129 37.9859 547.009 38.3049 546.849 38.5588C546.693 38.8095 546.501 38.9967 546.273 39.1204C546.045 39.2408 545.786 39.301 545.497 39.301C545.21 39.301 544.953 39.2408 544.725 39.1204C544.497 38.9967 544.304 38.8095 544.144 38.5588C543.985 38.3049 543.861 37.9859 543.773 37.6018C543.688 37.2144 543.646 36.7587 543.646 36.2346V35.0432C543.646 34.5191 543.688 34.0667 543.773 33.6858C543.858 33.3017 543.978 32.9843 544.134 32.7336C544.294 32.483 544.487 32.2974 544.715 32.177C544.943 32.0566 545.2 31.9963 545.487 31.9963C545.773 31.9963 546.03 32.0566 546.258 32.177C546.489 32.2974 546.685 32.483 546.844 32.7336C547.004 32.9843 547.126 33.3017 547.21 33.6858C547.295 34.0667 547.337 34.5191 547.337 35.0432V36.2346ZM546.791 34.9651C546.791 34.1513 546.681 33.5377 546.463 33.1243C546.249 32.7109 545.923 32.5042 545.487 32.5042C545.057 32.5042 544.732 32.7109 544.51 33.1243C544.292 33.5377 544.183 34.1513 544.183 34.9651V36.303C544.183 36.7034 544.211 37.0582 544.266 37.3674C544.325 37.6767 544.408 37.9371 544.515 38.1487C544.626 38.3603 544.763 38.5214 544.925 38.6321C545.091 38.7428 545.282 38.7981 545.497 38.7981C545.715 38.7981 545.903 38.7428 546.063 38.6321C546.226 38.5214 546.361 38.3603 546.468 38.1487C546.576 37.9371 546.655 37.6767 546.708 37.3674C546.763 37.0582 546.791 36.7034 546.791 36.303V34.9651ZM552.127 36.7913H551.478V39.2034H550.931V33.9202H551.478V36.259H552.118L553.719 33.9202H554.393L552.572 36.4739L554.583 39.2034H553.875L552.127 36.7913ZM558.255 34.4329H556.053V39.2034H555.506V33.9202H558.255V34.4329ZM532.645 49.2034H532.103V46.7864H529.779V49.2034H529.232V43.9202H529.779V46.2834H532.103V43.9202H532.645V49.2034ZM536.927 49.2034C536.901 49.1155 536.88 49.0064 536.864 48.8762C536.847 48.7428 536.836 48.6077 536.83 48.4709C536.761 48.5816 536.68 48.6874 536.585 48.7883C536.491 48.886 536.382 48.9739 536.258 49.052C536.138 49.1269 536.003 49.1871 535.853 49.2327C535.703 49.2782 535.542 49.301 535.37 49.301C535.152 49.301 534.953 49.2701 534.774 49.2083C534.598 49.1464 534.447 49.0536 534.32 48.9299C534.193 48.8062 534.095 48.6516 534.027 48.4661C533.958 48.2805 533.924 48.064 533.924 47.8167C533.924 47.5725 533.967 47.3479 534.051 47.1428C534.136 46.9345 534.261 46.7555 534.427 46.6057C534.597 46.456 534.806 46.3388 535.057 46.2542C535.308 46.1695 535.599 46.1272 535.931 46.1272H536.825V45.3899C536.825 45.0123 536.73 44.7421 536.542 44.5793C536.356 44.4133 536.083 44.3303 535.721 44.3303C535.552 44.3303 535.396 44.3564 535.252 44.4084C535.112 44.4605 534.992 44.5338 534.891 44.6282C534.79 44.7193 534.712 44.83 534.657 44.9602C534.601 45.0872 534.574 45.2271 534.574 45.3801L534.032 45.3752C534.032 45.1702 534.072 44.9749 534.154 44.7893C534.235 44.6005 534.351 44.4345 534.5 44.2913C534.65 44.148 534.831 44.0341 535.042 43.9495C535.254 43.8648 535.488 43.8225 535.746 43.8225C535.983 43.8225 536.2 43.8518 536.395 43.9104C536.594 43.9657 536.764 44.0569 536.908 44.1838C537.051 44.3075 537.162 44.4703 537.24 44.6721C537.321 44.8707 537.362 45.1132 537.362 45.3997V48.095C537.362 48.1861 537.365 48.2805 537.372 48.3782C537.378 48.4758 537.386 48.5719 537.396 48.6663C537.409 48.7574 537.424 48.8453 537.44 48.9299C537.459 49.0113 537.481 49.0829 537.503 49.1448V49.2034H536.927ZM535.438 48.7786C535.607 48.7786 535.765 48.7558 535.912 48.7102C536.061 48.6614 536.195 48.5963 536.312 48.5149C536.429 48.4303 536.53 48.3326 536.615 48.2219C536.703 48.1112 536.773 47.9924 536.825 47.8655V46.5813H536.009C535.498 46.5813 535.114 46.6887 534.857 46.9036C534.6 47.1184 534.471 47.4081 534.471 47.7727C534.471 48.121 534.556 48.3765 534.725 48.5393C534.898 48.6988 535.135 48.7786 535.438 48.7786ZM544.784 49.2034H541.014V48.7444L542.967 46.1077C543.15 45.8603 543.303 45.6373 543.426 45.4387C543.553 45.2402 543.654 45.0562 543.729 44.887C543.807 44.7144 543.862 44.5533 543.895 44.4036C543.928 44.2538 543.944 44.1057 543.944 43.9592C543.944 43.7476 543.918 43.5523 543.866 43.3733C543.814 43.1943 543.737 43.0413 543.636 42.9143C543.535 42.7841 543.408 42.6832 543.255 42.6116C543.106 42.54 542.933 42.5042 542.738 42.5042C542.533 42.5042 542.349 42.5448 542.186 42.6262C542.023 42.7076 541.885 42.8215 541.771 42.968C541.66 43.1145 541.574 43.2887 541.512 43.4905C541.454 43.689 541.424 43.9071 541.424 44.1448H540.882C540.882 43.8518 540.925 43.5751 541.009 43.3147C541.094 43.0543 541.214 42.8264 541.371 42.6311C541.53 42.4358 541.724 42.2812 541.952 42.1672C542.183 42.0533 542.445 41.9963 542.738 41.9963C543.008 41.9963 543.252 42.0403 543.47 42.1282C543.688 42.2161 543.872 42.3414 544.022 42.5042C544.175 42.6669 544.292 42.8671 544.374 43.1047C544.455 43.3424 544.496 43.6093 544.496 43.9055C544.496 44.1204 544.463 44.3368 544.398 44.5549C544.333 44.7698 544.247 44.9846 544.139 45.1995C544.032 45.4143 543.906 45.6275 543.763 45.8391C543.623 46.0507 543.478 46.259 543.329 46.4641L541.673 48.7004H544.784V49.2034ZM546.209 45.5608L546.502 42.094H549.505V42.6506H546.966L546.766 45.0334C546.818 44.9911 546.882 44.9472 546.957 44.9016C547.031 44.8528 547.116 44.8105 547.21 44.7747C547.305 44.7356 547.406 44.7047 547.513 44.6819C547.624 44.6558 547.741 44.6428 547.865 44.6428C548.132 44.6428 548.374 44.6965 548.592 44.804C548.81 44.9081 548.996 45.0595 549.149 45.2581C549.302 45.4566 549.421 45.6975 549.505 45.9807C549.59 46.2639 549.632 46.5829 549.632 46.9377C549.632 47.2795 549.597 47.5953 549.525 47.885C549.453 48.1715 549.344 48.4205 549.198 48.6321C549.051 48.8404 548.864 49.0048 548.636 49.1252C548.412 49.2424 548.143 49.301 547.831 49.301C547.59 49.301 547.363 49.262 547.152 49.1838C546.944 49.1025 546.758 48.9804 546.595 48.8176C546.432 48.6549 546.299 48.4498 546.195 48.2024C546.091 47.955 546.027 47.6653 546.004 47.3333H546.522C546.568 47.8118 546.703 48.1764 546.927 48.427C547.152 48.6744 547.453 48.7981 547.831 48.7981C548.244 48.7981 548.556 48.637 548.768 48.3147C548.983 47.9924 549.09 47.5367 549.09 46.9475C549.09 46.7001 549.061 46.469 549.002 46.2542C548.944 46.0393 548.858 45.8538 548.744 45.6975C548.633 45.538 548.495 45.4143 548.329 45.3264C548.166 45.2353 547.977 45.1897 547.762 45.1897C547.619 45.1897 547.494 45.2027 547.386 45.2288C547.279 45.2515 547.181 45.2857 547.093 45.3313C547.009 45.3736 546.929 45.4257 546.854 45.4875C546.782 45.5494 546.711 45.6194 546.639 45.6975L546.209 45.5608ZM551.415 48.9641C551.415 49.1106 551.398 49.2571 551.366 49.4036C551.336 49.55 551.292 49.69 551.234 49.8235C551.175 49.9602 551.104 50.0888 551.019 50.2092C550.934 50.3297 550.838 50.4387 550.731 50.5364L550.384 50.2776C550.534 50.0758 550.648 49.8723 550.726 49.6672C550.804 49.4622 550.843 49.231 550.843 48.9739V48.2756H551.415V48.9641ZM553.744 45.3264H554.256C554.481 45.3264 554.676 45.2906 554.842 45.219C555.012 45.1441 555.153 45.0448 555.267 44.9211C555.381 44.7974 555.466 44.6526 555.521 44.4866C555.58 44.3173 555.609 44.1383 555.609 43.9495C555.609 43.7346 555.584 43.5393 555.536 43.3635C555.487 43.1845 555.412 43.0315 555.311 42.9045C555.21 42.7776 555.083 42.6799 554.93 42.6116C554.78 42.54 554.601 42.5042 554.393 42.5042C554.211 42.5042 554.042 42.5383 553.885 42.6067C553.732 42.6718 553.599 42.7678 553.485 42.8948C553.374 43.0217 553.286 43.1747 553.221 43.3538C553.159 43.5328 553.128 43.7346 553.128 43.9592H552.586C552.586 43.6728 552.63 43.4091 552.718 43.1682C552.809 42.9273 552.935 42.7206 553.094 42.5481C553.257 42.3756 553.449 42.2405 553.67 42.1428C553.892 42.0452 554.133 41.9963 554.393 41.9963C554.657 41.9963 554.896 42.0403 555.111 42.1282C555.329 42.2161 555.514 42.3446 555.667 42.5139C555.824 42.6799 555.943 42.885 556.024 43.1292C556.109 43.3733 556.151 43.6532 556.151 43.969C556.151 44.1285 556.13 44.288 556.087 44.4475C556.045 44.6038 555.982 44.7519 555.897 44.8918C555.812 45.0318 555.707 45.1604 555.58 45.2776C555.453 45.3915 555.305 45.4859 555.135 45.5608C555.334 45.6259 555.503 45.7154 555.643 45.8293C555.786 45.9433 555.903 46.0751 555.995 46.2249C556.086 46.3713 556.153 46.5341 556.195 46.7131C556.237 46.8889 556.258 47.0745 556.258 47.2698C556.258 47.592 556.211 47.8801 556.117 48.134C556.026 48.3847 555.897 48.5979 555.731 48.7737C555.565 48.9462 555.368 49.078 555.14 49.1692C554.916 49.2571 554.671 49.301 554.408 49.301C554.164 49.301 553.926 49.2587 553.695 49.1741C553.467 49.0894 553.264 48.9641 553.084 48.7981C552.909 48.6288 552.767 48.4189 552.66 48.1682C552.556 47.9143 552.503 47.6181 552.503 47.2795H553.045C553.045 47.5042 553.078 47.7092 553.143 47.8948C553.211 48.0803 553.304 48.2398 553.421 48.3733C553.542 48.5068 553.685 48.6109 553.851 48.6858C554.02 48.7607 554.206 48.7981 554.408 48.7981C554.821 48.7981 555.142 48.6695 555.37 48.4124C555.601 48.1519 555.716 47.7776 555.716 47.2893C555.716 47.0354 555.681 46.8173 555.609 46.635C555.541 46.4495 555.441 46.2981 555.311 46.1809C555.184 46.0605 555.031 45.9726 554.852 45.9172C554.673 45.8619 554.474 45.8342 554.256 45.8342H553.744V45.3264ZM560.067 48.3977L561.786 43.9202H562.455V49.2034H561.913V44.9602L560.257 49.2034H559.876L558.187 44.8528V49.2034H557.65V43.9202H558.358L560.067 48.3977Z" fill="black"/>
</svg>
