<svg width="468" height="53" viewBox="0 0 468 53" fill="none" xmlns="http://www.w3.org/2000/svg">
<path d="M99.6817 18.8722H458.703V7.16943H90.9727L99.6817 18.8722Z" fill="#201500" stroke="black" stroke-width="0.5" stroke-miterlimit="10" stroke-linecap="round" stroke-linejoin="round"/>
<path d="M463.99 28.5338H461.433C459.926 28.5338 458.703 27.3115 458.703 25.8037V7.17801C458.703 5.67023 459.926 4.44794 461.433 4.44794H464.495C466.003 4.44794 467.225 5.67023 467.225 7.17801L466.548 26.0662C466.499 27.4431 465.368 28.5338 463.99 28.5338Z" fill="#5159A3" stroke="black" stroke-width="0.5" stroke-miterlimit="10" stroke-linecap="round" stroke-linejoin="round"/>
<path d="M99.6816 18.8722H25.4556L10.9633 7.16943H90.9726L99.6816 18.8722Z" fill="#5159A3" stroke="black" stroke-width="0.5" stroke-miterlimit="10" stroke-linecap="round" stroke-linejoin="round"/>
<path d="M13.3784 7.6119L10.1034 5.28486C9.72496 5.01602 9.50018 3.84928 9.50018 3.38509C9.50018 2.32823 8.64343 1.4715 7.58658 1.4715C6.52973 1.4715 5.67297 2.32823 5.67297 3.38509V5.44892C5.67297 6.35421 6.12428 7.19988 6.87633 7.70385L10.6228 10.2144L13.3784 7.6119Z" fill="#5159A3" stroke="black" stroke-width="0.5" stroke-miterlimit="10" stroke-linecap="round" stroke-linejoin="round"/>
<path d="M1.06751 16.1082L11.3599 6.43516C11.6619 6.1513 12.1239 6.12426 12.457 6.371L25.3266 15.904C25.5428 16.0642 25.8048 16.1507 26.0739 16.1507H37.9785C38.5388 16.1507 38.764 16.8736 38.3029 17.1918L26.7131 25.1888C26.392 25.4103 25.9863 25.47 25.615 25.3505L1.39174 17.5487C0.770476 17.3486 0.591901 16.5552 1.06751 16.1082Z" fill="#5159A3" stroke="black" stroke-width="0.5" stroke-miterlimit="10" stroke-linecap="round" stroke-linejoin="round"/>
<path d="M9.52571 15.4787C10.3195 15.4787 10.963 14.8352 10.963 14.0414C10.963 13.2476 10.3195 12.6041 9.52571 12.6041C8.73189 12.6041 8.08838 13.2476 8.08838 14.0414C8.08838 14.8352 8.73189 15.4787 9.52571 15.4787Z" fill="#5159A3" stroke="black" stroke-width="0.5" stroke-miterlimit="10" stroke-linecap="round" stroke-linejoin="round"/>
<path d="M25.515 24.0177C26.3088 24.0177 26.9523 23.3741 26.9523 22.5803C26.9523 21.7865 26.3088 21.143 25.515 21.143C24.7212 21.143 24.0776 21.7865 24.0776 22.5803C24.0776 23.3741 24.7212 24.0177 25.515 24.0177Z" fill="#5159A3" stroke="black" stroke-width="0.5" stroke-miterlimit="10" stroke-linecap="round" stroke-linejoin="round"/>
<path d="M51.6459 7.16946H50.0129V3.82717C50.0129 3.37625 50.3785 3.01068 50.8294 3.01068C51.2803 3.01068 51.6459 3.37625 51.6459 3.82717V7.16946Z" fill="#221500" stroke="black" stroke-width="0.5" stroke-miterlimit="10" stroke-linecap="round" stroke-linejoin="round"/>
<path d="M80.1894 7.16941H76.9329V3.94438C76.9329 3.7715 77.073 3.63135 77.2459 3.63135H77.6225C77.8096 3.63135 77.9839 3.72667 78.0848 3.8842L80.1894 7.16941Z" fill="#221500" stroke="black" stroke-width="0.5" stroke-miterlimit="10" stroke-linecap="round" stroke-linejoin="round"/>
<path d="M242.693 3.98808H239.477V0.802375C239.477 0.631592 239.615 0.493164 239.786 0.493164H240.158C240.343 0.493164 240.515 0.587309 240.615 0.742933L242.693 3.98808Z" fill="#221500" stroke="black" stroke-width="0.5" stroke-miterlimit="10" stroke-linecap="round" stroke-linejoin="round"/>
<path d="M57.1018 18.8724H55.9111V23.0227C55.9111 23.3516 56.1777 23.6181 56.5065 23.6181C56.8353 23.6181 57.1018 23.3516 57.1018 23.0227V18.8724H57.1018Z" fill="#221500" stroke="black" stroke-width="0.5" stroke-miterlimit="10" stroke-linecap="round" stroke-linejoin="round"/>
<path d="M87.7406 18.8724H86.5499V23.0227C86.5499 23.3516 86.8165 23.6181 87.1453 23.6181C87.4741 23.6181 87.7406 23.3516 87.7406 23.0227V18.8724H87.7406Z" fill="#221500" stroke="black" stroke-width="0.5" stroke-miterlimit="10" stroke-linecap="round" stroke-linejoin="round"/>
<path d="M70.4218 18.8724H69.2311V23.0227C69.2311 23.3516 69.4976 23.6181 69.8264 23.6181C70.1552 23.6181 70.4218 23.3516 70.4218 23.0227V18.8724H70.4218Z" fill="#221500" stroke="black" stroke-width="0.5" stroke-miterlimit="10" stroke-linecap="round" stroke-linejoin="round"/>
<path d="M102.603 19.8928H96.8989C96.7233 19.8928 96.5581 19.8094 96.4539 19.668L86.7316 6.48749C86.6281 6.34722 86.7282 6.14886 86.9026 6.14886H92.6065C92.7822 6.14886 92.9473 6.23229 93.0516 6.37361L102.774 19.5542C102.877 19.6944 102.777 19.8928 102.603 19.8928Z" fill="#5159A3" stroke="black" stroke-width="0.5" stroke-miterlimit="10" stroke-linecap="round" stroke-linejoin="round"/>
<path d="M190.296 16.9781V19.2132C190.296 19.5914 189.99 19.8979 189.612 19.8979H187.132C186.81 19.8979 186.505 19.7542 186.3 19.5059L177.498 8.84317C177.24 8.5304 177.099 8.13749 177.099 7.7319V4.44797C177.099 4.19399 177.305 3.9881 177.559 3.9881H181.72C181.974 3.9881 182.18 4.19399 182.18 4.44797V6.12551C182.18 6.5309 182.321 6.92369 182.579 7.2364L190.05 16.2916C190.209 16.4849 190.296 16.7276 190.296 16.9781Z" fill="#5159A3" stroke="black" stroke-width="0.5" stroke-miterlimit="10" stroke-linecap="round" stroke-linejoin="round"/>
<path d="M251.685 16.9781V19.2132C251.685 19.5914 251.378 19.8979 251 19.8979H248.521C248.199 19.8979 247.894 19.7542 247.689 19.5059L238.887 8.84317C238.629 8.5304 238.487 8.13749 238.487 7.7319V4.44797C238.487 4.19399 238.693 3.9881 238.947 3.9881H243.108C243.362 3.9881 243.568 4.19399 243.568 4.44797V6.12551C243.568 6.5309 243.709 6.92369 243.967 7.2364L251.438 16.2916C251.597 16.4849 251.685 16.7276 251.685 16.9781Z" fill="#5159A3" stroke="black" stroke-width="0.5" stroke-miterlimit="10" stroke-linecap="round" stroke-linejoin="round"/>
<path d="M310.666 5.20856H306.552V1.13511C306.552 0.916765 306.729 0.739746 306.948 0.739746H307.424C307.66 0.739746 307.88 0.860131 308.007 1.05911L310.666 5.20856Z" fill="#221500" stroke="black" stroke-width="0.5" stroke-miterlimit="10" stroke-linecap="round" stroke-linejoin="round"/>
<path d="M317.281 16.3888V19.2092C317.281 19.5953 316.979 19.8979 316.603 19.8979H314.12C313.797 19.8979 313.495 19.7517 313.286 19.5013L304.491 8.83917C304.23 8.52614 304.084 8.14026 304.084 7.73324V5.66759C304.084 5.41516 304.291 5.20862 304.543 5.20862H312.076C312.328 5.20862 312.535 5.41522 312.535 5.66772V9.34593C312.535 9.91981 312.734 10.4758 313.099 10.9186L317.042 15.7001C317.198 15.8985 317.281 16.1384 317.281 16.3888Z" fill="#5159A3" stroke="black" stroke-width="0.5" stroke-miterlimit="10" stroke-linecap="round" stroke-linejoin="round"/>
<path d="M376.239 5.20856H372.125V1.13511C372.125 0.916765 372.302 0.739746 372.521 0.739746H372.997C373.233 0.739746 373.453 0.860131 373.58 1.05911L376.239 5.20856Z" fill="#221500" stroke="black" stroke-width="0.5" stroke-miterlimit="10" stroke-linecap="round" stroke-linejoin="round"/>
<path d="M382.854 16.3888V19.2092C382.854 19.5953 382.552 19.8979 382.176 19.8979H379.693C379.37 19.8979 379.068 19.7517 378.859 19.5013L370.064 8.83917C369.803 8.52614 369.657 8.14026 369.657 7.73324V5.66759C369.657 5.41516 369.864 5.20862 370.116 5.20862H377.649C377.901 5.20862 378.108 5.41522 378.108 5.66772V9.34593C378.108 9.91981 378.307 10.4758 378.672 10.9186L382.615 15.7001C382.771 15.8985 382.854 16.1384 382.854 16.3888Z" fill="#5159A3" stroke="black" stroke-width="0.5" stroke-miterlimit="10" stroke-linecap="round" stroke-linejoin="round"/>
<path d="M242.044 2.97424H306.552" stroke="black" stroke-width="0.5" stroke-miterlimit="10" stroke-linecap="round" stroke-linejoin="round"/>
<path d="M309.234 2.97424H372.125" stroke="black" stroke-width="0.5" stroke-miterlimit="10" stroke-linecap="round" stroke-linejoin="round"/>
<path d="M3.16382 36.7795L0 44.1147H6.32765L3.16382 36.7795Z" fill="#5159A3"/>
<path d="M102.834 40.4466L97.3596 35.9409V44.9522L102.834 40.4466Z" fill="#D92B2B"/>
<path d="M190.296 40.4466L184.821 35.9409V44.9522L190.296 40.4466Z" fill="#D92B2B"/>
<path d="M253.097 40.4466L247.622 35.9409V44.9522L253.097 40.4466Z" fill="#D92B2B"/>
<path d="M313.857 40.4466L308.382 35.9409V44.9522L313.857 40.4466Z" fill="#D92B2B"/>
<path d="M380.788 40.4466L375.313 35.9409V44.9522L380.788 40.4466Z" fill="#D92B2B"/>
<path d="M465.844 40.4466L460.37 35.9409V44.9522L465.844 40.4466Z" fill="#D92B2B"/>
<path d="M59.7723 11.1601V15.3814L61.9098 13.2708L59.7723 11.1601ZM64.6478 10.5578H60.4391L62.5434 12.6451L64.6478 10.5578ZM73.4624 10.9705H74.7533L73.155 13.7309V15.3814H72.0201V13.7309L70.4217 10.9705H71.7127L72.5875 12.7585L73.4624 10.9705ZM70.6724 12.9825V13.3692C70.6724 14.4805 69.7358 15.3813 68.6279 15.3813H66.6293V10.9705H68.6279C69.7358 10.9705 70.6724 11.8713 70.6724 12.9825ZM69.5263 13.023C69.5263 12.4347 69.0508 11.9578 68.4645 11.9578H67.7752V14.3942L68.4645 14.3939C69.0508 14.3939 69.5265 13.9171 69.5263 13.3287V13.023ZM60.5951 15.8368H63.0966C64.0812 15.8368 64.8794 15.0363 64.8794 14.0487V11.5397L60.5951 15.8368Z" fill="white"/>
<path d="M84.3015 13.7511L84.7673 14.4281V13.7511H85.0466V15.0372H84.899L84.4154 14.3587V15.0372H84.1361V13.7511H84.3015ZM75.4054 13.7511L75.7558 14.6285L76.1061 13.7511H76.3854V15.0372H76.1061V14.5054L75.893 15.0372H75.6185L75.4054 14.5054V15.0372H75.1261V13.7511H75.4054ZM77.2878 13.7511V14.0304H76.7907V14.2245H77.2878V14.5038H76.7907V14.7579H77.2878V15.0372H76.5114V13.7511H77.2878ZM78.5612 14.1204H78.2172C78.154 14.0651 78.0704 14.0304 77.9788 14.0304C77.7784 14.0304 77.6159 14.1929 77.6159 14.395C77.6159 14.5953 77.7784 14.7579 77.9788 14.7579C78.0704 14.7579 78.154 14.7248 78.2172 14.6679H78.5612C78.457 14.8857 78.2361 15.0372 77.9788 15.0372C77.6238 15.0372 77.335 14.75 77.335 14.395C77.335 14.0399 77.6238 13.7511 77.9788 13.7511C78.2361 13.7511 78.457 13.9026 78.5612 14.1204ZM79.5914 13.7511V15.0372H79.3121V14.5038H78.9602V15.0372H78.6808V13.7511H78.9602V14.2245H79.3121V13.7511H79.5914ZM80.8379 15.0372H80.538L80.456 14.821H80.063L79.9794 15.0372H79.6796L80.1766 13.7511H80.3423L80.8379 15.0372ZM80.2587 14.3129L80.1703 14.5417H80.3471L80.2587 14.3129ZM81.3032 14.0304V15.0372H81.0239V14.0304H80.743V13.7511H81.5825V14.0304H81.3032ZM81.696 13.7511H82.2546C82.485 13.7511 82.6744 13.9405 82.6744 14.1709C82.6744 14.3366 82.575 14.4833 82.4314 14.5496L82.6712 15.0372H82.3604L82.1394 14.5891H81.9753V15.0372H81.696V13.7511H81.696ZM81.9753 14.0304V14.3097H82.2546C82.3304 14.3097 82.3951 14.245 82.3951 14.1709C82.3951 14.0935 82.332 14.0304 82.2546 14.0304H81.9753ZM84.0045 14.395C84.0045 14.75 83.7157 15.0372 83.3607 15.0372C83.0056 15.0372 82.7184 14.75 82.7184 14.395C82.7184 14.0399 83.0056 13.7511 83.3607 13.7511C83.7157 13.7511 84.0045 14.0399 84.0045 14.395ZM82.9977 14.395C82.9977 14.5953 83.1602 14.7579 83.3607 14.7579C83.5611 14.7579 83.7236 14.5953 83.7236 14.395C83.7236 14.193 83.5611 14.0304 83.3607 14.0304C83.1602 14.0304 82.9977 14.193 82.9977 14.395ZM85.4591 13.7511V15.0372H85.1782V13.7511H85.4591ZM86.8193 14.1204H86.4753C86.4121 14.0651 86.3285 14.0304 86.237 14.0304C86.0366 14.0304 85.874 14.1929 85.874 14.395C85.874 14.5953 86.0366 14.7579 86.237 14.7579C86.3285 14.7579 86.4121 14.7248 86.4753 14.6679H86.8193C86.7151 14.8857 86.4942 15.0372 86.237 15.0372C85.8819 15.0372 85.5931 14.75 85.5931 14.395C85.5931 14.0399 85.8819 13.7511 86.237 13.7511C86.4942 13.7511 86.7151 13.9026 86.8193 14.1204ZM87.4881 14.256C87.6365 14.316 87.7406 14.4612 87.7406 14.6316C87.7406 14.8557 87.5591 15.0372 87.3351 15.0372C87.1236 15.0372 86.95 14.8747 86.9311 14.6679H87.2151C87.2309 14.72 87.2782 14.7579 87.3351 14.7579C87.4045 14.7579 87.4613 14.7011 87.4613 14.6316C87.4613 14.5891 87.4392 14.5512 87.4076 14.5291C87.2057 14.4265 86.9863 14.3523 86.9863 14.1014C86.9863 13.9073 87.1426 13.7511 87.3351 13.7511C87.526 13.7511 87.6807 13.9026 87.6838 14.092H87.4045C87.3998 14.0572 87.3714 14.0304 87.3351 14.0304C87.2972 14.0304 87.2656 14.062 87.2656 14.1014C87.2656 14.1267 87.2798 14.1503 87.3003 14.1614L87.4881 14.256Z" fill="white"/>
<path d="M75.5232 11.642C75.8747 11.642 76.1635 11.9292 76.1635 12.2823C76.1635 12.6323 75.8731 12.921 75.5232 12.921H75.1261V11.642H75.5232ZM75.4054 12.6432H75.5231C75.7209 12.6432 75.8857 12.4784 75.8857 12.2823C75.8857 12.083 75.7224 11.9198 75.5231 11.9198H75.4054V12.6432ZM77.5791 12.2823C77.5791 12.6354 77.2919 12.921 76.9388 12.921C76.5857 12.921 76.3001 12.6354 76.3001 12.2823C76.3001 11.9292 76.5857 11.642 76.9388 11.642C77.2919 11.642 77.5791 11.9292 77.5791 12.2823ZM76.5779 12.2823C76.5779 12.4816 76.7395 12.6432 76.9388 12.6432C77.1382 12.6432 77.2998 12.4816 77.2998 12.2823C77.2998 12.0814 77.1382 11.9198 76.9388 11.9198C76.7395 11.9197 76.5779 12.0814 76.5779 12.2823ZM80.0417 12.0437H79.72C79.6541 11.9684 79.5568 11.9198 79.4469 11.9198C79.2476 11.9198 79.086 12.0814 79.086 12.2823C79.086 12.4816 79.2476 12.6432 79.4469 12.6432C79.5427 12.6432 79.6305 12.6056 79.6949 12.5459H79.4422V12.2666H80.0872C80.0872 12.6275 79.811 12.921 79.4469 12.921C79.0938 12.921 78.8082 12.6354 78.8082 12.2823C78.8082 11.9292 79.0938 11.642 79.4469 11.642C79.7169 11.642 79.9476 11.8083 80.0417 12.0437ZM80.6135 12.921H80.3357V12.3874L79.959 11.642H80.2713L80.4754 12.0453L80.6778 11.642H80.9901L80.6135 12.3874V12.921ZM81.9424 12.921H81.6442L81.5626 12.706H81.1718L81.0887 12.921H80.7905L81.2848 11.642H81.4496L81.9424 12.921ZM81.3665 12.2007L81.2786 12.4282H81.4543L81.3665 12.2007ZM77.8601 11.642L78.3785 12.3152V11.642H78.6894V12.921H78.5252L77.9869 12.2462V12.921H77.676V11.642H77.8601ZM82.2281 11.642L82.7465 12.3152V11.642H83.0574V12.921H82.8931L82.3548 12.2462V12.921H82.0439V11.642H82.2281ZM84.3924 12.0437H84.0707C84.0048 11.9684 83.9075 11.9198 83.7976 11.9198C83.5983 11.9198 83.4366 12.0814 83.4366 12.2823C83.4366 12.4816 83.5983 12.6432 83.7976 12.6432C83.8933 12.6432 83.9812 12.6056 84.0456 12.5459H83.7929V12.2666H84.4379C84.4379 12.6275 84.1617 12.921 83.7976 12.921C83.4445 12.921 83.1589 12.6354 83.1589 12.2823C83.1589 11.9292 83.4445 11.642 83.7976 11.642C84.0675 11.642 84.2983 11.8083 84.3924 12.0437Z" fill="white"/>
<path d="M59.7723 11.1601V15.3814L61.9098 13.2708L59.7723 11.1601ZM64.6478 10.5578H60.4391L62.5434 12.6451L64.6478 10.5578ZM73.4624 10.9705H74.7533L73.155 13.7309V15.3814H72.0201V13.7309L70.4217 10.9705H71.7127L72.5875 12.7585L73.4624 10.9705ZM70.6724 12.9825V13.3692C70.6724 14.4805 69.7358 15.3813 68.6279 15.3813H66.6293V10.9705H68.6279C69.7358 10.9705 70.6724 11.8713 70.6724 12.9825ZM69.5263 13.023C69.5263 12.4347 69.0508 11.9578 68.4645 11.9578H67.7752V14.3942L68.4645 14.3939C69.0508 14.3939 69.5265 13.9171 69.5263 13.3287V13.023ZM60.5951 15.8368H63.0966C64.0812 15.8368 64.8794 15.0363 64.8794 14.0487V11.5397L60.5951 15.8368Z" fill="white"/>
<path d="M84.3015 13.7511L84.7673 14.4281V13.7511H85.0466V15.0372H84.899L84.4154 14.3587V15.0372H84.1361V13.7511H84.3015ZM75.4054 13.7511L75.7558 14.6285L76.1061 13.7511H76.3854V15.0372H76.1061V14.5054L75.893 15.0372H75.6185L75.4054 14.5054V15.0372H75.1261V13.7511H75.4054ZM77.2878 13.7511V14.0304H76.7907V14.2245H77.2878V14.5038H76.7907V14.7579H77.2878V15.0372H76.5114V13.7511H77.2878ZM78.5612 14.1204H78.2172C78.154 14.0651 78.0704 14.0304 77.9788 14.0304C77.7784 14.0304 77.6159 14.1929 77.6159 14.395C77.6159 14.5953 77.7784 14.7579 77.9788 14.7579C78.0704 14.7579 78.154 14.7248 78.2172 14.6679H78.5612C78.457 14.8857 78.2361 15.0372 77.9788 15.0372C77.6238 15.0372 77.335 14.75 77.335 14.395C77.335 14.0399 77.6238 13.7511 77.9788 13.7511C78.2361 13.7511 78.457 13.9026 78.5612 14.1204ZM79.5914 13.7511V15.0372H79.3121V14.5038H78.9602V15.0372H78.6808V13.7511H78.9602V14.2245H79.3121V13.7511H79.5914ZM80.8379 15.0372H80.538L80.456 14.821H80.063L79.9794 15.0372H79.6796L80.1766 13.7511H80.3423L80.8379 15.0372ZM80.2587 14.3129L80.1703 14.5417H80.3471L80.2587 14.3129ZM81.3032 14.0304V15.0372H81.0239V14.0304H80.743V13.7511H81.5825V14.0304H81.3032ZM81.696 13.7511H82.2546C82.485 13.7511 82.6744 13.9405 82.6744 14.1709C82.6744 14.3366 82.575 14.4833 82.4314 14.5496L82.6712 15.0372H82.3604L82.1394 14.5891H81.9753V15.0372H81.696V13.7511H81.696ZM81.9753 14.0304V14.3097H82.2546C82.3304 14.3097 82.3951 14.245 82.3951 14.1709C82.3951 14.0935 82.332 14.0304 82.2546 14.0304H81.9753ZM84.0045 14.395C84.0045 14.75 83.7157 15.0372 83.3607 15.0372C83.0056 15.0372 82.7184 14.75 82.7184 14.395C82.7184 14.0399 83.0056 13.7511 83.3607 13.7511C83.7157 13.7511 84.0045 14.0399 84.0045 14.395ZM82.9977 14.395C82.9977 14.5953 83.1602 14.7579 83.3607 14.7579C83.5611 14.7579 83.7236 14.5953 83.7236 14.395C83.7236 14.193 83.5611 14.0304 83.3607 14.0304C83.1602 14.0304 82.9977 14.193 82.9977 14.395ZM85.4591 13.7511V15.0372H85.1782V13.7511H85.4591ZM86.8193 14.1204H86.4753C86.4121 14.0651 86.3285 14.0304 86.237 14.0304C86.0366 14.0304 85.874 14.1929 85.874 14.395C85.874 14.5953 86.0366 14.7579 86.237 14.7579C86.3285 14.7579 86.4121 14.7248 86.4753 14.6679H86.8193C86.7151 14.8857 86.4942 15.0372 86.237 15.0372C85.8819 15.0372 85.5931 14.75 85.5931 14.395C85.5931 14.0399 85.8819 13.7511 86.237 13.7511C86.4942 13.7511 86.7151 13.9026 86.8193 14.1204ZM87.4881 14.256C87.6365 14.316 87.7406 14.4612 87.7406 14.6316C87.7406 14.8557 87.5591 15.0372 87.3351 15.0372C87.1236 15.0372 86.95 14.8747 86.9311 14.6679H87.2151C87.2309 14.72 87.2782 14.7579 87.3351 14.7579C87.4045 14.7579 87.4613 14.7011 87.4613 14.6316C87.4613 14.5891 87.4392 14.5512 87.4076 14.5291C87.2057 14.4265 86.9863 14.3523 86.9863 14.1014C86.9863 13.9073 87.1426 13.7511 87.3351 13.7511C87.526 13.7511 87.6807 13.9026 87.6838 14.092H87.4045C87.3998 14.0572 87.3714 14.0304 87.3351 14.0304C87.2972 14.0304 87.2656 14.062 87.2656 14.1014C87.2656 14.1267 87.2798 14.1503 87.3003 14.1614L87.4881 14.256Z" fill="white"/>
<path d="M75.5232 11.642C75.8747 11.642 76.1635 11.9292 76.1635 12.2823C76.1635 12.6323 75.8731 12.921 75.5232 12.921H75.1261V11.642H75.5232ZM75.4054 12.6432H75.5231C75.7209 12.6432 75.8857 12.4784 75.8857 12.2823C75.8857 12.083 75.7224 11.9198 75.5231 11.9198H75.4054V12.6432ZM77.5791 12.2823C77.5791 12.6354 77.2919 12.921 76.9388 12.921C76.5857 12.921 76.3001 12.6354 76.3001 12.2823C76.3001 11.9292 76.5857 11.642 76.9388 11.642C77.2919 11.642 77.5791 11.9292 77.5791 12.2823ZM76.5779 12.2823C76.5779 12.4816 76.7395 12.6432 76.9388 12.6432C77.1382 12.6432 77.2998 12.4816 77.2998 12.2823C77.2998 12.0814 77.1382 11.9198 76.9388 11.9198C76.7395 11.9197 76.5779 12.0814 76.5779 12.2823ZM80.0417 12.0437H79.72C79.6541 11.9684 79.5568 11.9198 79.4469 11.9198C79.2476 11.9198 79.086 12.0814 79.086 12.2823C79.086 12.4816 79.2476 12.6432 79.4469 12.6432C79.5427 12.6432 79.6305 12.6056 79.6949 12.5459H79.4422V12.2666H80.0872C80.0872 12.6275 79.811 12.921 79.4469 12.921C79.0938 12.921 78.8082 12.6354 78.8082 12.2823C78.8082 11.9292 79.0938 11.642 79.4469 11.642C79.7169 11.642 79.9476 11.8083 80.0417 12.0437ZM80.6135 12.921H80.3357V12.3874L79.959 11.642H80.2713L80.4754 12.0453L80.6778 11.642H80.9901L80.6135 12.3874V12.921ZM81.9424 12.921H81.6442L81.5626 12.706H81.1718L81.0887 12.921H80.7905L81.2848 11.642H81.4496L81.9424 12.921ZM81.3665 12.2007L81.2786 12.4282H81.4543L81.3665 12.2007ZM77.8601 11.642L78.3785 12.3152V11.642H78.6894V12.921H78.5252L77.9869 12.2462V12.921H77.676V11.642H77.8601ZM82.2281 11.642L82.7465 12.3152V11.642H83.0574V12.921H82.8931L82.3548 12.2462V12.921H82.0439V11.642H82.2281ZM84.3924 12.0437H84.0707C84.0048 11.9684 83.9075 11.9198 83.7976 11.9198C83.5983 11.9198 83.4366 12.0814 83.4366 12.2823C83.4366 12.4816 83.5983 12.6432 83.7976 12.6432C83.8933 12.6432 83.9812 12.6056 84.0456 12.5459H83.7929V12.2666H84.4379C84.4379 12.6275 84.1617 12.921 83.7976 12.921C83.4445 12.921 83.1589 12.6354 83.1589 12.2823C83.1589 11.9292 83.4445 11.642 83.7976 11.642C84.0675 11.642 84.2983 11.8083 84.3924 12.0437Z" fill="white"/>
<path d="M15.394 33.9247C15.394 34.1103 15.3696 34.2877 15.3208 34.457C15.2752 34.623 15.2101 34.776 15.1255 34.916C15.0409 35.0527 14.9383 35.1764 14.8179 35.287C14.7007 35.3945 14.5688 35.484 14.4224 35.5556C14.5916 35.6272 14.7446 35.72 14.8813 35.8339C15.0213 35.9479 15.1401 36.0813 15.2378 36.2343C15.3387 36.3841 15.4152 36.5501 15.4673 36.7324C15.5226 36.9147 15.5503 37.11 15.5503 37.3183C15.5503 37.6406 15.4998 37.9254 15.3989 38.1728C15.3013 38.4202 15.1662 38.6285 14.9937 38.7978C14.8244 38.9638 14.6242 39.0891 14.3931 39.1738C14.1619 39.2584 13.9146 39.3007 13.6509 39.3007C13.3807 39.3007 13.13 39.2584 12.8989 39.1738C12.6678 39.0891 12.466 38.9638 12.2935 38.7978C12.1242 38.6285 11.9907 38.4202 11.8931 38.1728C11.7954 37.9254 11.7466 37.6406 11.7466 37.3183C11.7466 37.11 11.7726 36.9147 11.8247 36.7324C11.8768 36.5501 11.9517 36.3841 12.0493 36.2343C12.147 36.0813 12.2642 35.9479 12.4009 35.8339C12.5376 35.72 12.689 35.6272 12.855 35.5556C12.7085 35.484 12.575 35.3945 12.4546 35.287C12.3374 35.1764 12.2365 35.0527 12.1519 34.916C12.0705 34.776 12.007 34.623 11.9614 34.457C11.9159 34.2877 11.8931 34.1103 11.8931 33.9247C11.8931 33.6155 11.937 33.3421 12.0249 33.1044C12.1128 32.8635 12.2349 32.6617 12.3911 32.499C12.5474 32.3329 12.7313 32.2076 12.9429 32.123C13.1577 32.0384 13.3905 31.996 13.6411 31.996C13.8885 31.996 14.1196 32.0384 14.3345 32.123C14.5493 32.2076 14.7349 32.3329 14.8911 32.499C15.0474 32.6617 15.1694 32.8635 15.2573 33.1044C15.3485 33.3421 15.394 33.6155 15.394 33.9247ZM15.0034 37.3183C15.0034 37.0937 14.9692 36.8886 14.9009 36.7031C14.8325 36.5175 14.7365 36.3596 14.6128 36.2294C14.4924 36.096 14.3491 35.9934 14.1831 35.9218C14.0171 35.8469 13.8364 35.8095 13.6411 35.8095C13.4425 35.8095 13.2603 35.8469 13.0942 35.9218C12.9282 35.9934 12.785 36.096 12.6646 36.2294C12.5441 36.3596 12.4497 36.5175 12.3813 36.7031C12.3162 36.8886 12.2837 37.0937 12.2837 37.3183C12.2837 37.5527 12.3162 37.7626 12.3813 37.9482C12.4497 38.1305 12.5441 38.2851 12.6646 38.412C12.785 38.539 12.9282 38.635 13.0942 38.7001C13.2635 38.7652 13.4491 38.7978 13.6509 38.7978C13.8494 38.7978 14.0301 38.7652 14.1929 38.7001C14.3589 38.635 14.5021 38.539 14.6226 38.412C14.743 38.2851 14.8358 38.1305 14.9009 37.9482C14.9692 37.7626 15.0034 37.5527 15.0034 37.3183ZM14.8521 33.9199C14.8521 33.7148 14.8211 33.526 14.7593 33.3535C14.6974 33.1777 14.6128 33.0279 14.5054 32.9042C14.3979 32.7773 14.2694 32.6796 14.1196 32.6113C13.9731 32.5397 13.8136 32.5038 13.6411 32.5038C13.4653 32.5038 13.3042 32.5364 13.1577 32.6015C13.0112 32.6666 12.8843 32.761 12.7769 32.8847C12.6727 33.0051 12.5897 33.1533 12.5278 33.329C12.4692 33.5048 12.4399 33.7018 12.4399 33.9199C12.4399 34.1314 12.4692 34.3235 12.5278 34.496C12.5864 34.6653 12.6694 34.8102 12.7769 34.9306C12.8843 35.0478 13.0112 35.1389 13.1577 35.204C13.3075 35.2691 13.4702 35.3017 13.646 35.3017C13.8185 35.3017 13.978 35.2691 14.1245 35.204C14.2743 35.1389 14.4028 35.0478 14.5103 34.9306C14.6177 34.8102 14.7007 34.6653 14.7593 34.496C14.8211 34.3235 14.8521 34.1314 14.8521 33.9199ZM20.3501 36.2343C20.3501 36.7584 20.3078 37.2141 20.2231 37.6015C20.1418 37.9856 20.0213 38.3046 19.8618 38.5585C19.7056 38.8092 19.5135 38.9964 19.2856 39.1201C19.0578 39.2405 18.799 39.3007 18.5093 39.3007C18.2228 39.3007 17.9657 39.2405 17.7378 39.1201C17.5099 38.9964 17.3162 38.8092 17.1567 38.5585C16.9972 38.3046 16.8735 37.9856 16.7856 37.6015C16.701 37.2141 16.6587 36.7584 16.6587 36.2343V35.0429C16.6587 34.5188 16.701 34.0663 16.7856 33.6855C16.8703 33.3014 16.9907 32.984 17.147 32.7333C17.3065 32.4827 17.5002 32.2971 17.728 32.1767C17.9559 32.0563 18.2131 31.996 18.4995 31.996C18.786 31.996 19.0431 32.0563 19.271 32.1767C19.5021 32.2971 19.6974 32.4827 19.8569 32.7333C20.0164 32.984 20.1385 33.3014 20.2231 33.6855C20.3078 34.0663 20.3501 34.5188 20.3501 35.0429V36.2343ZM19.8032 34.9648C19.8032 34.151 19.6942 33.5374 19.4761 33.124C19.2612 32.7106 18.9357 32.5038 18.4995 32.5038C18.0698 32.5038 17.7443 32.7106 17.5229 33.124C17.3049 33.5374 17.1958 34.151 17.1958 34.9648V36.3027C17.1958 36.7031 17.2235 37.0579 17.2788 37.3671C17.3374 37.6764 17.4204 37.9368 17.5278 38.1484C17.6385 38.36 17.7752 38.5211 17.938 38.6318C18.104 38.7425 18.2944 38.7978 18.5093 38.7978C18.7274 38.7978 18.9162 38.7425 19.0757 38.6318C19.2384 38.5211 19.3735 38.36 19.481 38.1484C19.5884 37.9368 19.6681 37.6764 19.7202 37.3671C19.7756 37.0579 19.8032 36.7031 19.8032 36.3027V34.9648ZM25.2134 36.2343C25.2134 36.7584 25.1711 37.2141 25.0864 37.6015C25.005 37.9856 24.8846 38.3046 24.7251 38.5585C24.5688 38.8092 24.3768 38.9964 24.1489 39.1201C23.9211 39.2405 23.6623 39.3007 23.3726 39.3007C23.0861 39.3007 22.8289 39.2405 22.6011 39.1201C22.3732 38.9964 22.1795 38.8092 22.02 38.5585C21.8605 38.3046 21.7368 37.9856 21.6489 37.6015C21.5643 37.2141 21.522 36.7584 21.522 36.2343V35.0429C21.522 34.5188 21.5643 34.0663 21.6489 33.6855C21.7336 33.3014 21.854 32.984 22.0103 32.7333C22.1698 32.4827 22.3634 32.2971 22.5913 32.1767C22.8192 32.0563 23.0763 31.996 23.3628 31.996C23.6493 31.996 23.9064 32.0563 24.1343 32.1767C24.3654 32.2971 24.5607 32.4827 24.7202 32.7333C24.8797 32.984 25.0018 33.3014 25.0864 33.6855C25.1711 34.0663 25.2134 34.5188 25.2134 35.0429V36.2343ZM24.6665 34.9648C24.6665 34.151 24.5575 33.5374 24.3394 33.124C24.1245 32.7106 23.799 32.5038 23.3628 32.5038C22.9331 32.5038 22.6076 32.7106 22.3862 33.124C22.1681 33.5374 22.0591 34.151 22.0591 34.9648V36.3027C22.0591 36.7031 22.0868 37.0579 22.1421 37.3671C22.2007 37.6764 22.2837 37.9368 22.3911 38.1484C22.5018 38.36 22.6385 38.5211 22.8013 38.6318C22.9673 38.7425 23.1577 38.7978 23.3726 38.7978C23.5907 38.7978 23.7795 38.7425 23.939 38.6318C24.1017 38.5211 24.2368 38.36 24.3442 38.1484C24.4517 37.9368 24.5314 37.6764 24.5835 37.3671C24.6388 37.0579 24.6665 36.7031 24.6665 36.3027V34.9648ZM30.0767 36.2343C30.0767 36.7584 30.0343 37.2141 29.9497 37.6015C29.8683 37.9856 29.7479 38.3046 29.5884 38.5585C29.4321 38.8092 29.2401 38.9964 29.0122 39.1201C28.7843 39.2405 28.5256 39.3007 28.2358 39.3007C27.9494 39.3007 27.6922 39.2405 27.4644 39.1201C27.2365 38.9964 27.0428 38.8092 26.8833 38.5585C26.7238 38.3046 26.6001 37.9856 26.5122 37.6015C26.4276 37.2141 26.3853 36.7584 26.3853 36.2343V35.0429C26.3853 34.5188 26.4276 34.0663 26.5122 33.6855C26.5968 33.3014 26.7173 32.984 26.8735 32.7333C27.033 32.4827 27.2267 32.2971 27.4546 32.1767C27.6825 32.0563 27.9396 31.996 28.2261 31.996C28.5125 31.996 28.7697 32.0563 28.9976 32.1767C29.2287 32.2971 29.424 32.4827 29.5835 32.7333C29.743 32.984 29.8651 33.3014 29.9497 33.6855C30.0343 34.0663 30.0767 34.5188 30.0767 35.0429V36.2343ZM29.5298 34.9648C29.5298 34.151 29.4207 33.5374 29.2026 33.124C28.9878 32.7106 28.6623 32.5038 28.2261 32.5038C27.7964 32.5038 27.4709 32.7106 27.2495 33.124C27.0314 33.5374 26.9224 34.151 26.9224 34.9648V36.3027C26.9224 36.7031 26.95 37.0579 27.0054 37.3671C27.064 37.6764 27.147 37.9368 27.2544 38.1484C27.3651 38.36 27.5018 38.5211 27.6646 38.6318C27.8306 38.7425 28.021 38.7978 28.2358 38.7978C28.4539 38.7978 28.6427 38.7425 28.8022 38.6318C28.965 38.5211 29.1001 38.36 29.2075 38.1484C29.3149 37.9368 29.3947 37.6764 29.4468 37.3671C29.5021 37.0579 29.5298 36.7031 29.5298 36.3027V34.9648ZM34.8667 36.791H34.2173V39.2031H33.6704V33.9199H34.2173V36.2587H34.8569L36.4585 33.9199H37.1323L35.311 36.4736L37.3228 39.2031H36.6147L34.8667 36.791ZM40.9946 34.4326H38.7925V39.2031H38.2456V33.9199H40.9946V34.4326ZM15.3843 49.2031H14.8423V46.7861H12.5181V49.2031H11.9712V43.9199H12.5181V46.2831H14.8423V43.9199H15.3843V49.2031ZM19.6665 49.2031C19.6405 49.1152 19.6193 49.0061 19.603 48.8759C19.5868 48.7425 19.5754 48.6074 19.5688 48.4706C19.5005 48.5813 19.4191 48.6871 19.3247 48.788C19.2303 48.8857 19.1213 48.9736 18.9976 49.0517C18.8771 49.1266 18.742 49.1868 18.5923 49.2324C18.4425 49.2779 18.2814 49.3007 18.1089 49.3007C17.8908 49.3007 17.6922 49.2698 17.5132 49.2079C17.3374 49.1461 17.186 49.0533 17.0591 48.9296C16.9321 48.8059 16.8345 48.6513 16.7661 48.4658C16.6978 48.2802 16.6636 48.0637 16.6636 47.8163C16.6636 47.5722 16.7059 47.3476 16.7905 47.1425C16.8752 46.9342 17.0005 46.7551 17.1665 46.6054C17.3358 46.4557 17.5457 46.3385 17.7964 46.2538C18.047 46.1692 18.3384 46.1269 18.6704 46.1269H19.564V45.3896C19.564 45.012 19.4696 44.7418 19.2808 44.579C19.0952 44.413 18.8218 44.33 18.4604 44.33C18.2912 44.33 18.1349 44.3561 17.9917 44.4081C17.8517 44.4602 17.7313 44.5335 17.6304 44.6279C17.5295 44.719 17.4513 44.8297 17.396 44.9599C17.3407 45.0869 17.313 45.2268 17.313 45.3798L16.771 45.3749C16.771 45.1699 16.8117 44.9745 16.8931 44.789C16.9744 44.6002 17.09 44.4342 17.2397 44.291C17.3895 44.1477 17.5701 44.0338 17.7817 43.9492C17.9933 43.8645 18.2277 43.8222 18.4849 43.8222C18.7225 43.8222 18.939 43.8515 19.1343 43.9101C19.3328 43.9654 19.5037 44.0566 19.647 44.1835C19.7902 44.3072 19.9009 44.47 19.979 44.6718C20.0604 44.8704 20.1011 45.1129 20.1011 45.3994V48.0947C20.1011 48.1858 20.1043 48.2802 20.1108 48.3779C20.1174 48.4755 20.1255 48.5716 20.1353 48.666C20.1483 48.7571 20.1629 48.845 20.1792 48.9296C20.1987 49.011 20.2199 49.0826 20.2427 49.1445V49.2031H19.6665ZM18.1772 48.7783C18.3465 48.7783 18.5044 48.7555 18.6509 48.7099C18.8006 48.6611 18.9341 48.596 19.0513 48.5146C19.1685 48.43 19.2694 48.3323 19.354 48.2216C19.4419 48.1109 19.5119 47.9921 19.564 47.8652V46.581H18.7485C18.2375 46.581 17.8534 46.6884 17.5962 46.9033C17.339 47.1181 17.2104 47.4078 17.2104 47.7724C17.2104 48.1207 17.2951 48.3762 17.4644 48.539C17.6369 48.6985 17.8745 48.7783 18.1772 48.7783ZM27.5229 49.2031H23.7534V48.7441L25.7065 46.1074C25.8888 45.86 26.0418 45.637 26.1655 45.4384C26.2925 45.2398 26.3934 45.0559 26.4683 44.8867C26.5464 44.7141 26.6017 44.553 26.6343 44.4033C26.6668 44.2535 26.6831 44.1054 26.6831 43.9589C26.6831 43.7473 26.6571 43.552 26.605 43.373C26.5529 43.1939 26.4764 43.041 26.3755 42.914C26.2746 42.7838 26.1476 42.6829 25.9946 42.6113C25.8449 42.5397 25.6724 42.5038 25.4771 42.5038C25.272 42.5038 25.0881 42.5445 24.9253 42.6259C24.7625 42.7073 24.6242 42.8212 24.5103 42.9677C24.3996 43.1142 24.3133 43.2884 24.2515 43.4902C24.1929 43.6887 24.1636 43.9068 24.1636 44.1445H23.6216C23.6216 43.8515 23.6639 43.5748 23.7485 43.3144C23.8332 43.054 23.9536 42.8261 24.1099 42.6308C24.2694 42.4355 24.4631 42.2809 24.6909 42.1669C24.922 42.053 25.1841 41.996 25.4771 41.996C25.7472 41.996 25.9914 42.04 26.2095 42.1279C26.4276 42.2158 26.6115 42.3411 26.7612 42.5038C26.9142 42.6666 27.0314 42.8668 27.1128 43.1044C27.1942 43.3421 27.2349 43.609 27.2349 43.9052C27.2349 44.1201 27.2023 44.3365 27.1372 44.5546C27.0721 44.7695 26.9858 44.9843 26.8784 45.1992C26.771 45.414 26.6457 45.6272 26.5024 45.8388C26.3625 46.0504 26.2176 46.2587 26.0679 46.4638L24.4126 48.7001H27.5229V49.2031ZM29.2905 48.9638C29.2905 49.1103 29.2743 49.2568 29.2417 49.4033C29.2124 49.5497 29.1685 49.6897 29.1099 49.8232C29.0513 49.9599 28.9797 50.0885 28.895 50.2089C28.8104 50.3294 28.7144 50.4384 28.6069 50.5361L28.2603 50.2773C28.41 50.0755 28.5239 49.872 28.6021 49.6669C28.6802 49.4619 28.7192 49.2307 28.7192 48.9736V48.2753H29.2905V48.9638ZM34.1587 46.2343C34.1587 46.7584 34.1164 47.2141 34.0317 47.6015C33.9504 47.9856 33.8299 48.3046 33.6704 48.5585C33.5142 48.8092 33.3221 48.9964 33.0942 49.1201C32.8664 49.2405 32.6076 49.3007 32.3179 49.3007C32.0314 49.3007 31.7743 49.2405 31.5464 49.1201C31.3185 48.9964 31.1248 48.8092 30.9653 48.5585C30.8058 48.3046 30.6821 47.9856 30.5942 47.6015C30.5096 47.2141 30.4673 46.7584 30.4673 46.2343V45.0429C30.4673 44.5188 30.5096 44.0663 30.5942 43.6855C30.6789 43.3014 30.7993 42.984 30.9556 42.7333C31.1151 42.4827 31.3088 42.2971 31.5366 42.1767C31.7645 42.0563 32.0216 41.996 32.3081 41.996C32.5946 41.996 32.8517 42.0563 33.0796 42.1767C33.3107 42.2971 33.506 42.4827 33.6655 42.7333C33.825 42.984 33.9471 43.3014 34.0317 43.6855C34.1164 44.0663 34.1587 44.5188 34.1587 45.0429V46.2343ZM33.6118 44.9648C33.6118 44.151 33.5028 43.5374 33.2847 43.124C33.0698 42.7106 32.7443 42.5038 32.3081 42.5038C31.8784 42.5038 31.5529 42.7106 31.3315 43.124C31.1134 43.5374 31.0044 44.151 31.0044 44.9648V46.3027C31.0044 46.7031 31.0321 47.0579 31.0874 47.3671C31.146 47.6764 31.229 47.9368 31.3364 48.1484C31.4471 48.36 31.5838 48.5211 31.7466 48.6318C31.9126 48.7425 32.103 48.7978 32.3179 48.7978C32.536 48.7978 32.7248 48.7425 32.8843 48.6318C33.047 48.5211 33.1821 48.36 33.2896 48.1484C33.397 47.9368 33.4767 47.6764 33.5288 47.3671C33.5841 47.0579 33.6118 46.7031 33.6118 46.3027V44.9648ZM37.9429 48.3974L39.6616 43.9199H40.3306V49.2031H39.7886V44.9599L38.1333 49.2031H37.7524L36.063 44.8525V49.2031H35.5259V43.9199H36.2339L37.9429 48.3974Z" fill="black"/>
<path d="M64.9565 35.3261H65.4692C65.6938 35.3261 65.8892 35.2903 66.0552 35.2187C66.2244 35.1438 66.366 35.0445 66.48 34.9208C66.5939 34.7971 66.6785 34.6523 66.7339 34.4863C66.7925 34.317 66.8218 34.138 66.8218 33.9492C66.8218 33.7343 66.7974 33.539 66.7485 33.3632C66.6997 33.1842 66.6248 33.0312 66.5239 32.9042C66.423 32.7773 66.2961 32.6796 66.1431 32.6113C65.9933 32.5397 65.8143 32.5038 65.606 32.5038C65.4237 32.5038 65.2544 32.538 65.0981 32.6064C64.9451 32.6715 64.8117 32.7675 64.6978 32.8945C64.5871 33.0214 64.4992 33.1744 64.4341 33.3535C64.3722 33.5325 64.3413 33.7343 64.3413 33.9589H63.7993C63.7993 33.6725 63.8433 33.4088 63.9312 33.1679C64.0223 32.927 64.1476 32.7203 64.3071 32.5478C64.4699 32.3753 64.6619 32.2402 64.8833 32.1425C65.1047 32.0449 65.3455 31.996 65.606 31.996C65.8696 31.996 66.1089 32.04 66.3237 32.1279C66.5418 32.2158 66.7274 32.3443 66.8804 32.5136C67.0366 32.6796 67.1554 32.8847 67.2368 33.1288C67.3215 33.373 67.3638 33.6529 67.3638 33.9687C67.3638 34.1282 67.3426 34.2877 67.3003 34.4472C67.258 34.6035 67.1945 34.7516 67.1099 34.8915C67.0252 35.0315 66.9194 35.1601 66.7925 35.2773C66.6655 35.3912 66.5174 35.4856 66.3481 35.5605C66.5467 35.6256 66.716 35.7151 66.856 35.829C66.9992 35.943 67.1164 36.0748 67.2075 36.2245C67.2987 36.371 67.3654 36.5338 67.4077 36.7128C67.45 36.8886 67.4712 37.0742 67.4712 37.2695C67.4712 37.5917 67.424 37.8798 67.3296 38.1337C67.2384 38.3844 67.1099 38.5976 66.9438 38.7734C66.7778 38.9459 66.5809 39.0777 66.353 39.1689C66.1284 39.2568 65.8843 39.3007 65.6206 39.3007C65.3765 39.3007 65.1388 39.2584 64.9077 39.1738C64.6799 39.0891 64.4764 38.9638 64.2974 38.7978C64.1216 38.6285 63.98 38.4186 63.8726 38.1679C63.7684 37.914 63.7163 37.6178 63.7163 37.2792H64.2583C64.2583 37.5038 64.2909 37.7089 64.356 37.8945C64.4243 38.08 64.5171 38.2395 64.6343 38.373C64.7547 38.5064 64.8979 38.6106 65.064 38.6855C65.2332 38.7604 65.4188 38.7978 65.6206 38.7978C66.034 38.7978 66.3547 38.6692 66.5825 38.412C66.8136 38.1516 66.9292 37.7773 66.9292 37.289C66.9292 37.0351 66.8934 36.817 66.8218 36.6347C66.7534 36.4492 66.6541 36.2978 66.5239 36.1806C66.397 36.0602 66.244 35.9723 66.0649 35.9169C65.8859 35.8616 65.6873 35.8339 65.4692 35.8339H64.9565V35.3261ZM69.5171 38.7343C69.9338 38.7343 70.2837 38.6643 70.5669 38.5244C70.8501 38.3844 71.078 38.1907 71.2505 37.9433C71.4263 37.6926 71.5532 37.3997 71.6313 37.0644C71.7095 36.7259 71.7534 36.358 71.7632 35.9609C71.6818 36.0976 71.5874 36.2229 71.48 36.3369C71.3758 36.4475 71.2619 36.5436 71.1382 36.6249C71.0145 36.7031 70.8826 36.7649 70.7427 36.8105C70.6027 36.8528 70.4562 36.874 70.3032 36.874C70.02 36.874 69.771 36.8072 69.5562 36.6738C69.3446 36.5403 69.1672 36.3629 69.0239 36.1415C68.8807 35.9202 68.7733 35.6663 68.7017 35.3798C68.63 35.0934 68.5942 34.7971 68.5942 34.4911C68.5942 34.1494 68.6349 33.8271 68.7163 33.5244C68.7977 33.2216 68.9149 32.9579 69.0679 32.7333C69.2209 32.5055 69.4097 32.3264 69.6343 32.1962C69.8589 32.0628 70.116 31.996 70.4058 31.996C70.728 31.996 71.008 32.0676 71.2456 32.2109C71.4865 32.3509 71.6851 32.5462 71.8413 32.7968C71.9976 33.0475 72.1131 33.3469 72.188 33.6953C72.2661 34.0436 72.3052 34.4228 72.3052 34.8329V35.3945C72.3052 35.7428 72.2873 36.0813 72.2515 36.4101C72.2157 36.7356 72.1554 37.0416 72.0708 37.3281C71.9894 37.6145 71.8787 37.8766 71.7388 38.1142C71.6021 38.3486 71.4295 38.5504 71.2212 38.7197C71.0161 38.8889 70.772 39.0208 70.4888 39.1152C70.2088 39.2063 69.8849 39.2519 69.5171 39.2519H69.4146L69.4194 38.7343H69.5171ZM70.3765 36.3613C70.5522 36.3613 70.715 36.3271 70.8647 36.2587C71.0145 36.1871 71.1479 36.0943 71.2651 35.9804C71.3823 35.8665 71.4832 35.7363 71.5679 35.5898C71.6525 35.44 71.7192 35.287 71.7681 35.1308V34.7744C71.7681 34.4033 71.7339 34.0777 71.6655 33.7978C71.5972 33.5146 71.5028 33.2786 71.3823 33.0898C71.2619 32.8977 71.1187 32.7529 70.9526 32.6552C70.7866 32.5576 70.606 32.5087 70.4106 32.5087C70.2088 32.5087 70.0282 32.5624 69.8687 32.6699C69.7124 32.774 69.5789 32.9156 69.4683 33.0947C69.3576 33.2737 69.2729 33.482 69.2144 33.7197C69.1558 33.954 69.1265 34.2031 69.1265 34.4667C69.1265 34.7076 69.1525 34.942 69.2046 35.1699C69.2599 35.3977 69.3397 35.5995 69.4438 35.7753C69.548 35.9511 69.6782 36.0927 69.8345 36.2001C69.9907 36.3076 70.1714 36.3613 70.3765 36.3613ZM77.2222 36.2343C77.2222 36.7584 77.1799 37.2141 77.0952 37.6015C77.0138 37.9856 76.8934 38.3046 76.7339 38.5585C76.5776 38.8092 76.3856 38.9964 76.1577 39.1201C75.9299 39.2405 75.6711 39.3007 75.3813 39.3007C75.0949 39.3007 74.8377 39.2405 74.6099 39.1201C74.382 38.9964 74.1883 38.8092 74.0288 38.5585C73.8693 38.3046 73.7456 37.9856 73.6577 37.6015C73.5731 37.2141 73.5308 36.7584 73.5308 36.2343V35.0429C73.5308 34.5188 73.5731 34.0663 73.6577 33.6855C73.7424 33.3014 73.8628 32.984 74.019 32.7333C74.1785 32.4827 74.3722 32.2971 74.6001 32.1767C74.828 32.0563 75.0851 31.996 75.3716 31.996C75.658 31.996 75.9152 32.0563 76.1431 32.1767C76.3742 32.2971 76.5695 32.4827 76.729 32.7333C76.8885 32.984 77.0106 33.3014 77.0952 33.6855C77.1799 34.0663 77.2222 34.5188 77.2222 35.0429V36.2343ZM76.6753 34.9648C76.6753 34.151 76.5662 33.5374 76.3481 33.124C76.1333 32.7106 75.8078 32.5038 75.3716 32.5038C74.9419 32.5038 74.6164 32.7106 74.395 33.124C74.1769 33.5374 74.0679 34.151 74.0679 34.9648V36.3027C74.0679 36.7031 74.0955 37.0579 74.1509 37.3671C74.2095 37.6764 74.2925 37.9368 74.3999 38.1484C74.5106 38.36 74.6473 38.5211 74.8101 38.6318C74.9761 38.7425 75.1665 38.7978 75.3813 38.7978C75.5994 38.7978 75.7882 38.7425 75.9478 38.6318C76.1105 38.5211 76.2456 38.36 76.353 38.1484C76.4604 37.9368 76.5402 37.6764 76.5923 37.3671C76.6476 37.0579 76.6753 36.7031 76.6753 36.3027V34.9648ZM82.0854 36.2343C82.0854 36.7584 82.0431 37.2141 81.9585 37.6015C81.8771 37.9856 81.7567 38.3046 81.5972 38.5585C81.4409 38.8092 81.2489 38.9964 81.021 39.1201C80.7931 39.2405 80.5343 39.3007 80.2446 39.3007C79.9582 39.3007 79.701 39.2405 79.4731 39.1201C79.2453 38.9964 79.0516 38.8092 78.8921 38.5585C78.7326 38.3046 78.6089 37.9856 78.521 37.6015C78.4364 37.2141 78.394 36.7584 78.394 36.2343V35.0429C78.394 34.5188 78.4364 34.0663 78.521 33.6855C78.6056 33.3014 78.7261 32.984 78.8823 32.7333C79.0418 32.4827 79.2355 32.2971 79.4634 32.1767C79.6912 32.0563 79.9484 31.996 80.2349 31.996C80.5213 31.996 80.7785 32.0563 81.0063 32.1767C81.2375 32.2971 81.4328 32.4827 81.5923 32.7333C81.7518 32.984 81.8739 33.3014 81.9585 33.6855C82.0431 34.0663 82.0854 34.5188 82.0854 35.0429V36.2343ZM81.5386 34.9648C81.5386 34.151 81.4295 33.5374 81.2114 33.124C80.9966 32.7106 80.6711 32.5038 80.2349 32.5038C79.8052 32.5038 79.4797 32.7106 79.2583 33.124C79.0402 33.5374 78.9312 34.151 78.9312 34.9648V36.3027C78.9312 36.7031 78.9588 37.0579 79.0142 37.3671C79.0728 37.6764 79.1558 37.9368 79.2632 38.1484C79.3739 38.36 79.5106 38.5211 79.6733 38.6318C79.8394 38.7425 80.0298 38.7978 80.2446 38.7978C80.4627 38.7978 80.6515 38.7425 80.811 38.6318C80.9738 38.5211 81.1089 38.36 81.2163 38.1484C81.3237 37.9368 81.4035 37.6764 81.4556 37.3671C81.5109 37.0579 81.5386 36.7031 81.5386 36.3027V34.9648ZM86.8755 36.791H86.2261V39.2031H85.6792V33.9199H86.2261V36.2587H86.8657L88.4673 33.9199H89.1411L87.3198 36.4736L89.3315 39.2031H88.6235L86.8755 36.791ZM93.0034 34.4326H90.8013V39.2031H90.2544V33.9199H93.0034V34.4326ZM67.3931 49.2031H66.8511V46.7861H64.5269V49.2031H63.98V43.9199H64.5269V46.2831H66.8511V43.9199H67.3931V49.2031ZM71.6753 49.2031C71.6493 49.1152 71.6281 49.0061 71.6118 48.8759C71.5955 48.7425 71.5841 48.6074 71.5776 48.4706C71.5093 48.5813 71.4279 48.6871 71.3335 48.788C71.2391 48.8857 71.13 48.9736 71.0063 49.0517C70.8859 49.1266 70.7508 49.1868 70.6011 49.2324C70.4513 49.2779 70.2902 49.3007 70.1177 49.3007C69.8996 49.3007 69.701 49.2698 69.522 49.2079C69.3462 49.1461 69.1948 49.0533 69.0679 48.9296C68.9409 48.8059 68.8433 48.6513 68.7749 48.4658C68.7065 48.2802 68.6724 48.0637 68.6724 47.8163C68.6724 47.5722 68.7147 47.3476 68.7993 47.1425C68.884 46.9342 69.0093 46.7551 69.1753 46.6054C69.3446 46.4557 69.5545 46.3385 69.8052 46.2538C70.0558 46.1692 70.3472 46.1269 70.6792 46.1269H71.5728V45.3896C71.5728 45.012 71.4784 44.7418 71.2896 44.579C71.104 44.413 70.8306 44.33 70.4692 44.33C70.3 44.33 70.1437 44.3561 70.0005 44.4081C69.8605 44.4602 69.7401 44.5335 69.6392 44.6279C69.5382 44.719 69.4601 44.8297 69.4048 44.9599C69.3494 45.0869 69.3218 45.2268 69.3218 45.3798L68.7798 45.3749C68.7798 45.1699 68.8205 44.9745 68.9019 44.789C68.9832 44.6002 69.0988 44.4342 69.2485 44.291C69.3983 44.1477 69.5789 44.0338 69.7905 43.9492C70.0021 43.8645 70.2365 43.8222 70.4937 43.8222C70.7313 43.8222 70.9478 43.8515 71.1431 43.9101C71.3416 43.9654 71.5125 44.0566 71.6558 44.1835C71.799 44.3072 71.9097 44.47 71.9878 44.6718C72.0692 44.8704 72.1099 45.1129 72.1099 45.3994V48.0947C72.1099 48.1858 72.1131 48.2802 72.1196 48.3779C72.1261 48.4755 72.1343 48.5716 72.144 48.666C72.1571 48.7571 72.1717 48.845 72.188 48.9296C72.2075 49.011 72.2287 49.0826 72.2515 49.1445V49.2031H71.6753ZM70.186 48.7783C70.3553 48.7783 70.5132 48.7555 70.6597 48.7099C70.8094 48.6611 70.9429 48.596 71.0601 48.5146C71.1772 48.43 71.2782 48.3323 71.3628 48.2216C71.4507 48.1109 71.5207 47.9921 71.5728 47.8652V46.581H70.7573C70.2463 46.581 69.8621 46.6884 69.605 46.9033C69.3478 47.1181 69.2192 47.4078 69.2192 47.7724C69.2192 48.1207 69.3039 48.3762 69.4731 48.539C69.6457 48.6985 69.8833 48.7783 70.186 48.7783ZM78.8091 46.9081H79.7222V47.416H78.8091V49.2031H78.2671V47.416H75.4741V47.0693L78.2231 42.0937H78.8091V46.9081ZM76.1235 46.9081H78.2671V42.914L78.0718 43.3095L76.1235 46.9081ZM81.2993 48.9638C81.2993 49.1103 81.283 49.2568 81.2505 49.4033C81.2212 49.5497 81.1772 49.6897 81.1187 49.8232C81.0601 49.9599 80.9884 50.0885 80.9038 50.2089C80.8192 50.3294 80.7231 50.4384 80.6157 50.5361L80.269 50.2773C80.4188 50.0755 80.5327 49.872 80.6108 49.6669C80.689 49.4619 80.728 49.2307 80.728 48.9736V48.2753H81.2993V48.9638ZM86.2505 42.4355L83.7114 49.2031H83.145L85.6694 42.6015H82.3052V42.0937H86.2505V42.4355ZM89.9517 48.3974L91.6704 43.9199H92.3394V49.2031H91.7974V44.9599L90.1421 49.2031H89.7612L88.0718 44.8525V49.2031H87.5347V43.9199H88.2427L89.9517 48.3974Z" fill="black"/>
<path d="M153.615 39.2031H149.845V38.7441L151.798 36.1074C151.981 35.86 152.134 35.637 152.257 35.4384C152.384 35.2398 152.485 35.0559 152.56 34.8867C152.638 34.7141 152.694 34.553 152.726 34.4033C152.759 34.2535 152.775 34.1054 152.775 33.9589C152.775 33.7473 152.749 33.552 152.697 33.373C152.645 33.1939 152.568 33.041 152.467 32.914C152.366 32.7838 152.239 32.6829 152.086 32.6113C151.937 32.5397 151.764 32.5038 151.569 32.5038C151.364 32.5038 151.18 32.5445 151.017 32.6259C150.854 32.7073 150.716 32.8212 150.602 32.9677C150.491 33.1142 150.405 33.2884 150.343 33.4902C150.285 33.6887 150.255 33.9068 150.255 34.1445H149.713C149.713 33.8515 149.756 33.5748 149.84 33.3144C149.925 33.054 150.045 32.8261 150.202 32.6308C150.361 32.4355 150.555 32.2809 150.783 32.1669C151.014 32.053 151.276 31.996 151.569 31.996C151.839 31.996 152.083 32.04 152.301 32.1279C152.519 32.2158 152.703 32.3411 152.853 32.5038C153.006 32.6666 153.123 32.8668 153.205 33.1044C153.286 33.3421 153.327 33.609 153.327 33.9052C153.327 34.1201 153.294 34.3365 153.229 34.5546C153.164 34.7695 153.078 34.9843 152.97 35.1992C152.863 35.414 152.737 35.6272 152.594 35.8388C152.454 36.0504 152.309 36.2587 152.16 36.4638L150.504 38.7001H153.615V39.2031ZM157.033 39.2031H156.486V32.8115L154.879 33.5292V32.9726L156.94 32.0693H157.033V39.2031ZM163.2 36.2343C163.2 36.7584 163.157 37.2141 163.073 37.6015C162.991 37.9856 162.871 38.3046 162.711 38.5585C162.555 38.8092 162.363 38.9964 162.135 39.1201C161.907 39.2405 161.649 39.3007 161.359 39.3007C161.072 39.3007 160.815 39.2405 160.587 39.1201C160.36 38.9964 160.166 38.8092 160.006 38.5585C159.847 38.3046 159.723 37.9856 159.635 37.6015C159.551 37.2141 159.508 36.7584 159.508 36.2343V35.0429C159.508 34.5188 159.551 34.0663 159.635 33.6855C159.72 33.3014 159.84 32.984 159.997 32.7333C160.156 32.4827 160.35 32.2971 160.578 32.1767C160.806 32.0563 161.063 31.996 161.349 31.996C161.636 31.996 161.893 32.0563 162.121 32.1767C162.352 32.2971 162.547 32.4827 162.707 32.7333C162.866 32.984 162.988 33.3014 163.073 33.6855C163.157 34.0663 163.2 34.5188 163.2 35.0429V36.2343ZM162.653 34.9648C162.653 34.151 162.544 33.5374 162.326 33.124C162.111 32.7106 161.785 32.5038 161.349 32.5038C160.919 32.5038 160.594 32.7106 160.373 33.124C160.154 33.5374 160.045 34.151 160.045 34.9648V36.3027C160.045 36.7031 160.073 37.0579 160.128 37.3671C160.187 37.6764 160.27 37.9368 160.377 38.1484C160.488 38.36 160.625 38.5211 160.788 38.6318C160.954 38.7425 161.144 38.7978 161.359 38.7978C161.577 38.7978 161.766 38.7425 161.925 38.6318C162.088 38.5211 162.223 38.36 162.331 38.1484C162.438 37.9368 162.518 37.6764 162.57 37.3671C162.625 37.0579 162.653 36.7031 162.653 36.3027V34.9648ZM168.063 36.2343C168.063 36.7584 168.021 37.2141 167.936 37.6015C167.855 37.9856 167.734 38.3046 167.575 38.5585C167.418 38.8092 167.226 38.9964 166.999 39.1201C166.771 39.2405 166.512 39.3007 166.222 39.3007C165.936 39.3007 165.679 39.2405 165.451 39.1201C165.223 38.9964 165.029 38.8092 164.87 38.5585C164.71 38.3046 164.586 37.9856 164.499 37.6015C164.414 37.2141 164.372 36.7584 164.372 36.2343V35.0429C164.372 34.5188 164.414 34.0663 164.499 33.6855C164.583 33.3014 164.704 32.984 164.86 32.7333C165.019 32.4827 165.213 32.2971 165.441 32.1767C165.669 32.0563 165.926 31.996 166.212 31.996C166.499 31.996 166.756 32.0563 166.984 32.1767C167.215 32.2971 167.41 32.4827 167.57 32.7333C167.729 32.984 167.851 33.3014 167.936 33.6855C168.021 34.0663 168.063 34.5188 168.063 35.0429V36.2343ZM167.516 34.9648C167.516 34.151 167.407 33.5374 167.189 33.124C166.974 32.7106 166.649 32.5038 166.212 32.5038C165.783 32.5038 165.457 32.7106 165.236 33.124C165.018 33.5374 164.909 34.151 164.909 34.9648V36.3027C164.909 36.7031 164.936 37.0579 164.992 37.3671C165.05 37.6764 165.133 37.9368 165.241 38.1484C165.351 38.36 165.488 38.5211 165.651 38.6318C165.817 38.7425 166.007 38.7978 166.222 38.7978C166.44 38.7978 166.629 38.7425 166.789 38.6318C166.951 38.5211 167.086 38.36 167.194 38.1484C167.301 37.9368 167.381 37.6764 167.433 37.3671C167.488 37.0579 167.516 36.7031 167.516 36.3027V34.9648ZM172.853 36.791H172.204V39.2031H171.657V33.9199H172.204V36.2587H172.843L174.445 33.9199H175.119L173.297 36.4736L175.309 39.2031H174.601L172.853 36.791ZM178.981 34.4326H176.779V39.2031H176.232V33.9199H178.981V34.4326ZM153.371 49.2031H152.829V46.7861H150.504V49.2031H149.958V43.9199H150.504V46.2831H152.829V43.9199H153.371V49.2031ZM157.653 49.2031C157.627 49.1152 157.606 49.0061 157.589 48.8759C157.573 48.7425 157.562 48.6074 157.555 48.4706C157.487 48.5813 157.405 48.6871 157.311 48.788C157.217 48.8857 157.108 48.9736 156.984 49.0517C156.863 49.1266 156.728 49.1868 156.579 49.2324C156.429 49.2779 156.268 49.3007 156.095 49.3007C155.877 49.3007 155.679 49.2698 155.5 49.2079C155.324 49.1461 155.172 49.0533 155.045 48.9296C154.918 48.8059 154.821 48.6513 154.752 48.4658C154.684 48.2802 154.65 48.0637 154.65 47.8163C154.65 47.5722 154.692 47.3476 154.777 47.1425C154.861 46.9342 154.987 46.7551 155.153 46.6054C155.322 46.4557 155.532 46.3385 155.783 46.2538C156.033 46.1692 156.325 46.1269 156.657 46.1269H157.55V45.3896C157.55 45.012 157.456 44.7418 157.267 44.579C157.082 44.413 156.808 44.33 156.447 44.33C156.278 44.33 156.121 44.3561 155.978 44.4081C155.838 44.4602 155.718 44.5335 155.617 44.6279C155.516 44.719 155.438 44.8297 155.382 44.9599C155.327 45.0869 155.299 45.2268 155.299 45.3798L154.757 45.3749C154.757 45.1699 154.798 44.9745 154.879 44.789C154.961 44.6002 155.076 44.4342 155.226 44.291C155.376 44.1477 155.556 44.0338 155.768 43.9492C155.98 43.8645 156.214 43.8222 156.471 43.8222C156.709 43.8222 156.925 43.8515 157.121 43.9101C157.319 43.9654 157.49 44.0566 157.633 44.1835C157.777 44.3072 157.887 44.47 157.965 44.6718C158.047 44.8704 158.087 45.1129 158.087 45.3994V48.0947C158.087 48.1858 158.091 48.2802 158.097 48.3779C158.104 48.4755 158.112 48.5716 158.122 48.666C158.135 48.7571 158.149 48.845 158.166 48.9296C158.185 49.011 158.206 49.0826 158.229 49.1445V49.2031H157.653ZM156.164 48.7783C156.333 48.7783 156.491 48.7555 156.637 48.7099C156.787 48.6611 156.92 48.596 157.038 48.5146C157.155 48.43 157.256 48.3323 157.34 48.2216C157.428 48.1109 157.498 47.9921 157.55 47.8652V46.581H156.735C156.224 46.581 155.84 46.6884 155.583 46.9033C155.325 47.1181 155.197 47.4078 155.197 47.7724C155.197 48.1207 155.281 48.3762 155.451 48.539C155.623 48.6985 155.861 48.7783 156.164 48.7783ZM165.451 42.4355L162.912 49.2031H162.345L164.87 42.6015H161.505V42.0937H165.451V42.4355ZM167.277 48.9638C167.277 49.1103 167.261 49.2568 167.228 49.4033C167.199 49.5497 167.155 49.6897 167.096 49.8232C167.038 49.9599 166.966 50.0885 166.881 50.2089C166.797 50.3294 166.701 50.4384 166.593 50.5361L166.247 50.2773C166.396 50.0755 166.51 49.872 166.588 49.6669C166.667 49.4619 166.706 49.2307 166.706 48.9736V48.2753H167.277V48.9638ZM172.228 42.4355L169.689 49.2031H169.123L171.647 42.6015H168.283V42.0937H172.228V42.4355ZM175.929 48.3974L177.648 43.9199H178.317V49.2031H177.775V44.9599L176.12 49.2031H175.739L174.049 44.8525V49.2031H173.512V43.9199H174.22L175.929 48.3974Z" fill="black"/>
<path d="M210.004 39.2031H209.457V32.8115L207.85 33.5292V32.9726L209.911 32.0693H210.004V39.2031ZM216.312 39.2031H212.543V38.7441L214.496 36.1074C214.678 35.86 214.831 35.637 214.955 35.4384C215.082 35.2398 215.183 35.0559 215.258 34.8867C215.336 34.7141 215.391 34.553 215.424 34.4033C215.456 34.2535 215.472 34.1054 215.472 33.9589C215.472 33.7473 215.446 33.552 215.394 33.373C215.342 33.1939 215.266 33.041 215.165 32.914C215.064 32.7838 214.937 32.6829 214.784 32.6113C214.634 32.5397 214.462 32.5038 214.266 32.5038C214.061 32.5038 213.877 32.5445 213.715 32.6259C213.552 32.7073 213.413 32.8212 213.3 32.9677C213.189 33.1142 213.103 33.2884 213.041 33.4902C212.982 33.6887 212.953 33.9068 212.953 34.1445H212.411C212.411 33.8515 212.453 33.5748 212.538 33.3144C212.622 33.054 212.743 32.8261 212.899 32.6308C213.059 32.4355 213.252 32.2809 213.48 32.1669C213.711 32.053 213.973 31.996 214.266 31.996C214.537 31.996 214.781 32.04 214.999 32.1279C215.217 32.2158 215.401 32.3411 215.551 32.5038C215.704 32.6666 215.821 32.8668 215.902 33.1044C215.983 33.3421 216.024 33.609 216.024 33.9052C216.024 34.1201 215.992 34.3365 215.927 34.5546C215.861 34.7695 215.775 34.9843 215.668 35.1992C215.56 35.414 215.435 35.6272 215.292 35.8388C215.152 36.0504 215.007 36.2587 214.857 36.4638L213.202 38.7001H216.312V39.2031ZM217.738 35.5605L218.031 32.0937H221.034V32.6503H218.495L218.295 35.0331C218.347 34.9908 218.41 34.9469 218.485 34.9013C218.56 34.8525 218.645 34.8102 218.739 34.7744C218.833 34.7353 218.934 34.7044 219.042 34.6816C219.152 34.6555 219.27 34.6425 219.393 34.6425C219.66 34.6425 219.903 34.6962 220.121 34.8036C220.339 34.9078 220.524 35.0592 220.677 35.2578C220.83 35.4563 220.949 35.6972 221.034 35.9804C221.119 36.2636 221.161 36.5826 221.161 36.9374C221.161 37.2792 221.125 37.595 221.053 37.8847C220.982 38.1712 220.873 38.4202 220.726 38.6318C220.58 38.8401 220.393 39.0045 220.165 39.1249C219.94 39.2421 219.672 39.3007 219.359 39.3007C219.118 39.3007 218.892 39.2617 218.68 39.1835C218.472 39.1022 218.287 38.9801 218.124 38.8173C217.961 38.6546 217.828 38.4495 217.723 38.2021C217.619 37.9547 217.556 37.665 217.533 37.3329H218.051C218.096 37.8115 218.231 38.176 218.456 38.4267C218.68 38.6741 218.982 38.7978 219.359 38.7978C219.773 38.7978 220.085 38.6367 220.297 38.3144C220.511 37.9921 220.619 37.5364 220.619 36.9472C220.619 36.6998 220.59 36.4687 220.531 36.2538C220.472 36.039 220.386 35.8535 220.272 35.6972C220.162 35.5377 220.023 35.414 219.857 35.3261C219.694 35.235 219.506 35.1894 219.291 35.1894C219.148 35.1894 219.022 35.2024 218.915 35.2285C218.807 35.2512 218.71 35.2854 218.622 35.331C218.537 35.3733 218.457 35.4254 218.383 35.4872C218.311 35.5491 218.239 35.6191 218.168 35.6972L217.738 35.5605ZM225.897 36.2343C225.897 36.7584 225.855 37.2141 225.77 37.6015C225.689 37.9856 225.568 38.3046 225.409 38.5585C225.253 38.8092 225.061 38.9964 224.833 39.1201C224.605 39.2405 224.346 39.3007 224.056 39.3007C223.77 39.3007 223.513 39.2405 223.285 39.1201C223.057 38.9964 222.863 38.8092 222.704 38.5585C222.544 38.3046 222.421 37.9856 222.333 37.6015C222.248 37.2141 222.206 36.7584 222.206 36.2343V35.0429C222.206 34.5188 222.248 34.0663 222.333 33.6855C222.417 33.3014 222.538 32.984 222.694 32.7333C222.854 32.4827 223.047 32.2971 223.275 32.1767C223.503 32.0563 223.76 31.996 224.047 31.996C224.333 31.996 224.59 32.0563 224.818 32.1767C225.049 32.2971 225.245 32.4827 225.404 32.7333C225.564 32.984 225.686 33.3014 225.77 33.6855C225.855 34.0663 225.897 34.5188 225.897 35.0429V36.2343ZM225.35 34.9648C225.35 34.151 225.241 33.5374 225.023 33.124C224.808 32.7106 224.483 32.5038 224.047 32.5038C223.617 32.5038 223.291 32.7106 223.07 33.124C222.852 33.5374 222.743 34.151 222.743 34.9648V36.3027C222.743 36.7031 222.771 37.0579 222.826 37.3671C222.885 37.6764 222.968 37.9368 223.075 38.1484C223.186 38.36 223.322 38.5211 223.485 38.6318C223.651 38.7425 223.842 38.7978 224.056 38.7978C224.274 38.7978 224.463 38.7425 224.623 38.6318C224.786 38.5211 224.921 38.36 225.028 38.1484C225.135 37.9368 225.215 37.6764 225.267 37.3671C225.323 37.0579 225.35 36.7031 225.35 36.3027V34.9648ZM230.687 36.791H230.038V39.2031H229.491V33.9199H230.038V36.2587H230.677L232.279 33.9199H232.953L231.132 36.4736L233.143 39.2031H232.435L230.687 36.791ZM236.815 34.4326H234.613V39.2031H234.066V33.9199H236.815V34.4326ZM211.205 49.2031H210.663V46.7861H208.339V49.2031H207.792V43.9199H208.339V46.2831H210.663V43.9199H211.205V49.2031ZM215.487 49.2031C215.461 49.1152 215.44 49.0061 215.424 48.8759C215.407 48.7425 215.396 48.6074 215.389 48.4706C215.321 48.5813 215.24 48.6871 215.145 48.788C215.051 48.8857 214.942 48.9736 214.818 49.0517C214.698 49.1266 214.563 49.1868 214.413 49.2324C214.263 49.2779 214.102 49.3007 213.929 49.3007C213.711 49.3007 213.513 49.2698 213.334 49.2079C213.158 49.1461 213.007 49.0533 212.88 48.9296C212.753 48.8059 212.655 48.6513 212.587 48.4658C212.518 48.2802 212.484 48.0637 212.484 47.8163C212.484 47.5722 212.526 47.3476 212.611 47.1425C212.696 46.9342 212.821 46.7551 212.987 46.6054C213.156 46.4557 213.366 46.3385 213.617 46.2538C213.868 46.1692 214.159 46.1269 214.491 46.1269H215.385V45.3896C215.385 45.012 215.29 44.7418 215.101 44.579C214.916 44.413 214.642 44.33 214.281 44.33C214.112 44.33 213.955 44.3561 213.812 44.4081C213.672 44.4602 213.552 44.5335 213.451 44.6279C213.35 44.719 213.272 44.8297 213.217 44.9599C213.161 45.0869 213.134 45.2268 213.134 45.3798L212.592 45.3749C212.592 45.1699 212.632 44.9745 212.714 44.789C212.795 44.6002 212.911 44.4342 213.06 44.291C213.21 44.1477 213.391 44.0338 213.602 43.9492C213.814 43.8645 214.048 43.8222 214.305 43.8222C214.543 43.8222 214.76 43.8515 214.955 43.9101C215.153 43.9654 215.324 44.0566 215.468 44.1835C215.611 44.3072 215.721 44.47 215.8 44.6718C215.881 44.8704 215.922 45.1129 215.922 45.3994V48.0947C215.922 48.1858 215.925 48.2802 215.931 48.3779C215.938 48.4755 215.946 48.5716 215.956 48.666C215.969 48.7571 215.983 48.845 216 48.9296C216.019 49.011 216.04 49.0826 216.063 49.1445V49.2031H215.487ZM213.998 48.7783C214.167 48.7783 214.325 48.7555 214.471 48.7099C214.621 48.6611 214.755 48.596 214.872 48.5146C214.989 48.43 215.09 48.3323 215.175 48.2216C215.262 48.1109 215.332 47.9921 215.385 47.8652V46.581H214.569C214.058 46.581 213.674 46.6884 213.417 46.9033C213.16 47.1181 213.031 47.4078 213.031 47.7724C213.031 48.1207 213.116 48.3762 213.285 48.539C213.457 48.6985 213.695 48.7783 213.998 48.7783ZM221.898 49.2031H221.351V42.8115L219.745 43.5292V42.9726L221.805 42.0693H221.898V49.2031ZM228.065 46.2343C228.065 46.7584 228.023 47.2141 227.938 47.6015C227.857 47.9856 227.736 48.3046 227.577 48.5585C227.421 48.8092 227.229 48.9964 227.001 49.1201C226.773 49.2405 226.514 49.3007 226.224 49.3007C225.938 49.3007 225.681 49.2405 225.453 49.1201C225.225 48.9964 225.031 48.8092 224.872 48.5585C224.712 48.3046 224.589 47.9856 224.501 47.6015C224.416 47.2141 224.374 46.7584 224.374 46.2343V45.0429C224.374 44.5188 224.416 44.0663 224.501 43.6855C224.585 43.3014 224.706 42.984 224.862 42.7333C225.022 42.4827 225.215 42.2971 225.443 42.1767C225.671 42.0563 225.928 41.996 226.215 41.996C226.501 41.996 226.758 42.0563 226.986 42.1767C227.217 42.2971 227.413 42.4827 227.572 42.7333C227.732 42.984 227.854 43.3014 227.938 43.6855C228.023 44.0663 228.065 44.5188 228.065 45.0429V46.2343ZM227.518 44.9648C227.518 44.151 227.409 43.5374 227.191 43.124C226.976 42.7106 226.651 42.5038 226.215 42.5038C225.785 42.5038 225.459 42.7106 225.238 43.124C225.02 43.5374 224.911 44.151 224.911 44.9648V46.3027C224.911 46.7031 224.939 47.0579 224.994 47.3671C225.052 47.6764 225.135 47.9368 225.243 48.1484C225.354 48.36 225.49 48.5211 225.653 48.6318C225.819 48.7425 226.01 48.7978 226.224 48.7978C226.442 48.7978 226.631 48.7425 226.791 48.6318C226.954 48.5211 227.089 48.36 227.196 48.1484C227.303 47.9368 227.383 47.6764 227.435 47.3671C227.491 47.0579 227.518 46.7031 227.518 46.3027V44.9648ZM229.974 48.9638C229.974 49.1103 229.958 49.2568 229.926 49.4033C229.896 49.5497 229.852 49.6897 229.794 49.8232C229.735 49.9599 229.663 50.0885 229.579 50.2089C229.494 50.3294 229.398 50.4384 229.291 50.5361L228.944 50.2773C229.094 50.0755 229.208 49.872 229.286 49.6669C229.364 49.4619 229.403 49.2307 229.403 48.9736V48.2753H229.974V48.9638ZM234.926 42.4355L232.386 49.2031H231.82L234.344 42.6015H230.98V42.0937H234.926V42.4355ZM238.627 48.3974L240.345 43.9199H241.014V49.2031H240.472V44.9599L238.817 49.2031H238.436L236.747 44.8525V49.2031H236.21V43.9199H236.918L238.627 48.3974Z" fill="black"/>
<path d="M272.604 33.9247C272.604 34.1103 272.579 34.2877 272.53 34.457C272.485 34.623 272.42 34.776 272.335 34.916C272.25 35.0527 272.148 35.1764 272.027 35.287C271.91 35.3945 271.778 35.484 271.632 35.5556C271.801 35.6272 271.954 35.72 272.091 35.8339C272.231 35.9479 272.35 36.0813 272.447 36.2343C272.548 36.3841 272.625 36.5501 272.677 36.7324C272.732 36.9147 272.76 37.11 272.76 37.3183C272.76 37.6406 272.709 37.9254 272.608 38.1728C272.511 38.4202 272.376 38.6285 272.203 38.7978C272.034 38.9638 271.834 39.0891 271.603 39.1738C271.371 39.2584 271.124 39.3007 270.86 39.3007C270.59 39.3007 270.34 39.2584 270.108 39.1738C269.877 39.0891 269.675 38.9638 269.503 38.7978C269.334 38.6285 269.2 38.4202 269.103 38.1728C269.005 37.9254 268.956 37.6406 268.956 37.3183C268.956 37.11 268.982 36.9147 269.034 36.7324C269.086 36.5501 269.161 36.3841 269.259 36.2343C269.356 36.0813 269.474 35.9479 269.61 35.8339C269.747 35.72 269.898 35.6272 270.064 35.5556C269.918 35.484 269.785 35.3945 269.664 35.287C269.547 35.1764 269.446 35.0527 269.361 34.916C269.28 34.776 269.216 34.623 269.171 34.457C269.125 34.2877 269.103 34.1103 269.103 33.9247C269.103 33.6155 269.146 33.3421 269.234 33.1044C269.322 32.8635 269.444 32.6617 269.601 32.499C269.757 32.3329 269.941 32.2076 270.152 32.123C270.367 32.0384 270.6 31.996 270.851 31.996C271.098 31.996 271.329 32.0384 271.544 32.123C271.759 32.2076 271.944 32.3329 272.101 32.499C272.257 32.6617 272.379 32.8635 272.467 33.1044C272.558 33.3421 272.604 33.6155 272.604 33.9247ZM272.213 37.3183C272.213 37.0937 272.179 36.8886 272.11 36.7031C272.042 36.5175 271.946 36.3596 271.822 36.2294C271.702 36.096 271.559 35.9934 271.393 35.9218C271.227 35.8469 271.046 35.8095 270.851 35.8095C270.652 35.8095 270.47 35.8469 270.304 35.9218C270.138 35.9934 269.994 36.096 269.874 36.2294C269.754 36.3596 269.659 36.5175 269.591 36.7031C269.526 36.8886 269.493 37.0937 269.493 37.3183C269.493 37.5527 269.526 37.7626 269.591 37.9482C269.659 38.1305 269.754 38.2851 269.874 38.412C269.994 38.539 270.138 38.635 270.304 38.7001C270.473 38.7652 270.659 38.7978 270.86 38.7978C271.059 38.7978 271.24 38.7652 271.402 38.7001C271.568 38.635 271.712 38.539 271.832 38.412C271.952 38.2851 272.045 38.1305 272.11 37.9482C272.179 37.7626 272.213 37.5527 272.213 37.3183ZM272.062 33.9199C272.062 33.7148 272.031 33.526 271.969 33.3535C271.907 33.1777 271.822 33.0279 271.715 32.9042C271.607 32.7773 271.479 32.6796 271.329 32.6113C271.183 32.5397 271.023 32.5038 270.851 32.5038C270.675 32.5038 270.514 32.5364 270.367 32.6015C270.221 32.6666 270.094 32.761 269.986 32.8847C269.882 33.0051 269.799 33.1533 269.737 33.329C269.679 33.5048 269.649 33.7018 269.649 33.9199C269.649 34.1314 269.679 34.3235 269.737 34.496C269.796 34.6653 269.879 34.8102 269.986 34.9306C270.094 35.0478 270.221 35.1389 270.367 35.204C270.517 35.2691 270.68 35.3017 270.855 35.3017C271.028 35.3017 271.188 35.2691 271.334 35.204C271.484 35.1389 271.612 35.0478 271.72 34.9306C271.827 34.8102 271.91 34.6653 271.969 34.496C272.031 34.3235 272.062 34.1314 272.062 33.9199ZM274.264 35.5605L274.557 32.0937H277.56V32.6503H275.021L274.82 35.0331C274.872 34.9908 274.936 34.9469 275.011 34.9013C275.086 34.8525 275.17 34.8102 275.265 34.7744C275.359 34.7353 275.46 34.7044 275.567 34.6816C275.678 34.6555 275.795 34.6425 275.919 34.6425C276.186 34.6425 276.428 34.6962 276.646 34.8036C276.865 34.9078 277.05 35.0592 277.203 35.2578C277.356 35.4563 277.475 35.6972 277.56 35.9804C277.644 36.2636 277.687 36.5826 277.687 36.9374C277.687 37.2792 277.651 37.595 277.579 37.8847C277.507 38.1712 277.398 38.4202 277.252 38.6318C277.105 38.8401 276.918 39.0045 276.69 39.1249C276.466 39.2421 276.197 39.3007 275.885 39.3007C275.644 39.3007 275.418 39.2617 275.206 39.1835C274.998 39.1022 274.812 38.9801 274.649 38.8173C274.487 38.6546 274.353 38.4495 274.249 38.2021C274.145 37.9547 274.081 37.665 274.059 37.3329H274.576C274.622 37.8115 274.757 38.176 274.981 38.4267C275.206 38.6741 275.507 38.7978 275.885 38.7978C276.298 38.7978 276.611 38.6367 276.822 38.3144C277.037 37.9921 277.145 37.5364 277.145 36.9472C277.145 36.6998 277.115 36.4687 277.057 36.2538C276.998 36.039 276.912 35.8535 276.798 35.6972C276.687 35.5377 276.549 35.414 276.383 35.3261C276.22 35.235 276.031 35.1894 275.816 35.1894C275.673 35.1894 275.548 35.2024 275.44 35.2285C275.333 35.2512 275.235 35.2854 275.147 35.331C275.063 35.3733 274.983 35.4254 274.908 35.4872C274.837 35.5491 274.765 35.6191 274.693 35.6972L274.264 35.5605ZM282.423 36.2343C282.423 36.7584 282.381 37.2141 282.296 37.6015C282.215 37.9856 282.094 38.3046 281.935 38.5585C281.778 38.8092 281.586 38.9964 281.358 39.1201C281.131 39.2405 280.872 39.3007 280.582 39.3007C280.296 39.3007 280.038 39.2405 279.811 39.1201C279.583 38.9964 279.389 38.8092 279.229 38.5585C279.07 38.3046 278.946 37.9856 278.858 37.6015C278.774 37.2141 278.731 36.7584 278.731 36.2343V35.0429C278.731 34.5188 278.774 34.0663 278.858 33.6855C278.943 33.3014 279.063 32.984 279.22 32.7333C279.379 32.4827 279.573 32.2971 279.801 32.1767C280.029 32.0563 280.286 31.996 280.572 31.996C280.859 31.996 281.116 32.0563 281.344 32.1767C281.575 32.2971 281.77 32.4827 281.93 32.7333C282.089 32.984 282.211 33.3014 282.296 33.6855C282.381 34.0663 282.423 34.5188 282.423 35.0429V36.2343ZM281.876 34.9648C281.876 34.151 281.767 33.5374 281.549 33.124C281.334 32.7106 281.008 32.5038 280.572 32.5038C280.143 32.5038 279.817 32.7106 279.596 33.124C279.378 33.5374 279.269 34.151 279.269 34.9648V36.3027C279.269 36.7031 279.296 37.0579 279.352 37.3671C279.41 37.6764 279.493 37.9368 279.601 38.1484C279.711 38.36 279.848 38.5211 280.011 38.6318C280.177 38.7425 280.367 38.7978 280.582 38.7978C280.8 38.7978 280.989 38.7425 281.148 38.6318C281.311 38.5211 281.446 38.36 281.554 38.1484C281.661 37.9368 281.741 37.6764 281.793 37.3671C281.848 37.0579 281.876 36.7031 281.876 36.3027V34.9648ZM287.213 36.791H286.563V39.2031H286.017V33.9199H286.563V36.2587H287.203L288.805 33.9199H289.479L287.657 36.4736L289.669 39.2031H288.961L287.213 36.791ZM293.341 34.4326H291.139V39.2031H290.592V33.9199H293.341V34.4326ZM272.594 49.2031H272.052V46.7861H269.728V49.2031H269.181V43.9199H269.728V46.2831H272.052V43.9199H272.594V49.2031ZM276.876 49.2031C276.85 49.1152 276.829 49.0061 276.812 48.8759C276.796 48.7425 276.785 48.6074 276.778 48.4706C276.71 48.5813 276.629 48.6871 276.534 48.788C276.44 48.8857 276.331 48.9736 276.207 49.0517C276.087 49.1266 275.951 49.1868 275.802 49.2324C275.652 49.2779 275.491 49.3007 275.318 49.3007C275.1 49.3007 274.902 49.2698 274.723 49.2079C274.547 49.1461 274.396 49.0533 274.269 48.9296C274.142 48.8059 274.044 48.6513 273.976 48.4658C273.907 48.2802 273.873 48.0637 273.873 47.8163C273.873 47.5722 273.915 47.3476 274 47.1425C274.085 46.9342 274.21 46.7551 274.376 46.6054C274.545 46.4557 274.755 46.3385 275.006 46.2538C275.257 46.1692 275.548 46.1269 275.88 46.1269H276.773V45.3896C276.773 45.012 276.679 44.7418 276.49 44.579C276.305 44.413 276.031 44.33 275.67 44.33C275.501 44.33 275.344 44.3561 275.201 44.4081C275.061 44.4602 274.941 44.5335 274.84 44.6279C274.739 44.719 274.661 44.8297 274.605 44.9599C274.55 45.0869 274.522 45.2268 274.522 45.3798L273.98 45.3749C273.98 45.1699 274.021 44.9745 274.103 44.789C274.184 44.6002 274.299 44.4342 274.449 44.291C274.599 44.1477 274.78 44.0338 274.991 43.9492C275.203 43.8645 275.437 43.8222 275.694 43.8222C275.932 43.8222 276.148 43.8515 276.344 43.9101C276.542 43.9654 276.713 44.0566 276.856 44.1835C277 44.3072 277.11 44.47 277.188 44.6718C277.27 44.8704 277.311 45.1129 277.311 45.3994V48.0947C277.311 48.1858 277.314 48.2802 277.32 48.3779C277.327 48.4755 277.335 48.5716 277.345 48.666C277.358 48.7571 277.372 48.845 277.389 48.9296C277.408 49.011 277.429 49.0826 277.452 49.1445V49.2031H276.876ZM275.387 48.7783C275.556 48.7783 275.714 48.7555 275.86 48.7099C276.01 48.6611 276.144 48.596 276.261 48.5146C276.378 48.43 276.479 48.3323 276.563 48.2216C276.651 48.1109 276.721 47.9921 276.773 47.8652V46.581H275.958C275.447 46.581 275.063 46.6884 274.806 46.9033C274.549 47.1181 274.42 47.4078 274.42 47.7724C274.42 48.1207 274.505 48.3762 274.674 48.539C274.846 48.6985 275.084 48.7783 275.387 48.7783ZM283.287 49.2031H282.74V42.8115L281.134 43.5292V42.9726L283.194 42.0693H283.287V49.2031ZM286.915 45.3261H287.428C287.652 45.3261 287.848 45.2903 288.014 45.2187C288.183 45.1438 288.325 45.0445 288.438 44.9208C288.552 44.7971 288.637 44.6523 288.692 44.4863C288.751 44.317 288.78 44.138 288.78 43.9492C288.78 43.7343 288.756 43.539 288.707 43.3632C288.658 43.1842 288.583 43.0312 288.482 42.9042C288.382 42.7773 288.255 42.6796 288.102 42.6113C287.952 42.5397 287.773 42.5038 287.564 42.5038C287.382 42.5038 287.213 42.538 287.057 42.6064C286.904 42.6715 286.77 42.7675 286.656 42.8945C286.546 43.0214 286.458 43.1744 286.393 43.3535C286.331 43.5325 286.3 43.7343 286.3 43.9589H285.758C285.758 43.6725 285.802 43.4088 285.89 43.1679C285.981 42.927 286.106 42.7203 286.266 42.5478C286.428 42.3753 286.62 42.2402 286.842 42.1425C287.063 42.0449 287.304 41.996 287.564 41.996C287.828 41.996 288.067 42.04 288.282 42.1279C288.5 42.2158 288.686 42.3443 288.839 42.5136C288.995 42.6796 289.114 42.8847 289.195 43.1288C289.28 43.373 289.322 43.6529 289.322 43.9687C289.322 44.1282 289.301 44.2877 289.259 44.4472C289.216 44.6035 289.153 44.7516 289.068 44.8915C288.984 45.0315 288.878 45.1601 288.751 45.2773C288.624 45.3912 288.476 45.4856 288.307 45.5605C288.505 45.6256 288.674 45.7151 288.814 45.829C288.958 45.943 289.075 46.0748 289.166 46.2245C289.257 46.371 289.324 46.5338 289.366 46.7128C289.409 46.8886 289.43 47.0742 289.43 47.2695C289.43 47.5917 289.382 47.8798 289.288 48.1337C289.197 48.3844 289.068 48.5976 288.902 48.7734C288.736 48.9459 288.539 49.0777 288.312 49.1689C288.087 49.2568 287.843 49.3007 287.579 49.3007C287.335 49.3007 287.097 49.2584 286.866 49.1738C286.638 49.0891 286.435 48.9638 286.256 48.7978C286.08 48.6285 285.938 48.4186 285.831 48.1679C285.727 47.914 285.675 47.6178 285.675 47.2792H286.217C286.217 47.5038 286.249 47.7089 286.314 47.8945C286.383 48.08 286.476 48.2395 286.593 48.373C286.713 48.5064 286.856 48.6106 287.022 48.6855C287.192 48.7604 287.377 48.7978 287.579 48.7978C287.993 48.7978 288.313 48.6692 288.541 48.412C288.772 48.1516 288.888 47.7773 288.888 47.289C288.888 47.0351 288.852 46.817 288.78 46.6347C288.712 46.4492 288.613 46.2978 288.482 46.1806C288.355 46.0602 288.202 45.9723 288.023 45.9169C287.844 45.8616 287.646 45.8339 287.428 45.8339H286.915V45.3261ZM291.363 48.9638C291.363 49.1103 291.347 49.2568 291.314 49.4033C291.285 49.5497 291.241 49.6897 291.183 49.8232C291.124 49.9599 291.052 50.0885 290.968 50.2089C290.883 50.3294 290.787 50.4384 290.68 50.5361L290.333 50.2773C290.483 50.0755 290.597 49.872 290.675 49.6669C290.753 49.4619 290.792 49.2307 290.792 48.9736V48.2753H291.363V48.9638ZM296.314 42.4355L293.775 49.2031H293.209L295.733 42.6015H292.369V42.0937H296.314V42.4355ZM300.016 48.3974L301.734 43.9199H302.403V49.2031H301.861V44.9599L300.206 49.2031H299.825L298.136 44.8525V49.2031H297.599V43.9199H298.307L300.016 48.3974Z" fill="black"/>
<path d="M338.995 32.0449V32.5673H338.922C338.564 32.5673 338.246 32.6324 337.97 32.7626C337.693 32.8896 337.459 33.0751 337.266 33.3193C337.074 33.5602 336.923 33.8531 336.812 34.1982C336.705 34.5432 336.64 34.9306 336.617 35.3603C336.783 35.0966 336.99 34.8932 337.237 34.7499C337.485 34.6067 337.76 34.5351 338.062 34.5351C338.349 34.5351 338.599 34.5986 338.814 34.7255C339.032 34.8525 339.211 35.0234 339.351 35.2382C339.495 35.4498 339.602 35.6972 339.674 35.9804C339.745 36.2636 339.781 36.5615 339.781 36.874C339.781 37.2158 339.74 37.5348 339.659 37.831C339.578 38.1272 339.46 38.3844 339.307 38.6025C339.155 38.8173 338.967 38.9882 338.746 39.1152C338.528 39.2389 338.279 39.3007 337.999 39.3007C337.693 39.3007 337.419 39.2324 337.179 39.0956C336.941 38.9557 336.739 38.7669 336.573 38.5292C336.407 38.2916 336.28 38.0149 336.192 37.6992C336.108 37.3834 336.065 37.0465 336.065 36.6884V36.0683C336.065 35.4661 336.119 34.9176 336.226 34.4228C336.337 33.928 336.508 33.5048 336.739 33.1533C336.974 32.8017 337.27 32.5299 337.628 32.3378C337.989 32.1425 338.42 32.0449 338.922 32.0449H338.995ZM337.974 35.0478C337.818 35.0478 337.667 35.0771 337.52 35.1357C337.374 35.1943 337.239 35.2757 337.115 35.3798C336.995 35.484 336.891 35.6077 336.803 35.7509C336.715 35.8909 336.65 36.0439 336.607 36.2099V36.6982C336.607 37.027 336.643 37.3216 336.715 37.582C336.79 37.8391 336.889 38.0572 337.013 38.2363C337.14 38.4153 337.288 38.5536 337.457 38.6513C337.626 38.7457 337.807 38.7929 337.999 38.7929C338.194 38.7929 338.368 38.7441 338.521 38.6464C338.678 38.5455 338.809 38.4104 338.917 38.2411C339.024 38.0686 339.106 37.8668 339.161 37.6357C339.22 37.4046 339.249 37.1588 339.249 36.8984C339.249 36.651 339.223 36.415 339.171 36.1904C339.119 35.9658 339.039 35.7688 338.932 35.5995C338.827 35.4303 338.696 35.2968 338.536 35.1992C338.377 35.0982 338.189 35.0478 337.974 35.0478ZM344.576 36.2343C344.576 36.7584 344.534 37.2141 344.449 37.6015C344.368 37.9856 344.247 38.3046 344.088 38.5585C343.932 38.8092 343.739 38.9964 343.512 39.1201C343.284 39.2405 343.025 39.3007 342.735 39.3007C342.449 39.3007 342.192 39.2405 341.964 39.1201C341.736 38.9964 341.542 38.8092 341.383 38.5585C341.223 38.3046 341.099 37.9856 341.012 37.6015C340.927 37.2141 340.885 36.7584 340.885 36.2343V35.0429C340.885 34.5188 340.927 34.0663 341.012 33.6855C341.096 33.3014 341.217 32.984 341.373 32.7333C341.532 32.4827 341.726 32.2971 341.954 32.1767C342.182 32.0563 342.439 31.996 342.725 31.996C343.012 31.996 343.269 32.0563 343.497 32.1767C343.728 32.2971 343.923 32.4827 344.083 32.7333C344.242 32.984 344.364 33.3014 344.449 33.6855C344.534 34.0663 344.576 34.5188 344.576 35.0429V36.2343ZM344.029 34.9648C344.029 34.151 343.92 33.5374 343.702 33.124C343.487 32.7106 343.162 32.5038 342.725 32.5038C342.296 32.5038 341.97 32.7106 341.749 33.124C341.531 33.5374 341.422 34.151 341.422 34.9648V36.3027C341.422 36.7031 341.449 37.0579 341.505 37.3671C341.563 37.6764 341.646 37.9368 341.754 38.1484C341.864 38.36 342.001 38.5211 342.164 38.6318C342.33 38.7425 342.52 38.7978 342.735 38.7978C342.953 38.7978 343.142 38.7425 343.302 38.6318C343.464 38.5211 343.599 38.36 343.707 38.1484C343.814 37.9368 343.894 37.6764 343.946 37.3671C344.002 37.0579 344.029 36.7031 344.029 36.3027V34.9648ZM349.439 36.2343C349.439 36.7584 349.397 37.2141 349.312 37.6015C349.231 37.9856 349.111 38.3046 348.951 38.5585C348.795 38.8092 348.603 38.9964 348.375 39.1201C348.147 39.2405 347.888 39.3007 347.599 39.3007C347.312 39.3007 347.055 39.2405 346.827 39.1201C346.599 38.9964 346.405 38.8092 346.246 38.5585C346.086 38.3046 345.963 37.9856 345.875 37.6015C345.79 37.2141 345.748 36.7584 345.748 36.2343V35.0429C345.748 34.5188 345.79 34.0663 345.875 33.6855C345.96 33.3014 346.08 32.984 346.236 32.7333C346.396 32.4827 346.589 32.2971 346.817 32.1767C347.045 32.0563 347.302 31.996 347.589 31.996C347.875 31.996 348.132 32.0563 348.36 32.1767C348.591 32.2971 348.787 32.4827 348.946 32.7333C349.106 32.984 349.228 33.3014 349.312 33.6855C349.397 34.0663 349.439 34.5188 349.439 35.0429V36.2343ZM348.892 34.9648C348.892 34.151 348.783 33.5374 348.565 33.124C348.35 32.7106 348.025 32.5038 347.589 32.5038C347.159 32.5038 346.834 32.7106 346.612 33.124C346.394 33.5374 346.285 34.151 346.285 34.9648V36.3027C346.285 36.7031 346.313 37.0579 346.368 37.3671C346.427 37.6764 346.51 37.9368 346.617 38.1484C346.728 38.36 346.864 38.5211 347.027 38.6318C347.193 38.7425 347.384 38.7978 347.599 38.7978C347.817 38.7978 348.005 38.7425 348.165 38.6318C348.328 38.5211 348.463 38.36 348.57 38.1484C348.678 37.9368 348.757 37.6764 348.809 37.3671C348.865 37.0579 348.892 36.7031 348.892 36.3027V34.9648ZM354.229 36.791H353.58V39.2031H353.033V33.9199H353.58V36.2587H354.22L355.821 33.9199H356.495L354.674 36.4736L356.685 39.2031H355.977L354.229 36.791ZM360.357 34.4326H358.155V39.2031H357.608V33.9199H360.357V34.4326ZM339.61 49.2031H339.068V46.7861H336.744V49.2031H336.197V43.9199H336.744V46.2831H339.068V43.9199H339.61V49.2031ZM343.892 49.2031C343.866 49.1152 343.845 49.0061 343.829 48.8759C343.813 48.7425 343.801 48.6074 343.795 48.4706C343.726 48.5813 343.645 48.6871 343.551 48.788C343.456 48.8857 343.347 48.9736 343.224 49.0517C343.103 49.1266 342.968 49.1868 342.818 49.2324C342.668 49.2779 342.507 49.3007 342.335 49.3007C342.117 49.3007 341.918 49.2698 341.739 49.2079C341.563 49.1461 341.412 49.0533 341.285 48.9296C341.158 48.8059 341.06 48.6513 340.992 48.4658C340.924 48.2802 340.89 48.0637 340.89 47.8163C340.89 47.5722 340.932 47.3476 341.016 47.1425C341.101 46.9342 341.226 46.7551 341.392 46.6054C341.562 46.4557 341.772 46.3385 342.022 46.2538C342.273 46.1692 342.564 46.1269 342.896 46.1269H343.79V45.3896C343.79 45.012 343.696 44.7418 343.507 44.579C343.321 44.413 343.048 44.33 342.686 44.33C342.517 44.33 342.361 44.3561 342.218 44.4081C342.078 44.4602 341.957 44.5335 341.856 44.6279C341.755 44.719 341.677 44.8297 341.622 44.9599C341.567 45.0869 341.539 45.2268 341.539 45.3798L340.997 45.3749C340.997 45.1699 341.038 44.9745 341.119 44.789C341.2 44.6002 341.316 44.4342 341.466 44.291C341.615 44.1477 341.796 44.0338 342.008 43.9492C342.219 43.8645 342.454 43.8222 342.711 43.8222C342.948 43.8222 343.165 43.8515 343.36 43.9101C343.559 43.9654 343.73 44.0566 343.873 44.1835C344.016 44.3072 344.127 44.47 344.205 44.6718C344.286 44.8704 344.327 45.1129 344.327 45.3994V48.0947C344.327 48.1858 344.33 48.2802 344.337 48.3779C344.343 48.4755 344.351 48.5716 344.361 48.666C344.374 48.7571 344.389 48.845 344.405 48.9296C344.425 49.011 344.446 49.0826 344.469 49.1445V49.2031H343.892ZM342.403 48.7783C342.572 48.7783 342.73 48.7555 342.877 48.7099C343.027 48.6611 343.16 48.596 343.277 48.5146C343.394 48.43 343.495 48.3323 343.58 48.2216C343.668 48.1109 343.738 47.9921 343.79 47.8652V46.581H342.974C342.463 46.581 342.079 46.6884 341.822 46.9033C341.565 47.1181 341.436 47.4078 341.436 47.7724C341.436 48.1207 341.521 48.3762 341.69 48.539C341.863 48.6985 342.1 48.7783 342.403 48.7783ZM350.304 49.2031H349.757V42.8115L348.15 43.5292V42.9726L350.211 42.0693H350.304V49.2031ZM355.753 42.0449V42.5673H355.68C355.321 42.5673 355.004 42.6324 354.727 42.7626C354.451 42.8896 354.216 43.0751 354.024 43.3193C353.832 43.5602 353.681 43.8531 353.57 44.1982C353.463 44.5432 353.398 44.9306 353.375 45.3603C353.541 45.0966 353.748 44.8932 353.995 44.7499C354.242 44.6067 354.517 44.5351 354.82 44.5351C355.107 44.5351 355.357 44.5986 355.572 44.7255C355.79 44.8525 355.969 45.0234 356.109 45.2382C356.252 45.4498 356.36 45.6972 356.432 45.9804C356.503 46.2636 356.539 46.5615 356.539 46.874C356.539 47.2158 356.498 47.5348 356.417 47.831C356.335 48.1272 356.218 48.3844 356.065 48.6025C355.912 48.8173 355.725 48.9882 355.504 49.1152C355.286 49.2389 355.037 49.3007 354.757 49.3007C354.451 49.3007 354.177 49.2324 353.936 49.0956C353.699 48.9557 353.497 48.7669 353.331 48.5292C353.165 48.2916 353.038 48.0149 352.95 47.6992C352.865 47.3834 352.823 47.0465 352.823 46.6884V46.0683C352.823 45.4661 352.877 44.9176 352.984 44.4228C353.095 43.928 353.266 43.5048 353.497 43.1533C353.731 42.8017 354.028 42.5299 354.386 42.3378C354.747 42.1425 355.178 42.0449 355.68 42.0449H355.753ZM354.732 45.0478C354.576 45.0478 354.425 45.0771 354.278 45.1357C354.132 45.1943 353.997 45.2757 353.873 45.3798C353.752 45.484 353.648 45.6077 353.56 45.7509C353.473 45.8909 353.407 46.0439 353.365 46.2099V46.6982C353.365 47.027 353.401 47.3216 353.473 47.582C353.547 47.8391 353.647 48.0572 353.77 48.2363C353.897 48.4153 354.045 48.5536 354.215 48.6513C354.384 48.7457 354.565 48.7929 354.757 48.7929C354.952 48.7929 355.126 48.7441 355.279 48.6464C355.435 48.5455 355.567 48.4104 355.675 48.2411C355.782 48.0686 355.863 47.8668 355.919 47.6357C355.977 47.4046 356.007 47.1588 356.007 46.8984C356.007 46.651 355.981 46.415 355.929 46.1904C355.877 45.9658 355.797 45.7688 355.689 45.5995C355.585 45.4303 355.453 45.2968 355.294 45.1992C355.134 45.0982 354.947 45.0478 354.732 45.0478ZM358.38 48.9638C358.38 49.1103 358.363 49.2568 358.331 49.4033C358.302 49.5497 358.258 49.6897 358.199 49.8232C358.141 49.9599 358.069 50.0885 357.984 50.2089C357.9 50.3294 357.804 50.4384 357.696 50.5361L357.349 50.2773C357.499 50.0755 357.613 49.872 357.691 49.6669C357.769 49.4619 357.808 49.2307 357.808 48.9736V48.2753H358.38V48.9638ZM363.155 43.9247C363.155 44.1103 363.131 44.2877 363.082 44.457C363.036 44.623 362.971 44.776 362.887 44.916C362.802 45.0527 362.699 45.1764 362.579 45.287C362.462 45.3945 362.33 45.484 362.183 45.5556C362.353 45.6272 362.506 45.72 362.642 45.8339C362.782 45.9479 362.901 46.0813 362.999 46.2343C363.1 46.3841 363.176 46.5501 363.228 46.7324C363.284 46.9147 363.311 47.11 363.311 47.3183C363.311 47.6406 363.261 47.9254 363.16 48.1728C363.062 48.4202 362.927 48.6285 362.755 48.7978C362.585 48.9638 362.385 49.0891 362.154 49.1738C361.923 49.2584 361.676 49.3007 361.412 49.3007C361.142 49.3007 360.891 49.2584 360.66 49.1738C360.429 49.0891 360.227 48.9638 360.055 48.7978C359.885 48.6285 359.752 48.4202 359.654 48.1728C359.557 47.9254 359.508 47.6406 359.508 47.3183C359.508 47.11 359.534 46.9147 359.586 46.7324C359.638 46.5501 359.713 46.3841 359.81 46.2343C359.908 46.0813 360.025 45.9479 360.162 45.8339C360.299 45.72 360.45 45.6272 360.616 45.5556C360.47 45.484 360.336 45.3945 360.216 45.287C360.099 45.1764 359.998 45.0527 359.913 44.916C359.832 44.776 359.768 44.623 359.723 44.457C359.677 44.2877 359.654 44.1103 359.654 43.9247C359.654 43.6155 359.698 43.3421 359.786 43.1044C359.874 42.8635 359.996 42.6617 360.152 42.499C360.308 42.3329 360.492 42.2076 360.704 42.123C360.919 42.0384 361.152 41.996 361.402 41.996C361.65 41.996 361.881 42.0384 362.096 42.123C362.31 42.2076 362.496 42.3329 362.652 42.499C362.808 42.6617 362.931 42.8635 363.018 43.1044C363.11 43.3421 363.155 43.6155 363.155 43.9247ZM362.765 47.3183C362.765 47.0937 362.73 46.8886 362.662 46.7031C362.594 46.5175 362.498 46.3596 362.374 46.2294C362.253 46.096 362.11 45.9934 361.944 45.9218C361.778 45.8469 361.598 45.8095 361.402 45.8095C361.204 45.8095 361.021 45.8469 360.855 45.9218C360.689 45.9934 360.546 46.096 360.426 46.2294C360.305 46.3596 360.211 46.5175 360.142 46.7031C360.077 46.8886 360.045 47.0937 360.045 47.3183C360.045 47.5527 360.077 47.7626 360.142 47.9482C360.211 48.1305 360.305 48.2851 360.426 48.412C360.546 48.539 360.689 48.635 360.855 48.7001C361.025 48.7652 361.21 48.7978 361.412 48.7978C361.611 48.7978 361.791 48.7652 361.954 48.7001C362.12 48.635 362.263 48.539 362.384 48.412C362.504 48.2851 362.597 48.1305 362.662 47.9482C362.73 47.7626 362.765 47.5527 362.765 47.3183ZM362.613 43.9199C362.613 43.7148 362.582 43.526 362.52 43.3535C362.459 43.1777 362.374 43.0279 362.266 42.9042C362.159 42.7773 362.03 42.6796 361.881 42.6113C361.734 42.5397 361.575 42.5038 361.402 42.5038C361.226 42.5038 361.065 42.5364 360.919 42.6015C360.772 42.6666 360.645 42.761 360.538 42.8847C360.434 43.0051 360.351 43.1533 360.289 43.329C360.23 43.5048 360.201 43.7018 360.201 43.9199C360.201 44.1314 360.23 44.3235 360.289 44.496C360.348 44.6653 360.431 44.8102 360.538 44.9306C360.645 45.0478 360.772 45.1389 360.919 45.204C361.069 45.2691 361.231 45.3017 361.407 45.3017C361.58 45.3017 361.739 45.2691 361.886 45.204C362.035 45.1389 362.164 45.0478 362.271 44.9306C362.379 44.8102 362.462 44.6653 362.52 44.496C362.582 44.3235 362.613 44.1314 362.613 43.9199ZM367.032 48.3974L368.751 43.9199H369.42V49.2031H368.878V44.9599L367.223 49.2031H366.842L365.152 44.8525V49.2031H364.615V43.9199H365.323L367.032 48.3974Z" fill="black"/>
<path d="M423.168 36.9081H424.081V37.416H423.168V39.2031H422.626V37.416H419.833V37.0693L422.582 32.0937H423.168V36.9081ZM420.482 36.9081H422.626V32.914L422.43 33.3095L420.482 36.9081ZM428.612 36.2343C428.612 36.7584 428.57 37.2141 428.485 37.6015C428.404 37.9856 428.283 38.3046 428.124 38.5585C427.968 38.8092 427.775 38.9964 427.548 39.1201C427.32 39.2405 427.061 39.3007 426.771 39.3007C426.485 39.3007 426.228 39.2405 426 39.1201C425.772 38.9964 425.578 38.8092 425.419 38.5585C425.259 38.3046 425.135 37.9856 425.048 37.6015C424.963 37.2141 424.921 36.7584 424.921 36.2343V35.0429C424.921 34.5188 424.963 34.0663 425.048 33.6855C425.132 33.3014 425.253 32.984 425.409 32.7333C425.568 32.4827 425.762 32.2971 425.99 32.1767C426.218 32.0563 426.475 31.996 426.761 31.996C427.048 31.996 427.305 32.0563 427.533 32.1767C427.764 32.2971 427.959 32.4827 428.119 32.7333C428.278 32.984 428.4 33.3014 428.485 33.6855C428.57 34.0663 428.612 34.5188 428.612 35.0429V36.2343ZM428.065 34.9648C428.065 34.151 427.956 33.5374 427.738 33.124C427.523 32.7106 427.198 32.5038 426.761 32.5038C426.332 32.5038 426.006 32.7106 425.785 33.124C425.567 33.5374 425.458 34.151 425.458 34.9648V36.3027C425.458 36.7031 425.485 37.0579 425.541 37.3671C425.599 37.6764 425.682 37.9368 425.79 38.1484C425.9 38.36 426.037 38.5211 426.2 38.6318C426.366 38.7425 426.556 38.7978 426.771 38.7978C426.989 38.7978 427.178 38.7425 427.338 38.6318C427.5 38.5211 427.635 38.36 427.743 38.1484C427.85 37.9368 427.93 37.6764 427.982 37.3671C428.038 37.0579 428.065 36.7031 428.065 36.3027V34.9648ZM433.475 36.2343C433.475 36.7584 433.433 37.2141 433.348 37.6015C433.267 37.9856 433.147 38.3046 432.987 38.5585C432.831 38.8092 432.639 38.9964 432.411 39.1201C432.183 39.2405 431.924 39.3007 431.635 39.3007C431.348 39.3007 431.091 39.2405 430.863 39.1201C430.635 38.9964 430.441 38.8092 430.282 38.5585C430.122 38.3046 429.999 37.9856 429.911 37.6015C429.826 37.2141 429.784 36.7584 429.784 36.2343V35.0429C429.784 34.5188 429.826 34.0663 429.911 33.6855C429.996 33.3014 430.116 32.984 430.272 32.7333C430.432 32.4827 430.625 32.2971 430.853 32.1767C431.081 32.0563 431.338 31.996 431.625 31.996C431.911 31.996 432.168 32.0563 432.396 32.1767C432.627 32.2971 432.823 32.4827 432.982 32.7333C433.142 32.984 433.264 33.3014 433.348 33.6855C433.433 34.0663 433.475 34.5188 433.475 35.0429V36.2343ZM432.928 34.9648C432.928 34.151 432.819 33.5374 432.601 33.124C432.386 32.7106 432.061 32.5038 431.625 32.5038C431.195 32.5038 430.87 32.7106 430.648 33.124C430.43 33.5374 430.321 34.151 430.321 34.9648V36.3027C430.321 36.7031 430.349 37.0579 430.404 37.3671C430.463 37.6764 430.546 37.9368 430.653 38.1484C430.764 38.36 430.9 38.5211 431.063 38.6318C431.229 38.7425 431.42 38.7978 431.635 38.7978C431.853 38.7978 432.041 38.7425 432.201 38.6318C432.364 38.5211 432.499 38.36 432.606 38.1484C432.714 37.9368 432.793 37.6764 432.845 37.3671C432.901 37.0579 432.928 36.7031 432.928 36.3027V34.9648ZM438.265 36.791H437.616V39.2031H437.069V33.9199H437.616V36.2587H438.256L439.857 33.9199H440.531L438.71 36.4736L440.721 39.2031H440.013L438.265 36.791ZM444.393 34.4326H442.191V39.2031H441.644V33.9199H444.393V34.4326ZM423.646 49.2031H423.104V46.7861H420.78V49.2031H420.233V43.9199H420.78V46.2831H423.104V43.9199H423.646V49.2031ZM427.928 49.2031C427.902 49.1152 427.881 49.0061 427.865 48.8759C427.849 48.7425 427.837 48.6074 427.831 48.4706C427.762 48.5813 427.681 48.6871 427.587 48.788C427.492 48.8857 427.383 48.9736 427.26 49.0517C427.139 49.1266 427.004 49.1868 426.854 49.2324C426.705 49.2779 426.543 49.3007 426.371 49.3007C426.153 49.3007 425.954 49.2698 425.775 49.2079C425.599 49.1461 425.448 49.0533 425.321 48.9296C425.194 48.8059 425.096 48.6513 425.028 48.4658C424.96 48.2802 424.926 48.0637 424.926 47.8163C424.926 47.5722 424.968 47.3476 425.052 47.1425C425.137 46.9342 425.262 46.7551 425.428 46.6054C425.598 46.4557 425.808 46.3385 426.058 46.2538C426.309 46.1692 426.6 46.1269 426.932 46.1269H427.826V45.3896C427.826 45.012 427.732 44.7418 427.543 44.579C427.357 44.413 427.084 44.33 426.722 44.33C426.553 44.33 426.397 44.3561 426.254 44.4081C426.114 44.4602 425.993 44.5335 425.892 44.6279C425.791 44.719 425.713 44.8297 425.658 44.9599C425.603 45.0869 425.575 45.2268 425.575 45.3798L425.033 45.3749C425.033 45.1699 425.074 44.9745 425.155 44.789C425.236 44.6002 425.352 44.4342 425.502 44.291C425.651 44.1477 425.832 44.0338 426.044 43.9492C426.255 43.8645 426.49 43.8222 426.747 43.8222C426.984 43.8222 427.201 43.8515 427.396 43.9101C427.595 43.9654 427.766 44.0566 427.909 44.1835C428.052 44.3072 428.163 44.47 428.241 44.6718C428.322 44.8704 428.363 45.1129 428.363 45.3994V48.0947C428.363 48.1858 428.366 48.2802 428.373 48.3779C428.379 48.4755 428.387 48.5716 428.397 48.666C428.41 48.7571 428.425 48.845 428.441 48.9296C428.461 49.011 428.482 49.0826 428.505 49.1445V49.2031H427.928ZM426.439 48.7783C426.608 48.7783 426.766 48.7555 426.913 48.7099C427.063 48.6611 427.196 48.596 427.313 48.5146C427.43 48.43 427.531 48.3323 427.616 48.2216C427.704 48.1109 427.774 47.9921 427.826 47.8652V46.581H427.01C426.499 46.581 426.115 46.6884 425.858 46.9033C425.601 47.1181 425.472 47.4078 425.472 47.7724C425.472 48.1207 425.557 48.3762 425.726 48.539C425.899 48.6985 426.136 48.7783 426.439 48.7783ZM434.34 49.2031H433.793V42.8115L432.186 43.5292V42.9726L434.247 42.0693H434.34V49.2031ZM437.665 48.7343C438.081 48.7343 438.431 48.6643 438.715 48.5244C438.998 48.3844 439.226 48.1907 439.398 47.9433C439.574 47.6926 439.701 47.3997 439.779 47.0644C439.857 46.7259 439.901 46.358 439.911 45.9609C439.83 46.0976 439.735 46.2229 439.628 46.3369C439.524 46.4475 439.41 46.5436 439.286 46.6249C439.162 46.7031 439.03 46.7649 438.89 46.8105C438.75 46.8528 438.604 46.874 438.451 46.874C438.168 46.874 437.919 46.8072 437.704 46.6738C437.492 46.5403 437.315 46.3629 437.172 46.1415C437.028 45.9202 436.921 45.6663 436.849 45.3798C436.778 45.0934 436.742 44.7971 436.742 44.4911C436.742 44.1494 436.783 43.8271 436.864 43.5244C436.945 43.2216 437.063 42.9579 437.216 42.7333C437.369 42.5055 437.557 42.3264 437.782 42.1962C438.007 42.0628 438.264 41.996 438.553 41.996C438.876 41.996 439.156 42.0676 439.393 42.2109C439.634 42.3509 439.833 42.5462 439.989 42.7968C440.145 43.0475 440.261 43.3469 440.336 43.6953C440.414 44.0436 440.453 44.4228 440.453 44.8329V45.3945C440.453 45.7428 440.435 46.0813 440.399 46.4101C440.363 46.7356 440.303 47.0416 440.219 47.3281C440.137 47.6145 440.026 47.8766 439.886 48.1142C439.75 48.3486 439.577 48.5504 439.369 48.7197C439.164 48.8889 438.92 49.0208 438.636 49.1152C438.357 49.2063 438.033 49.2519 437.665 49.2519H437.562L437.567 48.7343H437.665ZM438.524 46.3613C438.7 46.3613 438.863 46.3271 439.012 46.2587C439.162 46.1871 439.296 46.0943 439.413 45.9804C439.53 45.8665 439.631 45.7363 439.716 45.5898C439.8 45.44 439.867 45.287 439.916 45.1308V44.7744C439.916 44.4033 439.882 44.0777 439.813 43.7978C439.745 43.5146 439.65 43.2786 439.53 43.0898C439.41 42.8977 439.266 42.7529 439.1 42.6552C438.934 42.5576 438.754 42.5087 438.558 42.5087C438.357 42.5087 438.176 42.5624 438.016 42.6699C437.86 42.774 437.727 42.9156 437.616 43.0947C437.505 43.2737 437.421 43.482 437.362 43.7197C437.303 43.954 437.274 44.2031 437.274 44.4667C437.274 44.7076 437.3 44.942 437.352 45.1699C437.408 45.3977 437.487 45.5995 437.592 45.7753C437.696 45.9511 437.826 46.0927 437.982 46.2001C438.138 46.3076 438.319 46.3613 438.524 46.3613ZM442.416 48.9638C442.416 49.1103 442.399 49.2568 442.367 49.4033C442.338 49.5497 442.294 49.6897 442.235 49.8232C442.177 49.9599 442.105 50.0885 442.02 50.2089C441.936 50.3294 441.84 50.4384 441.732 50.5361L441.385 50.2773C441.535 50.0755 441.649 49.872 441.727 49.6669C441.805 49.4619 441.844 49.2307 441.844 48.9736V48.2753H442.416V48.9638ZM447.191 43.9247C447.191 44.1103 447.167 44.2877 447.118 44.457C447.072 44.623 447.007 44.776 446.923 44.916C446.838 45.0527 446.735 45.1764 446.615 45.287C446.498 45.3945 446.366 45.484 446.219 45.5556C446.389 45.6272 446.542 45.72 446.678 45.8339C446.818 45.9479 446.937 46.0813 447.035 46.2343C447.136 46.3841 447.212 46.5501 447.264 46.7324C447.32 46.9147 447.347 47.11 447.347 47.3183C447.347 47.6406 447.297 47.9254 447.196 48.1728C447.098 48.4202 446.963 48.6285 446.791 48.7978C446.622 48.9638 446.421 49.0891 446.19 49.1738C445.959 49.2584 445.712 49.3007 445.448 49.3007C445.178 49.3007 444.927 49.2584 444.696 49.1738C444.465 49.0891 444.263 48.9638 444.091 48.7978C443.921 48.6285 443.788 48.4202 443.69 48.1728C443.593 47.9254 443.544 47.6406 443.544 47.3183C443.544 47.11 443.57 46.9147 443.622 46.7324C443.674 46.5501 443.749 46.3841 443.846 46.2343C443.944 46.0813 444.061 45.9479 444.198 45.8339C444.335 45.72 444.486 45.6272 444.652 45.5556C444.506 45.484 444.372 45.3945 444.252 45.287C444.135 45.1764 444.034 45.0527 443.949 44.916C443.868 44.776 443.804 44.623 443.759 44.457C443.713 44.2877 443.69 44.1103 443.69 43.9247C443.69 43.6155 443.734 43.3421 443.822 43.1044C443.91 42.8635 444.032 42.6617 444.188 42.499C444.344 42.3329 444.528 42.2076 444.74 42.123C444.955 42.0384 445.188 41.996 445.438 41.996C445.686 41.996 445.917 42.0384 446.132 42.123C446.346 42.2076 446.532 42.3329 446.688 42.499C446.844 42.6617 446.967 42.8635 447.054 43.1044C447.146 43.3421 447.191 43.6155 447.191 43.9247ZM446.801 47.3183C446.801 47.0937 446.766 46.8886 446.698 46.7031C446.63 46.5175 446.534 46.3596 446.41 46.2294C446.289 46.096 446.146 45.9934 445.98 45.9218C445.814 45.8469 445.634 45.8095 445.438 45.8095C445.24 45.8095 445.057 45.8469 444.891 45.9218C444.725 45.9934 444.582 46.096 444.462 46.2294C444.341 46.3596 444.247 46.5175 444.178 46.7031C444.113 46.8886 444.081 47.0937 444.081 47.3183C444.081 47.5527 444.113 47.7626 444.178 47.9482C444.247 48.1305 444.341 48.2851 444.462 48.412C444.582 48.539 444.725 48.635 444.891 48.7001C445.061 48.7652 445.246 48.7978 445.448 48.7978C445.647 48.7978 445.827 48.7652 445.99 48.7001C446.156 48.635 446.299 48.539 446.42 48.412C446.54 48.2851 446.633 48.1305 446.698 47.9482C446.766 47.7626 446.801 47.5527 446.801 47.3183ZM446.649 43.9199C446.649 43.7148 446.618 43.526 446.556 43.3535C446.495 43.1777 446.41 43.0279 446.302 42.9042C446.195 42.7773 446.066 42.6796 445.917 42.6113C445.77 42.5397 445.611 42.5038 445.438 42.5038C445.262 42.5038 445.101 42.5364 444.955 42.6015C444.808 42.6666 444.681 42.761 444.574 42.8847C444.47 43.0051 444.387 43.1533 444.325 43.329C444.266 43.5048 444.237 43.7018 444.237 43.9199C444.237 44.1314 444.266 44.3235 444.325 44.496C444.384 44.6653 444.467 44.8102 444.574 44.9306C444.681 45.0478 444.808 45.1389 444.955 45.204C445.105 45.2691 445.267 45.3017 445.443 45.3017C445.616 45.3017 445.775 45.2691 445.922 45.204C446.071 45.1389 446.2 45.0478 446.307 44.9306C446.415 44.8102 446.498 44.6653 446.556 44.496C446.618 44.3235 446.649 44.1314 446.649 43.9199ZM451.068 48.3974L452.787 43.9199H453.456V49.2031H452.914V44.9599L451.259 49.2031H450.878L449.188 44.8525V49.2031H448.651V43.9199H449.359L451.068 48.3974Z" fill="black"/>
</svg>
