<svg width="468" height="53" viewBox="0 0 468 53" fill="none" xmlns="http://www.w3.org/2000/svg">
<path d="M99.6817 18.8723H458.703V7.16959H90.9727L99.6817 18.8723Z" fill="#201500" stroke="black" stroke-width="0.5" stroke-miterlimit="10" stroke-linecap="round" stroke-linejoin="round"/>
<path d="M463.99 28.5337H461.433C459.926 28.5337 458.703 27.3114 458.703 25.8036V7.178C458.703 5.67023 459.926 4.44794 461.433 4.44794H464.495C466.003 4.44794 467.225 5.67023 467.225 7.178L466.548 26.0661C466.499 27.443 465.368 28.5337 463.99 28.5337Z" fill="#5159A3" stroke="black" stroke-width="0.5" stroke-miterlimit="10" stroke-linecap="round" stroke-linejoin="round"/>
<path d="M99.6816 18.8723H25.4556L10.9633 7.16959H90.9726L99.6816 18.8723Z" fill="#5159A3" stroke="black" stroke-width="0.5" stroke-miterlimit="10" stroke-linecap="round" stroke-linejoin="round"/>
<path d="M13.3784 7.61172L10.1034 5.28471C9.72496 5.01584 9.50018 3.84913 9.50018 3.38494C9.50018 2.32807 8.64343 1.47134 7.58658 1.47134C6.52973 1.47134 5.67297 2.32807 5.67297 3.38494V5.44877C5.67297 6.35405 6.12428 7.19972 6.87633 7.7037L10.6228 10.2142L13.3784 7.61172Z" fill="#5159A3" stroke="black" stroke-width="0.5" stroke-miterlimit="10" stroke-linecap="round" stroke-linejoin="round"/>
<path d="M1.06751 16.1083L11.3599 6.43525C11.6619 6.15139 12.1239 6.12435 12.457 6.3711L25.3266 15.9041C25.5428 16.0643 25.8048 16.1508 26.0739 16.1508H37.9785C38.5388 16.1508 38.764 16.8737 38.3029 17.1919L26.7131 25.1888C26.392 25.4104 25.9863 25.4701 25.615 25.3505L1.39174 17.5487C0.770476 17.3486 0.591901 16.5553 1.06751 16.1083Z" fill="#5159A3" stroke="black" stroke-width="0.5" stroke-miterlimit="10" stroke-linecap="round" stroke-linejoin="round"/>
<path d="M9.52571 15.4789C10.3195 15.4789 10.963 14.8354 10.963 14.0415C10.963 13.2477 10.3195 12.6042 9.52571 12.6042C8.73189 12.6042 8.08838 13.2477 8.08838 14.0415C8.08838 14.8354 8.73189 15.4789 9.52571 15.4789Z" fill="#5159A3" stroke="black" stroke-width="0.5" stroke-miterlimit="10" stroke-linecap="round" stroke-linejoin="round"/>
<path d="M25.515 24.0178C26.3088 24.0178 26.9523 23.3743 26.9523 22.5805C26.9523 21.7867 26.3088 21.1432 25.515 21.1432C24.7212 21.1432 24.0776 21.7867 24.0776 22.5805C24.0776 23.3743 24.7212 24.0178 25.515 24.0178Z" fill="#5159A3" stroke="black" stroke-width="0.5" stroke-miterlimit="10" stroke-linecap="round" stroke-linejoin="round"/>
<path d="M51.6459 7.16955H50.0129V3.82726C50.0129 3.37634 50.3785 3.01077 50.8294 3.01077C51.2803 3.01077 51.6459 3.37634 51.6459 3.82726V7.16955Z" fill="#221500" stroke="black" stroke-width="0.5" stroke-miterlimit="10" stroke-linecap="round" stroke-linejoin="round"/>
<path d="M80.1894 7.16956H76.9329V3.94453C76.9329 3.77165 77.073 3.6315 77.2459 3.6315H77.6225C77.8096 3.6315 77.9839 3.72679 78.0848 3.88436L80.1894 7.16956Z" fill="#221500" stroke="black" stroke-width="0.5" stroke-miterlimit="10" stroke-linecap="round" stroke-linejoin="round"/>
<path d="M238.865 3.98808H235.648V0.802375C235.648 0.631592 235.786 0.493164 235.957 0.493164H236.329C236.514 0.493164 236.686 0.587309 236.786 0.742933L238.865 3.98808Z" fill="#221500" stroke="black" stroke-width="0.5" stroke-miterlimit="10" stroke-linecap="round" stroke-linejoin="round"/>
<path d="M57.1018 18.8725H55.9111V23.0228C55.9111 23.3517 56.1777 23.6182 56.5065 23.6182C56.8353 23.6182 57.1018 23.3517 57.1018 23.0228V18.8725H57.1018Z" fill="#221500" stroke="black" stroke-width="0.5" stroke-miterlimit="10" stroke-linecap="round" stroke-linejoin="round"/>
<path d="M87.7406 18.8725H86.5499V23.0228C86.5499 23.3517 86.8165 23.6182 87.1453 23.6182C87.4741 23.6182 87.7406 23.3517 87.7406 23.0228V18.8725H87.7406Z" fill="#221500" stroke="black" stroke-width="0.5" stroke-miterlimit="10" stroke-linecap="round" stroke-linejoin="round"/>
<path d="M70.4218 18.8725H69.2311V23.0228C69.2311 23.3517 69.4976 23.6182 69.8264 23.6182C70.1552 23.6182 70.4218 23.3517 70.4218 23.0228V18.8725H70.4218Z" fill="#221500" stroke="black" stroke-width="0.5" stroke-miterlimit="10" stroke-linecap="round" stroke-linejoin="round"/>
<path d="M102.603 19.8929H96.8989C96.7233 19.8929 96.5581 19.8095 96.4539 19.6682L86.7316 6.48762C86.6281 6.34731 86.7282 6.14899 86.9026 6.14899H92.6065C92.7822 6.14899 92.9473 6.23241 93.0516 6.37373L102.774 19.5543C102.877 19.6946 102.777 19.8929 102.603 19.8929Z" fill="#5159A3" stroke="black" stroke-width="0.5" stroke-miterlimit="10" stroke-linecap="round" stroke-linejoin="round"/>
<path d="M193.245 16.9781V19.2132C193.245 19.5914 192.939 19.8979 192.56 19.8979H190.081C189.759 19.8979 189.454 19.7541 189.249 19.5059L180.447 8.84317C180.189 8.5304 180.048 8.13749 180.048 7.7319V4.44797C180.048 4.19399 180.254 3.9881 180.508 3.9881H184.669C184.923 3.9881 185.128 4.19399 185.128 4.44797V6.12548C185.128 6.5309 185.27 6.92369 185.528 7.2364L192.998 16.2916C193.158 16.4849 193.245 16.7276 193.245 16.9781Z" fill="#5159A3" stroke="black" stroke-width="0.5" stroke-miterlimit="10" stroke-linecap="round" stroke-linejoin="round"/>
<path d="M247.856 16.9781V19.2132C247.856 19.5914 247.549 19.8979 247.171 19.8979H244.692C244.37 19.8979 244.065 19.7541 243.86 19.5059L235.058 8.84317C234.8 8.5304 234.658 8.13749 234.658 7.7319V4.44797C234.658 4.19399 234.864 3.9881 235.118 3.9881H239.279C239.533 3.9881 239.739 4.19399 239.739 4.44797V6.12548C239.739 6.5309 239.88 6.92369 240.138 7.2364L247.609 16.2916C247.768 16.4849 247.856 16.7276 247.856 16.9781Z" fill="#5159A3" stroke="black" stroke-width="0.5" stroke-miterlimit="10" stroke-linecap="round" stroke-linejoin="round"/>
<path d="M309.229 5.20865H305.116V1.1352C305.116 0.916856 305.293 0.739838 305.511 0.739838H305.987C306.223 0.739838 306.443 0.860222 306.571 1.0592L309.229 5.20865Z" fill="#221500" stroke="black" stroke-width="0.5" stroke-miterlimit="10" stroke-linecap="round" stroke-linejoin="round"/>
<path d="M315.845 16.3888V19.2092C315.845 19.5953 315.542 19.8979 315.167 19.8979H312.684C312.36 19.8979 312.058 19.7517 311.849 19.5013L303.054 8.83917C302.793 8.52614 302.648 8.14026 302.648 7.73324V5.66759C302.648 5.41516 302.854 5.20862 303.107 5.20862H310.639C310.891 5.20862 311.098 5.41522 311.098 5.66772V9.34593C311.098 9.91981 311.298 10.4758 311.663 10.9186L315.605 15.7001C315.761 15.8985 315.845 16.1384 315.845 16.3888Z" fill="#5159A3" stroke="black" stroke-width="0.5" stroke-miterlimit="10" stroke-linecap="round" stroke-linejoin="round"/>
<path d="M374.802 5.20865H370.689V1.1352C370.689 0.916856 370.866 0.739838 371.084 0.739838H371.56C371.796 0.739838 372.016 0.860222 372.144 1.0592L374.802 5.20865Z" fill="#221500" stroke="black" stroke-width="0.5" stroke-miterlimit="10" stroke-linecap="round" stroke-linejoin="round"/>
<path d="M381.418 16.3888V19.2092C381.418 19.5953 381.115 19.8979 380.74 19.8979H378.257C377.934 19.8979 377.631 19.7517 377.422 19.5013L368.627 8.83917C368.367 8.52614 368.221 8.14026 368.221 7.73324V5.66759C368.221 5.41516 368.427 5.20862 368.68 5.20862H376.212C376.465 5.20862 376.671 5.41522 376.671 5.66772V9.34593C376.671 9.91981 376.871 10.4758 377.236 10.9186L381.178 15.7001C381.335 15.8985 381.418 16.1384 381.418 16.3888Z" fill="#5159A3" stroke="black" stroke-width="0.5" stroke-miterlimit="10" stroke-linecap="round" stroke-linejoin="round"/>
<path d="M238.215 2.97412H305.116" stroke="black" stroke-width="0.5" stroke-miterlimit="10" stroke-linecap="round" stroke-linejoin="round"/>
<path d="M307.798 2.97412H370.689" stroke="black" stroke-width="0.5" stroke-miterlimit="10" stroke-linecap="round" stroke-linejoin="round"/>
<path d="M3.16382 36.7793L0 44.1144H6.32765L3.16382 36.7793Z" fill="#5159A3"/>
<path d="M102.834 40.4464L97.3596 35.9408V44.952L102.834 40.4464Z" fill="#D92B2B"/>
<path d="M190.296 40.4464L184.821 35.9408V44.952L190.296 40.4464Z" fill="#D92B2B"/>
<path d="M253.097 40.4464L247.622 35.9408V44.952L253.097 40.4464Z" fill="#D92B2B"/>
<path d="M313.857 40.4464L308.382 35.9408V44.952L313.857 40.4464Z" fill="#D92B2B"/>
<path d="M380.788 40.4464L375.313 35.9408V44.952L380.788 40.4464Z" fill="#D92B2B"/>
<path d="M465.844 40.4464L460.37 35.9408V44.952L465.844 40.4464Z" fill="#D92B2B"/>
<path d="M59.7723 11.1603V15.3815L61.9098 13.2709L59.7723 11.1603ZM64.6478 10.5579H60.4391L62.5434 12.6452L64.6478 10.5579ZM73.4624 10.9706H74.7533L73.155 13.731V15.3815H72.0201V13.731L70.4217 10.9706H71.7127L72.5875 12.7587L73.4624 10.9706ZM70.6724 12.9827V13.3693C70.6724 14.4806 69.7358 15.3814 68.6279 15.3814H66.6293V10.9706H68.6279C69.7358 10.9706 70.6724 11.8714 70.6724 12.9827ZM69.5263 13.0232C69.5263 12.4348 69.0508 11.958 68.4645 11.958H67.7752V14.3943L68.4645 14.3941C69.0508 14.3941 69.5265 13.9172 69.5263 13.3288V13.0232ZM60.5951 15.8369H63.0966C64.0812 15.8369 64.8794 15.0364 64.8794 14.0488V11.5398L60.5951 15.8369Z" fill="white"/>
<path d="M84.3015 13.7513L84.7673 14.4282V13.7513H85.0466V15.0373H84.899L84.4154 14.3588V15.0373H84.1361V13.7513H84.3015ZM75.4054 13.7513L75.7558 14.6286L76.1061 13.7513H76.3854V15.0373H76.1061V14.5056L75.893 15.0373H75.6185L75.4054 14.5056V15.0373H75.1261V13.7513H75.4054ZM77.2878 13.7513V14.0306H76.7907V14.2247H77.2878V14.504H76.7907V14.758H77.2878V15.0373H76.5114V13.7513H77.2878ZM78.5612 14.1205H78.2172C78.154 14.0653 78.0704 14.0306 77.9788 14.0306C77.7784 14.0306 77.6159 14.1931 77.6159 14.3951C77.6159 14.5955 77.7784 14.758 77.9788 14.758C78.0704 14.758 78.154 14.7249 78.2172 14.6681H78.5612C78.457 14.8859 78.2361 15.0373 77.9788 15.0373C77.6238 15.0373 77.335 14.7502 77.335 14.3951C77.335 14.04 77.6238 13.7513 77.9788 13.7513C78.2361 13.7513 78.457 13.9027 78.5612 14.1205ZM79.5914 13.7513V15.0373H79.3121V14.504H78.9602V15.0373H78.6808V13.7513H78.9602V14.2247H79.3121V13.7513H79.5914ZM80.8379 15.0373H80.538L80.456 14.8212H80.063L79.9794 15.0373H79.6796L80.1766 13.7513H80.3423L80.8379 15.0373ZM80.2587 14.3131L80.1703 14.5419H80.3471L80.2587 14.3131ZM81.3032 14.0306V15.0373H81.0239V14.0306H80.743V13.7513H81.5825V14.0306H81.3032ZM81.696 13.7513H82.2546C82.485 13.7513 82.6744 13.9406 82.6744 14.171C82.6744 14.3367 82.575 14.4835 82.4314 14.5497L82.6712 15.0373H82.3604L82.1394 14.5892H81.9753V15.0373H81.696V13.7513H81.696ZM81.9753 14.0306V14.3099H82.2546C82.3304 14.3099 82.3951 14.2452 82.3951 14.171C82.3951 14.0937 82.332 14.0306 82.2546 14.0306H81.9753ZM84.0045 14.3951C84.0045 14.7502 83.7157 15.0373 83.3607 15.0373C83.0056 15.0373 82.7184 14.7502 82.7184 14.3951C82.7184 14.04 83.0056 13.7513 83.3607 13.7513C83.7157 13.7513 84.0045 14.04 84.0045 14.3951ZM82.9977 14.3951C82.9977 14.5955 83.1602 14.758 83.3607 14.758C83.5611 14.758 83.7236 14.5955 83.7236 14.3951C83.7236 14.1931 83.5611 14.0306 83.3607 14.0306C83.1602 14.0306 82.9977 14.1931 82.9977 14.3951ZM85.4591 13.7513V15.0373H85.1782V13.7513H85.4591ZM86.8193 14.1205H86.4753C86.4121 14.0653 86.3285 14.0306 86.237 14.0306C86.0366 14.0306 85.874 14.1931 85.874 14.3951C85.874 14.5955 86.0366 14.758 86.237 14.758C86.3285 14.758 86.4121 14.7249 86.4753 14.6681H86.8193C86.7151 14.8859 86.4942 15.0373 86.237 15.0373C85.8819 15.0373 85.5931 14.7502 85.5931 14.3951C85.5931 14.04 85.8819 13.7513 86.237 13.7513C86.4942 13.7513 86.7151 13.9027 86.8193 14.1205ZM87.4881 14.2562C87.6365 14.3162 87.7406 14.4614 87.7406 14.6318C87.7406 14.8559 87.5591 15.0373 87.3351 15.0373C87.1236 15.0373 86.95 14.8748 86.9311 14.6681H87.2151C87.2309 14.7202 87.2782 14.758 87.3351 14.758C87.4045 14.758 87.4613 14.7012 87.4613 14.6318C87.4613 14.5892 87.4392 14.5513 87.4076 14.5292C87.2057 14.4267 86.9863 14.3525 86.9863 14.1016C86.9863 13.9074 87.1426 13.7513 87.3351 13.7513C87.526 13.7513 87.6807 13.9027 87.6838 14.0921H87.4045C87.3998 14.0574 87.3714 14.0306 87.3351 14.0306C87.2972 14.0306 87.2656 14.0621 87.2656 14.1016C87.2656 14.1268 87.2798 14.1505 87.3003 14.1615L87.4881 14.2562Z" fill="white"/>
<path d="M75.5232 11.6421C75.8747 11.6421 76.1635 11.9293 76.1635 12.2824C76.1635 12.6323 75.8731 12.9211 75.5232 12.9211H75.1261V11.6421H75.5232ZM75.4054 12.6433H75.5231C75.7209 12.6433 75.8857 12.4785 75.8857 12.2824C75.8857 12.083 75.7224 11.9198 75.5231 11.9198H75.4054V12.6433ZM77.5791 12.2824C77.5791 12.6355 77.2919 12.9211 76.9388 12.9211C76.5857 12.9211 76.3001 12.6355 76.3001 12.2824C76.3001 11.9293 76.5857 11.6421 76.9388 11.6421C77.2919 11.6421 77.5791 11.9293 77.5791 12.2824ZM76.5779 12.2824C76.5779 12.4817 76.7395 12.6433 76.9388 12.6433C77.1382 12.6433 77.2998 12.4817 77.2998 12.2824C77.2998 12.0815 77.1382 11.9198 76.9388 11.9198C76.7395 11.9198 76.5779 12.0815 76.5779 12.2824ZM80.0417 12.0438H79.72C79.6541 11.9685 79.5568 11.9198 79.4469 11.9198C79.2476 11.9198 79.086 12.0815 79.086 12.2824C79.086 12.4817 79.2476 12.6433 79.4469 12.6433C79.5427 12.6433 79.6305 12.6057 79.6949 12.546H79.4422V12.2667H80.0872C80.0872 12.6276 79.811 12.9211 79.4469 12.9211C79.0938 12.9211 78.8082 12.6355 78.8082 12.2824C78.8082 11.9293 79.0938 11.6421 79.4469 11.6421C79.7169 11.6421 79.9476 11.8085 80.0417 12.0438ZM80.6135 12.9211H80.3357V12.3875L79.959 11.6421H80.2713L80.4754 12.0454L80.6778 11.6421H80.9901L80.6135 12.3875V12.9211ZM81.9424 12.9211H81.6442L81.5626 12.7061H81.1718L81.0887 12.9211H80.7905L81.2848 11.6421H81.4496L81.9424 12.9211ZM81.3665 12.2008L81.2786 12.4283H81.4543L81.3665 12.2008ZM77.8601 11.6421L78.3785 12.3153V11.6421H78.6894V12.9211H78.5252L77.9869 12.2463V12.9211H77.676V11.6421H77.8601ZM82.2281 11.6421L82.7465 12.3153V11.6421H83.0574V12.9211H82.8931L82.3548 12.2463V12.9211H82.0439V11.6421H82.2281ZM84.3924 12.0438H84.0707C84.0048 11.9685 83.9075 11.9198 83.7976 11.9198C83.5983 11.9198 83.4366 12.0815 83.4366 12.2824C83.4366 12.4817 83.5983 12.6433 83.7976 12.6433C83.8933 12.6433 83.9812 12.6057 84.0456 12.546H83.7929V12.2667H84.4379C84.4379 12.6276 84.1617 12.9211 83.7976 12.9211C83.4445 12.9211 83.1589 12.6355 83.1589 12.2824C83.1589 11.9293 83.4445 11.6421 83.7976 11.6421C84.0675 11.6421 84.2983 11.8085 84.3924 12.0438Z" fill="white"/>
<path d="M59.7723 11.1603V15.3815L61.9098 13.2709L59.7723 11.1603ZM64.6478 10.5579H60.4391L62.5434 12.6452L64.6478 10.5579ZM73.4624 10.9706H74.7533L73.155 13.731V15.3815H72.0201V13.731L70.4217 10.9706H71.7127L72.5875 12.7587L73.4624 10.9706ZM70.6724 12.9827V13.3693C70.6724 14.4806 69.7358 15.3814 68.6279 15.3814H66.6293V10.9706H68.6279C69.7358 10.9706 70.6724 11.8714 70.6724 12.9827ZM69.5263 13.0232C69.5263 12.4348 69.0508 11.958 68.4645 11.958H67.7752V14.3943L68.4645 14.3941C69.0508 14.3941 69.5265 13.9172 69.5263 13.3288V13.0232ZM60.5951 15.8369H63.0966C64.0812 15.8369 64.8794 15.0364 64.8794 14.0488V11.5398L60.5951 15.8369Z" fill="white"/>
<path d="M84.3015 13.7513L84.7673 14.4282V13.7513H85.0466V15.0373H84.899L84.4154 14.3588V15.0373H84.1361V13.7513H84.3015ZM75.4054 13.7513L75.7558 14.6286L76.1061 13.7513H76.3854V15.0373H76.1061V14.5056L75.893 15.0373H75.6185L75.4054 14.5056V15.0373H75.1261V13.7513H75.4054ZM77.2878 13.7513V14.0306H76.7907V14.2247H77.2878V14.504H76.7907V14.758H77.2878V15.0373H76.5114V13.7513H77.2878ZM78.5612 14.1205H78.2172C78.154 14.0653 78.0704 14.0306 77.9788 14.0306C77.7784 14.0306 77.6159 14.1931 77.6159 14.3951C77.6159 14.5955 77.7784 14.758 77.9788 14.758C78.0704 14.758 78.154 14.7249 78.2172 14.6681H78.5612C78.457 14.8859 78.2361 15.0373 77.9788 15.0373C77.6238 15.0373 77.335 14.7502 77.335 14.3951C77.335 14.04 77.6238 13.7513 77.9788 13.7513C78.2361 13.7513 78.457 13.9027 78.5612 14.1205ZM79.5914 13.7513V15.0373H79.3121V14.504H78.9602V15.0373H78.6808V13.7513H78.9602V14.2247H79.3121V13.7513H79.5914ZM80.8379 15.0373H80.538L80.456 14.8212H80.063L79.9794 15.0373H79.6796L80.1766 13.7513H80.3423L80.8379 15.0373ZM80.2587 14.3131L80.1703 14.5419H80.3471L80.2587 14.3131ZM81.3032 14.0306V15.0373H81.0239V14.0306H80.743V13.7513H81.5825V14.0306H81.3032ZM81.696 13.7513H82.2546C82.485 13.7513 82.6744 13.9406 82.6744 14.171C82.6744 14.3367 82.575 14.4835 82.4314 14.5497L82.6712 15.0373H82.3604L82.1394 14.5892H81.9753V15.0373H81.696V13.7513H81.696ZM81.9753 14.0306V14.3099H82.2546C82.3304 14.3099 82.3951 14.2452 82.3951 14.171C82.3951 14.0937 82.332 14.0306 82.2546 14.0306H81.9753ZM84.0045 14.3951C84.0045 14.7502 83.7157 15.0373 83.3607 15.0373C83.0056 15.0373 82.7184 14.7502 82.7184 14.3951C82.7184 14.04 83.0056 13.7513 83.3607 13.7513C83.7157 13.7513 84.0045 14.04 84.0045 14.3951ZM82.9977 14.3951C82.9977 14.5955 83.1602 14.758 83.3607 14.758C83.5611 14.758 83.7236 14.5955 83.7236 14.3951C83.7236 14.1931 83.5611 14.0306 83.3607 14.0306C83.1602 14.0306 82.9977 14.1931 82.9977 14.3951ZM85.4591 13.7513V15.0373H85.1782V13.7513H85.4591ZM86.8193 14.1205H86.4753C86.4121 14.0653 86.3285 14.0306 86.237 14.0306C86.0366 14.0306 85.874 14.1931 85.874 14.3951C85.874 14.5955 86.0366 14.758 86.237 14.758C86.3285 14.758 86.4121 14.7249 86.4753 14.6681H86.8193C86.7151 14.8859 86.4942 15.0373 86.237 15.0373C85.8819 15.0373 85.5931 14.7502 85.5931 14.3951C85.5931 14.04 85.8819 13.7513 86.237 13.7513C86.4942 13.7513 86.7151 13.9027 86.8193 14.1205ZM87.4881 14.2562C87.6365 14.3162 87.7406 14.4614 87.7406 14.6318C87.7406 14.8559 87.5591 15.0373 87.3351 15.0373C87.1236 15.0373 86.95 14.8748 86.9311 14.6681H87.2151C87.2309 14.7202 87.2782 14.758 87.3351 14.758C87.4045 14.758 87.4613 14.7012 87.4613 14.6318C87.4613 14.5892 87.4392 14.5513 87.4076 14.5292C87.2057 14.4267 86.9863 14.3525 86.9863 14.1016C86.9863 13.9074 87.1426 13.7513 87.3351 13.7513C87.526 13.7513 87.6807 13.9027 87.6838 14.0921H87.4045C87.3998 14.0574 87.3714 14.0306 87.3351 14.0306C87.2972 14.0306 87.2656 14.0621 87.2656 14.1016C87.2656 14.1268 87.2798 14.1505 87.3003 14.1615L87.4881 14.2562Z" fill="white"/>
<path d="M75.5232 11.6421C75.8747 11.6421 76.1635 11.9293 76.1635 12.2824C76.1635 12.6323 75.8731 12.9211 75.5232 12.9211H75.1261V11.6421H75.5232ZM75.4054 12.6433H75.5231C75.7209 12.6433 75.8857 12.4785 75.8857 12.2824C75.8857 12.083 75.7224 11.9198 75.5231 11.9198H75.4054V12.6433ZM77.5791 12.2824C77.5791 12.6355 77.2919 12.9211 76.9388 12.9211C76.5857 12.9211 76.3001 12.6355 76.3001 12.2824C76.3001 11.9293 76.5857 11.6421 76.9388 11.6421C77.2919 11.6421 77.5791 11.9293 77.5791 12.2824ZM76.5779 12.2824C76.5779 12.4817 76.7395 12.6433 76.9388 12.6433C77.1382 12.6433 77.2998 12.4817 77.2998 12.2824C77.2998 12.0815 77.1382 11.9198 76.9388 11.9198C76.7395 11.9198 76.5779 12.0815 76.5779 12.2824ZM80.0417 12.0438H79.72C79.6541 11.9685 79.5568 11.9198 79.4469 11.9198C79.2476 11.9198 79.086 12.0815 79.086 12.2824C79.086 12.4817 79.2476 12.6433 79.4469 12.6433C79.5427 12.6433 79.6305 12.6057 79.6949 12.546H79.4422V12.2667H80.0872C80.0872 12.6276 79.811 12.9211 79.4469 12.9211C79.0938 12.9211 78.8082 12.6355 78.8082 12.2824C78.8082 11.9293 79.0938 11.6421 79.4469 11.6421C79.7169 11.6421 79.9476 11.8085 80.0417 12.0438ZM80.6135 12.9211H80.3357V12.3875L79.959 11.6421H80.2713L80.4754 12.0454L80.6778 11.6421H80.9901L80.6135 12.3875V12.9211ZM81.9424 12.9211H81.6442L81.5626 12.7061H81.1718L81.0887 12.9211H80.7905L81.2848 11.6421H81.4496L81.9424 12.9211ZM81.3665 12.2008L81.2786 12.4283H81.4543L81.3665 12.2008ZM77.8601 11.6421L78.3785 12.3153V11.6421H78.6894V12.9211H78.5252L77.9869 12.2463V12.9211H77.676V11.6421H77.8601ZM82.2281 11.6421L82.7465 12.3153V11.6421H83.0574V12.9211H82.8931L82.3548 12.2463V12.9211H82.0439V11.6421H82.2281ZM84.3924 12.0438H84.0707C84.0048 11.9685 83.9075 11.9198 83.7976 11.9198C83.5983 11.9198 83.4366 12.0815 83.4366 12.2824C83.4366 12.4817 83.5983 12.6433 83.7976 12.6433C83.8933 12.6433 83.9812 12.6057 84.0456 12.546H83.7929V12.2667H84.4379C84.4379 12.6276 84.1617 12.9211 83.7976 12.9211C83.4445 12.9211 83.1589 12.6355 83.1589 12.2824C83.1589 11.9293 83.4445 11.6421 83.7976 11.6421C84.0675 11.6421 84.2983 11.8085 84.3924 12.0438Z" fill="white"/>
<path d="M15.394 33.925C15.394 34.1105 15.3696 34.2879 15.3208 34.4572C15.2752 34.6232 15.2101 34.7762 15.1255 34.9162C15.0409 35.0529 14.9383 35.1766 14.8179 35.2873C14.7007 35.3947 14.5688 35.4842 14.4224 35.5558C14.5916 35.6275 14.7446 35.7202 14.8813 35.8342C15.0213 35.9481 15.1401 36.0816 15.2378 36.2346C15.3387 36.3843 15.4152 36.5503 15.4673 36.7326C15.5226 36.9149 15.5503 37.1102 15.5503 37.3185C15.5503 37.6408 15.4998 37.9256 15.3989 38.173C15.3013 38.4204 15.1662 38.6288 14.9937 38.798C14.8244 38.9641 14.6242 39.0894 14.3931 39.174C14.1619 39.2586 13.9146 39.301 13.6509 39.301C13.3807 39.301 13.13 39.2586 12.8989 39.174C12.6678 39.0894 12.466 38.9641 12.2935 38.798C12.1242 38.6288 11.9907 38.4204 11.8931 38.173C11.7954 37.9256 11.7466 37.6408 11.7466 37.3185C11.7466 37.1102 11.7726 36.9149 11.8247 36.7326C11.8768 36.5503 11.9517 36.3843 12.0493 36.2346C12.147 36.0816 12.2642 35.9481 12.4009 35.8342C12.5376 35.7202 12.689 35.6275 12.855 35.5558C12.7085 35.4842 12.575 35.3947 12.4546 35.2873C12.3374 35.1766 12.2365 35.0529 12.1519 34.9162C12.0705 34.7762 12.007 34.6232 11.9614 34.4572C11.9159 34.2879 11.8931 34.1105 11.8931 33.925C11.8931 33.6157 11.937 33.3423 12.0249 33.1047C12.1128 32.8638 12.2349 32.662 12.3911 32.4992C12.5474 32.3332 12.7313 32.2079 12.9429 32.1232C13.1577 32.0386 13.3905 31.9963 13.6411 31.9963C13.8885 31.9963 14.1196 32.0386 14.3345 32.1232C14.5493 32.2079 14.7349 32.3332 14.8911 32.4992C15.0474 32.662 15.1694 32.8638 15.2573 33.1047C15.3485 33.3423 15.394 33.6157 15.394 33.925ZM15.0034 37.3185C15.0034 37.0939 14.9692 36.8889 14.9009 36.7033C14.8325 36.5178 14.7365 36.3599 14.6128 36.2297C14.4924 36.0962 14.3491 35.9937 14.1831 35.9221C14.0171 35.8472 13.8364 35.8098 13.6411 35.8098C13.4425 35.8098 13.2603 35.8472 13.0942 35.9221C12.9282 35.9937 12.785 36.0962 12.6646 36.2297C12.5441 36.3599 12.4497 36.5178 12.3813 36.7033C12.3162 36.8889 12.2837 37.0939 12.2837 37.3185C12.2837 37.5529 12.3162 37.7629 12.3813 37.9484C12.4497 38.1307 12.5441 38.2853 12.6646 38.4123C12.785 38.5392 12.9282 38.6353 13.0942 38.7004C13.2635 38.7655 13.4491 38.798 13.6509 38.798C13.8494 38.798 14.0301 38.7655 14.1929 38.7004C14.3589 38.6353 14.5021 38.5392 14.6226 38.4123C14.743 38.2853 14.8358 38.1307 14.9009 37.9484C14.9692 37.7629 15.0034 37.5529 15.0034 37.3185ZM14.8521 33.9201C14.8521 33.715 14.8211 33.5262 14.7593 33.3537C14.6974 33.1779 14.6128 33.0282 14.5054 32.9045C14.3979 32.7775 14.2694 32.6799 14.1196 32.6115C13.9731 32.5399 13.8136 32.5041 13.6411 32.5041C13.4653 32.5041 13.3042 32.5366 13.1577 32.6017C13.0112 32.6668 12.8843 32.7613 12.7769 32.8849C12.6727 33.0054 12.5897 33.1535 12.5278 33.3293C12.4692 33.5051 12.4399 33.702 12.4399 33.9201C12.4399 34.1317 12.4692 34.3238 12.5278 34.4963C12.5864 34.6655 12.6694 34.8104 12.7769 34.9308C12.8843 35.048 13.0112 35.1392 13.1577 35.2043C13.3075 35.2694 13.4702 35.3019 13.646 35.3019C13.8185 35.3019 13.978 35.2694 14.1245 35.2043C14.2743 35.1392 14.4028 35.048 14.5103 34.9308C14.6177 34.8104 14.7007 34.6655 14.7593 34.4963C14.8211 34.3238 14.8521 34.1317 14.8521 33.9201ZM20.3501 36.2346C20.3501 36.7586 20.3078 37.2144 20.2231 37.6017C20.1418 37.9859 20.0213 38.3049 19.8618 38.5588C19.7056 38.8094 19.5135 38.9966 19.2856 39.1203C19.0578 39.2407 18.799 39.301 18.5093 39.301C18.2228 39.301 17.9657 39.2407 17.7378 39.1203C17.5099 38.9966 17.3162 38.8094 17.1567 38.5588C16.9972 38.3049 16.8735 37.9859 16.7856 37.6017C16.701 37.2144 16.6587 36.7586 16.6587 36.2346V35.0432C16.6587 34.5191 16.701 34.0666 16.7856 33.6857C16.8703 33.3016 16.9907 32.9842 17.147 32.7336C17.3065 32.4829 17.5002 32.2974 17.728 32.1769C17.9559 32.0565 18.2131 31.9963 18.4995 31.9963C18.786 31.9963 19.0431 32.0565 19.271 32.1769C19.5021 32.2974 19.6974 32.4829 19.8569 32.7336C20.0164 32.9842 20.1385 33.3016 20.2231 33.6857C20.3078 34.0666 20.3501 34.5191 20.3501 35.0432V36.2346ZM19.8032 34.965C19.8032 34.1512 19.6942 33.5376 19.4761 33.1242C19.2612 32.7108 18.9357 32.5041 18.4995 32.5041C18.0698 32.5041 17.7443 32.7108 17.5229 33.1242C17.3049 33.5376 17.1958 34.1512 17.1958 34.965V36.3029C17.1958 36.7033 17.2235 37.0581 17.2788 37.3674C17.3374 37.6766 17.4204 37.937 17.5278 38.1486C17.6385 38.3602 17.7752 38.5213 17.938 38.632C18.104 38.7427 18.2944 38.798 18.5093 38.798C18.7274 38.798 18.9162 38.7427 19.0757 38.632C19.2384 38.5213 19.3735 38.3602 19.481 38.1486C19.5884 37.937 19.6681 37.6766 19.7202 37.3674C19.7756 37.0581 19.8032 36.7033 19.8032 36.3029V34.965ZM25.2134 36.2346C25.2134 36.7586 25.1711 37.2144 25.0864 37.6017C25.005 37.9859 24.8846 38.3049 24.7251 38.5588C24.5688 38.8094 24.3768 38.9966 24.1489 39.1203C23.9211 39.2407 23.6623 39.301 23.3726 39.301C23.0861 39.301 22.8289 39.2407 22.6011 39.1203C22.3732 38.9966 22.1795 38.8094 22.02 38.5588C21.8605 38.3049 21.7368 37.9859 21.6489 37.6017C21.5643 37.2144 21.522 36.7586 21.522 36.2346V35.0432C21.522 34.5191 21.5643 34.0666 21.6489 33.6857C21.7336 33.3016 21.854 32.9842 22.0103 32.7336C22.1698 32.4829 22.3634 32.2974 22.5913 32.1769C22.8192 32.0565 23.0763 31.9963 23.3628 31.9963C23.6493 31.9963 23.9064 32.0565 24.1343 32.1769C24.3654 32.2974 24.5607 32.4829 24.7202 32.7336C24.8797 32.9842 25.0018 33.3016 25.0864 33.6857C25.1711 34.0666 25.2134 34.5191 25.2134 35.0432V36.2346ZM24.6665 34.965C24.6665 34.1512 24.5575 33.5376 24.3394 33.1242C24.1245 32.7108 23.799 32.5041 23.3628 32.5041C22.9331 32.5041 22.6076 32.7108 22.3862 33.1242C22.1681 33.5376 22.0591 34.1512 22.0591 34.965V36.3029C22.0591 36.7033 22.0868 37.0581 22.1421 37.3674C22.2007 37.6766 22.2837 37.937 22.3911 38.1486C22.5018 38.3602 22.6385 38.5213 22.8013 38.632C22.9673 38.7427 23.1577 38.798 23.3726 38.798C23.5907 38.798 23.7795 38.7427 23.939 38.632C24.1017 38.5213 24.2368 38.3602 24.3442 38.1486C24.4517 37.937 24.5314 37.6766 24.5835 37.3674C24.6388 37.0581 24.6665 36.7033 24.6665 36.3029V34.965ZM30.0767 36.2346C30.0767 36.7586 30.0343 37.2144 29.9497 37.6017C29.8683 37.9859 29.7479 38.3049 29.5884 38.5588C29.4321 38.8094 29.2401 38.9966 29.0122 39.1203C28.7843 39.2407 28.5256 39.301 28.2358 39.301C27.9494 39.301 27.6922 39.2407 27.4644 39.1203C27.2365 38.9966 27.0428 38.8094 26.8833 38.5588C26.7238 38.3049 26.6001 37.9859 26.5122 37.6017C26.4276 37.2144 26.3853 36.7586 26.3853 36.2346V35.0432C26.3853 34.5191 26.4276 34.0666 26.5122 33.6857C26.5968 33.3016 26.7173 32.9842 26.8735 32.7336C27.033 32.4829 27.2267 32.2974 27.4546 32.1769C27.6825 32.0565 27.9396 31.9963 28.2261 31.9963C28.5125 31.9963 28.7697 32.0565 28.9976 32.1769C29.2287 32.2974 29.424 32.4829 29.5835 32.7336C29.743 32.9842 29.8651 33.3016 29.9497 33.6857C30.0343 34.0666 30.0767 34.5191 30.0767 35.0432V36.2346ZM29.5298 34.965C29.5298 34.1512 29.4207 33.5376 29.2026 33.1242C28.9878 32.7108 28.6623 32.5041 28.2261 32.5041C27.7964 32.5041 27.4709 32.7108 27.2495 33.1242C27.0314 33.5376 26.9224 34.1512 26.9224 34.965V36.3029C26.9224 36.7033 26.95 37.0581 27.0054 37.3674C27.064 37.6766 27.147 37.937 27.2544 38.1486C27.3651 38.3602 27.5018 38.5213 27.6646 38.632C27.8306 38.7427 28.021 38.798 28.2358 38.798C28.4539 38.798 28.6427 38.7427 28.8022 38.632C28.965 38.5213 29.1001 38.3602 29.2075 38.1486C29.3149 37.937 29.3947 37.6766 29.4468 37.3674C29.5021 37.0581 29.5298 36.7033 29.5298 36.3029V34.965ZM34.8667 36.7912H34.2173V39.2033H33.6704V33.9201H34.2173V36.259H34.8569L36.4585 33.9201H37.1323L35.311 36.4738L37.3228 39.2033H36.6147L34.8667 36.7912ZM40.9946 34.4328H38.7925V39.2033H38.2456V33.9201H40.9946V34.4328ZM15.3843 49.2033H14.8423V46.7863H12.5181V49.2033H11.9712V43.9201H12.5181V46.2834H14.8423V43.9201H15.3843V49.2033ZM19.6665 49.2033C19.6405 49.1154 19.6193 49.0064 19.603 48.8762C19.5868 48.7427 19.5754 48.6076 19.5688 48.4709C19.5005 48.5816 19.4191 48.6874 19.3247 48.7883C19.2303 48.8859 19.1213 48.9738 18.9976 49.0519C18.8771 49.1268 18.742 49.187 18.5923 49.2326C18.4425 49.2782 18.2814 49.301 18.1089 49.301C17.8908 49.301 17.6922 49.27 17.5132 49.2082C17.3374 49.1463 17.186 49.0536 17.0591 48.9299C16.9321 48.8062 16.8345 48.6516 16.7661 48.466C16.6978 48.2805 16.6636 48.064 16.6636 47.8166C16.6636 47.5724 16.7059 47.3478 16.7905 47.1428C16.8752 46.9344 17.0005 46.7554 17.1665 46.6057C17.3358 46.4559 17.5457 46.3387 17.7964 46.2541C18.047 46.1695 18.3384 46.1271 18.6704 46.1271H19.564V45.3898C19.564 45.0122 19.4696 44.742 19.2808 44.5793C19.0952 44.4133 18.8218 44.3303 18.4604 44.3303C18.2912 44.3303 18.1349 44.3563 17.9917 44.4084C17.8517 44.4605 17.7313 44.5337 17.6304 44.6281C17.5295 44.7193 17.4513 44.8299 17.396 44.9601C17.3407 45.0871 17.313 45.2271 17.313 45.3801L16.771 45.3752C16.771 45.1701 16.8117 44.9748 16.8931 44.7892C16.9744 44.6004 17.09 44.4344 17.2397 44.2912C17.3895 44.148 17.5701 44.034 17.7817 43.9494C17.9933 43.8648 18.2277 43.8224 18.4849 43.8224C18.7225 43.8224 18.939 43.8517 19.1343 43.9103C19.3328 43.9657 19.5037 44.0568 19.647 44.1838C19.7902 44.3075 19.9009 44.4702 19.979 44.6721C20.0604 44.8706 20.1011 45.1131 20.1011 45.3996V48.0949C20.1011 48.1861 20.1043 48.2805 20.1108 48.3781C20.1174 48.4758 20.1255 48.5718 20.1353 48.6662C20.1483 48.7573 20.1629 48.8452 20.1792 48.9299C20.1987 49.0113 20.2199 49.0829 20.2427 49.1447V49.2033H19.6665ZM18.1772 48.7785C18.3465 48.7785 18.5044 48.7557 18.6509 48.7101C18.8006 48.6613 18.9341 48.5962 19.0513 48.5148C19.1685 48.4302 19.2694 48.3325 19.354 48.2219C19.4419 48.1112 19.5119 47.9924 19.564 47.8654V46.5812H18.7485C18.2375 46.5812 17.8534 46.6887 17.5962 46.9035C17.339 47.1183 17.2104 47.4081 17.2104 47.7726C17.2104 48.121 17.2951 48.3765 17.4644 48.5392C17.6369 48.6988 17.8745 48.7785 18.1772 48.7785ZM27.5229 49.2033H23.7534V48.7443L25.7065 46.1076C25.8888 45.8602 26.0418 45.6372 26.1655 45.4387C26.2925 45.2401 26.3934 45.0562 26.4683 44.8869C26.5464 44.7144 26.6017 44.5532 26.6343 44.4035C26.6668 44.2538 26.6831 44.1057 26.6831 43.9592C26.6831 43.7476 26.6571 43.5523 26.605 43.3732C26.5529 43.1942 26.4764 43.0412 26.3755 42.9142C26.2746 42.784 26.1476 42.6831 25.9946 42.6115C25.8449 42.5399 25.6724 42.5041 25.4771 42.5041C25.272 42.5041 25.0881 42.5448 24.9253 42.6262C24.7625 42.7075 24.6242 42.8215 24.5103 42.968C24.3996 43.1144 24.3133 43.2886 24.2515 43.4904C24.1929 43.689 24.1636 43.9071 24.1636 44.1447H23.6216C23.6216 43.8517 23.6639 43.5751 23.7485 43.3146C23.8332 43.0542 23.9536 42.8264 24.1099 42.631C24.2694 42.4357 24.4631 42.2811 24.6909 42.1672C24.922 42.0532 25.1841 41.9963 25.4771 41.9963C25.7472 41.9963 25.9914 42.0402 26.2095 42.1281C26.4276 42.216 26.6115 42.3413 26.7612 42.5041C26.9142 42.6668 27.0314 42.867 27.1128 43.1047C27.1942 43.3423 27.2349 43.6092 27.2349 43.9055C27.2349 44.1203 27.2023 44.3368 27.1372 44.5549C27.0721 44.7697 26.9858 44.9846 26.8784 45.1994C26.771 45.4142 26.6457 45.6275 26.5024 45.8391C26.3625 46.0506 26.2176 46.259 26.0679 46.4641L24.4126 48.7004H27.5229V49.2033ZM29.2905 48.9641C29.2905 49.1105 29.2743 49.257 29.2417 49.4035C29.2124 49.55 29.1685 49.69 29.1099 49.8234C29.0513 49.9601 28.9797 50.0887 28.895 50.2092C28.8104 50.3296 28.7144 50.4387 28.6069 50.5363L28.2603 50.2775C28.41 50.0757 28.5239 49.8723 28.6021 49.6672C28.6802 49.4621 28.7192 49.231 28.7192 48.9738V48.2756H29.2905V48.9641ZM34.1587 46.2346C34.1587 46.7586 34.1164 47.2144 34.0317 47.6017C33.9504 47.9859 33.8299 48.3049 33.6704 48.5588C33.5142 48.8094 33.3221 48.9966 33.0942 49.1203C32.8664 49.2407 32.6076 49.301 32.3179 49.301C32.0314 49.301 31.7743 49.2407 31.5464 49.1203C31.3185 48.9966 31.1248 48.8094 30.9653 48.5588C30.8058 48.3049 30.6821 47.9859 30.5942 47.6017C30.5096 47.2144 30.4673 46.7586 30.4673 46.2346V45.0432C30.4673 44.5191 30.5096 44.0666 30.5942 43.6857C30.6789 43.3016 30.7993 42.9842 30.9556 42.7336C31.1151 42.4829 31.3088 42.2974 31.5366 42.1769C31.7645 42.0565 32.0216 41.9963 32.3081 41.9963C32.5946 41.9963 32.8517 42.0565 33.0796 42.1769C33.3107 42.2974 33.506 42.4829 33.6655 42.7336C33.825 42.9842 33.9471 43.3016 34.0317 43.6857C34.1164 44.0666 34.1587 44.5191 34.1587 45.0432V46.2346ZM33.6118 44.965C33.6118 44.1512 33.5028 43.5376 33.2847 43.1242C33.0698 42.7108 32.7443 42.5041 32.3081 42.5041C31.8784 42.5041 31.5529 42.7108 31.3315 43.1242C31.1134 43.5376 31.0044 44.1512 31.0044 44.965V46.3029C31.0044 46.7033 31.0321 47.0581 31.0874 47.3674C31.146 47.6766 31.229 47.937 31.3364 48.1486C31.4471 48.3602 31.5838 48.5213 31.7466 48.632C31.9126 48.7427 32.103 48.798 32.3179 48.798C32.536 48.798 32.7248 48.7427 32.8843 48.632C33.047 48.5213 33.1821 48.3602 33.2896 48.1486C33.397 47.937 33.4767 47.6766 33.5288 47.3674C33.5841 47.0581 33.6118 46.7033 33.6118 46.3029V44.965ZM37.9429 48.3976L39.6616 43.9201H40.3306V49.2033H39.7886V44.9601L38.1333 49.2033H37.7524L36.063 44.8527V49.2033H35.5259V43.9201H36.2339L37.9429 48.3976Z" fill="black"/>
<path d="M66.9146 36.9084H67.8276V37.4162H66.9146V39.2033H66.3726V37.4162H63.5796V37.0695L66.3286 32.0939H66.9146V36.9084ZM64.229 36.9084H66.3726V32.9142L66.1772 33.3098L64.229 36.9084ZM72.3589 36.2346C72.3589 36.7586 72.3166 37.2144 72.2319 37.6017C72.1506 37.9859 72.0301 38.3049 71.8706 38.5588C71.7144 38.8094 71.5223 38.9966 71.2944 39.1203C71.0666 39.2407 70.8078 39.301 70.5181 39.301C70.2316 39.301 69.9744 39.2407 69.7466 39.1203C69.5187 38.9966 69.325 38.8094 69.1655 38.5588C69.006 38.3049 68.8823 37.9859 68.7944 37.6017C68.7098 37.2144 68.6675 36.7586 68.6675 36.2346V35.0432C68.6675 34.5191 68.7098 34.0666 68.7944 33.6857C68.8791 33.3016 68.9995 32.9842 69.1558 32.7336C69.3153 32.4829 69.509 32.2974 69.7368 32.1769C69.9647 32.0565 70.2218 31.9963 70.5083 31.9963C70.7948 31.9963 71.0519 32.0565 71.2798 32.1769C71.5109 32.2974 71.7062 32.4829 71.8657 32.7336C72.0252 32.9842 72.1473 33.3016 72.2319 33.6857C72.3166 34.0666 72.3589 34.5191 72.3589 35.0432V36.2346ZM71.812 34.965C71.812 34.1512 71.703 33.5376 71.4849 33.1242C71.27 32.7108 70.9445 32.5041 70.5083 32.5041C70.0786 32.5041 69.7531 32.7108 69.5317 33.1242C69.3136 33.5376 69.2046 34.1512 69.2046 34.965V36.3029C69.2046 36.7033 69.2323 37.0581 69.2876 37.3674C69.3462 37.6766 69.4292 37.937 69.5366 38.1486C69.6473 38.3602 69.784 38.5213 69.9468 38.632C70.1128 38.7427 70.3032 38.798 70.5181 38.798C70.7362 38.798 70.925 38.7427 71.0845 38.632C71.2472 38.5213 71.3823 38.3602 71.4897 38.1486C71.5972 37.937 71.6769 37.6766 71.729 37.3674C71.7843 37.0581 71.812 36.7033 71.812 36.3029V34.965ZM73.9263 35.5607L74.2192 32.0939H77.2222V32.6506H74.6831L74.4829 35.0334C74.535 34.9911 74.5985 34.9471 74.6733 34.9016C74.7482 34.8527 74.8328 34.8104 74.9272 34.7746C75.0216 34.7355 75.1226 34.7046 75.23 34.6818C75.3407 34.6558 75.4578 34.6428 75.5815 34.6428C75.8485 34.6428 76.091 34.6965 76.3091 34.8039C76.5272 34.9081 76.7127 35.0594 76.8657 35.258C77.0187 35.4566 77.1375 35.6974 77.2222 35.9807C77.3068 36.2639 77.3491 36.5829 77.3491 36.9377C77.3491 37.2795 77.3133 37.5952 77.2417 37.8849C77.1701 38.1714 77.061 38.4204 76.9146 38.632C76.7681 38.8404 76.5809 39.0047 76.353 39.1252C76.1284 39.2424 75.8599 39.301 75.5474 39.301C75.3065 39.301 75.0802 39.2619 74.8687 39.1838C74.6603 39.1024 74.4748 38.9803 74.312 38.8176C74.1493 38.6548 74.0158 38.4497 73.9116 38.2023C73.8075 37.9549 73.744 37.6652 73.7212 37.3332H74.2388C74.2843 37.8117 74.4194 38.1763 74.644 38.4269C74.8687 38.6743 75.1698 38.798 75.5474 38.798C75.9608 38.798 76.2733 38.6369 76.4849 38.3146C76.6997 37.9924 76.8071 37.5366 76.8071 36.9474C76.8071 36.7001 76.7778 36.4689 76.7192 36.2541C76.6606 36.0392 76.5744 35.8537 76.4604 35.6974C76.3498 35.5379 76.2114 35.4142 76.0454 35.3264C75.8826 35.2352 75.6938 35.1896 75.479 35.1896C75.3358 35.1896 75.2104 35.2027 75.103 35.2287C74.9956 35.2515 74.8979 35.2857 74.8101 35.3312C74.7254 35.3736 74.6457 35.4256 74.5708 35.4875C74.4992 35.5493 74.4276 35.6193 74.356 35.6974L73.9263 35.5607ZM82.0854 36.2346C82.0854 36.7586 82.0431 37.2144 81.9585 37.6017C81.8771 37.9859 81.7567 38.3049 81.5972 38.5588C81.4409 38.8094 81.2489 38.9966 81.021 39.1203C80.7931 39.2407 80.5343 39.301 80.2446 39.301C79.9582 39.301 79.701 39.2407 79.4731 39.1203C79.2453 38.9966 79.0516 38.8094 78.8921 38.5588C78.7326 38.3049 78.6089 37.9859 78.521 37.6017C78.4364 37.2144 78.394 36.7586 78.394 36.2346V35.0432C78.394 34.5191 78.4364 34.0666 78.521 33.6857C78.6056 33.3016 78.7261 32.9842 78.8823 32.7336C79.0418 32.4829 79.2355 32.2974 79.4634 32.1769C79.6912 32.0565 79.9484 31.9963 80.2349 31.9963C80.5213 31.9963 80.7785 32.0565 81.0063 32.1769C81.2375 32.2974 81.4328 32.4829 81.5923 32.7336C81.7518 32.9842 81.8739 33.3016 81.9585 33.6857C82.0431 34.0666 82.0854 34.5191 82.0854 35.0432V36.2346ZM81.5386 34.965C81.5386 34.1512 81.4295 33.5376 81.2114 33.1242C80.9966 32.7108 80.6711 32.5041 80.2349 32.5041C79.8052 32.5041 79.4797 32.7108 79.2583 33.1242C79.0402 33.5376 78.9312 34.1512 78.9312 34.965V36.3029C78.9312 36.7033 78.9588 37.0581 79.0142 37.3674C79.0728 37.6766 79.1558 37.937 79.2632 38.1486C79.3739 38.3602 79.5106 38.5213 79.6733 38.632C79.8394 38.7427 80.0298 38.798 80.2446 38.798C80.4627 38.798 80.6515 38.7427 80.811 38.632C80.9738 38.5213 81.1089 38.3602 81.2163 38.1486C81.3237 37.937 81.4035 37.6766 81.4556 37.3674C81.5109 37.0581 81.5386 36.7033 81.5386 36.3029V34.965ZM86.8755 36.7912H86.2261V39.2033H85.6792V33.9201H86.2261V36.259H86.8657L88.4673 33.9201H89.1411L87.3198 36.4738L89.3315 39.2033H88.6235L86.8755 36.7912ZM93.0034 34.4328H90.8013V39.2033H90.2544V33.9201H93.0034V34.4328ZM67.3931 49.2033H66.8511V46.7863H64.5269V49.2033H63.98V43.9201H64.5269V46.2834H66.8511V43.9201H67.3931V49.2033ZM71.6753 49.2033C71.6493 49.1154 71.6281 49.0064 71.6118 48.8762C71.5955 48.7427 71.5841 48.6076 71.5776 48.4709C71.5093 48.5816 71.4279 48.6874 71.3335 48.7883C71.2391 48.8859 71.13 48.9738 71.0063 49.0519C70.8859 49.1268 70.7508 49.187 70.6011 49.2326C70.4513 49.2782 70.2902 49.301 70.1177 49.301C69.8996 49.301 69.701 49.27 69.522 49.2082C69.3462 49.1463 69.1948 49.0536 69.0679 48.9299C68.9409 48.8062 68.8433 48.6516 68.7749 48.466C68.7065 48.2805 68.6724 48.064 68.6724 47.8166C68.6724 47.5724 68.7147 47.3478 68.7993 47.1428C68.884 46.9344 69.0093 46.7554 69.1753 46.6057C69.3446 46.4559 69.5545 46.3387 69.8052 46.2541C70.0558 46.1695 70.3472 46.1271 70.6792 46.1271H71.5728V45.3898C71.5728 45.0122 71.4784 44.742 71.2896 44.5793C71.104 44.4133 70.8306 44.3303 70.4692 44.3303C70.3 44.3303 70.1437 44.3563 70.0005 44.4084C69.8605 44.4605 69.7401 44.5337 69.6392 44.6281C69.5382 44.7193 69.4601 44.8299 69.4048 44.9601C69.3494 45.0871 69.3218 45.2271 69.3218 45.3801L68.7798 45.3752C68.7798 45.1701 68.8205 44.9748 68.9019 44.7892C68.9832 44.6004 69.0988 44.4344 69.2485 44.2912C69.3983 44.148 69.5789 44.034 69.7905 43.9494C70.0021 43.8648 70.2365 43.8224 70.4937 43.8224C70.7313 43.8224 70.9478 43.8517 71.1431 43.9103C71.3416 43.9657 71.5125 44.0568 71.6558 44.1838C71.799 44.3075 71.9097 44.4702 71.9878 44.6721C72.0692 44.8706 72.1099 45.1131 72.1099 45.3996V48.0949C72.1099 48.1861 72.1131 48.2805 72.1196 48.3781C72.1261 48.4758 72.1343 48.5718 72.144 48.6662C72.1571 48.7573 72.1717 48.8452 72.188 48.9299C72.2075 49.0113 72.2287 49.0829 72.2515 49.1447V49.2033H71.6753ZM70.186 48.7785C70.3553 48.7785 70.5132 48.7557 70.6597 48.7101C70.8094 48.6613 70.9429 48.5962 71.0601 48.5148C71.1772 48.4302 71.2782 48.3325 71.3628 48.2219C71.4507 48.1112 71.5207 47.9924 71.5728 47.8654V46.5812H70.7573C70.2463 46.5812 69.8621 46.6887 69.605 46.9035C69.3478 47.1183 69.2192 47.4081 69.2192 47.7726C69.2192 48.121 69.3039 48.3765 69.4731 48.5392C69.6457 48.6988 69.8833 48.7785 70.186 48.7785ZM78.8091 46.9084H79.7222V47.4162H78.8091V49.2033H78.2671V47.4162H75.4741V47.0695L78.2231 42.0939H78.8091V46.9084ZM76.1235 46.9084H78.2671V42.9142L78.0718 43.3098L76.1235 46.9084ZM81.2993 48.9641C81.2993 49.1105 81.283 49.257 81.2505 49.4035C81.2212 49.55 81.1772 49.69 81.1187 49.8234C81.0601 49.9601 80.9884 50.0887 80.9038 50.2092C80.8192 50.3296 80.7231 50.4387 80.6157 50.5363L80.269 50.2775C80.4188 50.0757 80.5327 49.8723 80.6108 49.6672C80.689 49.4621 80.728 49.231 80.728 48.9738V48.2756H81.2993V48.9641ZM82.8716 45.5607L83.1646 42.0939H86.1675V42.6506H83.6284L83.4282 45.0334C83.4803 44.9911 83.5438 44.9471 83.6187 44.9016C83.6935 44.8527 83.7782 44.8104 83.8726 44.7746C83.967 44.7355 84.0679 44.7046 84.1753 44.6818C84.286 44.6558 84.4032 44.6428 84.5269 44.6428C84.7938 44.6428 85.0363 44.6965 85.2544 44.8039C85.4725 44.9081 85.658 45.0594 85.811 45.258C85.964 45.4566 86.0828 45.6974 86.1675 45.9807C86.2521 46.2639 86.2944 46.5829 86.2944 46.9377C86.2944 47.2795 86.2586 47.5952 86.187 47.8849C86.1154 48.1714 86.0063 48.4204 85.8599 48.632C85.7134 48.8404 85.5262 49.0047 85.2983 49.1252C85.0737 49.2424 84.8052 49.301 84.4927 49.301C84.2518 49.301 84.0256 49.2619 83.814 49.1838C83.6056 49.1024 83.4201 48.9803 83.2573 48.8176C83.0946 48.6548 82.9611 48.4497 82.8569 48.2023C82.7528 47.9549 82.6893 47.6652 82.6665 47.3332H83.1841C83.2297 47.8117 83.3647 48.1763 83.5894 48.4269C83.814 48.6743 84.1151 48.798 84.4927 48.798C84.9061 48.798 85.2186 48.6369 85.4302 48.3146C85.645 47.9924 85.7524 47.5366 85.7524 46.9474C85.7524 46.7001 85.7231 46.4689 85.6646 46.2541C85.606 46.0392 85.5197 45.8537 85.4058 45.6974C85.2951 45.5379 85.1567 45.4142 84.9907 45.3264C84.828 45.2352 84.6392 45.1896 84.4243 45.1896C84.2811 45.1896 84.1558 45.2027 84.0483 45.2287C83.9409 45.2515 83.8433 45.2857 83.7554 45.3312C83.6707 45.3736 83.591 45.4256 83.5161 45.4875C83.4445 45.5493 83.3729 45.6193 83.3013 45.6974L82.8716 45.5607ZM89.9517 48.3976L91.6704 43.9201H92.3394V49.2033H91.7974V44.9601L90.1421 49.2033H89.7612L88.0718 44.8527V49.2033H87.5347V43.9201H88.2427L89.9517 48.3976Z" fill="black"/>
<path d="M153.615 39.2033H149.845V38.7443L151.798 36.1076C151.981 35.8602 152.134 35.6372 152.257 35.4387C152.384 35.2401 152.485 35.0562 152.56 34.8869C152.638 34.7144 152.694 34.5532 152.726 34.4035C152.759 34.2538 152.775 34.1057 152.775 33.9592C152.775 33.7476 152.749 33.5523 152.697 33.3732C152.645 33.1942 152.568 33.0412 152.467 32.9142C152.366 32.784 152.239 32.6831 152.086 32.6115C151.937 32.5399 151.764 32.5041 151.569 32.5041C151.364 32.5041 151.18 32.5448 151.017 32.6262C150.854 32.7075 150.716 32.8215 150.602 32.968C150.491 33.1144 150.405 33.2886 150.343 33.4904C150.285 33.689 150.255 33.9071 150.255 34.1447H149.713C149.713 33.8517 149.756 33.5751 149.84 33.3146C149.925 33.0542 150.045 32.8264 150.202 32.631C150.361 32.4357 150.555 32.2811 150.783 32.1672C151.014 32.0532 151.276 31.9963 151.569 31.9963C151.839 31.9963 152.083 32.0402 152.301 32.1281C152.519 32.216 152.703 32.3413 152.853 32.5041C153.006 32.6668 153.123 32.867 153.205 33.1047C153.286 33.3423 153.327 33.6092 153.327 33.9055C153.327 34.1203 153.294 34.3368 153.229 34.5549C153.164 34.7697 153.078 34.9846 152.97 35.1994C152.863 35.4142 152.737 35.6275 152.594 35.8391C152.454 36.0506 152.309 36.259 152.16 36.4641L150.504 38.7004H153.615V39.2033ZM157.033 39.2033H156.486V32.8117L154.879 33.5295V32.9728L156.94 32.0695H157.033V39.2033ZM163.2 36.2346C163.2 36.7586 163.157 37.2144 163.073 37.6017C162.991 37.9859 162.871 38.3049 162.711 38.5588C162.555 38.8094 162.363 38.9966 162.135 39.1203C161.907 39.2407 161.649 39.301 161.359 39.301C161.072 39.301 160.815 39.2407 160.587 39.1203C160.36 38.9966 160.166 38.8094 160.006 38.5588C159.847 38.3049 159.723 37.9859 159.635 37.6017C159.551 37.2144 159.508 36.7586 159.508 36.2346V35.0432C159.508 34.5191 159.551 34.0666 159.635 33.6857C159.72 33.3016 159.84 32.9842 159.997 32.7336C160.156 32.4829 160.35 32.2974 160.578 32.1769C160.806 32.0565 161.063 31.9963 161.349 31.9963C161.636 31.9963 161.893 32.0565 162.121 32.1769C162.352 32.2974 162.547 32.4829 162.707 32.7336C162.866 32.9842 162.988 33.3016 163.073 33.6857C163.157 34.0666 163.2 34.5191 163.2 35.0432V36.2346ZM162.653 34.965C162.653 34.1512 162.544 33.5376 162.326 33.1242C162.111 32.7108 161.785 32.5041 161.349 32.5041C160.919 32.5041 160.594 32.7108 160.373 33.1242C160.154 33.5376 160.045 34.1512 160.045 34.965V36.3029C160.045 36.7033 160.073 37.0581 160.128 37.3674C160.187 37.6766 160.27 37.937 160.377 38.1486C160.488 38.3602 160.625 38.5213 160.788 38.632C160.954 38.7427 161.144 38.798 161.359 38.798C161.577 38.798 161.766 38.7427 161.925 38.632C162.088 38.5213 162.223 38.3602 162.331 38.1486C162.438 37.937 162.518 37.6766 162.57 37.3674C162.625 37.0581 162.653 36.7033 162.653 36.3029V34.965ZM168.063 36.2346C168.063 36.7586 168.021 37.2144 167.936 37.6017C167.855 37.9859 167.734 38.3049 167.575 38.5588C167.418 38.8094 167.226 38.9966 166.999 39.1203C166.771 39.2407 166.512 39.301 166.222 39.301C165.936 39.301 165.679 39.2407 165.451 39.1203C165.223 38.9966 165.029 38.8094 164.87 38.5588C164.71 38.3049 164.586 37.9859 164.499 37.6017C164.414 37.2144 164.372 36.7586 164.372 36.2346V35.0432C164.372 34.5191 164.414 34.0666 164.499 33.6857C164.583 33.3016 164.704 32.9842 164.86 32.7336C165.019 32.4829 165.213 32.2974 165.441 32.1769C165.669 32.0565 165.926 31.9963 166.212 31.9963C166.499 31.9963 166.756 32.0565 166.984 32.1769C167.215 32.2974 167.41 32.4829 167.57 32.7336C167.729 32.9842 167.851 33.3016 167.936 33.6857C168.021 34.0666 168.063 34.5191 168.063 35.0432V36.2346ZM167.516 34.965C167.516 34.1512 167.407 33.5376 167.189 33.1242C166.974 32.7108 166.649 32.5041 166.212 32.5041C165.783 32.5041 165.457 32.7108 165.236 33.1242C165.018 33.5376 164.909 34.1512 164.909 34.965V36.3029C164.909 36.7033 164.936 37.0581 164.992 37.3674C165.05 37.6766 165.133 37.937 165.241 38.1486C165.351 38.3602 165.488 38.5213 165.651 38.632C165.817 38.7427 166.007 38.798 166.222 38.798C166.44 38.798 166.629 38.7427 166.789 38.632C166.951 38.5213 167.086 38.3602 167.194 38.1486C167.301 37.937 167.381 37.6766 167.433 37.3674C167.488 37.0581 167.516 36.7033 167.516 36.3029V34.965ZM172.853 36.7912H172.204V39.2033H171.657V33.9201H172.204V36.259H172.843L174.445 33.9201H175.119L173.297 36.4738L175.309 39.2033H174.601L172.853 36.7912ZM178.981 34.4328H176.779V39.2033H176.232V33.9201H178.981V34.4328ZM153.371 49.2033H152.829V46.7863H150.504V49.2033H149.958V43.9201H150.504V46.2834H152.829V43.9201H153.371V49.2033ZM157.653 49.2033C157.627 49.1154 157.606 49.0064 157.589 48.8762C157.573 48.7427 157.562 48.6076 157.555 48.4709C157.487 48.5816 157.405 48.6874 157.311 48.7883C157.217 48.8859 157.108 48.9738 156.984 49.0519C156.863 49.1268 156.728 49.187 156.579 49.2326C156.429 49.2782 156.268 49.301 156.095 49.301C155.877 49.301 155.679 49.27 155.5 49.2082C155.324 49.1463 155.172 49.0536 155.045 48.9299C154.918 48.8062 154.821 48.6516 154.752 48.466C154.684 48.2805 154.65 48.064 154.65 47.8166C154.65 47.5724 154.692 47.3478 154.777 47.1428C154.861 46.9344 154.987 46.7554 155.153 46.6057C155.322 46.4559 155.532 46.3387 155.783 46.2541C156.033 46.1695 156.325 46.1271 156.657 46.1271H157.55V45.3898C157.55 45.0122 157.456 44.742 157.267 44.5793C157.082 44.4133 156.808 44.3303 156.447 44.3303C156.278 44.3303 156.121 44.3563 155.978 44.4084C155.838 44.4605 155.718 44.5337 155.617 44.6281C155.516 44.7193 155.438 44.8299 155.382 44.9601C155.327 45.0871 155.299 45.2271 155.299 45.3801L154.757 45.3752C154.757 45.1701 154.798 44.9748 154.879 44.7892C154.961 44.6004 155.076 44.4344 155.226 44.2912C155.376 44.148 155.556 44.034 155.768 43.9494C155.98 43.8648 156.214 43.8224 156.471 43.8224C156.709 43.8224 156.925 43.8517 157.121 43.9103C157.319 43.9657 157.49 44.0568 157.633 44.1838C157.777 44.3075 157.887 44.4702 157.965 44.6721C158.047 44.8706 158.087 45.1131 158.087 45.3996V48.0949C158.087 48.1861 158.091 48.2805 158.097 48.3781C158.104 48.4758 158.112 48.5718 158.122 48.6662C158.135 48.7573 158.149 48.8452 158.166 48.9299C158.185 49.0113 158.206 49.0829 158.229 49.1447V49.2033H157.653ZM156.164 48.7785C156.333 48.7785 156.491 48.7557 156.637 48.7101C156.787 48.6613 156.92 48.5962 157.038 48.5148C157.155 48.4302 157.256 48.3325 157.34 48.2219C157.428 48.1112 157.498 47.9924 157.55 47.8654V46.5812H156.735C156.224 46.5812 155.84 46.6887 155.583 46.9035C155.325 47.1183 155.197 47.4081 155.197 47.7726C155.197 48.121 155.281 48.3765 155.451 48.5392C155.623 48.6988 155.861 48.7785 156.164 48.7785ZM165.451 42.4357L162.912 49.2033H162.345L164.87 42.6017H161.505V42.0939H165.451V42.4357ZM167.277 48.9641C167.277 49.1105 167.261 49.257 167.228 49.4035C167.199 49.55 167.155 49.69 167.096 49.8234C167.038 49.9601 166.966 50.0887 166.881 50.2092C166.797 50.3296 166.701 50.4387 166.593 50.5363L166.247 50.2775C166.396 50.0757 166.51 49.8723 166.588 49.6672C166.667 49.4621 166.706 49.231 166.706 48.9738V48.2756H167.277V48.9641ZM171.564 46.9084H172.477V47.4162H171.564V49.2033H171.022V47.4162H168.229V47.0695L170.978 42.0939H171.564V46.9084ZM168.878 46.9084H171.022V42.9142L170.827 43.3098L168.878 46.9084ZM175.929 48.3976L177.648 43.9201H178.317V49.2033H177.775V44.9601L176.12 49.2033H175.739L174.049 44.8527V49.2033H173.512V43.9201H174.22L175.929 48.3976Z" fill="black"/>
<path d="M210.004 39.2033H209.457V32.8117L207.85 33.5295V32.9728L209.911 32.0695H210.004V39.2033ZM213.632 35.3264H214.144C214.369 35.3264 214.564 35.2905 214.73 35.2189C214.899 35.1441 215.041 35.0448 215.155 34.9211C215.269 34.7974 215.354 34.6525 215.409 34.4865C215.468 34.3172 215.497 34.1382 215.497 33.9494C215.497 33.7346 215.472 33.5392 215.424 33.3635C215.375 33.1844 215.3 33.0314 215.199 32.9045C215.098 32.7775 214.971 32.6799 214.818 32.6115C214.668 32.5399 214.489 32.5041 214.281 32.5041C214.099 32.5041 213.929 32.5383 213.773 32.6066C213.62 32.6717 213.487 32.7678 213.373 32.8947C213.262 33.0217 213.174 33.1747 213.109 33.3537C213.047 33.5327 213.016 33.7346 213.016 33.9592H212.474C212.474 33.6727 212.518 33.409 212.606 33.1682C212.697 32.9273 212.823 32.7206 212.982 32.548C213.145 32.3755 213.337 32.2404 213.558 32.1428C213.78 32.0451 214.021 31.9963 214.281 31.9963C214.545 31.9963 214.784 32.0402 214.999 32.1281C215.217 32.216 215.402 32.3446 215.555 32.5139C215.712 32.6799 215.83 32.8849 215.912 33.1291C215.997 33.3732 216.039 33.6532 216.039 33.9689C216.039 34.1284 216.018 34.2879 215.975 34.4474C215.933 34.6037 215.87 34.7518 215.785 34.8918C215.7 35.0318 215.594 35.1603 215.468 35.2775C215.341 35.3915 215.192 35.4859 215.023 35.5607C215.222 35.6258 215.391 35.7154 215.531 35.8293C215.674 35.9432 215.791 36.0751 215.883 36.2248C215.974 36.3713 216.04 36.534 216.083 36.7131C216.125 36.8889 216.146 37.0744 216.146 37.2697C216.146 37.592 216.099 37.8801 216.005 38.134C215.913 38.3846 215.785 38.5978 215.619 38.7736C215.453 38.9461 215.256 39.078 215.028 39.1691C214.803 39.257 214.559 39.301 214.296 39.301C214.052 39.301 213.814 39.2586 213.583 39.174C213.355 39.0894 213.151 38.9641 212.972 38.798C212.797 38.6288 212.655 38.4188 212.548 38.1682C212.443 37.9142 212.391 37.618 212.391 37.2795H212.933C212.933 37.5041 212.966 37.7092 213.031 37.8947C213.099 38.0803 213.192 38.2398 213.309 38.3732C213.43 38.5067 213.573 38.6109 213.739 38.6857C213.908 38.7606 214.094 38.798 214.296 38.798C214.709 38.798 215.03 38.6695 215.258 38.4123C215.489 38.1519 215.604 37.7775 215.604 37.2892C215.604 37.0353 215.568 36.8172 215.497 36.6349C215.428 36.4494 215.329 36.298 215.199 36.1808C215.072 36.0604 214.919 35.9725 214.74 35.9172C214.561 35.8618 214.362 35.8342 214.144 35.8342H213.632V35.3264ZM221.034 36.2346C221.034 36.7586 220.992 37.2144 220.907 37.6017C220.826 37.9859 220.705 38.3049 220.546 38.5588C220.389 38.8094 220.197 38.9966 219.969 39.1203C219.742 39.2407 219.483 39.301 219.193 39.301C218.907 39.301 218.649 39.2407 218.422 39.1203C218.194 38.9966 218 38.8094 217.841 38.5588C217.681 38.3049 217.557 37.9859 217.469 37.6017C217.385 37.2144 217.343 36.7586 217.343 36.2346V35.0432C217.343 34.5191 217.385 34.0666 217.469 33.6857C217.554 33.3016 217.675 32.9842 217.831 32.7336C217.99 32.4829 218.184 32.2974 218.412 32.1769C218.64 32.0565 218.897 31.9963 219.183 31.9963C219.47 31.9963 219.727 32.0565 219.955 32.1769C220.186 32.2974 220.381 32.4829 220.541 32.7336C220.7 32.9842 220.822 33.3016 220.907 33.6857C220.992 34.0666 221.034 34.5191 221.034 35.0432V36.2346ZM220.487 34.965C220.487 34.1512 220.378 33.5376 220.16 33.1242C219.945 32.7108 219.62 32.5041 219.183 32.5041C218.754 32.5041 218.428 32.7108 218.207 33.1242C217.989 33.5376 217.88 34.1512 217.88 34.965V36.3029C217.88 36.7033 217.907 37.0581 217.963 37.3674C218.021 37.6766 218.104 37.937 218.212 38.1486C218.322 38.3602 218.459 38.5213 218.622 38.632C218.788 38.7427 218.978 38.798 219.193 38.798C219.411 38.798 219.6 38.7427 219.76 38.632C219.922 38.5213 220.057 38.3602 220.165 38.1486C220.272 37.937 220.352 37.6766 220.404 37.3674C220.459 37.0581 220.487 36.7033 220.487 36.3029V34.965ZM225.897 36.2346C225.897 36.7586 225.855 37.2144 225.77 37.6017C225.689 37.9859 225.568 38.3049 225.409 38.5588C225.253 38.8094 225.061 38.9966 224.833 39.1203C224.605 39.2407 224.346 39.301 224.056 39.301C223.77 39.301 223.513 39.2407 223.285 39.1203C223.057 38.9966 222.863 38.8094 222.704 38.5588C222.544 38.3049 222.421 37.9859 222.333 37.6017C222.248 37.2144 222.206 36.7586 222.206 36.2346V35.0432C222.206 34.5191 222.248 34.0666 222.333 33.6857C222.417 33.3016 222.538 32.9842 222.694 32.7336C222.854 32.4829 223.047 32.2974 223.275 32.1769C223.503 32.0565 223.76 31.9963 224.047 31.9963C224.333 31.9963 224.59 32.0565 224.818 32.1769C225.049 32.2974 225.245 32.4829 225.404 32.7336C225.564 32.9842 225.686 33.3016 225.77 33.6857C225.855 34.0666 225.897 34.5191 225.897 35.0432V36.2346ZM225.35 34.965C225.35 34.1512 225.241 33.5376 225.023 33.1242C224.808 32.7108 224.483 32.5041 224.047 32.5041C223.617 32.5041 223.291 32.7108 223.07 33.1242C222.852 33.5376 222.743 34.1512 222.743 34.965V36.3029C222.743 36.7033 222.771 37.0581 222.826 37.3674C222.885 37.6766 222.968 37.937 223.075 38.1486C223.186 38.3602 223.322 38.5213 223.485 38.632C223.651 38.7427 223.842 38.798 224.056 38.798C224.274 38.798 224.463 38.7427 224.623 38.632C224.786 38.5213 224.921 38.3602 225.028 38.1486C225.135 37.937 225.215 37.6766 225.267 37.3674C225.323 37.0581 225.35 36.7033 225.35 36.3029V34.965ZM230.687 36.7912H230.038V39.2033H229.491V33.9201H230.038V36.259H230.677L232.279 33.9201H232.953L231.132 36.4738L233.143 39.2033H232.435L230.687 36.7912ZM236.815 34.4328H234.613V39.2033H234.066V33.9201H236.815V34.4328ZM211.205 49.2033H210.663V46.7863H208.339V49.2033H207.792V43.9201H208.339V46.2834H210.663V43.9201H211.205V49.2033ZM215.487 49.2033C215.461 49.1154 215.44 49.0064 215.424 48.8762C215.407 48.7427 215.396 48.6076 215.389 48.4709C215.321 48.5816 215.24 48.6874 215.145 48.7883C215.051 48.8859 214.942 48.9738 214.818 49.0519C214.698 49.1268 214.563 49.187 214.413 49.2326C214.263 49.2782 214.102 49.301 213.929 49.301C213.711 49.301 213.513 49.27 213.334 49.2082C213.158 49.1463 213.007 49.0536 212.88 48.9299C212.753 48.8062 212.655 48.6516 212.587 48.466C212.518 48.2805 212.484 48.064 212.484 47.8166C212.484 47.5724 212.526 47.3478 212.611 47.1428C212.696 46.9344 212.821 46.7554 212.987 46.6057C213.156 46.4559 213.366 46.3387 213.617 46.2541C213.868 46.1695 214.159 46.1271 214.491 46.1271H215.385V45.3898C215.385 45.0122 215.29 44.742 215.101 44.5793C214.916 44.4133 214.642 44.3303 214.281 44.3303C214.112 44.3303 213.955 44.3563 213.812 44.4084C213.672 44.4605 213.552 44.5337 213.451 44.6281C213.35 44.7193 213.272 44.8299 213.217 44.9601C213.161 45.0871 213.134 45.2271 213.134 45.3801L212.592 45.3752C212.592 45.1701 212.632 44.9748 212.714 44.7892C212.795 44.6004 212.911 44.4344 213.06 44.2912C213.21 44.148 213.391 44.034 213.602 43.9494C213.814 43.8648 214.048 43.8224 214.305 43.8224C214.543 43.8224 214.76 43.8517 214.955 43.9103C215.153 43.9657 215.324 44.0568 215.468 44.1838C215.611 44.3075 215.721 44.4702 215.8 44.6721C215.881 44.8706 215.922 45.1131 215.922 45.3996V48.0949C215.922 48.1861 215.925 48.2805 215.931 48.3781C215.938 48.4758 215.946 48.5718 215.956 48.6662C215.969 48.7573 215.983 48.8452 216 48.9299C216.019 49.0113 216.04 49.0829 216.063 49.1447V49.2033H215.487ZM213.998 48.7785C214.167 48.7785 214.325 48.7557 214.471 48.7101C214.621 48.6613 214.755 48.5962 214.872 48.5148C214.989 48.4302 215.09 48.3325 215.175 48.2219C215.262 48.1112 215.332 47.9924 215.385 47.8654V46.5812H214.569C214.058 46.5812 213.674 46.6887 213.417 46.9035C213.16 47.1183 213.031 47.4081 213.031 47.7726C213.031 48.121 213.116 48.3765 213.285 48.5392C213.457 48.6988 213.695 48.7785 213.998 48.7785ZM221.898 49.2033H221.351V42.8117L219.745 43.5295V42.9728L221.805 42.0695H221.898V49.2033ZM228.065 46.2346C228.065 46.7586 228.023 47.2144 227.938 47.6017C227.857 47.9859 227.736 48.3049 227.577 48.5588C227.421 48.8094 227.229 48.9966 227.001 49.1203C226.773 49.2407 226.514 49.301 226.224 49.301C225.938 49.301 225.681 49.2407 225.453 49.1203C225.225 48.9966 225.031 48.8094 224.872 48.5588C224.712 48.3049 224.589 47.9859 224.501 47.6017C224.416 47.2144 224.374 46.7586 224.374 46.2346V45.0432C224.374 44.5191 224.416 44.0666 224.501 43.6857C224.585 43.3016 224.706 42.9842 224.862 42.7336C225.022 42.4829 225.215 42.2974 225.443 42.1769C225.671 42.0565 225.928 41.9963 226.215 41.9963C226.501 41.9963 226.758 42.0565 226.986 42.1769C227.217 42.2974 227.413 42.4829 227.572 42.7336C227.732 42.9842 227.854 43.3016 227.938 43.6857C228.023 44.0666 228.065 44.5191 228.065 45.0432V46.2346ZM227.518 44.965C227.518 44.1512 227.409 43.5376 227.191 43.1242C226.976 42.7108 226.651 42.5041 226.215 42.5041C225.785 42.5041 225.459 42.7108 225.238 43.1242C225.02 43.5376 224.911 44.1512 224.911 44.965V46.3029C224.911 46.7033 224.939 47.0581 224.994 47.3674C225.052 47.6766 225.135 47.937 225.243 48.1486C225.354 48.3602 225.49 48.5213 225.653 48.632C225.819 48.7427 226.01 48.798 226.224 48.798C226.442 48.798 226.631 48.7427 226.791 48.632C226.954 48.5213 227.089 48.3602 227.196 48.1486C227.303 47.937 227.383 47.6766 227.435 47.3674C227.491 47.0581 227.518 46.7033 227.518 46.3029V44.965ZM229.974 48.9641C229.974 49.1105 229.958 49.257 229.926 49.4035C229.896 49.55 229.852 49.69 229.794 49.8234C229.735 49.9601 229.663 50.0887 229.579 50.2092C229.494 50.3296 229.398 50.4387 229.291 50.5363L228.944 50.2775C229.094 50.0757 229.208 49.8723 229.286 49.6672C229.364 49.4621 229.403 49.231 229.403 48.9738V48.2756H229.974V48.9641ZM232.303 45.3264H232.816C233.041 45.3264 233.236 45.2905 233.402 45.2189C233.571 45.1441 233.713 45.0448 233.827 44.9211C233.941 44.7974 234.025 44.6525 234.081 44.4865C234.139 44.3172 234.169 44.1382 234.169 43.9494C234.169 43.7346 234.144 43.5392 234.095 43.3635C234.047 43.1844 233.972 43.0314 233.871 42.9045C233.77 42.7775 233.643 42.6799 233.49 42.6115C233.34 42.5399 233.161 42.5041 232.953 42.5041C232.771 42.5041 232.601 42.5383 232.445 42.6066C232.292 42.6717 232.159 42.7678 232.045 42.8947C231.934 43.0217 231.846 43.1747 231.781 43.3537C231.719 43.5327 231.688 43.7346 231.688 43.9592H231.146C231.146 43.6727 231.19 43.409 231.278 43.1682C231.369 42.9273 231.495 42.7206 231.654 42.548C231.817 42.3755 232.009 42.2404 232.23 42.1428C232.452 42.0451 232.692 41.9963 232.953 41.9963C233.217 41.9963 233.456 42.0402 233.671 42.1281C233.889 42.216 234.074 42.3446 234.227 42.5139C234.384 42.6799 234.502 42.8849 234.584 43.1291C234.668 43.3732 234.711 43.6532 234.711 43.9689C234.711 44.1284 234.69 44.2879 234.647 44.4474C234.605 44.6037 234.541 44.7518 234.457 44.8918C234.372 45.0318 234.266 45.1603 234.139 45.2775C234.012 45.3915 233.864 45.4859 233.695 45.5607C233.894 45.6258 234.063 45.7154 234.203 45.8293C234.346 45.9432 234.463 46.0751 234.554 46.2248C234.646 46.3713 234.712 46.534 234.755 46.7131C234.797 46.8889 234.818 47.0744 234.818 47.2697C234.818 47.592 234.771 47.8801 234.677 48.134C234.585 48.3846 234.457 48.5978 234.291 48.7736C234.125 48.9461 233.928 49.078 233.7 49.1691C233.475 49.257 233.231 49.301 232.968 49.301C232.723 49.301 232.486 49.2586 232.255 49.174C232.027 49.0894 231.823 48.9641 231.644 48.798C231.469 48.6288 231.327 48.4188 231.219 48.1682C231.115 47.9142 231.063 47.618 231.063 47.2795H231.605C231.605 47.5041 231.638 47.7092 231.703 47.8947C231.771 48.0803 231.864 48.2398 231.981 48.3732C232.102 48.5067 232.245 48.6109 232.411 48.6857C232.58 48.7606 232.766 48.798 232.968 48.798C233.381 48.798 233.702 48.6695 233.929 48.4123C234.161 48.1519 234.276 47.7775 234.276 47.2892C234.276 47.0353 234.24 46.8172 234.169 46.6349C234.1 46.4494 234.001 46.298 233.871 46.1808C233.744 46.0604 233.591 45.9725 233.412 45.9172C233.233 45.8618 233.034 45.8342 232.816 45.8342H232.303V45.3264ZM238.627 48.3976L240.345 43.9201H241.014V49.2033H240.472V44.9601L238.817 49.2033H238.436L236.747 44.8527V49.2033H236.21V43.9201H236.918L238.627 48.3976Z" fill="black"/>
<path d="M269.854 38.7346C270.271 38.7346 270.621 38.6646 270.904 38.5246C271.188 38.3846 271.415 38.1909 271.588 37.9435C271.764 37.6929 271.891 37.3999 271.969 37.0646C272.047 36.7261 272.091 36.3583 272.101 35.9611C272.019 36.0978 271.925 36.2232 271.817 36.3371C271.713 36.4478 271.599 36.5438 271.476 36.6252C271.352 36.7033 271.22 36.7652 271.08 36.8107C270.94 36.853 270.794 36.8742 270.641 36.8742C270.357 36.8742 270.108 36.8075 269.894 36.674C269.682 36.5405 269.505 36.3631 269.361 36.1418C269.218 35.9204 269.111 35.6665 269.039 35.3801C268.967 35.0936 268.932 34.7974 268.932 34.4914C268.932 34.1496 268.972 33.8273 269.054 33.5246C269.135 33.2219 269.252 32.9582 269.405 32.7336C269.558 32.5057 269.747 32.3267 269.972 32.1965C270.196 32.063 270.453 31.9963 270.743 31.9963C271.065 31.9963 271.345 32.0679 271.583 32.2111C271.824 32.3511 272.022 32.5464 272.179 32.7971C272.335 33.0477 272.451 33.3472 272.525 33.6955C272.604 34.0438 272.643 34.423 272.643 34.8332V35.3947C272.643 35.743 272.625 36.0816 272.589 36.4103C272.553 36.7359 272.493 37.0418 272.408 37.3283C272.327 37.6148 272.216 37.8768 272.076 38.1144C271.939 38.3488 271.767 38.5506 271.559 38.7199C271.354 38.8892 271.109 39.021 270.826 39.1154C270.546 39.2066 270.222 39.2521 269.854 39.2521H269.752L269.757 38.7346H269.854ZM270.714 36.3615C270.89 36.3615 271.052 36.3273 271.202 36.259C271.352 36.1874 271.485 36.0946 271.603 35.9807C271.72 35.8667 271.821 35.7365 271.905 35.59C271.99 35.4403 272.057 35.2873 272.105 35.131V34.7746C272.105 34.4035 272.071 34.078 272.003 33.798C271.935 33.5148 271.84 33.2788 271.72 33.09C271.599 32.898 271.456 32.7531 271.29 32.6555C271.124 32.5578 270.943 32.509 270.748 32.509C270.546 32.509 270.366 32.5627 270.206 32.6701C270.05 32.7743 269.916 32.9159 269.806 33.0949C269.695 33.2739 269.61 33.4823 269.552 33.7199C269.493 33.9543 269.464 34.2033 269.464 34.467C269.464 34.7079 269.49 34.9422 269.542 35.1701C269.597 35.398 269.677 35.5998 269.781 35.7756C269.885 35.9514 270.016 36.093 270.172 36.2004C270.328 36.3078 270.509 36.3615 270.714 36.3615ZM274.264 35.5607L274.557 32.0939H277.56V32.6506H275.021L274.82 35.0334C274.872 34.9911 274.936 34.9471 275.011 34.9016C275.086 34.8527 275.17 34.8104 275.265 34.7746C275.359 34.7355 275.46 34.7046 275.567 34.6818C275.678 34.6558 275.795 34.6428 275.919 34.6428C276.186 34.6428 276.428 34.6965 276.646 34.8039C276.865 34.9081 277.05 35.0594 277.203 35.258C277.356 35.4566 277.475 35.6974 277.56 35.9807C277.644 36.2639 277.687 36.5829 277.687 36.9377C277.687 37.2795 277.651 37.5952 277.579 37.8849C277.507 38.1714 277.398 38.4204 277.252 38.632C277.105 38.8404 276.918 39.0047 276.69 39.1252C276.466 39.2424 276.197 39.301 275.885 39.301C275.644 39.301 275.418 39.2619 275.206 39.1838C274.998 39.1024 274.812 38.9803 274.649 38.8176C274.487 38.6548 274.353 38.4497 274.249 38.2023C274.145 37.9549 274.081 37.6652 274.059 37.3332H274.576C274.622 37.8117 274.757 38.1763 274.981 38.4269C275.206 38.6743 275.507 38.798 275.885 38.798C276.298 38.798 276.611 38.6369 276.822 38.3146C277.037 37.9924 277.145 37.5366 277.145 36.9474C277.145 36.7001 277.115 36.4689 277.057 36.2541C276.998 36.0392 276.912 35.8537 276.798 35.6974C276.687 35.5379 276.549 35.4142 276.383 35.3264C276.22 35.2352 276.031 35.1896 275.816 35.1896C275.673 35.1896 275.548 35.2027 275.44 35.2287C275.333 35.2515 275.235 35.2857 275.147 35.3312C275.063 35.3736 274.983 35.4256 274.908 35.4875C274.837 35.5493 274.765 35.6193 274.693 35.6974L274.264 35.5607ZM282.423 36.2346C282.423 36.7586 282.381 37.2144 282.296 37.6017C282.215 37.9859 282.094 38.3049 281.935 38.5588C281.778 38.8094 281.586 38.9966 281.358 39.1203C281.131 39.2407 280.872 39.301 280.582 39.301C280.296 39.301 280.038 39.2407 279.811 39.1203C279.583 38.9966 279.389 38.8094 279.229 38.5588C279.07 38.3049 278.946 37.9859 278.858 37.6017C278.774 37.2144 278.731 36.7586 278.731 36.2346V35.0432C278.731 34.5191 278.774 34.0666 278.858 33.6857C278.943 33.3016 279.063 32.9842 279.22 32.7336C279.379 32.4829 279.573 32.2974 279.801 32.1769C280.029 32.0565 280.286 31.9963 280.572 31.9963C280.859 31.9963 281.116 32.0565 281.344 32.1769C281.575 32.2974 281.77 32.4829 281.93 32.7336C282.089 32.9842 282.211 33.3016 282.296 33.6857C282.381 34.0666 282.423 34.5191 282.423 35.0432V36.2346ZM281.876 34.965C281.876 34.1512 281.767 33.5376 281.549 33.1242C281.334 32.7108 281.008 32.5041 280.572 32.5041C280.143 32.5041 279.817 32.7108 279.596 33.1242C279.378 33.5376 279.269 34.1512 279.269 34.965V36.3029C279.269 36.7033 279.296 37.0581 279.352 37.3674C279.41 37.6766 279.493 37.937 279.601 38.1486C279.711 38.3602 279.848 38.5213 280.011 38.632C280.177 38.7427 280.367 38.798 280.582 38.798C280.8 38.798 280.989 38.7427 281.148 38.632C281.311 38.5213 281.446 38.3602 281.554 38.1486C281.661 37.937 281.741 37.6766 281.793 37.3674C281.848 37.0581 281.876 36.7033 281.876 36.3029V34.965ZM287.213 36.7912H286.563V39.2033H286.017V33.9201H286.563V36.259H287.203L288.805 33.9201H289.479L287.657 36.4738L289.669 39.2033H288.961L287.213 36.7912ZM293.341 34.4328H291.139V39.2033H290.592V33.9201H293.341V34.4328ZM272.594 49.2033H272.052V46.7863H269.728V49.2033H269.181V43.9201H269.728V46.2834H272.052V43.9201H272.594V49.2033ZM276.876 49.2033C276.85 49.1154 276.829 49.0064 276.812 48.8762C276.796 48.7427 276.785 48.6076 276.778 48.4709C276.71 48.5816 276.629 48.6874 276.534 48.7883C276.44 48.8859 276.331 48.9738 276.207 49.0519C276.087 49.1268 275.951 49.187 275.802 49.2326C275.652 49.2782 275.491 49.301 275.318 49.301C275.1 49.301 274.902 49.27 274.723 49.2082C274.547 49.1463 274.396 49.0536 274.269 48.9299C274.142 48.8062 274.044 48.6516 273.976 48.466C273.907 48.2805 273.873 48.064 273.873 47.8166C273.873 47.5724 273.915 47.3478 274 47.1428C274.085 46.9344 274.21 46.7554 274.376 46.6057C274.545 46.4559 274.755 46.3387 275.006 46.2541C275.257 46.1695 275.548 46.1271 275.88 46.1271H276.773V45.3898C276.773 45.0122 276.679 44.742 276.49 44.5793C276.305 44.4133 276.031 44.3303 275.67 44.3303C275.501 44.3303 275.344 44.3563 275.201 44.4084C275.061 44.4605 274.941 44.5337 274.84 44.6281C274.739 44.7193 274.661 44.8299 274.605 44.9601C274.55 45.0871 274.522 45.2271 274.522 45.3801L273.98 45.3752C273.98 45.1701 274.021 44.9748 274.103 44.7892C274.184 44.6004 274.299 44.4344 274.449 44.2912C274.599 44.148 274.78 44.034 274.991 43.9494C275.203 43.8648 275.437 43.8224 275.694 43.8224C275.932 43.8224 276.148 43.8517 276.344 43.9103C276.542 43.9657 276.713 44.0568 276.856 44.1838C277 44.3075 277.11 44.4702 277.188 44.6721C277.27 44.8706 277.311 45.1131 277.311 45.3996V48.0949C277.311 48.1861 277.314 48.2805 277.32 48.3781C277.327 48.4758 277.335 48.5718 277.345 48.6662C277.358 48.7573 277.372 48.8452 277.389 48.9299C277.408 49.0113 277.429 49.0829 277.452 49.1447V49.2033H276.876ZM275.387 48.7785C275.556 48.7785 275.714 48.7557 275.86 48.7101C276.01 48.6613 276.144 48.5962 276.261 48.5148C276.378 48.4302 276.479 48.3325 276.563 48.2219C276.651 48.1112 276.721 47.9924 276.773 47.8654V46.5812H275.958C275.447 46.5812 275.063 46.6887 274.806 46.9035C274.549 47.1183 274.42 47.4081 274.42 47.7726C274.42 48.121 274.505 48.3765 274.674 48.5392C274.846 48.6988 275.084 48.7785 275.387 48.7785ZM283.287 49.2033H282.74V42.8117L281.134 43.5295V42.9728L283.194 42.0695H283.287V49.2033ZM286.915 45.3264H287.428C287.652 45.3264 287.848 45.2905 288.014 45.2189C288.183 45.1441 288.325 45.0448 288.438 44.9211C288.552 44.7974 288.637 44.6525 288.692 44.4865C288.751 44.3172 288.78 44.1382 288.78 43.9494C288.78 43.7346 288.756 43.5392 288.707 43.3635C288.658 43.1844 288.583 43.0314 288.482 42.9045C288.382 42.7775 288.255 42.6799 288.102 42.6115C287.952 42.5399 287.773 42.5041 287.564 42.5041C287.382 42.5041 287.213 42.5383 287.057 42.6066C286.904 42.6717 286.77 42.7678 286.656 42.8947C286.546 43.0217 286.458 43.1747 286.393 43.3537C286.331 43.5327 286.3 43.7346 286.3 43.9592H285.758C285.758 43.6727 285.802 43.409 285.89 43.1682C285.981 42.9273 286.106 42.7206 286.266 42.548C286.428 42.3755 286.62 42.2404 286.842 42.1428C287.063 42.0451 287.304 41.9963 287.564 41.9963C287.828 41.9963 288.067 42.0402 288.282 42.1281C288.5 42.216 288.686 42.3446 288.839 42.5139C288.995 42.6799 289.114 42.8849 289.195 43.1291C289.28 43.3732 289.322 43.6532 289.322 43.9689C289.322 44.1284 289.301 44.2879 289.259 44.4474C289.216 44.6037 289.153 44.7518 289.068 44.8918C288.984 45.0318 288.878 45.1603 288.751 45.2775C288.624 45.3915 288.476 45.4859 288.307 45.5607C288.505 45.6258 288.674 45.7154 288.814 45.8293C288.958 45.9432 289.075 46.0751 289.166 46.2248C289.257 46.3713 289.324 46.534 289.366 46.7131C289.409 46.8889 289.43 47.0744 289.43 47.2697C289.43 47.592 289.382 47.8801 289.288 48.134C289.197 48.3846 289.068 48.5978 288.902 48.7736C288.736 48.9461 288.539 49.078 288.312 49.1691C288.087 49.257 287.843 49.301 287.579 49.301C287.335 49.301 287.097 49.2586 286.866 49.174C286.638 49.0894 286.435 48.9641 286.256 48.798C286.08 48.6288 285.938 48.4188 285.831 48.1682C285.727 47.9142 285.675 47.618 285.675 47.2795H286.217C286.217 47.5041 286.249 47.7092 286.314 47.8947C286.383 48.0803 286.476 48.2398 286.593 48.3732C286.713 48.5067 286.856 48.6109 287.022 48.6857C287.192 48.7606 287.377 48.798 287.579 48.798C287.993 48.798 288.313 48.6695 288.541 48.4123C288.772 48.1519 288.888 47.7775 288.888 47.2892C288.888 47.0353 288.852 46.8172 288.78 46.6349C288.712 46.4494 288.613 46.298 288.482 46.1808C288.355 46.0604 288.202 45.9725 288.023 45.9172C287.844 45.8618 287.646 45.8342 287.428 45.8342H286.915V45.3264ZM291.363 48.9641C291.363 49.1105 291.347 49.257 291.314 49.4035C291.285 49.55 291.241 49.69 291.183 49.8234C291.124 49.9601 291.052 50.0887 290.968 50.2092C290.883 50.3296 290.787 50.4387 290.68 50.5363L290.333 50.2775C290.483 50.0757 290.597 49.8723 290.675 49.6672C290.753 49.4621 290.792 49.231 290.792 48.9738V48.2756H291.363V48.9641ZM296.373 49.2033H292.604V48.7443L294.557 46.1076C294.739 45.8602 294.892 45.6372 295.016 45.4387C295.143 45.2401 295.243 45.0562 295.318 44.8869C295.396 44.7144 295.452 44.5532 295.484 44.4035C295.517 44.2538 295.533 44.1057 295.533 43.9592C295.533 43.7476 295.507 43.5523 295.455 43.3732C295.403 43.1942 295.326 43.0412 295.226 42.9142C295.125 42.784 294.998 42.6831 294.845 42.6115C294.695 42.5399 294.522 42.5041 294.327 42.5041C294.122 42.5041 293.938 42.5448 293.775 42.6262C293.613 42.7075 293.474 42.8215 293.36 42.968C293.25 43.1144 293.163 43.2886 293.102 43.4904C293.043 43.689 293.014 43.9071 293.014 44.1447H292.472C292.472 43.8517 292.514 43.5751 292.599 43.3146C292.683 43.0542 292.804 42.8264 292.96 42.631C293.119 42.4357 293.313 42.2811 293.541 42.1672C293.772 42.0532 294.034 41.9963 294.327 41.9963C294.597 41.9963 294.841 42.0402 295.06 42.1281C295.278 42.216 295.462 42.3413 295.611 42.5041C295.764 42.6668 295.882 42.867 295.963 43.1047C296.044 43.3423 296.085 43.6092 296.085 43.9055C296.085 44.1203 296.052 44.3368 295.987 44.5549C295.922 44.7697 295.836 44.9846 295.729 45.1994C295.621 45.4142 295.496 45.6275 295.353 45.8391C295.213 46.0506 295.068 46.259 294.918 46.4641L293.263 48.7004H296.373V49.2033ZM300.016 48.3976L301.734 43.9201H302.403V49.2033H301.861V44.9601L300.206 49.2033H299.825L298.136 44.8527V49.2033H297.599V43.9201H298.307L300.016 48.3976Z" fill="black"/>
<path d="M339.796 32.4357L337.257 39.2033H336.69L339.215 32.6017H335.85V32.0939H339.796V32.4357ZM344.576 36.2346C344.576 36.7586 344.534 37.2144 344.449 37.6017C344.368 37.9859 344.247 38.3049 344.088 38.5588C343.932 38.8094 343.739 38.9966 343.512 39.1203C343.284 39.2407 343.025 39.301 342.735 39.301C342.449 39.301 342.192 39.2407 341.964 39.1203C341.736 38.9966 341.542 38.8094 341.383 38.5588C341.223 38.3049 341.099 37.9859 341.012 37.6017C340.927 37.2144 340.885 36.7586 340.885 36.2346V35.0432C340.885 34.5191 340.927 34.0666 341.012 33.6857C341.096 33.3016 341.217 32.9842 341.373 32.7336C341.532 32.4829 341.726 32.2974 341.954 32.1769C342.182 32.0565 342.439 31.9963 342.725 31.9963C343.012 31.9963 343.269 32.0565 343.497 32.1769C343.728 32.2974 343.923 32.4829 344.083 32.7336C344.242 32.9842 344.364 33.3016 344.449 33.6857C344.534 34.0666 344.576 34.5191 344.576 35.0432V36.2346ZM344.029 34.965C344.029 34.1512 343.92 33.5376 343.702 33.1242C343.487 32.7108 343.162 32.5041 342.725 32.5041C342.296 32.5041 341.97 32.7108 341.749 33.1242C341.531 33.5376 341.422 34.1512 341.422 34.965V36.3029C341.422 36.7033 341.449 37.0581 341.505 37.3674C341.563 37.6766 341.646 37.937 341.754 38.1486C341.864 38.3602 342.001 38.5213 342.164 38.632C342.33 38.7427 342.52 38.798 342.735 38.798C342.953 38.798 343.142 38.7427 343.302 38.632C343.464 38.5213 343.599 38.3602 343.707 38.1486C343.814 37.937 343.894 37.6766 343.946 37.3674C344.002 37.0581 344.029 36.7033 344.029 36.3029V34.965ZM349.439 36.2346C349.439 36.7586 349.397 37.2144 349.312 37.6017C349.231 37.9859 349.111 38.3049 348.951 38.5588C348.795 38.8094 348.603 38.9966 348.375 39.1203C348.147 39.2407 347.888 39.301 347.599 39.301C347.312 39.301 347.055 39.2407 346.827 39.1203C346.599 38.9966 346.405 38.8094 346.246 38.5588C346.086 38.3049 345.963 37.9859 345.875 37.6017C345.79 37.2144 345.748 36.7586 345.748 36.2346V35.0432C345.748 34.5191 345.79 34.0666 345.875 33.6857C345.96 33.3016 346.08 32.9842 346.236 32.7336C346.396 32.4829 346.589 32.2974 346.817 32.1769C347.045 32.0565 347.302 31.9963 347.589 31.9963C347.875 31.9963 348.132 32.0565 348.36 32.1769C348.591 32.2974 348.787 32.4829 348.946 32.7336C349.106 32.9842 349.228 33.3016 349.312 33.6857C349.397 34.0666 349.439 34.5191 349.439 35.0432V36.2346ZM348.892 34.965C348.892 34.1512 348.783 33.5376 348.565 33.1242C348.35 32.7108 348.025 32.5041 347.589 32.5041C347.159 32.5041 346.834 32.7108 346.612 33.1242C346.394 33.5376 346.285 34.1512 346.285 34.965V36.3029C346.285 36.7033 346.313 37.0581 346.368 37.3674C346.427 37.6766 346.51 37.937 346.617 38.1486C346.728 38.3602 346.864 38.5213 347.027 38.632C347.193 38.7427 347.384 38.798 347.599 38.798C347.817 38.798 348.005 38.7427 348.165 38.632C348.328 38.5213 348.463 38.3602 348.57 38.1486C348.678 37.937 348.757 37.6766 348.809 37.3674C348.865 37.0581 348.892 36.7033 348.892 36.3029V34.965ZM354.229 36.7912H353.58V39.2033H353.033V33.9201H353.58V36.259H354.22L355.821 33.9201H356.495L354.674 36.4738L356.685 39.2033H355.977L354.229 36.7912ZM360.357 34.4328H358.155V39.2033H357.608V33.9201H360.357V34.4328ZM339.61 49.2033H339.068V46.7863H336.744V49.2033H336.197V43.9201H336.744V46.2834H339.068V43.9201H339.61V49.2033ZM343.892 49.2033C343.866 49.1154 343.845 49.0064 343.829 48.8762C343.813 48.7427 343.801 48.6076 343.795 48.4709C343.726 48.5816 343.645 48.6874 343.551 48.7883C343.456 48.8859 343.347 48.9738 343.224 49.0519C343.103 49.1268 342.968 49.187 342.818 49.2326C342.668 49.2782 342.507 49.301 342.335 49.301C342.117 49.301 341.918 49.27 341.739 49.2082C341.563 49.1463 341.412 49.0536 341.285 48.9299C341.158 48.8062 341.06 48.6516 340.992 48.466C340.924 48.2805 340.89 48.064 340.89 47.8166C340.89 47.5724 340.932 47.3478 341.016 47.1428C341.101 46.9344 341.226 46.7554 341.392 46.6057C341.562 46.4559 341.772 46.3387 342.022 46.2541C342.273 46.1695 342.564 46.1271 342.896 46.1271H343.79V45.3898C343.79 45.0122 343.696 44.742 343.507 44.5793C343.321 44.4133 343.048 44.3303 342.686 44.3303C342.517 44.3303 342.361 44.3563 342.218 44.4084C342.078 44.4605 341.957 44.5337 341.856 44.6281C341.755 44.7193 341.677 44.8299 341.622 44.9601C341.567 45.0871 341.539 45.2271 341.539 45.3801L340.997 45.3752C340.997 45.1701 341.038 44.9748 341.119 44.7892C341.2 44.6004 341.316 44.4344 341.466 44.2912C341.615 44.148 341.796 44.034 342.008 43.9494C342.219 43.8648 342.454 43.8224 342.711 43.8224C342.948 43.8224 343.165 43.8517 343.36 43.9103C343.559 43.9657 343.73 44.0568 343.873 44.1838C344.016 44.3075 344.127 44.4702 344.205 44.6721C344.286 44.8706 344.327 45.1131 344.327 45.3996V48.0949C344.327 48.1861 344.33 48.2805 344.337 48.3781C344.343 48.4758 344.351 48.5718 344.361 48.6662C344.374 48.7573 344.389 48.8452 344.405 48.9299C344.425 49.0113 344.446 49.0829 344.469 49.1447V49.2033H343.892ZM342.403 48.7785C342.572 48.7785 342.73 48.7557 342.877 48.7101C343.027 48.6613 343.16 48.5962 343.277 48.5148C343.394 48.4302 343.495 48.3325 343.58 48.2219C343.668 48.1112 343.738 47.9924 343.79 47.8654V46.5812H342.974C342.463 46.5812 342.079 46.6887 341.822 46.9035C341.565 47.1183 341.436 47.4081 341.436 47.7726C341.436 48.121 341.521 48.3765 341.69 48.5392C341.863 48.6988 342.1 48.7785 342.403 48.7785ZM350.304 49.2033H349.757V42.8117L348.15 43.5295V42.9728L350.211 42.0695H350.304V49.2033ZM355.753 42.0451V42.5676H355.68C355.321 42.5676 355.004 42.6327 354.727 42.7629C354.451 42.8898 354.216 43.0754 354.024 43.3195C353.832 43.5604 353.681 43.8534 353.57 44.1984C353.463 44.5435 353.398 44.9308 353.375 45.3605C353.541 45.0969 353.748 44.8934 353.995 44.7502C354.242 44.607 354.517 44.5353 354.82 44.5353C355.107 44.5353 355.357 44.5988 355.572 44.7258C355.79 44.8527 355.969 45.0236 356.109 45.2385C356.252 45.4501 356.36 45.6974 356.432 45.9807C356.503 46.2639 356.539 46.5617 356.539 46.8742C356.539 47.216 356.498 47.535 356.417 47.8312C356.335 48.1275 356.218 48.3846 356.065 48.6027C355.912 48.8176 355.725 48.9885 355.504 49.1154C355.286 49.2391 355.037 49.301 354.757 49.301C354.451 49.301 354.177 49.2326 353.936 49.0959C353.699 48.9559 353.497 48.7671 353.331 48.5295C353.165 48.2918 353.038 48.0152 352.95 47.6994C352.865 47.3836 352.823 47.0467 352.823 46.6887V46.0685C352.823 45.4663 352.877 44.9178 352.984 44.423C353.095 43.9282 353.266 43.5051 353.497 43.1535C353.731 42.8019 354.028 42.5301 354.386 42.3381C354.747 42.1428 355.178 42.0451 355.68 42.0451H355.753ZM354.732 45.048C354.576 45.048 354.425 45.0773 354.278 45.1359C354.132 45.1945 353.997 45.2759 353.873 45.3801C353.752 45.4842 353.648 45.6079 353.56 45.7512C353.473 45.8911 353.407 46.0441 353.365 46.2101V46.6984C353.365 47.0272 353.401 47.3218 353.473 47.5822C353.547 47.8394 353.647 48.0575 353.77 48.2365C353.897 48.4155 354.045 48.5539 354.215 48.6516C354.384 48.746 354.565 48.7932 354.757 48.7932C354.952 48.7932 355.126 48.7443 355.279 48.6467C355.435 48.5458 355.567 48.4107 355.675 48.2414C355.782 48.0689 355.863 47.867 355.919 47.6359C355.977 47.4048 356.007 47.159 356.007 46.8986C356.007 46.6512 355.981 46.4152 355.929 46.1906C355.877 45.966 355.797 45.7691 355.689 45.5998C355.585 45.4305 355.453 45.2971 355.294 45.1994C355.134 45.0985 354.947 45.048 354.732 45.048ZM358.38 48.9641C358.38 49.1105 358.363 49.257 358.331 49.4035C358.302 49.55 358.258 49.69 358.199 49.8234C358.141 49.9601 358.069 50.0887 357.984 50.2092C357.9 50.3296 357.804 50.4387 357.696 50.5363L357.349 50.2775C357.499 50.0757 357.613 49.8723 357.691 49.6672C357.769 49.4621 357.808 49.231 357.808 48.9738V48.2756H358.38V48.9641ZM361.944 49.2033H361.397V42.8117L359.791 43.5295V42.9728L361.851 42.0695H361.944V49.2033ZM367.032 48.3976L368.751 43.9201H369.42V49.2033H368.878V44.9601L367.223 49.2033H366.842L365.152 44.8527V49.2033H364.615V43.9201H365.323L367.032 48.3976Z" fill="black"/>
<path d="M420.453 35.5607L420.746 32.0939H423.749V32.6506H421.21L421.01 35.0334C421.062 34.9911 421.125 34.9471 421.2 34.9016C421.275 34.8527 421.359 34.8104 421.454 34.7746C421.548 34.7355 421.649 34.7046 421.757 34.6818C421.867 34.6558 421.984 34.6428 422.108 34.6428C422.375 34.6428 422.618 34.6965 422.836 34.8039C423.054 34.9081 423.239 35.0594 423.392 35.258C423.545 35.4566 423.664 35.6974 423.749 35.9807C423.833 36.2639 423.876 36.5829 423.876 36.9377C423.876 37.2795 423.84 37.5952 423.768 37.8849C423.697 38.1714 423.588 38.4204 423.441 38.632C423.295 38.8404 423.108 39.0047 422.88 39.1252C422.655 39.2424 422.386 39.301 422.074 39.301C421.833 39.301 421.607 39.2619 421.395 39.1838C421.187 39.1024 421.001 38.9803 420.839 38.8176C420.676 38.6548 420.542 38.4497 420.438 38.2023C420.334 37.9549 420.271 37.6652 420.248 37.3332H420.765C420.811 37.8117 420.946 38.1763 421.171 38.4269C421.395 38.6743 421.696 38.798 422.074 38.798C422.487 38.798 422.8 38.6369 423.011 38.3146C423.226 37.9924 423.334 37.5366 423.334 36.9474C423.334 36.7001 423.304 36.4689 423.246 36.2541C423.187 36.0392 423.101 35.8537 422.987 35.6974C422.876 35.5379 422.738 35.4142 422.572 35.3264C422.409 35.2352 422.22 35.1896 422.006 35.1896C421.862 35.1896 421.737 35.2027 421.63 35.2287C421.522 35.2515 421.425 35.2857 421.337 35.3312C421.252 35.3736 421.172 35.4256 421.097 35.4875C421.026 35.5493 420.954 35.6193 420.883 35.6974L420.453 35.5607ZM425.316 35.5607L425.609 32.0939H428.612V32.6506H426.073L425.873 35.0334C425.925 34.9911 425.988 34.9471 426.063 34.9016C426.138 34.8527 426.223 34.8104 426.317 34.7746C426.412 34.7355 426.512 34.7046 426.62 34.6818C426.731 34.6558 426.848 34.6428 426.971 34.6428C427.238 34.6428 427.481 34.6965 427.699 34.8039C427.917 34.9081 428.103 35.0594 428.256 35.258C428.409 35.4566 428.527 35.6974 428.612 35.9807C428.697 36.2639 428.739 36.5829 428.739 36.9377C428.739 37.2795 428.703 37.5952 428.632 37.8849C428.56 38.1714 428.451 38.4204 428.304 38.632C428.158 38.8404 427.971 39.0047 427.743 39.1252C427.518 39.2424 427.25 39.301 426.937 39.301C426.696 39.301 426.47 39.2619 426.259 39.1838C426.05 39.1024 425.865 38.9803 425.702 38.8176C425.539 38.6548 425.406 38.4497 425.302 38.2023C425.197 37.9549 425.134 37.6652 425.111 37.3332H425.629C425.674 37.8117 425.809 38.1763 426.034 38.4269C426.259 38.6743 426.56 38.798 426.937 38.798C427.351 38.798 427.663 38.6369 427.875 38.3146C428.09 37.9924 428.197 37.5366 428.197 36.9474C428.197 36.7001 428.168 36.4689 428.109 36.2541C428.051 36.0392 427.964 35.8537 427.85 35.6974C427.74 35.5379 427.601 35.4142 427.435 35.3264C427.273 35.2352 427.084 35.1896 426.869 35.1896C426.726 35.1896 426.6 35.2027 426.493 35.2287C426.385 35.2515 426.288 35.2857 426.2 35.3312C426.115 35.3736 426.036 35.4256 425.961 35.4875C425.889 35.5493 425.817 35.6193 425.746 35.6974L425.316 35.5607ZM433.475 36.2346C433.475 36.7586 433.433 37.2144 433.348 37.6017C433.267 37.9859 433.147 38.3049 432.987 38.5588C432.831 38.8094 432.639 38.9966 432.411 39.1203C432.183 39.2407 431.924 39.301 431.635 39.301C431.348 39.301 431.091 39.2407 430.863 39.1203C430.635 38.9966 430.441 38.8094 430.282 38.5588C430.122 38.3049 429.999 37.9859 429.911 37.6017C429.826 37.2144 429.784 36.7586 429.784 36.2346V35.0432C429.784 34.5191 429.826 34.0666 429.911 33.6857C429.996 33.3016 430.116 32.9842 430.272 32.7336C430.432 32.4829 430.625 32.2974 430.853 32.1769C431.081 32.0565 431.338 31.9963 431.625 31.9963C431.911 31.9963 432.168 32.0565 432.396 32.1769C432.627 32.2974 432.823 32.4829 432.982 32.7336C433.142 32.9842 433.264 33.3016 433.348 33.6857C433.433 34.0666 433.475 34.5191 433.475 35.0432V36.2346ZM432.928 34.965C432.928 34.1512 432.819 33.5376 432.601 33.1242C432.386 32.7108 432.061 32.5041 431.625 32.5041C431.195 32.5041 430.87 32.7108 430.648 33.1242C430.43 33.5376 430.321 34.1512 430.321 34.965V36.3029C430.321 36.7033 430.349 37.0581 430.404 37.3674C430.463 37.6766 430.546 37.937 430.653 38.1486C430.764 38.3602 430.9 38.5213 431.063 38.632C431.229 38.7427 431.42 38.798 431.635 38.798C431.853 38.798 432.041 38.7427 432.201 38.632C432.364 38.5213 432.499 38.3602 432.606 38.1486C432.714 37.937 432.793 37.6766 432.845 37.3674C432.901 37.0581 432.928 36.7033 432.928 36.3029V34.965ZM438.265 36.7912H437.616V39.2033H437.069V33.9201H437.616V36.259H438.256L439.857 33.9201H440.531L438.71 36.4738L440.721 39.2033H440.013L438.265 36.7912ZM444.393 34.4328H442.191V39.2033H441.644V33.9201H444.393V34.4328ZM423.646 49.2033H423.104V46.7863H420.78V49.2033H420.233V43.9201H420.78V46.2834H423.104V43.9201H423.646V49.2033ZM427.928 49.2033C427.902 49.1154 427.881 49.0064 427.865 48.8762C427.849 48.7427 427.837 48.6076 427.831 48.4709C427.762 48.5816 427.681 48.6874 427.587 48.7883C427.492 48.8859 427.383 48.9738 427.26 49.0519C427.139 49.1268 427.004 49.187 426.854 49.2326C426.705 49.2782 426.543 49.301 426.371 49.301C426.153 49.301 425.954 49.27 425.775 49.2082C425.599 49.1463 425.448 49.0536 425.321 48.9299C425.194 48.8062 425.096 48.6516 425.028 48.466C424.96 48.2805 424.926 48.064 424.926 47.8166C424.926 47.5724 424.968 47.3478 425.052 47.1428C425.137 46.9344 425.262 46.7554 425.428 46.6057C425.598 46.4559 425.808 46.3387 426.058 46.2541C426.309 46.1695 426.6 46.1271 426.932 46.1271H427.826V45.3898C427.826 45.0122 427.732 44.742 427.543 44.5793C427.357 44.4133 427.084 44.3303 426.722 44.3303C426.553 44.3303 426.397 44.3563 426.254 44.4084C426.114 44.4605 425.993 44.5337 425.892 44.6281C425.791 44.7193 425.713 44.8299 425.658 44.9601C425.603 45.0871 425.575 45.2271 425.575 45.3801L425.033 45.3752C425.033 45.1701 425.074 44.9748 425.155 44.7892C425.236 44.6004 425.352 44.4344 425.502 44.2912C425.651 44.148 425.832 44.034 426.044 43.9494C426.255 43.8648 426.49 43.8224 426.747 43.8224C426.984 43.8224 427.201 43.8517 427.396 43.9103C427.595 43.9657 427.766 44.0568 427.909 44.1838C428.052 44.3075 428.163 44.4702 428.241 44.6721C428.322 44.8706 428.363 45.1131 428.363 45.3996V48.0949C428.363 48.1861 428.366 48.2805 428.373 48.3781C428.379 48.4758 428.387 48.5718 428.397 48.6662C428.41 48.7573 428.425 48.8452 428.441 48.9299C428.461 49.0113 428.482 49.0829 428.505 49.1447V49.2033H427.928ZM426.439 48.7785C426.608 48.7785 426.766 48.7557 426.913 48.7101C427.063 48.6613 427.196 48.5962 427.313 48.5148C427.43 48.4302 427.531 48.3325 427.616 48.2219C427.704 48.1112 427.774 47.9924 427.826 47.8654V46.5812H427.01C426.499 46.5812 426.115 46.6887 425.858 46.9035C425.601 47.1183 425.472 47.4081 425.472 47.7726C425.472 48.121 425.557 48.3765 425.726 48.5392C425.899 48.6988 426.136 48.7785 426.439 48.7785ZM434.34 49.2033H433.793V42.8117L432.186 43.5295V42.9728L434.247 42.0695H434.34V49.2033ZM437.665 48.7346C438.081 48.7346 438.431 48.6646 438.715 48.5246C438.998 48.3846 439.226 48.1909 439.398 47.9435C439.574 47.6929 439.701 47.3999 439.779 47.0646C439.857 46.7261 439.901 46.3583 439.911 45.9611C439.83 46.0978 439.735 46.2232 439.628 46.3371C439.524 46.4478 439.41 46.5438 439.286 46.6252C439.162 46.7033 439.03 46.7652 438.89 46.8107C438.75 46.853 438.604 46.8742 438.451 46.8742C438.168 46.8742 437.919 46.8075 437.704 46.674C437.492 46.5405 437.315 46.3631 437.172 46.1418C437.028 45.9204 436.921 45.6665 436.849 45.3801C436.778 45.0936 436.742 44.7974 436.742 44.4914C436.742 44.1496 436.783 43.8273 436.864 43.5246C436.945 43.2219 437.063 42.9582 437.216 42.7336C437.369 42.5057 437.557 42.3267 437.782 42.1965C438.007 42.063 438.264 41.9963 438.553 41.9963C438.876 41.9963 439.156 42.0679 439.393 42.2111C439.634 42.3511 439.833 42.5464 439.989 42.7971C440.145 43.0477 440.261 43.3472 440.336 43.6955C440.414 44.0438 440.453 44.423 440.453 44.8332V45.3947C440.453 45.743 440.435 46.0816 440.399 46.4103C440.363 46.7359 440.303 47.0418 440.219 47.3283C440.137 47.6148 440.026 47.8768 439.886 48.1144C439.75 48.3488 439.577 48.5506 439.369 48.7199C439.164 48.8892 438.92 49.021 438.636 49.1154C438.357 49.2066 438.033 49.2521 437.665 49.2521H437.562L437.567 48.7346H437.665ZM438.524 46.3615C438.7 46.3615 438.863 46.3273 439.012 46.259C439.162 46.1874 439.296 46.0946 439.413 45.9807C439.53 45.8667 439.631 45.7365 439.716 45.59C439.8 45.4403 439.867 45.2873 439.916 45.131V44.7746C439.916 44.4035 439.882 44.078 439.813 43.798C439.745 43.5148 439.65 43.2788 439.53 43.09C439.41 42.898 439.266 42.7531 439.1 42.6555C438.934 42.5578 438.754 42.509 438.558 42.509C438.357 42.509 438.176 42.5627 438.016 42.6701C437.86 42.7743 437.727 42.9159 437.616 43.0949C437.505 43.2739 437.421 43.4823 437.362 43.7199C437.303 43.9543 437.274 44.2033 437.274 44.467C437.274 44.7079 437.3 44.9422 437.352 45.1701C437.408 45.398 437.487 45.5998 437.592 45.7756C437.696 45.9514 437.826 46.093 437.982 46.2004C438.138 46.3078 438.319 46.3615 438.524 46.3615ZM442.416 48.9641C442.416 49.1105 442.399 49.257 442.367 49.4035C442.338 49.55 442.294 49.69 442.235 49.8234C442.177 49.9601 442.105 50.0887 442.02 50.2092C441.936 50.3296 441.84 50.4387 441.732 50.5363L441.385 50.2775C441.535 50.0757 441.649 49.8723 441.727 49.6672C441.805 49.4621 441.844 49.231 441.844 48.9738V48.2756H442.416V48.9641ZM447.284 46.2346C447.284 46.7586 447.242 47.2144 447.157 47.6017C447.076 47.9859 446.955 48.3049 446.796 48.5588C446.639 48.8094 446.447 48.9966 446.219 49.1203C445.992 49.2407 445.733 49.301 445.443 49.301C445.157 49.301 444.899 49.2407 444.672 49.1203C444.444 48.9966 444.25 48.8094 444.091 48.5588C443.931 48.3049 443.807 47.9859 443.719 47.6017C443.635 47.2144 443.593 46.7586 443.593 46.2346V45.0432C443.593 44.5191 443.635 44.0666 443.719 43.6857C443.804 43.3016 443.925 42.9842 444.081 42.7336C444.24 42.4829 444.434 42.2974 444.662 42.1769C444.89 42.0565 445.147 41.9963 445.433 41.9963C445.72 41.9963 445.977 42.0565 446.205 42.1769C446.436 42.2974 446.631 42.4829 446.791 42.7336C446.95 42.9842 447.072 43.3016 447.157 43.6857C447.242 44.0666 447.284 44.5191 447.284 45.0432V46.2346ZM446.737 44.965C446.737 44.1512 446.628 43.5376 446.41 43.1242C446.195 42.7108 445.87 42.5041 445.433 42.5041C445.004 42.5041 444.678 42.7108 444.457 43.1242C444.239 43.5376 444.13 44.1512 444.13 44.965V46.3029C444.13 46.7033 444.157 47.0581 444.213 47.3674C444.271 47.6766 444.354 47.937 444.462 48.1486C444.572 48.3602 444.709 48.5213 444.872 48.632C445.038 48.7427 445.228 48.798 445.443 48.798C445.661 48.798 445.85 48.7427 446.01 48.632C446.172 48.5213 446.307 48.3602 446.415 48.1486C446.522 47.937 446.602 47.6766 446.654 47.3674C446.709 47.0581 446.737 46.7033 446.737 46.3029V44.965ZM451.068 48.3976L452.787 43.9201H453.456V49.2033H452.914V44.9601L451.259 49.2033H450.878L449.188 44.8527V49.2033H448.651V43.9201H449.359L451.068 48.3976Z" fill="black"/>
</svg>
