<svg width="468" height="53" viewBox="0 0 468 53" fill="none" xmlns="http://www.w3.org/2000/svg">
<path d="M99.6816 18.8722H458.703V7.16946H90.9726L99.6816 18.8722Z" fill="#201500" stroke="black" stroke-width="0.5" stroke-miterlimit="10" stroke-linecap="round" stroke-linejoin="round"/>
<path d="M463.99 28.5336H461.433C459.926 28.5336 458.703 27.3114 458.703 25.8036V7.178C458.703 5.67025 459.926 4.44797 461.433 4.44797H464.495C466.003 4.44797 467.225 5.67025 467.225 7.178L466.548 26.066C466.499 27.4429 465.368 28.5336 463.99 28.5336Z" fill="#5159A3" stroke="black" stroke-width="0.5" stroke-miterlimit="10" stroke-linecap="round" stroke-linejoin="round"/>
<path d="M99.6815 18.8722H25.4555L10.9632 7.16946H90.9725L99.6815 18.8722Z" fill="#5159A3" stroke="black" stroke-width="0.5" stroke-miterlimit="10" stroke-linecap="round" stroke-linejoin="round"/>
<path d="M13.3785 7.61188L10.1034 5.28486C9.72502 5.016 9.50024 3.84927 9.50024 3.38509C9.50024 2.32823 8.64349 1.4715 7.58664 1.4715C6.52979 1.4715 5.67303 2.32823 5.67303 3.38509V5.44892C5.67303 6.35421 6.12434 7.19992 6.87639 7.70385L10.6229 10.2144L13.3785 7.61188Z" fill="#5159A3" stroke="black" stroke-width="0.5" stroke-miterlimit="10" stroke-linecap="round" stroke-linejoin="round"/>
<path d="M1.06751 16.1081L11.3599 6.43513C11.6619 6.15125 12.1239 6.12424 12.457 6.37096L25.3266 15.9039C25.5428 16.0641 25.8048 16.1506 26.0739 16.1506H37.9785C38.5388 16.1506 38.764 16.8735 38.3029 17.1917L26.7131 25.1886C26.392 25.4101 25.9863 25.4698 25.615 25.3503L1.39174 17.5485C0.770476 17.3485 0.591901 16.5551 1.06751 16.1081Z" fill="#5159A3" stroke="black" stroke-width="0.5" stroke-miterlimit="10" stroke-linecap="round" stroke-linejoin="round"/>
<path d="M9.52571 15.4786C10.3195 15.4786 10.963 14.8351 10.963 14.0413C10.963 13.2475 10.3195 12.604 9.52571 12.604C8.73189 12.604 8.08838 13.2475 8.08838 14.0413C8.08838 14.8351 8.73189 15.4786 9.52571 15.4786Z" fill="#5159A3" stroke="black" stroke-width="0.5" stroke-miterlimit="10" stroke-linecap="round" stroke-linejoin="round"/>
<path d="M25.515 24.0175C26.3088 24.0175 26.9524 23.374 26.9524 22.5802C26.9524 21.7864 26.3088 21.1429 25.515 21.1429C24.7212 21.1429 24.0777 21.7864 24.0777 22.5802C24.0777 23.374 24.7212 24.0175 25.515 24.0175Z" fill="#5159A3" stroke="black" stroke-width="0.5" stroke-miterlimit="10" stroke-linecap="round" stroke-linejoin="round"/>
<path d="M51.6458 7.16953H50.0129V3.82724C50.0129 3.37632 50.3784 3.01077 50.8294 3.01077C51.2803 3.01077 51.6458 3.37632 51.6458 3.82724V7.16953Z" fill="#221500" stroke="black" stroke-width="0.5" stroke-miterlimit="10" stroke-linecap="round" stroke-linejoin="round"/>
<path d="M80.1893 7.16953H76.9328V3.9445C76.9328 3.77163 77.0729 3.6315 77.2458 3.6315H77.6225C77.8096 3.6315 77.9838 3.72679 78.0847 3.88434L80.1893 7.16953Z" fill="#221500" stroke="black" stroke-width="0.5" stroke-miterlimit="10" stroke-linecap="round" stroke-linejoin="round"/>
<path d="M242.421 3.98807H239.204V0.802359C239.204 0.631597 239.343 0.493164 239.514 0.493164H239.886C240.071 0.493164 240.243 0.587309 240.342 0.742933L242.421 3.98807Z" fill="#221500" stroke="black" stroke-width="0.5" stroke-miterlimit="10" stroke-linecap="round" stroke-linejoin="round"/>
<path d="M57.1017 18.8723H55.9111V23.0227C55.9111 23.3515 56.1776 23.6181 56.5064 23.6181C56.8352 23.6181 57.1018 23.3515 57.1018 23.0227V18.8723H57.1017Z" fill="#221500" stroke="black" stroke-width="0.5" stroke-miterlimit="10" stroke-linecap="round" stroke-linejoin="round"/>
<path d="M87.7406 18.8723H86.5499V23.0227C86.5499 23.3515 86.8165 23.6181 87.1453 23.6181C87.4741 23.6181 87.7406 23.3515 87.7406 23.0227V18.8723H87.7406Z" fill="#221500" stroke="black" stroke-width="0.5" stroke-miterlimit="10" stroke-linecap="round" stroke-linejoin="round"/>
<path d="M70.4218 18.8723H69.2311V23.0227C69.2311 23.3515 69.4976 23.6181 69.8264 23.6181C70.1552 23.6181 70.4218 23.3515 70.4218 23.0227V18.8723H70.4218Z" fill="#221500" stroke="black" stroke-width="0.5" stroke-miterlimit="10" stroke-linecap="round" stroke-linejoin="round"/>
<path d="M102.603 19.8927H96.899C96.7233 19.8927 96.5582 19.8092 96.4539 19.6679L86.7316 6.48747C86.6281 6.3472 86.7283 6.14886 86.9026 6.14886H92.6066C92.7822 6.14886 92.9474 6.23229 93.0516 6.37361L102.774 19.554C102.877 19.6943 102.777 19.8927 102.603 19.8927Z" fill="#5159A3" stroke="black" stroke-width="0.5" stroke-miterlimit="10" stroke-linecap="round" stroke-linejoin="round"/>
<path d="M190.296 16.9781V19.2131C190.296 19.5912 189.99 19.8978 189.612 19.8978H187.132C186.81 19.8978 186.505 19.7541 186.3 19.5058L177.498 8.84316C177.24 8.53039 177.099 8.13747 177.099 7.73188V4.44798C177.099 4.194 177.305 3.9881 177.559 3.9881H181.72C181.974 3.9881 182.18 4.194 182.18 4.44798V6.12549C182.18 6.5309 182.321 6.92368 182.579 7.23639L190.05 16.2915C190.209 16.4848 190.296 16.7275 190.296 16.9781Z" fill="#5159A3" stroke="black" stroke-width="0.5" stroke-miterlimit="10" stroke-linecap="round" stroke-linejoin="round"/>
<path d="M251.412 16.9781V19.2131C251.412 19.5912 251.106 19.8978 250.728 19.8978H248.248C247.926 19.8978 247.621 19.7541 247.416 19.5058L238.614 8.84316C238.356 8.53039 238.215 8.13747 238.215 7.73188V4.44798C238.215 4.194 238.421 3.9881 238.675 3.9881H242.836C243.09 3.9881 243.296 4.194 243.296 4.44798V6.12549C243.296 6.5309 243.437 6.92368 243.695 7.23639L251.166 16.2915C251.325 16.4848 251.412 16.7275 251.412 16.9781Z" fill="#5159A3" stroke="black" stroke-width="0.5" stroke-miterlimit="10" stroke-linecap="round" stroke-linejoin="round"/>
<path d="M309.229 5.20863H305.116V1.13519C305.116 0.916841 305.293 0.739838 305.511 0.739838H305.987C306.223 0.739838 306.443 0.860212 306.571 1.0592L309.229 5.20863Z" fill="#221500" stroke="black" stroke-width="0.5" stroke-miterlimit="10" stroke-linecap="round" stroke-linejoin="round"/>
<path d="M315.845 16.3887V19.2091C315.845 19.5952 315.542 19.8978 315.167 19.8978H312.684C312.36 19.8978 312.058 19.7516 311.849 19.5012L303.054 8.83914C302.793 8.52611 302.648 8.14024 302.648 7.73322V5.66759C302.648 5.41516 302.854 5.20862 303.107 5.20862H310.639C310.891 5.20862 311.098 5.41522 311.098 5.66772V9.34591C311.098 9.91977 311.298 10.4758 311.663 10.9185L315.605 15.7C315.761 15.8984 315.845 16.1384 315.845 16.3887Z" fill="#5159A3" stroke="black" stroke-width="0.5" stroke-miterlimit="10" stroke-linecap="round" stroke-linejoin="round"/>
<path d="M374.802 5.20863H370.689V1.13519C370.689 0.916841 370.866 0.739838 371.084 0.739838H371.56C371.796 0.739838 372.016 0.860212 372.144 1.0592L374.802 5.20863Z" fill="#221500" stroke="black" stroke-width="0.5" stroke-miterlimit="10" stroke-linecap="round" stroke-linejoin="round"/>
<path d="M381.418 16.3887V19.2091C381.418 19.5952 381.115 19.8978 380.74 19.8978H378.257C377.934 19.8978 377.631 19.7516 377.422 19.5012L368.627 8.83914C368.367 8.52611 368.221 8.14024 368.221 7.73322V5.66759C368.221 5.41516 368.427 5.20862 368.68 5.20862H376.212C376.465 5.20862 376.671 5.41522 376.671 5.66772V9.34591C376.671 9.91977 376.871 10.4758 377.236 10.9185L381.178 15.7C381.335 15.8984 381.418 16.1384 381.418 16.3887Z" fill="#5159A3" stroke="black" stroke-width="0.5" stroke-miterlimit="10" stroke-linecap="round" stroke-linejoin="round"/>
<path d="M241.772 2.97424H305.116" stroke="black" stroke-width="0.5" stroke-miterlimit="10" stroke-linecap="round" stroke-linejoin="round"/>
<path d="M307.798 2.97424H370.689" stroke="black" stroke-width="0.5" stroke-miterlimit="10" stroke-linecap="round" stroke-linejoin="round"/>
<path d="M3.16382 36.7793L0 44.1144H6.32765L3.16382 36.7793Z" fill="#5159A3"/>
<path d="M102.834 40.4463L97.3596 35.9406V44.9519L102.834 40.4463Z" fill="#D92B2B"/>
<path d="M190.296 40.4463L184.821 35.9406V44.9519L190.296 40.4463Z" fill="#D92B2B"/>
<path d="M253.097 40.4463L247.622 35.9406V44.9519L253.097 40.4463Z" fill="#D92B2B"/>
<path d="M313.857 40.4463L308.382 35.9406V44.9519L313.857 40.4463Z" fill="#D92B2B"/>
<path d="M380.788 40.4463L375.313 35.9406V44.9519L380.788 40.4463Z" fill="#D92B2B"/>
<path d="M465.844 40.4463L460.37 35.9406V44.9519L465.844 40.4463Z" fill="#D92B2B"/>
<path d="M59.7724 11.1603V15.3815L61.9099 13.2709L59.7724 11.1603ZM64.6479 10.5579H60.4392L62.5435 12.6452L64.6479 10.5579ZM73.4624 10.9706H74.7534L73.155 13.731V15.3815H72.0201V13.731L70.4218 10.9706H71.7127L72.5876 12.7587L73.4624 10.9706ZM70.6725 12.9827V13.3694C70.6725 14.4806 69.7359 15.3814 68.6279 15.3814H66.6294V10.9706H68.6279C69.7359 10.9706 70.6725 11.8715 70.6725 12.9827ZM69.5263 13.0232C69.5263 12.4348 69.0509 11.958 68.4645 11.958H67.7752V14.3943L68.4645 14.3941C69.0509 14.3941 69.5266 13.9172 69.5263 13.3289V13.0232ZM60.5951 15.8369H63.0967C64.0813 15.8369 64.8795 15.0364 64.8795 14.0489V11.5398L60.5951 15.8369Z" fill="white"/>
<path d="M84.3017 13.7511L84.7674 14.4281V13.7511H85.0467V15.0373H84.8992L84.4155 14.3587V15.0373H84.1362V13.7511H84.3017ZM75.4055 13.7511L75.7559 14.6285L76.1062 13.7511H76.3855V15.0373H76.1062V14.5055L75.8932 15.0373H75.6186L75.4055 14.5055V15.0373H75.1262V13.7511H75.4055ZM77.2879 13.7511V14.0304H76.7908V14.2245H77.2879V14.5038H76.7908V14.7579H77.2879V15.0373H76.5115V13.7511H77.2879ZM78.5613 14.1204H78.2173C78.1541 14.0652 78.0705 14.0304 77.979 14.0304C77.7785 14.0304 77.616 14.193 77.616 14.395C77.616 14.5954 77.7785 14.7579 77.979 14.7579C78.0705 14.7579 78.1541 14.7248 78.2173 14.668H78.5613C78.4571 14.8858 78.2362 15.0373 77.979 15.0373C77.6239 15.0373 77.3351 14.7501 77.3351 14.395C77.3351 14.0399 77.6239 13.7511 77.979 13.7511C78.2362 13.7511 78.4571 13.9026 78.5613 14.1204ZM79.5915 13.7511V15.0373H79.3122V14.5038H78.9603V15.0373H78.6809V13.7511H78.9603V14.2245H79.3122V13.7511H79.5915ZM80.838 15.0373H80.5382L80.4561 14.821H80.0632L79.9795 15.0373H79.6797L80.1768 13.7511H80.3425L80.838 15.0373ZM80.2588 14.3129L80.1705 14.5418H80.3472L80.2588 14.3129ZM81.3033 14.0304V15.0373H81.024V14.0304H80.7431V13.7511H81.5827V14.0304H81.3033ZM81.6961 13.7511H82.2547C82.4852 13.7511 82.6745 13.9405 82.6745 14.1709C82.6745 14.3366 82.5751 14.4834 82.4315 14.5496L82.6714 15.0373H82.3605L82.1396 14.5891H81.9754V15.0373H81.6961V13.7511H81.6961ZM81.9754 14.0304V14.3098H82.2547C82.3305 14.3098 82.3952 14.2451 82.3952 14.1709C82.3952 14.0936 82.3321 14.0304 82.2547 14.0304H81.9754ZM84.0047 14.395C84.0047 14.7501 83.7159 15.0373 83.3608 15.0373C83.0057 15.0373 82.7185 14.7501 82.7185 14.395C82.7185 14.0399 83.0057 13.7511 83.3608 13.7511C83.7159 13.7511 84.0047 14.0399 84.0047 14.395ZM82.9978 14.395C82.9978 14.5954 83.1604 14.7579 83.3608 14.7579C83.5612 14.7579 83.7238 14.5954 83.7238 14.395C83.7238 14.193 83.5612 14.0304 83.3608 14.0304C83.1604 14.0304 82.9978 14.193 82.9978 14.395ZM85.4592 13.7511V15.0373H85.1783V13.7511H85.4592ZM86.8194 14.1204H86.4754C86.4123 14.0652 86.3286 14.0304 86.2371 14.0304C86.0367 14.0304 85.8741 14.193 85.8741 14.395C85.8741 14.5954 86.0367 14.7579 86.2371 14.7579C86.3286 14.7579 86.4123 14.7248 86.4754 14.668H86.8194C86.7152 14.8858 86.4943 15.0373 86.2371 15.0373C85.882 15.0373 85.5932 14.7501 85.5932 14.395C85.5932 14.0399 85.882 13.7511 86.2371 13.7511C86.4943 13.7511 86.7152 13.9026 86.8194 14.1204ZM87.4882 14.2561C87.6366 14.3161 87.7407 14.4612 87.7407 14.6317C87.7407 14.8558 87.5593 15.0373 87.3352 15.0373C87.1237 15.0373 86.9501 14.8747 86.9312 14.668H87.2153C87.231 14.7201 87.2784 14.7579 87.3352 14.7579C87.4046 14.7579 87.4614 14.7011 87.4614 14.6317C87.4614 14.5891 87.4393 14.5512 87.4078 14.5291C87.2058 14.4265 86.9864 14.3524 86.9864 14.1015C86.9864 13.9074 87.1427 13.7511 87.3352 13.7511C87.5261 13.7511 87.6808 13.9026 87.6839 14.092H87.4046C87.3999 14.0573 87.3715 14.0304 87.3352 14.0304C87.2973 14.0304 87.2657 14.062 87.2657 14.1015C87.2657 14.1267 87.28 14.1504 87.3004 14.1614L87.4882 14.2561Z" fill="white"/>
<path d="M75.5233 11.6421C75.8748 11.6421 76.1636 11.9293 76.1636 12.2824C76.1636 12.6323 75.8732 12.9211 75.5233 12.9211H75.1262V11.6421H75.5233ZM75.4056 12.6433H75.5233C75.721 12.6433 75.8858 12.4785 75.8858 12.2824C75.8858 12.0831 75.7226 11.9199 75.5233 11.9199H75.4056V12.6433ZM77.5793 12.2824C77.5793 12.6355 77.2921 12.9211 76.9389 12.9211C76.5858 12.9211 76.3002 12.6355 76.3002 12.2824C76.3002 11.9293 76.5858 11.6421 76.9389 11.6421C77.2921 11.6421 77.5793 11.9293 77.5793 12.2824ZM76.578 12.2824C76.578 12.4817 76.7396 12.6433 76.9389 12.6433C77.1383 12.6433 77.2999 12.4817 77.2999 12.2824C77.2999 12.0815 77.1383 11.9199 76.9389 11.9199C76.7396 11.9199 76.578 12.0815 76.578 12.2824ZM80.0418 12.0438H79.7201C79.6542 11.9685 79.5569 11.9199 79.447 11.9199C79.2477 11.9199 79.0861 12.0815 79.0861 12.2824C79.0861 12.4817 79.2477 12.6433 79.447 12.6433C79.5428 12.6433 79.6307 12.6057 79.695 12.546H79.4423V12.2667H80.0873C80.0873 12.6276 79.8111 12.9211 79.447 12.9211C79.0939 12.9211 78.8083 12.6355 78.8083 12.2824C78.8083 11.9293 79.0939 11.6421 79.447 11.6421C79.717 11.642 79.9477 11.8085 80.0418 12.0438ZM80.6136 12.9211H80.3358V12.3875L79.9592 11.6421H80.2715L80.4755 12.0454L80.6779 11.6421H80.9902L80.6136 12.3875V12.9211ZM81.9425 12.9211H81.6444L81.5627 12.7061H81.172L81.0888 12.9211H80.7906L81.285 11.6421H81.4497L81.9425 12.9211ZM81.3666 12.2008L81.2787 12.4283H81.4545L81.3666 12.2008ZM77.8602 11.6421L78.3787 12.3153V11.6421H78.6896V12.9211H78.5253L77.987 12.2463V12.9211H77.6761V11.6421H77.8602ZM82.2282 11.6421L82.7466 12.3153V11.6421H83.0575V12.9211H82.8932L82.3549 12.2463V12.9211H82.044V11.6421H82.2282ZM84.3925 12.0438H84.0708C84.0049 11.9685 83.9076 11.9199 83.7977 11.9199C83.5984 11.9199 83.4368 12.0815 83.4368 12.2824C83.4368 12.4817 83.5984 12.6433 83.7977 12.6433C83.8935 12.6433 83.9813 12.6057 84.0457 12.546H83.793V12.2667H84.4381C84.4381 12.6276 84.1618 12.9211 83.7977 12.9211C83.4446 12.9211 83.159 12.6355 83.159 12.2824C83.159 11.9293 83.4446 11.6421 83.7977 11.6421C84.0677 11.642 84.2984 11.8085 84.3925 12.0438Z" fill="white"/>
<path d="M59.7724 11.1603V15.3815L61.9099 13.2709L59.7724 11.1603ZM64.6479 10.5579H60.4392L62.5435 12.6452L64.6479 10.5579ZM73.4624 10.9706H74.7534L73.155 13.731V15.3815H72.0201V13.731L70.4218 10.9706H71.7127L72.5876 12.7587L73.4624 10.9706ZM70.6725 12.9827V13.3694C70.6725 14.4806 69.7359 15.3814 68.6279 15.3814H66.6294V10.9706H68.6279C69.7359 10.9706 70.6725 11.8715 70.6725 12.9827ZM69.5263 13.0232C69.5263 12.4348 69.0509 11.958 68.4645 11.958H67.7752V14.3943L68.4645 14.3941C69.0509 14.3941 69.5266 13.9172 69.5263 13.3289V13.0232ZM60.5951 15.8369H63.0967C64.0813 15.8369 64.8795 15.0364 64.8795 14.0489V11.5398L60.5951 15.8369Z" fill="white"/>
<path d="M84.3017 13.7511L84.7674 14.4281V13.7511H85.0467V15.0373H84.8992L84.4155 14.3587V15.0373H84.1362V13.7511H84.3017ZM75.4055 13.7511L75.7559 14.6285L76.1062 13.7511H76.3855V15.0373H76.1062V14.5055L75.8932 15.0373H75.6186L75.4055 14.5055V15.0373H75.1262V13.7511H75.4055ZM77.2879 13.7511V14.0304H76.7908V14.2245H77.2879V14.5038H76.7908V14.7579H77.2879V15.0373H76.5115V13.7511H77.2879ZM78.5613 14.1204H78.2173C78.1541 14.0652 78.0705 14.0304 77.979 14.0304C77.7785 14.0304 77.616 14.193 77.616 14.395C77.616 14.5954 77.7785 14.7579 77.979 14.7579C78.0705 14.7579 78.1541 14.7248 78.2173 14.668H78.5613C78.4571 14.8858 78.2362 15.0373 77.979 15.0373C77.6239 15.0373 77.3351 14.7501 77.3351 14.395C77.3351 14.0399 77.6239 13.7511 77.979 13.7511C78.2362 13.7511 78.4571 13.9026 78.5613 14.1204ZM79.5915 13.7511V15.0373H79.3122V14.5038H78.9603V15.0373H78.6809V13.7511H78.9603V14.2245H79.3122V13.7511H79.5915ZM80.838 15.0373H80.5382L80.4561 14.821H80.0632L79.9795 15.0373H79.6797L80.1768 13.7511H80.3425L80.838 15.0373ZM80.2588 14.3129L80.1705 14.5418H80.3472L80.2588 14.3129ZM81.3033 14.0304V15.0373H81.024V14.0304H80.7431V13.7511H81.5827V14.0304H81.3033ZM81.6961 13.7511H82.2547C82.4852 13.7511 82.6745 13.9405 82.6745 14.1709C82.6745 14.3366 82.5751 14.4834 82.4315 14.5496L82.6714 15.0373H82.3605L82.1396 14.5891H81.9754V15.0373H81.6961V13.7511H81.6961ZM81.9754 14.0304V14.3098H82.2547C82.3305 14.3098 82.3952 14.2451 82.3952 14.1709C82.3952 14.0936 82.3321 14.0304 82.2547 14.0304H81.9754ZM84.0047 14.395C84.0047 14.7501 83.7159 15.0373 83.3608 15.0373C83.0057 15.0373 82.7185 14.7501 82.7185 14.395C82.7185 14.0399 83.0057 13.7511 83.3608 13.7511C83.7159 13.7511 84.0047 14.0399 84.0047 14.395ZM82.9978 14.395C82.9978 14.5954 83.1604 14.7579 83.3608 14.7579C83.5612 14.7579 83.7238 14.5954 83.7238 14.395C83.7238 14.193 83.5612 14.0304 83.3608 14.0304C83.1604 14.0304 82.9978 14.193 82.9978 14.395ZM85.4592 13.7511V15.0373H85.1783V13.7511H85.4592ZM86.8194 14.1204H86.4754C86.4123 14.0652 86.3286 14.0304 86.2371 14.0304C86.0367 14.0304 85.8741 14.193 85.8741 14.395C85.8741 14.5954 86.0367 14.7579 86.2371 14.7579C86.3286 14.7579 86.4123 14.7248 86.4754 14.668H86.8194C86.7152 14.8858 86.4943 15.0373 86.2371 15.0373C85.882 15.0373 85.5932 14.7501 85.5932 14.395C85.5932 14.0399 85.882 13.7511 86.2371 13.7511C86.4943 13.7511 86.7152 13.9026 86.8194 14.1204ZM87.4882 14.2561C87.6366 14.3161 87.7407 14.4612 87.7407 14.6317C87.7407 14.8558 87.5593 15.0373 87.3352 15.0373C87.1237 15.0373 86.9501 14.8747 86.9312 14.668H87.2153C87.231 14.7201 87.2784 14.7579 87.3352 14.7579C87.4046 14.7579 87.4614 14.7011 87.4614 14.6317C87.4614 14.5891 87.4393 14.5512 87.4078 14.5291C87.2058 14.4265 86.9864 14.3524 86.9864 14.1015C86.9864 13.9074 87.1427 13.7511 87.3352 13.7511C87.5261 13.7511 87.6808 13.9026 87.6839 14.092H87.4046C87.3999 14.0573 87.3715 14.0304 87.3352 14.0304C87.2973 14.0304 87.2657 14.062 87.2657 14.1015C87.2657 14.1267 87.28 14.1504 87.3004 14.1614L87.4882 14.2561Z" fill="white"/>
<path d="M75.5233 11.6421C75.8748 11.6421 76.1636 11.9293 76.1636 12.2824C76.1636 12.6323 75.8732 12.9211 75.5233 12.9211H75.1262V11.6421H75.5233ZM75.4056 12.6433H75.5233C75.721 12.6433 75.8858 12.4785 75.8858 12.2824C75.8858 12.0831 75.7226 11.9199 75.5233 11.9199H75.4056V12.6433ZM77.5793 12.2824C77.5793 12.6355 77.2921 12.9211 76.9389 12.9211C76.5858 12.9211 76.3002 12.6355 76.3002 12.2824C76.3002 11.9293 76.5858 11.6421 76.9389 11.6421C77.2921 11.6421 77.5793 11.9293 77.5793 12.2824ZM76.578 12.2824C76.578 12.4817 76.7396 12.6433 76.9389 12.6433C77.1383 12.6433 77.2999 12.4817 77.2999 12.2824C77.2999 12.0815 77.1383 11.9199 76.9389 11.9199C76.7396 11.9199 76.578 12.0815 76.578 12.2824ZM80.0418 12.0438H79.7201C79.6542 11.9685 79.5569 11.9199 79.447 11.9199C79.2477 11.9199 79.0861 12.0815 79.0861 12.2824C79.0861 12.4817 79.2477 12.6433 79.447 12.6433C79.5428 12.6433 79.6307 12.6057 79.695 12.546H79.4423V12.2667H80.0873C80.0873 12.6276 79.8111 12.9211 79.447 12.9211C79.0939 12.9211 78.8083 12.6355 78.8083 12.2824C78.8083 11.9293 79.0939 11.6421 79.447 11.6421C79.717 11.642 79.9477 11.8085 80.0418 12.0438ZM80.6136 12.9211H80.3358V12.3875L79.9592 11.6421H80.2715L80.4755 12.0454L80.6779 11.6421H80.9902L80.6136 12.3875V12.9211ZM81.9425 12.9211H81.6444L81.5627 12.7061H81.172L81.0888 12.9211H80.7906L81.285 11.6421H81.4497L81.9425 12.9211ZM81.3666 12.2008L81.2787 12.4283H81.4545L81.3666 12.2008ZM77.8602 11.6421L78.3787 12.3153V11.6421H78.6896V12.9211H78.5253L77.987 12.2463V12.9211H77.6761V11.6421H77.8602ZM82.2282 11.6421L82.7466 12.3153V11.6421H83.0575V12.9211H82.8932L82.3549 12.2463V12.9211H82.044V11.6421H82.2282ZM84.3925 12.0438H84.0708C84.0049 11.9685 83.9076 11.9199 83.7977 11.9199C83.5984 11.9199 83.4368 12.0815 83.4368 12.2824C83.4368 12.4817 83.5984 12.6433 83.7977 12.6433C83.8935 12.6433 83.9813 12.6057 84.0457 12.546H83.793V12.2667H84.4381C84.4381 12.6276 84.1618 12.9211 83.7977 12.9211C83.4446 12.9211 83.159 12.6355 83.159 12.2824C83.159 11.9293 83.4446 11.6421 83.7977 11.6421C84.0677 11.642 84.2984 11.8085 84.3925 12.0438Z" fill="white"/>
<path d="M15.5699 32.4359L13.0308 39.2035H12.4644L14.9888 32.6019H11.6246V32.0941H15.5699V32.4359ZM20.3502 36.2347C20.3502 36.7588 20.3078 37.2145 20.2232 37.6019C20.1418 37.986 20.0214 38.305 19.8619 38.5589C19.7056 38.8096 19.5136 38.9968 19.2857 39.1205C19.0578 39.2409 18.7991 39.3011 18.5093 39.3011C18.2229 39.3011 17.9657 39.2409 17.7379 39.1205C17.51 38.9968 17.3163 38.8096 17.1568 38.5589C16.9973 38.305 16.8736 37.986 16.7857 37.6019C16.7011 37.2145 16.6588 36.7588 16.6588 36.2347V35.0433C16.6588 34.5192 16.7011 34.0667 16.7857 33.6859C16.8703 33.3018 16.9908 32.9844 17.147 32.7337C17.3065 32.4831 17.5002 32.2975 17.7281 32.1771C17.956 32.0567 18.2131 31.9964 18.4996 31.9964C18.786 31.9964 19.0432 32.0567 19.2711 32.1771C19.5022 32.2975 19.6975 32.4831 19.857 32.7337C20.0165 32.9844 20.1386 33.3018 20.2232 33.6859C20.3078 34.0667 20.3502 34.5192 20.3502 35.0433V36.2347ZM19.8033 34.9652C19.8033 34.1514 19.6942 33.5378 19.4761 33.1244C19.2613 32.7109 18.9358 32.5042 18.4996 32.5042C18.0699 32.5042 17.7444 32.7109 17.523 33.1244C17.3049 33.5378 17.1959 34.1514 17.1959 34.9652V36.3031C17.1959 36.7035 17.2235 37.0583 17.2789 37.3675C17.3375 37.6768 17.4205 37.9372 17.5279 38.1488C17.6386 38.3604 17.7753 38.5215 17.938 38.6322C18.1041 38.7428 18.2945 38.7982 18.5093 38.7982C18.7274 38.7982 18.9162 38.7428 19.0757 38.6322C19.2385 38.5215 19.3736 38.3604 19.481 38.1488C19.5884 37.9372 19.6682 37.6768 19.7203 37.3675C19.7756 37.0583 19.8033 36.7035 19.8033 36.3031V34.9652ZM25.2134 36.2347C25.2134 36.7588 25.1711 37.2145 25.0865 37.6019C25.0051 37.986 24.8847 38.305 24.7252 38.5589C24.5689 38.8096 24.3769 38.9968 24.149 39.1205C23.9211 39.2409 23.6623 39.3011 23.3726 39.3011C23.0862 39.3011 22.829 39.2409 22.6011 39.1205C22.3733 38.9968 22.1796 38.8096 22.0201 38.5589C21.8606 38.305 21.7369 37.986 21.649 37.6019C21.5644 37.2145 21.522 36.7588 21.522 36.2347V35.0433C21.522 34.5192 21.5644 34.0667 21.649 33.6859C21.7336 33.3018 21.8541 32.9844 22.0103 32.7337C22.1698 32.4831 22.3635 32.2975 22.5914 32.1771C22.8192 32.0567 23.0764 31.9964 23.3629 31.9964C23.6493 31.9964 23.9065 32.0567 24.1343 32.1771C24.3655 32.2975 24.5608 32.4831 24.7203 32.7337C24.8798 32.9844 25.0019 33.3018 25.0865 33.6859C25.1711 34.0667 25.2134 34.5192 25.2134 35.0433V36.2347ZM24.6666 34.9652C24.6666 34.1514 24.5575 33.5378 24.3394 33.1244C24.1246 32.7109 23.7991 32.5042 23.3629 32.5042C22.9332 32.5042 22.6076 32.7109 22.3863 33.1244C22.1682 33.5378 22.0591 34.1514 22.0591 34.9652V36.3031C22.0591 36.7035 22.0868 37.0583 22.1422 37.3675C22.2007 37.6768 22.2838 37.9372 22.3912 38.1488C22.5019 38.3604 22.6386 38.5215 22.8013 38.6322C22.9673 38.7428 23.1578 38.7982 23.3726 38.7982C23.5907 38.7982 23.7795 38.7428 23.939 38.6322C24.1018 38.5215 24.2369 38.3604 24.3443 38.1488C24.4517 37.9372 24.5315 37.6768 24.5836 37.3675C24.6389 37.0583 24.6666 36.7035 24.6666 36.3031V34.9652ZM30.0767 36.2347C30.0767 36.7588 30.0344 37.2145 29.9498 37.6019C29.8684 37.986 29.7479 38.305 29.5884 38.5589C29.4322 38.8096 29.2401 38.9968 29.0123 39.1205C28.7844 39.2409 28.5256 39.3011 28.2359 39.3011C27.9494 39.3011 27.6923 39.2409 27.4644 39.1205C27.2366 38.9968 27.0429 38.8096 26.8834 38.5589C26.7239 38.305 26.6002 37.986 26.5123 37.6019C26.4276 37.2145 26.3853 36.7588 26.3853 36.2347V35.0433C26.3853 34.5192 26.4276 34.0667 26.5123 33.6859C26.5969 33.3018 26.7173 32.9844 26.8736 32.7337C27.0331 32.4831 27.2268 32.2975 27.4547 32.1771C27.6825 32.0567 27.9397 31.9964 28.2261 31.9964C28.5126 31.9964 28.7698 32.0567 28.9976 32.1771C29.2287 32.2975 29.4241 32.4831 29.5836 32.7337C29.7431 32.9844 29.8651 33.3018 29.9498 33.6859C30.0344 34.0667 30.0767 34.5192 30.0767 35.0433V36.2347ZM29.5298 34.9652C29.5298 34.1514 29.4208 33.5378 29.2027 33.1244C28.9879 32.7109 28.6623 32.5042 28.2261 32.5042C27.7964 32.5042 27.4709 32.7109 27.2496 33.1244C27.0315 33.5378 26.9224 34.1514 26.9224 34.9652V36.3031C26.9224 36.7035 26.9501 37.0583 27.0054 37.3675C27.064 37.6768 27.147 37.9372 27.2545 38.1488C27.3651 38.3604 27.5019 38.5215 27.6646 38.6322C27.8306 38.7428 28.0211 38.7982 28.2359 38.7982C28.454 38.7982 28.6428 38.7428 28.8023 38.6322C28.9651 38.5215 29.1002 38.3604 29.2076 38.1488C29.315 37.9372 29.3948 37.6768 29.4468 37.3675C29.5022 37.0583 29.5298 36.7035 29.5298 36.3031V34.9652ZM34.8668 36.7914H34.2173V39.2035H33.6705V33.9203H34.2173V36.2591H34.857L36.4586 33.9203H37.1324L35.3111 36.474L37.3228 39.2035H36.6148L34.8668 36.7914ZM40.9947 34.433H38.7925V39.2035H38.2457V33.9203H40.9947V34.433ZM15.3843 49.2035H14.8423V46.7865H12.5181V49.2035H11.9713V43.9203H12.5181V46.2835H14.8423V43.9203H15.3843V49.2035ZM19.6666 49.2035C19.6405 49.1156 19.6194 49.0065 19.6031 48.8763C19.5868 48.7428 19.5754 48.6078 19.5689 48.471C19.5005 48.5817 19.4192 48.6875 19.3248 48.7884C19.2304 48.8861 19.1213 48.974 18.9976 49.0521C18.8772 49.127 18.7421 49.1872 18.5923 49.2328C18.4426 49.2783 18.2815 49.3011 18.1089 49.3011C17.8908 49.3011 17.6923 49.2702 17.5132 49.2083C17.3375 49.1465 17.1861 49.0537 17.0591 48.93C16.9322 48.8063 16.8345 48.6517 16.7662 48.4662C16.6978 48.2806 16.6636 48.0641 16.6636 47.8167C16.6636 47.5726 16.706 47.348 16.7906 47.1429C16.8752 46.9346 17.0005 46.7555 17.1666 46.6058C17.3358 46.4561 17.5458 46.3389 17.7964 46.2542C18.0471 46.1696 18.3384 46.1273 18.6705 46.1273H19.564V45.39C19.564 45.0124 19.4696 44.7422 19.2808 44.5794C19.0953 44.4134 18.8218 44.3304 18.4605 44.3304C18.2912 44.3304 18.135 44.3565 17.9918 44.4085C17.8518 44.4606 17.7313 44.5339 17.6304 44.6283C17.5295 44.7194 17.4514 44.8301 17.3961 44.9603C17.3407 45.0872 17.313 45.2272 17.313 45.3802L16.7711 45.3753C16.7711 45.1703 16.8117 44.9749 16.8931 44.7894C16.9745 44.6006 17.0901 44.4346 17.2398 44.2914C17.3895 44.1481 17.5702 44.0342 17.7818 43.9496C17.9934 43.8649 18.2278 43.8226 18.4849 43.8226C18.7226 43.8226 18.939 43.8519 19.1343 43.9105C19.3329 43.9658 19.5038 44.057 19.647 44.1839C19.7903 44.3076 19.9009 44.4704 19.9791 44.6722C20.0604 44.8708 20.1011 45.1133 20.1011 45.3997V48.0951C20.1011 48.1862 20.1044 48.2806 20.1109 48.3783C20.1174 48.4759 20.1255 48.572 20.1353 48.6664C20.1483 48.7575 20.163 48.8454 20.1793 48.93C20.1988 49.0114 20.22 49.083 20.2427 49.1449V49.2035H19.6666ZM18.1773 48.7787C18.3466 48.7787 18.5045 48.7559 18.6509 48.7103C18.8007 48.6615 18.9341 48.5964 19.0513 48.515C19.1685 48.4303 19.2694 48.3327 19.3541 48.222C19.442 48.1113 19.5119 47.9925 19.564 47.8656V46.5814H18.7486C18.2375 46.5814 17.8534 46.6888 17.5963 46.9037C17.3391 47.1185 17.2105 47.4082 17.2105 47.7728C17.2105 48.1211 17.2951 48.3766 17.4644 48.5394C17.6369 48.6989 17.8746 48.7787 18.1773 48.7787ZM27.523 49.2035H23.7535V48.7445L25.7066 46.1078C25.8889 45.8604 26.0419 45.6374 26.1656 45.4388C26.2925 45.2402 26.3935 45.0563 26.4683 44.8871C26.5464 44.7145 26.6018 44.5534 26.6343 44.4037C26.6669 44.2539 26.6832 44.1058 26.6832 43.9593C26.6832 43.7477 26.6571 43.5524 26.605 43.3734C26.553 43.1943 26.4765 43.0414 26.3755 42.9144C26.2746 42.7842 26.1477 42.6833 25.9947 42.6117C25.845 42.54 25.6724 42.5042 25.4771 42.5042C25.272 42.5042 25.0881 42.5449 24.9254 42.6263C24.7626 42.7077 24.6242 42.8216 24.5103 42.9681C24.3996 43.1146 24.3134 43.2887 24.2515 43.4906C24.1929 43.6891 24.1636 43.9072 24.1636 44.1449H23.6216C23.6216 43.8519 23.664 43.5752 23.7486 43.3148C23.8332 43.0544 23.9537 42.8265 24.1099 42.6312C24.2694 42.4359 24.4631 42.2813 24.691 42.1673C24.9221 42.0534 25.1841 41.9964 25.4771 41.9964C25.7473 41.9964 25.9914 42.0404 26.2095 42.1283C26.4276 42.2162 26.6116 42.3415 26.7613 42.5042C26.9143 42.667 27.0315 42.8672 27.1129 43.1048C27.1942 43.3425 27.2349 43.6094 27.2349 43.9056C27.2349 44.1205 27.2024 44.3369 27.1373 44.555C27.0722 44.7699 26.9859 44.9847 26.8785 45.1996C26.7711 45.4144 26.6457 45.6276 26.5025 45.8392C26.3625 46.0508 26.2177 46.2591 26.0679 46.4642L24.4127 48.7005H27.523V49.2035ZM29.2906 48.9642C29.2906 49.1107 29.2743 49.2572 29.2418 49.4037C29.2125 49.5501 29.1685 49.6901 29.1099 49.8236C29.0513 49.9603 28.9797 50.0889 28.8951 50.2093C28.8104 50.3298 28.7144 50.4388 28.607 50.5365L28.2603 50.2777C28.4101 50.0759 28.524 49.8724 28.6021 49.6673C28.6802 49.4622 28.7193 49.2311 28.7193 48.974V48.2757H29.2906V48.9642ZM34.1588 46.2347C34.1588 46.7588 34.1164 47.2145 34.0318 47.6019C33.9504 47.986 33.83 48.305 33.6705 48.5589C33.5142 48.8096 33.3222 48.9968 33.0943 49.1205C32.8664 49.2409 32.6076 49.3011 32.3179 49.3011C32.0315 49.3011 31.7743 49.2409 31.5464 49.1205C31.3186 48.9968 31.1249 48.8096 30.9654 48.5589C30.8059 48.305 30.6822 47.986 30.5943 47.6019C30.5097 47.2145 30.4673 46.7588 30.4673 46.2347V45.0433C30.4673 44.5192 30.5097 44.0667 30.5943 43.6859C30.6789 43.3018 30.7994 42.9844 30.9556 42.7337C31.1151 42.4831 31.3088 42.2975 31.5367 42.1771C31.7645 42.0567 32.0217 41.9964 32.3082 41.9964C32.5946 41.9964 32.8518 42.0567 33.0797 42.1771C33.3108 42.2975 33.5061 42.4831 33.6656 42.7337C33.8251 42.9844 33.9472 43.3018 34.0318 43.6859C34.1164 44.0667 34.1588 44.5192 34.1588 45.0433V46.2347ZM33.6119 44.9652C33.6119 44.1514 33.5028 43.5378 33.2847 43.1244C33.0699 42.7109 32.7444 42.5042 32.3082 42.5042C31.8785 42.5042 31.553 42.7109 31.3316 43.1244C31.1135 43.5378 31.0045 44.1514 31.0045 44.9652V46.3031C31.0045 46.7035 31.0321 47.0583 31.0875 47.3675C31.1461 47.6768 31.2291 47.9372 31.3365 48.1488C31.4472 48.3604 31.5839 48.5215 31.7466 48.6322C31.9127 48.7428 32.1031 48.7982 32.3179 48.7982C32.536 48.7982 32.7248 48.7428 32.8843 48.6322C33.0471 48.5215 33.1822 48.3604 33.2896 48.1488C33.397 47.9372 33.4768 47.6768 33.5289 47.3675C33.5842 47.0583 33.6119 46.7035 33.6119 46.3031V44.9652ZM37.9429 48.3978L39.6617 43.9203H40.3306V49.2035H39.7886V44.9603L38.1334 49.2035H37.7525L36.063 44.8529V49.2035H35.5259V43.9203H36.2339L37.9429 48.3978Z" fill="black"/>
<path d="M64.9565 35.3265H65.4692C65.6938 35.3265 65.8892 35.2907 66.0552 35.2191C66.2244 35.1442 66.366 35.0449 66.48 34.9212C66.5939 34.7975 66.6785 34.6527 66.7339 34.4867C66.7925 34.3174 66.8218 34.1384 66.8218 33.9496C66.8218 33.7347 66.7974 33.5394 66.7485 33.3636C66.6997 33.1846 66.6248 33.0316 66.5239 32.9046C66.423 32.7777 66.2961 32.68 66.1431 32.6117C65.9933 32.54 65.8143 32.5042 65.606 32.5042C65.4237 32.5042 65.2544 32.5384 65.0981 32.6068C64.9451 32.6719 64.8117 32.7679 64.6978 32.8949C64.5871 33.0218 64.4992 33.1748 64.4341 33.3539C64.3722 33.5329 64.3413 33.7347 64.3413 33.9593H63.7993C63.7993 33.6729 63.8433 33.4092 63.9312 33.1683C64.0223 32.9274 64.1476 32.7207 64.3071 32.5482C64.4699 32.3757 64.6619 32.2406 64.8833 32.1429C65.1047 32.0453 65.3455 31.9964 65.606 31.9964C65.8696 31.9964 66.1089 32.0404 66.3237 32.1283C66.5418 32.2162 66.7274 32.3447 66.8804 32.514C67.0366 32.68 67.1554 32.8851 67.2368 33.1292C67.3215 33.3734 67.3638 33.6533 67.3638 33.9691C67.3638 34.1286 67.3426 34.2881 67.3003 34.4476C67.258 34.6039 67.1945 34.752 67.1099 34.8919C67.0252 35.0319 66.9194 35.1605 66.7925 35.2777C66.6655 35.3916 66.5174 35.486 66.3481 35.5609C66.5467 35.626 66.716 35.7155 66.856 35.8294C66.9992 35.9434 67.1164 36.0752 67.2075 36.2249C67.2987 36.3714 67.3654 36.5342 67.4077 36.7132C67.45 36.889 67.4712 37.0746 67.4712 37.2699C67.4712 37.5921 67.424 37.8802 67.3296 38.1341C67.2384 38.3848 67.1099 38.598 66.9438 38.7738C66.7778 38.9463 66.5809 39.0781 66.353 39.1693C66.1284 39.2572 65.8843 39.3011 65.6206 39.3011C65.3765 39.3011 65.1388 39.2588 64.9077 39.1742C64.6799 39.0895 64.4764 38.9642 64.2974 38.7982C64.1216 38.6289 63.98 38.419 63.8726 38.1683C63.7684 37.9144 63.7163 37.6182 63.7163 37.2796H64.2583C64.2583 37.5042 64.2909 37.7093 64.356 37.8949C64.4243 38.0804 64.5171 38.2399 64.6343 38.3734C64.7547 38.5068 64.8979 38.611 65.064 38.6859C65.2332 38.7608 65.4188 38.7982 65.6206 38.7982C66.034 38.7982 66.3547 38.6696 66.5825 38.4124C66.8136 38.152 66.9292 37.7777 66.9292 37.2894C66.9292 37.0355 66.8934 36.8174 66.8218 36.6351C66.7534 36.4496 66.6541 36.2982 66.5239 36.181C66.397 36.0606 66.244 35.9727 66.0649 35.9173C65.8859 35.862 65.6873 35.8343 65.4692 35.8343H64.9565V35.3265ZM71.6411 32.0453V32.5677H71.5679C71.2098 32.5677 70.8924 32.6328 70.6157 32.763C70.339 32.89 70.1047 33.0755 69.9126 33.3197C69.7205 33.5606 69.5692 33.8535 69.4585 34.1986C69.3511 34.5436 69.286 34.931 69.2632 35.3607C69.4292 35.097 69.6359 34.8936 69.8833 34.7503C70.1307 34.6071 70.4058 34.5355 70.7085 34.5355C70.995 34.5355 71.2456 34.599 71.4604 34.7259C71.6785 34.8529 71.8576 35.0238 71.9976 35.2386C72.1408 35.4502 72.2482 35.6976 72.3198 35.9808C72.3914 36.264 72.4272 36.5619 72.4272 36.8744C72.4272 37.2162 72.3866 37.5352 72.3052 37.8314C72.2238 38.1276 72.1066 38.3848 71.9536 38.6029C71.8006 38.8177 71.6134 38.9886 71.3921 39.1156C71.174 39.2393 70.925 39.3011 70.645 39.3011C70.339 39.3011 70.0656 39.2328 69.8247 39.096C69.5871 38.9561 69.3853 38.7673 69.2192 38.5296C69.0532 38.292 68.9263 38.0153 68.8384 37.6996C68.7537 37.3838 68.7114 37.0469 68.7114 36.6888V36.0687C68.7114 35.4665 68.7651 34.918 68.8726 34.4232C68.9832 33.9284 69.1541 33.5052 69.3853 33.1537C69.6196 32.8021 69.9159 32.5303 70.2739 32.3382C70.6353 32.1429 71.0666 32.0453 71.5679 32.0453H71.6411ZM70.6206 35.0482C70.4644 35.0482 70.313 35.0775 70.1665 35.1361C70.02 35.1947 69.8849 35.2761 69.7612 35.3802C69.6408 35.4844 69.5366 35.6081 69.4487 35.7513C69.3608 35.8913 69.2957 36.0443 69.2534 36.2103V36.6986C69.2534 37.0274 69.2892 37.322 69.3608 37.5824C69.4357 37.8395 69.535 38.0576 69.6587 38.2367C69.7856 38.4157 69.9338 38.554 70.103 38.6517C70.2723 38.7461 70.453 38.7933 70.645 38.7933C70.8403 38.7933 71.0145 38.7445 71.1675 38.6468C71.3237 38.5459 71.4556 38.4108 71.563 38.2415C71.6704 38.069 71.7518 37.8672 71.8071 37.6361C71.8657 37.405 71.895 37.1592 71.895 36.8988C71.895 36.6514 71.869 36.4154 71.8169 36.1908C71.7648 35.9662 71.6851 35.7692 71.5776 35.5999C71.4735 35.4307 71.3416 35.2972 71.1821 35.1996C71.0226 35.0986 70.8354 35.0482 70.6206 35.0482ZM77.2222 36.2347C77.2222 36.7588 77.1799 37.2145 77.0952 37.6019C77.0138 37.986 76.8934 38.305 76.7339 38.5589C76.5776 38.8096 76.3856 38.9968 76.1577 39.1205C75.9299 39.2409 75.6711 39.3011 75.3813 39.3011C75.0949 39.3011 74.8377 39.2409 74.6099 39.1205C74.382 38.9968 74.1883 38.8096 74.0288 38.5589C73.8693 38.305 73.7456 37.986 73.6577 37.6019C73.5731 37.2145 73.5308 36.7588 73.5308 36.2347V35.0433C73.5308 34.5192 73.5731 34.0667 73.6577 33.6859C73.7424 33.3018 73.8628 32.9844 74.019 32.7337C74.1785 32.4831 74.3722 32.2975 74.6001 32.1771C74.828 32.0567 75.0851 31.9964 75.3716 31.9964C75.658 31.9964 75.9152 32.0567 76.1431 32.1771C76.3742 32.2975 76.5695 32.4831 76.729 32.7337C76.8885 32.9844 77.0106 33.3018 77.0952 33.6859C77.1799 34.0667 77.2222 34.5192 77.2222 35.0433V36.2347ZM76.6753 34.9652C76.6753 34.1514 76.5662 33.5378 76.3481 33.1244C76.1333 32.7109 75.8078 32.5042 75.3716 32.5042C74.9419 32.5042 74.6164 32.7109 74.395 33.1244C74.1769 33.5378 74.0679 34.1514 74.0679 34.9652V36.3031C74.0679 36.7035 74.0955 37.0583 74.1509 37.3675C74.2095 37.6768 74.2925 37.9372 74.3999 38.1488C74.5106 38.3604 74.6473 38.5215 74.8101 38.6322C74.9761 38.7428 75.1665 38.7982 75.3813 38.7982C75.5994 38.7982 75.7882 38.7428 75.9478 38.6322C76.1105 38.5215 76.2456 38.3604 76.353 38.1488C76.4604 37.9372 76.5402 37.6768 76.5923 37.3675C76.6476 37.0583 76.6753 36.7035 76.6753 36.3031V34.9652ZM82.0854 36.2347C82.0854 36.7588 82.0431 37.2145 81.9585 37.6019C81.8771 37.986 81.7567 38.305 81.5972 38.5589C81.4409 38.8096 81.2489 38.9968 81.021 39.1205C80.7931 39.2409 80.5343 39.3011 80.2446 39.3011C79.9582 39.3011 79.701 39.2409 79.4731 39.1205C79.2453 38.9968 79.0516 38.8096 78.8921 38.5589C78.7326 38.305 78.6089 37.986 78.521 37.6019C78.4364 37.2145 78.394 36.7588 78.394 36.2347V35.0433C78.394 34.5192 78.4364 34.0667 78.521 33.6859C78.6056 33.3018 78.7261 32.9844 78.8823 32.7337C79.0418 32.4831 79.2355 32.2975 79.4634 32.1771C79.6912 32.0567 79.9484 31.9964 80.2349 31.9964C80.5213 31.9964 80.7785 32.0567 81.0063 32.1771C81.2375 32.2975 81.4328 32.4831 81.5923 32.7337C81.7518 32.9844 81.8739 33.3018 81.9585 33.6859C82.0431 34.0667 82.0854 34.5192 82.0854 35.0433V36.2347ZM81.5386 34.9652C81.5386 34.1514 81.4295 33.5378 81.2114 33.1244C80.9966 32.7109 80.6711 32.5042 80.2349 32.5042C79.8052 32.5042 79.4797 32.7109 79.2583 33.1244C79.0402 33.5378 78.9312 34.1514 78.9312 34.9652V36.3031C78.9312 36.7035 78.9588 37.0583 79.0142 37.3675C79.0728 37.6768 79.1558 37.9372 79.2632 38.1488C79.3739 38.3604 79.5106 38.5215 79.6733 38.6322C79.8394 38.7428 80.0298 38.7982 80.2446 38.7982C80.4627 38.7982 80.6515 38.7428 80.811 38.6322C80.9738 38.5215 81.1089 38.3604 81.2163 38.1488C81.3237 37.9372 81.4035 37.6768 81.4556 37.3675C81.5109 37.0583 81.5386 36.7035 81.5386 36.3031V34.9652ZM86.8755 36.7914H86.2261V39.2035H85.6792V33.9203H86.2261V36.2591H86.8657L88.4673 33.9203H89.1411L87.3198 36.474L89.3315 39.2035H88.6235L86.8755 36.7914ZM93.0034 34.433H90.8013V39.2035H90.2544V33.9203H93.0034V34.433ZM67.3931 49.2035H66.8511V46.7865H64.5269V49.2035H63.98V43.9203H64.5269V46.2835H66.8511V43.9203H67.3931V49.2035ZM71.6753 49.2035C71.6493 49.1156 71.6281 49.0065 71.6118 48.8763C71.5955 48.7428 71.5841 48.6078 71.5776 48.471C71.5093 48.5817 71.4279 48.6875 71.3335 48.7884C71.2391 48.8861 71.13 48.974 71.0063 49.0521C70.8859 49.127 70.7508 49.1872 70.6011 49.2328C70.4513 49.2783 70.2902 49.3011 70.1177 49.3011C69.8996 49.3011 69.701 49.2702 69.522 49.2083C69.3462 49.1465 69.1948 49.0537 69.0679 48.93C68.9409 48.8063 68.8433 48.6517 68.7749 48.4662C68.7065 48.2806 68.6724 48.0641 68.6724 47.8167C68.6724 47.5726 68.7147 47.348 68.7993 47.1429C68.884 46.9346 69.0093 46.7555 69.1753 46.6058C69.3446 46.4561 69.5545 46.3389 69.8052 46.2542C70.0558 46.1696 70.3472 46.1273 70.6792 46.1273H71.5728V45.39C71.5728 45.0124 71.4784 44.7422 71.2896 44.5794C71.104 44.4134 70.8306 44.3304 70.4692 44.3304C70.3 44.3304 70.1437 44.3565 70.0005 44.4085C69.8605 44.4606 69.7401 44.5339 69.6392 44.6283C69.5382 44.7194 69.4601 44.8301 69.4048 44.9603C69.3494 45.0872 69.3218 45.2272 69.3218 45.3802L68.7798 45.3753C68.7798 45.1703 68.8205 44.9749 68.9019 44.7894C68.9832 44.6006 69.0988 44.4346 69.2485 44.2914C69.3983 44.1481 69.5789 44.0342 69.7905 43.9496C70.0021 43.8649 70.2365 43.8226 70.4937 43.8226C70.7313 43.8226 70.9478 43.8519 71.1431 43.9105C71.3416 43.9658 71.5125 44.057 71.6558 44.1839C71.799 44.3076 71.9097 44.4704 71.9878 44.6722C72.0692 44.8708 72.1099 45.1133 72.1099 45.3997V48.0951C72.1099 48.1862 72.1131 48.2806 72.1196 48.3783C72.1261 48.4759 72.1343 48.572 72.144 48.6664C72.1571 48.7575 72.1717 48.8454 72.188 48.93C72.2075 49.0114 72.2287 49.083 72.2515 49.1449V49.2035H71.6753ZM70.186 48.7787C70.3553 48.7787 70.5132 48.7559 70.6597 48.7103C70.8094 48.6615 70.9429 48.5964 71.0601 48.515C71.1772 48.4303 71.2782 48.3327 71.3628 48.222C71.4507 48.1113 71.5207 47.9925 71.5728 47.8656V46.5814H70.7573C70.2463 46.5814 69.8621 46.6888 69.605 46.9037C69.3478 47.1185 69.2192 47.4082 69.2192 47.7728C69.2192 48.1211 69.3039 48.3766 69.4731 48.5394C69.6457 48.6989 69.8833 48.7787 70.186 48.7787ZM78.8091 46.9085H79.7222V47.4164H78.8091V49.2035H78.2671V47.4164H75.4741V47.0697L78.2231 42.0941H78.8091V46.9085ZM76.1235 46.9085H78.2671V42.9144L78.0718 43.3099L76.1235 46.9085ZM81.2993 48.9642C81.2993 49.1107 81.283 49.2572 81.2505 49.4037C81.2212 49.5501 81.1772 49.6901 81.1187 49.8236C81.0601 49.9603 80.9884 50.0889 80.9038 50.2093C80.8192 50.3298 80.7231 50.4388 80.6157 50.5365L80.269 50.2777C80.4188 50.0759 80.5327 49.8724 80.6108 49.6673C80.689 49.4622 80.728 49.2311 80.728 48.974V48.2757H81.2993V48.9642ZM82.8716 45.5609L83.1646 42.0941H86.1675V42.6507H83.6284L83.4282 45.0335C83.4803 44.9912 83.5438 44.9473 83.6187 44.9017C83.6935 44.8529 83.7782 44.8106 83.8726 44.7747C83.967 44.7357 84.0679 44.7048 84.1753 44.682C84.286 44.6559 84.4032 44.6429 84.5269 44.6429C84.7938 44.6429 85.0363 44.6966 85.2544 44.804C85.4725 44.9082 85.658 45.0596 85.811 45.2581C85.964 45.4567 86.0828 45.6976 86.1675 45.9808C86.2521 46.264 86.2944 46.583 86.2944 46.9378C86.2944 47.2796 86.2586 47.5954 86.187 47.8851C86.1154 48.1716 86.0063 48.4206 85.8599 48.6322C85.7134 48.8405 85.5262 49.0049 85.2983 49.1253C85.0737 49.2425 84.8052 49.3011 84.4927 49.3011C84.2518 49.3011 84.0256 49.2621 83.814 49.1839C83.6056 49.1025 83.4201 48.9805 83.2573 48.8177C83.0946 48.655 82.9611 48.4499 82.8569 48.2025C82.7528 47.9551 82.6893 47.6654 82.6665 47.3333H83.1841C83.2297 47.8119 83.3647 48.1764 83.5894 48.4271C83.814 48.6745 84.1151 48.7982 84.4927 48.7982C84.9061 48.7982 85.2186 48.6371 85.4302 48.3148C85.645 47.9925 85.7524 47.5368 85.7524 46.9476C85.7524 46.7002 85.7231 46.4691 85.6646 46.2542C85.606 46.0394 85.5197 45.8539 85.4058 45.6976C85.2951 45.5381 85.1567 45.4144 84.9907 45.3265C84.828 45.2354 84.6392 45.1898 84.4243 45.1898C84.2811 45.1898 84.1558 45.2028 84.0483 45.2289C83.9409 45.2516 83.8433 45.2858 83.7554 45.3314C83.6707 45.3737 83.591 45.4258 83.5161 45.4876C83.4445 45.5495 83.3729 45.6195 83.3013 45.6976L82.8716 45.5609ZM89.9517 48.3978L91.6704 43.9203H92.3394V49.2035H91.7974V44.9603L90.1421 49.2035H89.7612L88.0718 44.8529V49.2035H87.5347V43.9203H88.2427L89.9517 48.3978Z" fill="black"/>
<path d="M152.169 39.2035H151.622V32.8119L150.016 33.5296V32.973L152.077 32.0697H152.169V39.2035ZM158.244 33.9251C158.244 34.1107 158.219 34.2881 158.17 34.4574C158.125 34.6234 158.06 34.7764 157.975 34.9164C157.89 35.0531 157.788 35.1768 157.667 35.2874C157.55 35.3949 157.418 35.4844 157.272 35.556C157.441 35.6276 157.594 35.7204 157.731 35.8343C157.871 35.9483 157.99 36.0817 158.087 36.2347C158.188 36.3845 158.265 36.5505 158.317 36.7328C158.372 36.915 158.4 37.1104 158.4 37.3187C158.4 37.641 158.349 37.9258 158.248 38.1732C158.151 38.4206 158.016 38.6289 157.843 38.7982C157.674 38.9642 157.474 39.0895 157.243 39.1742C157.011 39.2588 156.764 39.3011 156.5 39.3011C156.23 39.3011 155.98 39.2588 155.748 39.1742C155.517 39.0895 155.316 38.9642 155.143 38.7982C154.974 38.6289 154.84 38.4206 154.743 38.1732C154.645 37.9258 154.596 37.641 154.596 37.3187C154.596 37.1104 154.622 36.915 154.674 36.7328C154.726 36.5505 154.801 36.3845 154.899 36.2347C154.997 36.0817 155.114 35.9483 155.25 35.8343C155.387 35.7204 155.539 35.6276 155.705 35.556C155.558 35.4844 155.425 35.3949 155.304 35.2874C155.187 35.1768 155.086 35.0531 155.001 34.9164C154.92 34.7764 154.857 34.6234 154.811 34.4574C154.765 34.2881 154.743 34.1107 154.743 33.9251C154.743 33.6159 154.787 33.3425 154.874 33.1048C154.962 32.8639 155.084 32.6621 155.241 32.4994C155.397 32.3333 155.581 32.208 155.792 32.1234C156.007 32.0387 156.24 31.9964 156.491 31.9964C156.738 31.9964 156.969 32.0387 157.184 32.1234C157.399 32.208 157.584 32.3333 157.741 32.4994C157.897 32.6621 158.019 32.8639 158.107 33.1048C158.198 33.3425 158.244 33.6159 158.244 33.9251ZM157.853 37.3187C157.853 37.0941 157.819 36.889 157.75 36.7035C157.682 36.5179 157.586 36.36 157.462 36.2298C157.342 36.0964 157.199 35.9938 157.033 35.9222C156.867 35.8473 156.686 35.8099 156.491 35.8099C156.292 35.8099 156.11 35.8473 155.944 35.9222C155.778 35.9938 155.635 36.0964 155.514 36.2298C155.394 36.36 155.299 36.5179 155.231 36.7035C155.166 36.889 155.133 37.0941 155.133 37.3187C155.133 37.5531 155.166 37.763 155.231 37.9486C155.299 38.1309 155.394 38.2855 155.514 38.4124C155.635 38.5394 155.778 38.6354 155.944 38.7005C156.113 38.7656 156.299 38.7982 156.5 38.7982C156.699 38.7982 156.88 38.7656 157.042 38.7005C157.208 38.6354 157.352 38.5394 157.472 38.4124C157.593 38.2855 157.685 38.1309 157.75 37.9486C157.819 37.763 157.853 37.5531 157.853 37.3187ZM157.702 33.9203C157.702 33.7152 157.671 33.5264 157.609 33.3539C157.547 33.1781 157.462 33.0283 157.355 32.9046C157.247 32.7777 157.119 32.68 156.969 32.6117C156.823 32.54 156.663 32.5042 156.491 32.5042C156.315 32.5042 156.154 32.5368 156.007 32.6019C155.861 32.667 155.734 32.7614 155.626 32.8851C155.522 33.0055 155.439 33.1537 155.377 33.3294C155.319 33.5052 155.289 33.7022 155.289 33.9203C155.289 34.1318 155.319 34.3239 155.377 34.4964C155.436 34.6657 155.519 34.8106 155.626 34.931C155.734 35.0482 155.861 35.1393 156.007 35.2044C156.157 35.2695 156.32 35.3021 156.496 35.3021C156.668 35.3021 156.828 35.2695 156.974 35.2044C157.124 35.1393 157.252 35.0482 157.36 34.931C157.467 34.8106 157.55 34.6657 157.609 34.4964C157.671 34.3239 157.702 34.1318 157.702 33.9203ZM163.2 36.2347C163.2 36.7588 163.157 37.2145 163.073 37.6019C162.991 37.986 162.871 38.305 162.711 38.5589C162.555 38.8096 162.363 38.9968 162.135 39.1205C161.907 39.2409 161.649 39.3011 161.359 39.3011C161.072 39.3011 160.815 39.2409 160.587 39.1205C160.359 38.9968 160.166 38.8096 160.006 38.5589C159.847 38.305 159.723 37.986 159.635 37.6019C159.551 37.2145 159.508 36.7588 159.508 36.2347V35.0433C159.508 34.5192 159.551 34.0667 159.635 33.6859C159.72 33.3018 159.84 32.9844 159.997 32.7337C160.156 32.4831 160.35 32.2975 160.578 32.1771C160.805 32.0567 161.063 31.9964 161.349 31.9964C161.636 31.9964 161.893 32.0567 162.121 32.1771C162.352 32.2975 162.547 32.4831 162.706 32.7337C162.866 32.9844 162.988 33.3018 163.073 33.6859C163.157 34.0667 163.2 34.5192 163.2 35.0433V36.2347ZM162.653 34.9652C162.653 34.1514 162.544 33.5378 162.326 33.1244C162.111 32.7109 161.785 32.5042 161.349 32.5042C160.919 32.5042 160.594 32.7109 160.372 33.1244C160.154 33.5378 160.045 34.1514 160.045 34.9652V36.3031C160.045 36.7035 160.073 37.0583 160.128 37.3675C160.187 37.6768 160.27 37.9372 160.377 38.1488C160.488 38.3604 160.625 38.5215 160.788 38.6322C160.954 38.7428 161.144 38.7982 161.359 38.7982C161.577 38.7982 161.766 38.7428 161.925 38.6322C162.088 38.5215 162.223 38.3604 162.331 38.1488C162.438 37.9372 162.518 37.6768 162.57 37.3675C162.625 37.0583 162.653 36.7035 162.653 36.3031V34.9652ZM168.063 36.2347C168.063 36.7588 168.021 37.2145 167.936 37.6019C167.855 37.986 167.734 38.305 167.575 38.5589C167.418 38.8096 167.226 38.9968 166.998 39.1205C166.771 39.2409 166.512 39.3011 166.222 39.3011C165.936 39.3011 165.678 39.2409 165.451 39.1205C165.223 38.9968 165.029 38.8096 164.87 38.5589C164.71 38.305 164.586 37.986 164.498 37.6019C164.414 37.2145 164.372 36.7588 164.372 36.2347V35.0433C164.372 34.5192 164.414 34.0667 164.498 33.6859C164.583 33.3018 164.704 32.9844 164.86 32.7337C165.019 32.4831 165.213 32.2975 165.441 32.1771C165.669 32.0567 165.926 31.9964 166.212 31.9964C166.499 31.9964 166.756 32.0567 166.984 32.1771C167.215 32.2975 167.41 32.4831 167.57 32.7337C167.729 32.9844 167.851 33.3018 167.936 33.6859C168.021 34.0667 168.063 34.5192 168.063 35.0433V36.2347ZM167.516 34.9652C167.516 34.1514 167.407 33.5378 167.189 33.1244C166.974 32.7109 166.649 32.5042 166.212 32.5042C165.783 32.5042 165.457 32.7109 165.236 33.1244C165.018 33.5378 164.909 34.1514 164.909 34.9652V36.3031C164.909 36.7035 164.936 37.0583 164.992 37.3675C165.05 37.6768 165.133 37.9372 165.241 38.1488C165.351 38.3604 165.488 38.5215 165.651 38.6322C165.817 38.7428 166.007 38.7982 166.222 38.7982C166.44 38.7982 166.629 38.7428 166.789 38.6322C166.951 38.5215 167.086 38.3604 167.194 38.1488C167.301 37.9372 167.381 37.6768 167.433 37.3675C167.488 37.0583 167.516 36.7035 167.516 36.3031V34.9652ZM172.853 36.7914H172.204V39.2035H171.657V33.9203H172.204V36.2591H172.843L174.445 33.9203H175.119L173.297 36.474L175.309 39.2035H174.601L172.853 36.7914ZM178.981 34.433H176.779V39.2035H176.232V33.9203H178.981V34.433ZM153.371 49.2035H152.829V46.7865H150.504V49.2035H149.957V43.9203H150.504V46.2835H152.829V43.9203H153.371V49.2035ZM157.653 49.2035C157.627 49.1156 157.606 49.0065 157.589 48.8763C157.573 48.7428 157.562 48.6078 157.555 48.471C157.487 48.5817 157.405 48.6875 157.311 48.7884C157.217 48.8861 157.108 48.974 156.984 49.0521C156.863 49.127 156.728 49.1872 156.579 49.2328C156.429 49.2783 156.268 49.3011 156.095 49.3011C155.877 49.3011 155.678 49.2702 155.499 49.2083C155.324 49.1465 155.172 49.0537 155.045 48.93C154.918 48.8063 154.821 48.6517 154.752 48.4662C154.684 48.2806 154.65 48.0641 154.65 47.8167C154.65 47.5726 154.692 47.348 154.777 47.1429C154.861 46.9346 154.987 46.7555 155.153 46.6058C155.322 46.4561 155.532 46.3389 155.783 46.2542C156.033 46.1696 156.325 46.1273 156.657 46.1273H157.55V45.39C157.55 45.0124 157.456 44.7422 157.267 44.5794C157.081 44.4134 156.808 44.3304 156.447 44.3304C156.277 44.3304 156.121 44.3565 155.978 44.4085C155.838 44.4606 155.718 44.5339 155.617 44.6283C155.516 44.7194 155.438 44.8301 155.382 44.9603C155.327 45.0872 155.299 45.2272 155.299 45.3802L154.757 45.3753C154.757 45.1703 154.798 44.9749 154.879 44.7894C154.961 44.6006 155.076 44.4346 155.226 44.2914C155.376 44.1481 155.556 44.0342 155.768 43.9496C155.98 43.8649 156.214 43.8226 156.471 43.8226C156.709 43.8226 156.925 43.8519 157.121 43.9105C157.319 43.9658 157.49 44.057 157.633 44.1839C157.776 44.3076 157.887 44.4704 157.965 44.6722C158.047 44.8708 158.087 45.1133 158.087 45.3997V48.0951C158.087 48.1862 158.091 48.2806 158.097 48.3783C158.104 48.4759 158.112 48.572 158.122 48.6664C158.135 48.7575 158.149 48.8454 158.165 48.93C158.185 49.0114 158.206 49.083 158.229 49.1449V49.2035H157.653ZM156.164 48.7787C156.333 48.7787 156.491 48.7559 156.637 48.7103C156.787 48.6615 156.92 48.5964 157.038 48.515C157.155 48.4303 157.256 48.3327 157.34 48.222C157.428 48.1113 157.498 47.9925 157.55 47.8656V46.5814H156.735C156.224 46.5814 155.84 46.6888 155.582 46.9037C155.325 47.1185 155.197 47.4082 155.197 47.7728C155.197 48.1211 155.281 48.3766 155.451 48.5394C155.623 48.6989 155.861 48.7787 156.164 48.7787ZM165.451 42.4359L162.912 49.2035H162.345L164.87 42.6019H161.505V42.0941H165.451V42.4359ZM167.277 48.9642C167.277 49.1107 167.261 49.2572 167.228 49.4037C167.199 49.5501 167.155 49.6901 167.096 49.8236C167.038 49.9603 166.966 50.0889 166.881 50.2093C166.797 50.3298 166.701 50.4388 166.593 50.5365L166.247 50.2777C166.396 50.0759 166.51 49.8724 166.588 49.6673C166.666 49.4622 166.706 49.2311 166.706 48.974V48.2757H167.277V48.9642ZM171.564 46.9085H172.477V47.4164H171.564V49.2035H171.022V47.4164H168.229V47.0697L170.978 42.0941H171.564V46.9085ZM168.878 46.9085H171.022V42.9144L170.827 43.3099L168.878 46.9085ZM175.929 48.3978L177.648 43.9203H178.317V49.2035H177.775V44.9603L176.12 49.2035H175.739L174.049 44.8529V49.2035H173.512V43.9203H174.22L175.929 48.3978Z" fill="black"/>
<path d="M210.004 39.2035H209.457V32.8119L207.85 33.5296V32.973L209.911 32.0697H210.004V39.2035ZM216.171 36.2347C216.171 36.7588 216.128 37.2145 216.044 37.6019C215.962 37.986 215.842 38.305 215.682 38.5589C215.526 38.8096 215.334 38.9968 215.106 39.1205C214.878 39.2409 214.62 39.3011 214.33 39.3011C214.043 39.3011 213.786 39.2409 213.558 39.1205C213.33 38.9968 213.137 38.8096 212.977 38.5589C212.818 38.305 212.694 37.986 212.606 37.6019C212.522 37.2145 212.479 36.7588 212.479 36.2347V35.0433C212.479 34.5192 212.522 34.0667 212.606 33.6859C212.691 33.3018 212.811 32.9844 212.968 32.7337C213.127 32.4831 213.321 32.2975 213.549 32.1771C213.776 32.0567 214.034 31.9964 214.32 31.9964C214.607 31.9964 214.864 32.0567 215.092 32.1771C215.323 32.2975 215.518 32.4831 215.677 32.7337C215.837 32.9844 215.959 33.3018 216.044 33.6859C216.128 34.0667 216.171 34.5192 216.171 35.0433V36.2347ZM215.624 34.9652C215.624 34.1514 215.515 33.5378 215.297 33.1244C215.082 32.7109 214.756 32.5042 214.32 32.5042C213.89 32.5042 213.565 32.7109 213.344 33.1244C213.125 33.5378 213.016 34.1514 213.016 34.9652V36.3031C213.016 36.7035 213.044 37.0583 213.099 37.3675C213.158 37.6768 213.241 37.9372 213.348 38.1488C213.459 38.3604 213.596 38.5215 213.759 38.6322C213.925 38.7428 214.115 38.7982 214.33 38.7982C214.548 38.7982 214.737 38.7428 214.896 38.6322C215.059 38.5215 215.194 38.3604 215.302 38.1488C215.409 37.9372 215.489 37.6768 215.541 37.3675C215.596 37.0583 215.624 36.7035 215.624 36.3031V34.9652ZM217.738 35.5609L218.031 32.0941H221.034V32.6507H218.495L218.295 35.0335C218.347 34.9912 218.41 34.9473 218.485 34.9017C218.56 34.8529 218.645 34.8106 218.739 34.7747C218.833 34.7357 218.934 34.7048 219.042 34.682C219.152 34.6559 219.27 34.6429 219.393 34.6429C219.66 34.6429 219.903 34.6966 220.121 34.804C220.339 34.9082 220.524 35.0596 220.677 35.2581C220.83 35.4567 220.949 35.6976 221.034 35.9808C221.119 36.264 221.161 36.583 221.161 36.9378C221.161 37.2796 221.125 37.5954 221.053 37.8851C220.982 38.1716 220.873 38.4206 220.726 38.6322C220.58 38.8405 220.393 39.0049 220.165 39.1253C219.94 39.2425 219.672 39.3011 219.359 39.3011C219.118 39.3011 218.892 39.2621 218.68 39.1839C218.472 39.1025 218.287 38.9805 218.124 38.8177C217.961 38.655 217.828 38.4499 217.723 38.2025C217.619 37.9551 217.556 37.6654 217.533 37.3333H218.051C218.096 37.8119 218.231 38.1764 218.456 38.4271C218.68 38.6745 218.982 38.7982 219.359 38.7982C219.773 38.7982 220.085 38.6371 220.297 38.3148C220.511 37.9925 220.619 37.5368 220.619 36.9476C220.619 36.7002 220.59 36.4691 220.531 36.2542C220.472 36.0394 220.386 35.8539 220.272 35.6976C220.162 35.5381 220.023 35.4144 219.857 35.3265C219.694 35.2354 219.506 35.1898 219.291 35.1898C219.148 35.1898 219.022 35.2028 218.915 35.2289C218.807 35.2516 218.71 35.2858 218.622 35.3314C218.537 35.3737 218.457 35.4258 218.383 35.4876C218.311 35.5495 218.239 35.6195 218.168 35.6976L217.738 35.5609ZM225.897 36.2347C225.897 36.7588 225.855 37.2145 225.77 37.6019C225.689 37.986 225.568 38.305 225.409 38.5589C225.253 38.8096 225.061 38.9968 224.833 39.1205C224.605 39.2409 224.346 39.3011 224.056 39.3011C223.77 39.3011 223.513 39.2409 223.285 39.1205C223.057 38.9968 222.863 38.8096 222.704 38.5589C222.544 38.305 222.421 37.986 222.333 37.6019C222.248 37.2145 222.206 36.7588 222.206 36.2347V35.0433C222.206 34.5192 222.248 34.0667 222.333 33.6859C222.417 33.3018 222.538 32.9844 222.694 32.7337C222.854 32.4831 223.047 32.2975 223.275 32.1771C223.503 32.0567 223.76 31.9964 224.047 31.9964C224.333 31.9964 224.59 32.0567 224.818 32.1771C225.049 32.2975 225.245 32.4831 225.404 32.7337C225.564 32.9844 225.686 33.3018 225.77 33.6859C225.855 34.0667 225.897 34.5192 225.897 35.0433V36.2347ZM225.35 34.9652C225.35 34.1514 225.241 33.5378 225.023 33.1244C224.808 32.7109 224.483 32.5042 224.047 32.5042C223.617 32.5042 223.291 32.7109 223.07 33.1244C222.852 33.5378 222.743 34.1514 222.743 34.9652V36.3031C222.743 36.7035 222.771 37.0583 222.826 37.3675C222.885 37.6768 222.968 37.9372 223.075 38.1488C223.186 38.3604 223.322 38.5215 223.485 38.6322C223.651 38.7428 223.842 38.7982 224.056 38.7982C224.274 38.7982 224.463 38.7428 224.623 38.6322C224.786 38.5215 224.921 38.3604 225.028 38.1488C225.135 37.9372 225.215 37.6768 225.267 37.3675C225.323 37.0583 225.35 36.7035 225.35 36.3031V34.9652ZM230.687 36.7914H230.038V39.2035H229.491V33.9203H230.038V36.2591H230.677L232.279 33.9203H232.953L231.132 36.474L233.143 39.2035H232.435L230.687 36.7914ZM236.815 34.433H234.613V39.2035H234.066V33.9203H236.815V34.433ZM211.205 49.2035H210.663V46.7865H208.339V49.2035H207.792V43.9203H208.339V46.2835H210.663V43.9203H211.205V49.2035ZM215.487 49.2035C215.461 49.1156 215.44 49.0065 215.424 48.8763C215.407 48.7428 215.396 48.6078 215.389 48.471C215.321 48.5817 215.24 48.6875 215.145 48.7884C215.051 48.8861 214.942 48.974 214.818 49.0521C214.698 49.127 214.563 49.1872 214.413 49.2328C214.263 49.2783 214.102 49.3011 213.929 49.3011C213.711 49.3011 213.513 49.2702 213.334 49.2083C213.158 49.1465 213.007 49.0537 212.88 48.93C212.753 48.8063 212.655 48.6517 212.587 48.4662C212.518 48.2806 212.484 48.0641 212.484 47.8167C212.484 47.5726 212.526 47.348 212.611 47.1429C212.696 46.9346 212.821 46.7555 212.987 46.6058C213.156 46.4561 213.366 46.3389 213.617 46.2542C213.868 46.1696 214.159 46.1273 214.491 46.1273H215.385V45.39C215.385 45.0124 215.29 44.7422 215.101 44.5794C214.916 44.4134 214.642 44.3304 214.281 44.3304C214.112 44.3304 213.955 44.3565 213.812 44.4085C213.672 44.4606 213.552 44.5339 213.451 44.6283C213.35 44.7194 213.272 44.8301 213.217 44.9603C213.161 45.0872 213.134 45.2272 213.134 45.3802L212.592 45.3753C212.592 45.1703 212.632 44.9749 212.714 44.7894C212.795 44.6006 212.911 44.4346 213.06 44.2914C213.21 44.1481 213.391 44.0342 213.602 43.9496C213.814 43.8649 214.048 43.8226 214.305 43.8226C214.543 43.8226 214.76 43.8519 214.955 43.9105C215.153 43.9658 215.324 44.057 215.468 44.1839C215.611 44.3076 215.721 44.4704 215.8 44.6722C215.881 44.8708 215.922 45.1133 215.922 45.3997V48.0951C215.922 48.1862 215.925 48.2806 215.931 48.3783C215.938 48.4759 215.946 48.572 215.956 48.6664C215.969 48.7575 215.983 48.8454 216 48.93C216.019 49.0114 216.04 49.083 216.063 49.1449V49.2035H215.487ZM213.998 48.7787C214.167 48.7787 214.325 48.7559 214.471 48.7103C214.621 48.6615 214.755 48.5964 214.872 48.515C214.989 48.4303 215.09 48.3327 215.175 48.222C215.262 48.1113 215.332 47.9925 215.385 47.8656V46.5814H214.569C214.058 46.5814 213.674 46.6888 213.417 46.9037C213.16 47.1185 213.031 47.4082 213.031 47.7728C213.031 48.1211 213.116 48.3766 213.285 48.5394C213.457 48.6989 213.695 48.7787 213.998 48.7787ZM221.898 49.2035H221.351V42.8119L219.745 43.5296V42.973L221.805 42.0697H221.898V49.2035ZM228.065 46.2347C228.065 46.7588 228.023 47.2145 227.938 47.6019C227.857 47.986 227.736 48.305 227.577 48.5589C227.421 48.8096 227.229 48.9968 227.001 49.1205C226.773 49.2409 226.514 49.3011 226.224 49.3011C225.938 49.3011 225.681 49.2409 225.453 49.1205C225.225 48.9968 225.031 48.8096 224.872 48.5589C224.712 48.305 224.589 47.986 224.501 47.6019C224.416 47.2145 224.374 46.7588 224.374 46.2347V45.0433C224.374 44.5192 224.416 44.0667 224.501 43.6859C224.585 43.3018 224.706 42.9844 224.862 42.7337C225.022 42.4831 225.215 42.2975 225.443 42.1771C225.671 42.0567 225.928 41.9964 226.215 41.9964C226.501 41.9964 226.758 42.0567 226.986 42.1771C227.217 42.2975 227.413 42.4831 227.572 42.7337C227.732 42.9844 227.854 43.3018 227.938 43.6859C228.023 44.0667 228.065 44.5192 228.065 45.0433V46.2347ZM227.518 44.9652C227.518 44.1514 227.409 43.5378 227.191 43.1244C226.976 42.7109 226.651 42.5042 226.215 42.5042C225.785 42.5042 225.459 42.7109 225.238 43.1244C225.02 43.5378 224.911 44.1514 224.911 44.9652V46.3031C224.911 46.7035 224.939 47.0583 224.994 47.3675C225.052 47.6768 225.135 47.9372 225.243 48.1488C225.354 48.3604 225.49 48.5215 225.653 48.6322C225.819 48.7428 226.01 48.7982 226.224 48.7982C226.442 48.7982 226.631 48.7428 226.791 48.6322C226.954 48.5215 227.089 48.3604 227.196 48.1488C227.303 47.9372 227.383 47.6768 227.435 47.3675C227.491 47.0583 227.518 46.7035 227.518 46.3031V44.9652ZM229.974 48.9642C229.974 49.1107 229.958 49.2572 229.926 49.4037C229.896 49.5501 229.852 49.6901 229.794 49.8236C229.735 49.9603 229.663 50.0889 229.579 50.2093C229.494 50.3298 229.398 50.4388 229.291 50.5365L228.944 50.2777C229.094 50.0759 229.208 49.8724 229.286 49.6673C229.364 49.4622 229.403 49.2311 229.403 48.974V48.2757H229.974V48.9642ZM232.303 45.3265H232.816C233.041 45.3265 233.236 45.2907 233.402 45.2191C233.571 45.1442 233.713 45.0449 233.827 44.9212C233.941 44.7975 234.025 44.6527 234.081 44.4867C234.139 44.3174 234.169 44.1384 234.169 43.9496C234.169 43.7347 234.144 43.5394 234.095 43.3636C234.047 43.1846 233.972 43.0316 233.871 42.9046C233.77 42.7777 233.643 42.68 233.49 42.6117C233.34 42.54 233.161 42.5042 232.953 42.5042C232.771 42.5042 232.601 42.5384 232.445 42.6068C232.292 42.6719 232.159 42.7679 232.045 42.8949C231.934 43.0218 231.846 43.1748 231.781 43.3539C231.719 43.5329 231.688 43.7347 231.688 43.9593H231.146C231.146 43.6729 231.19 43.4092 231.278 43.1683C231.369 42.9274 231.495 42.7207 231.654 42.5482C231.817 42.3757 232.009 42.2406 232.23 42.1429C232.452 42.0453 232.692 41.9964 232.953 41.9964C233.217 41.9964 233.456 42.0404 233.671 42.1283C233.889 42.2162 234.074 42.3447 234.227 42.514C234.384 42.68 234.502 42.8851 234.584 43.1292C234.668 43.3734 234.711 43.6533 234.711 43.9691C234.711 44.1286 234.69 44.2881 234.647 44.4476C234.605 44.6039 234.541 44.752 234.457 44.8919C234.372 45.0319 234.266 45.1605 234.139 45.2777C234.012 45.3916 233.864 45.486 233.695 45.5609C233.894 45.626 234.063 45.7155 234.203 45.8294C234.346 45.9434 234.463 46.0752 234.554 46.2249C234.646 46.3714 234.712 46.5342 234.755 46.7132C234.797 46.889 234.818 47.0746 234.818 47.2699C234.818 47.5921 234.771 47.8802 234.677 48.1341C234.585 48.3848 234.457 48.598 234.291 48.7738C234.125 48.9463 233.928 49.0781 233.7 49.1693C233.475 49.2572 233.231 49.3011 232.968 49.3011C232.723 49.3011 232.486 49.2588 232.255 49.1742C232.027 49.0895 231.823 48.9642 231.644 48.7982C231.469 48.6289 231.327 48.419 231.219 48.1683C231.115 47.9144 231.063 47.6182 231.063 47.2796H231.605C231.605 47.5042 231.638 47.7093 231.703 47.8949C231.771 48.0804 231.864 48.2399 231.981 48.3734C232.102 48.5068 232.245 48.611 232.411 48.6859C232.58 48.7608 232.766 48.7982 232.968 48.7982C233.381 48.7982 233.702 48.6696 233.929 48.4124C234.161 48.152 234.276 47.7777 234.276 47.2894C234.276 47.0355 234.24 46.8174 234.169 46.6351C234.1 46.4496 234.001 46.2982 233.871 46.181C233.744 46.0606 233.591 45.9727 233.412 45.9173C233.233 45.862 233.034 45.8343 232.816 45.8343H232.303V45.3265ZM238.627 48.3978L240.345 43.9203H241.014V49.2035H240.472V44.9603L238.817 49.2035H238.436L236.747 44.8529V49.2035H236.21V43.9203H236.918L238.627 48.3978Z" fill="black"/>
<path d="M272.779 32.4359L270.24 39.2035H269.674L272.198 32.6019H268.834V32.0941H272.779V32.4359ZM274.264 35.5609L274.557 32.0941H277.56V32.6507H275.021L274.82 35.0335C274.872 34.9912 274.936 34.9473 275.011 34.9017C275.086 34.8529 275.17 34.8106 275.265 34.7747C275.359 34.7357 275.46 34.7048 275.567 34.682C275.678 34.6559 275.795 34.6429 275.919 34.6429C276.186 34.6429 276.428 34.6966 276.646 34.804C276.865 34.9082 277.05 35.0596 277.203 35.2581C277.356 35.4567 277.475 35.6976 277.56 35.9808C277.644 36.264 277.687 36.583 277.687 36.9378C277.687 37.2796 277.651 37.5954 277.579 37.8851C277.507 38.1716 277.398 38.4206 277.252 38.6322C277.105 38.8405 276.918 39.0049 276.69 39.1253C276.466 39.2425 276.197 39.3011 275.885 39.3011C275.644 39.3011 275.418 39.2621 275.206 39.1839C274.998 39.1025 274.812 38.9805 274.649 38.8177C274.487 38.655 274.353 38.4499 274.249 38.2025C274.145 37.9551 274.081 37.6654 274.059 37.3333H274.576C274.622 37.8119 274.757 38.1764 274.981 38.4271C275.206 38.6745 275.507 38.7982 275.885 38.7982C276.298 38.7982 276.611 38.6371 276.822 38.3148C277.037 37.9925 277.145 37.5368 277.145 36.9476C277.145 36.7002 277.115 36.4691 277.057 36.2542C276.998 36.0394 276.912 35.8539 276.798 35.6976C276.687 35.5381 276.549 35.4144 276.383 35.3265C276.22 35.2354 276.031 35.1898 275.816 35.1898C275.673 35.1898 275.548 35.2028 275.44 35.2289C275.333 35.2516 275.235 35.2858 275.147 35.3314C275.063 35.3737 274.983 35.4258 274.908 35.4876C274.837 35.5495 274.765 35.6195 274.693 35.6976L274.264 35.5609ZM282.423 36.2347C282.423 36.7588 282.381 37.2145 282.296 37.6019C282.215 37.986 282.094 38.305 281.935 38.5589C281.778 38.8096 281.586 38.9968 281.358 39.1205C281.131 39.2409 280.872 39.3011 280.582 39.3011C280.296 39.3011 280.038 39.2409 279.811 39.1205C279.583 38.9968 279.389 38.8096 279.229 38.5589C279.07 38.305 278.946 37.986 278.858 37.6019C278.774 37.2145 278.731 36.7588 278.731 36.2347V35.0433C278.731 34.5192 278.774 34.0667 278.858 33.6859C278.943 33.3018 279.063 32.9844 279.22 32.7337C279.379 32.4831 279.573 32.2975 279.801 32.1771C280.029 32.0567 280.286 31.9964 280.572 31.9964C280.859 31.9964 281.116 32.0567 281.344 32.1771C281.575 32.2975 281.77 32.4831 281.93 32.7337C282.089 32.9844 282.211 33.3018 282.296 33.6859C282.381 34.0667 282.423 34.5192 282.423 35.0433V36.2347ZM281.876 34.9652C281.876 34.1514 281.767 33.5378 281.549 33.1244C281.334 32.7109 281.008 32.5042 280.572 32.5042C280.143 32.5042 279.817 32.7109 279.596 33.1244C279.378 33.5378 279.269 34.1514 279.269 34.9652V36.3031C279.269 36.7035 279.296 37.0583 279.352 37.3675C279.41 37.6768 279.493 37.9372 279.601 38.1488C279.711 38.3604 279.848 38.5215 280.011 38.6322C280.177 38.7428 280.367 38.7982 280.582 38.7982C280.8 38.7982 280.989 38.7428 281.148 38.6322C281.311 38.5215 281.446 38.3604 281.554 38.1488C281.661 37.9372 281.741 37.6768 281.793 37.3675C281.848 37.0583 281.876 36.7035 281.876 36.3031V34.9652ZM287.213 36.7914H286.563V39.2035H286.017V33.9203H286.563V36.2591H287.203L288.805 33.9203H289.479L287.657 36.474L289.669 39.2035H288.961L287.213 36.7914ZM293.341 34.433H291.139V39.2035H290.592V33.9203H293.341V34.433ZM272.594 49.2035H272.052V46.7865H269.728V49.2035H269.181V43.9203H269.728V46.2835H272.052V43.9203H272.594V49.2035ZM276.876 49.2035C276.85 49.1156 276.829 49.0065 276.812 48.8763C276.796 48.7428 276.785 48.6078 276.778 48.471C276.71 48.5817 276.629 48.6875 276.534 48.7884C276.44 48.8861 276.331 48.974 276.207 49.0521C276.087 49.127 275.951 49.1872 275.802 49.2328C275.652 49.2783 275.491 49.3011 275.318 49.3011C275.1 49.3011 274.902 49.2702 274.723 49.2083C274.547 49.1465 274.396 49.0537 274.269 48.93C274.142 48.8063 274.044 48.6517 273.976 48.4662C273.907 48.2806 273.873 48.0641 273.873 47.8167C273.873 47.5726 273.915 47.348 274 47.1429C274.085 46.9346 274.21 46.7555 274.376 46.6058C274.545 46.4561 274.755 46.3389 275.006 46.2542C275.257 46.1696 275.548 46.1273 275.88 46.1273H276.773V45.39C276.773 45.0124 276.679 44.7422 276.49 44.5794C276.305 44.4134 276.031 44.3304 275.67 44.3304C275.501 44.3304 275.344 44.3565 275.201 44.4085C275.061 44.4606 274.941 44.5339 274.84 44.6283C274.739 44.7194 274.661 44.8301 274.605 44.9603C274.55 45.0872 274.522 45.2272 274.522 45.3802L273.98 45.3753C273.98 45.1703 274.021 44.9749 274.103 44.7894C274.184 44.6006 274.299 44.4346 274.449 44.2914C274.599 44.1481 274.78 44.0342 274.991 43.9496C275.203 43.8649 275.437 43.8226 275.694 43.8226C275.932 43.8226 276.148 43.8519 276.344 43.9105C276.542 43.9658 276.713 44.057 276.856 44.1839C277 44.3076 277.11 44.4704 277.188 44.6722C277.27 44.8708 277.311 45.1133 277.311 45.3997V48.0951C277.311 48.1862 277.314 48.2806 277.32 48.3783C277.327 48.4759 277.335 48.572 277.345 48.6664C277.358 48.7575 277.372 48.8454 277.389 48.93C277.408 49.0114 277.429 49.083 277.452 49.1449V49.2035H276.876ZM275.387 48.7787C275.556 48.7787 275.714 48.7559 275.86 48.7103C276.01 48.6615 276.144 48.5964 276.261 48.515C276.378 48.4303 276.479 48.3327 276.563 48.222C276.651 48.1113 276.721 47.9925 276.773 47.8656V46.5814H275.958C275.447 46.5814 275.063 46.6888 274.806 46.9037C274.549 47.1185 274.42 47.4082 274.42 47.7728C274.42 48.1211 274.505 48.3766 274.674 48.5394C274.846 48.6989 275.084 48.7787 275.387 48.7787ZM283.287 49.2035H282.74V42.8119L281.134 43.5296V42.973L283.194 42.0697H283.287V49.2035ZM286.915 45.3265H287.428C287.652 45.3265 287.848 45.2907 288.014 45.2191C288.183 45.1442 288.325 45.0449 288.438 44.9212C288.552 44.7975 288.637 44.6527 288.692 44.4867C288.751 44.3174 288.78 44.1384 288.78 43.9496C288.78 43.7347 288.756 43.5394 288.707 43.3636C288.658 43.1846 288.583 43.0316 288.482 42.9046C288.382 42.7777 288.255 42.68 288.102 42.6117C287.952 42.54 287.773 42.5042 287.564 42.5042C287.382 42.5042 287.213 42.5384 287.057 42.6068C286.904 42.6719 286.77 42.7679 286.656 42.8949C286.546 43.0218 286.458 43.1748 286.393 43.3539C286.331 43.5329 286.3 43.7347 286.3 43.9593H285.758C285.758 43.6729 285.802 43.4092 285.89 43.1683C285.981 42.9274 286.106 42.7207 286.266 42.5482C286.428 42.3757 286.62 42.2406 286.842 42.1429C287.063 42.0453 287.304 41.9964 287.564 41.9964C287.828 41.9964 288.067 42.0404 288.282 42.1283C288.5 42.2162 288.686 42.3447 288.839 42.514C288.995 42.68 289.114 42.8851 289.195 43.1292C289.28 43.3734 289.322 43.6533 289.322 43.9691C289.322 44.1286 289.301 44.2881 289.259 44.4476C289.216 44.6039 289.153 44.752 289.068 44.8919C288.984 45.0319 288.878 45.1605 288.751 45.2777C288.624 45.3916 288.476 45.486 288.307 45.5609C288.505 45.626 288.674 45.7155 288.814 45.8294C288.958 45.9434 289.075 46.0752 289.166 46.2249C289.257 46.3714 289.324 46.5342 289.366 46.7132C289.409 46.889 289.43 47.0746 289.43 47.2699C289.43 47.5921 289.382 47.8802 289.288 48.1341C289.197 48.3848 289.068 48.598 288.902 48.7738C288.736 48.9463 288.539 49.0781 288.312 49.1693C288.087 49.2572 287.843 49.3011 287.579 49.3011C287.335 49.3011 287.097 49.2588 286.866 49.1742C286.638 49.0895 286.435 48.9642 286.256 48.7982C286.08 48.6289 285.938 48.419 285.831 48.1683C285.727 47.9144 285.675 47.6182 285.675 47.2796H286.217C286.217 47.5042 286.249 47.7093 286.314 47.8949C286.383 48.0804 286.476 48.2399 286.593 48.3734C286.713 48.5068 286.856 48.611 287.022 48.6859C287.192 48.7608 287.377 48.7982 287.579 48.7982C287.993 48.7982 288.313 48.6696 288.541 48.4124C288.772 48.152 288.888 47.7777 288.888 47.2894C288.888 47.0355 288.852 46.8174 288.78 46.6351C288.712 46.4496 288.613 46.2982 288.482 46.181C288.355 46.0606 288.202 45.9727 288.023 45.9173C287.844 45.862 287.646 45.8343 287.428 45.8343H286.915V45.3265ZM291.363 48.9642C291.363 49.1107 291.347 49.2572 291.314 49.4037C291.285 49.5501 291.241 49.6901 291.183 49.8236C291.124 49.9603 291.052 50.0889 290.968 50.2093C290.883 50.3298 290.787 50.4388 290.68 50.5365L290.333 50.2777C290.483 50.0759 290.597 49.8724 290.675 49.6673C290.753 49.4622 290.792 49.2311 290.792 48.974V48.2757H291.363V48.9642ZM296.373 49.2035H292.604V48.7445L294.557 46.1078C294.739 45.8604 294.892 45.6374 295.016 45.4388C295.143 45.2402 295.243 45.0563 295.318 44.8871C295.396 44.7145 295.452 44.5534 295.484 44.4037C295.517 44.2539 295.533 44.1058 295.533 43.9593C295.533 43.7477 295.507 43.5524 295.455 43.3734C295.403 43.1943 295.326 43.0414 295.226 42.9144C295.125 42.7842 294.998 42.6833 294.845 42.6117C294.695 42.54 294.522 42.5042 294.327 42.5042C294.122 42.5042 293.938 42.5449 293.775 42.6263C293.613 42.7077 293.474 42.8216 293.36 42.9681C293.25 43.1146 293.163 43.2887 293.102 43.4906C293.043 43.6891 293.014 43.9072 293.014 44.1449H292.472C292.472 43.8519 292.514 43.5752 292.599 43.3148C292.683 43.0544 292.804 42.8265 292.96 42.6312C293.119 42.4359 293.313 42.2813 293.541 42.1673C293.772 42.0534 294.034 41.9964 294.327 41.9964C294.597 41.9964 294.841 42.0404 295.06 42.1283C295.278 42.2162 295.462 42.3415 295.611 42.5042C295.764 42.667 295.882 42.8672 295.963 43.1048C296.044 43.3425 296.085 43.6094 296.085 43.9056C296.085 44.1205 296.052 44.3369 295.987 44.555C295.922 44.7699 295.836 44.9847 295.729 45.1996C295.621 45.4144 295.496 45.6276 295.353 45.8392C295.213 46.0508 295.068 46.2591 294.918 46.4642L293.263 48.7005H296.373V49.2035ZM300.016 48.3978L301.734 43.9203H302.403V49.2035H301.861V44.9603L300.206 49.2035H299.825L298.136 44.8529V49.2035H297.599V43.9203H298.307L300.016 48.3978Z" fill="black"/>
<path d="M336.417 35.5609L336.71 32.0941H339.713V32.6507H337.174L336.974 35.0335C337.026 34.9912 337.089 34.9473 337.164 34.9017C337.239 34.8529 337.323 34.8106 337.418 34.7747C337.512 34.7357 337.613 34.7048 337.721 34.682C337.831 34.6559 337.948 34.6429 338.072 34.6429C338.339 34.6429 338.582 34.6966 338.8 34.804C339.018 34.9082 339.203 35.0596 339.356 35.2581C339.509 35.4567 339.628 35.6976 339.713 35.9808C339.797 36.264 339.84 36.583 339.84 36.9378C339.84 37.2796 339.804 37.5954 339.732 37.8851C339.661 38.1716 339.552 38.4206 339.405 38.6322C339.259 38.8405 339.071 39.0049 338.844 39.1253C338.619 39.2425 338.35 39.3011 338.038 39.3011C337.797 39.3011 337.571 39.2621 337.359 39.1839C337.151 39.1025 336.965 38.9805 336.803 38.8177C336.64 38.655 336.506 38.4499 336.402 38.2025C336.298 37.9551 336.235 37.6654 336.212 37.3333H336.729C336.775 37.8119 336.91 38.1764 337.135 38.4271C337.359 38.6745 337.66 38.7982 338.038 38.7982C338.451 38.7982 338.764 38.6371 338.975 38.3148C339.19 37.9925 339.298 37.5368 339.298 36.9476C339.298 36.7002 339.268 36.4691 339.21 36.2542C339.151 36.0394 339.065 35.8539 338.951 35.6976C338.84 35.5381 338.702 35.4144 338.536 35.3265C338.373 35.2354 338.184 35.1898 337.97 35.1898C337.826 35.1898 337.701 35.2028 337.594 35.2289C337.486 35.2516 337.389 35.2858 337.301 35.3314C337.216 35.3737 337.136 35.4258 337.061 35.4876C336.99 35.5495 336.918 35.6195 336.847 35.6976L336.417 35.5609ZM341.28 35.5609L341.573 32.0941H344.576V32.6507H342.037L341.837 35.0335C341.889 34.9912 341.952 34.9473 342.027 34.9017C342.102 34.8529 342.187 34.8106 342.281 34.7747C342.376 34.7357 342.476 34.7048 342.584 34.682C342.695 34.6559 342.812 34.6429 342.935 34.6429C343.202 34.6429 343.445 34.6966 343.663 34.804C343.881 34.9082 344.067 35.0596 344.22 35.2581C344.373 35.4567 344.491 35.6976 344.576 35.9808C344.661 36.264 344.703 36.583 344.703 36.9378C344.703 37.2796 344.667 37.5954 344.596 37.8851C344.524 38.1716 344.415 38.4206 344.268 38.6322C344.122 38.8405 343.935 39.0049 343.707 39.1253C343.482 39.2425 343.214 39.3011 342.901 39.3011C342.66 39.3011 342.434 39.2621 342.223 39.1839C342.014 39.1025 341.829 38.9805 341.666 38.8177C341.503 38.655 341.37 38.4499 341.266 38.2025C341.161 37.9551 341.098 37.6654 341.075 37.3333H341.593C341.638 37.8119 341.773 38.1764 341.998 38.4271C342.223 38.6745 342.524 38.7982 342.901 38.7982C343.315 38.7982 343.627 38.6371 343.839 38.3148C344.054 37.9925 344.161 37.5368 344.161 36.9476C344.161 36.7002 344.132 36.4691 344.073 36.2542C344.015 36.0394 343.928 35.8539 343.814 35.6976C343.704 35.5381 343.565 35.4144 343.399 35.3265C343.237 35.2354 343.048 35.1898 342.833 35.1898C342.69 35.1898 342.564 35.2028 342.457 35.2289C342.349 35.2516 342.252 35.2858 342.164 35.3314C342.079 35.3737 342 35.4258 341.925 35.4876C341.853 35.5495 341.781 35.6195 341.71 35.6976L341.28 35.5609ZM349.439 36.2347C349.439 36.7588 349.397 37.2145 349.312 37.6019C349.231 37.986 349.111 38.305 348.951 38.5589C348.795 38.8096 348.603 38.9968 348.375 39.1205C348.147 39.2409 347.888 39.3011 347.599 39.3011C347.312 39.3011 347.055 39.2409 346.827 39.1205C346.599 38.9968 346.405 38.8096 346.246 38.5589C346.086 38.305 345.963 37.986 345.875 37.6019C345.79 37.2145 345.748 36.7588 345.748 36.2347V35.0433C345.748 34.5192 345.79 34.0667 345.875 33.6859C345.96 33.3018 346.08 32.9844 346.236 32.7337C346.396 32.4831 346.589 32.2975 346.817 32.1771C347.045 32.0567 347.302 31.9964 347.589 31.9964C347.875 31.9964 348.132 32.0567 348.36 32.1771C348.591 32.2975 348.787 32.4831 348.946 32.7337C349.106 32.9844 349.228 33.3018 349.312 33.6859C349.397 34.0667 349.439 34.5192 349.439 35.0433V36.2347ZM348.892 34.9652C348.892 34.1514 348.783 33.5378 348.565 33.1244C348.35 32.7109 348.025 32.5042 347.589 32.5042C347.159 32.5042 346.834 32.7109 346.612 33.1244C346.394 33.5378 346.285 34.1514 346.285 34.9652V36.3031C346.285 36.7035 346.313 37.0583 346.368 37.3675C346.427 37.6768 346.51 37.9372 346.617 38.1488C346.728 38.3604 346.864 38.5215 347.027 38.6322C347.193 38.7428 347.384 38.7982 347.599 38.7982C347.817 38.7982 348.005 38.7428 348.165 38.6322C348.328 38.5215 348.463 38.3604 348.57 38.1488C348.678 37.9372 348.757 37.6768 348.809 37.3675C348.865 37.0583 348.892 36.7035 348.892 36.3031V34.9652ZM354.229 36.7914H353.58V39.2035H353.033V33.9203H353.58V36.2591H354.22L355.821 33.9203H356.495L354.674 36.474L356.685 39.2035H355.977L354.229 36.7914ZM360.357 34.433H358.155V39.2035H357.608V33.9203H360.357V34.433ZM339.61 49.2035H339.068V46.7865H336.744V49.2035H336.197V43.9203H336.744V46.2835H339.068V43.9203H339.61V49.2035ZM343.892 49.2035C343.866 49.1156 343.845 49.0065 343.829 48.8763C343.813 48.7428 343.801 48.6078 343.795 48.471C343.726 48.5817 343.645 48.6875 343.551 48.7884C343.456 48.8861 343.347 48.974 343.224 49.0521C343.103 49.127 342.968 49.1872 342.818 49.2328C342.668 49.2783 342.507 49.3011 342.335 49.3011C342.117 49.3011 341.918 49.2702 341.739 49.2083C341.563 49.1465 341.412 49.0537 341.285 48.93C341.158 48.8063 341.06 48.6517 340.992 48.4662C340.924 48.2806 340.89 48.0641 340.89 47.8167C340.89 47.5726 340.932 47.348 341.016 47.1429C341.101 46.9346 341.226 46.7555 341.392 46.6058C341.562 46.4561 341.772 46.3389 342.022 46.2542C342.273 46.1696 342.564 46.1273 342.896 46.1273H343.79V45.39C343.79 45.0124 343.696 44.7422 343.507 44.5794C343.321 44.4134 343.048 44.3304 342.686 44.3304C342.517 44.3304 342.361 44.3565 342.218 44.4085C342.078 44.4606 341.957 44.5339 341.856 44.6283C341.755 44.7194 341.677 44.8301 341.622 44.9603C341.567 45.0872 341.539 45.2272 341.539 45.3802L340.997 45.3753C340.997 45.1703 341.038 44.9749 341.119 44.7894C341.2 44.6006 341.316 44.4346 341.466 44.2914C341.615 44.1481 341.796 44.0342 342.008 43.9496C342.219 43.8649 342.454 43.8226 342.711 43.8226C342.948 43.8226 343.165 43.8519 343.36 43.9105C343.559 43.9658 343.73 44.057 343.873 44.1839C344.016 44.3076 344.127 44.4704 344.205 44.6722C344.286 44.8708 344.327 45.1133 344.327 45.3997V48.0951C344.327 48.1862 344.33 48.2806 344.337 48.3783C344.343 48.4759 344.351 48.572 344.361 48.6664C344.374 48.7575 344.389 48.8454 344.405 48.93C344.425 49.0114 344.446 49.083 344.469 49.1449V49.2035H343.892ZM342.403 48.7787C342.572 48.7787 342.73 48.7559 342.877 48.7103C343.027 48.6615 343.16 48.5964 343.277 48.515C343.394 48.4303 343.495 48.3327 343.58 48.222C343.668 48.1113 343.738 47.9925 343.79 47.8656V46.5814H342.974C342.463 46.5814 342.079 46.6888 341.822 46.9037C341.565 47.1185 341.436 47.4082 341.436 47.7728C341.436 48.1211 341.521 48.3766 341.69 48.5394C341.863 48.6989 342.1 48.7787 342.403 48.7787ZM350.304 49.2035H349.757V42.8119L348.15 43.5296V42.973L350.211 42.0697H350.304V49.2035ZM355.753 42.0453V42.5677H355.68C355.321 42.5677 355.004 42.6328 354.727 42.763C354.451 42.89 354.216 43.0755 354.024 43.3197C353.832 43.5606 353.681 43.8535 353.57 44.1986C353.463 44.5436 353.398 44.931 353.375 45.3607C353.541 45.097 353.748 44.8936 353.995 44.7503C354.242 44.6071 354.517 44.5355 354.82 44.5355C355.107 44.5355 355.357 44.599 355.572 44.7259C355.79 44.8529 355.969 45.0238 356.109 45.2386C356.252 45.4502 356.36 45.6976 356.432 45.9808C356.503 46.264 356.539 46.5619 356.539 46.8744C356.539 47.2162 356.498 47.5352 356.417 47.8314C356.335 48.1276 356.218 48.3848 356.065 48.6029C355.912 48.8177 355.725 48.9886 355.504 49.1156C355.286 49.2393 355.037 49.3011 354.757 49.3011C354.451 49.3011 354.177 49.2328 353.936 49.096C353.699 48.9561 353.497 48.7673 353.331 48.5296C353.165 48.292 353.038 48.0153 352.95 47.6996C352.865 47.3838 352.823 47.0469 352.823 46.6888V46.0687C352.823 45.4665 352.877 44.918 352.984 44.4232C353.095 43.9284 353.266 43.5052 353.497 43.1537C353.731 42.8021 354.028 42.5303 354.386 42.3382C354.747 42.1429 355.178 42.0453 355.68 42.0453H355.753ZM354.732 45.0482C354.576 45.0482 354.425 45.0775 354.278 45.1361C354.132 45.1947 353.997 45.2761 353.873 45.3802C353.752 45.4844 353.648 45.6081 353.56 45.7513C353.473 45.8913 353.407 46.0443 353.365 46.2103V46.6986C353.365 47.0274 353.401 47.322 353.473 47.5824C353.547 47.8395 353.647 48.0576 353.77 48.2367C353.897 48.4157 354.045 48.554 354.215 48.6517C354.384 48.7461 354.565 48.7933 354.757 48.7933C354.952 48.7933 355.126 48.7445 355.279 48.6468C355.435 48.5459 355.567 48.4108 355.675 48.2415C355.782 48.069 355.863 47.8672 355.919 47.6361C355.977 47.405 356.007 47.1592 356.007 46.8988C356.007 46.6514 355.981 46.4154 355.929 46.1908C355.877 45.9662 355.797 45.7692 355.689 45.5999C355.585 45.4307 355.453 45.2972 355.294 45.1996C355.134 45.0986 354.947 45.0482 354.732 45.0482ZM358.38 48.9642C358.38 49.1107 358.363 49.2572 358.331 49.4037C358.302 49.5501 358.258 49.6901 358.199 49.8236C358.141 49.9603 358.069 50.0889 357.984 50.2093C357.9 50.3298 357.804 50.4388 357.696 50.5365L357.349 50.2777C357.499 50.0759 357.613 49.8724 357.691 49.6673C357.769 49.4622 357.808 49.2311 357.808 48.974V48.2757H358.38V48.9642ZM361.944 49.2035H361.397V42.8119L359.791 43.5296V42.973L361.851 42.0697H361.944V49.2035ZM367.032 48.3978L368.751 43.9203H369.42V49.2035H368.878V44.9603L367.223 49.2035H366.842L365.152 44.8529V49.2035H364.615V43.9203H365.323L367.032 48.3978Z" fill="black"/>
<path d="M421.21 35.3265H421.722C421.947 35.3265 422.142 35.2907 422.308 35.2191C422.478 35.1442 422.619 35.0449 422.733 34.9212C422.847 34.7975 422.932 34.6527 422.987 34.4867C423.046 34.3174 423.075 34.1384 423.075 33.9496C423.075 33.7347 423.051 33.5394 423.002 33.3636C422.953 33.1846 422.878 33.0316 422.777 32.9046C422.676 32.7777 422.549 32.68 422.396 32.6117C422.247 32.54 422.067 32.5042 421.859 32.5042C421.677 32.5042 421.508 32.5384 421.351 32.6068C421.198 32.6719 421.065 32.7679 420.951 32.8949C420.84 33.0218 420.752 33.1748 420.687 33.3539C420.625 33.5329 420.594 33.7347 420.594 33.9593H420.052C420.052 33.6729 420.096 33.4092 420.184 33.1683C420.275 32.9274 420.401 32.7207 420.56 32.5482C420.723 32.3757 420.915 32.2406 421.136 32.1429C421.358 32.0453 421.599 31.9964 421.859 31.9964C422.123 31.9964 422.362 32.0404 422.577 32.1283C422.795 32.2162 422.981 32.3447 423.134 32.514C423.29 32.68 423.409 32.8851 423.49 33.1292C423.575 33.3734 423.617 33.6533 423.617 33.9691C423.617 34.1286 423.596 34.2881 423.553 34.4476C423.511 34.6039 423.448 34.752 423.363 34.8919C423.278 35.0319 423.173 35.1605 423.046 35.2777C422.919 35.3916 422.771 35.486 422.601 35.5609C422.8 35.626 422.969 35.7155 423.109 35.8294C423.252 35.9434 423.37 36.0752 423.461 36.2249C423.552 36.3714 423.619 36.5342 423.661 36.7132C423.703 36.889 423.724 37.0746 423.724 37.2699C423.724 37.5921 423.677 37.8802 423.583 38.1341C423.492 38.3848 423.363 38.598 423.197 38.7738C423.031 38.9463 422.834 39.0781 422.606 39.1693C422.382 39.2572 422.137 39.3011 421.874 39.3011C421.63 39.3011 421.392 39.2588 421.161 39.1742C420.933 39.0895 420.73 38.9642 420.551 38.7982C420.375 38.6289 420.233 38.419 420.126 38.1683C420.022 37.9144 419.969 37.6182 419.969 37.2796H420.511C420.511 37.5042 420.544 37.7093 420.609 37.8949C420.677 38.0804 420.77 38.2399 420.887 38.3734C421.008 38.5068 421.151 38.611 421.317 38.6859C421.486 38.7608 421.672 38.7982 421.874 38.7982C422.287 38.7982 422.608 38.6696 422.836 38.4124C423.067 38.152 423.182 37.7777 423.182 37.2894C423.182 37.0355 423.147 36.8174 423.075 36.6351C423.007 36.4496 422.907 36.2982 422.777 36.181C422.65 36.0606 422.497 35.9727 422.318 35.9173C422.139 35.862 421.941 35.8343 421.722 35.8343H421.21V35.3265ZM428.612 36.2347C428.612 36.7588 428.57 37.2145 428.485 37.6019C428.404 37.986 428.283 38.305 428.124 38.5589C427.968 38.8096 427.775 38.9968 427.548 39.1205C427.32 39.2409 427.061 39.3011 426.771 39.3011C426.485 39.3011 426.228 39.2409 426 39.1205C425.772 38.9968 425.578 38.8096 425.419 38.5589C425.259 38.305 425.135 37.986 425.048 37.6019C424.963 37.2145 424.921 36.7588 424.921 36.2347V35.0433C424.921 34.5192 424.963 34.0667 425.048 33.6859C425.132 33.3018 425.253 32.9844 425.409 32.7337C425.568 32.4831 425.762 32.2975 425.99 32.1771C426.218 32.0567 426.475 31.9964 426.761 31.9964C427.048 31.9964 427.305 32.0567 427.533 32.1771C427.764 32.2975 427.959 32.4831 428.119 32.7337C428.278 32.9844 428.4 33.3018 428.485 33.6859C428.57 34.0667 428.612 34.5192 428.612 35.0433V36.2347ZM428.065 34.9652C428.065 34.1514 427.956 33.5378 427.738 33.1244C427.523 32.7109 427.198 32.5042 426.761 32.5042C426.332 32.5042 426.006 32.7109 425.785 33.1244C425.567 33.5378 425.458 34.1514 425.458 34.9652V36.3031C425.458 36.7035 425.485 37.0583 425.541 37.3675C425.599 37.6768 425.682 37.9372 425.79 38.1488C425.9 38.3604 426.037 38.5215 426.2 38.6322C426.366 38.7428 426.556 38.7982 426.771 38.7982C426.989 38.7982 427.178 38.7428 427.338 38.6322C427.5 38.5215 427.635 38.3604 427.743 38.1488C427.85 37.9372 427.93 37.6768 427.982 37.3675C428.038 37.0583 428.065 36.7035 428.065 36.3031V34.9652ZM433.475 36.2347C433.475 36.7588 433.433 37.2145 433.348 37.6019C433.267 37.986 433.147 38.305 432.987 38.5589C432.831 38.8096 432.639 38.9968 432.411 39.1205C432.183 39.2409 431.924 39.3011 431.635 39.3011C431.348 39.3011 431.091 39.2409 430.863 39.1205C430.635 38.9968 430.441 38.8096 430.282 38.5589C430.122 38.305 429.999 37.986 429.911 37.6019C429.826 37.2145 429.784 36.7588 429.784 36.2347V35.0433C429.784 34.5192 429.826 34.0667 429.911 33.6859C429.996 33.3018 430.116 32.9844 430.272 32.7337C430.432 32.4831 430.625 32.2975 430.853 32.1771C431.081 32.0567 431.338 31.9964 431.625 31.9964C431.911 31.9964 432.168 32.0567 432.396 32.1771C432.627 32.2975 432.823 32.4831 432.982 32.7337C433.142 32.9844 433.264 33.3018 433.348 33.6859C433.433 34.0667 433.475 34.5192 433.475 35.0433V36.2347ZM432.928 34.9652C432.928 34.1514 432.819 33.5378 432.601 33.1244C432.386 32.7109 432.061 32.5042 431.625 32.5042C431.195 32.5042 430.87 32.7109 430.648 33.1244C430.43 33.5378 430.321 34.1514 430.321 34.9652V36.3031C430.321 36.7035 430.349 37.0583 430.404 37.3675C430.463 37.6768 430.546 37.9372 430.653 38.1488C430.764 38.3604 430.9 38.5215 431.063 38.6322C431.229 38.7428 431.42 38.7982 431.635 38.7982C431.853 38.7982 432.041 38.7428 432.201 38.6322C432.364 38.5215 432.499 38.3604 432.606 38.1488C432.714 37.9372 432.793 37.6768 432.845 37.3675C432.901 37.0583 432.928 36.7035 432.928 36.3031V34.9652ZM438.265 36.7914H437.616V39.2035H437.069V33.9203H437.616V36.2591H438.256L439.857 33.9203H440.531L438.71 36.474L440.721 39.2035H440.013L438.265 36.7914ZM444.393 34.433H442.191V39.2035H441.644V33.9203H444.393V34.433ZM423.646 49.2035H423.104V46.7865H420.78V49.2035H420.233V43.9203H420.78V46.2835H423.104V43.9203H423.646V49.2035ZM427.928 49.2035C427.902 49.1156 427.881 49.0065 427.865 48.8763C427.849 48.7428 427.837 48.6078 427.831 48.471C427.762 48.5817 427.681 48.6875 427.587 48.7884C427.492 48.8861 427.383 48.974 427.26 49.0521C427.139 49.127 427.004 49.1872 426.854 49.2328C426.705 49.2783 426.543 49.3011 426.371 49.3011C426.153 49.3011 425.954 49.2702 425.775 49.2083C425.599 49.1465 425.448 49.0537 425.321 48.93C425.194 48.8063 425.096 48.6517 425.028 48.4662C424.96 48.2806 424.926 48.0641 424.926 47.8167C424.926 47.5726 424.968 47.348 425.052 47.1429C425.137 46.9346 425.262 46.7555 425.428 46.6058C425.598 46.4561 425.808 46.3389 426.058 46.2542C426.309 46.1696 426.6 46.1273 426.932 46.1273H427.826V45.39C427.826 45.0124 427.732 44.7422 427.543 44.5794C427.357 44.4134 427.084 44.3304 426.722 44.3304C426.553 44.3304 426.397 44.3565 426.254 44.4085C426.114 44.4606 425.993 44.5339 425.892 44.6283C425.791 44.7194 425.713 44.8301 425.658 44.9603C425.603 45.0872 425.575 45.2272 425.575 45.3802L425.033 45.3753C425.033 45.1703 425.074 44.9749 425.155 44.7894C425.236 44.6006 425.352 44.4346 425.502 44.2914C425.651 44.1481 425.832 44.0342 426.044 43.9496C426.255 43.8649 426.49 43.8226 426.747 43.8226C426.984 43.8226 427.201 43.8519 427.396 43.9105C427.595 43.9658 427.766 44.057 427.909 44.1839C428.052 44.3076 428.163 44.4704 428.241 44.6722C428.322 44.8708 428.363 45.1133 428.363 45.3997V48.0951C428.363 48.1862 428.366 48.2806 428.373 48.3783C428.379 48.4759 428.387 48.572 428.397 48.6664C428.41 48.7575 428.425 48.8454 428.441 48.93C428.461 49.0114 428.482 49.083 428.505 49.1449V49.2035H427.928ZM426.439 48.7787C426.608 48.7787 426.766 48.7559 426.913 48.7103C427.063 48.6615 427.196 48.5964 427.313 48.515C427.43 48.4303 427.531 48.3327 427.616 48.222C427.704 48.1113 427.774 47.9925 427.826 47.8656V46.5814H427.01C426.499 46.5814 426.115 46.6888 425.858 46.9037C425.601 47.1185 425.472 47.4082 425.472 47.7728C425.472 48.1211 425.557 48.3766 425.726 48.5394C425.899 48.6989 426.136 48.7787 426.439 48.7787ZM434.34 49.2035H433.793V42.8119L432.186 43.5296V42.973L434.247 42.0697H434.34V49.2035ZM437.665 48.7347C438.081 48.7347 438.431 48.6647 438.715 48.5247C438.998 48.3848 439.226 48.1911 439.398 47.9437C439.574 47.693 439.701 47.4001 439.779 47.0648C439.857 46.7262 439.901 46.3584 439.911 45.9613C439.83 46.098 439.735 46.2233 439.628 46.3372C439.524 46.4479 439.41 46.544 439.286 46.6253C439.162 46.7035 439.03 46.7653 438.89 46.8109C438.75 46.8532 438.604 46.8744 438.451 46.8744C438.168 46.8744 437.919 46.8076 437.704 46.6742C437.492 46.5407 437.315 46.3633 437.172 46.1419C437.028 45.9206 436.921 45.6667 436.849 45.3802C436.778 45.0938 436.742 44.7975 436.742 44.4915C436.742 44.1497 436.783 43.8275 436.864 43.5247C436.945 43.222 437.063 42.9583 437.216 42.7337C437.369 42.5059 437.557 42.3268 437.782 42.1966C438.007 42.0632 438.264 41.9964 438.553 41.9964C438.876 41.9964 439.156 42.068 439.393 42.2113C439.634 42.3512 439.833 42.5466 439.989 42.7972C440.145 43.0479 440.261 43.3473 440.336 43.6956C440.414 44.044 440.453 44.4232 440.453 44.8333V45.3949C440.453 45.7432 440.435 46.0817 440.399 46.4105C440.363 46.736 440.303 47.042 440.219 47.3285C440.137 47.6149 440.026 47.877 439.886 48.1146C439.75 48.349 439.577 48.5508 439.369 48.7201C439.164 48.8893 438.92 49.0212 438.636 49.1156C438.357 49.2067 438.033 49.2523 437.665 49.2523H437.562L437.567 48.7347H437.665ZM438.524 46.3617C438.7 46.3617 438.863 46.3275 439.012 46.2591C439.162 46.1875 439.296 46.0947 439.413 45.9808C439.53 45.8669 439.631 45.7367 439.716 45.5902C439.8 45.4404 439.867 45.2874 439.916 45.1312V44.7747C439.916 44.4037 439.882 44.0781 439.813 43.7982C439.745 43.515 439.65 43.279 439.53 43.0902C439.41 42.8981 439.266 42.7533 439.1 42.6556C438.934 42.558 438.754 42.5091 438.558 42.5091C438.357 42.5091 438.176 42.5628 438.016 42.6703C437.86 42.7744 437.727 42.916 437.616 43.0951C437.505 43.2741 437.421 43.4824 437.362 43.7201C437.303 43.9544 437.274 44.2035 437.274 44.4671C437.274 44.708 437.3 44.9424 437.352 45.1703C437.408 45.3981 437.487 45.5999 437.592 45.7757C437.696 45.9515 437.826 46.0931 437.982 46.2005C438.138 46.308 438.319 46.3617 438.524 46.3617ZM442.416 48.9642C442.416 49.1107 442.399 49.2572 442.367 49.4037C442.338 49.5501 442.294 49.6901 442.235 49.8236C442.177 49.9603 442.105 50.0889 442.02 50.2093C441.936 50.3298 441.84 50.4388 441.732 50.5365L441.385 50.2777C441.535 50.0759 441.649 49.8724 441.727 49.6673C441.805 49.4622 441.844 49.2311 441.844 48.974V48.2757H442.416V48.9642ZM447.284 46.2347C447.284 46.7588 447.242 47.2145 447.157 47.6019C447.076 47.986 446.955 48.305 446.796 48.5589C446.639 48.8096 446.447 48.9968 446.219 49.1205C445.992 49.2409 445.733 49.3011 445.443 49.3011C445.157 49.3011 444.899 49.2409 444.672 49.1205C444.444 48.9968 444.25 48.8096 444.091 48.5589C443.931 48.305 443.807 47.986 443.719 47.6019C443.635 47.2145 443.593 46.7588 443.593 46.2347V45.0433C443.593 44.5192 443.635 44.0667 443.719 43.6859C443.804 43.3018 443.925 42.9844 444.081 42.7337C444.24 42.4831 444.434 42.2975 444.662 42.1771C444.89 42.0567 445.147 41.9964 445.433 41.9964C445.72 41.9964 445.977 42.0567 446.205 42.1771C446.436 42.2975 446.631 42.4831 446.791 42.7337C446.95 42.9844 447.072 43.3018 447.157 43.6859C447.242 44.0667 447.284 44.5192 447.284 45.0433V46.2347ZM446.737 44.9652C446.737 44.1514 446.628 43.5378 446.41 43.1244C446.195 42.7109 445.87 42.5042 445.433 42.5042C445.004 42.5042 444.678 42.7109 444.457 43.1244C444.239 43.5378 444.13 44.1514 444.13 44.9652V46.3031C444.13 46.7035 444.157 47.0583 444.213 47.3675C444.271 47.6768 444.354 47.9372 444.462 48.1488C444.572 48.3604 444.709 48.5215 444.872 48.6322C445.038 48.7428 445.228 48.7982 445.443 48.7982C445.661 48.7982 445.85 48.7428 446.01 48.6322C446.172 48.5215 446.307 48.3604 446.415 48.1488C446.522 47.9372 446.602 47.6768 446.654 47.3675C446.709 47.0583 446.737 46.7035 446.737 46.3031V44.9652ZM451.068 48.3978L452.787 43.9203H453.456V49.2035H452.914V44.9603L451.259 49.2035H450.878L449.188 44.8529V49.2035H448.651V43.9203H449.359L451.068 48.3978Z" fill="black"/>
</svg>
