<svg width="468" height="53" viewBox="0 0 468 53" fill="none" xmlns="http://www.w3.org/2000/svg">
<path d="M99.6816 18.8722H458.703V7.16943H90.9726L99.6816 18.8722Z" fill="#201500" stroke="black" stroke-width="0.5" stroke-miterlimit="10" stroke-linecap="round" stroke-linejoin="round"/>
<path d="M463.99 28.5338H461.433C459.926 28.5338 458.703 27.3115 458.703 25.8038V7.17801C458.703 5.67023 459.926 4.44794 461.433 4.44794H464.495C466.003 4.44794 467.225 5.67023 467.225 7.17801L466.548 26.0662C466.499 27.4431 465.368 28.5338 463.99 28.5338Z" fill="#5159A3" stroke="black" stroke-width="0.5" stroke-miterlimit="10" stroke-linecap="round" stroke-linejoin="round"/>
<path d="M99.6815 18.8722H25.4555L10.9632 7.16943H90.9725L99.6815 18.8722Z" fill="#5159A3" stroke="black" stroke-width="0.5" stroke-miterlimit="10" stroke-linecap="round" stroke-linejoin="round"/>
<path d="M13.3785 7.61178L10.1034 5.28477C9.72502 5.0159 9.50024 3.84916 9.50024 3.38497C9.50024 2.32814 8.64349 1.47137 7.58664 1.47137C6.52979 1.47137 5.67303 2.32814 5.67303 3.38497V5.4488C5.67303 6.35408 6.12434 7.1998 6.87639 7.70373L10.6229 10.2143L13.3785 7.61178Z" fill="#5159A3" stroke="black" stroke-width="0.5" stroke-miterlimit="10" stroke-linecap="round" stroke-linejoin="round"/>
<path d="M1.06751 16.1082L11.3599 6.43515C11.6619 6.15128 12.1239 6.12428 12.457 6.37099L25.3266 15.9041C25.5428 16.0642 25.8048 16.1507 26.0739 16.1507H37.9785C38.5388 16.1507 38.764 16.8736 38.3029 17.1918L26.7131 25.1888C26.392 25.4103 25.9863 25.47 25.615 25.3505L1.39174 17.5487C0.770476 17.3486 0.591901 16.5552 1.06751 16.1082Z" fill="#5159A3" stroke="black" stroke-width="0.5" stroke-miterlimit="10" stroke-linecap="round" stroke-linejoin="round"/>
<path d="M9.52571 15.4788C10.3195 15.4788 10.963 14.8353 10.963 14.0415C10.963 13.2477 10.3195 12.6042 9.52571 12.6042C8.73189 12.6042 8.08838 13.2477 8.08838 14.0415C8.08838 14.8353 8.73189 15.4788 9.52571 15.4788Z" fill="#5159A3" stroke="black" stroke-width="0.5" stroke-miterlimit="10" stroke-linecap="round" stroke-linejoin="round"/>
<path d="M25.515 24.0177C26.3088 24.0177 26.9524 23.3741 26.9524 22.5803C26.9524 21.7865 26.3088 21.143 25.515 21.143C24.7212 21.143 24.0777 21.7865 24.0777 22.5803C24.0777 23.3741 24.7212 24.0177 25.515 24.0177Z" fill="#5159A3" stroke="black" stroke-width="0.5" stroke-miterlimit="10" stroke-linecap="round" stroke-linejoin="round"/>
<path d="M51.6458 7.16955H50.0129V3.82726C50.0129 3.37634 50.3784 3.0108 50.8294 3.0108C51.2803 3.0108 51.6458 3.37634 51.6458 3.82726V7.16955Z" fill="#221500" stroke="black" stroke-width="0.5" stroke-miterlimit="10" stroke-linecap="round" stroke-linejoin="round"/>
<path d="M80.1893 7.1695H76.9328V3.94447C76.9328 3.77162 77.0729 3.63147 77.2458 3.63147H77.6225C77.8096 3.63147 77.9838 3.72676 78.0847 3.8843L80.1893 7.1695Z" fill="#221500" stroke="black" stroke-width="0.5" stroke-miterlimit="10" stroke-linecap="round" stroke-linejoin="round"/>
<path d="M238.865 3.98805H235.648V0.802343C235.648 0.631591 235.786 0.493164 235.957 0.493164H236.329C236.514 0.493164 236.686 0.587278 236.786 0.742933L238.865 3.98805Z" fill="#221500" stroke="black" stroke-width="0.5" stroke-miterlimit="10" stroke-linecap="round" stroke-linejoin="round"/>
<path d="M57.1017 18.8725H55.9111V23.0229C55.9111 23.3517 56.1776 23.6182 56.5064 23.6182C56.8352 23.6182 57.1018 23.3517 57.1018 23.0229V18.8725H57.1017Z" fill="#221500" stroke="black" stroke-width="0.5" stroke-miterlimit="10" stroke-linecap="round" stroke-linejoin="round"/>
<path d="M87.7406 18.8725H86.5499V23.0229C86.5499 23.3517 86.8165 23.6182 87.1453 23.6182C87.4741 23.6182 87.7406 23.3517 87.7406 23.0229V18.8725H87.7406Z" fill="#221500" stroke="black" stroke-width="0.5" stroke-miterlimit="10" stroke-linecap="round" stroke-linejoin="round"/>
<path d="M70.4218 18.8725H69.2311V23.0229C69.2311 23.3517 69.4976 23.6182 69.8264 23.6182C70.1552 23.6182 70.4218 23.3517 70.4218 23.0229V18.8725H70.4218Z" fill="#221500" stroke="black" stroke-width="0.5" stroke-miterlimit="10" stroke-linecap="round" stroke-linejoin="round"/>
<path d="M102.603 19.8928H96.899C96.7233 19.8928 96.5582 19.8094 96.4539 19.668L86.7316 6.48749C86.6281 6.34722 86.7283 6.14886 86.9026 6.14886H92.6066C92.7822 6.14886 92.9474 6.23229 93.0516 6.37361L102.774 19.5542C102.877 19.6945 102.777 19.8928 102.603 19.8928Z" fill="#5159A3" stroke="black" stroke-width="0.5" stroke-miterlimit="10" stroke-linecap="round" stroke-linejoin="round"/>
<path d="M193.245 16.9782V19.2132C193.245 19.5914 192.938 19.898 192.56 19.898H190.081C189.759 19.898 189.454 19.7542 189.249 19.506L180.447 8.84323C180.189 8.53046 180.048 8.13752 180.048 7.73196V4.448C180.048 4.19402 180.254 3.9881 180.508 3.9881H184.669C184.922 3.9881 185.128 4.19402 185.128 4.448V6.12554C185.128 6.53097 185.269 6.92372 185.528 7.23646L192.998 16.2917C193.158 16.485 193.245 16.7277 193.245 16.9782Z" fill="#5159A3" stroke="black" stroke-width="0.5" stroke-miterlimit="10" stroke-linecap="round" stroke-linejoin="round"/>
<path d="M247.856 16.9782V19.2132C247.856 19.5914 247.549 19.898 247.171 19.898H244.692C244.37 19.898 244.065 19.7542 243.86 19.506L235.058 8.84323C234.8 8.53046 234.658 8.13752 234.658 7.73196V4.448C234.658 4.19402 234.864 3.9881 235.118 3.9881H239.279C239.533 3.9881 239.739 4.19402 239.739 4.448V6.12554C239.739 6.53097 239.88 6.92372 240.138 7.23646L247.609 16.2917C247.768 16.485 247.856 16.7277 247.856 16.9782Z" fill="#5159A3" stroke="black" stroke-width="0.5" stroke-miterlimit="10" stroke-linecap="round" stroke-linejoin="round"/>
<path d="M309.229 5.20865H305.116V1.1352C305.116 0.916855 305.293 0.739868 305.511 0.739868H305.987C306.223 0.739868 306.443 0.860221 306.571 1.0592L309.229 5.20865Z" fill="#221500" stroke="black" stroke-width="0.5" stroke-miterlimit="10" stroke-linecap="round" stroke-linejoin="round"/>
<path d="M315.845 16.3888V19.2092C315.845 19.5953 315.542 19.8979 315.167 19.8979H312.684C312.36 19.8979 312.058 19.7517 311.849 19.5013L303.054 8.83917C302.793 8.52614 302.648 8.14026 302.648 7.73324V5.66759C302.648 5.41516 302.854 5.20862 303.107 5.20862H310.639C310.891 5.20862 311.098 5.41522 311.098 5.66772V9.34597C311.098 9.91982 311.298 10.4758 311.663 10.9186L315.605 15.7001C315.761 15.8985 315.845 16.1385 315.845 16.3888Z" fill="#5159A3" stroke="black" stroke-width="0.5" stroke-miterlimit="10" stroke-linecap="round" stroke-linejoin="round"/>
<path d="M374.802 5.20865H370.689V1.1352C370.689 0.916855 370.866 0.739868 371.084 0.739868H371.56C371.796 0.739868 372.016 0.860221 372.144 1.0592L374.802 5.20865Z" fill="#221500" stroke="black" stroke-width="0.5" stroke-miterlimit="10" stroke-linecap="round" stroke-linejoin="round"/>
<path d="M381.418 16.3888V19.2092C381.418 19.5953 381.115 19.8979 380.74 19.8979H378.257C377.934 19.8979 377.631 19.7517 377.422 19.5013L368.627 8.83917C368.367 8.52614 368.221 8.14026 368.221 7.73324V5.66759C368.221 5.41516 368.427 5.20862 368.68 5.20862H376.212C376.465 5.20862 376.671 5.41522 376.671 5.66772V9.34597C376.671 9.91982 376.871 10.4758 377.236 10.9186L381.178 15.7001C381.335 15.8985 381.418 16.1385 381.418 16.3888Z" fill="#5159A3" stroke="black" stroke-width="0.5" stroke-miterlimit="10" stroke-linecap="round" stroke-linejoin="round"/>
<path d="M238.215 2.97424H305.116" stroke="black" stroke-width="0.5" stroke-miterlimit="10" stroke-linecap="round" stroke-linejoin="round"/>
<path d="M307.798 2.97424H370.689" stroke="black" stroke-width="0.5" stroke-miterlimit="10" stroke-linecap="round" stroke-linejoin="round"/>
<path d="M3.16382 36.7795L0 44.1147H6.32765L3.16382 36.7795Z" fill="#5159A3"/>
<path d="M102.834 40.4466L97.3596 35.9409V44.9522L102.834 40.4466Z" fill="#D92B2B"/>
<path d="M190.296 40.4466L184.821 35.9409V44.9522L190.296 40.4466Z" fill="#D92B2B"/>
<path d="M253.097 40.4466L247.622 35.9409V44.9522L253.097 40.4466Z" fill="#D92B2B"/>
<path d="M313.857 40.4466L308.382 35.9409V44.9522L313.857 40.4466Z" fill="#D92B2B"/>
<path d="M380.788 40.4466L375.313 35.9409V44.9522L380.788 40.4466Z" fill="#D92B2B"/>
<path d="M465.844 40.4466L460.37 35.9409V44.9522L465.844 40.4466Z" fill="#D92B2B"/>
<path d="M59.7724 11.1603V15.3816L61.9099 13.2709L59.7724 11.1603ZM64.6479 10.5579H60.4392L62.5435 12.6452L64.6479 10.5579ZM73.4624 10.9706H74.7534L73.155 13.731V15.3816H72.0201V13.731L70.4218 10.9706H71.7127L72.5876 12.7587L73.4624 10.9706ZM70.6725 12.9827V13.3694C70.6725 14.4806 69.7359 15.3814 68.6279 15.3814H66.6294V10.9706H68.6279C69.7359 10.9706 70.6725 11.8715 70.6725 12.9827ZM69.5263 13.0232C69.5263 12.4348 69.0509 11.958 68.4645 11.958H67.7752V14.3943L68.4645 14.3941C69.0509 14.3941 69.5266 13.9172 69.5263 13.3289V13.0232ZM60.5951 15.8369H63.0967C64.0813 15.8369 64.8795 15.0364 64.8795 14.0489V11.5398L60.5951 15.8369Z" fill="white"/>
<path d="M84.3017 13.7512L84.7674 14.4282V13.7512H85.0467V15.0373H84.8992L84.4155 14.3588V15.0373H84.1362V13.7512H84.3017ZM75.4055 13.7512L75.7559 14.6286L76.1062 13.7512H76.3855V15.0373H76.1062V14.5056L75.8932 15.0373H75.6186L75.4055 14.5056V15.0373H75.1262V13.7512H75.4055ZM77.2879 13.7512V14.0305H76.7908V14.2247H77.2879V14.504H76.7908V14.758H77.2879V15.0373H76.5115V13.7512H77.2879ZM78.5613 14.1205H78.2173C78.1541 14.0653 78.0705 14.0305 77.979 14.0305C77.7785 14.0305 77.616 14.1931 77.616 14.3951C77.616 14.5955 77.7785 14.758 77.979 14.758C78.0705 14.758 78.1541 14.7249 78.2173 14.6681H78.5613C78.4571 14.8859 78.2362 15.0373 77.979 15.0373C77.6239 15.0373 77.3351 14.7502 77.3351 14.3951C77.3351 14.04 77.6239 13.7512 77.979 13.7512C78.2362 13.7512 78.4571 13.9027 78.5613 14.1205ZM79.5915 13.7512V15.0373H79.3122V14.504H78.9603V15.0373H78.6809V13.7512H78.9603V14.2247H79.3122V13.7512H79.5915ZM80.838 15.0373H80.5382L80.4561 14.8211H80.0632L79.9795 15.0373H79.6797L80.1768 13.7512H80.3425L80.838 15.0373ZM80.2588 14.313L80.1705 14.5419H80.3472L80.2588 14.313ZM81.3033 14.0305V15.0373H81.024V14.0305H80.7431V13.7512H81.5827V14.0305H81.3033ZM81.6961 13.7512H82.2547C82.4852 13.7512 82.6745 13.9406 82.6745 14.171C82.6745 14.3367 82.5751 14.4835 82.4315 14.5497L82.6714 15.0373H82.3605L82.1396 14.5892H81.9754V15.0373H81.6961V13.7512H81.6961ZM81.9754 14.0305V14.3099H82.2547C82.3305 14.3099 82.3952 14.2452 82.3952 14.171C82.3952 14.0937 82.3321 14.0305 82.2547 14.0305H81.9754ZM84.0047 14.3951C84.0047 14.7502 83.7159 15.0373 83.3608 15.0373C83.0057 15.0373 82.7185 14.7502 82.7185 14.3951C82.7185 14.04 83.0057 13.7512 83.3608 13.7512C83.7159 13.7512 84.0047 14.04 84.0047 14.3951ZM82.9978 14.3951C82.9978 14.5955 83.1604 14.758 83.3608 14.758C83.5612 14.758 83.7238 14.5955 83.7238 14.3951C83.7238 14.1931 83.5612 14.0305 83.3608 14.0305C83.1604 14.0305 82.9978 14.1931 82.9978 14.3951ZM85.4592 13.7512V15.0373H85.1783V13.7512H85.4592ZM86.8194 14.1205H86.4754C86.4123 14.0653 86.3286 14.0305 86.2371 14.0305C86.0367 14.0305 85.8741 14.1931 85.8741 14.3951C85.8741 14.5955 86.0367 14.758 86.2371 14.758C86.3286 14.758 86.4123 14.7249 86.4754 14.6681H86.8194C86.7152 14.8859 86.4943 15.0373 86.2371 15.0373C85.882 15.0373 85.5932 14.7502 85.5932 14.3951C85.5932 14.04 85.882 13.7512 86.2371 13.7512C86.4943 13.7512 86.7152 13.9027 86.8194 14.1205ZM87.4882 14.2562C87.6366 14.3162 87.7407 14.4613 87.7407 14.6318C87.7407 14.8559 87.5593 15.0373 87.3352 15.0373C87.1237 15.0373 86.9501 14.8748 86.9312 14.6681H87.2153C87.231 14.7202 87.2784 14.758 87.3352 14.758C87.4046 14.758 87.4614 14.7012 87.4614 14.6318C87.4614 14.5892 87.4393 14.5513 87.4078 14.5292C87.2058 14.4266 86.9864 14.3525 86.9864 14.1016C86.9864 13.9074 87.1427 13.7512 87.3352 13.7512C87.5261 13.7512 87.6808 13.9027 87.6839 14.0921H87.4046C87.3999 14.0573 87.3715 14.0305 87.3352 14.0305C87.2973 14.0305 87.2657 14.0621 87.2657 14.1016C87.2657 14.1268 87.28 14.1505 87.3004 14.1615L87.4882 14.2562Z" fill="white"/>
<path d="M75.5233 11.6421C75.8748 11.6421 76.1636 11.9293 76.1636 12.2824C76.1636 12.6323 75.8732 12.9211 75.5233 12.9211H75.1262V11.6421H75.5233ZM75.4056 12.6433H75.5233C75.721 12.6433 75.8858 12.4785 75.8858 12.2824C75.8858 12.0831 75.7226 11.9199 75.5233 11.9199H75.4056V12.6433ZM77.5793 12.2824C77.5793 12.6355 77.2921 12.9211 76.9389 12.9211C76.5858 12.9211 76.3002 12.6355 76.3002 12.2824C76.3002 11.9293 76.5858 11.6421 76.9389 11.6421C77.2921 11.6421 77.5793 11.9293 77.5793 12.2824ZM76.578 12.2824C76.578 12.4817 76.7396 12.6433 76.9389 12.6433C77.1383 12.6433 77.2999 12.4817 77.2999 12.2824C77.2999 12.0815 77.1383 11.9199 76.9389 11.9199C76.7396 11.9199 76.578 12.0815 76.578 12.2824ZM80.0418 12.0438H79.7201C79.6542 11.9685 79.5569 11.9199 79.447 11.9199C79.2477 11.9199 79.0861 12.0815 79.0861 12.2824C79.0861 12.4817 79.2477 12.6433 79.447 12.6433C79.5428 12.6433 79.6307 12.6057 79.695 12.546H79.4423V12.2667H80.0873C80.0873 12.6276 79.8111 12.9211 79.447 12.9211C79.0939 12.9211 78.8083 12.6355 78.8083 12.2824C78.8083 11.9293 79.0939 11.6421 79.447 11.6421C79.717 11.6421 79.9477 11.8084 80.0418 12.0438ZM80.6136 12.9211H80.3358V12.3875L79.9592 11.6421H80.2715L80.4755 12.0454L80.6779 11.6421H80.9902L80.6136 12.3875V12.9211ZM81.9425 12.9211H81.6444L81.5627 12.7061H81.172L81.0888 12.9211H80.7906L81.285 11.6421H81.4497L81.9425 12.9211ZM81.3666 12.2008L81.2787 12.4283H81.4545L81.3666 12.2008ZM77.8602 11.6421L78.3787 12.3153V11.6421H78.6896V12.9211H78.5253L77.987 12.2463V12.9211H77.6761V11.6421H77.8602ZM82.2282 11.6421L82.7466 12.3153V11.6421H83.0575V12.9211H82.8932L82.3549 12.2463V12.9211H82.044V11.6421H82.2282ZM84.3925 12.0438H84.0708C84.0049 11.9685 83.9076 11.9199 83.7977 11.9199C83.5984 11.9199 83.4368 12.0815 83.4368 12.2824C83.4368 12.4817 83.5984 12.6433 83.7977 12.6433C83.8935 12.6433 83.9813 12.6057 84.0457 12.546H83.793V12.2667H84.4381C84.4381 12.6276 84.1618 12.9211 83.7977 12.9211C83.4446 12.9211 83.159 12.6355 83.159 12.2824C83.159 11.9293 83.4446 11.6421 83.7977 11.6421C84.0677 11.6421 84.2984 11.8084 84.3925 12.0438Z" fill="white"/>
<path d="M59.7724 11.1603V15.3816L61.9099 13.2709L59.7724 11.1603ZM64.6479 10.5579H60.4392L62.5435 12.6452L64.6479 10.5579ZM73.4624 10.9706H74.7534L73.155 13.731V15.3816H72.0201V13.731L70.4218 10.9706H71.7127L72.5876 12.7587L73.4624 10.9706ZM70.6725 12.9827V13.3694C70.6725 14.4806 69.7359 15.3814 68.6279 15.3814H66.6294V10.9706H68.6279C69.7359 10.9706 70.6725 11.8715 70.6725 12.9827ZM69.5263 13.0232C69.5263 12.4348 69.0509 11.958 68.4645 11.958H67.7752V14.3943L68.4645 14.3941C69.0509 14.3941 69.5266 13.9172 69.5263 13.3289V13.0232ZM60.5951 15.8369H63.0967C64.0813 15.8369 64.8795 15.0364 64.8795 14.0489V11.5398L60.5951 15.8369Z" fill="white"/>
<path d="M84.3017 13.7512L84.7674 14.4282V13.7512H85.0467V15.0373H84.8992L84.4155 14.3588V15.0373H84.1362V13.7512H84.3017ZM75.4055 13.7512L75.7559 14.6286L76.1062 13.7512H76.3855V15.0373H76.1062V14.5056L75.8932 15.0373H75.6186L75.4055 14.5056V15.0373H75.1262V13.7512H75.4055ZM77.2879 13.7512V14.0305H76.7908V14.2247H77.2879V14.504H76.7908V14.758H77.2879V15.0373H76.5115V13.7512H77.2879ZM78.5613 14.1205H78.2173C78.1541 14.0653 78.0705 14.0305 77.979 14.0305C77.7785 14.0305 77.616 14.1931 77.616 14.3951C77.616 14.5955 77.7785 14.758 77.979 14.758C78.0705 14.758 78.1541 14.7249 78.2173 14.6681H78.5613C78.4571 14.8859 78.2362 15.0373 77.979 15.0373C77.6239 15.0373 77.3351 14.7502 77.3351 14.3951C77.3351 14.04 77.6239 13.7512 77.979 13.7512C78.2362 13.7512 78.4571 13.9027 78.5613 14.1205ZM79.5915 13.7512V15.0373H79.3122V14.504H78.9603V15.0373H78.6809V13.7512H78.9603V14.2247H79.3122V13.7512H79.5915ZM80.838 15.0373H80.5382L80.4561 14.8211H80.0632L79.9795 15.0373H79.6797L80.1768 13.7512H80.3425L80.838 15.0373ZM80.2588 14.313L80.1705 14.5419H80.3472L80.2588 14.313ZM81.3033 14.0305V15.0373H81.024V14.0305H80.7431V13.7512H81.5827V14.0305H81.3033ZM81.6961 13.7512H82.2547C82.4852 13.7512 82.6745 13.9406 82.6745 14.171C82.6745 14.3367 82.5751 14.4835 82.4315 14.5497L82.6714 15.0373H82.3605L82.1396 14.5892H81.9754V15.0373H81.6961V13.7512H81.6961ZM81.9754 14.0305V14.3099H82.2547C82.3305 14.3099 82.3952 14.2452 82.3952 14.171C82.3952 14.0937 82.3321 14.0305 82.2547 14.0305H81.9754ZM84.0047 14.3951C84.0047 14.7502 83.7159 15.0373 83.3608 15.0373C83.0057 15.0373 82.7185 14.7502 82.7185 14.3951C82.7185 14.04 83.0057 13.7512 83.3608 13.7512C83.7159 13.7512 84.0047 14.04 84.0047 14.3951ZM82.9978 14.3951C82.9978 14.5955 83.1604 14.758 83.3608 14.758C83.5612 14.758 83.7238 14.5955 83.7238 14.3951C83.7238 14.1931 83.5612 14.0305 83.3608 14.0305C83.1604 14.0305 82.9978 14.1931 82.9978 14.3951ZM85.4592 13.7512V15.0373H85.1783V13.7512H85.4592ZM86.8194 14.1205H86.4754C86.4123 14.0653 86.3286 14.0305 86.2371 14.0305C86.0367 14.0305 85.8741 14.1931 85.8741 14.3951C85.8741 14.5955 86.0367 14.758 86.2371 14.758C86.3286 14.758 86.4123 14.7249 86.4754 14.6681H86.8194C86.7152 14.8859 86.4943 15.0373 86.2371 15.0373C85.882 15.0373 85.5932 14.7502 85.5932 14.3951C85.5932 14.04 85.882 13.7512 86.2371 13.7512C86.4943 13.7512 86.7152 13.9027 86.8194 14.1205ZM87.4882 14.2562C87.6366 14.3162 87.7407 14.4613 87.7407 14.6318C87.7407 14.8559 87.5593 15.0373 87.3352 15.0373C87.1237 15.0373 86.9501 14.8748 86.9312 14.6681H87.2153C87.231 14.7202 87.2784 14.758 87.3352 14.758C87.4046 14.758 87.4614 14.7012 87.4614 14.6318C87.4614 14.5892 87.4393 14.5513 87.4078 14.5292C87.2058 14.4266 86.9864 14.3525 86.9864 14.1016C86.9864 13.9074 87.1427 13.7512 87.3352 13.7512C87.5261 13.7512 87.6808 13.9027 87.6839 14.0921H87.4046C87.3999 14.0573 87.3715 14.0305 87.3352 14.0305C87.2973 14.0305 87.2657 14.0621 87.2657 14.1016C87.2657 14.1268 87.28 14.1505 87.3004 14.1615L87.4882 14.2562Z" fill="white"/>
<path d="M75.5233 11.6421C75.8748 11.6421 76.1636 11.9293 76.1636 12.2824C76.1636 12.6323 75.8732 12.9211 75.5233 12.9211H75.1262V11.6421H75.5233ZM75.4056 12.6433H75.5233C75.721 12.6433 75.8858 12.4785 75.8858 12.2824C75.8858 12.0831 75.7226 11.9199 75.5233 11.9199H75.4056V12.6433ZM77.5793 12.2824C77.5793 12.6355 77.2921 12.9211 76.9389 12.9211C76.5858 12.9211 76.3002 12.6355 76.3002 12.2824C76.3002 11.9293 76.5858 11.6421 76.9389 11.6421C77.2921 11.6421 77.5793 11.9293 77.5793 12.2824ZM76.578 12.2824C76.578 12.4817 76.7396 12.6433 76.9389 12.6433C77.1383 12.6433 77.2999 12.4817 77.2999 12.2824C77.2999 12.0815 77.1383 11.9199 76.9389 11.9199C76.7396 11.9199 76.578 12.0815 76.578 12.2824ZM80.0418 12.0438H79.7201C79.6542 11.9685 79.5569 11.9199 79.447 11.9199C79.2477 11.9199 79.0861 12.0815 79.0861 12.2824C79.0861 12.4817 79.2477 12.6433 79.447 12.6433C79.5428 12.6433 79.6307 12.6057 79.695 12.546H79.4423V12.2667H80.0873C80.0873 12.6276 79.8111 12.9211 79.447 12.9211C79.0939 12.9211 78.8083 12.6355 78.8083 12.2824C78.8083 11.9293 79.0939 11.6421 79.447 11.6421C79.717 11.6421 79.9477 11.8084 80.0418 12.0438ZM80.6136 12.9211H80.3358V12.3875L79.9592 11.6421H80.2715L80.4755 12.0454L80.6779 11.6421H80.9902L80.6136 12.3875V12.9211ZM81.9425 12.9211H81.6444L81.5627 12.7061H81.172L81.0888 12.9211H80.7906L81.285 11.6421H81.4497L81.9425 12.9211ZM81.3666 12.2008L81.2787 12.4283H81.4545L81.3666 12.2008ZM77.8602 11.6421L78.3787 12.3153V11.6421H78.6896V12.9211H78.5253L77.987 12.2463V12.9211H77.6761V11.6421H77.8602ZM82.2282 11.6421L82.7466 12.3153V11.6421H83.0575V12.9211H82.8932L82.3549 12.2463V12.9211H82.044V11.6421H82.2282ZM84.3925 12.0438H84.0708C84.0049 11.9685 83.9076 11.9199 83.7977 11.9199C83.5984 11.9199 83.4368 12.0815 83.4368 12.2824C83.4368 12.4817 83.5984 12.6433 83.7977 12.6433C83.8935 12.6433 83.9813 12.6057 84.0457 12.546H83.793V12.2667H84.4381C84.4381 12.6276 84.1618 12.9211 83.7977 12.9211C83.4446 12.9211 83.159 12.6355 83.159 12.2824C83.159 11.9293 83.4446 11.6421 83.7977 11.6421C84.0677 11.6421 84.2984 11.8084 84.3925 12.0438Z" fill="white"/>
<path d="M423.168 36.9083H424.081V37.4161H423.168V39.2032H422.626V37.4161H419.833V37.0694L422.582 32.0938H423.168V36.9083ZM420.482 36.9083H422.626V32.9141L422.43 33.3096L420.482 36.9083ZM428.612 36.2344C428.612 36.7585 428.57 37.2143 428.485 37.6016C428.404 37.9857 428.283 38.3047 428.124 38.5587C427.968 38.8093 427.775 38.9965 427.548 39.1202C427.32 39.2406 427.061 39.3008 426.771 39.3008C426.485 39.3008 426.228 39.2406 426 39.1202C425.772 38.9965 425.578 38.8093 425.419 38.5587C425.259 38.3047 425.135 37.9857 425.048 37.6016C424.963 37.2143 424.921 36.7585 424.921 36.2344V35.043C424.921 34.5189 424.963 34.0665 425.048 33.6856C425.132 33.3015 425.253 32.9841 425.409 32.7335C425.568 32.4828 425.762 32.2973 425.99 32.1768C426.218 32.0564 426.475 31.9962 426.761 31.9962C427.048 31.9962 427.305 32.0564 427.533 32.1768C427.764 32.2973 427.959 32.4828 428.119 32.7335C428.278 32.9841 428.4 33.3015 428.485 33.6856C428.57 34.0665 428.612 34.5189 428.612 35.043V36.2344ZM428.065 34.9649C428.065 34.1511 427.956 33.5375 427.738 33.1241C427.523 32.7107 427.198 32.504 426.761 32.504C426.332 32.504 426.006 32.7107 425.785 33.1241C425.567 33.5375 425.458 34.1511 425.458 34.9649V36.3028C425.458 36.7032 425.485 37.058 425.541 37.3672C425.599 37.6765 425.682 37.9369 425.79 38.1485C425.9 38.3601 426.037 38.5212 426.2 38.6319C426.366 38.7426 426.556 38.7979 426.771 38.7979C426.989 38.7979 427.178 38.7426 427.338 38.6319C427.5 38.5212 427.635 38.3601 427.743 38.1485C427.85 37.9369 427.93 37.6765 427.982 37.3672C428.038 37.058 428.065 36.7032 428.065 36.3028V34.9649ZM433.475 36.2344C433.475 36.7585 433.433 37.2143 433.348 37.6016C433.267 37.9857 433.147 38.3047 432.987 38.5587C432.831 38.8093 432.639 38.9965 432.411 39.1202C432.183 39.2406 431.924 39.3008 431.635 39.3008C431.348 39.3008 431.091 39.2406 430.863 39.1202C430.635 38.9965 430.441 38.8093 430.282 38.5587C430.122 38.3047 429.999 37.9857 429.911 37.6016C429.826 37.2143 429.784 36.7585 429.784 36.2344V35.043C429.784 34.5189 429.826 34.0665 429.911 33.6856C429.996 33.3015 430.116 32.9841 430.272 32.7335C430.432 32.4828 430.625 32.2973 430.853 32.1768C431.081 32.0564 431.338 31.9962 431.625 31.9962C431.911 31.9962 432.168 32.0564 432.396 32.1768C432.627 32.2973 432.823 32.4828 432.982 32.7335C433.142 32.9841 433.264 33.3015 433.348 33.6856C433.433 34.0665 433.475 34.5189 433.475 35.043V36.2344ZM432.928 34.9649C432.928 34.1511 432.819 33.5375 432.601 33.1241C432.386 32.7107 432.061 32.504 431.625 32.504C431.195 32.504 430.87 32.7107 430.648 33.1241C430.43 33.5375 430.321 34.1511 430.321 34.9649V36.3028C430.321 36.7032 430.349 37.058 430.404 37.3672C430.463 37.6765 430.546 37.9369 430.653 38.1485C430.764 38.3601 430.9 38.5212 431.063 38.6319C431.229 38.7426 431.42 38.7979 431.635 38.7979C431.853 38.7979 432.041 38.7426 432.201 38.6319C432.364 38.5212 432.499 38.3601 432.606 38.1485C432.714 37.9369 432.793 37.6765 432.845 37.3672C432.901 37.058 432.928 36.7032 432.928 36.3028V34.9649ZM438.265 36.7911H437.616V39.2032H437.069V33.92H437.616V36.2589H438.256L439.857 33.92H440.531L438.71 36.4737L440.721 39.2032H440.013L438.265 36.7911ZM444.393 34.4327H442.191V39.2032H441.644V33.92H444.393V34.4327ZM423.646 49.2032H423.104V46.7862H420.78V49.2032H420.233V43.92H420.78V46.2833H423.104V43.92H423.646V49.2032ZM427.928 49.2032C427.902 49.1153 427.881 49.0062 427.865 48.876C427.849 48.7426 427.837 48.6075 427.831 48.4708C427.762 48.5814 427.681 48.6872 427.587 48.7881C427.492 48.8858 427.383 48.9737 427.26 49.0518C427.139 49.1267 427.004 49.1869 426.854 49.2325C426.705 49.2781 426.543 49.3008 426.371 49.3008C426.153 49.3008 425.954 49.2699 425.775 49.2081C425.599 49.1462 425.448 49.0534 425.321 48.9297C425.194 48.8061 425.096 48.6514 425.028 48.4659C424.96 48.2803 424.926 48.0639 424.926 47.8165C424.926 47.5723 424.968 47.3477 425.052 47.1426C425.137 46.9343 425.262 46.7553 425.428 46.6055C425.598 46.4558 425.808 46.3386 426.058 46.254C426.309 46.1693 426.6 46.127 426.932 46.127H427.826V45.3897C427.826 45.0121 427.732 44.7419 427.543 44.5792C427.357 44.4131 427.084 44.3301 426.722 44.3301C426.553 44.3301 426.397 44.3562 426.254 44.4083C426.114 44.4603 425.993 44.5336 425.892 44.628C425.791 44.7191 425.713 44.8298 425.658 44.96C425.603 45.087 425.575 45.2269 425.575 45.3799L425.033 45.3751C425.033 45.17 425.074 44.9747 425.155 44.7891C425.236 44.6003 425.352 44.4343 425.502 44.2911C425.651 44.1478 425.832 44.0339 426.044 43.9493C426.255 43.8646 426.49 43.8223 426.747 43.8223C426.984 43.8223 427.201 43.8516 427.396 43.9102C427.595 43.9656 427.766 44.0567 427.909 44.1837C428.052 44.3074 428.163 44.4701 428.241 44.6719C428.322 44.8705 428.363 45.113 428.363 45.3995V48.0948C428.363 48.1859 428.366 48.2803 428.373 48.378C428.379 48.4756 428.387 48.5717 428.397 48.6661C428.41 48.7572 428.425 48.8451 428.441 48.9297C428.461 49.0111 428.482 49.0827 428.505 49.1446V49.2032H427.928ZM426.439 48.7784C426.608 48.7784 426.766 48.7556 426.913 48.71C427.063 48.6612 427.196 48.5961 427.313 48.5147C427.43 48.4301 427.531 48.3324 427.616 48.2217C427.704 48.1111 427.774 47.9922 427.826 47.8653V46.5811H427.01C426.499 46.5811 426.115 46.6885 425.858 46.9034C425.601 47.1182 425.472 47.4079 425.472 47.7725C425.472 48.1208 425.557 48.3764 425.726 48.5391C425.899 48.6986 426.136 48.7784 426.439 48.7784ZM434.34 49.2032H433.793V42.8116L432.186 43.5294V42.9727L434.247 42.0694H434.34V49.2032ZM437.665 48.7344C438.081 48.7344 438.431 48.6644 438.715 48.5245C438.998 48.3845 439.226 48.1908 439.398 47.9434C439.574 47.6928 439.701 47.3998 439.779 47.0645C439.857 46.726 439.901 46.3581 439.911 45.961C439.83 46.0977 439.735 46.223 439.628 46.337C439.524 46.4477 439.41 46.5437 439.286 46.6251C439.162 46.7032 439.03 46.765 438.89 46.8106C438.75 46.8529 438.604 46.8741 438.451 46.8741C438.168 46.8741 437.919 46.8074 437.704 46.6739C437.492 46.5404 437.315 46.363 437.172 46.1417C437.028 45.9203 436.921 45.6664 436.849 45.3799C436.778 45.0935 436.742 44.7973 436.742 44.4913C436.742 44.1495 436.783 43.8272 436.864 43.5245C436.945 43.2217 437.063 42.9581 437.216 42.7335C437.369 42.5056 437.557 42.3266 437.782 42.1964C438.007 42.0629 438.264 41.9962 438.553 41.9962C438.876 41.9962 439.156 42.0678 439.393 42.211C439.634 42.351 439.833 42.5463 439.989 42.7969C440.145 43.0476 440.261 43.3471 440.336 43.6954C440.414 44.0437 440.453 44.4229 440.453 44.8331V45.3946C440.453 45.7429 440.435 46.0814 440.399 46.4102C440.363 46.7357 440.303 47.0417 440.219 47.3282C440.137 47.6146 440.026 47.8767 439.886 48.1143C439.75 48.3487 439.577 48.5505 439.369 48.7198C439.164 48.8891 438.92 49.0209 438.636 49.1153C438.357 49.2064 438.033 49.252 437.665 49.252H437.562L437.567 48.7344H437.665ZM438.524 46.3614C438.7 46.3614 438.863 46.3272 439.012 46.2589C439.162 46.1872 439.296 46.0945 439.413 45.9805C439.53 45.8666 439.631 45.7364 439.716 45.5899C439.8 45.4402 439.867 45.2872 439.916 45.1309V44.7745C439.916 44.4034 439.882 44.0779 439.813 43.7979C439.745 43.5147 439.65 43.2787 439.53 43.0899C439.41 42.8978 439.266 42.753 439.1 42.6553C438.934 42.5577 438.754 42.5089 438.558 42.5089C438.357 42.5089 438.176 42.5626 438.016 42.67C437.86 42.7741 437.727 42.9158 437.616 43.0948C437.505 43.2738 437.421 43.4822 437.362 43.7198C437.303 43.9542 437.274 44.2032 437.274 44.4669C437.274 44.7077 437.3 44.9421 437.352 45.17C437.408 45.3978 437.487 45.5997 437.592 45.7755C437.696 45.9512 437.826 46.0928 437.982 46.2003C438.138 46.3077 438.319 46.3614 438.524 46.3614ZM442.416 48.9639C442.416 49.1104 442.399 49.2569 442.367 49.4034C442.338 49.5499 442.294 49.6898 442.235 49.8233C442.177 49.96 442.105 50.0886 442.02 50.209C441.936 50.3295 441.84 50.4385 441.732 50.5362L441.385 50.2774C441.535 50.0756 441.649 49.8721 441.727 49.6671C441.805 49.462 441.844 49.2309 441.844 48.9737V48.2755H442.416V48.9639ZM447.191 43.9249C447.191 44.1104 447.167 44.2878 447.118 44.4571C447.072 44.6231 447.007 44.7761 446.923 44.9161C446.838 45.0528 446.735 45.1765 446.615 45.2872C446.498 45.3946 446.366 45.4841 446.219 45.5557C446.389 45.6273 446.542 45.7201 446.678 45.834C446.818 45.948 446.937 46.0814 447.035 46.2344C447.136 46.3842 447.212 46.5502 447.264 46.7325C447.32 46.9148 447.347 47.1101 447.347 47.3184C447.347 47.6407 447.297 47.9255 447.196 48.1729C447.098 48.4203 446.963 48.6286 446.791 48.7979C446.622 48.9639 446.421 49.0893 446.19 49.1739C445.959 49.2585 445.712 49.3008 445.448 49.3008C445.178 49.3008 444.927 49.2585 444.696 49.1739C444.465 49.0893 444.263 48.9639 444.091 48.7979C443.921 48.6286 443.788 48.4203 443.69 48.1729C443.593 47.9255 443.544 47.6407 443.544 47.3184C443.544 47.1101 443.57 46.9148 443.622 46.7325C443.674 46.5502 443.749 46.3842 443.846 46.2344C443.944 46.0814 444.061 45.948 444.198 45.834C444.335 45.7201 444.486 45.6273 444.652 45.5557C444.506 45.4841 444.372 45.3946 444.252 45.2872C444.135 45.1765 444.034 45.0528 443.949 44.9161C443.868 44.7761 443.804 44.6231 443.759 44.4571C443.713 44.2878 443.69 44.1104 443.69 43.9249C443.69 43.6156 443.734 43.3422 443.822 43.1046C443.91 42.8637 444.032 42.6618 444.188 42.4991C444.344 42.3331 444.528 42.2077 444.74 42.1231C444.955 42.0385 445.188 41.9962 445.438 41.9962C445.686 41.9962 445.917 42.0385 446.132 42.1231C446.346 42.2077 446.532 42.3331 446.688 42.4991C446.844 42.6618 446.967 42.8637 447.054 43.1046C447.146 43.3422 447.191 43.6156 447.191 43.9249ZM446.801 47.3184C446.801 47.0938 446.766 46.8887 446.698 46.7032C446.63 46.5176 446.534 46.3598 446.41 46.2296C446.289 46.0961 446.146 45.9936 445.98 45.9219C445.814 45.8471 445.634 45.8096 445.438 45.8096C445.24 45.8096 445.057 45.8471 444.891 45.9219C444.725 45.9936 444.582 46.0961 444.462 46.2296C444.341 46.3598 444.247 46.5176 444.178 46.7032C444.113 46.8887 444.081 47.0938 444.081 47.3184C444.081 47.5528 444.113 47.7628 444.178 47.9483C444.247 48.1306 444.341 48.2852 444.462 48.4122C444.582 48.5391 444.725 48.6352 444.891 48.7003C445.061 48.7654 445.246 48.7979 445.448 48.7979C445.647 48.7979 445.827 48.7654 445.99 48.7003C446.156 48.6352 446.299 48.5391 446.42 48.4122C446.54 48.2852 446.633 48.1306 446.698 47.9483C446.766 47.7628 446.801 47.5528 446.801 47.3184ZM446.649 43.92C446.649 43.7149 446.618 43.5261 446.556 43.3536C446.495 43.1778 446.41 43.0281 446.302 42.9044C446.195 42.7774 446.066 42.6797 445.917 42.6114C445.77 42.5398 445.611 42.504 445.438 42.504C445.262 42.504 445.101 42.5365 444.955 42.6016C444.808 42.6667 444.681 42.7611 444.574 42.8848C444.47 43.0053 444.387 43.1534 444.325 43.3292C444.266 43.5049 444.237 43.7019 444.237 43.92C444.237 44.1316 444.266 44.3236 444.325 44.4962C444.384 44.6654 444.467 44.8103 444.574 44.9307C444.681 45.0479 444.808 45.1391 444.955 45.2042C445.105 45.2693 445.267 45.3018 445.443 45.3018C445.616 45.3018 445.775 45.2693 445.922 45.2042C446.071 45.1391 446.2 45.0479 446.307 44.9307C446.415 44.8103 446.498 44.6654 446.556 44.4962C446.618 44.3236 446.649 44.1316 446.649 43.92ZM451.068 48.3975L452.787 43.92H453.456V49.2032H452.914V44.96L451.259 49.2032H450.878L449.188 44.8526V49.2032H448.651V43.92H449.359L451.068 48.3975Z" fill="black"/>
<path d="M338.995 32.045V32.5674H338.922C338.564 32.5674 338.246 32.6325 337.97 32.7628C337.693 32.8897 337.459 33.0753 337.266 33.3194C337.074 33.5603 336.923 33.8533 336.812 34.1983C336.705 34.5434 336.64 34.9307 336.617 35.3604C336.783 35.0967 336.99 34.8933 337.237 34.7501C337.485 34.6068 337.76 34.5352 338.062 34.5352C338.349 34.5352 338.599 34.5987 338.814 34.7256C339.032 34.8526 339.211 35.0235 339.351 35.2383C339.495 35.4499 339.602 35.6973 339.674 35.9805C339.745 36.2637 339.781 36.5616 339.781 36.8741C339.781 37.2159 339.74 37.5349 339.659 37.8311C339.578 38.1273 339.46 38.3845 339.307 38.6026C339.155 38.8174 338.967 38.9883 338.746 39.1153C338.528 39.239 338.279 39.3008 337.999 39.3008C337.693 39.3008 337.419 39.2325 337.179 39.0958C336.941 38.9558 336.739 38.767 336.573 38.5294C336.407 38.2917 336.28 38.015 336.192 37.6993C336.108 37.3835 336.065 37.0466 336.065 36.6885V36.0684C336.065 35.4662 336.119 34.9177 336.226 34.4229C336.337 33.9281 336.508 33.5049 336.739 33.1534C336.974 32.8018 337.27 32.53 337.628 32.338C337.989 32.1426 338.42 32.045 338.922 32.045H338.995ZM337.974 35.0479C337.818 35.0479 337.667 35.0772 337.52 35.1358C337.374 35.1944 337.239 35.2758 337.115 35.3799C336.995 35.4841 336.891 35.6078 336.803 35.751C336.715 35.891 336.65 36.044 336.607 36.21V36.6983C336.607 37.0271 336.643 37.3217 336.715 37.5821C336.79 37.8393 336.889 38.0574 337.013 38.2364C337.14 38.4154 337.288 38.5538 337.457 38.6514C337.626 38.7458 337.807 38.793 337.999 38.793C338.194 38.793 338.368 38.7442 338.521 38.6465C338.678 38.5456 338.809 38.4105 338.917 38.2413C339.024 38.0687 339.106 37.8669 339.161 37.6358C339.22 37.4047 339.249 37.1589 339.249 36.8985C339.249 36.6511 339.223 36.4151 339.171 36.1905C339.119 35.9659 339.039 35.7689 338.932 35.5997C338.827 35.4304 338.696 35.2969 338.536 35.1993C338.377 35.0984 338.189 35.0479 337.974 35.0479ZM344.576 36.2344C344.576 36.7585 344.534 37.2143 344.449 37.6016C344.368 37.9857 344.247 38.3047 344.088 38.5587C343.932 38.8093 343.739 38.9965 343.512 39.1202C343.284 39.2406 343.025 39.3008 342.735 39.3008C342.449 39.3008 342.192 39.2406 341.964 39.1202C341.736 38.9965 341.542 38.8093 341.383 38.5587C341.223 38.3047 341.099 37.9857 341.012 37.6016C340.927 37.2143 340.885 36.7585 340.885 36.2344V35.043C340.885 34.5189 340.927 34.0665 341.012 33.6856C341.096 33.3015 341.217 32.9841 341.373 32.7335C341.532 32.4828 341.726 32.2973 341.954 32.1768C342.182 32.0564 342.439 31.9962 342.725 31.9962C343.012 31.9962 343.269 32.0564 343.497 32.1768C343.728 32.2973 343.923 32.4828 344.083 32.7335C344.242 32.9841 344.364 33.3015 344.449 33.6856C344.534 34.0665 344.576 34.5189 344.576 35.043V36.2344ZM344.029 34.9649C344.029 34.1511 343.92 33.5375 343.702 33.1241C343.487 32.7107 343.162 32.504 342.725 32.504C342.296 32.504 341.97 32.7107 341.749 33.1241C341.531 33.5375 341.422 34.1511 341.422 34.9649V36.3028C341.422 36.7032 341.449 37.058 341.505 37.3672C341.563 37.6765 341.646 37.9369 341.754 38.1485C341.864 38.3601 342.001 38.5212 342.164 38.6319C342.33 38.7426 342.52 38.7979 342.735 38.7979C342.953 38.7979 343.142 38.7426 343.302 38.6319C343.464 38.5212 343.599 38.3601 343.707 38.1485C343.814 37.9369 343.894 37.6765 343.946 37.3672C344.002 37.058 344.029 36.7032 344.029 36.3028V34.9649ZM349.439 36.2344C349.439 36.7585 349.397 37.2143 349.312 37.6016C349.231 37.9857 349.111 38.3047 348.951 38.5587C348.795 38.8093 348.603 38.9965 348.375 39.1202C348.147 39.2406 347.888 39.3008 347.599 39.3008C347.312 39.3008 347.055 39.2406 346.827 39.1202C346.599 38.9965 346.405 38.8093 346.246 38.5587C346.086 38.3047 345.963 37.9857 345.875 37.6016C345.79 37.2143 345.748 36.7585 345.748 36.2344V35.043C345.748 34.5189 345.79 34.0665 345.875 33.6856C345.96 33.3015 346.08 32.9841 346.236 32.7335C346.396 32.4828 346.589 32.2973 346.817 32.1768C347.045 32.0564 347.302 31.9962 347.589 31.9962C347.875 31.9962 348.132 32.0564 348.36 32.1768C348.591 32.2973 348.787 32.4828 348.946 32.7335C349.106 32.9841 349.228 33.3015 349.312 33.6856C349.397 34.0665 349.439 34.5189 349.439 35.043V36.2344ZM348.892 34.9649C348.892 34.1511 348.783 33.5375 348.565 33.1241C348.35 32.7107 348.025 32.504 347.589 32.504C347.159 32.504 346.834 32.7107 346.612 33.1241C346.394 33.5375 346.285 34.1511 346.285 34.9649V36.3028C346.285 36.7032 346.313 37.058 346.368 37.3672C346.427 37.6765 346.51 37.9369 346.617 38.1485C346.728 38.3601 346.864 38.5212 347.027 38.6319C347.193 38.7426 347.384 38.7979 347.599 38.7979C347.817 38.7979 348.005 38.7426 348.165 38.6319C348.328 38.5212 348.463 38.3601 348.57 38.1485C348.678 37.9369 348.757 37.6765 348.809 37.3672C348.865 37.058 348.892 36.7032 348.892 36.3028V34.9649ZM354.229 36.7911H353.58V39.2032H353.033V33.92H353.58V36.2589H354.22L355.821 33.92H356.495L354.674 36.4737L356.685 39.2032H355.977L354.229 36.7911ZM360.357 34.4327H358.155V39.2032H357.608V33.92H360.357V34.4327ZM339.61 49.2032H339.068V46.7862H336.744V49.2032H336.197V43.92H336.744V46.2833H339.068V43.92H339.61V49.2032ZM343.892 49.2032C343.866 49.1153 343.845 49.0062 343.829 48.876C343.813 48.7426 343.801 48.6075 343.795 48.4708C343.726 48.5814 343.645 48.6872 343.551 48.7881C343.456 48.8858 343.347 48.9737 343.224 49.0518C343.103 49.1267 342.968 49.1869 342.818 49.2325C342.668 49.2781 342.507 49.3008 342.335 49.3008C342.117 49.3008 341.918 49.2699 341.739 49.2081C341.563 49.1462 341.412 49.0534 341.285 48.9297C341.158 48.8061 341.06 48.6514 340.992 48.4659C340.924 48.2803 340.89 48.0639 340.89 47.8165C340.89 47.5723 340.932 47.3477 341.016 47.1426C341.101 46.9343 341.226 46.7553 341.392 46.6055C341.562 46.4558 341.772 46.3386 342.022 46.254C342.273 46.1693 342.564 46.127 342.896 46.127H343.79V45.3897C343.79 45.0121 343.696 44.7419 343.507 44.5792C343.321 44.4131 343.048 44.3301 342.686 44.3301C342.517 44.3301 342.361 44.3562 342.218 44.4083C342.078 44.4603 341.957 44.5336 341.856 44.628C341.755 44.7191 341.677 44.8298 341.622 44.96C341.567 45.087 341.539 45.2269 341.539 45.3799L340.997 45.3751C340.997 45.17 341.038 44.9747 341.119 44.7891C341.2 44.6003 341.316 44.4343 341.466 44.2911C341.615 44.1478 341.796 44.0339 342.008 43.9493C342.219 43.8646 342.454 43.8223 342.711 43.8223C342.948 43.8223 343.165 43.8516 343.36 43.9102C343.559 43.9656 343.73 44.0567 343.873 44.1837C344.016 44.3074 344.127 44.4701 344.205 44.6719C344.286 44.8705 344.327 45.113 344.327 45.3995V48.0948C344.327 48.1859 344.33 48.2803 344.337 48.378C344.343 48.4756 344.351 48.5717 344.361 48.6661C344.374 48.7572 344.389 48.8451 344.405 48.9297C344.425 49.0111 344.446 49.0827 344.469 49.1446V49.2032H343.892ZM342.403 48.7784C342.572 48.7784 342.73 48.7556 342.877 48.71C343.027 48.6612 343.16 48.5961 343.277 48.5147C343.394 48.4301 343.495 48.3324 343.58 48.2217C343.668 48.1111 343.738 47.9922 343.79 47.8653V46.5811H342.974C342.463 46.5811 342.079 46.6885 341.822 46.9034C341.565 47.1182 341.436 47.4079 341.436 47.7725C341.436 48.1208 341.521 48.3764 341.69 48.5391C341.863 48.6986 342.1 48.7784 342.403 48.7784ZM350.304 49.2032H349.757V42.8116L348.15 43.5294V42.9727L350.211 42.0694H350.304V49.2032ZM355.753 42.045V42.5674H355.68C355.321 42.5674 355.004 42.6325 354.727 42.7628C354.451 42.8897 354.216 43.0753 354.024 43.3194C353.832 43.5603 353.681 43.8533 353.57 44.1983C353.463 44.5434 353.398 44.9307 353.375 45.3604C353.541 45.0967 353.748 44.8933 353.995 44.7501C354.242 44.6068 354.517 44.5352 354.82 44.5352C355.107 44.5352 355.357 44.5987 355.572 44.7256C355.79 44.8526 355.969 45.0235 356.109 45.2383C356.252 45.4499 356.36 45.6973 356.432 45.9805C356.503 46.2637 356.539 46.5616 356.539 46.8741C356.539 47.2159 356.498 47.5349 356.417 47.8311C356.335 48.1273 356.218 48.3845 356.065 48.6026C355.912 48.8174 355.725 48.9883 355.504 49.1153C355.286 49.239 355.037 49.3008 354.757 49.3008C354.451 49.3008 354.177 49.2325 353.936 49.0958C353.699 48.9558 353.497 48.767 353.331 48.5294C353.165 48.2917 353.038 48.015 352.95 47.6993C352.865 47.3835 352.823 47.0466 352.823 46.6885V46.0684C352.823 45.4662 352.877 44.9177 352.984 44.4229C353.095 43.9281 353.266 43.5049 353.497 43.1534C353.731 42.8018 354.028 42.53 354.386 42.338C354.747 42.1426 355.178 42.045 355.68 42.045H355.753ZM354.732 45.0479C354.576 45.0479 354.425 45.0772 354.278 45.1358C354.132 45.1944 353.997 45.2758 353.873 45.3799C353.752 45.4841 353.648 45.6078 353.56 45.751C353.473 45.891 353.407 46.044 353.365 46.21V46.6983C353.365 47.0271 353.401 47.3217 353.473 47.5821C353.547 47.8393 353.647 48.0574 353.77 48.2364C353.897 48.4154 354.045 48.5538 354.215 48.6514C354.384 48.7458 354.565 48.793 354.757 48.793C354.952 48.793 355.126 48.7442 355.279 48.6465C355.435 48.5456 355.567 48.4105 355.675 48.2413C355.782 48.0687 355.863 47.8669 355.919 47.6358C355.977 47.4047 356.007 47.1589 356.007 46.8985C356.007 46.6511 355.981 46.4151 355.929 46.1905C355.877 45.9659 355.797 45.7689 355.689 45.5997C355.585 45.4304 355.453 45.2969 355.294 45.1993C355.134 45.0984 354.947 45.0479 354.732 45.0479ZM358.38 48.9639C358.38 49.1104 358.363 49.2569 358.331 49.4034C358.302 49.5499 358.258 49.6898 358.199 49.8233C358.141 49.96 358.069 50.0886 357.984 50.209C357.9 50.3295 357.804 50.4385 357.696 50.5362L357.349 50.2774C357.499 50.0756 357.613 49.8721 357.691 49.6671C357.769 49.462 357.808 49.2309 357.808 48.9737V48.2755H358.38V48.9639ZM363.155 43.9249C363.155 44.1104 363.131 44.2878 363.082 44.4571C363.036 44.6231 362.971 44.7761 362.887 44.9161C362.802 45.0528 362.699 45.1765 362.579 45.2872C362.462 45.3946 362.33 45.4841 362.183 45.5557C362.353 45.6273 362.506 45.7201 362.642 45.834C362.782 45.948 362.901 46.0814 362.999 46.2344C363.1 46.3842 363.176 46.5502 363.228 46.7325C363.284 46.9148 363.311 47.1101 363.311 47.3184C363.311 47.6407 363.261 47.9255 363.16 48.1729C363.062 48.4203 362.927 48.6286 362.755 48.7979C362.585 48.9639 362.385 49.0893 362.154 49.1739C361.923 49.2585 361.676 49.3008 361.412 49.3008C361.142 49.3008 360.891 49.2585 360.66 49.1739C360.429 49.0893 360.227 48.9639 360.055 48.7979C359.885 48.6286 359.752 48.4203 359.654 48.1729C359.557 47.9255 359.508 47.6407 359.508 47.3184C359.508 47.1101 359.534 46.9148 359.586 46.7325C359.638 46.5502 359.713 46.3842 359.81 46.2344C359.908 46.0814 360.025 45.948 360.162 45.834C360.299 45.7201 360.45 45.6273 360.616 45.5557C360.47 45.4841 360.336 45.3946 360.216 45.2872C360.099 45.1765 359.998 45.0528 359.913 44.9161C359.832 44.7761 359.768 44.6231 359.723 44.4571C359.677 44.2878 359.654 44.1104 359.654 43.9249C359.654 43.6156 359.698 43.3422 359.786 43.1046C359.874 42.8637 359.996 42.6618 360.152 42.4991C360.308 42.3331 360.492 42.2077 360.704 42.1231C360.919 42.0385 361.152 41.9962 361.402 41.9962C361.65 41.9962 361.881 42.0385 362.096 42.1231C362.31 42.2077 362.496 42.3331 362.652 42.4991C362.808 42.6618 362.931 42.8637 363.018 43.1046C363.11 43.3422 363.155 43.6156 363.155 43.9249ZM362.765 47.3184C362.765 47.0938 362.73 46.8887 362.662 46.7032C362.594 46.5176 362.498 46.3598 362.374 46.2296C362.253 46.0961 362.11 45.9936 361.944 45.9219C361.778 45.8471 361.598 45.8096 361.402 45.8096C361.204 45.8096 361.021 45.8471 360.855 45.9219C360.689 45.9936 360.546 46.0961 360.426 46.2296C360.305 46.3598 360.211 46.5176 360.142 46.7032C360.077 46.8887 360.045 47.0938 360.045 47.3184C360.045 47.5528 360.077 47.7628 360.142 47.9483C360.211 48.1306 360.305 48.2852 360.426 48.4122C360.546 48.5391 360.689 48.6352 360.855 48.7003C361.025 48.7654 361.21 48.7979 361.412 48.7979C361.611 48.7979 361.791 48.7654 361.954 48.7003C362.12 48.6352 362.263 48.5391 362.384 48.4122C362.504 48.2852 362.597 48.1306 362.662 47.9483C362.73 47.7628 362.765 47.5528 362.765 47.3184ZM362.613 43.92C362.613 43.7149 362.582 43.5261 362.52 43.3536C362.459 43.1778 362.374 43.0281 362.266 42.9044C362.159 42.7774 362.03 42.6797 361.881 42.6114C361.734 42.5398 361.575 42.504 361.402 42.504C361.226 42.504 361.065 42.5365 360.919 42.6016C360.772 42.6667 360.645 42.7611 360.538 42.8848C360.434 43.0053 360.351 43.1534 360.289 43.3292C360.23 43.5049 360.201 43.7019 360.201 43.92C360.201 44.1316 360.23 44.3236 360.289 44.4962C360.348 44.6654 360.431 44.8103 360.538 44.9307C360.645 45.0479 360.772 45.1391 360.919 45.2042C361.069 45.2693 361.231 45.3018 361.407 45.3018C361.58 45.3018 361.739 45.2693 361.886 45.2042C362.035 45.1391 362.164 45.0479 362.271 44.9307C362.379 44.8103 362.462 44.6654 362.52 44.4962C362.582 44.3236 362.613 44.1316 362.613 43.92ZM367.032 48.3975L368.751 43.92H369.42V49.2032H368.878V44.96L367.223 49.2032H366.842L365.152 44.8526V49.2032H364.615V43.92H365.323L367.032 48.3975Z" fill="black"/>
<path d="M272.604 33.9249C272.604 34.1104 272.579 34.2878 272.53 34.4571C272.485 34.6231 272.42 34.7761 272.335 34.9161C272.25 35.0528 272.148 35.1765 272.027 35.2872C271.91 35.3946 271.778 35.4841 271.632 35.5557C271.801 35.6273 271.954 35.7201 272.091 35.834C272.231 35.948 272.35 36.0814 272.447 36.2344C272.548 36.3842 272.625 36.5502 272.677 36.7325C272.732 36.9148 272.76 37.1101 272.76 37.3184C272.76 37.6407 272.709 37.9255 272.608 38.1729C272.511 38.4203 272.376 38.6286 272.203 38.7979C272.034 38.9639 271.834 39.0893 271.603 39.1739C271.371 39.2585 271.124 39.3008 270.86 39.3008C270.59 39.3008 270.34 39.2585 270.108 39.1739C269.877 39.0893 269.675 38.9639 269.503 38.7979C269.334 38.6286 269.2 38.4203 269.103 38.1729C269.005 37.9255 268.956 37.6407 268.956 37.3184C268.956 37.1101 268.982 36.9148 269.034 36.7325C269.086 36.5502 269.161 36.3842 269.259 36.2344C269.356 36.0814 269.474 35.948 269.61 35.834C269.747 35.7201 269.898 35.6273 270.064 35.5557C269.918 35.4841 269.785 35.3946 269.664 35.2872C269.547 35.1765 269.446 35.0528 269.361 34.9161C269.28 34.7761 269.216 34.6231 269.171 34.4571C269.125 34.2878 269.103 34.1104 269.103 33.9249C269.103 33.6156 269.146 33.3422 269.234 33.1046C269.322 32.8637 269.444 32.6618 269.601 32.4991C269.757 32.3331 269.941 32.2077 270.152 32.1231C270.367 32.0385 270.6 31.9962 270.851 31.9962C271.098 31.9962 271.329 32.0385 271.544 32.1231C271.759 32.2077 271.944 32.3331 272.101 32.4991C272.257 32.6618 272.379 32.8637 272.467 33.1046C272.558 33.3422 272.604 33.6156 272.604 33.9249ZM272.213 37.3184C272.213 37.0938 272.179 36.8887 272.11 36.7032C272.042 36.5176 271.946 36.3598 271.822 36.2296C271.702 36.0961 271.559 35.9936 271.393 35.9219C271.227 35.8471 271.046 35.8096 270.851 35.8096C270.652 35.8096 270.47 35.8471 270.304 35.9219C270.138 35.9936 269.994 36.0961 269.874 36.2296C269.754 36.3598 269.659 36.5176 269.591 36.7032C269.526 36.8887 269.493 37.0938 269.493 37.3184C269.493 37.5528 269.526 37.7628 269.591 37.9483C269.659 38.1306 269.754 38.2852 269.874 38.4122C269.994 38.5391 270.138 38.6352 270.304 38.7003C270.473 38.7654 270.659 38.7979 270.86 38.7979C271.059 38.7979 271.24 38.7654 271.402 38.7003C271.568 38.6352 271.712 38.5391 271.832 38.4122C271.952 38.2852 272.045 38.1306 272.11 37.9483C272.179 37.7628 272.213 37.5528 272.213 37.3184ZM272.062 33.92C272.062 33.7149 272.031 33.5261 271.969 33.3536C271.907 33.1778 271.822 33.0281 271.715 32.9044C271.607 32.7774 271.479 32.6797 271.329 32.6114C271.183 32.5398 271.023 32.504 270.851 32.504C270.675 32.504 270.514 32.5365 270.367 32.6016C270.221 32.6667 270.094 32.7611 269.986 32.8848C269.882 33.0053 269.799 33.1534 269.737 33.3292C269.679 33.5049 269.649 33.7019 269.649 33.92C269.649 34.1316 269.679 34.3236 269.737 34.4962C269.796 34.6654 269.879 34.8103 269.986 34.9307C270.094 35.0479 270.221 35.1391 270.367 35.2042C270.517 35.2693 270.68 35.3018 270.855 35.3018C271.028 35.3018 271.188 35.2693 271.334 35.2042C271.484 35.1391 271.612 35.0479 271.72 34.9307C271.827 34.8103 271.91 34.6654 271.969 34.4962C272.031 34.3236 272.062 34.1316 272.062 33.92ZM274.264 35.5606L274.557 32.0938H277.56V32.6505H275.021L274.82 35.0333C274.872 34.9909 274.936 34.947 275.011 34.9014C275.086 34.8526 275.17 34.8103 275.265 34.7745C275.359 34.7354 275.46 34.7045 275.567 34.6817C275.678 34.6557 275.795 34.6426 275.919 34.6426C276.186 34.6426 276.428 34.6964 276.646 34.8038C276.865 34.9079 277.05 35.0593 277.203 35.2579C277.356 35.4564 277.475 35.6973 277.56 35.9805C277.644 36.2637 277.687 36.5827 277.687 36.9376C277.687 37.2794 277.651 37.5951 277.579 37.8848C277.507 38.1713 277.398 38.4203 277.252 38.6319C277.105 38.8402 276.918 39.0046 276.69 39.1251C276.466 39.2422 276.197 39.3008 275.885 39.3008C275.644 39.3008 275.418 39.2618 275.206 39.1837C274.998 39.1023 274.812 38.9802 274.649 38.8174C274.487 38.6547 274.353 38.4496 274.249 38.2022C274.145 37.9548 274.081 37.6651 274.059 37.3331H274.576C274.622 37.8116 274.757 38.1762 274.981 38.4268C275.206 38.6742 275.507 38.7979 275.885 38.7979C276.298 38.7979 276.611 38.6368 276.822 38.3145C277.037 37.9922 277.145 37.5365 277.145 36.9473C277.145 36.6999 277.115 36.4688 277.057 36.254C276.998 36.0391 276.912 35.8536 276.798 35.6973C276.687 35.5378 276.549 35.4141 276.383 35.3262C276.22 35.2351 276.031 35.1895 275.816 35.1895C275.673 35.1895 275.548 35.2025 275.44 35.2286C275.333 35.2514 275.235 35.2855 275.147 35.3311C275.063 35.3734 274.983 35.4255 274.908 35.4874C274.837 35.5492 274.765 35.6192 274.693 35.6973L274.264 35.5606ZM282.423 36.2344C282.423 36.7585 282.381 37.2143 282.296 37.6016C282.215 37.9857 282.094 38.3047 281.935 38.5587C281.778 38.8093 281.586 38.9965 281.358 39.1202C281.131 39.2406 280.872 39.3008 280.582 39.3008C280.296 39.3008 280.038 39.2406 279.811 39.1202C279.583 38.9965 279.389 38.8093 279.229 38.5587C279.07 38.3047 278.946 37.9857 278.858 37.6016C278.774 37.2143 278.731 36.7585 278.731 36.2344V35.043C278.731 34.5189 278.774 34.0665 278.858 33.6856C278.943 33.3015 279.063 32.9841 279.22 32.7335C279.379 32.4828 279.573 32.2973 279.801 32.1768C280.029 32.0564 280.286 31.9962 280.572 31.9962C280.859 31.9962 281.116 32.0564 281.344 32.1768C281.575 32.2973 281.77 32.4828 281.93 32.7335C282.089 32.9841 282.211 33.3015 282.296 33.6856C282.381 34.0665 282.423 34.5189 282.423 35.043V36.2344ZM281.876 34.9649C281.876 34.1511 281.767 33.5375 281.549 33.1241C281.334 32.7107 281.008 32.504 280.572 32.504C280.143 32.504 279.817 32.7107 279.596 33.1241C279.378 33.5375 279.269 34.1511 279.269 34.9649V36.3028C279.269 36.7032 279.296 37.058 279.352 37.3672C279.41 37.6765 279.493 37.9369 279.601 38.1485C279.711 38.3601 279.848 38.5212 280.011 38.6319C280.177 38.7426 280.367 38.7979 280.582 38.7979C280.8 38.7979 280.989 38.7426 281.148 38.6319C281.311 38.5212 281.446 38.3601 281.554 38.1485C281.661 37.9369 281.741 37.6765 281.793 37.3672C281.848 37.058 281.876 36.7032 281.876 36.3028V34.9649ZM287.213 36.7911H286.563V39.2032H286.017V33.92H286.563V36.2589H287.203L288.805 33.92H289.479L287.657 36.4737L289.669 39.2032H288.961L287.213 36.7911ZM293.341 34.4327H291.139V39.2032H290.592V33.92H293.341V34.4327ZM272.594 49.2032H272.052V46.7862H269.728V49.2032H269.181V43.92H269.728V46.2833H272.052V43.92H272.594V49.2032ZM276.876 49.2032C276.85 49.1153 276.829 49.0062 276.812 48.876C276.796 48.7426 276.785 48.6075 276.778 48.4708C276.71 48.5814 276.629 48.6872 276.534 48.7881C276.44 48.8858 276.331 48.9737 276.207 49.0518C276.087 49.1267 275.951 49.1869 275.802 49.2325C275.652 49.2781 275.491 49.3008 275.318 49.3008C275.1 49.3008 274.902 49.2699 274.723 49.2081C274.547 49.1462 274.396 49.0534 274.269 48.9297C274.142 48.8061 274.044 48.6514 273.976 48.4659C273.907 48.2803 273.873 48.0639 273.873 47.8165C273.873 47.5723 273.915 47.3477 274 47.1426C274.085 46.9343 274.21 46.7553 274.376 46.6055C274.545 46.4558 274.755 46.3386 275.006 46.254C275.257 46.1693 275.548 46.127 275.88 46.127H276.773V45.3897C276.773 45.0121 276.679 44.7419 276.49 44.5792C276.305 44.4131 276.031 44.3301 275.67 44.3301C275.501 44.3301 275.344 44.3562 275.201 44.4083C275.061 44.4603 274.941 44.5336 274.84 44.628C274.739 44.7191 274.661 44.8298 274.605 44.96C274.55 45.087 274.522 45.2269 274.522 45.3799L273.98 45.3751C273.98 45.17 274.021 44.9747 274.103 44.7891C274.184 44.6003 274.299 44.4343 274.449 44.2911C274.599 44.1478 274.78 44.0339 274.991 43.9493C275.203 43.8646 275.437 43.8223 275.694 43.8223C275.932 43.8223 276.148 43.8516 276.344 43.9102C276.542 43.9656 276.713 44.0567 276.856 44.1837C277 44.3074 277.11 44.4701 277.188 44.6719C277.27 44.8705 277.311 45.113 277.311 45.3995V48.0948C277.311 48.1859 277.314 48.2803 277.32 48.378C277.327 48.4756 277.335 48.5717 277.345 48.6661C277.358 48.7572 277.372 48.8451 277.389 48.9297C277.408 49.0111 277.429 49.0827 277.452 49.1446V49.2032H276.876ZM275.387 48.7784C275.556 48.7784 275.714 48.7556 275.86 48.71C276.01 48.6612 276.144 48.5961 276.261 48.5147C276.378 48.4301 276.479 48.3324 276.563 48.2217C276.651 48.1111 276.721 47.9922 276.773 47.8653V46.5811H275.958C275.447 46.5811 275.063 46.6885 274.806 46.9034C274.549 47.1182 274.42 47.4079 274.42 47.7725C274.42 48.1208 274.505 48.3764 274.674 48.5391C274.846 48.6986 275.084 48.7784 275.387 48.7784ZM283.287 49.2032H282.74V42.8116L281.134 43.5294V42.9727L283.194 42.0694H283.287V49.2032ZM286.915 45.3262H287.428C287.652 45.3262 287.848 45.2904 288.014 45.2188C288.183 45.1439 288.325 45.0447 288.438 44.921C288.552 44.7973 288.637 44.6524 288.692 44.4864C288.751 44.3171 288.78 44.1381 288.78 43.9493C288.78 43.7344 288.756 43.5391 288.707 43.3633C288.658 43.1843 288.583 43.0313 288.482 42.9044C288.382 42.7774 288.255 42.6797 288.102 42.6114C287.952 42.5398 287.773 42.504 287.564 42.504C287.382 42.504 287.213 42.5381 287.057 42.6065C286.904 42.6716 286.77 42.7676 286.656 42.8946C286.546 43.0215 286.458 43.1745 286.393 43.3536C286.331 43.5326 286.3 43.7344 286.3 43.959H285.758C285.758 43.6726 285.802 43.4089 285.89 43.168C285.981 42.9271 286.106 42.7204 286.266 42.5479C286.428 42.3754 286.62 42.2403 286.842 42.1426C287.063 42.045 287.304 41.9962 287.564 41.9962C287.828 41.9962 288.067 42.0401 288.282 42.128C288.5 42.2159 288.686 42.3445 288.839 42.5137C288.995 42.6797 289.114 42.8848 289.195 43.129C289.28 43.3731 289.322 43.6531 289.322 43.9688C289.322 44.1283 289.301 44.2878 289.259 44.4473C289.216 44.6036 289.153 44.7517 289.068 44.8917C288.984 45.0316 288.878 45.1602 288.751 45.2774C288.624 45.3913 288.476 45.4857 288.307 45.5606C288.505 45.6257 288.674 45.7152 288.814 45.8292C288.958 45.9431 289.075 46.0749 289.166 46.2247C289.257 46.3712 289.324 46.5339 289.366 46.713C289.409 46.8887 289.43 47.0743 289.43 47.2696C289.43 47.5919 289.382 47.8799 289.288 48.1339C289.197 48.3845 289.068 48.5977 288.902 48.7735C288.736 48.946 288.539 49.0779 288.312 49.169C288.087 49.2569 287.843 49.3008 287.579 49.3008C287.335 49.3008 287.097 49.2585 286.866 49.1739C286.638 49.0893 286.435 48.9639 286.256 48.7979C286.08 48.6286 285.938 48.4187 285.831 48.168C285.727 47.9141 285.675 47.6179 285.675 47.2794H286.217C286.217 47.504 286.249 47.709 286.314 47.8946C286.383 48.0801 286.476 48.2396 286.593 48.3731C286.713 48.5066 286.856 48.6107 287.022 48.6856C287.192 48.7605 287.377 48.7979 287.579 48.7979C287.993 48.7979 288.313 48.6693 288.541 48.4122C288.772 48.1518 288.888 47.7774 288.888 47.2891C288.888 47.0352 288.852 46.8171 288.78 46.6348C288.712 46.4493 288.613 46.2979 288.482 46.1807C288.355 46.0603 288.202 45.9724 288.023 45.9171C287.844 45.8617 287.646 45.834 287.428 45.834H286.915V45.3262ZM291.363 48.9639C291.363 49.1104 291.347 49.2569 291.314 49.4034C291.285 49.5499 291.241 49.6898 291.183 49.8233C291.124 49.96 291.052 50.0886 290.968 50.209C290.883 50.3295 290.787 50.4385 290.68 50.5362L290.333 50.2774C290.483 50.0756 290.597 49.8721 290.675 49.6671C290.753 49.462 290.792 49.2309 290.792 48.9737V48.2755H291.363V48.9639ZM296.314 42.4356L293.775 49.2032H293.209L295.733 42.6016H292.369V42.0938H296.314V42.4356ZM300.016 48.3975L301.734 43.92H302.403V49.2032H301.861V44.96L300.206 49.2032H299.825L298.136 44.8526V49.2032H297.599V43.92H298.307L300.016 48.3975Z" fill="black"/>
<path d="M210.004 39.2032H209.457V32.8116L207.85 33.5294V32.9727L209.911 32.0694H210.004V39.2032ZM216.312 39.2032H212.543V38.7442L214.496 36.1075C214.678 35.8601 214.831 35.6371 214.955 35.4385C215.082 35.24 215.183 35.0561 215.258 34.8868C215.336 34.7143 215.391 34.5531 215.424 34.4034C215.456 34.2536 215.472 34.1055 215.472 33.959C215.472 33.7475 215.446 33.5521 215.394 33.3731C215.342 33.1941 215.266 33.0411 215.165 32.9141C215.064 32.7839 214.937 32.683 214.784 32.6114C214.634 32.5398 214.462 32.504 214.266 32.504C214.061 32.504 213.877 32.5447 213.715 32.626C213.552 32.7074 213.413 32.8214 213.3 32.9678C213.189 33.1143 213.103 33.2885 213.041 33.4903C212.982 33.6889 212.953 33.907 212.953 34.1446H212.411C212.411 33.8516 212.453 33.5749 212.538 33.3145C212.622 33.0541 212.743 32.8262 212.899 32.6309C213.059 32.4356 213.252 32.281 213.48 32.1671C213.711 32.0531 213.973 31.9962 214.266 31.9962C214.537 31.9962 214.781 32.0401 214.999 32.128C215.217 32.2159 215.401 32.3412 215.551 32.504C215.704 32.6667 215.821 32.8669 215.902 33.1046C215.983 33.3422 216.024 33.6091 216.024 33.9053C216.024 34.1202 215.992 34.3366 215.927 34.5547C215.861 34.7696 215.775 34.9844 215.668 35.1993C215.56 35.4141 215.435 35.6273 215.292 35.8389C215.152 36.0505 215.007 36.2589 214.857 36.4639L213.202 38.7003H216.312V39.2032ZM217.738 35.5606L218.031 32.0938H221.034V32.6505H218.495L218.295 35.0333C218.347 34.9909 218.41 34.947 218.485 34.9014C218.56 34.8526 218.645 34.8103 218.739 34.7745C218.833 34.7354 218.934 34.7045 219.042 34.6817C219.152 34.6557 219.27 34.6426 219.393 34.6426C219.66 34.6426 219.903 34.6964 220.121 34.8038C220.339 34.9079 220.524 35.0593 220.677 35.2579C220.83 35.4564 220.949 35.6973 221.034 35.9805C221.119 36.2637 221.161 36.5827 221.161 36.9376C221.161 37.2794 221.125 37.5951 221.053 37.8848C220.982 38.1713 220.873 38.4203 220.726 38.6319C220.58 38.8402 220.393 39.0046 220.165 39.1251C219.94 39.2422 219.672 39.3008 219.359 39.3008C219.118 39.3008 218.892 39.2618 218.68 39.1837C218.472 39.1023 218.287 38.9802 218.124 38.8174C217.961 38.6547 217.828 38.4496 217.723 38.2022C217.619 37.9548 217.556 37.6651 217.533 37.3331H218.051C218.096 37.8116 218.231 38.1762 218.456 38.4268C218.68 38.6742 218.982 38.7979 219.359 38.7979C219.773 38.7979 220.085 38.6368 220.297 38.3145C220.511 37.9922 220.619 37.5365 220.619 36.9473C220.619 36.6999 220.59 36.4688 220.531 36.254C220.472 36.0391 220.386 35.8536 220.272 35.6973C220.162 35.5378 220.023 35.4141 219.857 35.3262C219.694 35.2351 219.506 35.1895 219.291 35.1895C219.148 35.1895 219.022 35.2025 218.915 35.2286C218.807 35.2514 218.71 35.2855 218.622 35.3311C218.537 35.3734 218.457 35.4255 218.383 35.4874C218.311 35.5492 218.239 35.6192 218.168 35.6973L217.738 35.5606ZM225.897 36.2344C225.897 36.7585 225.855 37.2143 225.77 37.6016C225.689 37.9857 225.568 38.3047 225.409 38.5587C225.253 38.8093 225.061 38.9965 224.833 39.1202C224.605 39.2406 224.346 39.3008 224.056 39.3008C223.77 39.3008 223.513 39.2406 223.285 39.1202C223.057 38.9965 222.863 38.8093 222.704 38.5587C222.544 38.3047 222.421 37.9857 222.333 37.6016C222.248 37.2143 222.206 36.7585 222.206 36.2344V35.043C222.206 34.5189 222.248 34.0665 222.333 33.6856C222.417 33.3015 222.538 32.9841 222.694 32.7335C222.854 32.4828 223.047 32.2973 223.275 32.1768C223.503 32.0564 223.76 31.9962 224.047 31.9962C224.333 31.9962 224.59 32.0564 224.818 32.1768C225.049 32.2973 225.245 32.4828 225.404 32.7335C225.564 32.9841 225.686 33.3015 225.77 33.6856C225.855 34.0665 225.897 34.5189 225.897 35.043V36.2344ZM225.35 34.9649C225.35 34.1511 225.241 33.5375 225.023 33.1241C224.808 32.7107 224.483 32.504 224.047 32.504C223.617 32.504 223.291 32.7107 223.07 33.1241C222.852 33.5375 222.743 34.1511 222.743 34.9649V36.3028C222.743 36.7032 222.771 37.058 222.826 37.3672C222.885 37.6765 222.968 37.9369 223.075 38.1485C223.186 38.3601 223.322 38.5212 223.485 38.6319C223.651 38.7426 223.842 38.7979 224.056 38.7979C224.274 38.7979 224.463 38.7426 224.623 38.6319C224.786 38.5212 224.921 38.3601 225.028 38.1485C225.135 37.9369 225.215 37.6765 225.267 37.3672C225.323 37.058 225.35 36.7032 225.35 36.3028V34.9649ZM230.687 36.7911H230.038V39.2032H229.491V33.92H230.038V36.2589H230.677L232.279 33.92H232.953L231.132 36.4737L233.143 39.2032H232.435L230.687 36.7911ZM236.815 34.4327H234.613V39.2032H234.066V33.92H236.815V34.4327ZM211.205 49.2032H210.663V46.7862H208.339V49.2032H207.792V43.92H208.339V46.2833H210.663V43.92H211.205V49.2032ZM215.487 49.2032C215.461 49.1153 215.44 49.0062 215.424 48.876C215.407 48.7426 215.396 48.6075 215.389 48.4708C215.321 48.5814 215.24 48.6872 215.145 48.7881C215.051 48.8858 214.942 48.9737 214.818 49.0518C214.698 49.1267 214.563 49.1869 214.413 49.2325C214.263 49.2781 214.102 49.3008 213.929 49.3008C213.711 49.3008 213.513 49.2699 213.334 49.2081C213.158 49.1462 213.007 49.0534 212.88 48.9297C212.753 48.8061 212.655 48.6514 212.587 48.4659C212.518 48.2803 212.484 48.0639 212.484 47.8165C212.484 47.5723 212.526 47.3477 212.611 47.1426C212.696 46.9343 212.821 46.7553 212.987 46.6055C213.156 46.4558 213.366 46.3386 213.617 46.254C213.868 46.1693 214.159 46.127 214.491 46.127H215.385V45.3897C215.385 45.0121 215.29 44.7419 215.101 44.5792C214.916 44.4131 214.642 44.3301 214.281 44.3301C214.112 44.3301 213.955 44.3562 213.812 44.4083C213.672 44.4603 213.552 44.5336 213.451 44.628C213.35 44.7191 213.272 44.8298 213.217 44.96C213.161 45.087 213.134 45.2269 213.134 45.3799L212.592 45.3751C212.592 45.17 212.632 44.9747 212.714 44.7891C212.795 44.6003 212.911 44.4343 213.06 44.2911C213.21 44.1478 213.391 44.0339 213.602 43.9493C213.814 43.8646 214.048 43.8223 214.305 43.8223C214.543 43.8223 214.76 43.8516 214.955 43.9102C215.153 43.9656 215.324 44.0567 215.468 44.1837C215.611 44.3074 215.721 44.4701 215.8 44.6719C215.881 44.8705 215.922 45.113 215.922 45.3995V48.0948C215.922 48.1859 215.925 48.2803 215.931 48.378C215.938 48.4756 215.946 48.5717 215.956 48.6661C215.969 48.7572 215.983 48.8451 216 48.9297C216.019 49.0111 216.04 49.0827 216.063 49.1446V49.2032H215.487ZM213.998 48.7784C214.167 48.7784 214.325 48.7556 214.471 48.71C214.621 48.6612 214.755 48.5961 214.872 48.5147C214.989 48.4301 215.09 48.3324 215.175 48.2217C215.262 48.1111 215.332 47.9922 215.385 47.8653V46.5811H214.569C214.058 46.5811 213.674 46.6885 213.417 46.9034C213.16 47.1182 213.031 47.4079 213.031 47.7725C213.031 48.1208 213.116 48.3764 213.285 48.5391C213.457 48.6986 213.695 48.7784 213.998 48.7784ZM221.898 49.2032H221.351V42.8116L219.745 43.5294V42.9727L221.805 42.0694H221.898V49.2032ZM228.065 46.2344C228.065 46.7585 228.023 47.2143 227.938 47.6016C227.857 47.9857 227.736 48.3047 227.577 48.5587C227.421 48.8093 227.229 48.9965 227.001 49.1202C226.773 49.2406 226.514 49.3008 226.224 49.3008C225.938 49.3008 225.681 49.2406 225.453 49.1202C225.225 48.9965 225.031 48.8093 224.872 48.5587C224.712 48.3047 224.589 47.9857 224.501 47.6016C224.416 47.2143 224.374 46.7585 224.374 46.2344V45.043C224.374 44.5189 224.416 44.0665 224.501 43.6856C224.585 43.3015 224.706 42.9841 224.862 42.7335C225.022 42.4828 225.215 42.2973 225.443 42.1768C225.671 42.0564 225.928 41.9962 226.215 41.9962C226.501 41.9962 226.758 42.0564 226.986 42.1768C227.217 42.2973 227.413 42.4828 227.572 42.7335C227.732 42.9841 227.854 43.3015 227.938 43.6856C228.023 44.0665 228.065 44.5189 228.065 45.043V46.2344ZM227.518 44.9649C227.518 44.1511 227.409 43.5375 227.191 43.1241C226.976 42.7107 226.651 42.504 226.215 42.504C225.785 42.504 225.459 42.7107 225.238 43.1241C225.02 43.5375 224.911 44.1511 224.911 44.9649V46.3028C224.911 46.7032 224.939 47.058 224.994 47.3672C225.052 47.6765 225.135 47.9369 225.243 48.1485C225.354 48.3601 225.49 48.5212 225.653 48.6319C225.819 48.7426 226.01 48.7979 226.224 48.7979C226.442 48.7979 226.631 48.7426 226.791 48.6319C226.954 48.5212 227.089 48.3601 227.196 48.1485C227.303 47.9369 227.383 47.6765 227.435 47.3672C227.491 47.058 227.518 46.7032 227.518 46.3028V44.9649ZM229.974 48.9639C229.974 49.1104 229.958 49.2569 229.926 49.4034C229.896 49.5499 229.852 49.6898 229.794 49.8233C229.735 49.96 229.663 50.0886 229.579 50.209C229.494 50.3295 229.398 50.4385 229.291 50.5362L228.944 50.2774C229.094 50.0756 229.208 49.8721 229.286 49.6671C229.364 49.462 229.403 49.2309 229.403 48.9737V48.2755H229.974V48.9639ZM234.926 42.4356L232.386 49.2032H231.82L234.344 42.6016H230.98V42.0938H234.926V42.4356ZM238.627 48.3975L240.345 43.92H241.014V49.2032H240.472V44.96L238.817 49.2032H238.436L236.747 44.8526V49.2032H236.21V43.92H236.918L238.627 48.3975Z" fill="black"/>
<path d="M153.615 39.2032H149.845V38.7442L151.798 36.1075C151.981 35.8601 152.134 35.6371 152.257 35.4385C152.384 35.24 152.485 35.0561 152.56 34.8868C152.638 34.7143 152.693 34.5531 152.726 34.4034C152.759 34.2536 152.775 34.1055 152.775 33.959C152.775 33.7475 152.749 33.5521 152.697 33.3731C152.645 33.1941 152.568 33.0411 152.467 32.9141C152.366 32.7839 152.239 32.683 152.086 32.6114C151.937 32.5398 151.764 32.504 151.569 32.504C151.364 32.504 151.18 32.5447 151.017 32.626C150.854 32.7074 150.716 32.8214 150.602 32.9678C150.491 33.1143 150.405 33.2885 150.343 33.4903C150.285 33.6889 150.255 33.907 150.255 34.1446H149.713C149.713 33.8516 149.756 33.5749 149.84 33.3145C149.925 33.0541 150.045 32.8262 150.202 32.6309C150.361 32.4356 150.555 32.281 150.783 32.1671C151.014 32.0531 151.276 31.9962 151.569 31.9962C151.839 31.9962 152.083 32.0401 152.301 32.128C152.519 32.2159 152.703 32.3412 152.853 32.504C153.006 32.6667 153.123 32.8669 153.205 33.1046C153.286 33.3422 153.327 33.6091 153.327 33.9053C153.327 34.1202 153.294 34.3366 153.229 34.5547C153.164 34.7696 153.078 34.9844 152.97 35.1993C152.863 35.4141 152.737 35.6273 152.594 35.8389C152.454 36.0505 152.309 36.2589 152.16 36.4639L150.504 38.7003H153.615V39.2032ZM157.033 39.2032H156.486V32.8116L154.879 33.5294V32.9727L156.94 32.0694H157.033V39.2032ZM163.2 36.2344C163.2 36.7585 163.157 37.2143 163.073 37.6016C162.991 37.9857 162.871 38.3047 162.711 38.5587C162.555 38.8093 162.363 38.9965 162.135 39.1202C161.907 39.2406 161.649 39.3008 161.359 39.3008C161.072 39.3008 160.815 39.2406 160.587 39.1202C160.359 38.9965 160.166 38.8093 160.006 38.5587C159.847 38.3047 159.723 37.9857 159.635 37.6016C159.551 37.2143 159.508 36.7585 159.508 36.2344V35.043C159.508 34.5189 159.551 34.0665 159.635 33.6856C159.72 33.3015 159.84 32.9841 159.997 32.7335C160.156 32.4828 160.35 32.2973 160.578 32.1768C160.805 32.0564 161.063 31.9962 161.349 31.9962C161.636 31.9962 161.893 32.0564 162.121 32.1768C162.352 32.2973 162.547 32.4828 162.706 32.7335C162.866 32.9841 162.988 33.3015 163.073 33.6856C163.157 34.0665 163.2 34.5189 163.2 35.043V36.2344ZM162.653 34.9649C162.653 34.1511 162.544 33.5375 162.326 33.1241C162.111 32.7107 161.785 32.504 161.349 32.504C160.919 32.504 160.594 32.7107 160.372 33.1241C160.154 33.5375 160.045 34.1511 160.045 34.9649V36.3028C160.045 36.7032 160.073 37.058 160.128 37.3672C160.187 37.6765 160.27 37.9369 160.377 38.1485C160.488 38.3601 160.625 38.5212 160.788 38.6319C160.954 38.7426 161.144 38.7979 161.359 38.7979C161.577 38.7979 161.766 38.7426 161.925 38.6319C162.088 38.5212 162.223 38.3601 162.331 38.1485C162.438 37.9369 162.518 37.6765 162.57 37.3672C162.625 37.058 162.653 36.7032 162.653 36.3028V34.9649ZM168.063 36.2344C168.063 36.7585 168.021 37.2143 167.936 37.6016C167.855 37.9857 167.734 38.3047 167.575 38.5587C167.418 38.8093 167.226 38.9965 166.998 39.1202C166.771 39.2406 166.512 39.3008 166.222 39.3008C165.936 39.3008 165.678 39.2406 165.451 39.1202C165.223 38.9965 165.029 38.8093 164.87 38.5587C164.71 38.3047 164.586 37.9857 164.498 37.6016C164.414 37.2143 164.372 36.7585 164.372 36.2344V35.043C164.372 34.5189 164.414 34.0665 164.498 33.6856C164.583 33.3015 164.704 32.9841 164.86 32.7335C165.019 32.4828 165.213 32.2973 165.441 32.1768C165.669 32.0564 165.926 31.9962 166.212 31.9962C166.499 31.9962 166.756 32.0564 166.984 32.1768C167.215 32.2973 167.41 32.4828 167.57 32.7335C167.729 32.9841 167.851 33.3015 167.936 33.6856C168.021 34.0665 168.063 34.5189 168.063 35.043V36.2344ZM167.516 34.9649C167.516 34.1511 167.407 33.5375 167.189 33.1241C166.974 32.7107 166.649 32.504 166.212 32.504C165.783 32.504 165.457 32.7107 165.236 33.1241C165.018 33.5375 164.909 34.1511 164.909 34.9649V36.3028C164.909 36.7032 164.936 37.058 164.992 37.3672C165.05 37.6765 165.133 37.9369 165.241 38.1485C165.351 38.3601 165.488 38.5212 165.651 38.6319C165.817 38.7426 166.007 38.7979 166.222 38.7979C166.44 38.7979 166.629 38.7426 166.789 38.6319C166.951 38.5212 167.086 38.3601 167.194 38.1485C167.301 37.9369 167.381 37.6765 167.433 37.3672C167.488 37.058 167.516 36.7032 167.516 36.3028V34.9649ZM172.853 36.7911H172.204V39.2032H171.657V33.92H172.204V36.2589H172.843L174.445 33.92H175.119L173.297 36.4737L175.309 39.2032H174.601L172.853 36.7911ZM178.981 34.4327H176.779V39.2032H176.232V33.92H178.981V34.4327ZM153.371 49.2032H152.829V46.7862H150.504V49.2032H149.957V43.92H150.504V46.2833H152.829V43.92H153.371V49.2032ZM157.653 49.2032C157.627 49.1153 157.606 49.0062 157.589 48.876C157.573 48.7426 157.562 48.6075 157.555 48.4708C157.487 48.5814 157.405 48.6872 157.311 48.7881C157.217 48.8858 157.108 48.9737 156.984 49.0518C156.863 49.1267 156.728 49.1869 156.579 49.2325C156.429 49.2781 156.268 49.3008 156.095 49.3008C155.877 49.3008 155.678 49.2699 155.499 49.2081C155.324 49.1462 155.172 49.0534 155.045 48.9297C154.918 48.8061 154.821 48.6514 154.752 48.4659C154.684 48.2803 154.65 48.0639 154.65 47.8165C154.65 47.5723 154.692 47.3477 154.777 47.1426C154.861 46.9343 154.987 46.7553 155.153 46.6055C155.322 46.4558 155.532 46.3386 155.783 46.254C156.033 46.1693 156.325 46.127 156.657 46.127H157.55V45.3897C157.55 45.0121 157.456 44.7419 157.267 44.5792C157.081 44.4131 156.808 44.3301 156.447 44.3301C156.277 44.3301 156.121 44.3562 155.978 44.4083C155.838 44.4603 155.718 44.5336 155.617 44.628C155.516 44.7191 155.438 44.8298 155.382 44.96C155.327 45.087 155.299 45.2269 155.299 45.3799L154.757 45.3751C154.757 45.17 154.798 44.9747 154.879 44.7891C154.961 44.6003 155.076 44.4343 155.226 44.2911C155.376 44.1478 155.556 44.0339 155.768 43.9493C155.98 43.8646 156.214 43.8223 156.471 43.8223C156.709 43.8223 156.925 43.8516 157.121 43.9102C157.319 43.9656 157.49 44.0567 157.633 44.1837C157.776 44.3074 157.887 44.4701 157.965 44.6719C158.047 44.8705 158.087 45.113 158.087 45.3995V48.0948C158.087 48.1859 158.091 48.2803 158.097 48.378C158.104 48.4756 158.112 48.5717 158.122 48.6661C158.135 48.7572 158.149 48.8451 158.165 48.9297C158.185 49.0111 158.206 49.0827 158.229 49.1446V49.2032H157.653ZM156.164 48.7784C156.333 48.7784 156.491 48.7556 156.637 48.71C156.787 48.6612 156.92 48.5961 157.038 48.5147C157.155 48.4301 157.256 48.3324 157.34 48.2217C157.428 48.1111 157.498 47.9922 157.55 47.8653V46.5811H156.735C156.224 46.5811 155.84 46.6885 155.582 46.9034C155.325 47.1182 155.197 47.4079 155.197 47.7725C155.197 48.1208 155.281 48.3764 155.451 48.5391C155.623 48.6986 155.861 48.7784 156.164 48.7784ZM165.451 42.4356L162.912 49.2032H162.345L164.87 42.6016H161.505V42.0938H165.451V42.4356ZM167.277 48.9639C167.277 49.1104 167.261 49.2569 167.228 49.4034C167.199 49.5499 167.155 49.6898 167.096 49.8233C167.038 49.96 166.966 50.0886 166.881 50.209C166.797 50.3295 166.701 50.4385 166.593 50.5362L166.247 50.2774C166.396 50.0756 166.51 49.8721 166.588 49.6671C166.666 49.462 166.706 49.2309 166.706 48.9737V48.2755H167.277V48.9639ZM172.228 42.4356L169.689 49.2032H169.122L171.647 42.6016H168.283V42.0938H172.228V42.4356ZM175.929 48.3975L177.648 43.92H178.317V49.2032H177.775V44.96L176.12 49.2032H175.739L174.049 44.8526V49.2032H173.512V43.92H174.22L175.929 48.3975Z" fill="black"/>
<path d="M64.9565 35.3262H65.4692C65.6938 35.3262 65.8892 35.2904 66.0552 35.2188C66.2244 35.1439 66.366 35.0447 66.48 34.921C66.5939 34.7973 66.6785 34.6524 66.7339 34.4864C66.7925 34.3171 66.8218 34.1381 66.8218 33.9493C66.8218 33.7344 66.7974 33.5391 66.7485 33.3633C66.6997 33.1843 66.6248 33.0313 66.5239 32.9044C66.423 32.7774 66.2961 32.6797 66.1431 32.6114C65.9933 32.5398 65.8143 32.504 65.606 32.504C65.4237 32.504 65.2544 32.5381 65.0981 32.6065C64.9451 32.6716 64.8117 32.7676 64.6978 32.8946C64.5871 33.0215 64.4992 33.1745 64.4341 33.3536C64.3722 33.5326 64.3413 33.7344 64.3413 33.959H63.7993C63.7993 33.6726 63.8433 33.4089 63.9312 33.168C64.0223 32.9271 64.1476 32.7204 64.3071 32.5479C64.4699 32.3754 64.6619 32.2403 64.8833 32.1426C65.1047 32.045 65.3455 31.9962 65.606 31.9962C65.8696 31.9962 66.1089 32.0401 66.3237 32.128C66.5418 32.2159 66.7274 32.3445 66.8804 32.5137C67.0366 32.6797 67.1554 32.8848 67.2368 33.129C67.3215 33.3731 67.3638 33.6531 67.3638 33.9688C67.3638 34.1283 67.3426 34.2878 67.3003 34.4473C67.258 34.6036 67.1945 34.7517 67.1099 34.8917C67.0252 35.0316 66.9194 35.1602 66.7925 35.2774C66.6655 35.3913 66.5174 35.4857 66.3481 35.5606C66.5467 35.6257 66.716 35.7152 66.856 35.8292C66.9992 35.9431 67.1164 36.0749 67.2075 36.2247C67.2987 36.3712 67.3654 36.5339 67.4077 36.713C67.45 36.8887 67.4712 37.0743 67.4712 37.2696C67.4712 37.5919 67.424 37.8799 67.3296 38.1339C67.2384 38.3845 67.1099 38.5977 66.9438 38.7735C66.7778 38.946 66.5809 39.0779 66.353 39.169C66.1284 39.2569 65.8843 39.3008 65.6206 39.3008C65.3765 39.3008 65.1388 39.2585 64.9077 39.1739C64.6799 39.0893 64.4764 38.9639 64.2974 38.7979C64.1216 38.6286 63.98 38.4187 63.8726 38.168C63.7684 37.9141 63.7163 37.6179 63.7163 37.2794H64.2583C64.2583 37.504 64.2909 37.709 64.356 37.8946C64.4243 38.0801 64.5171 38.2396 64.6343 38.3731C64.7547 38.5066 64.8979 38.6107 65.064 38.6856C65.2332 38.7605 65.4188 38.7979 65.6206 38.7979C66.034 38.7979 66.3547 38.6693 66.5825 38.4122C66.8136 38.1518 66.9292 37.7774 66.9292 37.2891C66.9292 37.0352 66.8934 36.8171 66.8218 36.6348C66.7534 36.4493 66.6541 36.2979 66.5239 36.1807C66.397 36.0603 66.244 35.9724 66.0649 35.9171C65.8859 35.8617 65.6873 35.834 65.4692 35.834H64.9565V35.3262ZM69.5171 38.7344C69.9338 38.7344 70.2837 38.6644 70.5669 38.5245C70.8501 38.3845 71.078 38.1908 71.2505 37.9434C71.4263 37.6928 71.5532 37.3998 71.6313 37.0645C71.7095 36.726 71.7534 36.3581 71.7632 35.961C71.6818 36.0977 71.5874 36.223 71.48 36.337C71.3758 36.4477 71.2619 36.5437 71.1382 36.6251C71.0145 36.7032 70.8826 36.765 70.7427 36.8106C70.6027 36.8529 70.4562 36.8741 70.3032 36.8741C70.02 36.8741 69.771 36.8074 69.5562 36.6739C69.3446 36.5404 69.1672 36.363 69.0239 36.1417C68.8807 35.9203 68.7733 35.6664 68.7017 35.3799C68.63 35.0935 68.5942 34.7973 68.5942 34.4913C68.5942 34.1495 68.6349 33.8272 68.7163 33.5245C68.7977 33.2217 68.9149 32.9581 69.0679 32.7335C69.2209 32.5056 69.4097 32.3266 69.6343 32.1964C69.8589 32.0629 70.116 31.9962 70.4058 31.9962C70.728 31.9962 71.008 32.0678 71.2456 32.211C71.4865 32.351 71.6851 32.5463 71.8413 32.7969C71.9976 33.0476 72.1131 33.3471 72.188 33.6954C72.2661 34.0437 72.3052 34.4229 72.3052 34.8331V35.3946C72.3052 35.7429 72.2873 36.0814 72.2515 36.4102C72.2157 36.7357 72.1554 37.0417 72.0708 37.3282C71.9894 37.6146 71.8787 37.8767 71.7388 38.1143C71.6021 38.3487 71.4295 38.5505 71.2212 38.7198C71.0161 38.8891 70.772 39.0209 70.4888 39.1153C70.2088 39.2064 69.8849 39.252 69.5171 39.252H69.4146L69.4194 38.7344H69.5171ZM70.3765 36.3614C70.5522 36.3614 70.715 36.3272 70.8647 36.2589C71.0145 36.1872 71.1479 36.0945 71.2651 35.9805C71.3823 35.8666 71.4832 35.7364 71.5679 35.5899C71.6525 35.4402 71.7192 35.2872 71.7681 35.1309V34.7745C71.7681 34.4034 71.7339 34.0779 71.6655 33.7979C71.5972 33.5147 71.5028 33.2787 71.3823 33.0899C71.2619 32.8978 71.1187 32.753 70.9526 32.6553C70.7866 32.5577 70.606 32.5089 70.4106 32.5089C70.2088 32.5089 70.0282 32.5626 69.8687 32.67C69.7124 32.7741 69.5789 32.9158 69.4683 33.0948C69.3576 33.2738 69.2729 33.4822 69.2144 33.7198C69.1558 33.9542 69.1265 34.2032 69.1265 34.4669C69.1265 34.7077 69.1525 34.9421 69.2046 35.17C69.2599 35.3978 69.3397 35.5997 69.4438 35.7755C69.548 35.9512 69.6782 36.0928 69.8345 36.2003C69.9907 36.3077 70.1714 36.3614 70.3765 36.3614ZM77.2222 36.2344C77.2222 36.7585 77.1799 37.2143 77.0952 37.6016C77.0138 37.9857 76.8934 38.3047 76.7339 38.5587C76.5776 38.8093 76.3856 38.9965 76.1577 39.1202C75.9299 39.2406 75.6711 39.3008 75.3813 39.3008C75.0949 39.3008 74.8377 39.2406 74.6099 39.1202C74.382 38.9965 74.1883 38.8093 74.0288 38.5587C73.8693 38.3047 73.7456 37.9857 73.6577 37.6016C73.5731 37.2143 73.5308 36.7585 73.5308 36.2344V35.043C73.5308 34.5189 73.5731 34.0665 73.6577 33.6856C73.7424 33.3015 73.8628 32.9841 74.019 32.7335C74.1785 32.4828 74.3722 32.2973 74.6001 32.1768C74.828 32.0564 75.0851 31.9962 75.3716 31.9962C75.658 31.9962 75.9152 32.0564 76.1431 32.1768C76.3742 32.2973 76.5695 32.4828 76.729 32.7335C76.8885 32.9841 77.0106 33.3015 77.0952 33.6856C77.1799 34.0665 77.2222 34.5189 77.2222 35.043V36.2344ZM76.6753 34.9649C76.6753 34.1511 76.5662 33.5375 76.3481 33.1241C76.1333 32.7107 75.8078 32.504 75.3716 32.504C74.9419 32.504 74.6164 32.7107 74.395 33.1241C74.1769 33.5375 74.0679 34.1511 74.0679 34.9649V36.3028C74.0679 36.7032 74.0955 37.058 74.1509 37.3672C74.2095 37.6765 74.2925 37.9369 74.3999 38.1485C74.5106 38.3601 74.6473 38.5212 74.8101 38.6319C74.9761 38.7426 75.1665 38.7979 75.3813 38.7979C75.5994 38.7979 75.7882 38.7426 75.9478 38.6319C76.1105 38.5212 76.2456 38.3601 76.353 38.1485C76.4604 37.9369 76.5402 37.6765 76.5923 37.3672C76.6476 37.058 76.6753 36.7032 76.6753 36.3028V34.9649ZM82.0854 36.2344C82.0854 36.7585 82.0431 37.2143 81.9585 37.6016C81.8771 37.9857 81.7567 38.3047 81.5972 38.5587C81.4409 38.8093 81.2489 38.9965 81.021 39.1202C80.7931 39.2406 80.5343 39.3008 80.2446 39.3008C79.9582 39.3008 79.701 39.2406 79.4731 39.1202C79.2453 38.9965 79.0516 38.8093 78.8921 38.5587C78.7326 38.3047 78.6089 37.9857 78.521 37.6016C78.4364 37.2143 78.394 36.7585 78.394 36.2344V35.043C78.394 34.5189 78.4364 34.0665 78.521 33.6856C78.6056 33.3015 78.7261 32.9841 78.8823 32.7335C79.0418 32.4828 79.2355 32.2973 79.4634 32.1768C79.6912 32.0564 79.9484 31.9962 80.2349 31.9962C80.5213 31.9962 80.7785 32.0564 81.0063 32.1768C81.2375 32.2973 81.4328 32.4828 81.5923 32.7335C81.7518 32.9841 81.8739 33.3015 81.9585 33.6856C82.0431 34.0665 82.0854 34.5189 82.0854 35.043V36.2344ZM81.5386 34.9649C81.5386 34.1511 81.4295 33.5375 81.2114 33.1241C80.9966 32.7107 80.6711 32.504 80.2349 32.504C79.8052 32.504 79.4797 32.7107 79.2583 33.1241C79.0402 33.5375 78.9312 34.1511 78.9312 34.9649V36.3028C78.9312 36.7032 78.9588 37.058 79.0142 37.3672C79.0728 37.6765 79.1558 37.9369 79.2632 38.1485C79.3739 38.3601 79.5106 38.5212 79.6733 38.6319C79.8394 38.7426 80.0298 38.7979 80.2446 38.7979C80.4627 38.7979 80.6515 38.7426 80.811 38.6319C80.9738 38.5212 81.1089 38.3601 81.2163 38.1485C81.3237 37.9369 81.4035 37.6765 81.4556 37.3672C81.5109 37.058 81.5386 36.7032 81.5386 36.3028V34.9649ZM86.8755 36.7911H86.2261V39.2032H85.6792V33.92H86.2261V36.2589H86.8657L88.4673 33.92H89.1411L87.3198 36.4737L89.3315 39.2032H88.6235L86.8755 36.7911ZM93.0034 34.4327H90.8013V39.2032H90.2544V33.92H93.0034V34.4327ZM67.3931 49.2032H66.8511V46.7862H64.5269V49.2032H63.98V43.92H64.5269V46.2833H66.8511V43.92H67.3931V49.2032ZM71.6753 49.2032C71.6493 49.1153 71.6281 49.0062 71.6118 48.876C71.5955 48.7426 71.5841 48.6075 71.5776 48.4708C71.5093 48.5814 71.4279 48.6872 71.3335 48.7881C71.2391 48.8858 71.13 48.9737 71.0063 49.0518C70.8859 49.1267 70.7508 49.1869 70.6011 49.2325C70.4513 49.2781 70.2902 49.3008 70.1177 49.3008C69.8996 49.3008 69.701 49.2699 69.522 49.2081C69.3462 49.1462 69.1948 49.0534 69.0679 48.9297C68.9409 48.8061 68.8433 48.6514 68.7749 48.4659C68.7065 48.2803 68.6724 48.0639 68.6724 47.8165C68.6724 47.5723 68.7147 47.3477 68.7993 47.1426C68.884 46.9343 69.0093 46.7553 69.1753 46.6055C69.3446 46.4558 69.5545 46.3386 69.8052 46.254C70.0558 46.1693 70.3472 46.127 70.6792 46.127H71.5728V45.3897C71.5728 45.0121 71.4784 44.7419 71.2896 44.5792C71.104 44.4131 70.8306 44.3301 70.4692 44.3301C70.3 44.3301 70.1437 44.3562 70.0005 44.4083C69.8605 44.4603 69.7401 44.5336 69.6392 44.628C69.5382 44.7191 69.4601 44.8298 69.4048 44.96C69.3494 45.087 69.3218 45.2269 69.3218 45.3799L68.7798 45.3751C68.7798 45.17 68.8205 44.9747 68.9019 44.7891C68.9832 44.6003 69.0988 44.4343 69.2485 44.2911C69.3983 44.1478 69.5789 44.0339 69.7905 43.9493C70.0021 43.8646 70.2365 43.8223 70.4937 43.8223C70.7313 43.8223 70.9478 43.8516 71.1431 43.9102C71.3416 43.9656 71.5125 44.0567 71.6558 44.1837C71.799 44.3074 71.9097 44.4701 71.9878 44.6719C72.0692 44.8705 72.1099 45.113 72.1099 45.3995V48.0948C72.1099 48.1859 72.1131 48.2803 72.1196 48.378C72.1261 48.4756 72.1343 48.5717 72.144 48.6661C72.1571 48.7572 72.1717 48.8451 72.188 48.9297C72.2075 49.0111 72.2287 49.0827 72.2515 49.1446V49.2032H71.6753ZM70.186 48.7784C70.3553 48.7784 70.5132 48.7556 70.6597 48.71C70.8094 48.6612 70.9429 48.5961 71.0601 48.5147C71.1772 48.4301 71.2782 48.3324 71.3628 48.2217C71.4507 48.1111 71.5207 47.9922 71.5728 47.8653V46.5811H70.7573C70.2463 46.5811 69.8621 46.6885 69.605 46.9034C69.3478 47.1182 69.2192 47.4079 69.2192 47.7725C69.2192 48.1208 69.3039 48.3764 69.4731 48.5391C69.6457 48.6986 69.8833 48.7784 70.186 48.7784ZM78.8091 46.9083H79.7222V47.4161H78.8091V49.2032H78.2671V47.4161H75.4741V47.0694L78.2231 42.0938H78.8091V46.9083ZM76.1235 46.9083H78.2671V42.9141L78.0718 43.3096L76.1235 46.9083ZM81.2993 48.9639C81.2993 49.1104 81.283 49.2569 81.2505 49.4034C81.2212 49.5499 81.1772 49.6898 81.1187 49.8233C81.0601 49.96 80.9884 50.0886 80.9038 50.209C80.8192 50.3295 80.7231 50.4385 80.6157 50.5362L80.269 50.2774C80.4188 50.0756 80.5327 49.8721 80.6108 49.6671C80.689 49.462 80.728 49.2309 80.728 48.9737V48.2755H81.2993V48.9639ZM86.2505 42.4356L83.7114 49.2032H83.145L85.6694 42.6016H82.3052V42.0938H86.2505V42.4356ZM89.9517 48.3975L91.6704 43.92H92.3394V49.2032H91.7974V44.96L90.1421 49.2032H89.7612L88.0718 44.8526V49.2032H87.5347V43.92H88.2427L89.9517 48.3975Z" fill="black"/>
<path d="M15.3941 33.9249C15.3941 34.1104 15.3697 34.2878 15.3209 34.4571C15.2753 34.6231 15.2102 34.7761 15.1255 34.9161C15.0409 35.0528 14.9384 35.1765 14.8179 35.2872C14.7007 35.3946 14.5689 35.4841 14.4224 35.5557C14.5917 35.6273 14.7447 35.7201 14.8814 35.834C15.0214 35.948 15.1402 36.0814 15.2379 36.2344C15.3388 36.3842 15.4153 36.5502 15.4673 36.7325C15.5227 36.9148 15.5504 37.1101 15.5504 37.3184C15.5504 37.6407 15.4999 37.9255 15.399 38.1729C15.3013 38.4203 15.1662 38.6286 14.9937 38.7979C14.8244 38.9639 14.6242 39.0893 14.3931 39.1739C14.162 39.2585 13.9146 39.3008 13.6509 39.3008C13.3808 39.3008 13.1301 39.2585 12.899 39.1739C12.6679 39.0893 12.466 38.9639 12.2935 38.7979C12.1242 38.6286 11.9908 38.4203 11.8931 38.1729C11.7955 37.9255 11.7466 37.6407 11.7466 37.3184C11.7466 37.1101 11.7727 36.9148 11.8248 36.7325C11.8769 36.5502 11.9517 36.3842 12.0494 36.2344C12.147 36.0814 12.2642 35.948 12.4009 35.834C12.5377 35.7201 12.689 35.6273 12.855 35.5557C12.7086 35.4841 12.5751 35.3946 12.4547 35.2872C12.3375 35.1765 12.2366 35.0528 12.1519 34.9161C12.0705 34.7761 12.0071 34.6231 11.9615 34.4571C11.9159 34.2878 11.8931 34.1104 11.8931 33.9249C11.8931 33.6156 11.9371 33.3422 12.025 33.1046C12.1129 32.8637 12.2349 32.6618 12.3912 32.4991C12.5474 32.3331 12.7313 32.2077 12.9429 32.1231C13.1578 32.0385 13.3905 31.9962 13.6412 31.9962C13.8886 31.9962 14.1197 32.0385 14.3345 32.1231C14.5494 32.2077 14.7349 32.3331 14.8912 32.4991C15.0474 32.6618 15.1695 32.8637 15.2574 33.1046C15.3485 33.3422 15.3941 33.6156 15.3941 33.9249ZM15.0035 37.3184C15.0035 37.0938 14.9693 36.8887 14.9009 36.7032C14.8326 36.5176 14.7366 36.3598 14.6129 36.2296C14.4924 36.0961 14.3492 35.9936 14.1832 35.9219C14.0172 35.8471 13.8365 35.8096 13.6412 35.8096C13.4426 35.8096 13.2603 35.8471 13.0943 35.9219C12.9283 35.9936 12.7851 36.0961 12.6646 36.2296C12.5442 36.3598 12.4498 36.5176 12.3814 36.7032C12.3163 36.8887 12.2838 37.0938 12.2838 37.3184C12.2838 37.5528 12.3163 37.7628 12.3814 37.9483C12.4498 38.1306 12.5442 38.2852 12.6646 38.4122C12.7851 38.5391 12.9283 38.6352 13.0943 38.7003C13.2636 38.7654 13.4491 38.7979 13.6509 38.7979C13.8495 38.7979 14.0302 38.7654 14.1929 38.7003C14.3589 38.6352 14.5022 38.5391 14.6226 38.4122C14.7431 38.2852 14.8358 38.1306 14.9009 37.9483C14.9693 37.7628 15.0035 37.5528 15.0035 37.3184ZM14.8521 33.92C14.8521 33.7149 14.8212 33.5261 14.7593 33.3536C14.6975 33.1778 14.6129 33.0281 14.5054 32.9044C14.398 32.7774 14.2694 32.6797 14.1197 32.6114C13.9732 32.5398 13.8137 32.504 13.6412 32.504C13.4654 32.504 13.3043 32.5365 13.1578 32.6016C13.0113 32.6667 12.8843 32.7611 12.7769 32.8848C12.6727 33.0053 12.5897 33.1534 12.5279 33.3292C12.4693 33.5049 12.44 33.7019 12.44 33.92C12.44 34.1316 12.4693 34.3236 12.5279 34.4962C12.5865 34.6654 12.6695 34.8103 12.7769 34.9307C12.8843 35.0479 13.0113 35.1391 13.1578 35.2042C13.3075 35.2693 13.4703 35.3018 13.6461 35.3018C13.8186 35.3018 13.9781 35.2693 14.1246 35.2042C14.2743 35.1391 14.4029 35.0479 14.5103 34.9307C14.6177 34.8103 14.7007 34.6654 14.7593 34.4962C14.8212 34.3236 14.8521 34.1316 14.8521 33.92ZM20.3502 36.2344C20.3502 36.7585 20.3078 37.2143 20.2232 37.6016C20.1418 37.9857 20.0214 38.3047 19.8619 38.5587C19.7056 38.8093 19.5136 38.9965 19.2857 39.1202C19.0578 39.2406 18.7991 39.3008 18.5093 39.3008C18.2229 39.3008 17.9657 39.2406 17.7379 39.1202C17.51 38.9965 17.3163 38.8093 17.1568 38.5587C16.9973 38.3047 16.8736 37.9857 16.7857 37.6016C16.7011 37.2143 16.6588 36.7585 16.6588 36.2344V35.043C16.6588 34.5189 16.7011 34.0665 16.7857 33.6856C16.8703 33.3015 16.9908 32.9841 17.147 32.7335C17.3065 32.4828 17.5002 32.2973 17.7281 32.1768C17.956 32.0564 18.2131 31.9962 18.4996 31.9962C18.786 31.9962 19.0432 32.0564 19.2711 32.1768C19.5022 32.2973 19.6975 32.4828 19.857 32.7335C20.0165 32.9841 20.1386 33.3015 20.2232 33.6856C20.3078 34.0665 20.3502 34.5189 20.3502 35.043V36.2344ZM19.8033 34.9649C19.8033 34.1511 19.6942 33.5375 19.4761 33.1241C19.2613 32.7107 18.9358 32.504 18.4996 32.504C18.0699 32.504 17.7444 32.7107 17.523 33.1241C17.3049 33.5375 17.1959 34.1511 17.1959 34.9649V36.3028C17.1959 36.7032 17.2235 37.058 17.2789 37.3672C17.3375 37.6765 17.4205 37.9369 17.5279 38.1485C17.6386 38.3601 17.7753 38.5212 17.938 38.6319C18.1041 38.7426 18.2945 38.7979 18.5093 38.7979C18.7274 38.7979 18.9162 38.7426 19.0757 38.6319C19.2385 38.5212 19.3736 38.3601 19.481 38.1485C19.5884 37.9369 19.6682 37.6765 19.7203 37.3672C19.7756 37.058 19.8033 36.7032 19.8033 36.3028V34.9649ZM25.2134 36.2344C25.2134 36.7585 25.1711 37.2143 25.0865 37.6016C25.0051 37.9857 24.8847 38.3047 24.7252 38.5587C24.5689 38.8093 24.3769 38.9965 24.149 39.1202C23.9211 39.2406 23.6623 39.3008 23.3726 39.3008C23.0862 39.3008 22.829 39.2406 22.6011 39.1202C22.3733 38.9965 22.1796 38.8093 22.0201 38.5587C21.8606 38.3047 21.7369 37.9857 21.649 37.6016C21.5644 37.2143 21.522 36.7585 21.522 36.2344V35.043C21.522 34.5189 21.5644 34.0665 21.649 33.6856C21.7336 33.3015 21.8541 32.9841 22.0103 32.7335C22.1698 32.4828 22.3635 32.2973 22.5914 32.1768C22.8192 32.0564 23.0764 31.9962 23.3629 31.9962C23.6493 31.9962 23.9065 32.0564 24.1343 32.1768C24.3655 32.2973 24.5608 32.4828 24.7203 32.7335C24.8798 32.9841 25.0019 33.3015 25.0865 33.6856C25.1711 34.0665 25.2134 34.5189 25.2134 35.043V36.2344ZM24.6666 34.9649C24.6666 34.1511 24.5575 33.5375 24.3394 33.1241C24.1246 32.7107 23.7991 32.504 23.3629 32.504C22.9332 32.504 22.6076 32.7107 22.3863 33.1241C22.1682 33.5375 22.0591 34.1511 22.0591 34.9649V36.3028C22.0591 36.7032 22.0868 37.058 22.1422 37.3672C22.2007 37.6765 22.2838 37.9369 22.3912 38.1485C22.5019 38.3601 22.6386 38.5212 22.8013 38.6319C22.9673 38.7426 23.1578 38.7979 23.3726 38.7979C23.5907 38.7979 23.7795 38.7426 23.939 38.6319C24.1018 38.5212 24.2369 38.3601 24.3443 38.1485C24.4517 37.9369 24.5315 37.6765 24.5836 37.3672C24.6389 37.058 24.6666 36.7032 24.6666 36.3028V34.9649ZM30.0767 36.2344C30.0767 36.7585 30.0344 37.2143 29.9498 37.6016C29.8684 37.9857 29.7479 38.3047 29.5884 38.5587C29.4322 38.8093 29.2401 38.9965 29.0123 39.1202C28.7844 39.2406 28.5256 39.3008 28.2359 39.3008C27.9494 39.3008 27.6923 39.2406 27.4644 39.1202C27.2366 38.9965 27.0429 38.8093 26.8834 38.5587C26.7239 38.3047 26.6002 37.9857 26.5123 37.6016C26.4276 37.2143 26.3853 36.7585 26.3853 36.2344V35.043C26.3853 34.5189 26.4276 34.0665 26.5123 33.6856C26.5969 33.3015 26.7173 32.9841 26.8736 32.7335C27.0331 32.4828 27.2268 32.2973 27.4547 32.1768C27.6825 32.0564 27.9397 31.9962 28.2261 31.9962C28.5126 31.9962 28.7698 32.0564 28.9976 32.1768C29.2287 32.2973 29.4241 32.4828 29.5836 32.7335C29.7431 32.9841 29.8651 33.3015 29.9498 33.6856C30.0344 34.0665 30.0767 34.5189 30.0767 35.043V36.2344ZM29.5298 34.9649C29.5298 34.1511 29.4208 33.5375 29.2027 33.1241C28.9879 32.7107 28.6623 32.504 28.2261 32.504C27.7964 32.504 27.4709 32.7107 27.2496 33.1241C27.0315 33.5375 26.9224 34.1511 26.9224 34.9649V36.3028C26.9224 36.7032 26.9501 37.058 27.0054 37.3672C27.064 37.6765 27.147 37.9369 27.2545 38.1485C27.3651 38.3601 27.5019 38.5212 27.6646 38.6319C27.8306 38.7426 28.0211 38.7979 28.2359 38.7979C28.454 38.7979 28.6428 38.7426 28.8023 38.6319C28.9651 38.5212 29.1002 38.3601 29.2076 38.1485C29.315 37.9369 29.3948 37.6765 29.4468 37.3672C29.5022 37.058 29.5298 36.7032 29.5298 36.3028V34.9649ZM34.8668 36.7911H34.2173V39.2032H33.6705V33.92H34.2173V36.2589H34.857L36.4586 33.92H37.1324L35.3111 36.4737L37.3228 39.2032H36.6148L34.8668 36.7911ZM40.9947 34.4327H38.7925V39.2032H38.2457V33.92H40.9947V34.4327ZM15.3843 49.2032H14.8423V46.7862H12.5181V49.2032H11.9713V43.92H12.5181V46.2833H14.8423V43.92H15.3843V49.2032ZM19.6666 49.2032C19.6405 49.1153 19.6194 49.0062 19.6031 48.876C19.5868 48.7426 19.5754 48.6075 19.5689 48.4708C19.5005 48.5814 19.4192 48.6872 19.3248 48.7881C19.2304 48.8858 19.1213 48.9737 18.9976 49.0518C18.8772 49.1267 18.7421 49.1869 18.5923 49.2325C18.4426 49.2781 18.2815 49.3008 18.1089 49.3008C17.8908 49.3008 17.6923 49.2699 17.5132 49.2081C17.3375 49.1462 17.1861 49.0534 17.0591 48.9297C16.9322 48.8061 16.8345 48.6514 16.7662 48.4659C16.6978 48.2803 16.6636 48.0639 16.6636 47.8165C16.6636 47.5723 16.706 47.3477 16.7906 47.1426C16.8752 46.9343 17.0005 46.7553 17.1666 46.6055C17.3358 46.4558 17.5458 46.3386 17.7964 46.254C18.0471 46.1693 18.3384 46.127 18.6705 46.127H19.564V45.3897C19.564 45.0121 19.4696 44.7419 19.2808 44.5792C19.0953 44.4131 18.8218 44.3301 18.4605 44.3301C18.2912 44.3301 18.135 44.3562 17.9918 44.4083C17.8518 44.4603 17.7313 44.5336 17.6304 44.628C17.5295 44.7191 17.4514 44.8298 17.3961 44.96C17.3407 45.087 17.313 45.2269 17.313 45.3799L16.7711 45.3751C16.7711 45.17 16.8117 44.9747 16.8931 44.7891C16.9745 44.6003 17.0901 44.4343 17.2398 44.2911C17.3895 44.1478 17.5702 44.0339 17.7818 43.9493C17.9934 43.8646 18.2278 43.8223 18.4849 43.8223C18.7226 43.8223 18.939 43.8516 19.1343 43.9102C19.3329 43.9656 19.5038 44.0567 19.647 44.1837C19.7903 44.3074 19.9009 44.4701 19.9791 44.6719C20.0604 44.8705 20.1011 45.113 20.1011 45.3995V48.0948C20.1011 48.1859 20.1044 48.2803 20.1109 48.378C20.1174 48.4756 20.1255 48.5717 20.1353 48.6661C20.1483 48.7572 20.163 48.8451 20.1793 48.9297C20.1988 49.0111 20.22 49.0827 20.2427 49.1446V49.2032H19.6666ZM18.1773 48.7784C18.3466 48.7784 18.5045 48.7556 18.6509 48.71C18.8007 48.6612 18.9341 48.5961 19.0513 48.5147C19.1685 48.4301 19.2694 48.3324 19.3541 48.2217C19.442 48.1111 19.5119 47.9922 19.564 47.8653V46.5811H18.7486C18.2375 46.5811 17.8534 46.6885 17.5963 46.9034C17.3391 47.1182 17.2105 47.4079 17.2105 47.7725C17.2105 48.1208 17.2951 48.3764 17.4644 48.5391C17.6369 48.6986 17.8746 48.7784 18.1773 48.7784ZM27.523 49.2032H23.7535V48.7442L25.7066 46.1075C25.8889 45.8601 26.0419 45.6371 26.1656 45.4385C26.2925 45.24 26.3935 45.0561 26.4683 44.8868C26.5464 44.7143 26.6018 44.5531 26.6343 44.4034C26.6669 44.2536 26.6832 44.1055 26.6832 43.959C26.6832 43.7475 26.6571 43.5521 26.605 43.3731C26.553 43.1941 26.4765 43.0411 26.3755 42.9141C26.2746 42.7839 26.1477 42.683 25.9947 42.6114C25.845 42.5398 25.6724 42.504 25.4771 42.504C25.272 42.504 25.0881 42.5447 24.9254 42.626C24.7626 42.7074 24.6242 42.8214 24.5103 42.9678C24.3996 43.1143 24.3134 43.2885 24.2515 43.4903C24.1929 43.6889 24.1636 43.907 24.1636 44.1446H23.6216C23.6216 43.8516 23.664 43.5749 23.7486 43.3145C23.8332 43.0541 23.9537 42.8262 24.1099 42.6309C24.2694 42.4356 24.4631 42.281 24.691 42.1671C24.9221 42.0531 25.1841 41.9962 25.4771 41.9962C25.7473 41.9962 25.9914 42.0401 26.2095 42.128C26.4276 42.2159 26.6116 42.3412 26.7613 42.504C26.9143 42.6667 27.0315 42.8669 27.1129 43.1046C27.1942 43.3422 27.2349 43.6091 27.2349 43.9053C27.2349 44.1202 27.2024 44.3366 27.1373 44.5547C27.0722 44.7696 26.9859 44.9844 26.8785 45.1993C26.7711 45.4141 26.6457 45.6273 26.5025 45.8389C26.3625 46.0505 26.2177 46.2589 26.0679 46.4639L24.4127 48.7003H27.523V49.2032ZM29.2906 48.9639C29.2906 49.1104 29.2743 49.2569 29.2418 49.4034C29.2125 49.5499 29.1685 49.6898 29.1099 49.8233C29.0513 49.96 28.9797 50.0886 28.8951 50.209C28.8104 50.3295 28.7144 50.4385 28.607 50.5362L28.2603 50.2774C28.4101 50.0756 28.524 49.8721 28.6021 49.6671C28.6802 49.462 28.7193 49.2309 28.7193 48.9737V48.2755H29.2906V48.9639ZM34.1588 46.2344C34.1588 46.7585 34.1164 47.2143 34.0318 47.6016C33.9504 47.9857 33.83 48.3047 33.6705 48.5587C33.5142 48.8093 33.3222 48.9965 33.0943 49.1202C32.8664 49.2406 32.6076 49.3008 32.3179 49.3008C32.0315 49.3008 31.7743 49.2406 31.5464 49.1202C31.3186 48.9965 31.1249 48.8093 30.9654 48.5587C30.8059 48.3047 30.6822 47.9857 30.5943 47.6016C30.5097 47.2143 30.4673 46.7585 30.4673 46.2344V45.043C30.4673 44.5189 30.5097 44.0665 30.5943 43.6856C30.6789 43.3015 30.7994 42.9841 30.9556 42.7335C31.1151 42.4828 31.3088 42.2973 31.5367 42.1768C31.7645 42.0564 32.0217 41.9962 32.3082 41.9962C32.5946 41.9962 32.8518 42.0564 33.0797 42.1768C33.3108 42.2973 33.5061 42.4828 33.6656 42.7335C33.8251 42.9841 33.9472 43.3015 34.0318 43.6856C34.1164 44.0665 34.1588 44.5189 34.1588 45.043V46.2344ZM33.6119 44.9649C33.6119 44.1511 33.5028 43.5375 33.2847 43.1241C33.0699 42.7107 32.7444 42.504 32.3082 42.504C31.8785 42.504 31.553 42.7107 31.3316 43.1241C31.1135 43.5375 31.0045 44.1511 31.0045 44.9649V46.3028C31.0045 46.7032 31.0321 47.058 31.0875 47.3672C31.1461 47.6765 31.2291 47.9369 31.3365 48.1485C31.4472 48.3601 31.5839 48.5212 31.7466 48.6319C31.9127 48.7426 32.1031 48.7979 32.3179 48.7979C32.536 48.7979 32.7248 48.7426 32.8843 48.6319C33.0471 48.5212 33.1822 48.3601 33.2896 48.1485C33.397 47.9369 33.4768 47.6765 33.5289 47.3672C33.5842 47.058 33.6119 46.7032 33.6119 46.3028V44.9649ZM37.9429 48.3975L39.6617 43.92H40.3306V49.2032H39.7886V44.96L38.1334 49.2032H37.7525L36.063 44.8526V49.2032H35.5259V43.92H36.2339L37.9429 48.3975Z" fill="black"/>
</svg>
