<svg width="449" height="53" viewBox="0 0 449 53" fill="none" xmlns="http://www.w3.org/2000/svg">
<path d="M115.03 18.8722H439.828V7.16943H106.321L115.03 18.8722Z" fill="#201500" stroke="black" stroke-width="0.5" stroke-miterlimit="10" stroke-linecap="round" stroke-linejoin="round"/>
<path d="M445.115 28.5337H442.558C441.05 28.5337 439.828 27.3114 439.828 25.8037V7.17806C439.828 5.67029 441.05 4.448 442.558 4.448H445.62C447.127 4.448 448.35 5.67031 448.35 7.17806L447.673 26.0661C447.623 27.443 446.493 28.5337 445.115 28.5337Z" fill="#5159A3" stroke="black" stroke-width="0.5" stroke-miterlimit="10" stroke-linecap="round" stroke-linejoin="round"/>
<path d="M115.03 18.8722H26.331L11.8386 7.16943H106.321L115.03 18.8722Z" fill="#5159A3" stroke="black" stroke-width="0.5" stroke-miterlimit="10" stroke-linecap="round" stroke-linejoin="round"/>
<path d="M14.2539 7.6117L10.9788 5.28469C10.6004 5.01583 10.3757 3.8491 10.3757 3.38492V3.3849C10.3757 2.32805 9.51893 1.47131 8.46206 1.47131C7.40521 1.47131 6.54846 2.32805 6.54846 3.3849V5.44874C6.54846 6.35402 6.99978 7.19971 7.75182 7.70366L11.4983 10.2142L14.2539 7.6117Z" fill="#5159A3" stroke="black" stroke-width="0.5" stroke-miterlimit="10" stroke-linecap="round" stroke-linejoin="round"/>
<path d="M1.94287 16.1082L12.2352 6.43515C12.5373 6.15129 12.9992 6.12427 13.3323 6.371L26.2019 15.904C26.4182 16.0642 26.6802 16.1506 26.9493 16.1506H38.8539C39.4142 16.1506 39.6394 16.8735 39.1782 17.1917L27.5884 25.1887C27.2674 25.4102 26.8616 25.4699 26.4904 25.3503L2.26709 17.5486C1.64585 17.3485 1.46727 16.5551 1.94287 16.1082Z" fill="#5159A3" stroke="black" stroke-width="0.5" stroke-miterlimit="10" stroke-linecap="round" stroke-linejoin="round"/>
<path d="M10.4014 15.4788C11.1953 15.4788 11.8388 14.8353 11.8388 14.0415C11.8388 13.2476 11.1953 12.6041 10.4014 12.6041C9.60763 12.6041 8.96411 13.2476 8.96411 14.0415C8.96411 14.8353 9.60763 15.4788 10.4014 15.4788Z" fill="#5159A3" stroke="black" stroke-width="0.5" stroke-miterlimit="10" stroke-linecap="round" stroke-linejoin="round"/>
<path d="M26.3905 24.0176C27.1843 24.0176 27.8278 23.3741 27.8278 22.5803C27.8278 21.7865 27.1843 21.1429 26.3905 21.1429C25.5966 21.1429 24.9531 21.7865 24.9531 22.5803C24.9531 23.3741 25.5966 24.0176 26.3905 24.0176Z" fill="#5159A3" stroke="black" stroke-width="0.5" stroke-miterlimit="10" stroke-linecap="round" stroke-linejoin="round"/>
<path d="M49.4872 7.1695H47.8542V3.82723C47.8542 3.37631 48.2198 3.01074 48.6707 3.01074C49.1216 3.01074 49.4872 3.37631 49.4872 3.82723V7.1695Z" fill="#221500" stroke="black" stroke-width="0.5" stroke-miterlimit="10" stroke-linecap="round" stroke-linejoin="round"/>
<path d="M93.5547 7.16951H90.2982V3.94448C90.2982 3.77162 90.4383 3.63147 90.6112 3.63147H90.9879C91.175 3.63147 91.3492 3.72678 91.4501 3.88433L93.5547 7.16951Z" fill="#221500" stroke="black" stroke-width="0.5" stroke-miterlimit="10" stroke-linecap="round" stroke-linejoin="round"/>
<path d="M282.876 3.98807H279.659V0.802359C279.659 0.631597 279.798 0.493164 279.969 0.493164H280.341C280.525 0.493164 280.698 0.587298 280.797 0.742933L282.876 3.98807Z" fill="#221500" stroke="black" stroke-width="0.5" stroke-miterlimit="10" stroke-linecap="round" stroke-linejoin="round"/>
<path d="M59.863 18.8722H58.6724V23.0226C58.6724 23.3514 58.9389 23.6179 59.2677 23.6179C59.5965 23.6179 59.8631 23.3514 59.8631 23.0226V18.8722H59.863Z" fill="#221500" stroke="black" stroke-width="0.5" stroke-miterlimit="10" stroke-linecap="round" stroke-linejoin="round"/>
<path d="M104.28 18.8722H103.089V23.0226C103.089 23.3514 103.356 23.6179 103.684 23.6179C104.013 23.6179 104.28 23.3514 104.28 23.0226V18.8722H104.28Z" fill="#221500" stroke="black" stroke-width="0.5" stroke-miterlimit="10" stroke-linecap="round" stroke-linejoin="round"/>
<path d="M80.5916 18.8722H79.4009V23.0226C79.4009 23.3514 79.6674 23.6179 79.9962 23.6179C80.325 23.6179 80.5916 23.3514 80.5916 23.0226V18.8722H80.5916Z" fill="#221500" stroke="black" stroke-width="0.5" stroke-miterlimit="10" stroke-linecap="round" stroke-linejoin="round"/>
<path d="M117.951 19.8928H112.247C112.072 19.8928 111.907 19.8094 111.802 19.6681L102.08 6.48754C101.977 6.34726 102.077 6.14893 102.251 6.14893H107.955C108.131 6.14893 108.296 6.23232 108.4 6.37365L118.122 19.5542C118.226 19.6945 118.126 19.8928 117.951 19.8928Z" fill="#5159A3" stroke="black" stroke-width="0.5" stroke-miterlimit="10" stroke-linecap="round" stroke-linejoin="round"/>
<path d="M213.367 16.9781V19.2132C213.367 19.5913 213.061 19.8979 212.682 19.8979H210.203C209.881 19.8979 209.576 19.7541 209.371 19.5059L200.569 8.84312C200.311 8.53035 200.17 8.13744 200.17 7.73185V4.44791C200.17 4.19393 200.376 3.98804 200.63 3.98804H204.791C205.045 3.98804 205.25 4.19393 205.25 4.44791V6.12545C205.25 6.53086 205.392 6.92364 205.65 7.23636L213.121 16.2916C213.28 16.4849 213.367 16.7275 213.367 16.9781Z" fill="#5159A3" stroke="black" stroke-width="0.5" stroke-miterlimit="10" stroke-linecap="round" stroke-linejoin="round"/>
<path d="M291.867 16.9781V19.2132C291.867 19.5913 291.561 19.8979 291.183 19.8979H288.703C288.381 19.8979 288.076 19.7541 287.871 19.5059L279.069 8.84312C278.811 8.53035 278.67 8.13744 278.67 7.73185V4.44791C278.67 4.19393 278.876 3.98804 279.13 3.98804H283.291C283.545 3.98804 283.751 4.19393 283.751 4.44791V6.12545C283.751 6.53086 283.892 6.92364 284.15 7.23636L291.621 16.2916C291.78 16.4849 291.867 16.7275 291.867 16.9781Z" fill="#5159A3" stroke="black" stroke-width="0.5" stroke-miterlimit="10" stroke-linecap="round" stroke-linejoin="round"/>
<path d="M353.205 5.20866H349.092V1.13522C349.092 0.916871 349.269 0.739868 349.488 0.739868H349.963C350.2 0.739868 350.42 0.860242 350.547 1.05924L353.205 5.20866Z" fill="#221500" stroke="black" stroke-width="0.5" stroke-miterlimit="10" stroke-linecap="round" stroke-linejoin="round"/>
<path d="M359.821 16.3888V19.2092C359.821 19.5953 359.519 19.8979 359.143 19.8979H356.66C356.337 19.8979 356.034 19.7517 355.825 19.5013L347.031 8.83917C346.77 8.52614 346.624 8.14026 346.624 7.73324V5.66759C346.624 5.41516 346.83 5.20862 347.083 5.20862H354.615C354.868 5.20862 355.074 5.41522 355.074 5.66772V9.34595C355.074 9.91981 355.274 10.4758 355.639 10.9186L359.581 15.7001C359.738 15.8985 359.821 16.1384 359.821 16.3888Z" fill="#5159A3" stroke="black" stroke-width="0.5" stroke-miterlimit="10" stroke-linecap="round" stroke-linejoin="round"/>
<path d="M282.227 2.97424H349.092" stroke="black" stroke-width="0.5" stroke-miterlimit="10" stroke-linecap="round" stroke-linejoin="round"/>
<path d="M3.16382 36.7793L0 44.1145H6.32764L3.16382 36.7793Z" fill="#5159A3"/>
<path d="M118.183 40.4463L112.708 35.9407V44.9519L118.183 40.4463Z" fill="#D92B2B"/>
<path d="M213.367 40.4463L207.892 35.9407V44.9519L213.367 40.4463Z" fill="#D92B2B"/>
<path d="M293.96 40.4463L288.485 35.9407V44.9519L293.96 40.4463Z" fill="#D92B2B"/>
<path d="M358.628 40.4463L353.153 35.9407V44.9519L358.628 40.4463Z" fill="#D92B2B"/>
<path d="M446.357 40.4463L440.882 35.9407V44.9519L446.357 40.4463Z" fill="#D92B2B"/>
<path d="M75.1208 11.1601V15.3814L77.2583 13.2707L75.1208 11.1601ZM79.9963 10.5577H75.7876L77.8919 12.645L79.9963 10.5577ZM88.8108 10.9704H90.1018L88.5035 13.7308V15.3814H87.3686V13.7308L85.7702 10.9704H87.0612L87.936 12.7585L88.8108 10.9704ZM86.0209 12.9825V13.3692C86.0209 14.4804 85.0843 15.3812 83.9764 15.3812H81.9778V10.9704H83.9764C85.0843 10.9704 86.0209 11.8713 86.0209 12.9825ZM84.8748 13.023C84.8748 12.4347 84.3993 11.9578 83.813 11.9578H83.1237V14.3941L83.813 14.3939C84.3993 14.3939 84.875 13.917 84.8748 13.3287V13.023ZM75.9436 15.8368H78.4451C79.4297 15.8368 80.2279 15.0362 80.2279 14.0487V11.5396L75.9436 15.8368Z" fill="white"/>
<path d="M99.65 13.7511L100.116 14.4281V13.7511H100.395V15.0372H100.248L99.7639 14.3586V15.0372H99.4846V13.7511H99.65ZM90.7539 13.7511L91.1043 14.6285L91.4546 13.7511H91.7339V15.0372H91.4546V14.5054L91.2416 15.0372H90.967L90.7539 14.5054V15.0372H90.4746V13.7511H90.7539ZM92.6363 13.7511V14.0304H92.1392V14.2245H92.6363V14.5038H92.1392V14.7579H92.6363V15.0372H91.8599V13.7511H92.6363V13.7511ZM93.9097 14.1204H93.5657C93.5025 14.0652 93.4189 14.0304 93.3274 14.0304C93.1269 14.0304 92.9644 14.193 92.9644 14.395C92.9644 14.5954 93.1269 14.7579 93.3274 14.7579C93.4189 14.7579 93.5025 14.7248 93.5657 14.6679H93.9097C93.8055 14.8857 93.5846 15.0372 93.3274 15.0372C92.9723 15.0372 92.6835 14.75 92.6835 14.395C92.6835 14.0399 92.9723 13.7511 93.3274 13.7511C93.5846 13.7511 93.8055 13.9026 93.9097 14.1204ZM94.9399 13.7511V15.0372H94.6606V14.5038H94.3087V15.0372H94.0293V13.7511H94.3087V14.2245H94.6606V13.7511H94.9399ZM96.1864 15.0372H95.8866L95.8045 14.821H95.4115L95.3279 15.0372H95.0281L95.5252 13.7511H95.6909L96.1864 15.0372ZM95.6072 14.3129L95.5188 14.5417H95.6956L95.6072 14.3129ZM96.6517 14.0304V15.0372H96.3724V14.0304H96.0915V13.7511H96.9311V14.0304H96.6517ZM97.0445 13.7511H97.6031C97.8335 13.7511 98.0229 13.9405 98.0229 14.1709C98.0229 14.3366 97.9235 14.4833 97.7799 14.5496L98.0197 15.0372H97.7089L97.4879 14.5891H97.3238V15.0372H97.0445V13.7511H97.0445ZM97.3238 14.0304V14.3097H97.6031C97.6789 14.3097 97.7436 14.245 97.7436 14.1709C97.7436 14.0936 97.6805 14.0304 97.6031 14.0304H97.3238ZM99.3531 14.395C99.3531 14.75 99.0643 15.0372 98.7092 15.0372C98.3541 15.0372 98.0669 14.75 98.0669 14.395C98.0669 14.0399 98.3541 13.7511 98.7092 13.7511C99.0642 13.7511 99.3531 14.0399 99.3531 14.395ZM98.3462 14.395C98.3462 14.5954 98.5088 14.7579 98.7092 14.7579C98.9096 14.7579 99.0722 14.5954 99.0722 14.395C99.0722 14.193 98.9096 14.0304 98.7092 14.0304C98.5088 14.0304 98.3462 14.193 98.3462 14.395ZM100.808 13.7511V15.0372H100.527V13.7511H100.808ZM102.168 14.1204H101.824C101.761 14.0652 101.677 14.0304 101.585 14.0304C101.385 14.0304 101.223 14.193 101.223 14.395C101.223 14.5954 101.385 14.7579 101.585 14.7579C101.677 14.7579 101.761 14.7248 101.824 14.6679H102.168C102.064 14.8857 101.843 15.0372 101.585 15.0372C101.23 15.0372 100.942 14.75 100.942 14.395C100.942 14.0399 101.23 13.7511 101.585 13.7511C101.843 13.7511 102.064 13.9026 102.168 14.1204ZM102.837 14.2561C102.985 14.3161 103.089 14.4612 103.089 14.6316C103.089 14.8558 102.908 15.0372 102.684 15.0372C102.472 15.0372 102.299 14.8747 102.28 14.6679H102.564C102.579 14.72 102.627 14.7579 102.684 14.7579C102.753 14.7579 102.81 14.7011 102.81 14.6316C102.81 14.5891 102.788 14.5512 102.756 14.5291C102.554 14.4265 102.335 14.3523 102.335 14.1014C102.335 13.9073 102.491 13.7511 102.684 13.7511C102.874 13.7511 103.029 13.9026 103.032 14.092H102.753C102.748 14.0572 102.72 14.0304 102.684 14.0304C102.646 14.0304 102.614 14.062 102.614 14.1014C102.614 14.1267 102.628 14.1503 102.649 14.1614L102.837 14.2561Z" fill="white"/>
<path d="M90.8717 11.6419C91.2232 11.6419 91.512 11.9291 91.512 12.2822C91.512 12.6321 91.2216 12.9209 90.8717 12.9209H90.4746V11.6419H90.8717ZM90.754 12.6431H90.8717C91.0694 12.6431 91.2342 12.4783 91.2342 12.2822C91.2342 12.0828 91.071 11.9196 90.8717 11.9196H90.754V12.6431ZM92.9277 12.2822C92.9277 12.6353 92.6405 12.9209 92.2874 12.9209C91.9343 12.9209 91.6486 12.6352 91.6486 12.2822C91.6486 11.9291 91.9343 11.6419 92.2874 11.6419C92.6405 11.6419 92.9277 11.9291 92.9277 12.2822ZM91.9264 12.2822C91.9264 12.4815 92.0881 12.6431 92.2874 12.6431C92.4867 12.6431 92.6483 12.4815 92.6483 12.2822C92.6483 12.0813 92.4867 11.9196 92.2874 11.9196C92.088 11.9196 91.9264 12.0813 91.9264 12.2822ZM95.3902 12.0436H95.0685C95.0026 11.9683 94.9053 11.9196 94.7954 11.9196C94.5961 11.9196 94.4345 12.0813 94.4345 12.2822C94.4345 12.4815 94.5961 12.6431 94.7954 12.6431C94.8912 12.6431 94.9791 12.6054 95.0434 12.5458H94.7907V12.2665H95.4358C95.4358 12.6274 95.1595 12.9209 94.7954 12.9209C94.4423 12.9209 94.1567 12.6352 94.1567 12.2822C94.1567 11.9291 94.4423 11.6418 94.7954 11.6418C95.0654 11.6419 95.2961 11.8082 95.3902 12.0436ZM95.962 12.9209H95.6842V12.3873L95.3076 11.6419H95.6199L95.8239 12.0452L96.0263 11.6419H96.3386L95.962 12.3873V12.9209ZM97.291 12.9209H96.9928L96.9112 12.7059H96.5204L96.4372 12.9209H96.139L96.6334 11.6419H96.7981L97.291 12.9209ZM96.715 12.2005L96.6271 12.4281H96.8029L96.715 12.2005ZM93.2086 11.6419L93.7271 12.3151V11.6419H94.038V12.9209H93.8737L93.3354 12.2461V12.9209H93.0245V11.6419H93.2086ZM97.5766 11.6419L98.095 12.3151V11.6419H98.4059V12.9209H98.2416L97.7033 12.2461V12.9209H97.3924V11.6419H97.5766ZM99.7409 12.0436H99.4192C99.3533 11.9683 99.256 11.9196 99.1461 11.9196C98.9468 11.9196 98.7852 12.0813 98.7852 12.2822C98.7852 12.4815 98.9468 12.6431 99.1461 12.6431C99.2419 12.6431 99.3297 12.6054 99.3941 12.5458H99.1414V12.2665H99.7865C99.7865 12.6274 99.5102 12.9209 99.1461 12.9209C98.793 12.9209 98.5074 12.6352 98.5074 12.2822C98.5074 11.9291 98.793 11.6418 99.1461 11.6418C99.4161 11.6419 99.6468 11.8082 99.7409 12.0436Z" fill="white"/>
<path d="M75.1208 11.1601V15.3814L77.2583 13.2707L75.1208 11.1601ZM79.9963 10.5577H75.7876L77.8919 12.645L79.9963 10.5577ZM88.8108 10.9704H90.1018L88.5035 13.7308V15.3814H87.3686V13.7308L85.7702 10.9704H87.0612L87.936 12.7585L88.8108 10.9704ZM86.0209 12.9825V13.3692C86.0209 14.4804 85.0843 15.3812 83.9764 15.3812H81.9778V10.9704H83.9764C85.0843 10.9704 86.0209 11.8713 86.0209 12.9825ZM84.8748 13.023C84.8748 12.4347 84.3993 11.9578 83.813 11.9578H83.1237V14.3941L83.813 14.3939C84.3993 14.3939 84.875 13.917 84.8748 13.3287V13.023ZM75.9436 15.8368H78.4451C79.4297 15.8368 80.2279 15.0362 80.2279 14.0487V11.5396L75.9436 15.8368Z" fill="white"/>
<path d="M99.65 13.7511L100.116 14.4281V13.7511H100.395V15.0372H100.248L99.7639 14.3586V15.0372H99.4846V13.7511H99.65ZM90.7539 13.7511L91.1043 14.6285L91.4546 13.7511H91.7339V15.0372H91.4546V14.5054L91.2416 15.0372H90.967L90.7539 14.5054V15.0372H90.4746V13.7511H90.7539ZM92.6363 13.7511V14.0304H92.1392V14.2245H92.6363V14.5038H92.1392V14.7579H92.6363V15.0372H91.8599V13.7511H92.6363V13.7511ZM93.9097 14.1204H93.5657C93.5025 14.0652 93.4189 14.0304 93.3274 14.0304C93.1269 14.0304 92.9644 14.193 92.9644 14.395C92.9644 14.5954 93.1269 14.7579 93.3274 14.7579C93.4189 14.7579 93.5025 14.7248 93.5657 14.6679H93.9097C93.8055 14.8857 93.5846 15.0372 93.3274 15.0372C92.9723 15.0372 92.6835 14.75 92.6835 14.395C92.6835 14.0399 92.9723 13.7511 93.3274 13.7511C93.5846 13.7511 93.8055 13.9026 93.9097 14.1204ZM94.9399 13.7511V15.0372H94.6606V14.5038H94.3087V15.0372H94.0293V13.7511H94.3087V14.2245H94.6606V13.7511H94.9399ZM96.1864 15.0372H95.8866L95.8045 14.821H95.4115L95.3279 15.0372H95.0281L95.5252 13.7511H95.6909L96.1864 15.0372ZM95.6072 14.3129L95.5188 14.5417H95.6956L95.6072 14.3129ZM96.6517 14.0304V15.0372H96.3724V14.0304H96.0915V13.7511H96.9311V14.0304H96.6517ZM97.0445 13.7511H97.6031C97.8335 13.7511 98.0229 13.9405 98.0229 14.1709C98.0229 14.3366 97.9235 14.4833 97.7799 14.5496L98.0197 15.0372H97.7089L97.4879 14.5891H97.3238V15.0372H97.0445V13.7511H97.0445ZM97.3238 14.0304V14.3097H97.6031C97.6789 14.3097 97.7436 14.245 97.7436 14.1709C97.7436 14.0936 97.6805 14.0304 97.6031 14.0304H97.3238ZM99.3531 14.395C99.3531 14.75 99.0643 15.0372 98.7092 15.0372C98.3541 15.0372 98.0669 14.75 98.0669 14.395C98.0669 14.0399 98.3541 13.7511 98.7092 13.7511C99.0642 13.7511 99.3531 14.0399 99.3531 14.395ZM98.3462 14.395C98.3462 14.5954 98.5088 14.7579 98.7092 14.7579C98.9096 14.7579 99.0722 14.5954 99.0722 14.395C99.0722 14.193 98.9096 14.0304 98.7092 14.0304C98.5088 14.0304 98.3462 14.193 98.3462 14.395ZM100.808 13.7511V15.0372H100.527V13.7511H100.808ZM102.168 14.1204H101.824C101.761 14.0652 101.677 14.0304 101.585 14.0304C101.385 14.0304 101.223 14.193 101.223 14.395C101.223 14.5954 101.385 14.7579 101.585 14.7579C101.677 14.7579 101.761 14.7248 101.824 14.6679H102.168C102.064 14.8857 101.843 15.0372 101.585 15.0372C101.23 15.0372 100.942 14.75 100.942 14.395C100.942 14.0399 101.23 13.7511 101.585 13.7511C101.843 13.7511 102.064 13.9026 102.168 14.1204ZM102.837 14.2561C102.985 14.3161 103.089 14.4612 103.089 14.6316C103.089 14.8558 102.908 15.0372 102.684 15.0372C102.472 15.0372 102.299 14.8747 102.28 14.6679H102.564C102.579 14.72 102.627 14.7579 102.684 14.7579C102.753 14.7579 102.81 14.7011 102.81 14.6316C102.81 14.5891 102.788 14.5512 102.756 14.5291C102.554 14.4265 102.335 14.3523 102.335 14.1014C102.335 13.9073 102.491 13.7511 102.684 13.7511C102.874 13.7511 103.029 13.9026 103.032 14.092H102.753C102.748 14.0572 102.72 14.0304 102.684 14.0304C102.646 14.0304 102.614 14.062 102.614 14.1014C102.614 14.1267 102.628 14.1503 102.649 14.1614L102.837 14.2561Z" fill="white"/>
<path d="M90.8717 11.6419C91.2232 11.6419 91.512 11.9291 91.512 12.2822C91.512 12.6321 91.2216 12.9209 90.8717 12.9209H90.4746V11.6419H90.8717ZM90.754 12.6431H90.8717C91.0694 12.6431 91.2342 12.4783 91.2342 12.2822C91.2342 12.0828 91.071 11.9196 90.8717 11.9196H90.754V12.6431ZM92.9277 12.2822C92.9277 12.6353 92.6405 12.9209 92.2874 12.9209C91.9343 12.9209 91.6486 12.6352 91.6486 12.2822C91.6486 11.9291 91.9343 11.6419 92.2874 11.6419C92.6405 11.6419 92.9277 11.9291 92.9277 12.2822ZM91.9264 12.2822C91.9264 12.4815 92.0881 12.6431 92.2874 12.6431C92.4867 12.6431 92.6483 12.4815 92.6483 12.2822C92.6483 12.0813 92.4867 11.9196 92.2874 11.9196C92.088 11.9196 91.9264 12.0813 91.9264 12.2822ZM95.3902 12.0436H95.0685C95.0026 11.9683 94.9053 11.9196 94.7954 11.9196C94.5961 11.9196 94.4345 12.0813 94.4345 12.2822C94.4345 12.4815 94.5961 12.6431 94.7954 12.6431C94.8912 12.6431 94.9791 12.6054 95.0434 12.5458H94.7907V12.2665H95.4358C95.4358 12.6274 95.1595 12.9209 94.7954 12.9209C94.4423 12.9209 94.1567 12.6352 94.1567 12.2822C94.1567 11.9291 94.4423 11.6418 94.7954 11.6418C95.0654 11.6419 95.2961 11.8082 95.3902 12.0436ZM95.962 12.9209H95.6842V12.3873L95.3076 11.6419H95.6199L95.8239 12.0452L96.0263 11.6419H96.3386L95.962 12.3873V12.9209ZM97.291 12.9209H96.9928L96.9112 12.7059H96.5204L96.4372 12.9209H96.139L96.6334 11.6419H96.7981L97.291 12.9209ZM96.715 12.2005L96.6271 12.4281H96.8029L96.715 12.2005ZM93.2086 11.6419L93.7271 12.3151V11.6419H94.038V12.9209H93.8737L93.3354 12.2461V12.9209H93.0245V11.6419H93.2086ZM97.5766 11.6419L98.095 12.3151V11.6419H98.4059V12.9209H98.2416L97.7033 12.2461V12.9209H97.3924V11.6419H97.5766ZM99.7409 12.0436H99.4192C99.3533 11.9683 99.256 11.9196 99.1461 11.9196C98.9468 11.9196 98.7852 12.0813 98.7852 12.2822C98.7852 12.4815 98.9468 12.6431 99.1461 12.6431C99.2419 12.6431 99.3297 12.6054 99.3941 12.5458H99.1414V12.2665H99.7865C99.7865 12.6274 99.5102 12.9209 99.1461 12.9209C98.793 12.9209 98.5074 12.6352 98.5074 12.2822C98.5074 11.9291 98.793 11.6418 99.1461 11.6418C99.4161 11.6419 99.6468 11.8082 99.7409 12.0436Z" fill="white"/>
<path d="M400.195 38.7346C400.611 38.7346 400.961 38.6646 401.245 38.5247C401.528 38.3847 401.756 38.191 401.928 37.9436C402.104 37.693 402.231 37.4 402.309 37.0647C402.387 36.7262 402.431 36.3583 402.441 35.9612C402.359 36.0979 402.265 36.2232 402.158 36.3372C402.053 36.4478 401.939 36.5439 401.816 36.6252C401.692 36.7034 401.56 36.7652 401.42 36.8108C401.28 36.8531 401.134 36.8743 400.981 36.8743C400.698 36.8743 400.449 36.8075 400.234 36.6741C400.022 36.5406 399.845 36.3632 399.702 36.1418C399.558 35.9205 399.451 35.6666 399.379 35.3801C399.308 35.0937 399.272 34.7974 399.272 34.4915C399.272 34.1497 399.313 33.8274 399.394 33.5247C399.475 33.2219 399.592 32.9583 399.745 32.7336C399.898 32.5058 400.087 32.3267 400.312 32.1965C400.536 32.0631 400.794 31.9963 401.083 31.9963C401.406 31.9963 401.686 32.068 401.923 32.2112C402.164 32.3512 402.363 32.5465 402.519 32.7971C402.675 33.0478 402.791 33.3472 402.866 33.6956C402.944 34.0439 402.983 34.4231 402.983 34.8333V35.3948C402.983 35.7431 402.965 36.0816 402.929 36.4104C402.893 36.7359 402.833 37.0419 402.748 37.3284C402.667 37.6148 402.556 37.8769 402.416 38.1145C402.28 38.3489 402.107 38.5507 401.899 38.72C401.694 38.8892 401.45 39.0211 401.166 39.1155C400.886 39.2066 400.563 39.2522 400.195 39.2522H400.092L400.097 38.7346H400.195ZM401.054 36.3616C401.23 36.3616 401.393 36.3274 401.542 36.259C401.692 36.1874 401.826 36.0946 401.943 35.9807C402.06 35.8668 402.161 35.7366 402.245 35.5901C402.33 35.4403 402.397 35.2874 402.446 35.1311V34.7747C402.446 34.4036 402.411 34.078 402.343 33.7981C402.275 33.5149 402.18 33.2789 402.06 33.0901C401.939 32.898 401.796 32.7532 401.63 32.6555C401.464 32.5579 401.284 32.509 401.088 32.509C400.886 32.509 400.706 32.5627 400.546 32.6702C400.39 32.7743 400.257 32.9159 400.146 33.095C400.035 33.274 399.951 33.4823 399.892 33.72C399.833 33.9543 399.804 34.2034 399.804 34.467C399.804 34.7079 399.83 34.9423 399.882 35.1702C399.938 35.398 400.017 35.5999 400.121 35.7756C400.226 35.9514 400.356 36.093 400.512 36.2004C400.668 36.3079 400.849 36.3616 401.054 36.3616ZM404.604 35.5608L404.897 32.094H407.9V32.6506H405.361L405.161 35.0334C405.213 34.9911 405.276 34.9472 405.351 34.9016C405.426 34.8528 405.51 34.8105 405.605 34.7747C405.699 34.7356 405.8 34.7047 405.908 34.6819C406.018 34.6558 406.135 34.6428 406.259 34.6428C406.526 34.6428 406.769 34.6965 406.987 34.804C407.205 34.9081 407.39 35.0595 407.543 35.2581C407.696 35.4566 407.815 35.6975 407.9 35.9807C407.984 36.2639 408.027 36.5829 408.027 36.9377C408.027 37.2795 407.991 37.5953 407.919 37.885C407.848 38.1715 407.739 38.4205 407.592 38.6321C407.446 38.8404 407.259 39.0048 407.031 39.1252C406.806 39.2424 406.537 39.301 406.225 39.301C405.984 39.301 405.758 39.262 405.546 39.1838C405.338 39.1025 405.152 38.9804 404.99 38.8176C404.827 38.6549 404.693 38.4498 404.589 38.2024C404.485 37.955 404.422 37.6653 404.399 37.3333H404.916C404.962 37.8118 405.097 38.1764 405.322 38.427C405.546 38.6744 405.847 38.7981 406.225 38.7981C406.638 38.7981 406.951 38.637 407.162 38.3147C407.377 37.9924 407.485 37.5367 407.485 36.9475C407.485 36.7001 407.455 36.469 407.397 36.2542C407.338 36.0393 407.252 35.8538 407.138 35.6975C407.027 35.538 406.889 35.4143 406.723 35.3264C406.56 35.2353 406.371 35.1897 406.157 35.1897C406.013 35.1897 405.888 35.2027 405.781 35.2288C405.673 35.2515 405.576 35.2857 405.488 35.3313C405.403 35.3736 405.323 35.4257 405.248 35.4875C405.177 35.5494 405.105 35.6194 405.034 35.6975L404.604 35.5608ZM412.763 36.2346C412.763 36.7587 412.721 37.2144 412.636 37.6018C412.555 37.9859 412.434 38.3049 412.275 38.5588C412.119 38.8095 411.926 38.9967 411.699 39.1204C411.471 39.2408 411.212 39.301 410.922 39.301C410.636 39.301 410.379 39.2408 410.151 39.1204C409.923 38.9967 409.729 38.8095 409.57 38.5588C409.41 38.3049 409.286 37.9859 409.199 37.6018C409.114 37.2144 409.072 36.7587 409.072 36.2346V35.0432C409.072 34.5191 409.114 34.0667 409.199 33.6858C409.283 33.3017 409.404 32.9843 409.56 32.7336C409.719 32.483 409.913 32.2974 410.141 32.177C410.369 32.0566 410.626 31.9963 410.912 31.9963C411.199 31.9963 411.456 32.0566 411.684 32.177C411.915 32.2974 412.11 32.483 412.27 32.7336C412.429 32.9843 412.551 33.3017 412.636 33.6858C412.721 34.0667 412.763 34.5191 412.763 35.0432V36.2346ZM412.216 34.9651C412.216 34.1513 412.107 33.5377 411.889 33.1243C411.674 32.7109 411.349 32.5042 410.912 32.5042C410.483 32.5042 410.157 32.7109 409.936 33.1243C409.718 33.5377 409.609 34.1513 409.609 34.9651V36.303C409.609 36.7034 409.636 37.0582 409.692 37.3674C409.75 37.6767 409.833 37.9371 409.941 38.1487C410.051 38.3603 410.188 38.5214 410.351 38.6321C410.517 38.7428 410.707 38.7981 410.922 38.7981C411.14 38.7981 411.329 38.7428 411.489 38.6321C411.651 38.5214 411.786 38.3603 411.894 38.1487C412.001 37.9371 412.081 37.6767 412.133 37.3674C412.189 37.0582 412.216 36.7034 412.216 36.303V34.9651ZM417.553 36.7913H416.904V39.2034H416.357V33.9202H416.904V36.259H417.543L419.145 33.9202H419.819L417.997 36.4739L420.009 39.2034H419.301L417.553 36.7913ZM423.681 34.4329H421.479V39.2034H420.932V33.9202H423.681V34.4329ZM402.934 49.2034H402.392V46.7864H400.068V49.2034H399.521V43.9202H400.068V46.2834H402.392V43.9202H402.934V49.2034ZM407.216 49.2034C407.19 49.1155 407.169 49.0064 407.153 48.8762C407.136 48.7428 407.125 48.6077 407.119 48.4709C407.05 48.5816 406.969 48.6874 406.874 48.7883C406.78 48.886 406.671 48.9739 406.547 49.052C406.427 49.1269 406.292 49.1871 406.142 49.2327C405.992 49.2782 405.831 49.301 405.659 49.301C405.44 49.301 405.242 49.2701 405.063 49.2083C404.887 49.1464 404.736 49.0536 404.609 48.9299C404.482 48.8062 404.384 48.6516 404.316 48.4661C404.247 48.2805 404.213 48.064 404.213 47.8167C404.213 47.5725 404.256 47.3479 404.34 47.1428C404.425 46.9345 404.55 46.7555 404.716 46.6057C404.885 46.456 405.095 46.3388 405.346 46.2542C405.597 46.1695 405.888 46.1272 406.22 46.1272H407.114V45.3899C407.114 45.0123 407.019 44.7421 406.83 44.5793C406.645 44.4133 406.371 44.3303 406.01 44.3303C405.841 44.3303 405.685 44.3564 405.541 44.4084C405.401 44.4605 405.281 44.5338 405.18 44.6282C405.079 44.7193 405.001 44.83 404.946 44.9602C404.89 45.0872 404.863 45.2271 404.863 45.3801L404.321 45.3752C404.321 45.1702 404.361 44.9749 404.443 44.7893C404.524 44.6005 404.64 44.4345 404.789 44.2913C404.939 44.148 405.12 44.0341 405.331 43.9495C405.543 43.8648 405.777 43.8225 406.035 43.8225C406.272 43.8225 406.489 43.8518 406.684 43.9104C406.883 43.9657 407.053 44.0569 407.197 44.1838C407.34 44.3075 407.451 44.4703 407.529 44.6721C407.61 44.8707 407.651 45.1132 407.651 45.3997V48.095C407.651 48.1861 407.654 48.2805 407.661 48.3782C407.667 48.4758 407.675 48.5719 407.685 48.6663C407.698 48.7574 407.713 48.8453 407.729 48.9299C407.748 49.0113 407.77 49.0829 407.792 49.1448V49.2034H407.216ZM405.727 48.7786C405.896 48.7786 406.054 48.7558 406.201 48.7102C406.35 48.6614 406.484 48.5963 406.601 48.5149C406.718 48.4303 406.819 48.3326 406.904 48.2219C406.992 48.1112 407.062 47.9924 407.114 47.8655V46.5813H406.298C405.787 46.5813 405.403 46.6887 405.146 46.9036C404.889 47.1184 404.76 47.4081 404.76 47.7727C404.76 48.121 404.845 48.3765 405.014 48.5393C405.187 48.6988 405.424 48.7786 405.727 48.7786ZM415.073 49.2034H411.303V48.7444L413.256 46.1077C413.439 45.8603 413.592 45.6373 413.715 45.4387C413.842 45.2402 413.943 45.0562 414.018 44.887C414.096 44.7144 414.151 44.5533 414.184 44.4036C414.217 44.2538 414.233 44.1057 414.233 43.9592C414.233 43.7476 414.207 43.5523 414.155 43.3733C414.103 43.1943 414.026 43.0413 413.925 42.9143C413.824 42.7841 413.697 42.6832 413.544 42.6116C413.395 42.54 413.222 42.5042 413.027 42.5042C412.822 42.5042 412.638 42.5448 412.475 42.6262C412.312 42.7076 412.174 42.8215 412.06 42.968C411.949 43.1145 411.863 43.2887 411.801 43.4905C411.743 43.689 411.713 43.9071 411.713 44.1448H411.171C411.171 43.8518 411.214 43.5751 411.298 43.3147C411.383 43.0543 411.503 42.8264 411.66 42.6311C411.819 42.4358 412.013 42.2812 412.241 42.1672C412.472 42.0533 412.734 41.9963 413.027 41.9963C413.297 41.9963 413.541 42.0403 413.759 42.1282C413.977 42.2161 414.161 42.3414 414.311 42.5042C414.464 42.6669 414.581 42.8671 414.662 43.1047C414.744 43.3424 414.785 43.6093 414.785 43.9055C414.785 44.1204 414.752 44.3368 414.687 44.5549C414.622 44.7698 414.536 44.9846 414.428 45.1995C414.321 45.4143 414.195 45.6275 414.052 45.8391C413.912 46.0507 413.767 46.259 413.618 46.4641L411.962 48.7004H415.073V49.2034ZM419.794 46.2346C419.794 46.7587 419.752 47.2144 419.667 47.6018C419.586 47.9859 419.466 48.3049 419.306 48.5588C419.15 48.8095 418.958 48.9967 418.73 49.1204C418.502 49.2408 418.243 49.301 417.953 49.301C417.667 49.301 417.41 49.2408 417.182 49.1204C416.954 48.9967 416.76 48.8095 416.601 48.5588C416.441 48.3049 416.318 47.9859 416.23 47.6018C416.145 47.2144 416.103 46.7587 416.103 46.2346V45.0432C416.103 44.5191 416.145 44.0667 416.23 43.6858C416.314 43.3017 416.435 42.9843 416.591 42.7336C416.751 42.483 416.944 42.2974 417.172 42.177C417.4 42.0566 417.657 41.9963 417.944 41.9963C418.23 41.9963 418.487 42.0566 418.715 42.177C418.946 42.2974 419.142 42.483 419.301 42.7336C419.461 42.9843 419.583 43.3017 419.667 43.6858C419.752 44.0667 419.794 44.5191 419.794 45.0432V46.2346ZM419.247 44.9651C419.247 44.1513 419.138 43.5377 418.92 43.1243C418.705 42.7109 418.38 42.5042 417.944 42.5042C417.514 42.5042 417.189 42.7109 416.967 43.1243C416.749 43.5377 416.64 44.1513 416.64 44.9651V46.303C416.64 46.7034 416.668 47.0582 416.723 47.3674C416.782 47.6767 416.865 47.9371 416.972 48.1487C417.083 48.3603 417.219 48.5214 417.382 48.6321C417.548 48.7428 417.739 48.7981 417.953 48.7981C418.172 48.7981 418.36 48.7428 418.52 48.6321C418.683 48.5214 418.818 48.3603 418.925 48.1487C419.033 47.9371 419.112 47.6767 419.164 47.3674C419.22 47.0582 419.247 46.7034 419.247 46.303V44.9651ZM421.703 48.9641C421.703 49.1106 421.687 49.2571 421.655 49.4036C421.625 49.55 421.581 49.69 421.523 49.8235C421.464 49.9602 421.393 50.0888 421.308 50.2092C421.223 50.3297 421.127 50.4387 421.02 50.5364L420.673 50.2776C420.823 50.0758 420.937 49.8723 421.015 49.6672C421.093 49.4622 421.132 49.231 421.132 48.9739V48.2756H421.703V48.9641ZM426.713 49.2034H422.944V48.7444L424.897 46.1077C425.079 45.8603 425.232 45.6373 425.356 45.4387C425.483 45.2402 425.584 45.0562 425.659 44.887C425.737 44.7144 425.792 44.5533 425.825 44.4036C425.857 44.2538 425.873 44.1057 425.873 43.9592C425.873 43.7476 425.847 43.5523 425.795 43.3733C425.743 43.1943 425.667 43.0413 425.566 42.9143C425.465 42.7841 425.338 42.6832 425.185 42.6116C425.035 42.54 424.863 42.5042 424.667 42.5042C424.462 42.5042 424.278 42.5448 424.116 42.6262C423.953 42.7076 423.814 42.8215 423.701 42.968C423.59 43.1145 423.504 43.2887 423.442 43.4905C423.383 43.689 423.354 43.9071 423.354 44.1448H422.812C422.812 43.8518 422.854 43.5751 422.939 43.3147C423.023 43.0543 423.144 42.8264 423.3 42.6311C423.46 42.4358 423.653 42.2812 423.881 42.1672C424.112 42.0533 424.374 41.9963 424.667 41.9963C424.938 41.9963 425.182 42.0403 425.4 42.1282C425.618 42.2161 425.802 42.3414 425.952 42.5042C426.105 42.6669 426.222 42.8671 426.303 43.1047C426.384 43.3424 426.425 43.6093 426.425 43.9055C426.425 44.1204 426.393 44.3368 426.328 44.5549C426.262 44.7698 426.176 44.9846 426.069 45.1995C425.961 45.4143 425.836 45.6275 425.693 45.8391C425.553 46.0507 425.408 46.259 425.258 46.4641L423.603 48.7004H426.713V49.2034ZM430.356 48.3977L432.075 43.9202H432.744V49.2034H432.202V44.9602L430.546 49.2034H430.165L428.476 44.8528V49.2034H427.939V43.9202H428.647L430.356 48.3977Z" fill="black"/>
<path d="M316.249 39.2034H315.702V32.8118L314.096 33.5295V32.9729L316.156 32.0696H316.249V39.2034ZM322.558 39.2034H318.788V38.7444L320.741 36.1077C320.924 35.8603 321.076 35.6373 321.2 35.4387C321.327 35.2402 321.428 35.0562 321.503 34.887C321.581 34.7144 321.636 34.5533 321.669 34.4036C321.701 34.2538 321.718 34.1057 321.718 33.9592C321.718 33.7476 321.692 33.5523 321.64 33.3733C321.588 33.1943 321.511 33.0413 321.41 32.9143C321.309 32.7841 321.182 32.6832 321.029 32.6116C320.88 32.54 320.707 32.5042 320.512 32.5042C320.307 32.5042 320.123 32.5448 319.96 32.6262C319.797 32.7076 319.659 32.8215 319.545 32.968C319.434 33.1145 319.348 33.2887 319.286 33.4905C319.228 33.689 319.198 33.9071 319.198 34.1448H318.656C318.656 33.8518 318.699 33.5751 318.783 33.3147C318.868 33.0543 318.988 32.8264 319.145 32.6311C319.304 32.4358 319.498 32.2812 319.726 32.1672C319.957 32.0533 320.219 31.9963 320.512 31.9963C320.782 31.9963 321.026 32.0403 321.244 32.1282C321.462 32.2161 321.646 32.3414 321.796 32.5042C321.949 32.6669 322.066 32.8671 322.147 33.1047C322.229 33.3424 322.27 33.6093 322.27 33.9055C322.27 34.1204 322.237 34.3368 322.172 34.5549C322.107 34.7698 322.021 34.9846 321.913 35.1995C321.806 35.4143 321.68 35.6275 321.537 35.8391C321.397 36.0507 321.252 36.259 321.103 36.4641L319.447 38.7004H322.558V39.2034ZM323.983 35.5608L324.276 32.094H327.279V32.6506H324.74L324.54 35.0334C324.592 34.9911 324.656 34.9472 324.73 34.9016C324.805 34.8528 324.89 34.8105 324.984 34.7747C325.079 34.7356 325.18 34.7047 325.287 34.6819C325.398 34.6558 325.515 34.6428 325.639 34.6428C325.906 34.6428 326.148 34.6965 326.366 34.804C326.584 34.9081 326.77 35.0595 326.923 35.2581C327.076 35.4566 327.195 35.6975 327.279 35.9807C327.364 36.2639 327.406 36.5829 327.406 36.9377C327.406 37.2795 327.37 37.5953 327.299 37.885C327.227 38.1715 327.118 38.4205 326.972 38.6321C326.825 38.8404 326.638 39.0048 326.41 39.1252C326.186 39.2424 325.917 39.301 325.604 39.301C325.364 39.301 325.137 39.262 324.926 39.1838C324.717 39.1025 324.532 38.9804 324.369 38.8176C324.206 38.6549 324.073 38.4498 323.969 38.2024C323.865 37.955 323.801 37.6653 323.778 37.3333H324.296C324.341 37.8118 324.477 38.1764 324.701 38.427C324.926 38.6744 325.227 38.7981 325.604 38.7981C326.018 38.7981 326.33 38.637 326.542 38.3147C326.757 37.9924 326.864 37.5367 326.864 36.9475C326.864 36.7001 326.835 36.469 326.776 36.2542C326.718 36.0393 326.632 35.8538 326.518 35.6975C326.407 35.538 326.269 35.4143 326.103 35.3264C325.94 35.2353 325.751 35.1897 325.536 35.1897C325.393 35.1897 325.268 35.2027 325.16 35.2288C325.053 35.2515 324.955 35.2857 324.867 35.3313C324.783 35.3736 324.703 35.4257 324.628 35.4875C324.556 35.5494 324.485 35.6194 324.413 35.6975L323.983 35.5608ZM332.143 36.2346C332.143 36.7587 332.1 37.2144 332.016 37.6018C331.934 37.9859 331.814 38.3049 331.654 38.5588C331.498 38.8095 331.306 38.9967 331.078 39.1204C330.85 39.2408 330.591 39.301 330.302 39.301C330.015 39.301 329.758 39.2408 329.53 39.1204C329.302 38.9967 329.109 38.8095 328.949 38.5588C328.79 38.3049 328.666 37.9859 328.578 37.6018C328.493 37.2144 328.451 36.7587 328.451 36.2346V35.0432C328.451 34.5191 328.493 34.0667 328.578 33.6858C328.663 33.3017 328.783 32.9843 328.939 32.7336C329.099 32.483 329.293 32.2974 329.521 32.177C329.748 32.0566 330.006 31.9963 330.292 31.9963C330.578 31.9963 330.836 32.0566 331.063 32.177C331.295 32.2974 331.49 32.483 331.649 32.7336C331.809 32.9843 331.931 33.3017 332.016 33.6858C332.1 34.0667 332.143 34.5191 332.143 35.0432V36.2346ZM331.596 34.9651C331.596 34.1513 331.487 33.5377 331.269 33.1243C331.054 32.7109 330.728 32.5042 330.292 32.5042C329.862 32.5042 329.537 32.7109 329.315 33.1243C329.097 33.5377 328.988 34.1513 328.988 34.9651V36.303C328.988 36.7034 329.016 37.0582 329.071 37.3674C329.13 37.6767 329.213 37.9371 329.32 38.1487C329.431 38.3603 329.568 38.5214 329.73 38.6321C329.896 38.7428 330.087 38.7981 330.302 38.7981C330.52 38.7981 330.709 38.7428 330.868 38.6321C331.031 38.5214 331.166 38.3603 331.273 38.1487C331.381 37.9371 331.461 37.6767 331.513 37.3674C331.568 37.0582 331.596 36.7034 331.596 36.303V34.9651ZM336.933 36.7913H336.283V39.2034H335.736V33.9202H336.283V36.259H336.923L338.524 33.9202H339.198L337.377 36.4739L339.389 39.2034H338.681L336.933 36.7913ZM343.061 34.4329H340.858V39.2034H340.312V33.9202H343.061V34.4329ZM317.45 49.2034H316.908V46.7864H314.584V49.2034H314.037V43.9202H314.584V46.2834H316.908V43.9202H317.45V49.2034ZM321.732 49.2034C321.706 49.1155 321.685 49.0064 321.669 48.8762C321.653 48.7428 321.641 48.6077 321.635 48.4709C321.566 48.5816 321.485 48.6874 321.391 48.7883C321.296 48.886 321.187 48.9739 321.063 49.052C320.943 49.1269 320.808 49.1871 320.658 49.2327C320.508 49.2782 320.347 49.301 320.175 49.301C319.957 49.301 319.758 49.2701 319.579 49.2083C319.403 49.1464 319.252 49.0536 319.125 48.9299C318.998 48.8062 318.9 48.6516 318.832 48.4661C318.764 48.2805 318.729 48.064 318.729 47.8167C318.729 47.5725 318.772 47.3479 318.856 47.1428C318.941 46.9345 319.066 46.7555 319.232 46.6057C319.402 46.456 319.612 46.3388 319.862 46.2542C320.113 46.1695 320.404 46.1272 320.736 46.1272H321.63V45.3899C321.63 45.0123 321.535 44.7421 321.347 44.5793C321.161 44.4133 320.888 44.3303 320.526 44.3303C320.357 44.3303 320.201 44.3564 320.058 44.4084C319.918 44.4605 319.797 44.5338 319.696 44.6282C319.595 44.7193 319.517 44.83 319.462 44.9602C319.407 45.0872 319.379 45.2271 319.379 45.3801L318.837 45.3752C318.837 45.1702 318.878 44.9749 318.959 44.7893C319.04 44.6005 319.156 44.4345 319.306 44.2913C319.455 44.148 319.636 44.0341 319.848 43.9495C320.059 43.8648 320.294 43.8225 320.551 43.8225C320.788 43.8225 321.005 43.8518 321.2 43.9104C321.399 43.9657 321.57 44.0569 321.713 44.1838C321.856 44.3075 321.967 44.4703 322.045 44.6721C322.126 44.8707 322.167 45.1132 322.167 45.3997V48.095C322.167 48.1861 322.17 48.2805 322.177 48.3782C322.183 48.4758 322.191 48.5719 322.201 48.6663C322.214 48.7574 322.229 48.8453 322.245 48.9299C322.265 49.0113 322.286 49.0829 322.309 49.1448V49.2034H321.732ZM320.243 48.7786C320.412 48.7786 320.57 48.7558 320.717 48.7102C320.867 48.6614 321 48.5963 321.117 48.5149C321.234 48.4303 321.335 48.3326 321.42 48.2219C321.508 48.1112 321.578 47.9924 321.63 47.8655V46.5813H320.814C320.303 46.5813 319.919 46.6887 319.662 46.9036C319.405 47.1184 319.276 47.4081 319.276 47.7727C319.276 48.121 319.361 48.3765 319.53 48.5393C319.703 48.6988 319.94 48.7786 320.243 48.7786ZM328.144 49.2034H327.597V42.8118L325.99 43.5295V42.9729L328.051 42.0696H328.144V49.2034ZM333.593 42.0452V42.5676H333.52C333.161 42.5676 332.844 42.6327 332.567 42.7629C332.291 42.8899 332.056 43.0754 331.864 43.3196C331.672 43.5605 331.521 43.8534 331.41 44.1985C331.303 44.5435 331.238 44.9309 331.215 45.3606C331.381 45.0969 331.588 44.8935 331.835 44.7502C332.082 44.607 332.357 44.5354 332.66 44.5354C332.947 44.5354 333.197 44.5989 333.412 44.7258C333.63 44.8528 333.809 45.0237 333.949 45.2385C334.092 45.4501 334.2 45.6975 334.271 45.9807C334.343 46.2639 334.379 46.5618 334.379 46.8743C334.379 47.2161 334.338 47.5351 334.257 47.8313C334.175 48.1275 334.058 48.3847 333.905 48.6028C333.752 48.8176 333.565 48.9885 333.344 49.1155C333.126 49.2392 332.877 49.301 332.597 49.301C332.291 49.301 332.017 49.2327 331.776 49.0959C331.539 48.956 331.337 48.7672 331.171 48.5295C331.005 48.2919 330.878 48.0152 330.79 47.6995C330.705 47.3837 330.663 47.0468 330.663 46.6887V46.0686C330.663 45.4664 330.717 44.9179 330.824 44.4231C330.935 43.9283 331.106 43.5051 331.337 43.1536C331.571 42.802 331.868 42.5302 332.226 42.3381C332.587 42.1428 333.018 42.0452 333.52 42.0452H333.593ZM332.572 45.0481C332.416 45.0481 332.265 45.0774 332.118 45.136C331.972 45.1946 331.837 45.276 331.713 45.3801C331.592 45.4843 331.488 45.608 331.4 45.7512C331.312 45.8912 331.247 46.0442 331.205 46.2102V46.6985C331.205 47.0273 331.241 47.3219 331.312 47.5823C331.387 47.8394 331.487 48.0575 331.61 48.2366C331.737 48.4156 331.885 48.554 332.055 48.6516C332.224 48.746 332.405 48.7932 332.597 48.7932C332.792 48.7932 332.966 48.7444 333.119 48.6467C333.275 48.5458 333.407 48.4107 333.515 48.2415C333.622 48.0689 333.703 47.8671 333.759 47.636C333.817 47.4049 333.847 47.1591 333.847 46.8987C333.847 46.6513 333.821 46.4153 333.769 46.1907C333.716 45.9661 333.637 45.7691 333.529 45.5999C333.425 45.4306 333.293 45.2971 333.134 45.1995C332.974 45.0986 332.787 45.0481 332.572 45.0481ZM336.22 48.9641C336.22 49.1106 336.203 49.2571 336.171 49.4036C336.142 49.55 336.098 49.69 336.039 49.8235C335.98 49.9602 335.909 50.0888 335.824 50.2092C335.74 50.3297 335.644 50.4387 335.536 50.5364L335.189 50.2776C335.339 50.0758 335.453 49.8723 335.531 49.6672C335.609 49.4622 335.648 49.231 335.648 48.9739V48.2756H336.22V48.9641ZM337.792 45.5608L338.085 42.094H341.088V42.6506H338.549L338.349 45.0334C338.401 44.9911 338.464 44.9472 338.539 44.9016C338.614 44.8528 338.699 44.8105 338.793 44.7747C338.887 44.7356 338.988 44.7047 339.096 44.6819C339.206 44.6558 339.324 44.6428 339.447 44.6428C339.714 44.6428 339.957 44.6965 340.175 44.804C340.393 44.9081 340.578 45.0595 340.731 45.2581C340.884 45.4566 341.003 45.6975 341.088 45.9807C341.173 46.2639 341.215 46.5829 341.215 46.9377C341.215 47.2795 341.179 47.5953 341.107 47.885C341.036 48.1715 340.927 48.4205 340.78 48.6321C340.634 48.8404 340.447 49.0048 340.219 49.1252C339.994 49.2424 339.726 49.301 339.413 49.301C339.172 49.301 338.946 49.262 338.734 49.1838C338.526 49.1025 338.34 48.9804 338.178 48.8176C338.015 48.6549 337.882 48.4498 337.777 48.2024C337.673 47.955 337.61 47.6653 337.587 47.3333H338.104C338.15 47.8118 338.285 48.1764 338.51 48.427C338.734 48.6744 339.035 48.7981 339.413 48.7981C339.826 48.7981 340.139 48.637 340.351 48.3147C340.565 47.9924 340.673 47.5367 340.673 46.9475C340.673 46.7001 340.644 46.469 340.585 46.2542C340.526 46.0393 340.44 45.8538 340.326 45.6975C340.215 45.538 340.077 45.4143 339.911 45.3264C339.748 45.2353 339.56 45.1897 339.345 45.1897C339.201 45.1897 339.076 45.2027 338.969 45.2288C338.861 45.2515 338.764 45.2857 338.676 45.3313C338.591 45.3736 338.511 45.4257 338.437 45.4875C338.365 45.5494 338.293 45.6194 338.222 45.6975L337.792 45.5608ZM344.872 48.3977L346.591 43.9202H347.26V49.2034H346.718V44.9602L345.062 49.2034H344.682L342.992 44.8528V49.2034H342.455V43.9202H343.163L344.872 48.3977Z" fill="black"/>
<path d="M250.867 39.2034H250.32V32.8118L248.714 33.5295V32.9729L250.774 32.0696H250.867V39.2034ZM257.117 32.4358L254.578 39.2034H254.011L256.536 32.6018H253.172V32.094H257.117V32.4358ZM261.897 36.2346C261.897 36.7587 261.855 37.2144 261.77 37.6018C261.689 37.9859 261.568 38.3049 261.409 38.5588C261.253 38.8095 261.061 38.9967 260.833 39.1204C260.605 39.2408 260.346 39.301 260.056 39.301C259.77 39.301 259.513 39.2408 259.285 39.1204C259.057 38.9967 258.863 38.8095 258.704 38.5588C258.544 38.3049 258.421 37.9859 258.333 37.6018C258.248 37.2144 258.206 36.7587 258.206 36.2346V35.0432C258.206 34.5191 258.248 34.0667 258.333 33.6858C258.417 33.3017 258.538 32.9843 258.694 32.7336C258.853 32.483 259.047 32.2974 259.275 32.177C259.503 32.0566 259.76 31.9963 260.047 31.9963C260.333 31.9963 260.59 32.0566 260.818 32.177C261.049 32.2974 261.244 32.483 261.404 32.7336C261.563 32.9843 261.686 33.3017 261.77 33.6858C261.855 34.0667 261.897 34.5191 261.897 35.0432V36.2346ZM261.35 34.9651C261.35 34.1513 261.241 33.5377 261.023 33.1243C260.808 32.7109 260.483 32.5042 260.047 32.5042C259.617 32.5042 259.291 32.7109 259.07 33.1243C258.852 33.5377 258.743 34.1513 258.743 34.9651V36.303C258.743 36.7034 258.77 37.0582 258.826 37.3674C258.884 37.6767 258.967 37.9371 259.075 38.1487C259.186 38.3603 259.322 38.5214 259.485 38.6321C259.651 38.7428 259.841 38.7981 260.056 38.7981C260.274 38.7981 260.463 38.7428 260.623 38.6321C260.785 38.5214 260.921 38.3603 261.028 38.1487C261.135 37.9371 261.215 37.6767 261.267 37.3674C261.323 37.0582 261.35 36.7034 261.35 36.303V34.9651ZM266.76 36.2346C266.76 36.7587 266.718 37.2144 266.633 37.6018C266.552 37.9859 266.432 38.3049 266.272 38.5588C266.116 38.8095 265.924 38.9967 265.696 39.1204C265.468 39.2408 265.209 39.301 264.92 39.301C264.633 39.301 264.376 39.2408 264.148 39.1204C263.92 38.9967 263.727 38.8095 263.567 38.5588C263.408 38.3049 263.284 37.9859 263.196 37.6018C263.111 37.2144 263.069 36.7587 263.069 36.2346V35.0432C263.069 34.5191 263.111 34.0667 263.196 33.6858C263.281 33.3017 263.401 32.9843 263.557 32.7336C263.717 32.483 263.91 32.2974 264.138 32.177C264.366 32.0566 264.623 31.9963 264.91 31.9963C265.196 31.9963 265.453 32.0566 265.681 32.177C265.912 32.2974 266.108 32.483 266.267 32.7336C266.427 32.9843 266.549 33.3017 266.633 33.6858C266.718 34.0667 266.76 34.5191 266.76 35.0432V36.2346ZM266.214 34.9651C266.214 34.1513 266.104 33.5377 265.886 33.1243C265.672 32.7109 265.346 32.5042 264.91 32.5042C264.48 32.5042 264.155 32.7109 263.933 33.1243C263.715 33.5377 263.606 34.1513 263.606 34.9651V36.303C263.606 36.7034 263.634 37.0582 263.689 37.3674C263.748 37.6767 263.831 37.9371 263.938 38.1487C264.049 38.3603 264.186 38.5214 264.348 38.6321C264.514 38.7428 264.705 38.7981 264.92 38.7981C265.138 38.7981 265.326 38.7428 265.486 38.6321C265.649 38.5214 265.784 38.3603 265.891 38.1487C265.999 37.9371 266.078 37.6767 266.13 37.3674C266.186 37.0582 266.214 36.7034 266.214 36.303V34.9651ZM271.55 36.7913H270.901V39.2034H270.354V33.9202H270.901V36.259H271.541L273.142 33.9202H273.816L271.995 36.4739L274.006 39.2034H273.298L271.55 36.7913ZM277.678 34.4329H275.476V39.2034H274.929V33.9202H277.678V34.4329ZM252.068 49.2034H251.526V46.7864H249.202V49.2034H248.655V43.9202H249.202V46.2834H251.526V43.9202H252.068V49.2034ZM256.35 49.2034C256.324 49.1155 256.303 49.0064 256.287 48.8762C256.27 48.7428 256.259 48.6077 256.253 48.4709C256.184 48.5816 256.103 48.6874 256.008 48.7883C255.914 48.886 255.805 48.9739 255.681 49.052C255.561 49.1269 255.426 49.1871 255.276 49.2327C255.126 49.2782 254.965 49.301 254.793 49.301C254.575 49.301 254.376 49.2701 254.197 49.2083C254.021 49.1464 253.87 49.0536 253.743 48.9299C253.616 48.8062 253.518 48.6516 253.45 48.4661C253.381 48.2805 253.347 48.064 253.347 47.8167C253.347 47.5725 253.39 47.3479 253.474 47.1428C253.559 46.9345 253.684 46.7555 253.85 46.6057C254.019 46.456 254.229 46.3388 254.48 46.2542C254.731 46.1695 255.022 46.1272 255.354 46.1272H256.248V45.3899C256.248 45.0123 256.153 44.7421 255.964 44.5793C255.779 44.4133 255.505 44.3303 255.144 44.3303C254.975 44.3303 254.819 44.3564 254.675 44.4084C254.535 44.4605 254.415 44.5338 254.314 44.6282C254.213 44.7193 254.135 44.83 254.08 44.9602C254.024 45.0872 253.997 45.2271 253.997 45.3801L253.455 45.3752C253.455 45.1702 253.495 44.9749 253.577 44.7893C253.658 44.6005 253.774 44.4345 253.923 44.2913C254.073 44.148 254.254 44.0341 254.465 43.9495C254.677 43.8648 254.911 43.8225 255.169 43.8225C255.406 43.8225 255.623 43.8518 255.818 43.9104C256.017 43.9657 256.187 44.0569 256.331 44.1838C256.474 44.3075 256.585 44.4703 256.663 44.6721C256.744 44.8707 256.785 45.1132 256.785 45.3997V48.095C256.785 48.1861 256.788 48.2805 256.795 48.3782C256.801 48.4758 256.809 48.5719 256.819 48.6663C256.832 48.7574 256.847 48.8453 256.863 48.9299C256.882 49.0113 256.904 49.0829 256.926 49.1448V49.2034H256.35ZM254.861 48.7786C255.03 48.7786 255.188 48.7558 255.335 48.7102C255.484 48.6614 255.618 48.5963 255.735 48.5149C255.852 48.4303 255.953 48.3326 256.038 48.2219C256.126 48.1112 256.196 47.9924 256.248 47.8655V46.5813H255.432C254.921 46.5813 254.537 46.6887 254.28 46.9036C254.023 47.1184 253.894 47.4081 253.894 47.7727C253.894 48.121 253.979 48.3765 254.148 48.5393C254.321 48.6988 254.558 48.7786 254.861 48.7786ZM262.761 49.2034H262.214V42.8118L260.608 43.5295V42.9729L262.669 42.0696H262.761V49.2034ZM269.07 49.2034H265.3V48.7444L267.254 46.1077C267.436 45.8603 267.589 45.6373 267.713 45.4387C267.839 45.2402 267.94 45.0562 268.015 44.887C268.093 44.7144 268.149 44.5533 268.181 44.4036C268.214 44.2538 268.23 44.1057 268.23 43.9592C268.23 43.7476 268.204 43.5523 268.152 43.3733C268.1 43.1943 268.023 43.0413 267.922 42.9143C267.822 42.7841 267.695 42.6832 267.542 42.6116C267.392 42.54 267.219 42.5042 267.024 42.5042C266.819 42.5042 266.635 42.5448 266.472 42.6262C266.31 42.7076 266.171 42.8215 266.057 42.968C265.947 43.1145 265.86 43.2887 265.798 43.4905C265.74 43.689 265.711 43.9071 265.711 44.1448H265.169C265.169 43.8518 265.211 43.5751 265.296 43.3147C265.38 43.0543 265.501 42.8264 265.657 42.6311C265.816 42.4358 266.01 42.2812 266.238 42.1672C266.469 42.0533 266.731 41.9963 267.024 41.9963C267.294 41.9963 267.538 42.0403 267.756 42.1282C267.975 42.2161 268.158 42.3414 268.308 42.5042C268.461 42.6669 268.578 42.8671 268.66 43.1047C268.741 43.3424 268.782 43.6093 268.782 43.9055C268.782 44.1204 268.749 44.3368 268.684 44.5549C268.619 44.7698 268.533 44.9846 268.425 45.1995C268.318 45.4143 268.193 45.6275 268.049 45.8391C267.909 46.0507 267.765 46.259 267.615 46.4641L265.96 48.7004H269.07V49.2034ZM270.838 48.9641C270.838 49.1106 270.821 49.2571 270.789 49.4036C270.759 49.55 270.715 49.69 270.657 49.8235C270.598 49.9602 270.527 50.0888 270.442 50.2092C270.357 50.3297 270.261 50.4387 270.154 50.5364L269.807 50.2776C269.957 50.0758 270.071 49.8723 270.149 49.6672C270.227 49.4622 270.266 49.231 270.266 48.9739V48.2756H270.838V48.9641ZM275.613 43.925C275.613 44.1106 275.589 44.288 275.54 44.4573C275.494 44.6233 275.429 44.7763 275.344 44.9163C275.26 45.053 275.157 45.1767 275.037 45.2874C274.92 45.3948 274.788 45.4843 274.641 45.5559C274.811 45.6275 274.964 45.7203 275.1 45.8342C275.24 45.9482 275.359 46.0816 275.457 46.2346C275.558 46.3844 275.634 46.5504 275.686 46.7327C275.741 46.915 275.769 47.1103 275.769 47.3186C275.769 47.6409 275.719 47.9257 275.618 48.1731C275.52 48.4205 275.385 48.6288 275.213 48.7981C275.043 48.9641 274.843 49.0894 274.612 49.1741C274.381 49.2587 274.133 49.301 273.87 49.301C273.6 49.301 273.349 49.2587 273.118 49.1741C272.887 49.0894 272.685 48.9641 272.512 48.7981C272.343 48.6288 272.21 48.4205 272.112 48.1731C272.014 47.9257 271.965 47.6409 271.965 47.3186C271.965 47.1103 271.991 46.915 272.044 46.7327C272.096 46.5504 272.171 46.3844 272.268 46.2346C272.366 46.0816 272.483 45.9482 272.62 45.8342C272.756 45.7203 272.908 45.6275 273.074 45.5559C272.927 45.4843 272.794 45.3948 272.673 45.2874C272.556 45.1767 272.455 45.053 272.371 44.9163C272.289 44.7763 272.226 44.6233 272.18 44.4573C272.135 44.288 272.112 44.1106 272.112 43.925C272.112 43.6158 272.156 43.3424 272.244 43.1047C272.332 42.8639 272.454 42.662 272.61 42.4993C272.766 42.3333 272.95 42.2079 273.162 42.1233C273.377 42.0387 273.609 41.9963 273.86 41.9963C274.107 41.9963 274.339 42.0387 274.553 42.1233C274.768 42.2079 274.954 42.3333 275.11 42.4993C275.266 42.662 275.388 42.8639 275.476 43.1047C275.567 43.3424 275.613 43.6158 275.613 43.925ZM275.222 47.3186C275.222 47.094 275.188 46.8889 275.12 46.7034C275.051 46.5178 274.955 46.3599 274.832 46.2297C274.711 46.0963 274.568 45.9937 274.402 45.9221C274.236 45.8472 274.055 45.8098 273.86 45.8098C273.661 45.8098 273.479 45.8472 273.313 45.9221C273.147 45.9937 273.004 46.0963 272.883 46.2297C272.763 46.3599 272.669 46.5178 272.6 46.7034C272.535 46.8889 272.503 47.094 272.503 47.3186C272.503 47.553 272.535 47.7629 272.6 47.9485C272.669 48.1308 272.763 48.2854 272.883 48.4124C273.004 48.5393 273.147 48.6353 273.313 48.7004C273.482 48.7655 273.668 48.7981 273.87 48.7981C274.068 48.7981 274.249 48.7655 274.412 48.7004C274.578 48.6353 274.721 48.5393 274.841 48.4124C274.962 48.2854 275.055 48.1308 275.12 47.9485C275.188 47.7629 275.222 47.553 275.222 47.3186ZM275.071 43.9202C275.071 43.7151 275.04 43.5263 274.978 43.3538C274.916 43.178 274.832 43.0282 274.724 42.9045C274.617 42.7776 274.488 42.6799 274.339 42.6116C274.192 42.54 274.033 42.5042 273.86 42.5042C273.684 42.5042 273.523 42.5367 273.377 42.6018C273.23 42.6669 273.103 42.7613 272.996 42.885C272.892 43.0055 272.809 43.1536 272.747 43.3293C272.688 43.5051 272.659 43.7021 272.659 43.9202C272.659 44.1318 272.688 44.3238 272.747 44.4963C272.805 44.6656 272.888 44.8105 272.996 44.9309C273.103 45.0481 273.23 45.1392 273.377 45.2043C273.526 45.2694 273.689 45.302 273.865 45.302C274.037 45.302 274.197 45.2694 274.343 45.2043C274.493 45.1392 274.622 45.0481 274.729 44.9309C274.837 44.8105 274.92 44.6656 274.978 44.4963C275.04 44.3238 275.071 44.1318 275.071 43.9202ZM279.49 48.3977L281.209 43.9202H281.878V49.2034H281.336V44.9602L279.68 49.2034H279.299L277.61 44.8528V49.2034H277.073V43.9202H277.781L279.49 48.3977Z" fill="black"/>
<path d="M176.686 39.2034H172.916V38.7444L174.869 36.1077C175.052 35.8603 175.205 35.6373 175.328 35.4387C175.455 35.2402 175.556 35.0562 175.631 34.887C175.709 34.7144 175.764 34.5533 175.797 34.4036C175.83 34.2538 175.846 34.1057 175.846 33.9592C175.846 33.7476 175.82 33.5523 175.768 33.3733C175.716 33.1943 175.639 33.0413 175.538 32.9143C175.437 32.7841 175.31 32.6832 175.157 32.6116C175.008 32.54 174.835 32.5042 174.64 32.5042C174.435 32.5042 174.251 32.5448 174.088 32.6262C173.925 32.7076 173.787 32.8215 173.673 32.968C173.562 33.1145 173.476 33.2887 173.414 33.4905C173.356 33.689 173.326 33.9071 173.326 34.1448H172.784C172.784 33.8518 172.827 33.5751 172.911 33.3147C172.996 33.0543 173.116 32.8264 173.273 32.6311C173.432 32.4358 173.626 32.2812 173.854 32.1672C174.085 32.0533 174.347 31.9963 174.64 31.9963C174.91 31.9963 175.154 32.0403 175.372 32.1282C175.59 32.2161 175.774 32.3414 175.924 32.5042C176.077 32.6669 176.194 32.8671 176.276 33.1047C176.357 33.3424 176.398 33.6093 176.398 33.9055C176.398 34.1204 176.365 34.3368 176.3 34.5549C176.235 34.7698 176.149 34.9846 176.041 35.1995C175.934 35.4143 175.808 35.6275 175.665 35.8391C175.525 36.0507 175.38 36.259 175.231 36.4641L173.575 38.7004H176.686V39.2034ZM178.566 38.7346C178.982 38.7346 179.332 38.6646 179.615 38.5247C179.899 38.3847 180.126 38.191 180.299 37.9436C180.475 37.693 180.602 37.4 180.68 37.0647C180.758 36.7262 180.802 36.3583 180.812 35.9612C180.73 36.0979 180.636 36.2232 180.528 36.3372C180.424 36.4478 180.31 36.5439 180.187 36.6252C180.063 36.7034 179.931 36.7652 179.791 36.8108C179.651 36.8531 179.505 36.8743 179.352 36.8743C179.068 36.8743 178.819 36.8075 178.605 36.6741C178.393 36.5406 178.216 36.3632 178.072 36.1418C177.929 35.9205 177.822 35.6666 177.75 35.3801C177.679 35.0937 177.643 34.7974 177.643 34.4915C177.643 34.1497 177.683 33.8274 177.765 33.5247C177.846 33.2219 177.963 32.9583 178.116 32.7336C178.269 32.5058 178.458 32.3267 178.683 32.1965C178.907 32.0631 179.165 31.9963 179.454 31.9963C179.776 31.9963 180.056 32.068 180.294 32.2112C180.535 32.3512 180.734 32.5465 180.89 32.7971C181.046 33.0478 181.162 33.3472 181.236 33.6956C181.315 34.0439 181.354 34.4231 181.354 34.8333V35.3948C181.354 35.7431 181.336 36.0816 181.3 36.4104C181.264 36.7359 181.204 37.0419 181.119 37.3284C181.038 37.6148 180.927 37.8769 180.787 38.1145C180.651 38.3489 180.478 38.5507 180.27 38.72C180.065 38.8892 179.82 39.0211 179.537 39.1155C179.257 39.2066 178.933 39.2522 178.566 39.2522H178.463L178.468 38.7346H178.566ZM179.425 36.3616C179.601 36.3616 179.763 36.3274 179.913 36.259C180.063 36.1874 180.196 36.0946 180.314 35.9807C180.431 35.8668 180.532 35.7366 180.616 35.5901C180.701 35.4403 180.768 35.2874 180.817 35.1311V34.7747C180.817 34.4036 180.782 34.078 180.714 33.7981C180.646 33.5149 180.551 33.2789 180.431 33.0901C180.31 32.898 180.167 32.7532 180.001 32.6555C179.835 32.5579 179.654 32.509 179.459 32.509C179.257 32.509 179.077 32.5627 178.917 32.6702C178.761 32.7743 178.627 32.9159 178.517 33.095C178.406 33.274 178.321 33.4823 178.263 33.72C178.204 33.9543 178.175 34.2034 178.175 34.467C178.175 34.7079 178.201 34.9423 178.253 35.1702C178.308 35.398 178.388 35.5999 178.492 35.7756C178.596 35.9514 178.727 36.093 178.883 36.2004C179.039 36.3079 179.22 36.3616 179.425 36.3616ZM186.271 36.2346C186.271 36.7587 186.228 37.2144 186.144 37.6018C186.062 37.9859 185.942 38.3049 185.782 38.5588C185.626 38.8095 185.434 38.9967 185.206 39.1204C184.978 39.2408 184.72 39.301 184.43 39.301C184.143 39.301 183.886 39.2408 183.658 39.1204C183.43 38.9967 183.237 38.8095 183.077 38.5588C182.918 38.3049 182.794 37.9859 182.706 37.6018C182.622 37.2144 182.579 36.7587 182.579 36.2346V35.0432C182.579 34.5191 182.622 34.0667 182.706 33.6858C182.791 33.3017 182.911 32.9843 183.068 32.7336C183.227 32.483 183.421 32.2974 183.649 32.177C183.876 32.0566 184.134 31.9963 184.42 31.9963C184.707 31.9963 184.964 32.0566 185.192 32.177C185.423 32.2974 185.618 32.483 185.777 32.7336C185.937 32.9843 186.059 33.3017 186.144 33.6858C186.228 34.0667 186.271 34.5191 186.271 35.0432V36.2346ZM185.724 34.9651C185.724 34.1513 185.615 33.5377 185.397 33.1243C185.182 32.7109 184.856 32.5042 184.42 32.5042C183.99 32.5042 183.665 32.7109 183.443 33.1243C183.225 33.5377 183.116 34.1513 183.116 34.9651V36.303C183.116 36.7034 183.144 37.0582 183.199 37.3674C183.258 37.6767 183.341 37.9371 183.448 38.1487C183.559 38.3603 183.696 38.5214 183.859 38.6321C184.025 38.7428 184.215 38.7981 184.43 38.7981C184.648 38.7981 184.837 38.7428 184.996 38.6321C185.159 38.5214 185.294 38.3603 185.401 38.1487C185.509 37.9371 185.589 37.6767 185.641 37.3674C185.696 37.0582 185.724 36.7034 185.724 36.303V34.9651ZM191.134 36.2346C191.134 36.7587 191.092 37.2144 191.007 37.6018C190.926 37.9859 190.805 38.3049 190.646 38.5588C190.489 38.8095 190.297 38.9967 190.069 39.1204C189.842 39.2408 189.583 39.301 189.293 39.301C189.007 39.301 188.749 39.2408 188.522 39.1204C188.294 38.9967 188.1 38.8095 187.941 38.5588C187.781 38.3049 187.657 37.9859 187.569 37.6018C187.485 37.2144 187.443 36.7587 187.443 36.2346V35.0432C187.443 34.5191 187.485 34.0667 187.569 33.6858C187.654 33.3017 187.775 32.9843 187.931 32.7336C188.09 32.483 188.284 32.2974 188.512 32.177C188.74 32.0566 188.997 31.9963 189.283 31.9963C189.57 31.9963 189.827 32.0566 190.055 32.177C190.286 32.2974 190.481 32.483 190.641 32.7336C190.8 32.9843 190.922 33.3017 191.007 33.6858C191.092 34.0667 191.134 34.5191 191.134 35.0432V36.2346ZM190.587 34.9651C190.587 34.1513 190.478 33.5377 190.26 33.1243C190.045 32.7109 189.72 32.5042 189.283 32.5042C188.854 32.5042 188.528 32.7109 188.307 33.1243C188.089 33.5377 187.98 34.1513 187.98 34.9651V36.303C187.98 36.7034 188.007 37.0582 188.063 37.3674C188.121 37.6767 188.204 37.9371 188.312 38.1487C188.422 38.3603 188.559 38.5214 188.722 38.6321C188.888 38.7428 189.078 38.7981 189.293 38.7981C189.511 38.7981 189.7 38.7428 189.859 38.6321C190.022 38.5214 190.157 38.3603 190.265 38.1487C190.372 37.9371 190.452 37.6767 190.504 37.3674C190.559 37.0582 190.587 36.7034 190.587 36.303V34.9651ZM195.924 36.7913H195.275V39.2034H194.728V33.9202H195.275V36.259H195.914L197.516 33.9202H198.19L196.368 36.4739L198.38 39.2034H197.672L195.924 36.7913ZM202.052 34.4329H199.85V39.2034H199.303V33.9202H202.052V34.4329ZM176.442 49.2034H175.9V46.7864H173.575V49.2034H173.028V43.9202H173.575V46.2834H175.9V43.9202H176.442V49.2034ZM180.724 49.2034C180.698 49.1155 180.677 49.0064 180.66 48.8762C180.644 48.7428 180.633 48.6077 180.626 48.4709C180.558 48.5816 180.476 48.6874 180.382 48.7883C180.288 48.886 180.179 48.9739 180.055 49.052C179.934 49.1269 179.799 49.1871 179.65 49.2327C179.5 49.2782 179.339 49.301 179.166 49.301C178.948 49.301 178.749 49.2701 178.57 49.2083C178.395 49.1464 178.243 49.0536 178.116 48.9299C177.989 48.8062 177.892 48.6516 177.823 48.4661C177.755 48.2805 177.721 48.064 177.721 47.8167C177.721 47.5725 177.763 47.3479 177.848 47.1428C177.932 46.9345 178.058 46.7555 178.224 46.6057C178.393 46.456 178.603 46.3388 178.854 46.2542C179.104 46.1695 179.396 46.1272 179.728 46.1272H180.621V45.3899C180.621 45.0123 180.527 44.7421 180.338 44.5793C180.152 44.4133 179.879 44.3303 179.518 44.3303C179.348 44.3303 179.192 44.3564 179.049 44.4084C178.909 44.4605 178.789 44.5338 178.688 44.6282C178.587 44.7193 178.509 44.83 178.453 44.9602C178.398 45.0872 178.37 45.2271 178.37 45.3801L177.828 45.3752C177.828 45.1702 177.869 44.9749 177.95 44.7893C178.032 44.6005 178.147 44.4345 178.297 44.2913C178.447 44.148 178.627 44.0341 178.839 43.9495C179.051 43.8648 179.285 43.8225 179.542 43.8225C179.78 43.8225 179.996 43.8518 180.192 43.9104C180.39 43.9657 180.561 44.0569 180.704 44.1838C180.847 44.3075 180.958 44.4703 181.036 44.6721C181.118 44.8707 181.158 45.1132 181.158 45.3997V48.095C181.158 48.1861 181.162 48.2805 181.168 48.3782C181.175 48.4758 181.183 48.5719 181.193 48.6663C181.206 48.7574 181.22 48.8453 181.236 48.9299C181.256 49.0113 181.277 49.0829 181.3 49.1448V49.2034H180.724ZM179.234 48.7786C179.404 48.7786 179.562 48.7558 179.708 48.7102C179.858 48.6614 179.991 48.5963 180.109 48.5149C180.226 48.4303 180.327 48.3326 180.411 48.2219C180.499 48.1112 180.569 47.9924 180.621 47.8655V46.5813H179.806C179.295 46.5813 178.911 46.6887 178.653 46.9036C178.396 47.1184 178.268 47.4081 178.268 47.7727C178.268 48.121 178.352 48.3765 178.522 48.5393C178.694 48.6988 178.932 48.7786 179.234 48.7786ZM185.597 48.7346C186.013 48.7346 186.363 48.6646 186.647 48.5247C186.93 48.3847 187.158 48.191 187.33 47.9436C187.506 47.693 187.633 47.4 187.711 47.0647C187.789 46.7262 187.833 46.3583 187.843 45.9612C187.762 46.0979 187.667 46.2232 187.56 46.3372C187.456 46.4478 187.342 46.5439 187.218 46.6252C187.094 46.7034 186.962 46.7652 186.822 46.8108C186.682 46.8531 186.536 46.8743 186.383 46.8743C186.1 46.8743 185.851 46.8075 185.636 46.6741C185.424 46.5406 185.247 46.3632 185.104 46.1418C184.96 45.9205 184.853 45.6666 184.781 45.3801C184.71 45.0937 184.674 44.7974 184.674 44.4915C184.674 44.1497 184.715 43.8274 184.796 43.5247C184.877 43.2219 184.995 42.9583 185.148 42.7336C185.301 42.5058 185.489 42.3267 185.714 42.1965C185.939 42.0631 186.196 41.9963 186.485 41.9963C186.808 41.9963 187.088 42.068 187.325 42.2112C187.566 42.3512 187.765 42.5465 187.921 42.7971C188.077 43.0478 188.193 43.3472 188.268 43.6956C188.346 44.0439 188.385 44.4231 188.385 44.8333V45.3948C188.385 45.7431 188.367 46.0816 188.331 46.4104C188.295 46.7359 188.235 47.0419 188.151 47.3284C188.069 47.6148 187.958 47.8769 187.818 48.1145C187.682 48.3489 187.509 48.5507 187.301 48.72C187.096 48.8892 186.852 49.0211 186.568 49.1155C186.289 49.2066 185.965 49.2522 185.597 49.2522H185.494L185.499 48.7346H185.597ZM186.456 46.3616C186.632 46.3616 186.795 46.3274 186.944 46.259C187.094 46.1874 187.228 46.0946 187.345 45.9807C187.462 45.8668 187.563 45.7366 187.648 45.5901C187.732 45.4403 187.799 45.2874 187.848 45.1311V44.7747C187.848 44.4036 187.814 44.078 187.745 43.7981C187.677 43.5149 187.582 43.2789 187.462 43.0901C187.342 42.898 187.198 42.7532 187.032 42.6555C186.866 42.5579 186.686 42.509 186.49 42.509C186.289 42.509 186.108 42.5627 185.948 42.6702C185.792 42.7743 185.659 42.9159 185.548 43.095C185.437 43.274 185.353 43.4823 185.294 43.72C185.235 43.9543 185.206 44.2034 185.206 44.467C185.206 44.7079 185.232 44.9423 185.284 45.1702C185.34 45.398 185.419 45.5999 185.524 45.7756C185.628 45.9514 185.758 46.093 185.914 46.2004C186.07 46.3079 186.251 46.3616 186.456 46.3616ZM190.348 48.9641C190.348 49.1106 190.332 49.2571 190.299 49.4036C190.27 49.55 190.226 49.69 190.167 49.8235C190.109 49.9602 190.037 50.0888 189.952 50.2092C189.868 50.3297 189.772 50.4387 189.664 50.5364L189.318 50.2776C189.467 50.0758 189.581 49.8723 189.659 49.6672C189.737 49.4622 189.776 49.231 189.776 48.9739V48.2756H190.348V48.9641ZM193.912 49.2034H193.365V42.8118L191.759 43.5295V42.9729L193.819 42.0696H193.912V49.2034ZM199 48.3977L200.719 43.9202H201.388V49.2034H200.846V44.9602L199.191 49.2034H198.81L197.12 44.8528V49.2034H196.583V43.9202H197.291L199 48.3977Z" fill="black"/>
<path d="M79.5482 35.5608L79.8412 32.094H82.8441V32.6506H80.3051L80.1049 35.0334C80.1569 34.9911 80.2204 34.9472 80.2953 34.9016C80.3702 34.8528 80.4548 34.8105 80.5492 34.7747C80.6436 34.7356 80.7445 34.7047 80.8519 34.6819C80.9626 34.6558 81.0798 34.6428 81.2035 34.6428C81.4704 34.6428 81.7129 34.6965 81.931 34.804C82.1491 34.9081 82.3347 35.0595 82.4877 35.2581C82.6407 35.4566 82.7595 35.6975 82.8441 35.9807C82.9288 36.2639 82.9711 36.5829 82.9711 36.9377C82.9711 37.2795 82.9353 37.5953 82.8636 37.885C82.792 38.1715 82.683 38.4205 82.5365 38.6321C82.39 38.8404 82.2028 39.0048 81.975 39.1252C81.7504 39.2424 81.4818 39.301 81.1693 39.301C80.9284 39.301 80.7022 39.262 80.4906 39.1838C80.2823 39.1025 80.0967 38.9804 79.934 38.8176C79.7712 38.6549 79.6377 38.4498 79.5336 38.2024C79.4294 37.955 79.3659 37.6653 79.3431 37.3333H79.8607C79.9063 37.8118 80.0414 38.1764 80.266 38.427C80.4906 38.6744 80.7917 38.7981 81.1693 38.7981C81.5827 38.7981 81.8952 38.637 82.1068 38.3147C82.3217 37.9924 82.4291 37.5367 82.4291 36.9475C82.4291 36.7001 82.3998 36.469 82.3412 36.2542C82.2826 36.0393 82.1963 35.8538 82.0824 35.6975C81.9717 35.538 81.8334 35.4143 81.6674 35.3264C81.5046 35.2353 81.3158 35.1897 81.101 35.1897C80.9577 35.1897 80.8324 35.2027 80.725 35.2288C80.6176 35.2515 80.5199 35.2857 80.432 35.3313C80.3474 35.3736 80.2676 35.4257 80.1927 35.4875C80.1211 35.5494 80.0495 35.6194 79.9779 35.6975L79.5482 35.5608ZM84.4115 35.5608L84.7045 32.094H87.7074V32.6506H85.1683L84.9681 35.0334C85.0202 34.9911 85.0837 34.9472 85.1586 34.9016C85.2334 34.8528 85.3181 34.8105 85.4125 34.7747C85.5069 34.7356 85.6078 34.7047 85.7152 34.6819C85.8259 34.6558 85.9431 34.6428 86.0668 34.6428C86.3337 34.6428 86.5762 34.6965 86.7943 34.804C87.0124 34.9081 87.198 35.0595 87.351 35.2581C87.5039 35.4566 87.6228 35.6975 87.7074 35.9807C87.792 36.2639 87.8344 36.5829 87.8344 36.9377C87.8344 37.2795 87.7985 37.5953 87.7269 37.885C87.6553 38.1715 87.5463 38.4205 87.3998 38.6321C87.2533 38.8404 87.0661 39.0048 86.8383 39.1252C86.6136 39.2424 86.3451 39.301 86.0326 39.301C85.7917 39.301 85.5655 39.262 85.3539 39.1838C85.1455 39.1025 84.96 38.9804 84.7972 38.8176C84.6345 38.6549 84.501 38.4498 84.3969 38.2024C84.2927 37.955 84.2292 37.6653 84.2064 37.3333H84.724C84.7696 37.8118 84.9047 38.1764 85.1293 38.427C85.3539 38.6744 85.655 38.7981 86.0326 38.7981C86.446 38.7981 86.7585 38.637 86.9701 38.3147C87.1849 37.9924 87.2924 37.5367 87.2924 36.9475C87.2924 36.7001 87.2631 36.469 87.2045 36.2542C87.1459 36.0393 87.0596 35.8538 86.9457 35.6975C86.835 35.538 86.6967 35.4143 86.5306 35.3264C86.3679 35.2353 86.1791 35.1897 85.9642 35.1897C85.821 35.1897 85.6957 35.2027 85.5883 35.2288C85.4808 35.2515 85.3832 35.2857 85.2953 35.3313C85.2107 35.3736 85.1309 35.4257 85.056 35.4875C84.9844 35.5494 84.9128 35.6194 84.8412 35.6975L84.4115 35.5608ZM92.5707 36.2346C92.5707 36.7587 92.5284 37.2144 92.4437 37.6018C92.3623 37.9859 92.2419 38.3049 92.0824 38.5588C91.9261 38.8095 91.7341 38.9967 91.5062 39.1204C91.2784 39.2408 91.0196 39.301 90.7299 39.301C90.4434 39.301 90.1862 39.2408 89.9584 39.1204C89.7305 38.9967 89.5368 38.8095 89.3773 38.5588C89.2178 38.3049 89.0941 37.9859 89.0062 37.6018C88.9216 37.2144 88.8793 36.7587 88.8793 36.2346V35.0432C88.8793 34.5191 88.9216 34.0667 89.0062 33.6858C89.0909 33.3017 89.2113 32.9843 89.3676 32.7336C89.5271 32.483 89.7207 32.2974 89.9486 32.177C90.1765 32.0566 90.4336 31.9963 90.7201 31.9963C91.0066 31.9963 91.2637 32.0566 91.4916 32.177C91.7227 32.2974 91.918 32.483 92.0775 32.7336C92.237 32.9843 92.3591 33.3017 92.4437 33.6858C92.5284 34.0667 92.5707 34.5191 92.5707 35.0432V36.2346ZM92.0238 34.9651C92.0238 34.1513 91.9148 33.5377 91.6967 33.1243C91.4818 32.7109 91.1563 32.5042 90.7201 32.5042C90.2904 32.5042 89.9649 32.7109 89.7435 33.1243C89.5254 33.5377 89.4164 34.1513 89.4164 34.9651V36.303C89.4164 36.7034 89.4441 37.0582 89.4994 37.3674C89.558 37.6767 89.641 37.9371 89.7484 38.1487C89.8591 38.3603 89.9958 38.5214 90.1586 38.6321C90.3246 38.7428 90.515 38.7981 90.7299 38.7981C90.948 38.7981 91.1368 38.7428 91.2963 38.6321C91.459 38.5214 91.5941 38.3603 91.7015 38.1487C91.809 37.9371 91.8887 37.6767 91.9408 37.3674C91.9961 37.0582 92.0238 36.7034 92.0238 36.303V34.9651ZM97.434 36.2346C97.434 36.7587 97.3916 37.2144 97.307 37.6018C97.2256 37.9859 97.1052 38.3049 96.9457 38.5588C96.7894 38.8095 96.5974 38.9967 96.3695 39.1204C96.1416 39.2408 95.8829 39.301 95.5931 39.301C95.3067 39.301 95.0495 39.2408 94.8217 39.1204C94.5938 38.9967 94.4001 38.8095 94.2406 38.5588C94.0811 38.3049 93.9574 37.9859 93.8695 37.6018C93.7849 37.2144 93.7426 36.7587 93.7426 36.2346V35.0432C93.7426 34.5191 93.7849 34.0667 93.8695 33.6858C93.9541 33.3017 94.0746 32.9843 94.2308 32.7336C94.3903 32.483 94.584 32.2974 94.8119 32.177C95.0398 32.0566 95.2969 31.9963 95.5834 31.9963C95.8698 31.9963 96.127 32.0566 96.3549 32.177C96.586 32.2974 96.7813 32.483 96.9408 32.7336C97.1003 32.9843 97.2224 33.3017 97.307 33.6858C97.3916 34.0667 97.434 34.5191 97.434 35.0432V36.2346ZM96.8871 34.9651C96.8871 34.1513 96.778 33.5377 96.5599 33.1243C96.3451 32.7109 96.0196 32.5042 95.5834 32.5042C95.1537 32.5042 94.8282 32.7109 94.6068 33.1243C94.3887 33.5377 94.2797 34.1513 94.2797 34.9651V36.303C94.2797 36.7034 94.3073 37.0582 94.3627 37.3674C94.4213 37.6767 94.5043 37.9371 94.6117 38.1487C94.7224 38.3603 94.8591 38.5214 95.0219 38.6321C95.1879 38.7428 95.3783 38.7981 95.5931 38.7981C95.8112 38.7981 96 38.7428 96.1595 38.6321C96.3223 38.5214 96.4574 38.3603 96.5648 38.1487C96.6722 37.9371 96.752 37.6767 96.8041 37.3674C96.8594 37.0582 96.8871 36.7034 96.8871 36.303V34.9651ZM102.224 36.7913H101.575V39.2034H101.028V33.9202H101.575V36.259H102.214L103.816 33.9202H104.49L102.668 36.4739L104.68 39.2034H103.972L102.224 36.7913ZM108.352 34.4329H106.15V39.2034H105.603V33.9202H108.352V34.4329ZM82.7416 49.2034H82.1996V46.7864H79.8754V49.2034H79.3285V43.9202H79.8754V46.2834H82.1996V43.9202H82.7416V49.2034ZM87.0238 49.2034C86.9978 49.1155 86.9766 49.0064 86.9603 48.8762C86.9441 48.7428 86.9327 48.6077 86.9261 48.4709C86.8578 48.5816 86.7764 48.6874 86.682 48.7883C86.5876 48.886 86.4786 48.9739 86.3549 49.052C86.2344 49.1269 86.0993 49.1871 85.9496 49.2327C85.7998 49.2782 85.6387 49.301 85.4662 49.301C85.2481 49.301 85.0495 49.2701 84.8705 49.2083C84.6947 49.1464 84.5433 49.0536 84.4164 48.9299C84.2894 48.8062 84.1918 48.6516 84.1234 48.4661C84.0551 48.2805 84.0209 48.064 84.0209 47.8167C84.0209 47.5725 84.0632 47.3479 84.1478 47.1428C84.2325 46.9345 84.3578 46.7555 84.5238 46.6057C84.6931 46.456 84.903 46.3388 85.1537 46.2542C85.4043 46.1695 85.6957 46.1272 86.0277 46.1272H86.9213V45.3899C86.9213 45.0123 86.8269 44.7421 86.6381 44.5793C86.4525 44.4133 86.1791 44.3303 85.8177 44.3303C85.6485 44.3303 85.4922 44.3564 85.349 44.4084C85.209 44.4605 85.0886 44.5338 84.9877 44.6282C84.8868 44.7193 84.8086 44.83 84.7533 44.9602C84.698 45.0872 84.6703 45.2271 84.6703 45.3801L84.1283 45.3752C84.1283 45.1702 84.169 44.9749 84.2504 44.7893C84.3317 44.6005 84.4473 44.4345 84.597 44.2913C84.7468 44.148 84.9274 44.0341 85.139 43.9495C85.3506 43.8648 85.585 43.8225 85.8422 43.8225C86.0798 43.8225 86.2963 43.8518 86.4916 43.9104C86.6901 43.9657 86.861 44.0569 87.0043 44.1838C87.1475 44.3075 87.2582 44.4703 87.3363 44.6721C87.4177 44.8707 87.4584 45.1132 87.4584 45.3997V48.095C87.4584 48.1861 87.4616 48.2805 87.4681 48.3782C87.4747 48.4758 87.4828 48.5719 87.4926 48.6663C87.5056 48.7574 87.5202 48.8453 87.5365 48.9299C87.556 49.0113 87.5772 49.0829 87.6 49.1448V49.2034H87.0238ZM85.5345 48.7786C85.7038 48.7786 85.8617 48.7558 86.0082 48.7102C86.1579 48.6614 86.2914 48.5963 86.4086 48.5149C86.5258 48.4303 86.6267 48.3326 86.7113 48.2219C86.7992 48.1112 86.8692 47.9924 86.9213 47.8655V46.5813H86.1058C85.5948 46.5813 85.2107 46.6887 84.9535 46.9036C84.6963 47.1184 84.5677 47.4081 84.5677 47.7727C84.5677 48.121 84.6524 48.3765 84.8217 48.5393C84.9942 48.6988 85.2318 48.7786 85.5345 48.7786ZM91.4427 45.5608L91.7357 42.094H94.7386V42.6506H92.1996L91.9994 45.0334C92.0515 44.9911 92.1149 44.9472 92.1898 44.9016C92.2647 44.8528 92.3493 44.8105 92.4437 44.7747C92.5381 44.7356 92.639 44.7047 92.7465 44.6819C92.8571 44.6558 92.9743 44.6428 93.098 44.6428C93.3649 44.6428 93.6075 44.6965 93.8256 44.804C94.0437 44.9081 94.2292 45.0595 94.3822 45.2581C94.5352 45.4566 94.654 45.6975 94.7386 45.9807C94.8233 46.2639 94.8656 46.5829 94.8656 46.9377C94.8656 47.2795 94.8298 47.5953 94.7582 47.885C94.6866 48.1715 94.5775 48.4205 94.431 48.6321C94.2845 48.8404 94.0974 49.0048 93.8695 49.1252C93.6449 49.2424 93.3763 49.301 93.0638 49.301C92.823 49.301 92.5967 49.262 92.3851 49.1838C92.1768 49.1025 91.9913 48.9804 91.8285 48.8176C91.6657 48.6549 91.5323 48.4498 91.4281 48.2024C91.3239 47.955 91.2605 47.6653 91.2377 47.3333H91.7552C91.8008 47.8118 91.9359 48.1764 92.1605 48.427C92.3851 48.6744 92.6862 48.7981 93.0638 48.7981C93.4773 48.7981 93.7898 48.637 94.0013 48.3147C94.2162 47.9924 94.3236 47.5367 94.3236 46.9475C94.3236 46.7001 94.2943 46.469 94.2357 46.2542C94.1771 46.0393 94.0909 45.8538 93.9769 45.6975C93.8663 45.538 93.7279 45.4143 93.5619 45.3264C93.3991 45.2353 93.2103 45.1897 92.9955 45.1897C92.8523 45.1897 92.7269 45.2027 92.6195 45.2288C92.5121 45.2515 92.4144 45.2857 92.3265 45.3313C92.2419 45.3736 92.1622 45.4257 92.0873 45.4875C92.0157 45.5494 91.9441 45.6194 91.8724 45.6975L91.4427 45.5608ZM96.6478 48.9641C96.6478 49.1106 96.6316 49.2571 96.599 49.4036C96.5697 49.55 96.5258 49.69 96.4672 49.8235C96.4086 49.9602 96.337 50.0888 96.2523 50.2092C96.1677 50.3297 96.0717 50.4387 95.9642 50.5364L95.6176 50.2776C95.7673 50.0758 95.8812 49.8723 95.9594 49.6672C96.0375 49.4622 96.0765 49.231 96.0765 48.9739V48.2756H96.6478V48.9641ZM100.935 46.9084H101.848V47.4163H100.935V49.2034H100.393V47.4163H97.6V47.0696L100.349 42.094H100.935V46.9084ZM98.2494 46.9084H100.393V42.9143L100.198 43.3098L98.2494 46.9084ZM105.3 48.3977L107.019 43.9202H107.688V49.2034H107.146V44.9602L105.491 49.2034H105.11L103.42 44.8528V49.2034H102.883V43.9202H103.591L105.3 48.3977Z" fill="black"/>
<path d="M14.1831 39.2034H13.6362V32.8118L12.0298 33.5295V32.9729L14.0903 32.0696H14.1831V39.2034ZM20.4917 39.2034H16.7222V38.7444L18.6753 36.1077C18.8576 35.8603 19.0106 35.6373 19.1343 35.4387C19.2612 35.2402 19.3621 35.0562 19.437 34.887C19.5151 34.7144 19.5705 34.5533 19.603 34.4036C19.6356 34.2538 19.6519 34.1057 19.6519 33.9592C19.6519 33.7476 19.6258 33.5523 19.5737 33.3733C19.5216 33.1943 19.4451 33.0413 19.3442 32.9143C19.2433 32.7841 19.1164 32.6832 18.9634 32.6116C18.8136 32.54 18.6411 32.5042 18.4458 32.5042C18.2407 32.5042 18.0568 32.5448 17.894 32.6262C17.7313 32.7076 17.5929 32.8215 17.479 32.968C17.3683 33.1145 17.2821 33.2887 17.2202 33.4905C17.1616 33.689 17.1323 33.9071 17.1323 34.1448H16.5903C16.5903 33.8518 16.6326 33.5751 16.7173 33.3147C16.8019 33.0543 16.9224 32.8264 17.0786 32.6311C17.2381 32.4358 17.4318 32.2812 17.6597 32.1672C17.8908 32.0533 18.1528 31.9963 18.4458 31.9963C18.716 31.9963 18.9601 32.0403 19.1782 32.1282C19.3963 32.2161 19.5802 32.3414 19.73 32.5042C19.883 32.6669 20.0002 32.8671 20.0815 33.1047C20.1629 33.3424 20.2036 33.6093 20.2036 33.9055C20.2036 34.1204 20.1711 34.3368 20.106 34.5549C20.0409 34.7698 19.9546 34.9846 19.8472 35.1995C19.7397 35.4143 19.6144 35.6275 19.4712 35.8391C19.3312 36.0507 19.1864 36.259 19.0366 36.4641L17.3813 38.7004H20.4917V39.2034ZM25.2134 36.2346C25.2134 36.7587 25.1711 37.2144 25.0864 37.6018C25.005 37.9859 24.8846 38.3049 24.7251 38.5588C24.5688 38.8095 24.3768 38.9967 24.1489 39.1204C23.9211 39.2408 23.6623 39.301 23.3726 39.301C23.0861 39.301 22.8289 39.2408 22.6011 39.1204C22.3732 38.9967 22.1795 38.8095 22.02 38.5588C21.8605 38.3049 21.7368 37.9859 21.6489 37.6018C21.5643 37.2144 21.522 36.7587 21.522 36.2346V35.0432C21.522 34.5191 21.5643 34.0667 21.6489 33.6858C21.7336 33.3017 21.854 32.9843 22.0103 32.7336C22.1698 32.483 22.3634 32.2974 22.5913 32.177C22.8192 32.0566 23.0763 31.9963 23.3628 31.9963C23.6493 31.9963 23.9064 32.0566 24.1343 32.177C24.3654 32.2974 24.5607 32.483 24.7202 32.7336C24.8797 32.9843 25.0018 33.3017 25.0864 33.6858C25.1711 34.0667 25.2134 34.5191 25.2134 35.0432V36.2346ZM24.6665 34.9651C24.6665 34.1513 24.5575 33.5377 24.3394 33.1243C24.1245 32.7109 23.799 32.5042 23.3628 32.5042C22.9331 32.5042 22.6076 32.7109 22.3862 33.1243C22.1681 33.5377 22.0591 34.1513 22.0591 34.9651V36.303C22.0591 36.7034 22.0868 37.0582 22.1421 37.3674C22.2007 37.6767 22.2837 37.9371 22.3911 38.1487C22.5018 38.3603 22.6385 38.5214 22.8013 38.6321C22.9673 38.7428 23.1577 38.7981 23.3726 38.7981C23.5907 38.7981 23.7795 38.7428 23.939 38.6321C24.1017 38.5214 24.2368 38.3603 24.3442 38.1487C24.4517 37.9371 24.5314 37.6767 24.5835 37.3674C24.6388 37.0582 24.6665 36.7034 24.6665 36.303V34.9651ZM30.0767 36.2346C30.0767 36.7587 30.0343 37.2144 29.9497 37.6018C29.8683 37.9859 29.7479 38.3049 29.5884 38.5588C29.4321 38.8095 29.2401 38.9967 29.0122 39.1204C28.7843 39.2408 28.5256 39.301 28.2358 39.301C27.9494 39.301 27.6922 39.2408 27.4644 39.1204C27.2365 38.9967 27.0428 38.8095 26.8833 38.5588C26.7238 38.3049 26.6001 37.9859 26.5122 37.6018C26.4276 37.2144 26.3853 36.7587 26.3853 36.2346V35.0432C26.3853 34.5191 26.4276 34.0667 26.5122 33.6858C26.5968 33.3017 26.7173 32.9843 26.8735 32.7336C27.033 32.483 27.2267 32.2974 27.4546 32.177C27.6825 32.0566 27.9396 31.9963 28.2261 31.9963C28.5125 31.9963 28.7697 32.0566 28.9976 32.177C29.2287 32.2974 29.424 32.483 29.5835 32.7336C29.743 32.9843 29.8651 33.3017 29.9497 33.6858C30.0343 34.0667 30.0767 34.5191 30.0767 35.0432V36.2346ZM29.5298 34.9651C29.5298 34.1513 29.4207 33.5377 29.2026 33.1243C28.9878 32.7109 28.6623 32.5042 28.2261 32.5042C27.7964 32.5042 27.4709 32.7109 27.2495 33.1243C27.0314 33.5377 26.9224 34.1513 26.9224 34.9651V36.303C26.9224 36.7034 26.95 37.0582 27.0054 37.3674C27.064 37.6767 27.147 37.9371 27.2544 38.1487C27.3651 38.3603 27.5018 38.5214 27.6646 38.6321C27.8306 38.7428 28.021 38.7981 28.2358 38.7981C28.4539 38.7981 28.6427 38.7428 28.8022 38.6321C28.965 38.5214 29.1001 38.3603 29.2075 38.1487C29.3149 37.9371 29.3947 37.6767 29.4468 37.3674C29.5021 37.0582 29.5298 36.7034 29.5298 36.303V34.9651ZM34.9399 36.2346C34.9399 36.7587 34.8976 37.2144 34.813 37.6018C34.7316 37.9859 34.6112 38.3049 34.4517 38.5588C34.2954 38.8095 34.1034 38.9967 33.8755 39.1204C33.6476 39.2408 33.3888 39.301 33.0991 39.301C32.8127 39.301 32.5555 39.2408 32.3276 39.1204C32.0998 38.9967 31.9061 38.8095 31.7466 38.5588C31.5871 38.3049 31.4634 37.9859 31.3755 37.6018C31.2909 37.2144 31.2485 36.7587 31.2485 36.2346V35.0432C31.2485 34.5191 31.2909 34.0667 31.3755 33.6858C31.4601 33.3017 31.5806 32.9843 31.7368 32.7336C31.8963 32.483 32.09 32.2974 32.3179 32.177C32.5457 32.0566 32.8029 31.9963 33.0894 31.9963C33.3758 31.9963 33.633 32.0566 33.8608 32.177C34.092 32.2974 34.2873 32.483 34.4468 32.7336C34.6063 32.9843 34.7284 33.3017 34.813 33.6858C34.8976 34.0667 34.9399 34.5191 34.9399 35.0432V36.2346ZM34.3931 34.9651C34.3931 34.1513 34.284 33.5377 34.0659 33.1243C33.8511 32.7109 33.5256 32.5042 33.0894 32.5042C32.6597 32.5042 32.3341 32.7109 32.1128 33.1243C31.8947 33.5377 31.7856 34.1513 31.7856 34.9651V36.303C31.7856 36.7034 31.8133 37.0582 31.8687 37.3674C31.9272 37.6767 32.0103 37.9371 32.1177 38.1487C32.2284 38.3603 32.3651 38.5214 32.5278 38.6321C32.6938 38.7428 32.8843 38.7981 33.0991 38.7981C33.3172 38.7981 33.506 38.7428 33.6655 38.6321C33.8283 38.5214 33.9634 38.3603 34.0708 38.1487C34.1782 37.9371 34.258 37.6767 34.3101 37.3674C34.3654 37.0582 34.3931 36.7034 34.3931 36.303V34.9651ZM39.73 36.7913H39.0806V39.2034H38.5337V33.9202H39.0806V36.259H39.7202L41.3218 33.9202H41.9956L40.1743 36.4739L42.186 39.2034H41.478L39.73 36.7913ZM45.8579 34.4329H43.6558V39.2034H43.1089V33.9202H45.8579V34.4329ZM15.3843 49.2034H14.8423V46.7864H12.5181V49.2034H11.9712V43.9202H12.5181V46.2834H14.8423V43.9202H15.3843V49.2034ZM19.6665 49.2034C19.6405 49.1155 19.6193 49.0064 19.603 48.8762C19.5868 48.7428 19.5754 48.6077 19.5688 48.4709C19.5005 48.5816 19.4191 48.6874 19.3247 48.7883C19.2303 48.886 19.1213 48.9739 18.9976 49.052C18.8771 49.1269 18.742 49.1871 18.5923 49.2327C18.4425 49.2782 18.2814 49.301 18.1089 49.301C17.8908 49.301 17.6922 49.2701 17.5132 49.2083C17.3374 49.1464 17.186 49.0536 17.0591 48.9299C16.9321 48.8062 16.8345 48.6516 16.7661 48.4661C16.6978 48.2805 16.6636 48.064 16.6636 47.8167C16.6636 47.5725 16.7059 47.3479 16.7905 47.1428C16.8752 46.9345 17.0005 46.7555 17.1665 46.6057C17.3358 46.456 17.5457 46.3388 17.7964 46.2542C18.047 46.1695 18.3384 46.1272 18.6704 46.1272H19.564V45.3899C19.564 45.0123 19.4696 44.7421 19.2808 44.5793C19.0952 44.4133 18.8218 44.3303 18.4604 44.3303C18.2912 44.3303 18.1349 44.3564 17.9917 44.4084C17.8517 44.4605 17.7313 44.5338 17.6304 44.6282C17.5295 44.7193 17.4513 44.83 17.396 44.9602C17.3407 45.0872 17.313 45.2271 17.313 45.3801L16.771 45.3752C16.771 45.1702 16.8117 44.9749 16.8931 44.7893C16.9744 44.6005 17.09 44.4345 17.2397 44.2913C17.3895 44.148 17.5701 44.0341 17.7817 43.9495C17.9933 43.8648 18.2277 43.8225 18.4849 43.8225C18.7225 43.8225 18.939 43.8518 19.1343 43.9104C19.3328 43.9657 19.5037 44.0569 19.647 44.1838C19.7902 44.3075 19.9009 44.4703 19.979 44.6721C20.0604 44.8707 20.1011 45.1132 20.1011 45.3997V48.095C20.1011 48.1861 20.1043 48.2805 20.1108 48.3782C20.1174 48.4758 20.1255 48.5719 20.1353 48.6663C20.1483 48.7574 20.1629 48.8453 20.1792 48.9299C20.1987 49.0113 20.2199 49.0829 20.2427 49.1448V49.2034H19.6665ZM18.1772 48.7786C18.3465 48.7786 18.5044 48.7558 18.6509 48.7102C18.8006 48.6614 18.9341 48.5963 19.0513 48.5149C19.1685 48.4303 19.2694 48.3326 19.354 48.2219C19.4419 48.1112 19.5119 47.9924 19.564 47.8655V46.5813H18.7485C18.2375 46.5813 17.8534 46.6887 17.5962 46.9036C17.339 47.1184 17.2104 47.4081 17.2104 47.7727C17.2104 48.121 17.2951 48.3765 17.4644 48.5393C17.6369 48.6988 17.8745 48.7786 18.1772 48.7786ZM27.5229 49.2034H23.7534V48.7444L25.7065 46.1077C25.8888 45.8603 26.0418 45.6373 26.1655 45.4387C26.2925 45.2402 26.3934 45.0562 26.4683 44.887C26.5464 44.7144 26.6017 44.5533 26.6343 44.4036C26.6668 44.2538 26.6831 44.1057 26.6831 43.9592C26.6831 43.7476 26.6571 43.5523 26.605 43.3733C26.5529 43.1943 26.4764 43.0413 26.3755 42.9143C26.2746 42.7841 26.1476 42.6832 25.9946 42.6116C25.8449 42.54 25.6724 42.5042 25.4771 42.5042C25.272 42.5042 25.0881 42.5448 24.9253 42.6262C24.7625 42.7076 24.6242 42.8215 24.5103 42.968C24.3996 43.1145 24.3133 43.2887 24.2515 43.4905C24.1929 43.689 24.1636 43.9071 24.1636 44.1448H23.6216C23.6216 43.8518 23.6639 43.5751 23.7485 43.3147C23.8332 43.0543 23.9536 42.8264 24.1099 42.6311C24.2694 42.4358 24.4631 42.2812 24.6909 42.1672C24.922 42.0533 25.1841 41.9963 25.4771 41.9963C25.7472 41.9963 25.9914 42.0403 26.2095 42.1282C26.4276 42.2161 26.6115 42.3414 26.7612 42.5042C26.9142 42.6669 27.0314 42.8671 27.1128 43.1047C27.1942 43.3424 27.2349 43.6093 27.2349 43.9055C27.2349 44.1204 27.2023 44.3368 27.1372 44.5549C27.0721 44.7698 26.9858 44.9846 26.8784 45.1995C26.771 45.4143 26.6457 45.6275 26.5024 45.8391C26.3625 46.0507 26.2176 46.259 26.0679 46.4641L24.4126 48.7004H27.5229V49.2034ZM29.2905 48.9641C29.2905 49.1106 29.2743 49.2571 29.2417 49.4036C29.2124 49.55 29.1685 49.69 29.1099 49.8235C29.0513 49.9602 28.9797 50.0888 28.895 50.2092C28.8104 50.3297 28.7144 50.4387 28.6069 50.5364L28.2603 50.2776C28.41 50.0758 28.5239 49.8723 28.6021 49.6672C28.6802 49.4622 28.7192 49.231 28.7192 48.9739V48.2756H29.2905V48.9641ZM34.1587 46.2346C34.1587 46.7587 34.1164 47.2144 34.0317 47.6018C33.9504 47.9859 33.8299 48.3049 33.6704 48.5588C33.5142 48.8095 33.3221 48.9967 33.0942 49.1204C32.8664 49.2408 32.6076 49.301 32.3179 49.301C32.0314 49.301 31.7743 49.2408 31.5464 49.1204C31.3185 48.9967 31.1248 48.8095 30.9653 48.5588C30.8058 48.3049 30.6821 47.9859 30.5942 47.6018C30.5096 47.2144 30.4673 46.7587 30.4673 46.2346V45.0432C30.4673 44.5191 30.5096 44.0667 30.5942 43.6858C30.6789 43.3017 30.7993 42.9843 30.9556 42.7336C31.1151 42.483 31.3088 42.2974 31.5366 42.177C31.7645 42.0566 32.0216 41.9963 32.3081 41.9963C32.5946 41.9963 32.8517 42.0566 33.0796 42.177C33.3107 42.2974 33.506 42.483 33.6655 42.7336C33.825 42.9843 33.9471 43.3017 34.0317 43.6858C34.1164 44.0667 34.1587 44.5191 34.1587 45.0432V46.2346ZM33.6118 44.9651C33.6118 44.1513 33.5028 43.5377 33.2847 43.1243C33.0698 42.7109 32.7443 42.5042 32.3081 42.5042C31.8784 42.5042 31.5529 42.7109 31.3315 43.1243C31.1134 43.5377 31.0044 44.1513 31.0044 44.9651V46.303C31.0044 46.7034 31.0321 47.0582 31.0874 47.3674C31.146 47.6767 31.229 47.9371 31.3364 48.1487C31.4471 48.3603 31.5838 48.5214 31.7466 48.6321C31.9126 48.7428 32.103 48.7981 32.3179 48.7981C32.536 48.7981 32.7248 48.7428 32.8843 48.6321C33.047 48.5214 33.1821 48.3603 33.2896 48.1487C33.397 47.9371 33.4767 47.6767 33.5288 47.3674C33.5841 47.0582 33.6118 46.7034 33.6118 46.303V44.9651ZM37.9429 48.3977L39.6616 43.9202H40.3306V49.2034H39.7886V44.9602L38.1333 49.2034H37.7524L36.063 44.8528V49.2034H35.5259V43.9202H36.2339L37.9429 48.3977Z" fill="black"/>
</svg>
