<svg width="254" height="53" viewBox="0 0 254 53" fill="none" xmlns="http://www.w3.org/2000/svg">
<path d="M84.5529 18.8721H244.815V7.16946H75.8439L84.5529 18.8721Z" fill="#201500" stroke="black" stroke-width="0.5" stroke-miterlimit="10" stroke-linecap="round" stroke-linejoin="round"/>
<path d="M250.102 28.5336H247.545C246.037 28.5336 244.815 27.3113 244.815 25.8036V7.178C244.815 5.67023 246.037 4.44795 247.545 4.44795H250.607C252.115 4.44795 253.337 5.67023 253.337 7.178L252.66 26.066C252.611 27.4429 251.48 28.5336 250.102 28.5336Z" fill="#5159A3" stroke="black" stroke-width="0.5" stroke-miterlimit="10" stroke-linecap="round" stroke-linejoin="round"/>
<path d="M84.5531 18.8721H26.1583L11.666 7.16946H75.8441L84.5531 18.8721Z" fill="#5159A3" stroke="black" stroke-width="0.5" stroke-miterlimit="10" stroke-linecap="round" stroke-linejoin="round"/>
<path d="M14.0812 7.61176L10.8061 5.28474C10.4277 5.01588 10.2029 3.84915 10.2029 3.38496C10.2029 2.32811 9.34619 1.47136 8.28933 1.47136C7.23248 1.47136 6.37573 2.32811 6.37573 3.38496V5.44879C6.37573 6.35408 6.82704 7.19977 7.57909 7.70372L11.3256 10.2143L14.0812 7.61176Z" fill="#5159A3" stroke="black" stroke-width="0.5" stroke-miterlimit="10" stroke-linecap="round" stroke-linejoin="round"/>
<path d="M1.7702 16.1081L12.0626 6.43513C12.3646 6.15126 12.8266 6.12424 13.1597 6.37097L26.0293 15.9039C26.2455 16.0641 26.5075 16.1506 26.7766 16.1506H38.6812C39.2415 16.1506 39.4667 16.8735 39.0055 17.1917L27.4158 25.1886C27.0947 25.4101 26.689 25.4698 26.3177 25.3503L2.09443 17.5485C1.47318 17.3485 1.2946 16.5551 1.7702 16.1081Z" fill="#5159A3" stroke="black" stroke-width="0.5" stroke-miterlimit="10" stroke-linecap="round" stroke-linejoin="round"/>
<path d="M10.2284 15.4786C11.0222 15.4786 11.6657 14.8351 11.6657 14.0413C11.6657 13.2475 11.0222 12.604 10.2284 12.604C9.43459 12.604 8.79108 13.2475 8.79108 14.0413C8.79108 14.8351 9.43459 15.4786 10.2284 15.4786Z" fill="#5159A3" stroke="black" stroke-width="0.5" stroke-miterlimit="10" stroke-linecap="round" stroke-linejoin="round"/>
<path d="M26.2177 24.0175C27.0115 24.0175 27.6551 23.374 27.6551 22.5802C27.6551 21.7864 27.0115 21.1429 26.2177 21.1429C25.4239 21.1429 24.7804 21.7864 24.7804 22.5802C24.7804 23.374 25.4239 24.0175 26.2177 24.0175Z" fill="#5159A3" stroke="black" stroke-width="0.5" stroke-miterlimit="10" stroke-linecap="round" stroke-linejoin="round"/>
<path d="M46.1022 7.16955H44.4693V3.82726C44.4693 3.37634 44.8348 3.01079 45.2858 3.01079C45.7367 3.01079 46.1022 3.37634 46.1022 3.82726V7.16955Z" fill="#221500" stroke="black" stroke-width="0.5" stroke-miterlimit="10" stroke-linecap="round" stroke-linejoin="round"/>
<path d="M68.236 7.16954H64.9796V3.94451C64.9796 3.77164 65.1197 3.6315 65.2926 3.6315H65.6692C65.8563 3.6315 66.0306 3.72679 66.1315 3.88434L68.236 7.16954Z" fill="#221500" stroke="black" stroke-width="0.5" stroke-miterlimit="10" stroke-linecap="round" stroke-linejoin="round"/>
<path d="M131.081 3.98807H127.864V0.802357C127.864 0.631595 128.002 0.493164 128.173 0.493164H128.545C128.73 0.493164 128.902 0.587298 129.002 0.742922L131.081 3.98807Z" fill="#221500" stroke="black" stroke-width="0.5" stroke-miterlimit="10" stroke-linecap="round" stroke-linejoin="round"/>
<path d="M73.2075 18.8723H72.0168V23.0227C72.0168 23.3515 72.2833 23.6181 72.6121 23.6181C72.9409 23.6181 73.2075 23.3515 73.2075 23.0227V18.8723H73.2075Z" fill="#221500" stroke="black" stroke-width="0.5" stroke-miterlimit="10" stroke-linecap="round" stroke-linejoin="round"/>
<path d="M62.5214 18.8723H61.3307V23.0227C61.3307 23.3515 61.5972 23.6181 61.926 23.6181C62.2548 23.6181 62.5214 23.3515 62.5214 23.0227V18.8723H62.5214Z" fill="#221500" stroke="black" stroke-width="0.5" stroke-miterlimit="10" stroke-linecap="round" stroke-linejoin="round"/>
<path d="M51.9952 18.8723H50.8045V23.0227C50.8045 23.3515 51.071 23.6181 51.3998 23.6181C51.7286 23.6181 51.9952 23.3515 51.9952 23.0227V18.8723H51.9952Z" fill="#221500" stroke="black" stroke-width="0.5" stroke-miterlimit="10" stroke-linecap="round" stroke-linejoin="round"/>
<path d="M87.4745 19.8927H81.7705C81.5949 19.8927 81.4297 19.8093 81.3255 19.6679L71.6032 6.48749C71.4997 6.3472 71.5999 6.14886 71.7742 6.14886H77.4782C77.6538 6.14886 77.819 6.23227 77.9232 6.3736L87.6455 19.554C87.749 19.6943 87.6488 19.8927 87.4745 19.8927Z" fill="#5159A3" stroke="black" stroke-width="0.5" stroke-miterlimit="10" stroke-linecap="round" stroke-linejoin="round"/>
<path d="M140.072 16.978V19.2131C140.072 19.5912 139.765 19.8978 139.387 19.8978H136.908C136.586 19.8978 136.281 19.754 136.076 19.5058L127.274 8.84313C127.016 8.53036 126.875 8.13744 126.875 7.73187V4.44795C126.875 4.19397 127.08 3.98808 127.334 3.98808H131.495C131.749 3.98808 131.955 4.19397 131.955 4.44795V6.12547C131.955 6.53088 132.096 6.92366 132.354 7.23637L139.825 16.2915C139.985 16.4848 140.072 16.7275 140.072 16.978Z" fill="#5159A3" stroke="black" stroke-width="0.5" stroke-miterlimit="10" stroke-linecap="round" stroke-linejoin="round"/>
<path d="M197.721 5.20865H193.607V1.1352C193.607 0.916857 193.784 0.739845 194.003 0.739845H194.478C194.715 0.739845 194.935 0.860207 195.062 1.05921L197.721 5.20865Z" fill="#221500" stroke="black" stroke-width="0.5" stroke-miterlimit="10" stroke-linecap="round" stroke-linejoin="round"/>
<path d="M204.336 16.3887V19.2091C204.336 19.5952 204.034 19.8978 203.658 19.8978H201.175C200.852 19.8978 200.549 19.7516 200.341 19.5012L191.546 8.83915C191.285 8.52612 191.139 8.14025 191.139 7.73323V5.6676C191.139 5.41516 191.346 5.20863 191.598 5.20863H199.13C199.383 5.20863 199.589 5.41522 199.589 5.66772V9.34592C199.589 9.91977 199.789 10.4758 200.154 10.9185L204.096 15.7C204.253 15.8984 204.336 16.1384 204.336 16.3887Z" fill="#5159A3" stroke="black" stroke-width="0.5" stroke-miterlimit="10" stroke-linecap="round" stroke-linejoin="round"/>
<path d="M130.431 2.97424H193.607" stroke="black" stroke-width="0.5" stroke-miterlimit="10" stroke-linecap="round" stroke-linejoin="round"/>
<path d="M3.16382 36.7793L0 44.1144H6.32764L3.16382 36.7793Z" fill="#5159A3"/>
<path d="M88.5139 40.4463L83.0391 35.9407V44.9519L88.5139 40.4463Z" fill="#D92B2B"/>
<path d="M198.112 40.4463L192.637 35.9407V44.9519L198.112 40.4463Z" fill="#D92B2B"/>
<path d="M250.631 40.4463L245.156 35.9407V44.9519L250.631 40.4463Z" fill="#D92B2B"/>
<path d="M141.963 40.4463L136.488 35.9407V44.9519L141.963 40.4463Z" fill="#D92B2B"/>
<path d="M46.293 11.1603V15.3815L48.4304 13.2709L46.293 11.1603ZM51.1684 10.5579H46.9597L49.0641 12.6452L51.1684 10.5579ZM59.983 10.9706H61.274L59.6756 13.731V15.3815H58.5407V13.731L56.9423 10.9706H58.2333L59.1081 12.7587L59.983 10.9706ZM57.193 12.9827V13.3693C57.193 14.4806 56.2564 15.3814 55.1485 15.3814H53.1499V10.9706H55.1485C56.2564 10.9706 57.193 11.8714 57.193 12.9827ZM56.0469 13.0232C56.0469 12.4348 55.5715 11.958 54.9851 11.958H54.2958V14.3943L54.9851 14.394C55.5715 14.394 56.0471 13.9172 56.0469 13.3289V13.0232ZM47.1157 15.8369H49.6173C50.6019 15.8369 51.4 15.0364 51.4 14.0488V11.5398L47.1157 15.8369Z" fill="white"/>
<path d="M70.8222 13.7511L71.288 14.4281V13.7511H71.5673V15.0372H71.4197L70.9361 14.3587V15.0372H70.6568V13.7511H70.8222ZM61.9261 13.7511L62.2764 14.6285L62.6268 13.7511H62.9061V15.0372H62.6268V14.5054L62.4137 15.0372H62.1392L61.9261 14.5054V15.0372H61.6468V13.7511H61.9261ZM63.8085 13.7511V14.0304H63.3114V14.2245H63.8085V14.5039H63.3114V14.7579H63.8085V15.0373H63.0321V13.7511H63.8085V13.7511ZM65.0819 14.1204H64.7379C64.6747 14.0652 64.5911 14.0304 64.4996 14.0304C64.2991 14.0304 64.1366 14.193 64.1366 14.395C64.1366 14.5954 64.2991 14.7579 64.4996 14.7579C64.5911 14.7579 64.6747 14.7248 64.7379 14.668H65.0819C64.9777 14.8857 64.7568 15.0372 64.4996 15.0372C64.1445 15.0372 63.8557 14.7501 63.8557 14.395C63.8557 14.0399 64.1445 13.7511 64.4996 13.7511C64.7568 13.7511 64.9777 13.9026 65.0819 14.1204ZM66.1121 13.7511V15.0372H65.8328V14.5038H65.4809V15.0372H65.2015V13.7511H65.4809V14.2245H65.8328V13.7511H66.1121ZM67.3586 15.0372H67.0587L66.9767 14.821H66.5837L66.5001 15.0372H66.2002L66.6973 13.7511H66.8631L67.3586 15.0372ZM66.7794 14.3129L66.691 14.5417H66.8678L66.7794 14.3129ZM67.8239 14.0304V15.0372H67.5446V14.0304H67.2637V13.7511H68.1032V14.0304H67.8239ZM68.2167 13.7511H68.7753C69.0057 13.7511 69.1951 13.9405 69.1951 14.1709C69.1951 14.3366 69.0957 14.4834 68.9521 14.5496L69.1919 15.0372H68.881L68.6601 14.5891H68.496V15.0372H68.2167V13.7511H68.2167ZM68.496 14.0304V14.3098H68.7753C68.8511 14.3098 68.9158 14.2451 68.9158 14.1709C68.9158 14.0936 68.8527 14.0304 68.7753 14.0304H68.496ZM70.5252 14.395C70.5252 14.7501 70.2364 15.0372 69.8814 15.0372C69.5263 15.0372 69.2391 14.7501 69.2391 14.395C69.2391 14.0399 69.5263 13.7511 69.8814 13.7511C70.2364 13.7511 70.5252 14.0399 70.5252 14.395ZM69.5184 14.395C69.5184 14.5954 69.6809 14.7579 69.8814 14.7579C70.0818 14.7579 70.2443 14.5954 70.2443 14.395C70.2443 14.193 70.0818 14.0304 69.8814 14.0304C69.6809 14.0304 69.5184 14.193 69.5184 14.395ZM71.9798 13.7511V15.0372H71.6989V13.7511H71.9798ZM73.34 14.1204H72.996C72.9328 14.0652 72.8492 14.0304 72.7577 14.0304C72.5572 14.0304 72.3947 14.193 72.3947 14.395C72.3947 14.5954 72.5572 14.7579 72.7577 14.7579C72.8492 14.7579 72.9328 14.7248 72.996 14.668H73.34C73.2358 14.8857 73.0149 15.0372 72.7577 15.0372C72.4026 15.0372 72.1138 14.7501 72.1138 14.395C72.1138 14.0399 72.4026 13.7511 72.7577 13.7511C73.0149 13.7511 73.2358 13.9026 73.34 14.1204ZM74.0088 14.2561C74.1572 14.3161 74.2613 14.4612 74.2613 14.6317C74.2613 14.8558 74.0798 15.0372 73.8558 15.0372C73.6443 15.0372 73.4707 14.8747 73.4518 14.668H73.7358C73.7516 14.72 73.7989 14.7579 73.8558 14.7579C73.9252 14.7579 73.982 14.7011 73.982 14.6317C73.982 14.5891 73.9599 14.5512 73.9283 14.5291C73.7264 14.4265 73.507 14.3523 73.507 14.1015C73.507 13.9073 73.6632 13.7511 73.8558 13.7511C74.0467 13.7511 74.2014 13.9026 74.2045 14.092H73.9252C73.9205 14.0572 73.8921 14.0304 73.8557 14.0304C73.8179 14.0304 73.7863 14.062 73.7863 14.1014C73.7863 14.1267 73.8005 14.1504 73.821 14.1614L74.0088 14.2561Z" fill="white"/>
<path d="M62.0438 11.6421C62.3954 11.6421 62.6842 11.9293 62.6842 12.2824C62.6842 12.6324 62.3938 12.9211 62.0438 12.9211H61.6468V11.6421H62.0438V11.6421ZM61.9261 12.6433H62.0438C62.2416 12.6433 62.4064 12.4785 62.4064 12.2824C62.4064 12.0831 62.2431 11.9199 62.0438 11.9199H61.9261V12.6433ZM64.0998 12.2824C64.0998 12.6355 63.8126 12.9211 63.4595 12.9211C63.1064 12.9211 62.8208 12.6355 62.8208 12.2824C62.8208 11.9293 63.1064 11.6421 63.4595 11.6421C63.8127 11.6421 64.0998 11.9293 64.0998 12.2824ZM63.0986 12.2824C63.0986 12.4817 63.2602 12.6433 63.4595 12.6433C63.6589 12.6433 63.8205 12.4817 63.8205 12.2824C63.8205 12.0815 63.6589 11.9199 63.4595 11.9199C63.2602 11.9199 63.0986 12.0815 63.0986 12.2824ZM66.5624 12.0438H66.2407C66.1748 11.9685 66.0775 11.9199 65.9676 11.9199C65.7683 11.9199 65.6067 12.0815 65.6067 12.2824C65.6067 12.4817 65.7683 12.6433 65.9676 12.6433C66.0634 12.6433 66.1512 12.6057 66.2156 12.546H65.9629V12.2667H66.6079C66.6079 12.6276 66.3317 12.9211 65.9676 12.9211C65.6145 12.9211 65.3289 12.6355 65.3289 12.2824C65.3289 11.9293 65.6145 11.6421 65.9676 11.6421C66.2376 11.6421 66.4683 11.8085 66.5624 12.0438ZM67.1342 12.9211H66.8564V12.3875L66.4797 11.6421H66.792L66.9961 12.0454L67.1985 11.6421H67.5108L67.1342 12.3875V12.9211H67.1342ZM68.4631 12.9211H68.1649L68.0833 12.7061H67.6926L67.6094 12.9211H67.3112L67.8055 11.6421H67.9703L68.4631 12.9211ZM67.8872 12.2008L67.7993 12.4283H67.9751L67.8872 12.2008ZM64.3808 11.6421L64.8992 12.3153V11.6421H65.2101V12.9211H65.0459L64.5076 12.2463V12.9211H64.1967V11.6421H64.3808ZM68.7488 11.6421L69.2672 12.3153V11.6421H69.5781V12.9211H69.4138L68.8755 12.2463V12.9211H68.5646V11.6421H68.7488ZM70.9131 12.0438H70.5914C70.5255 11.9685 70.4282 11.9199 70.3183 11.9199C70.119 11.9199 69.9574 12.0815 69.9574 12.2824C69.9574 12.4817 70.119 12.6433 70.3183 12.6433C70.414 12.6433 70.5019 12.6057 70.5663 12.546H70.3136V12.2667H70.9586C70.9586 12.6276 70.6824 12.9211 70.3183 12.9211C69.9652 12.9211 69.6796 12.6355 69.6796 12.2824C69.6796 11.9293 69.9652 11.6421 70.3183 11.6421C70.5883 11.6421 70.819 11.8085 70.9131 12.0438Z" fill="white"/>
<path d="M46.293 11.1603V15.3815L48.4304 13.2709L46.293 11.1603ZM51.1684 10.5579H46.9597L49.0641 12.6452L51.1684 10.5579ZM59.983 10.9706H61.274L59.6756 13.731V15.3815H58.5407V13.731L56.9423 10.9706H58.2333L59.1081 12.7587L59.983 10.9706ZM57.193 12.9827V13.3693C57.193 14.4806 56.2564 15.3814 55.1485 15.3814H53.1499V10.9706H55.1485C56.2564 10.9706 57.193 11.8714 57.193 12.9827ZM56.0469 13.0232C56.0469 12.4348 55.5715 11.958 54.9851 11.958H54.2958V14.3943L54.9851 14.394C55.5715 14.394 56.0471 13.9172 56.0469 13.3289V13.0232ZM47.1157 15.8369H49.6173C50.6019 15.8369 51.4 15.0364 51.4 14.0488V11.5398L47.1157 15.8369Z" fill="white"/>
<path d="M70.8222 13.7511L71.288 14.4281V13.7511H71.5673V15.0372H71.4197L70.9361 14.3587V15.0372H70.6568V13.7511H70.8222ZM61.9261 13.7511L62.2764 14.6285L62.6268 13.7511H62.9061V15.0372H62.6268V14.5054L62.4137 15.0372H62.1392L61.9261 14.5054V15.0372H61.6468V13.7511H61.9261ZM63.8085 13.7511V14.0304H63.3114V14.2245H63.8085V14.5039H63.3114V14.7579H63.8085V15.0373H63.0321V13.7511H63.8085V13.7511ZM65.0819 14.1204H64.7379C64.6747 14.0652 64.5911 14.0304 64.4996 14.0304C64.2991 14.0304 64.1366 14.193 64.1366 14.395C64.1366 14.5954 64.2991 14.7579 64.4996 14.7579C64.5911 14.7579 64.6747 14.7248 64.7379 14.668H65.0819C64.9777 14.8857 64.7568 15.0372 64.4996 15.0372C64.1445 15.0372 63.8557 14.7501 63.8557 14.395C63.8557 14.0399 64.1445 13.7511 64.4996 13.7511C64.7568 13.7511 64.9777 13.9026 65.0819 14.1204ZM66.1121 13.7511V15.0372H65.8328V14.5038H65.4809V15.0372H65.2015V13.7511H65.4809V14.2245H65.8328V13.7511H66.1121ZM67.3586 15.0372H67.0587L66.9767 14.821H66.5837L66.5001 15.0372H66.2002L66.6973 13.7511H66.8631L67.3586 15.0372ZM66.7794 14.3129L66.691 14.5417H66.8678L66.7794 14.3129ZM67.8239 14.0304V15.0372H67.5446V14.0304H67.2637V13.7511H68.1032V14.0304H67.8239ZM68.2167 13.7511H68.7753C69.0057 13.7511 69.1951 13.9405 69.1951 14.1709C69.1951 14.3366 69.0957 14.4834 68.9521 14.5496L69.1919 15.0372H68.881L68.6601 14.5891H68.496V15.0372H68.2167V13.7511H68.2167ZM68.496 14.0304V14.3098H68.7753C68.8511 14.3098 68.9158 14.2451 68.9158 14.1709C68.9158 14.0936 68.8527 14.0304 68.7753 14.0304H68.496ZM70.5252 14.395C70.5252 14.7501 70.2364 15.0372 69.8814 15.0372C69.5263 15.0372 69.2391 14.7501 69.2391 14.395C69.2391 14.0399 69.5263 13.7511 69.8814 13.7511C70.2364 13.7511 70.5252 14.0399 70.5252 14.395ZM69.5184 14.395C69.5184 14.5954 69.6809 14.7579 69.8814 14.7579C70.0818 14.7579 70.2443 14.5954 70.2443 14.395C70.2443 14.193 70.0818 14.0304 69.8814 14.0304C69.6809 14.0304 69.5184 14.193 69.5184 14.395ZM71.9798 13.7511V15.0372H71.6989V13.7511H71.9798ZM73.34 14.1204H72.996C72.9328 14.0652 72.8492 14.0304 72.7577 14.0304C72.5572 14.0304 72.3947 14.193 72.3947 14.395C72.3947 14.5954 72.5572 14.7579 72.7577 14.7579C72.8492 14.7579 72.9328 14.7248 72.996 14.668H73.34C73.2358 14.8857 73.0149 15.0372 72.7577 15.0372C72.4026 15.0372 72.1138 14.7501 72.1138 14.395C72.1138 14.0399 72.4026 13.7511 72.7577 13.7511C73.0149 13.7511 73.2358 13.9026 73.34 14.1204ZM74.0088 14.2561C74.1572 14.3161 74.2613 14.4612 74.2613 14.6317C74.2613 14.8558 74.0798 15.0372 73.8558 15.0372C73.6443 15.0372 73.4707 14.8747 73.4518 14.668H73.7358C73.7516 14.72 73.7989 14.7579 73.8558 14.7579C73.9252 14.7579 73.982 14.7011 73.982 14.6317C73.982 14.5891 73.9599 14.5512 73.9283 14.5291C73.7264 14.4265 73.507 14.3523 73.507 14.1015C73.507 13.9073 73.6632 13.7511 73.8558 13.7511C74.0467 13.7511 74.2014 13.9026 74.2045 14.092H73.9252C73.9205 14.0572 73.8921 14.0304 73.8557 14.0304C73.8179 14.0304 73.7863 14.062 73.7863 14.1014C73.7863 14.1267 73.8005 14.1504 73.821 14.1614L74.0088 14.2561Z" fill="white"/>
<path d="M62.0438 11.6421C62.3954 11.6421 62.6842 11.9293 62.6842 12.2824C62.6842 12.6324 62.3938 12.9211 62.0438 12.9211H61.6468V11.6421H62.0438V11.6421ZM61.9261 12.6433H62.0438C62.2416 12.6433 62.4064 12.4785 62.4064 12.2824C62.4064 12.0831 62.2431 11.9199 62.0438 11.9199H61.9261V12.6433ZM64.0998 12.2824C64.0998 12.6355 63.8126 12.9211 63.4595 12.9211C63.1064 12.9211 62.8208 12.6355 62.8208 12.2824C62.8208 11.9293 63.1064 11.6421 63.4595 11.6421C63.8127 11.6421 64.0998 11.9293 64.0998 12.2824ZM63.0986 12.2824C63.0986 12.4817 63.2602 12.6433 63.4595 12.6433C63.6589 12.6433 63.8205 12.4817 63.8205 12.2824C63.8205 12.0815 63.6589 11.9199 63.4595 11.9199C63.2602 11.9199 63.0986 12.0815 63.0986 12.2824ZM66.5624 12.0438H66.2407C66.1748 11.9685 66.0775 11.9199 65.9676 11.9199C65.7683 11.9199 65.6067 12.0815 65.6067 12.2824C65.6067 12.4817 65.7683 12.6433 65.9676 12.6433C66.0634 12.6433 66.1512 12.6057 66.2156 12.546H65.9629V12.2667H66.6079C66.6079 12.6276 66.3317 12.9211 65.9676 12.9211C65.6145 12.9211 65.3289 12.6355 65.3289 12.2824C65.3289 11.9293 65.6145 11.6421 65.9676 11.6421C66.2376 11.6421 66.4683 11.8085 66.5624 12.0438ZM67.1342 12.9211H66.8564V12.3875L66.4797 11.6421H66.792L66.9961 12.0454L67.1985 11.6421H67.5108L67.1342 12.3875V12.9211H67.1342ZM68.4631 12.9211H68.1649L68.0833 12.7061H67.6926L67.6094 12.9211H67.3112L67.8055 11.6421H67.9703L68.4631 12.9211ZM67.8872 12.2008L67.7993 12.4283H67.9751L67.8872 12.2008ZM64.3808 11.6421L64.8992 12.3153V11.6421H65.2101V12.9211H65.0459L64.5076 12.2463V12.9211H64.1967V11.6421H64.3808ZM68.7488 11.6421L69.2672 12.3153V11.6421H69.5781V12.9211H69.4138L68.8755 12.2463V12.9211H68.5646V11.6421H68.7488ZM70.9131 12.0438H70.5914C70.5255 11.9685 70.4282 11.9199 70.3183 11.9199C70.119 11.9199 69.9574 12.0815 69.9574 12.2824C69.9574 12.4817 70.119 12.6433 70.3183 12.6433C70.414 12.6433 70.5019 12.6057 70.5663 12.546H70.3136V12.2667H70.9586C70.9586 12.6276 70.6824 12.9211 70.3183 12.9211C69.9652 12.9211 69.6796 12.6355 69.6796 12.2824C69.6796 11.9293 69.9652 11.6421 70.3183 11.6421C70.5883 11.6421 70.819 11.8085 70.9131 12.0438Z" fill="white"/>
<path d="M209.737 39.2037H209.19V32.8121L207.584 33.5299V32.9732L209.644 32.0699H209.737V39.2037ZM216.046 39.2037H212.276V38.7447L214.229 36.108C214.412 35.8606 214.565 35.6376 214.688 35.4391C214.815 35.2405 214.916 35.0566 214.991 34.8873C215.069 34.7148 215.124 34.5536 215.157 34.4039C215.19 34.2542 215.206 34.1061 215.206 33.9596C215.206 33.748 215.18 33.5527 215.128 33.3736C215.076 33.1946 214.999 33.0416 214.898 32.9146C214.797 32.7844 214.67 32.6835 214.517 32.6119C214.368 32.5403 214.195 32.5045 214 32.5045C213.795 32.5045 213.611 32.5452 213.448 32.6266C213.285 32.7079 213.147 32.8219 213.033 32.9684C212.922 33.1148 212.836 33.289 212.774 33.4908C212.716 33.6894 212.686 33.9075 212.686 34.1451H212.144C212.144 33.8521 212.187 33.5755 212.271 33.315C212.356 33.0546 212.476 32.8268 212.633 32.6314C212.792 32.4361 212.986 32.2815 213.214 32.1676C213.445 32.0536 213.707 31.9967 214 31.9967C214.27 31.9967 214.514 32.0406 214.732 32.1285C214.95 32.2164 215.134 32.3417 215.284 32.5045C215.437 32.6673 215.554 32.8674 215.635 33.1051C215.717 33.3427 215.758 33.6096 215.758 33.9059C215.758 34.1207 215.725 34.3372 215.66 34.5553C215.595 34.7701 215.509 34.985 215.401 35.1998C215.294 35.4146 215.168 35.6279 215.025 35.8395C214.885 36.051 214.74 36.2594 214.591 36.4645L212.935 38.7008H216.046V39.2037ZM220.767 36.235C220.767 36.7591 220.725 37.2148 220.64 37.6021C220.559 37.9863 220.439 38.3053 220.279 38.5592C220.123 38.8098 219.931 38.997 219.703 39.1207C219.475 39.2411 219.216 39.3014 218.927 39.3014C218.64 39.3014 218.383 39.2411 218.155 39.1207C217.927 38.997 217.733 38.8098 217.574 38.5592C217.414 38.3053 217.291 37.9863 217.203 37.6021C217.118 37.2148 217.076 36.7591 217.076 36.235V35.0436C217.076 34.5195 217.118 34.067 217.203 33.6861C217.288 33.302 217.408 32.9846 217.564 32.734C217.724 32.4833 217.917 32.2978 218.145 32.1773C218.373 32.0569 218.63 31.9967 218.917 31.9967C219.203 31.9967 219.46 32.0569 219.688 32.1773C219.919 32.2978 220.115 32.4833 220.274 32.734C220.434 32.9846 220.556 33.302 220.64 33.6861C220.725 34.067 220.767 34.5195 220.767 35.0436V36.235ZM220.22 34.9654C220.22 34.1516 220.111 33.538 219.893 33.1246C219.678 32.7112 219.353 32.5045 218.917 32.5045C218.487 32.5045 218.162 32.7112 217.94 33.1246C217.722 33.538 217.613 34.1516 217.613 34.9654V36.3033C217.613 36.7037 217.641 37.0585 217.696 37.3678C217.755 37.677 217.838 37.9374 217.945 38.149C218.056 38.3606 218.192 38.5217 218.355 38.6324C218.521 38.7431 218.712 38.7984 218.927 38.7984C219.145 38.7984 219.333 38.7431 219.493 38.6324C219.656 38.5217 219.791 38.3606 219.898 38.149C220.006 37.9374 220.085 37.677 220.137 37.3678C220.193 37.0585 220.22 36.7037 220.22 36.3033V34.9654ZM225.631 36.235C225.631 36.7591 225.588 37.2148 225.504 37.6021C225.422 37.9863 225.302 38.3053 225.142 38.5592C224.986 38.8098 224.794 38.997 224.566 39.1207C224.338 39.2411 224.08 39.3014 223.79 39.3014C223.503 39.3014 223.246 39.2411 223.018 39.1207C222.79 38.997 222.597 38.8098 222.437 38.5592C222.278 38.3053 222.154 37.9863 222.066 37.6021C221.982 37.2148 221.939 36.7591 221.939 36.235V35.0436C221.939 34.5195 221.982 34.067 222.066 33.6861C222.151 33.302 222.271 32.9846 222.427 32.734C222.587 32.4833 222.781 32.2978 223.009 32.1773C223.236 32.0569 223.494 31.9967 223.78 31.9967C224.066 31.9967 224.324 32.0569 224.552 32.1773C224.783 32.2978 224.978 32.4833 225.137 32.734C225.297 32.9846 225.419 33.302 225.504 33.6861C225.588 34.067 225.631 34.5195 225.631 35.0436V36.235ZM225.084 34.9654C225.084 34.1516 224.975 33.538 224.757 33.1246C224.542 32.7112 224.216 32.5045 223.78 32.5045C223.35 32.5045 223.025 32.7112 222.803 33.1246C222.585 33.538 222.476 34.1516 222.476 34.9654V36.3033C222.476 36.7037 222.504 37.0585 222.559 37.3678C222.618 37.677 222.701 37.9374 222.808 38.149C222.919 38.3606 223.056 38.5217 223.219 38.6324C223.385 38.7431 223.575 38.7984 223.79 38.7984C224.008 38.7984 224.197 38.7431 224.356 38.6324C224.519 38.5217 224.654 38.3606 224.761 38.149C224.869 37.9374 224.949 37.677 225.001 37.3678C225.056 37.0585 225.084 36.7037 225.084 36.3033V34.9654ZM230.421 36.7916H229.771V39.2037H229.224V33.9205H229.771V36.2594H230.411L232.012 33.9205H232.686L230.865 36.4742L232.877 39.2037H232.169L230.421 36.7916ZM236.549 34.4332H234.346V39.2037H233.8V33.9205H236.549V34.4332ZM210.938 49.2037H210.396V46.7867H208.072V49.2037H207.525V43.9205H208.072V46.2838H210.396V43.9205H210.938V49.2037ZM215.22 49.2037C215.194 49.1158 215.173 49.0068 215.157 48.8766C215.141 48.7431 215.129 48.608 215.123 48.4713C215.054 48.582 214.973 48.6878 214.879 48.7887C214.784 48.8863 214.675 48.9742 214.552 49.0523C214.431 49.1272 214.296 49.1874 214.146 49.233C213.997 49.2786 213.835 49.3014 213.663 49.3014C213.445 49.3014 213.246 49.2704 213.067 49.2086C212.891 49.1467 212.74 49.054 212.613 48.9303C212.486 48.8066 212.388 48.652 212.32 48.4664C212.252 48.2809 212.218 48.0644 212.218 47.817C212.218 47.5729 212.26 47.3482 212.344 47.1432C212.429 46.9348 212.554 46.7558 212.72 46.6061C212.89 46.4563 213.1 46.3391 213.35 46.2545C213.601 46.1699 213.892 46.1275 214.224 46.1275H215.118V45.3902C215.118 45.0126 215.024 44.7424 214.835 44.5797C214.649 44.4137 214.376 44.3307 214.014 44.3307C213.845 44.3307 213.689 44.3567 213.546 44.4088C213.406 44.4609 213.285 44.5341 213.184 44.6285C213.083 44.7197 213.005 44.8303 212.95 44.9605C212.895 45.0875 212.867 45.2275 212.867 45.3805L212.325 45.3756C212.325 45.1705 212.366 44.9752 212.447 44.7896C212.528 44.6008 212.644 44.4348 212.794 44.2916C212.943 44.1484 213.124 44.0344 213.336 43.9498C213.547 43.8652 213.782 43.8229 214.039 43.8229C214.276 43.8229 214.493 43.8521 214.688 43.9107C214.887 43.9661 215.058 44.0572 215.201 44.1842C215.344 44.3079 215.455 44.4706 215.533 44.6725C215.614 44.871 215.655 45.1135 215.655 45.4V48.0953C215.655 48.1865 215.658 48.2809 215.665 48.3785C215.671 48.4762 215.679 48.5722 215.689 48.6666C215.702 48.7577 215.717 48.8456 215.733 48.9303C215.753 49.0117 215.774 49.0833 215.797 49.1451V49.2037H215.22ZM213.731 48.7789C213.9 48.7789 214.058 48.7561 214.205 48.7105C214.355 48.6617 214.488 48.5966 214.605 48.5152C214.722 48.4306 214.823 48.3329 214.908 48.2223C214.996 48.1116 215.066 47.9928 215.118 47.8658V46.5816H214.302C213.791 46.5816 213.407 46.6891 213.15 46.9039C212.893 47.1188 212.764 47.4085 212.764 47.773C212.764 48.1214 212.849 48.3769 213.018 48.5396C213.191 48.6992 213.428 48.7789 213.731 48.7789ZM221.632 49.2037H221.085V42.8121L219.478 43.5299V42.9732L221.539 42.0699H221.632V49.2037ZM227.799 46.235C227.799 46.7591 227.756 47.2148 227.672 47.6021C227.59 47.9863 227.47 48.3053 227.31 48.5592C227.154 48.8098 226.962 48.997 226.734 49.1207C226.506 49.2411 226.247 49.3014 225.958 49.3014C225.671 49.3014 225.414 49.2411 225.186 49.1207C224.958 48.997 224.765 48.8098 224.605 48.5592C224.446 48.3053 224.322 47.9863 224.234 47.6021C224.149 47.2148 224.107 46.7591 224.107 46.235V45.0436C224.107 44.5195 224.149 44.067 224.234 43.6861C224.319 43.302 224.439 42.9846 224.595 42.734C224.755 42.4833 224.949 42.2978 225.177 42.1773C225.404 42.0569 225.662 41.9967 225.948 41.9967C226.234 41.9967 226.492 42.0569 226.719 42.1773C226.951 42.2978 227.146 42.4833 227.305 42.734C227.465 42.9846 227.587 43.302 227.672 43.6861C227.756 44.067 227.799 44.5195 227.799 45.0436V46.235ZM227.252 44.9654C227.252 44.1516 227.143 43.538 226.925 43.1246C226.71 42.7112 226.384 42.5045 225.948 42.5045C225.518 42.5045 225.193 42.7112 224.971 43.1246C224.753 43.538 224.644 44.1516 224.644 44.9654V46.3033C224.644 46.7037 224.672 47.0585 224.727 47.3678C224.786 47.677 224.869 47.9374 224.976 48.149C225.087 48.3606 225.224 48.5217 225.386 48.6324C225.552 48.7431 225.743 48.7984 225.958 48.7984C226.176 48.7984 226.365 48.7431 226.524 48.6324C226.687 48.5217 226.822 48.3606 226.929 48.149C227.037 47.9374 227.117 47.677 227.169 47.3678C227.224 47.0585 227.252 46.7037 227.252 46.3033V44.9654ZM229.708 48.9645C229.708 49.1109 229.691 49.2574 229.659 49.4039C229.63 49.5504 229.586 49.6904 229.527 49.8238C229.469 49.9605 229.397 50.0891 229.312 50.2096C229.228 50.33 229.132 50.4391 229.024 50.5367L228.677 50.2779C228.827 50.0761 228.941 49.8727 229.019 49.6676C229.097 49.4625 229.136 49.2314 229.136 48.9742V48.276H229.708V48.9645ZM233.858 42.0455V42.568H233.785C233.427 42.568 233.109 42.6331 232.833 42.7633C232.556 42.8902 232.322 43.0758 232.13 43.3199C231.938 43.5608 231.786 43.8538 231.676 44.1988C231.568 44.5439 231.503 44.9313 231.48 45.3609C231.646 45.0973 231.853 44.8938 232.1 44.7506C232.348 44.6074 232.623 44.5357 232.926 44.5357C233.212 44.5357 233.463 44.5992 233.677 44.7262C233.896 44.8531 234.075 45.024 234.215 45.2389C234.358 45.4505 234.465 45.6979 234.537 45.9811C234.608 46.2643 234.644 46.5621 234.644 46.8746C234.644 47.2164 234.604 47.5354 234.522 47.8316C234.441 48.1279 234.324 48.385 234.171 48.6031C234.018 48.818 233.83 48.9889 233.609 49.1158C233.391 49.2395 233.142 49.3014 232.862 49.3014C232.556 49.3014 232.283 49.233 232.042 49.0963C231.804 48.9563 231.602 48.7675 231.436 48.5299C231.27 48.2923 231.143 48.0156 231.055 47.6998C230.971 47.3841 230.928 47.0471 230.928 46.6891V46.0689C230.928 45.4667 230.982 44.9182 231.09 44.4234C231.2 43.9286 231.371 43.5055 231.602 43.1539C231.837 42.8023 232.133 42.5305 232.491 42.3385C232.852 42.1432 233.284 42.0455 233.785 42.0455H233.858ZM232.838 45.0484C232.681 45.0484 232.53 45.0777 232.384 45.1363C232.237 45.1949 232.102 45.2763 231.978 45.3805C231.858 45.4846 231.754 45.6083 231.666 45.7516C231.578 45.8915 231.513 46.0445 231.47 46.2105V46.6988C231.47 47.0276 231.506 47.3222 231.578 47.5826C231.653 47.8398 231.752 48.0579 231.876 48.2369C232.003 48.416 232.151 48.5543 232.32 48.652C232.489 48.7464 232.67 48.7936 232.862 48.7936C233.057 48.7936 233.232 48.7447 233.385 48.6471C233.541 48.5462 233.673 48.4111 233.78 48.2418C233.887 48.0693 233.969 47.8674 234.024 47.6363C234.083 47.4052 234.112 47.1594 234.112 46.899C234.112 46.6516 234.086 46.4156 234.034 46.191C233.982 45.9664 233.902 45.7695 233.795 45.6002C233.691 45.4309 233.559 45.2975 233.399 45.1998C233.24 45.0989 233.052 45.0484 232.838 45.0484ZM238.36 48.398L240.079 43.9205H240.748V49.2037H240.206V44.9605L238.551 49.2037H238.17L236.48 44.8531V49.2037H235.943V43.9205H236.651L238.36 48.398Z" fill="black"/>
<path d="M158.691 39.2037H158.144V32.8121L156.538 33.5299V32.9732L158.598 32.0699H158.691V39.2037ZM161.562 35.5611L161.855 32.0943H164.858V32.651H162.319L162.119 35.0338C162.171 34.9915 162.234 34.9475 162.309 34.902C162.384 34.8531 162.469 34.8108 162.563 34.775C162.658 34.7359 162.758 34.705 162.866 34.6822C162.977 34.6562 163.094 34.6432 163.217 34.6432C163.484 34.6432 163.727 34.6969 163.945 34.8043C164.163 34.9085 164.349 35.0598 164.502 35.2584C164.655 35.457 164.773 35.6979 164.858 35.9811C164.943 36.2643 164.985 36.5833 164.985 36.9381C164.985 37.2799 164.949 37.5956 164.878 37.8854C164.806 38.1718 164.697 38.4208 164.55 38.6324C164.404 38.8408 164.217 39.0051 163.989 39.1256C163.764 39.2428 163.496 39.3014 163.183 39.3014C162.942 39.3014 162.716 39.2623 162.505 39.1842C162.296 39.1028 162.111 38.9807 161.948 38.818C161.785 38.6552 161.652 38.4501 161.548 38.2027C161.443 37.9553 161.38 37.6656 161.357 37.3336H161.875C161.92 37.8121 162.055 38.1767 162.28 38.4273C162.505 38.6747 162.806 38.7984 163.183 38.7984C163.597 38.7984 163.909 38.6373 164.121 38.315C164.336 37.9928 164.443 37.537 164.443 36.9479C164.443 36.7005 164.414 36.4693 164.355 36.2545C164.297 36.0396 164.21 35.8541 164.096 35.6979C163.986 35.5383 163.847 35.4146 163.681 35.3268C163.519 35.2356 163.33 35.19 163.115 35.19C162.972 35.19 162.846 35.2031 162.739 35.2291C162.632 35.2519 162.534 35.2861 162.446 35.3316C162.361 35.374 162.282 35.426 162.207 35.4879C162.135 35.5497 162.063 35.6197 161.992 35.6979L161.562 35.5611ZM169.721 36.235C169.721 36.7591 169.679 37.2148 169.594 37.6021C169.513 37.9863 169.393 38.3053 169.233 38.5592C169.077 38.8098 168.885 38.997 168.657 39.1207C168.429 39.2411 168.17 39.3014 167.881 39.3014C167.594 39.3014 167.337 39.2411 167.109 39.1207C166.881 38.997 166.688 38.8098 166.528 38.5592C166.369 38.3053 166.245 37.9863 166.157 37.6021C166.072 37.2148 166.03 36.7591 166.03 36.235V35.0436C166.03 34.5195 166.072 34.067 166.157 33.6861C166.242 33.302 166.362 32.9846 166.518 32.734C166.678 32.4833 166.871 32.2978 167.099 32.1773C167.327 32.0569 167.584 31.9967 167.871 31.9967C168.157 31.9967 168.414 32.0569 168.642 32.1773C168.873 32.2978 169.069 32.4833 169.228 32.734C169.388 32.9846 169.51 33.302 169.594 33.6861C169.679 34.067 169.721 34.5195 169.721 35.0436V36.235ZM169.174 34.9654C169.174 34.1516 169.065 33.538 168.847 33.1246C168.633 32.7112 168.307 32.5045 167.871 32.5045C167.441 32.5045 167.116 32.7112 166.894 33.1246C166.676 33.538 166.567 34.1516 166.567 34.9654V36.3033C166.567 36.7037 166.595 37.0585 166.65 37.3678C166.709 37.677 166.792 37.9374 166.899 38.149C167.01 38.3606 167.147 38.5217 167.309 38.6324C167.475 38.7431 167.666 38.7984 167.881 38.7984C168.099 38.7984 168.287 38.7431 168.447 38.6324C168.61 38.5217 168.745 38.3606 168.852 38.149C168.96 37.9374 169.039 37.677 169.091 37.3678C169.147 37.0585 169.174 36.7037 169.174 36.3033V34.9654ZM174.585 36.235C174.585 36.7591 174.542 37.2148 174.458 37.6021C174.376 37.9863 174.256 38.3053 174.096 38.5592C173.94 38.8098 173.748 38.997 173.52 39.1207C173.292 39.2411 173.034 39.3014 172.744 39.3014C172.457 39.3014 172.2 39.2411 171.972 39.1207C171.744 38.997 171.551 38.8098 171.391 38.5592C171.232 38.3053 171.108 37.9863 171.02 37.6021C170.936 37.2148 170.893 36.7591 170.893 36.235V35.0436C170.893 34.5195 170.936 34.067 171.02 33.6861C171.105 33.302 171.225 32.9846 171.382 32.734C171.541 32.4833 171.735 32.2978 171.963 32.1773C172.19 32.0569 172.448 31.9967 172.734 31.9967C173.021 31.9967 173.278 32.0569 173.506 32.1773C173.737 32.2978 173.932 32.4833 174.091 32.734C174.251 32.9846 174.373 33.302 174.458 33.6861C174.542 34.067 174.585 34.5195 174.585 35.0436V36.235ZM174.038 34.9654C174.038 34.1516 173.929 33.538 173.711 33.1246C173.496 32.7112 173.17 32.5045 172.734 32.5045C172.304 32.5045 171.979 32.7112 171.758 33.1246C171.539 33.538 171.43 34.1516 171.43 34.9654V36.3033C171.43 36.7037 171.458 37.0585 171.513 37.3678C171.572 37.677 171.655 37.9374 171.762 38.149C171.873 38.3606 172.01 38.5217 172.173 38.6324C172.339 38.7431 172.529 38.7984 172.744 38.7984C172.962 38.7984 173.151 38.7431 173.31 38.6324C173.473 38.5217 173.608 38.3606 173.716 38.149C173.823 37.9374 173.903 37.677 173.955 37.3678C174.01 37.0585 174.038 36.7037 174.038 36.3033V34.9654ZM179.375 36.7916H178.725V39.2037H178.178V33.9205H178.725V36.2594H179.365L180.966 33.9205H181.64L179.819 36.4742L181.831 39.2037H181.123L179.375 36.7916ZM185.503 34.4332H183.3V39.2037H182.754V33.9205H185.503V34.4332ZM159.892 49.2037H159.35V46.7867H157.026V49.2037H156.479V43.9205H157.026V46.2838H159.35V43.9205H159.892V49.2037ZM164.174 49.2037C164.148 49.1158 164.127 49.0068 164.111 48.8766C164.095 48.7431 164.083 48.608 164.077 48.4713C164.008 48.582 163.927 48.6878 163.833 48.7887C163.738 48.8863 163.629 48.9742 163.506 49.0523C163.385 49.1272 163.25 49.1874 163.1 49.233C162.951 49.2786 162.789 49.3014 162.617 49.3014C162.399 49.3014 162.2 49.2704 162.021 49.2086C161.845 49.1467 161.694 49.054 161.567 48.9303C161.44 48.8066 161.342 48.652 161.274 48.4664C161.206 48.2809 161.172 48.0644 161.172 47.817C161.172 47.5729 161.214 47.3482 161.299 47.1432C161.383 46.9348 161.508 46.7558 161.674 46.6061C161.844 46.4563 162.054 46.3391 162.304 46.2545C162.555 46.1699 162.846 46.1275 163.178 46.1275H164.072V45.3902C164.072 45.0126 163.978 44.7424 163.789 44.5797C163.603 44.4137 163.33 44.3307 162.968 44.3307C162.799 44.3307 162.643 44.3567 162.5 44.4088C162.36 44.4609 162.239 44.5341 162.138 44.6285C162.037 44.7197 161.959 44.8303 161.904 44.9605C161.849 45.0875 161.821 45.2275 161.821 45.3805L161.279 45.3756C161.279 45.1705 161.32 44.9752 161.401 44.7896C161.482 44.6008 161.598 44.4348 161.748 44.2916C161.897 44.1484 162.078 44.0344 162.29 43.9498C162.501 43.8652 162.736 43.8229 162.993 43.8229C163.23 43.8229 163.447 43.8521 163.642 43.9107C163.841 43.9661 164.012 44.0572 164.155 44.1842C164.298 44.3079 164.409 44.4706 164.487 44.6725C164.568 44.871 164.609 45.1135 164.609 45.4V48.0953C164.609 48.1865 164.612 48.2809 164.619 48.3785C164.625 48.4762 164.633 48.5722 164.643 48.6666C164.656 48.7577 164.671 48.8456 164.687 48.9303C164.707 49.0117 164.728 49.0833 164.751 49.1451V49.2037H164.174ZM162.685 48.7789C162.855 48.7789 163.012 48.7561 163.159 48.7105C163.309 48.6617 163.442 48.5966 163.559 48.5152C163.676 48.4306 163.777 48.3329 163.862 48.2223C163.95 48.1116 164.02 47.9928 164.072 47.8658V46.5816H163.257C162.745 46.5816 162.361 46.6891 162.104 46.9039C161.847 47.1188 161.718 47.4085 161.718 47.773C161.718 48.1214 161.803 48.3769 161.972 48.5396C162.145 48.6992 162.383 48.7789 162.685 48.7789ZM171.797 43.9254C171.797 44.1109 171.772 44.2883 171.723 44.4576C171.678 44.6236 171.613 44.7766 171.528 44.9166C171.443 45.0533 171.341 45.177 171.22 45.2877C171.103 45.3951 170.971 45.4846 170.825 45.5563C170.994 45.6279 171.147 45.7206 171.284 45.8346C171.424 45.9485 171.543 46.082 171.64 46.235C171.741 46.3847 171.818 46.5507 171.87 46.733C171.925 46.9153 171.953 47.1106 171.953 47.3189C171.953 47.6412 171.902 47.926 171.801 48.1734C171.704 48.4208 171.569 48.6292 171.396 48.7984C171.227 48.9645 171.027 49.0898 170.796 49.1744C170.564 49.2591 170.317 49.3014 170.053 49.3014C169.783 49.3014 169.533 49.2591 169.301 49.1744C169.07 49.0898 168.869 48.9645 168.696 48.7984C168.527 48.6292 168.393 48.4208 168.296 48.1734C168.198 47.926 168.149 47.6412 168.149 47.3189C168.149 47.1106 168.175 46.9153 168.227 46.733C168.279 46.5507 168.354 46.3847 168.452 46.235C168.549 46.082 168.667 45.9485 168.803 45.8346C168.94 45.7206 169.091 45.6279 169.258 45.5563C169.111 45.4846 168.978 45.3951 168.857 45.2877C168.74 45.177 168.639 45.0533 168.554 44.9166C168.473 44.7766 168.41 44.6236 168.364 44.4576C168.318 44.2883 168.296 44.1109 168.296 43.9254C168.296 43.6161 168.34 43.3427 168.427 43.1051C168.515 42.8642 168.637 42.6624 168.794 42.4996C168.95 42.3336 169.134 42.2083 169.345 42.1236C169.56 42.039 169.793 41.9967 170.044 41.9967C170.291 41.9967 170.522 42.039 170.737 42.1236C170.952 42.2083 171.137 42.3336 171.294 42.4996C171.45 42.6624 171.572 42.8642 171.66 43.1051C171.751 43.3427 171.797 43.6161 171.797 43.9254ZM171.406 47.3189C171.406 47.0943 171.372 46.8893 171.303 46.7037C171.235 46.5182 171.139 46.3603 171.015 46.2301C170.895 46.0966 170.752 45.9941 170.586 45.9225C170.42 45.8476 170.239 45.8102 170.044 45.8102C169.845 45.8102 169.663 45.8476 169.497 45.9225C169.331 45.9941 169.188 46.0966 169.067 46.2301C168.947 46.3603 168.852 46.5182 168.784 46.7037C168.719 46.8893 168.686 47.0943 168.686 47.3189C168.686 47.5533 168.719 47.7633 168.784 47.9488C168.852 48.1311 168.947 48.2857 169.067 48.4127C169.188 48.5396 169.331 48.6357 169.497 48.7008C169.666 48.7659 169.852 48.7984 170.053 48.7984C170.252 48.7984 170.433 48.7659 170.595 48.7008C170.761 48.6357 170.905 48.5396 171.025 48.4127C171.146 48.2857 171.238 48.1311 171.303 47.9488C171.372 47.7633 171.406 47.5533 171.406 47.3189ZM171.255 43.9205C171.255 43.7154 171.224 43.5266 171.162 43.3541C171.1 43.1783 171.015 43.0286 170.908 42.9049C170.8 42.7779 170.672 42.6803 170.522 42.6119C170.376 42.5403 170.216 42.5045 170.044 42.5045C169.868 42.5045 169.707 42.537 169.56 42.6021C169.414 42.6673 169.287 42.7617 169.179 42.8854C169.075 43.0058 168.992 43.1539 168.93 43.3297C168.872 43.5055 168.842 43.7024 168.842 43.9205C168.842 44.1321 168.872 44.3242 168.93 44.4967C168.989 44.666 169.072 44.8108 169.179 44.9313C169.287 45.0484 169.414 45.1396 169.56 45.2047C169.71 45.2698 169.873 45.3023 170.049 45.3023C170.221 45.3023 170.381 45.2698 170.527 45.2047C170.677 45.1396 170.805 45.0484 170.913 44.9313C171.02 44.8108 171.103 44.666 171.162 44.4967C171.224 44.3242 171.255 44.1321 171.255 43.9205ZM173.799 48.9645C173.799 49.1109 173.782 49.2574 173.75 49.4039C173.72 49.5504 173.676 49.6904 173.618 49.8238C173.559 49.9605 173.488 50.0891 173.403 50.2096C173.318 50.33 173.222 50.4391 173.115 50.5367L172.768 50.2779C172.918 50.0761 173.032 49.8727 173.11 49.6676C173.188 49.4625 173.227 49.2314 173.227 48.9742V48.276H173.799V48.9645ZM176.128 45.3268H176.64C176.865 45.3268 177.06 45.291 177.226 45.2193C177.396 45.1445 177.537 45.0452 177.651 44.9215C177.765 44.7978 177.85 44.6529 177.905 44.4869C177.964 44.3176 177.993 44.1386 177.993 43.9498C177.993 43.735 177.968 43.5396 177.92 43.3639C177.871 43.1848 177.796 43.0318 177.695 42.9049C177.594 42.7779 177.467 42.6803 177.314 42.6119C177.164 42.5403 176.985 42.5045 176.777 42.5045C176.595 42.5045 176.425 42.5387 176.269 42.607C176.116 42.6721 175.983 42.7682 175.869 42.8951C175.758 43.0221 175.67 43.1751 175.605 43.3541C175.543 43.5331 175.512 43.735 175.512 43.9596H174.97C174.97 43.6731 175.014 43.4094 175.102 43.1686C175.193 42.9277 175.319 42.721 175.478 42.5484C175.641 42.3759 175.833 42.2408 176.054 42.1432C176.276 42.0455 176.517 41.9967 176.777 41.9967C177.041 41.9967 177.28 42.0406 177.495 42.1285C177.713 42.2164 177.898 42.345 178.051 42.5143C178.208 42.6803 178.327 42.8854 178.408 43.1295C178.493 43.3736 178.535 43.6536 178.535 43.9693C178.535 44.1288 178.514 44.2883 178.471 44.4479C178.429 44.6041 178.366 44.7522 178.281 44.8922C178.196 45.0322 178.091 45.1607 177.964 45.2779C177.837 45.3919 177.688 45.4863 177.519 45.5611C177.718 45.6262 177.887 45.7158 178.027 45.8297C178.17 45.9436 178.287 46.0755 178.379 46.2252C178.47 46.3717 178.536 46.5344 178.579 46.7135C178.621 46.8893 178.642 47.0748 178.642 47.2701C178.642 47.5924 178.595 47.8805 178.501 48.1344C178.41 48.385 178.281 48.5982 178.115 48.774C177.949 48.9466 177.752 49.0784 177.524 49.1695C177.299 49.2574 177.055 49.3014 176.792 49.3014C176.548 49.3014 176.31 49.2591 176.079 49.1744C175.851 49.0898 175.647 48.9645 175.468 48.7984C175.293 48.6292 175.151 48.4192 175.044 48.1686C174.939 47.9146 174.887 47.6184 174.887 47.2799H175.429C175.429 47.5045 175.462 47.7096 175.527 47.8951C175.595 48.0807 175.688 48.2402 175.805 48.3736C175.926 48.5071 176.069 48.6113 176.235 48.6861C176.404 48.761 176.59 48.7984 176.792 48.7984C177.205 48.7984 177.526 48.6699 177.754 48.4127C177.985 48.1523 178.1 47.7779 178.1 47.2896C178.1 47.0357 178.064 46.8176 177.993 46.6354C177.924 46.4498 177.825 46.2984 177.695 46.1813C177.568 46.0608 177.415 45.9729 177.236 45.9176C177.057 45.8622 176.858 45.8346 176.64 45.8346H176.128V45.3268ZM182.451 48.398L184.17 43.9205H184.839V49.2037H184.297V44.9605L182.641 49.2037H182.26L180.571 44.8531V49.2037H180.034V43.9205H180.742L182.451 48.398Z" fill="black"/>
<path d="M105.044 39.2037H101.275V38.7447L103.228 36.108C103.41 35.8606 103.563 35.6376 103.687 35.4391C103.814 35.2405 103.915 35.0566 103.99 34.8873C104.068 34.7148 104.123 34.5536 104.156 34.4039C104.188 34.2542 104.204 34.1061 104.204 33.9596C104.204 33.748 104.178 33.5527 104.126 33.3736C104.074 33.1946 103.998 33.0416 103.897 32.9146C103.796 32.7844 103.669 32.6835 103.516 32.6119C103.366 32.5403 103.194 32.5045 102.998 32.5045C102.793 32.5045 102.609 32.5452 102.447 32.6266C102.284 32.7079 102.145 32.8219 102.031 32.9684C101.921 33.1148 101.835 33.289 101.773 33.4908C101.714 33.6894 101.685 33.9075 101.685 34.1451H101.143C101.143 33.8521 101.185 33.5755 101.27 33.315C101.354 33.0546 101.475 32.8268 101.631 32.6314C101.791 32.4361 101.984 32.2815 102.212 32.1676C102.443 32.0536 102.705 31.9967 102.998 31.9967C103.268 31.9967 103.513 32.0406 103.731 32.1285C103.949 32.2164 104.133 32.3417 104.282 32.5045C104.435 32.6673 104.553 32.8674 104.634 33.1051C104.715 33.3427 104.756 33.6096 104.756 33.9059C104.756 34.1207 104.724 34.3372 104.658 34.5553C104.593 34.7701 104.507 34.985 104.4 35.1998C104.292 35.4146 104.167 35.6279 104.024 35.8395C103.884 36.051 103.739 36.2594 103.589 36.4645L101.934 38.7008H105.044V39.2037ZM109.185 36.9088H110.098V37.4166H109.185V39.2037H108.643V37.4166H105.85V37.0699L108.599 32.0943H109.185V36.9088ZM106.499 36.9088H108.643V32.9146L108.448 33.3102L106.499 36.9088ZM114.629 36.235C114.629 36.7591 114.587 37.2148 114.502 37.6021C114.421 37.9863 114.3 38.3053 114.141 38.5592C113.985 38.8098 113.793 38.997 113.565 39.1207C113.337 39.2411 113.078 39.3014 112.788 39.3014C112.502 39.3014 112.245 39.2411 112.017 39.1207C111.789 38.997 111.595 38.8098 111.436 38.5592C111.276 38.3053 111.153 37.9863 111.065 37.6021C110.98 37.2148 110.938 36.7591 110.938 36.235V35.0436C110.938 34.5195 110.98 34.067 111.065 33.6861C111.149 33.302 111.27 32.9846 111.426 32.734C111.586 32.4833 111.779 32.2978 112.007 32.1773C112.235 32.0569 112.492 31.9967 112.779 31.9967C113.065 31.9967 113.322 32.0569 113.55 32.1773C113.781 32.2978 113.976 32.4833 114.136 32.734C114.295 32.9846 114.418 33.302 114.502 33.6861C114.587 34.067 114.629 34.5195 114.629 35.0436V36.235ZM114.082 34.9654C114.082 34.1516 113.973 33.538 113.755 33.1246C113.54 32.7112 113.215 32.5045 112.779 32.5045C112.349 32.5045 112.023 32.7112 111.802 33.1246C111.584 33.538 111.475 34.1516 111.475 34.9654V36.3033C111.475 36.7037 111.503 37.0585 111.558 37.3678C111.616 37.677 111.699 37.9374 111.807 38.149C111.918 38.3606 112.054 38.5217 112.217 38.6324C112.383 38.7431 112.573 38.7984 112.788 38.7984C113.006 38.7984 113.195 38.7431 113.355 38.6324C113.517 38.5217 113.653 38.3606 113.76 38.149C113.867 37.9374 113.947 37.677 113.999 37.3678C114.055 37.0585 114.082 36.7037 114.082 36.3033V34.9654ZM119.492 36.235C119.492 36.7591 119.45 37.2148 119.365 37.6021C119.284 37.9863 119.164 38.3053 119.004 38.5592C118.848 38.8098 118.656 38.997 118.428 39.1207C118.2 39.2411 117.941 39.3014 117.652 39.3014C117.365 39.3014 117.108 39.2411 116.88 39.1207C116.652 38.997 116.459 38.8098 116.299 38.5592C116.14 38.3053 116.016 37.9863 115.928 37.6021C115.843 37.2148 115.801 36.7591 115.801 36.235V35.0436C115.801 34.5195 115.843 34.067 115.928 33.6861C116.013 33.302 116.133 32.9846 116.289 32.734C116.449 32.4833 116.642 32.2978 116.87 32.1773C117.098 32.0569 117.355 31.9967 117.642 31.9967C117.928 31.9967 118.185 32.0569 118.413 32.1773C118.644 32.2978 118.84 32.4833 118.999 32.734C119.159 32.9846 119.281 33.302 119.365 33.6861C119.45 34.067 119.492 34.5195 119.492 35.0436V36.235ZM118.946 34.9654C118.946 34.1516 118.837 33.538 118.618 33.1246C118.404 32.7112 118.078 32.5045 117.642 32.5045C117.212 32.5045 116.887 32.7112 116.665 33.1246C116.447 33.538 116.338 34.1516 116.338 34.9654V36.3033C116.338 36.7037 116.366 37.0585 116.421 37.3678C116.48 37.677 116.563 37.9374 116.67 38.149C116.781 38.3606 116.918 38.5217 117.08 38.6324C117.246 38.7431 117.437 38.7984 117.652 38.7984C117.87 38.7984 118.059 38.7431 118.218 38.6324C118.381 38.5217 118.516 38.3606 118.623 38.149C118.731 37.9374 118.81 37.677 118.863 37.3678C118.918 37.0585 118.946 36.7037 118.946 36.3033V34.9654ZM124.282 36.7916H123.633V39.2037H123.086V33.9205H123.633V36.2594H124.273L125.874 33.9205H126.548L124.727 36.4742L126.739 39.2037H126.031L124.282 36.7916ZM130.41 34.4332H128.208V39.2037H127.661V33.9205H130.41V34.4332ZM104.8 49.2037H104.258V46.7867H101.934V49.2037H101.387V43.9205H101.934V46.2838H104.258V43.9205H104.8V49.2037ZM109.082 49.2037C109.056 49.1158 109.035 49.0068 109.019 48.8766C109.003 48.7431 108.991 48.608 108.985 48.4713C108.916 48.582 108.835 48.6878 108.74 48.7887C108.646 48.8863 108.537 48.9742 108.413 49.0523C108.293 49.1272 108.158 49.1874 108.008 49.233C107.858 49.2786 107.697 49.3014 107.525 49.3014C107.307 49.3014 107.108 49.2704 106.929 49.2086C106.753 49.1467 106.602 49.054 106.475 48.9303C106.348 48.8066 106.25 48.652 106.182 48.4664C106.114 48.2809 106.079 48.0644 106.079 47.817C106.079 47.5729 106.122 47.3482 106.206 47.1432C106.291 46.9348 106.416 46.7558 106.582 46.6061C106.752 46.4563 106.962 46.3391 107.212 46.2545C107.463 46.1699 107.754 46.1275 108.086 46.1275H108.98V45.3902C108.98 45.0126 108.885 44.7424 108.697 44.5797C108.511 44.4137 108.238 44.3307 107.876 44.3307C107.707 44.3307 107.551 44.3567 107.407 44.4088C107.267 44.4609 107.147 44.5341 107.046 44.6285C106.945 44.7197 106.867 44.8303 106.812 44.9605C106.756 45.0875 106.729 45.2275 106.729 45.3805L106.187 45.3756C106.187 45.1705 106.227 44.9752 106.309 44.7896C106.39 44.6008 106.506 44.4348 106.656 44.2916C106.805 44.1484 106.986 44.0344 107.198 43.9498C107.409 43.8652 107.643 43.8229 107.901 43.8229C108.138 43.8229 108.355 43.8521 108.55 43.9107C108.749 43.9661 108.92 44.0572 109.063 44.1842C109.206 44.3079 109.317 44.4706 109.395 44.6725C109.476 44.871 109.517 45.1135 109.517 45.4V48.0953C109.517 48.1865 109.52 48.2809 109.527 48.3785C109.533 48.4762 109.541 48.5722 109.551 48.6666C109.564 48.7577 109.579 48.8456 109.595 48.9303C109.615 49.0117 109.636 49.0833 109.658 49.1451V49.2037H109.082ZM107.593 48.7789C107.762 48.7789 107.92 48.7561 108.067 48.7105C108.216 48.6617 108.35 48.5966 108.467 48.5152C108.584 48.4306 108.685 48.3329 108.77 48.2223C108.858 48.1116 108.928 47.9928 108.98 47.8658V46.5816H108.164C107.653 46.5816 107.269 46.6891 107.012 46.9039C106.755 47.1188 106.626 47.4085 106.626 47.773C106.626 48.1214 106.711 48.3769 106.88 48.5396C107.053 48.6992 107.29 48.7789 107.593 48.7789ZM113.501 45.5611L113.794 42.0943H116.797V42.651H114.258L114.058 45.0338C114.11 44.9915 114.173 44.9475 114.248 44.902C114.323 44.8531 114.408 44.8108 114.502 44.775C114.597 44.7359 114.698 44.705 114.805 44.6822C114.916 44.6562 115.033 44.6432 115.156 44.6432C115.423 44.6432 115.666 44.6969 115.884 44.8043C116.102 44.9085 116.288 45.0598 116.441 45.2584C116.594 45.457 116.712 45.6979 116.797 45.9811C116.882 46.2643 116.924 46.5833 116.924 46.9381C116.924 47.2799 116.888 47.5956 116.817 47.8854C116.745 48.1718 116.636 48.4208 116.49 48.6324C116.343 48.8408 116.156 49.0051 115.928 49.1256C115.703 49.2428 115.435 49.3014 115.122 49.3014C114.881 49.3014 114.655 49.2623 114.444 49.1842C114.235 49.1028 114.05 48.9807 113.887 48.818C113.724 48.6552 113.591 48.4501 113.487 48.2027C113.382 47.9553 113.319 47.6656 113.296 47.3336H113.814C113.859 47.8121 113.994 48.1767 114.219 48.4273C114.444 48.6747 114.745 48.7984 115.122 48.7984C115.536 48.7984 115.848 48.6373 116.06 48.315C116.275 47.9928 116.382 47.537 116.382 46.9479C116.382 46.7005 116.353 46.4693 116.294 46.2545C116.236 46.0396 116.149 45.8541 116.035 45.6979C115.925 45.5383 115.786 45.4146 115.62 45.3268C115.458 45.2356 115.269 45.19 115.054 45.19C114.911 45.19 114.785 45.2031 114.678 45.2291C114.571 45.2519 114.473 45.2861 114.385 45.3316C114.3 45.374 114.221 45.426 114.146 45.4879C114.074 45.5497 114.003 45.6197 113.931 45.6979L113.501 45.5611ZM118.706 48.9645C118.706 49.1109 118.69 49.2574 118.657 49.4039C118.628 49.5504 118.584 49.6904 118.526 49.8238C118.467 49.9605 118.395 50.0891 118.311 50.2096C118.226 50.33 118.13 50.4391 118.023 50.5367L117.676 50.2779C117.826 50.0761 117.94 49.8727 118.018 49.6676C118.096 49.4625 118.135 49.2314 118.135 48.9742V48.276H118.706V48.9645ZM120.733 48.735C121.149 48.735 121.499 48.665 121.782 48.525C122.066 48.385 122.294 48.1913 122.466 47.9439C122.642 47.6933 122.769 47.4003 122.847 47.065C122.925 46.7265 122.969 46.3587 122.979 45.9615C122.897 46.0982 122.803 46.2236 122.696 46.3375C122.591 46.4482 122.477 46.5442 122.354 46.6256C122.23 46.7037 122.098 46.7656 121.958 46.8111C121.818 46.8535 121.672 46.8746 121.519 46.8746C121.236 46.8746 120.987 46.8079 120.772 46.6744C120.56 46.541 120.383 46.3635 120.24 46.1422C120.096 45.9208 119.989 45.6669 119.917 45.3805C119.846 45.094 119.81 44.7978 119.81 44.4918C119.81 44.15 119.851 43.8277 119.932 43.525C120.013 43.2223 120.13 42.9586 120.283 42.734C120.436 42.5061 120.625 42.3271 120.85 42.1969C121.074 42.0634 121.332 41.9967 121.621 41.9967C121.944 41.9967 122.224 42.0683 122.461 42.2115C122.702 42.3515 122.901 42.5468 123.057 42.7975C123.213 43.0481 123.329 43.3476 123.404 43.6959C123.482 44.0442 123.521 44.4234 123.521 44.8336V45.3951C123.521 45.7434 123.503 46.082 123.467 46.4107C123.431 46.7363 123.371 47.0423 123.286 47.3287C123.205 47.6152 123.094 47.8772 122.954 48.1148C122.818 48.3492 122.645 48.551 122.437 48.7203C122.232 48.8896 121.988 49.0214 121.704 49.1158C121.424 49.207 121.101 49.2525 120.733 49.2525H120.63L120.635 48.735H120.733ZM121.592 46.3619C121.768 46.3619 121.931 46.3277 122.08 46.2594C122.23 46.1878 122.364 46.095 122.481 45.9811C122.598 45.8671 122.699 45.7369 122.783 45.5904C122.868 45.4407 122.935 45.2877 122.984 45.1314V44.775C122.984 44.4039 122.949 44.0784 122.881 43.7984C122.813 43.5152 122.718 43.2792 122.598 43.0904C122.477 42.8984 122.334 42.7535 122.168 42.6559C122.002 42.5582 121.822 42.5094 121.626 42.5094C121.424 42.5094 121.244 42.5631 121.084 42.6705C120.928 42.7747 120.795 42.9163 120.684 43.0953C120.573 43.2744 120.489 43.4827 120.43 43.7203C120.371 43.9547 120.342 44.2037 120.342 44.4674C120.342 44.7083 120.368 44.9426 120.42 45.1705C120.476 45.3984 120.555 45.6002 120.659 45.776C120.764 45.9518 120.894 46.0934 121.05 46.2008C121.206 46.3082 121.387 46.3619 121.592 46.3619ZM127.359 48.398L129.077 43.9205H129.746V49.2037H129.204V44.9605L127.549 49.2037H127.168L125.479 44.8531V49.2037H124.942V43.9205H125.65L127.359 48.398Z" fill="black"/>
<path d="M52.5941 36.9085H53.5072V37.4163H52.5941V39.2035H52.0521V37.4163H49.2592V37.0697L52.0082 32.0941H52.5941V36.9085ZM49.9086 36.9085H52.0521V32.9144L51.8568 33.3099L49.9086 36.9085ZM58.0385 36.2347C58.0385 36.7588 57.9961 37.2145 57.9115 37.6019C57.8301 37.986 57.7097 38.305 57.5502 38.5589C57.3939 38.8096 57.2019 38.9967 56.974 39.1204C56.7461 39.2409 56.4873 39.3011 56.1976 39.3011C55.9112 39.3011 55.654 39.2409 55.4261 39.1204C55.1983 38.9967 55.0046 38.8096 54.8451 38.5589C54.6856 38.305 54.5619 37.986 54.474 37.6019C54.3894 37.2145 54.347 36.7588 54.347 36.2347V35.0433C54.347 34.5192 54.3894 34.0667 54.474 33.6859C54.5586 33.3018 54.6791 32.9844 54.8353 32.7337C54.9948 32.4831 55.1885 32.2975 55.4164 32.1771C55.6442 32.0566 55.9014 31.9964 56.1879 31.9964C56.4743 31.9964 56.7315 32.0566 56.9594 32.1771C57.1905 32.2975 57.3858 32.4831 57.5453 32.7337C57.7048 32.9844 57.8269 33.3018 57.9115 33.6859C57.9961 34.0667 58.0385 34.5192 58.0385 35.0433V36.2347ZM57.4916 34.9652C57.4916 34.1514 57.3825 33.5378 57.1644 33.1244C56.9496 32.7109 56.6241 32.5042 56.1879 32.5042C55.7582 32.5042 55.4327 32.7109 55.2113 33.1244C54.9932 33.5378 54.8842 34.1514 54.8842 34.9652V36.3031C54.8842 36.7035 54.9118 37.0583 54.9672 37.3675C55.0258 37.6768 55.1088 37.9372 55.2162 38.1488C55.3269 38.3604 55.4636 38.5215 55.6263 38.6322C55.7924 38.7428 55.9828 38.7982 56.1976 38.7982C56.4157 38.7982 56.6045 38.7428 56.764 38.6322C56.9268 38.5215 57.0619 38.3604 57.1693 38.1488C57.2767 37.9372 57.3565 37.6768 57.4086 37.3675C57.4639 37.0583 57.4916 36.7035 57.4916 36.3031V34.9652ZM62.9017 36.2347C62.9017 36.7588 62.8594 37.2145 62.7748 37.6019C62.6934 37.986 62.573 38.305 62.4135 38.5589C62.2572 38.8096 62.0651 38.9967 61.8373 39.1204C61.6094 39.2409 61.3506 39.3011 61.0609 39.3011C60.7745 39.3011 60.5173 39.2409 60.2894 39.1204C60.0616 38.9967 59.8679 38.8096 59.7084 38.5589C59.5489 38.305 59.4252 37.986 59.3373 37.6019C59.2526 37.2145 59.2103 36.7588 59.2103 36.2347V35.0433C59.2103 34.5192 59.2526 34.0667 59.3373 33.6859C59.4219 33.3018 59.5424 32.9844 59.6986 32.7337C59.8581 32.4831 60.0518 32.2975 60.2797 32.1771C60.5075 32.0566 60.7647 31.9964 61.0511 31.9964C61.3376 31.9964 61.5948 32.0566 61.8226 32.1771C62.0538 32.2975 62.2491 32.4831 62.4086 32.7337C62.5681 32.9844 62.6901 33.3018 62.7748 33.6859C62.8594 34.0667 62.9017 34.5192 62.9017 35.0433V36.2347ZM62.3549 34.9652C62.3549 34.1514 62.2458 33.5378 62.0277 33.1244C61.8129 32.7109 61.4873 32.5042 61.0511 32.5042C60.6215 32.5042 60.2959 32.7109 60.0746 33.1244C59.8565 33.5378 59.7474 34.1514 59.7474 34.9652V36.3031C59.7474 36.7035 59.7751 37.0583 59.8304 37.3675C59.889 37.6768 59.972 37.9372 60.0795 38.1488C60.1901 38.3604 60.3269 38.5215 60.4896 38.6322C60.6556 38.7428 60.8461 38.7982 61.0609 38.7982C61.279 38.7982 61.4678 38.7428 61.6273 38.6322C61.7901 38.5215 61.9252 38.3604 62.0326 38.1488C62.14 37.9372 62.2198 37.6768 62.2719 37.3675C62.3272 37.0583 62.3549 36.7035 62.3549 36.3031V34.9652ZM67.765 36.2347C67.765 36.7588 67.7227 37.2145 67.6381 37.6019C67.5567 37.986 67.4362 38.305 67.2767 38.5589C67.1205 38.8096 66.9284 38.9967 66.7006 39.1204C66.4727 39.2409 66.2139 39.3011 65.9242 39.3011C65.6377 39.3011 65.3806 39.2409 65.1527 39.1204C64.9248 38.9967 64.7312 38.8096 64.5717 38.5589C64.4122 38.305 64.2885 37.986 64.2006 37.6019C64.1159 37.2145 64.0736 36.7588 64.0736 36.2347V35.0433C64.0736 34.5192 64.1159 34.0667 64.2006 33.6859C64.2852 33.3018 64.4056 32.9844 64.5619 32.7337C64.7214 32.4831 64.9151 32.2975 65.1429 32.1771C65.3708 32.0566 65.628 31.9964 65.9144 31.9964C66.2009 31.9964 66.458 32.0566 66.6859 32.1771C66.917 32.2975 67.1123 32.4831 67.2719 32.7337C67.4314 32.9844 67.5534 33.3018 67.6381 33.6859C67.7227 34.0667 67.765 34.5192 67.765 35.0433V36.2347ZM67.2181 34.9652C67.2181 34.1514 67.1091 33.5378 66.891 33.1244C66.6761 32.7109 66.3506 32.5042 65.9144 32.5042C65.4847 32.5042 65.1592 32.7109 64.9379 33.1244C64.7198 33.5378 64.6107 34.1514 64.6107 34.9652V36.3031C64.6107 36.7035 64.6384 37.0583 64.6937 37.3675C64.7523 37.6768 64.8353 37.9372 64.9427 38.1488C65.0534 38.3604 65.1901 38.5215 65.3529 38.6322C65.5189 38.7428 65.7094 38.7982 65.9242 38.7982C66.1423 38.7982 66.3311 38.7428 66.4906 38.6322C66.6534 38.5215 66.7885 38.3604 66.8959 38.1488C67.0033 37.9372 67.083 37.6768 67.1351 37.3675C67.1905 37.0583 67.2181 36.7035 67.2181 36.3031V34.9652ZM72.5551 36.7913H71.9056V39.2035H71.3588V33.9202H71.9056V36.2591H72.5453L74.1469 33.9202H74.8207L72.9994 36.474L75.0111 39.2035H74.3031L72.5551 36.7913ZM78.683 34.4329H76.4808V39.2035H75.934V33.9202H78.683V34.4329ZM53.0726 49.2035H52.5306V46.7865H50.2064V49.2035H49.6595V43.9202H50.2064V46.2835H52.5306V43.9202H53.0726V49.2035ZM57.3549 49.2035C57.3288 49.1156 57.3077 49.0065 57.2914 48.8763C57.2751 48.7428 57.2637 48.6077 57.2572 48.471C57.1888 48.5817 57.1075 48.6875 57.0131 48.7884C56.9187 48.8861 56.8096 48.974 56.6859 49.0521C56.5655 49.127 56.4304 49.1872 56.2806 49.2327C56.1309 49.2783 55.9698 49.3011 55.7972 49.3011C55.5791 49.3011 55.3806 49.2702 55.2015 49.2083C55.0258 49.1465 54.8744 49.0537 54.7474 48.93C54.6205 48.8063 54.5228 48.6517 54.4545 48.4661C54.3861 48.2806 54.3519 48.0641 54.3519 47.8167C54.3519 47.5726 54.3942 47.348 54.4789 47.1429C54.5635 46.9346 54.6888 46.7555 54.8549 46.6058C55.0241 46.4561 55.2341 46.3389 55.4847 46.2542C55.7354 46.1696 56.0267 46.1273 56.3588 46.1273H57.2523V45.39C57.2523 45.0124 57.1579 44.7422 56.9691 44.5794C56.7836 44.4134 56.5101 44.3304 56.1488 44.3304C55.9795 44.3304 55.8233 44.3564 55.6801 44.4085C55.5401 44.4606 55.4196 44.5339 55.3187 44.6283C55.2178 44.7194 55.1397 44.8301 55.0844 44.9603C55.029 45.0872 55.0013 45.2272 55.0013 45.3802L54.4594 45.3753C54.4594 45.1702 54.5 44.9749 54.5814 44.7894C54.6628 44.6006 54.7784 44.4346 54.9281 44.2913C55.0778 44.1481 55.2585 44.0342 55.4701 43.9495C55.6817 43.8649 55.9161 43.8226 56.1732 43.8226C56.4108 43.8226 56.6273 43.8519 56.8226 43.9105C57.0212 43.9658 57.1921 44.057 57.3353 44.1839C57.4786 44.3076 57.5892 44.4704 57.6674 44.6722C57.7487 44.8708 57.7894 45.1133 57.7894 45.3997V48.0951C57.7894 48.1862 57.7927 48.2806 57.7992 48.3783C57.8057 48.4759 57.8138 48.5719 57.8236 48.6663C57.8366 48.7575 57.8513 48.8454 57.8676 48.93C57.8871 49.0114 57.9082 49.083 57.931 49.1449V49.2035H57.3549ZM55.8656 48.7786C56.0349 48.7786 56.1927 48.7559 56.3392 48.7103C56.489 48.6615 56.6224 48.5964 56.7396 48.515C56.8568 48.4303 56.9577 48.3327 57.0424 48.222C57.1302 48.1113 57.2002 47.9925 57.2523 47.8656V46.5814H56.4369C55.9258 46.5814 55.5417 46.6888 55.2845 46.9036C55.0274 47.1185 54.8988 47.4082 54.8988 47.7728C54.8988 48.1211 54.9834 48.3766 55.1527 48.5394C55.3252 48.6989 55.5629 48.7786 55.8656 48.7786ZM62.5306 45.3265H63.0433C63.2679 45.3265 63.4633 45.2907 63.6293 45.2191C63.7985 45.1442 63.9401 45.0449 64.0541 44.9212C64.168 44.7975 64.2526 44.6527 64.308 44.4867C64.3666 44.3174 64.3959 44.1383 64.3959 43.9495C64.3959 43.7347 64.3715 43.5394 64.3226 43.3636C64.2738 43.1846 64.1989 43.0316 64.098 42.9046C63.9971 42.7777 63.8702 42.68 63.7172 42.6117C63.5674 42.54 63.3884 42.5042 63.1801 42.5042C62.9978 42.5042 62.8285 42.5384 62.6722 42.6068C62.5192 42.6719 62.3858 42.7679 62.2719 42.8949C62.1612 43.0218 62.0733 43.1748 62.0082 43.3538C61.9463 43.5329 61.9154 43.7347 61.9154 43.9593H61.3734C61.3734 43.6729 61.4174 43.4092 61.5052 43.1683C61.5964 42.9274 61.7217 42.7207 61.8812 42.5482C62.044 42.3757 62.236 42.2406 62.4574 42.1429C62.6788 42.0452 62.9196 41.9964 63.1801 41.9964C63.4437 41.9964 63.683 42.0404 63.8978 42.1283C64.1159 42.2161 64.3015 42.3447 64.4545 42.514C64.6107 42.68 64.7295 42.8851 64.8109 43.1292C64.8955 43.3734 64.9379 43.6533 64.9379 43.9691C64.9379 44.1286 64.9167 44.2881 64.8744 44.4476C64.8321 44.6038 64.7686 44.752 64.684 44.8919C64.5993 45.0319 64.4935 45.1605 64.3666 45.2777C64.2396 45.3916 64.0915 45.486 63.9222 45.5609C64.1208 45.626 64.2901 45.7155 64.4301 45.8294C64.5733 45.9434 64.6905 46.0752 64.7816 46.2249C64.8728 46.3714 64.9395 46.5342 64.9818 46.7132C65.0241 46.889 65.0453 47.0745 65.0453 47.2699C65.0453 47.5921 64.9981 47.8802 64.9037 48.1341C64.8125 48.3848 64.684 48.598 64.5179 48.7738C64.3519 48.9463 64.155 49.0781 63.9271 49.1693C63.7025 49.2572 63.4584 49.3011 63.1947 49.3011C62.9506 49.3011 62.7129 49.2588 62.4818 49.1742C62.2539 49.0895 62.0505 48.9642 61.8715 48.7982C61.6957 48.6289 61.5541 48.4189 61.4467 48.1683C61.3425 47.9144 61.2904 47.6182 61.2904 47.2796H61.8324C61.8324 47.5042 61.8649 47.7093 61.9301 47.8949C61.9984 48.0804 62.0912 48.2399 62.2084 48.3734C62.3288 48.5068 62.472 48.611 62.6381 48.6859C62.8073 48.7607 62.9929 48.7982 63.1947 48.7982C63.6081 48.7982 63.9288 48.6696 64.1566 48.4124C64.3877 48.152 64.5033 47.7777 64.5033 47.2894C64.5033 47.0355 64.4675 46.8174 64.3959 46.6351C64.3275 46.4495 64.2282 46.2982 64.098 46.181C63.9711 46.0605 63.8181 45.9727 63.639 45.9173C63.46 45.862 63.2614 45.8343 63.0433 45.8343H62.5306V45.3265ZM66.9789 48.9642C66.9789 49.1107 66.9626 49.2572 66.9301 49.4036C66.9008 49.5501 66.8568 49.6901 66.7982 49.8236C66.7396 49.9603 66.668 50.0889 66.5834 50.2093C66.4987 50.3298 66.4027 50.4388 66.2953 50.5365L65.9486 50.2777C66.0983 50.0758 66.2123 49.8724 66.2904 49.6673C66.3685 49.4622 66.4076 49.2311 66.4076 48.974V48.2757H66.9789V48.9642ZM68.5511 45.5609L68.8441 42.0941H71.847V42.6507H69.308L69.1078 45.0335C69.1599 44.9912 69.2233 44.9473 69.2982 44.9017C69.3731 44.8529 69.4577 44.8105 69.5521 44.7747C69.6465 44.7357 69.7474 44.7048 69.8549 44.682C69.9655 44.6559 70.0827 44.6429 70.2064 44.6429C70.4733 44.6429 70.7159 44.6966 70.934 44.804C71.1521 44.9082 71.3376 45.0596 71.4906 45.2581C71.6436 45.4567 71.7624 45.6976 71.847 45.9808C71.9317 46.264 71.974 46.583 71.974 46.9378C71.974 47.2796 71.9382 47.5954 71.8666 47.8851C71.795 48.1716 71.6859 48.4206 71.5394 48.6322C71.3929 48.8405 71.2058 49.0049 70.9779 49.1253C70.7533 49.2425 70.4847 49.3011 70.1722 49.3011C69.9314 49.3011 69.7051 49.262 69.4935 49.1839C69.2852 49.1025 69.0997 48.9805 68.9369 48.8177C68.7741 48.655 68.6407 48.4499 68.5365 48.2025C68.4323 47.9551 68.3689 47.6654 68.3461 47.3333H68.8636C68.9092 47.8119 69.0443 48.1764 69.2689 48.4271C69.4935 48.6745 69.7946 48.7982 70.1722 48.7982C70.5857 48.7982 70.8982 48.637 71.1097 48.3148C71.3246 47.9925 71.432 47.5368 71.432 46.9476C71.432 46.7002 71.4027 46.4691 71.3441 46.2542C71.2855 46.0394 71.1993 45.8538 71.0853 45.6976C70.9747 45.5381 70.8363 45.4144 70.6703 45.3265C70.5075 45.2354 70.3187 45.1898 70.1039 45.1898C69.9607 45.1898 69.8353 45.2028 69.7279 45.2288C69.6205 45.2516 69.5228 45.2858 69.4349 45.3314C69.3503 45.3737 69.2705 45.4258 69.1957 45.4876C69.1241 45.5495 69.0524 45.6195 68.9808 45.6976L68.5511 45.5609ZM75.6312 48.3978L77.35 43.9202H78.0189V49.2035H77.4769V44.9603L75.8217 49.2035H75.4408L73.7513 44.8529V49.2035H73.2142V43.9202H73.9222L75.6312 48.3978Z" fill="black"/>
<path d="M15.5699 32.4359L13.0308 39.2035H12.4644L14.9888 32.6019H11.6246V32.0941H15.5699V32.4359ZM20.3502 36.2347C20.3502 36.7588 20.3078 37.2145 20.2232 37.6019C20.1418 37.986 20.0214 38.305 19.8619 38.5589C19.7056 38.8096 19.5136 38.9967 19.2857 39.1204C19.0578 39.2409 18.7991 39.3011 18.5093 39.3011C18.2229 39.3011 17.9657 39.2409 17.7379 39.1204C17.51 38.9967 17.3163 38.8096 17.1568 38.5589C16.9973 38.305 16.8736 37.986 16.7857 37.6019C16.7011 37.2145 16.6588 36.7588 16.6588 36.2347V35.0433C16.6588 34.5192 16.7011 34.0667 16.7857 33.6859C16.8703 33.3018 16.9908 32.9844 17.147 32.7337C17.3065 32.4831 17.5002 32.2975 17.7281 32.1771C17.956 32.0566 18.2131 31.9964 18.4996 31.9964C18.786 31.9964 19.0432 32.0566 19.2711 32.1771C19.5022 32.2975 19.6975 32.4831 19.857 32.7337C20.0165 32.9844 20.1386 33.3018 20.2232 33.6859C20.3078 34.0667 20.3502 34.5192 20.3502 35.0433V36.2347ZM19.8033 34.9652C19.8033 34.1514 19.6942 33.5378 19.4761 33.1244C19.2613 32.7109 18.9358 32.5042 18.4996 32.5042C18.0699 32.5042 17.7444 32.7109 17.523 33.1244C17.3049 33.5378 17.1959 34.1514 17.1959 34.9652V36.3031C17.1959 36.7035 17.2235 37.0583 17.2789 37.3675C17.3375 37.6768 17.4205 37.9372 17.5279 38.1488C17.6386 38.3604 17.7753 38.5215 17.938 38.6322C18.1041 38.7428 18.2945 38.7982 18.5093 38.7982C18.7274 38.7982 18.9162 38.7428 19.0757 38.6322C19.2385 38.5215 19.3736 38.3604 19.481 38.1488C19.5884 37.9372 19.6682 37.6768 19.7203 37.3675C19.7756 37.0583 19.8033 36.7035 19.8033 36.3031V34.9652ZM25.2134 36.2347C25.2134 36.7588 25.1711 37.2145 25.0865 37.6019C25.0051 37.986 24.8847 38.305 24.7252 38.5589C24.5689 38.8096 24.3769 38.9967 24.149 39.1204C23.9211 39.2409 23.6623 39.3011 23.3726 39.3011C23.0862 39.3011 22.829 39.2409 22.6011 39.1204C22.3733 38.9967 22.1796 38.8096 22.0201 38.5589C21.8606 38.305 21.7369 37.986 21.649 37.6019C21.5644 37.2145 21.522 36.7588 21.522 36.2347V35.0433C21.522 34.5192 21.5644 34.0667 21.649 33.6859C21.7336 33.3018 21.8541 32.9844 22.0103 32.7337C22.1698 32.4831 22.3635 32.2975 22.5914 32.1771C22.8192 32.0566 23.0764 31.9964 23.3629 31.9964C23.6493 31.9964 23.9065 32.0566 24.1343 32.1771C24.3655 32.2975 24.5608 32.4831 24.7203 32.7337C24.8798 32.9844 25.0019 33.3018 25.0865 33.6859C25.1711 34.0667 25.2134 34.5192 25.2134 35.0433V36.2347ZM24.6666 34.9652C24.6666 34.1514 24.5575 33.5378 24.3394 33.1244C24.1246 32.7109 23.7991 32.5042 23.3629 32.5042C22.9332 32.5042 22.6076 32.7109 22.3863 33.1244C22.1682 33.5378 22.0591 34.1514 22.0591 34.9652V36.3031C22.0591 36.7035 22.0868 37.0583 22.1422 37.3675C22.2007 37.6768 22.2838 37.9372 22.3912 38.1488C22.5019 38.3604 22.6386 38.5215 22.8013 38.6322C22.9673 38.7428 23.1578 38.7982 23.3726 38.7982C23.5907 38.7982 23.7795 38.7428 23.939 38.6322C24.1018 38.5215 24.2369 38.3604 24.3443 38.1488C24.4517 37.9372 24.5315 37.6768 24.5836 37.3675C24.6389 37.0583 24.6666 36.7035 24.6666 36.3031V34.9652ZM30.0767 36.2347C30.0767 36.7588 30.0344 37.2145 29.9498 37.6019C29.8684 37.986 29.7479 38.305 29.5884 38.5589C29.4322 38.8096 29.2401 38.9967 29.0123 39.1204C28.7844 39.2409 28.5256 39.3011 28.2359 39.3011C27.9494 39.3011 27.6923 39.2409 27.4644 39.1204C27.2366 38.9967 27.0429 38.8096 26.8834 38.5589C26.7239 38.305 26.6002 37.986 26.5123 37.6019C26.4276 37.2145 26.3853 36.7588 26.3853 36.2347V35.0433C26.3853 34.5192 26.4276 34.0667 26.5123 33.6859C26.5969 33.3018 26.7173 32.9844 26.8736 32.7337C27.0331 32.4831 27.2268 32.2975 27.4547 32.1771C27.6825 32.0566 27.9397 31.9964 28.2261 31.9964C28.5126 31.9964 28.7698 32.0566 28.9976 32.1771C29.2287 32.2975 29.4241 32.4831 29.5836 32.7337C29.7431 32.9844 29.8651 33.3018 29.9498 33.6859C30.0344 34.0667 30.0767 34.5192 30.0767 35.0433V36.2347ZM29.5298 34.9652C29.5298 34.1514 29.4208 33.5378 29.2027 33.1244C28.9879 32.7109 28.6623 32.5042 28.2261 32.5042C27.7964 32.5042 27.4709 32.7109 27.2496 33.1244C27.0315 33.5378 26.9224 34.1514 26.9224 34.9652V36.3031C26.9224 36.7035 26.9501 37.0583 27.0054 37.3675C27.064 37.6768 27.147 37.9372 27.2545 38.1488C27.3651 38.3604 27.5019 38.5215 27.6646 38.6322C27.8306 38.7428 28.0211 38.7982 28.2359 38.7982C28.454 38.7982 28.6428 38.7428 28.8023 38.6322C28.9651 38.5215 29.1002 38.3604 29.2076 38.1488C29.315 37.9372 29.3948 37.6768 29.4468 37.3675C29.5022 37.0583 29.5298 36.7035 29.5298 36.3031V34.9652ZM34.8668 36.7913H34.2173V39.2035H33.6705V33.9202H34.2173V36.2591H34.857L36.4586 33.9202H37.1324L35.3111 36.474L37.3228 39.2035H36.6148L34.8668 36.7913ZM40.9947 34.4329H38.7925V39.2035H38.2457V33.9202H40.9947V34.4329ZM15.3843 49.2035H14.8423V46.7865H12.5181V49.2035H11.9713V43.9202H12.5181V46.2835H14.8423V43.9202H15.3843V49.2035ZM19.6666 49.2035C19.6405 49.1156 19.6194 49.0065 19.6031 48.8763C19.5868 48.7428 19.5754 48.6077 19.5689 48.471C19.5005 48.5817 19.4192 48.6875 19.3248 48.7884C19.2304 48.8861 19.1213 48.974 18.9976 49.0521C18.8772 49.127 18.7421 49.1872 18.5923 49.2327C18.4426 49.2783 18.2815 49.3011 18.1089 49.3011C17.8908 49.3011 17.6923 49.2702 17.5132 49.2083C17.3375 49.1465 17.1861 49.0537 17.0591 48.93C16.9322 48.8063 16.8345 48.6517 16.7662 48.4661C16.6978 48.2806 16.6636 48.0641 16.6636 47.8167C16.6636 47.5726 16.706 47.348 16.7906 47.1429C16.8752 46.9346 17.0005 46.7555 17.1666 46.6058C17.3358 46.4561 17.5458 46.3389 17.7964 46.2542C18.0471 46.1696 18.3384 46.1273 18.6705 46.1273H19.564V45.39C19.564 45.0124 19.4696 44.7422 19.2808 44.5794C19.0953 44.4134 18.8218 44.3304 18.4605 44.3304C18.2912 44.3304 18.135 44.3564 17.9918 44.4085C17.8518 44.4606 17.7313 44.5339 17.6304 44.6283C17.5295 44.7194 17.4514 44.8301 17.3961 44.9603C17.3407 45.0872 17.313 45.2272 17.313 45.3802L16.7711 45.3753C16.7711 45.1702 16.8117 44.9749 16.8931 44.7894C16.9745 44.6006 17.0901 44.4346 17.2398 44.2913C17.3895 44.1481 17.5702 44.0342 17.7818 43.9495C17.9934 43.8649 18.2278 43.8226 18.4849 43.8226C18.7226 43.8226 18.939 43.8519 19.1343 43.9105C19.3329 43.9658 19.5038 44.057 19.647 44.1839C19.7903 44.3076 19.9009 44.4704 19.9791 44.6722C20.0604 44.8708 20.1011 45.1133 20.1011 45.3997V48.0951C20.1011 48.1862 20.1044 48.2806 20.1109 48.3783C20.1174 48.4759 20.1255 48.5719 20.1353 48.6663C20.1483 48.7575 20.163 48.8454 20.1793 48.93C20.1988 49.0114 20.22 49.083 20.2427 49.1449V49.2035H19.6666ZM18.1773 48.7786C18.3466 48.7786 18.5045 48.7559 18.6509 48.7103C18.8007 48.6615 18.9341 48.5964 19.0513 48.515C19.1685 48.4303 19.2694 48.3327 19.3541 48.222C19.442 48.1113 19.5119 47.9925 19.564 47.8656V46.5814H18.7486C18.2375 46.5814 17.8534 46.6888 17.5963 46.9036C17.3391 47.1185 17.2105 47.4082 17.2105 47.7728C17.2105 48.1211 17.2951 48.3766 17.4644 48.5394C17.6369 48.6989 17.8746 48.7786 18.1773 48.7786ZM27.523 49.2035H23.7535V48.7445L25.7066 46.1077C25.8889 45.8604 26.0419 45.6374 26.1656 45.4388C26.2925 45.2402 26.3935 45.0563 26.4683 44.887C26.5464 44.7145 26.6018 44.5534 26.6343 44.4036C26.6669 44.2539 26.6832 44.1058 26.6832 43.9593C26.6832 43.7477 26.6571 43.5524 26.605 43.3734C26.553 43.1943 26.4765 43.0413 26.3755 42.9144C26.2746 42.7842 26.1477 42.6833 25.9947 42.6117C25.845 42.54 25.6724 42.5042 25.4771 42.5042C25.272 42.5042 25.0881 42.5449 24.9254 42.6263C24.7626 42.7077 24.6242 42.8216 24.5103 42.9681C24.3996 43.1146 24.3134 43.2887 24.2515 43.4906C24.1929 43.6891 24.1636 43.9072 24.1636 44.1449H23.6216C23.6216 43.8519 23.664 43.5752 23.7486 43.3148C23.8332 43.0544 23.9537 42.8265 24.1099 42.6312C24.2694 42.4359 24.4631 42.2813 24.691 42.1673C24.9221 42.0534 25.1841 41.9964 25.4771 41.9964C25.7473 41.9964 25.9914 42.0404 26.2095 42.1283C26.4276 42.2161 26.6116 42.3415 26.7613 42.5042C26.9143 42.667 27.0315 42.8672 27.1129 43.1048C27.1942 43.3425 27.2349 43.6094 27.2349 43.9056C27.2349 44.1204 27.2024 44.3369 27.1373 44.555C27.0722 44.7699 26.9859 44.9847 26.8785 45.1995C26.7711 45.4144 26.6457 45.6276 26.5025 45.8392C26.3625 46.0508 26.2177 46.2591 26.0679 46.4642L24.4127 48.7005H27.523V49.2035ZM29.2906 48.9642C29.2906 49.1107 29.2743 49.2572 29.2418 49.4036C29.2125 49.5501 29.1685 49.6901 29.1099 49.8236C29.0513 49.9603 28.9797 50.0889 28.8951 50.2093C28.8104 50.3298 28.7144 50.4388 28.607 50.5365L28.2603 50.2777C28.4101 50.0758 28.524 49.8724 28.6021 49.6673C28.6802 49.4622 28.7193 49.2311 28.7193 48.974V48.2757H29.2906V48.9642ZM34.1588 46.2347C34.1588 46.7588 34.1164 47.2145 34.0318 47.6019C33.9504 47.986 33.83 48.305 33.6705 48.5589C33.5142 48.8096 33.3222 48.9967 33.0943 49.1204C32.8664 49.2409 32.6076 49.3011 32.3179 49.3011C32.0315 49.3011 31.7743 49.2409 31.5464 49.1204C31.3186 48.9967 31.1249 48.8096 30.9654 48.5589C30.8059 48.305 30.6822 47.986 30.5943 47.6019C30.5097 47.2145 30.4673 46.7588 30.4673 46.2347V45.0433C30.4673 44.5192 30.5097 44.0667 30.5943 43.6859C30.6789 43.3018 30.7994 42.9844 30.9556 42.7337C31.1151 42.4831 31.3088 42.2975 31.5367 42.1771C31.7645 42.0566 32.0217 41.9964 32.3082 41.9964C32.5946 41.9964 32.8518 42.0566 33.0797 42.1771C33.3108 42.2975 33.5061 42.4831 33.6656 42.7337C33.8251 42.9844 33.9472 43.3018 34.0318 43.6859C34.1164 44.0667 34.1588 44.5192 34.1588 45.0433V46.2347ZM33.6119 44.9652C33.6119 44.1514 33.5028 43.5378 33.2847 43.1244C33.0699 42.7109 32.7444 42.5042 32.3082 42.5042C31.8785 42.5042 31.553 42.7109 31.3316 43.1244C31.1135 43.5378 31.0045 44.1514 31.0045 44.9652V46.3031C31.0045 46.7035 31.0321 47.0583 31.0875 47.3675C31.1461 47.6768 31.2291 47.9372 31.3365 48.1488C31.4472 48.3604 31.5839 48.5215 31.7466 48.6322C31.9127 48.7428 32.1031 48.7982 32.3179 48.7982C32.536 48.7982 32.7248 48.7428 32.8843 48.6322C33.0471 48.5215 33.1822 48.3604 33.2896 48.1488C33.397 47.9372 33.4768 47.6768 33.5289 47.3675C33.5842 47.0583 33.6119 46.7035 33.6119 46.3031V44.9652ZM37.9429 48.3978L39.6617 43.9202H40.3306V49.2035H39.7886V44.9603L38.1334 49.2035H37.7525L36.063 44.8529V49.2035H35.5259V43.9202H36.2339L37.9429 48.3978Z" fill="black"/>
</svg>
