<svg width="234" height="369" viewBox="0 0 234 369" fill="none" xmlns="http://www.w3.org/2000/svg">
<g clip-path="url(#clip0)">
<path d="M559.243 280.585H515.131L499.01 262.191H373.171L357.05 280.585H322.2L306.079 262.191H5.37305V206.754H546.963V119.209H559.259V280.585H559.243ZM515.495 279.795H558.453V120H547.737V207.545H6.1633V261.4H306.458L322.579 279.795H356.718L372.839 261.4H499.39L515.495 279.795Z" fill="#1B5CA8"/>
<path d="M559.639 280.981H514.958L498.837 262.586H373.361L357.24 280.981H322.027L305.906 262.586H4.97852V206.358H524.82V136.671L547.074 118.814H559.639V280.981ZM515.685 279.399H558.074V120.396H547.643L526.417 137.43V207.94H6.55901V261.005H306.633L322.754 279.399H356.529L372.65 261.005H499.548L515.685 279.399Z" fill="#1B5CA8"/>
<path d="M313.776 253.95H306.964C305.984 253.95 305.194 253.16 305.194 252.179V249.822H258.806V252.179C258.806 253.16 258.016 253.95 257.036 253.95H250.224C249.244 253.95 248.454 253.16 248.454 252.179V249.822H202.066V252.179C202.066 253.16 201.276 253.95 200.296 253.95H193.484C192.504 253.95 191.714 253.16 191.714 252.179V249.822H145.326V252.179C145.326 253.16 144.536 253.95 143.556 253.95H136.744C135.764 253.95 134.974 253.16 134.974 252.179V249.822H88.5865V252.179C88.5865 253.16 87.7962 253.95 86.8163 253.95H80.0044C79.0245 253.95 78.2342 253.16 78.2342 252.179V249.822H31.8466V252.179C31.8466 253.16 31.0563 253.95 30.0764 253.95H23.2645C22.2845 253.95 21.4943 253.16 21.4943 252.179V249.822H8.96094V249.032H22.2845V252.179C22.2845 252.717 22.7271 253.16 23.2645 253.16H30.0764C30.6138 253.16 31.0563 252.717 31.0563 252.179V249.032H79.0245V252.179C79.0245 252.717 79.467 253.16 80.0044 253.16H86.8163C87.3537 253.16 87.7962 252.717 87.7962 252.179V249.032H135.764V252.179C135.764 252.717 136.207 253.16 136.744 253.16H143.556C144.094 253.16 144.536 252.717 144.536 252.179V249.032H192.504V252.179C192.504 252.717 192.947 253.16 193.484 253.16H200.296C200.834 253.16 201.276 252.717 201.276 252.179V249.032H249.244V252.179C249.244 252.717 249.687 253.16 250.224 253.16H257.036C257.573 253.16 258.016 252.717 258.016 252.179V249.032H305.984V252.179C305.984 252.717 306.427 253.16 306.964 253.16H313.776C314.313 253.16 314.756 252.717 314.756 252.179V249.032H332.774V249.822H315.546V252.179C315.546 253.16 314.756 253.95 313.776 253.95Z" fill="#1B5CA8"/>
<path d="M332.774 211.878H8.96094V212.669H332.774V211.878Z" fill="#1B5CA8"/>
<path d="M28.3543 248.193H24.6875V245.852H26.1258V233.452H26.916V245.852H28.3543V248.193ZM25.4778 247.402H27.564V246.643H25.4778V247.402ZM28.3543 232.029H24.6875V229.688H26.1258V217.288H26.916V229.688H28.3543V232.029ZM25.4778 231.238H27.564V230.479H25.4778V231.238ZM28.3543 215.848H24.6875V213.508H28.3543V215.848ZM25.4778 215.058H27.564V214.298H25.4778V215.058Z" fill="#1B5CA8"/>
<path d="M22.9319 237.517H12.959V238.308H22.9319V237.517Z" fill="#1B5CA8"/>
<path d="M80.6372 237.517H29.1445V238.308H80.6372V237.517Z" fill="#1B5CA8"/>
<path d="M137.375 237.517H85.8828V238.308H137.375V237.517Z" fill="#1B5CA8"/>
<path d="M194.116 237.517H142.623V238.308H194.116V237.517Z" fill="#1B5CA8"/>
<path d="M250.856 237.517H199.363V238.308H250.856V237.517Z" fill="#1B5CA8"/>
<path d="M168.054 207.149H166.474V196.22C166.474 196.03 166.316 195.872 166.126 195.872H164.466C164.277 195.872 164.119 196.03 164.119 196.22V207.149H162.538V202.373H159.63V203.685H155.236V174.52H159.63V176.892H170.978V174.52H175.372V203.685H170.978V202.373H168.054V207.149ZM172.559 202.104H173.791V176.101H172.559V202.104ZM156.817 202.104H158.05V176.101H156.817V202.104ZM168.054 200.791H170.978V191.871H159.63V200.791H162.554V196.22C162.554 195.16 163.423 194.29 164.482 194.29H166.142C167.201 194.29 168.07 195.16 168.07 196.22V200.791H168.054ZM159.63 190.289H170.978V178.49H159.63V190.289Z" fill="#1B5CA8"/>
<path d="M156.644 111.708L155.855 111.766L160.459 174.529L161.247 174.471L156.644 111.708Z" fill="#1B5CA8"/>
<path d="M173.411 118.821L169.385 174.477L170.173 174.534L174.199 118.878L173.411 118.821Z" fill="#1B5CA8"/>
<path d="M169.919 116.568H169.129V174.741H169.919V116.568Z" fill="#1B5CA8"/>
<path d="M2.06985 232.029C-0.553774 228.011 -0.111234 224.864 0.394525 221.226C0.6316 219.565 0.868675 217.857 0.868675 215.848C0.868675 214.963 1.62731 214.235 2.55981 214.235H5.78403V215.026H2.544C2.03824 215.026 1.64312 215.39 1.64312 215.848C1.64312 217.905 1.39024 219.739 1.16897 221.337C0.773845 224.184 0.44194 226.572 1.51668 229.292C1.18477 225.164 2.18049 219.281 2.544 217.272C2.65464 216.703 3.14459 216.291 3.71357 216.291H4.85153V217.082H3.72938C3.53972 217.082 3.36586 217.224 3.33425 217.414C2.87591 219.882 1.48507 228.217 2.76527 231.681L2.06985 232.029Z" fill="#1B5CA8"/>
<path d="M85.0769 248.193H81.4102V245.852H82.8484V233.452H83.6387V245.852H85.0769V248.193ZM82.2162 247.402H84.3025V246.643H82.2162V247.402ZM85.0769 232.029H81.4102V229.688H82.8484V217.288H83.6387V229.688H85.0769V232.029ZM82.2162 231.238H84.3025V230.479H82.2162V231.238ZM85.0769 215.848H81.4102V213.508H85.0769V215.848ZM82.2162 215.058H84.3025V214.298H82.2162V215.058Z" fill="#1B5CA8"/>
<path d="M141.817 248.193H138.15V245.852H139.589V233.452H140.379V245.852H141.817V248.193ZM138.956 247.402H141.043V246.643H138.956V247.402ZM141.817 232.029H138.15V229.688H139.589V217.288H140.379V229.688H141.817V232.029ZM138.956 231.238H141.043V230.479H138.956V231.238ZM141.817 215.848H138.15V213.508H141.817V215.848ZM138.956 215.058H141.043V214.298H138.956V215.058Z" fill="#1B5CA8"/>
<path d="M198.557 248.193H194.891V245.852H196.329V233.452H197.119V245.852H198.557V248.193ZM195.697 247.402H197.783V246.643H195.697V247.402ZM198.557 232.029H194.891V229.688H196.329V217.288H197.119V229.688H198.557V232.029ZM195.697 231.238H197.783V230.479H195.697V231.238ZM198.557 215.848H194.891V213.508H198.557V215.848ZM195.697 215.058H197.783V214.298H195.697V215.058Z" fill="#1B5CA8"/>
<path d="M255.645 346.699C243.333 346.699 233.312 336.671 233.312 324.35C233.312 312.029 243.333 302.001 255.645 302.001C267.957 302.001 277.977 312.029 277.977 324.35C277.977 336.671 267.957 346.699 255.645 346.699ZM255.645 302.808C243.775 302.808 234.103 312.472 234.103 324.366C234.103 336.244 243.76 345.924 255.645 345.924C267.53 345.924 277.187 336.26 277.187 324.366C277.187 312.472 267.514 302.808 255.645 302.808Z" fill="#1B5CA8"/>
<path d="M254.381 353.958C238.766 353.958 226.059 341.242 226.059 325.615C226.059 309.988 238.766 297.272 254.381 297.272C269.996 297.272 282.704 309.988 282.704 325.615C282.704 341.242 269.996 353.958 254.381 353.958ZM254.381 298.869C239.635 298.869 227.639 310.874 227.639 325.631C227.639 340.388 239.635 352.393 254.381 352.393C269.127 352.393 281.123 340.388 281.123 325.631C281.123 310.874 269.127 298.869 254.381 298.869Z" fill="#1B5CA8"/>
<path d="M254.382 368.605C230.706 368.605 211.439 349.324 211.439 325.631C211.439 301.938 230.706 282.657 254.382 282.657C278.057 282.657 297.324 301.938 297.324 325.631C297.324 349.324 278.057 368.605 254.382 368.605ZM254.382 283.432C231.132 283.432 212.23 302.365 212.23 325.615C212.23 348.866 231.148 367.798 254.382 367.798C277.615 367.798 296.533 348.866 296.533 325.615C296.533 302.365 277.631 283.432 254.382 283.432Z" fill="#1B5CA8"/>
<path d="M254.38 369C230.483 369 211.043 349.546 211.043 325.631C211.043 301.716 230.483 282.262 254.38 282.262C278.277 282.262 297.717 301.716 297.717 325.631C297.717 349.546 278.277 369 254.38 369ZM254.38 283.828C231.352 283.828 212.623 302.571 212.623 325.615C212.623 348.66 231.352 367.403 254.38 367.403C277.408 367.403 296.137 348.66 296.137 325.615C296.137 302.571 277.408 283.828 254.38 283.828Z" fill="#1B5CA8"/>
<path d="M313.017 327.244L312.701 321.977C310.82 291.23 285.2 267.157 254.396 267.157C228.729 267.157 206.333 283.606 198.652 308.09L197.15 307.616C205.037 282.468 228.049 265.576 254.412 265.576C286.053 265.576 312.369 290.313 314.297 321.883L314.613 327.149L313.017 327.244Z" fill="#1B5CA8"/>
<path d="M208.752 267.711L208.262 267.094C210.854 265.054 213.604 263.156 216.449 261.463L216.844 262.143C214.046 263.82 211.328 265.686 208.752 267.711Z" fill="#1B5CA8"/>
<path d="M272.747 364.793L272.446 364.065C288.71 357.407 302.982 336.671 302.982 319.684C302.982 296.276 283.952 277.232 260.561 277.232C248.549 277.232 240.647 281.408 230.263 289.126C223.894 293.856 218.947 300.23 215.959 307.553L215.232 307.252C218.283 299.803 223.309 293.318 229.789 288.494C240.299 280.68 248.312 276.442 260.545 276.442C284.379 276.442 303.756 295.833 303.756 319.684C303.772 336.956 289.279 358.039 272.747 364.793Z" fill="#1B5CA8"/>
<path d="M5.76829 255.548H3.19208C2.68632 255.548 2.27539 255.089 2.27539 254.536V252.1C2.27539 251.546 2.68632 251.088 3.19208 251.088H5.76829V251.879H3.19208C3.14466 251.879 3.06564 251.958 3.06564 252.1V254.536C3.06564 254.662 3.14466 254.757 3.19208 254.757H5.76829V255.548Z" fill="#1B5CA8"/>
<path d="M19.3125 279.747V261.811H20.893V278.023C29.0168 277.217 47.3347 274.164 47.3347 268.296V261.827H48.9152V268.296C48.9152 276.932 23.1057 279.431 20.166 279.684L19.3125 279.747Z" fill="#1B5CA8"/>
<path d="M28.2122 270.178H27.2165C26.4736 270.178 25.873 269.577 25.873 268.834V261.811H26.6633V268.834C26.6633 269.134 26.9162 269.387 27.2165 269.387H28.2122C28.5125 269.387 28.7654 269.134 28.7654 268.834V261.811H29.5556V268.834C29.5714 269.577 28.955 270.178 28.2122 270.178Z" fill="#1B5CA8"/>
<path d="M71.8326 266.192H59.8208C58.8567 266.192 58.0664 265.402 58.0664 264.437V261.811H58.8567V264.437C58.8567 264.975 59.2992 265.402 59.8208 265.402H71.8326C72.3699 265.402 72.7967 264.959 72.7967 264.437V261.811H73.5869V264.437C73.5869 265.402 72.7967 266.192 71.8326 266.192Z" fill="#1B5CA8"/>
<path d="M167.485 266.192H155.473C154.509 266.192 153.719 265.402 153.719 264.437V261.811H154.509V264.437C154.509 264.975 154.952 265.402 155.473 265.402H167.485C168.022 265.402 168.449 264.959 168.449 264.437V261.811H169.239V264.437C169.239 265.402 168.449 266.192 167.485 266.192Z" fill="#1B5CA8"/>
<path d="M178.153 323.132H152.17V321.55H178.153C178.833 321.55 179.37 320.997 179.37 320.332V313.974H180.951V320.332C180.967 321.867 179.702 323.132 178.153 323.132Z" fill="#1B5CA8"/>
<path d="M35.1019 324.856H28.3848V308.755L58.4617 298.854V286.849L60.785 285.932V283.053H53.1512V278.087H60.785V275.224H53.3408V261.811H54.9213V273.642H62.3655V279.668H54.7317V281.471H62.3655V287.023L60.0422 287.924V299.992L29.9653 309.909V323.274H34.849L84.4451 307.031L84.935 308.533L35.1019 324.856Z" fill="#1B5CA8"/>
<path d="M158.066 342.128H131.197V338.205H137.409V268.043H152.566V338.205H158.066V342.128ZM131.988 341.337H157.291V338.996H131.988V341.337ZM138.199 338.205H151.775V334.425H138.199V338.205ZM148.03 333.634H151.775V333.128L138.199 319.542V323.796L148.03 333.634ZM142.656 333.634H146.907L138.199 324.919V329.174L142.656 333.634ZM138.199 333.634H141.534L138.199 330.297V333.634ZM138.199 318.419L151.775 332.005V327.75L138.199 314.164V318.419ZM138.199 313.041L151.775 326.627V322.373L138.389 308.976H138.199V313.041ZM139.511 308.976L151.791 321.266V317.011L143.778 308.992H139.511V308.976ZM144.884 308.976L151.791 315.888V308.976H144.884ZM138.199 308.185H151.775V268.834H138.199V308.185Z" fill="#1B5CA8"/>
<path d="M157.874 341.922H131.385V338.395H137.596V268.233H152.358V338.395H157.858V341.922H157.874ZM131.78 341.527H157.479V338.79H151.979V268.628H138.007V338.79H131.796V341.527H131.78Z" fill="#FF17C0"/>
<path d="M158.27 342.317H130.99V338H137.202V267.837H152.754V338H158.254V342.317H158.27ZM132.176 341.131H157.084V339.186H151.584V269.024H138.403V339.186H132.191V341.131H132.176Z" fill="#1B5CA8"/>
<path d="M137.803 322.737H90.862C87.2426 322.737 84.2871 319.779 84.2871 316.157V306.635C84.2871 303.013 87.2426 300.056 90.862 300.056H137.803V300.847H90.862C87.6694 300.847 85.0774 303.44 85.0774 306.635V316.157C85.0774 319.352 87.6694 321.946 90.862 321.946H137.803V322.737Z" fill="#1B5CA8"/>
<path d="M137.803 323.132H90.8626C87.022 323.132 83.8926 320 83.8926 316.157V306.635C83.8926 302.792 87.022 299.66 90.8626 299.66H137.803V301.242H90.8626C87.8912 301.242 85.4731 303.662 85.4731 306.635V316.157C85.4731 319.13 87.8912 321.55 90.8626 321.55H137.803V323.132Z" fill="#1B5CA8"/>
<path d="M137.803 300.847H90.862C87.2426 300.847 84.2871 297.889 84.2871 294.267V284.745C84.2871 281.123 87.2426 278.166 90.862 278.166H137.803V278.956H90.862C87.6694 278.956 85.0774 281.55 85.0774 284.745V294.267C85.0774 297.462 87.6694 300.056 90.862 300.056H137.803V300.847Z" fill="#1B5CA8"/>
<path d="M137.803 301.242H90.8626C87.022 301.242 83.8926 298.11 83.8926 294.267V284.745C83.8926 280.902 87.022 277.77 90.8626 277.77H137.803V279.352H90.8626C87.8912 279.352 85.4731 281.772 85.4731 284.745V294.267C85.4731 297.24 87.8912 299.66 90.8626 299.66H137.803V301.242Z" fill="#1B5CA8"/>
<path d="M156.327 277.217H151.791V272.219H156.327C157.022 272.219 157.576 272.772 157.576 273.468V275.951C157.576 276.663 157.007 277.217 156.327 277.217ZM152.565 276.426H156.311C156.564 276.426 156.77 276.22 156.77 275.967V273.484C156.77 273.231 156.564 273.025 156.311 273.025H152.565V276.426Z" fill="#1B5CA8"/>
<path d="M173.191 315.508H172.938C163.644 315.319 153.703 305.433 153.703 278.197V277.802H157.67V278.197C157.67 302.808 165.936 311.697 173.017 311.839C173.048 311.839 173.08 311.839 173.112 311.839C176.526 311.839 179.955 309.672 181.678 306.414C182.958 303.962 184.349 298.759 179.165 291.388C176.162 287.118 172.78 282.294 172.78 275.366C172.78 269.293 174.913 265.133 179.908 261.495L180.366 262.128C175.593 265.607 173.554 269.561 173.554 275.366C173.554 282.041 176.873 286.77 179.797 290.93C185.218 298.648 183.733 304.184 182.358 306.778C180.508 310.289 176.794 312.63 173.096 312.63C173.064 312.63 173.033 312.63 173.001 312.63C165.604 312.488 156.975 303.472 156.88 278.593H154.493C154.588 304.943 164.071 314.544 172.938 314.718H173.175C177.758 314.718 182.326 311.855 184.539 307.584C186.088 304.595 187.794 298.332 181.836 289.838C178.944 285.71 175.941 281.455 175.941 275.366C175.941 269.182 178.628 265.149 185.218 261.463L185.598 262.159C178.232 266.272 176.731 270.415 176.731 275.366C176.731 281.202 179.655 285.362 182.484 289.395C188.68 298.221 186.878 304.816 185.25 307.964C182.911 312.472 178.059 315.508 173.191 315.508Z" fill="#1B5CA8"/>
<path d="M173.823 270.083H170.473V261.811H171.263V269.292H173.033V261.811H173.823V270.083Z" fill="#1B5CA8"/>
<path d="M208.909 270.083H205.543V261.811H206.333V269.292H208.119V261.811H208.909V270.083Z" fill="#1B5CA8"/>
<path d="M136.206 270.083H132.84V261.811H133.63V269.292H135.416V261.811H136.206V270.083Z" fill="#1B5CA8"/>
<path d="M95.3038 270.083H91.9531V261.811H92.7434V269.292H94.5135V261.811H95.3038V270.083Z" fill="#1B5CA8"/>
<path d="M54.4151 270.083H51.0645V261.811H51.8547V269.292H53.6249V261.811H54.4151V270.083Z" fill="#1B5CA8"/>
<path d="M206.935 75.6031H203.395V66.4295H206.935V75.6031ZM204.185 74.8123H206.145V67.2203H204.185V74.8123Z" fill="#1B5CA8"/>
<path d="M197.072 75.6031H193.531V66.4295H197.072V75.6031ZM194.322 74.8123H196.281V67.2203H194.322V74.8123Z" fill="#1B5CA8"/>
<path d="M187.195 75.6031H183.654V66.4295H187.195V75.6031ZM184.445 74.8123H186.404V67.2203H184.445V74.8123Z" fill="#1B5CA8"/>
<path d="M177.316 75.6031H173.775V66.4295H177.316V75.6031ZM174.566 74.8123H176.525V67.2203H174.566V74.8123Z" fill="#1B5CA8"/>
<path d="M163.233 75.6031C162.253 75.6031 161.463 74.8123 161.463 73.8316V72.3923C161.463 71.4117 162.253 70.6209 163.233 70.6209C164.213 70.6209 165.003 71.4117 165.003 72.3923V73.8316C165.003 74.8123 164.213 75.6031 163.233 75.6031ZM163.233 71.4117C162.696 71.4117 162.253 71.8546 162.253 72.3923V73.8316C162.253 74.3694 162.696 74.8123 163.233 74.8123C163.77 74.8123 164.213 74.3694 164.213 73.8316V72.3923C164.213 71.8546 163.77 71.4117 163.233 71.4117Z" fill="#1B5CA8"/>
<path d="M167.865 73.974C166.474 73.974 165.352 72.8352 165.352 71.4591C165.352 70.0831 166.49 68.9443 167.865 68.9443C169.24 68.9443 170.378 70.0831 170.378 71.4591C170.378 72.8352 169.255 73.974 167.865 73.974ZM167.865 69.7193C166.916 69.7193 166.142 70.4943 166.142 71.4433C166.142 72.3923 166.916 73.1673 167.865 73.1673C168.813 73.1673 169.587 72.3923 169.587 71.4433C169.587 70.4943 168.813 69.7193 167.865 69.7193Z" fill="#1B5CA8"/>
<path d="M166.915 112.614L159.534 109.672C154.492 107.663 151.221 102.855 151.221 97.4141V88.8099C151.221 86.3267 153.228 84.318 155.709 84.318L155.867 84.3496L168.243 90.091C169.539 90.6921 170.376 92.0048 170.376 93.4441V101.115H169.586V93.4441C169.586 92.3212 168.922 91.2931 167.911 90.8186L155.614 85.1088C153.607 85.1563 151.995 86.8012 151.995 88.8099V97.4141C151.995 102.523 155.061 107.046 159.803 108.944L167.184 111.886L166.915 112.614Z" fill="#1B5CA8"/>
<path d="M156.073 84.8558L155.346 84.5552L166.378 57.7462C167.12 55.9589 168.843 54.7885 170.787 54.7885H175.086V55.5793H170.787C169.175 55.5793 167.721 56.5442 167.105 58.0467L156.073 84.8558Z" fill="#1B5CA8"/>
<path d="M195.681 88.1614L194.906 88.0033C199.679 63.6774 215.879 36.9633 225.852 36.9633C232.095 36.9633 236.552 43.3057 236.726 43.5746L236.078 44.0174C236.031 43.9542 231.669 37.7383 225.852 37.7383C216.18 37.7541 200.391 64.1361 195.681 88.1614Z" fill="#1B5CA8"/>
<path d="M186.373 87.4813C185.488 70.7 190.387 51.641 197.531 44.1123C199.617 41.9138 201.767 40.8067 203.932 40.8067C210.128 40.8067 214.569 44.9032 214.758 45.0772L214.221 45.6624C214.174 45.6149 209.812 41.6133 203.932 41.6133C201.988 41.6133 200.028 42.6414 198.1 44.6817C191.083 52.0839 186.278 70.8739 187.163 87.4655L186.373 87.4813Z" fill="#1B5CA8"/>
<path d="M176.542 87.4655C170.994 70.8739 172.796 55.6584 177.443 49.1895C179.181 46.7695 181.362 45.4884 183.733 45.4884C189.692 45.4884 193.959 49.5849 194.133 49.7589L193.58 50.3283C193.532 50.2808 189.36 46.2792 183.733 46.2792C181.584 46.2792 179.687 47.418 178.075 49.6481C172.148 57.8886 173.239 75.1444 177.285 87.2124L176.542 87.4655Z" fill="#1B5CA8"/>
<path d="M175.687 118.023C174.281 118.023 173.127 116.868 173.127 115.461V105.828C173.127 104.104 174.534 102.697 176.256 102.697H177.584C178.343 102.697 179.054 103.029 179.544 103.614C180.034 104.199 180.223 104.959 180.097 105.702L178.216 115.919C177.979 117.153 176.92 118.023 175.687 118.023ZM176.256 103.488C174.96 103.488 173.917 104.532 173.917 105.828V115.461C173.917 116.441 174.707 117.232 175.687 117.232C176.541 117.232 177.268 116.615 177.426 115.777L179.307 105.56C179.402 105.038 179.259 104.516 178.927 104.12C178.595 103.725 178.106 103.488 177.568 103.488H176.256Z" fill="#1B5CA8"/>
<path d="M169.444 115.825C168.211 115.825 167.152 114.939 166.931 113.721L165.05 103.503C164.908 102.76 165.113 101.985 165.603 101.416C166.093 100.83 166.804 100.498 167.563 100.498H168.891C170.613 100.498 172.02 101.906 172.02 103.63V113.262C172.004 114.67 170.866 115.825 169.444 115.825ZM167.547 101.289C167.026 101.289 166.536 101.526 166.188 101.922C165.856 102.317 165.714 102.855 165.809 103.361L167.689 113.579C167.848 114.417 168.575 115.034 169.428 115.034C170.408 115.034 171.198 114.243 171.198 113.262V103.63C171.198 102.333 170.155 101.289 168.859 101.289H167.547Z" fill="#1B5CA8"/>
<path d="M170.347 93.1911L169.588 92.938L170.078 91.4354C170.094 91.388 171.627 86.9435 177.759 86.9435H178.186C183.876 86.9435 198.985 86.9277 205.639 89.8538L205.323 90.5814C198.827 87.7186 183.86 87.7344 178.186 87.7344H177.759C172.18 87.7344 170.836 91.6411 170.821 91.6885L170.347 93.1911Z" fill="#1B5CA8"/>
<path d="M556.826 117.628C552.432 117.628 548.781 116.188 545.999 113.326C539.946 107.125 539.804 96.3702 539.835 94.3773C538.697 94.0294 534.414 92.7957 532.059 92.7957H210.238C207.614 92.7957 205.307 91.3089 204.201 88.9206C203.094 86.5323 203.474 83.8119 205.18 81.819L236.111 45.6149L236.711 46.1369L205.781 82.3409C204.28 84.0966 203.948 86.5007 204.912 88.6043C205.876 90.7079 207.915 92.0207 210.238 92.0207H532.059C534.904 92.0207 540.136 93.6656 540.357 93.7288L540.641 93.8237L540.626 94.1243C540.626 94.2508 540.246 106.335 546.568 112.788C549.255 115.54 552.795 116.932 557.094 116.853C562.531 116.774 570.797 116.758 581.592 116.742V117.533C570.781 117.517 562.531 117.564 557.094 117.643C557.015 117.628 556.921 117.628 556.826 117.628Z" fill="#1B5CA8"/>
<path d="M226.437 103.804L220.494 100.135V92.4003H221.284V99.6917L225.647 102.38V92.4003H226.437V103.804Z" fill="#1B5CA8"/>
<path d="M210.222 103.804L204.279 100.135V91.8941H205.07V99.6917L209.432 102.381V92.4003H210.222V103.804Z" fill="#1B5CA8"/>
<path d="M201.497 103.757L194.906 100.135V89.6165H195.697V99.6759L200.707 102.428V88.9364H201.497V103.757Z" fill="#1B5CA8"/>
<path d="M193.011 103.757L186.404 100.135V89.4426H187.195V99.6759L192.221 102.428V87.766H193.011V103.757Z" fill="#1B5CA8"/>
<path d="M185.329 96.6391C183.717 95.4528 182.579 93.9028 181.979 92.0207L182.737 91.7834C183.29 93.5074 184.318 94.9309 185.788 96.0064L185.329 96.6391Z" fill="#1B5CA8"/>
<path d="M186.183 98.5213C185.582 98.2366 184.982 97.9044 184.429 97.509C182.643 96.2437 181.394 94.5671 180.73 92.5268C180.667 92.337 180.62 92.163 180.572 91.9732L181.331 91.7676C181.378 91.9416 181.426 92.1156 181.489 92.2895C182.105 94.1559 183.243 95.6901 184.903 96.8605C185.424 97.2243 185.962 97.5406 186.531 97.8095L186.183 98.5213Z" fill="#1B5CA8"/>
<path d="M193.831 99.3279C193.404 99.2963 192.978 99.2488 192.551 99.2014L192.646 98.4105C193.057 98.458 193.467 98.5054 193.894 98.5371L193.831 99.3279Z" fill="#1B5CA8"/>
<path d="M201.149 99.1697L201.07 98.3789C201.94 98.284 202.761 98.1733 203.488 98.0626L203.615 98.8376C202.856 98.9641 202.034 99.0748 201.149 99.1697Z" fill="#1B5CA8"/>
<path d="M209.825 97.4157L209.807 98.2063L218.971 98.4145L218.989 97.6239L209.825 97.4157Z" fill="#1B5CA8"/>
<path d="M301.322 99.8182C301.022 99.8182 253.101 99.1539 226.027 98.5687L226.043 97.7779C253.117 98.3631 301.038 99.0274 301.338 99.0274L301.322 99.8182Z" fill="#1B5CA8"/>
<path d="M193.831 100.736C193.404 100.704 192.978 100.656 192.551 100.609L192.646 99.8182C193.057 99.8657 193.467 99.9131 193.878 99.9447L193.831 100.736Z" fill="#1B5CA8"/>
<path d="M201.149 100.577L201.07 99.7866C201.94 99.6917 202.761 99.581 203.488 99.4703L203.615 100.245C202.856 100.372 202.034 100.483 201.149 100.577Z" fill="#1B5CA8"/>
<path d="M209.819 98.8149L209.801 99.6055L218.965 99.8138L218.983 99.0232L209.819 98.8149Z" fill="#1B5CA8"/>
<path d="M301.322 101.226C301.022 101.226 253.101 100.562 226.027 99.9764L226.043 99.1855C253.117 99.7708 301.038 100.435 301.338 100.435L301.322 101.226Z" fill="#1B5CA8"/>
<path d="M182.815 92.2895H181.234C180.191 92.2895 179.354 91.4513 179.354 90.4074V87.339H180.144V90.4074C180.144 91.0084 180.634 91.4987 181.234 91.4987H182.815C183.415 91.4987 183.905 91.0084 183.905 90.4074V88.2721H184.696V90.4074C184.696 91.4513 183.858 92.2895 182.815 92.2895Z" fill="#1B5CA8"/>
<path d="M246.573 77.3271C238.292 77.3271 231.559 70.5892 231.559 62.3014C231.559 54.0135 238.292 47.2757 246.573 47.2757C254.855 47.2757 261.588 54.0135 261.588 62.3014C261.588 70.5892 254.855 77.3271 246.573 77.3271ZM246.573 48.0665C238.734 48.0665 232.349 54.4564 232.349 62.3014C232.349 70.1464 238.734 76.5363 246.573 76.5363C254.413 76.5363 260.798 70.1464 260.798 62.3014C260.798 54.4564 254.413 48.0665 246.573 48.0665Z" fill="#1B5CA8"/>
<path d="M247.821 79.8261C239.492 79.8261 232.537 73.5786 231.652 65.3065L232.443 65.2274C233.28 73.1041 239.903 79.0511 247.821 79.0511C256.356 79.0511 263.294 72.1076 263.294 63.5667C263.294 57.0186 259.153 51.1507 252.989 48.968L253.258 48.2246C259.738 50.518 264.084 56.6865 264.084 63.5667C264.084 72.5189 256.782 79.8261 247.821 79.8261Z" fill="#1B5CA8"/>
<path d="M166.773 112.978L159.392 110.036C154.193 107.964 150.826 103.013 150.826 97.4141V88.8099C150.826 86.2951 152.723 84.2231 155.173 83.9542L166.015 57.6039C166.821 55.6584 168.686 54.4089 170.788 54.4089H174.502C176.414 48.4777 179.765 45.093 183.748 45.093C188.458 45.093 192.14 47.592 193.674 48.8257C196.787 43.3057 200.312 40.4113 203.931 40.4113C208.989 40.4113 212.908 43.0685 214.378 44.2547C217.46 40.6327 221.791 36.5995 225.852 36.5995C233.328 36.5995 240.393 48.3512 240.693 48.8573L239.334 49.664C239.271 49.5532 232.443 38.1811 225.852 38.1811C222.976 38.1811 219.151 40.9174 215.089 45.8838L214.552 46.5323L213.935 45.9629C213.888 45.9312 209.637 42.0087 203.915 42.0087C200.786 42.0087 197.467 45.0139 194.574 50.4548L194.211 51.1507L193.31 50.6129C193.263 50.5813 189.185 46.6746 183.732 46.6746C180.382 46.6746 177.505 49.8696 175.83 55.437L175.656 56.0064H170.772C169.318 56.0064 168.022 56.8763 167.469 58.2207L156.231 85.5201H155.71C153.892 85.5201 152.407 87.0068 152.407 88.8257V97.4299C152.407 102.381 155.378 106.762 159.977 108.596L167.358 111.538L166.773 112.978Z" fill="#1B5CA8"/>
<path d="M556.825 118.023C552.32 118.023 548.575 116.536 545.714 113.594C539.819 107.553 539.423 97.3034 539.439 94.6778C538.017 94.2508 534.208 93.1911 532.058 93.1911H210.237C208.862 93.1911 207.756 92.4793 206.681 91.7992C206.159 91.4671 205.669 91.1508 205.164 90.9293C198.731 88.0982 183.274 88.0982 178.2 88.114H177.774C172.526 88.114 171.262 91.6569 171.215 91.7992L170.772 93.1436C170.772 93.2385 170.788 93.3334 170.788 93.4442V101.115H169.207V93.4442C169.207 93.3493 169.207 93.2544 169.192 93.1595L169.176 92.9855L169.713 91.3247C169.776 91.1349 171.341 86.5481 177.774 86.5481H178.2C183.89 86.5481 199.079 86.5323 205.812 89.49C206.428 89.7589 206.981 90.1227 207.534 90.4706C208.467 91.0559 209.336 91.6253 210.253 91.6253H532.074C534.966 91.6253 540.261 93.286 540.482 93.3493L541.051 93.5232L541.036 94.1243C541.036 94.2508 540.672 106.161 546.868 112.503C549.475 115.176 552.921 116.536 557.109 116.441C562.546 116.362 570.812 116.331 581.623 116.331V117.912C570.796 117.912 562.578 117.944 557.141 118.023C557.014 118.023 556.92 118.023 556.825 118.023Z" fill="#1B5CA8"/>
<path d="M169.16 305.813C167.295 305.813 165.777 304.295 165.777 302.428V292.495C165.777 290.629 167.295 289.111 169.16 289.111C171.025 289.111 172.542 290.629 172.542 292.495V302.428C172.542 304.31 171.025 305.813 169.16 305.813ZM169.16 289.901C167.737 289.901 166.568 291.072 166.568 292.495V302.428C166.568 303.852 167.721 305.022 169.16 305.022C170.582 305.022 171.752 303.867 171.752 302.428V292.495C171.752 291.072 170.582 289.901 169.16 289.901Z" fill="#1B5CA8"/>
<path d="M170.25 275.556H158.918V276.347H170.25V275.556Z" fill="#1B5CA8"/>
<path d="M137.803 276.347H130.185C127.008 276.347 124.416 273.753 124.416 270.574V261.811H125.206V270.574C125.206 273.326 127.435 275.556 130.185 275.556H137.803V276.347Z" fill="#1B5CA8"/>
<path d="M82.9435 282.831H78.2969V278.181H82.9435V282.831ZM79.0871 282.041H82.1533V278.972H79.0871V282.041Z" fill="#1B5CA8"/>
<path d="M135.812 303.709H90.8789V304.5H135.812V303.709Z" fill="#1B5CA8"/>
<path d="M135.812 307.395H90.8789V308.185H135.812V307.395Z" fill="#1B5CA8"/>
<path d="M135.812 311.08H90.8789V311.871H135.812V311.08Z" fill="#1B5CA8"/>
<path d="M135.812 314.765H90.8789V315.556H135.812V314.765Z" fill="#1B5CA8"/>
<path d="M135.812 318.45H90.8789V319.241H135.812V318.45Z" fill="#1B5CA8"/>
<path d="M135.812 281.756H90.8789V282.547H135.812V281.756Z" fill="#1B5CA8"/>
<path d="M135.812 285.441H90.8789V286.232H135.812V285.441Z" fill="#1B5CA8"/>
<path d="M135.812 289.111H90.8789V289.901H135.812V289.111Z" fill="#1B5CA8"/>
<path d="M135.812 292.796H90.8789V293.587H135.812V292.796Z" fill="#1B5CA8"/>
<path d="M135.812 296.481H90.8789V297.272H135.812V296.481Z" fill="#1B5CA8"/>
<path d="M196.313 333.429L194.764 333.096C199.916 308.707 194.811 282.847 194.764 282.594L194.4 280.76L194.622 280.475C197.798 276.268 201.434 272.377 205.432 268.913L206.46 270.115C202.635 273.421 199.158 277.138 196.092 281.139L196.329 282.278C196.376 282.547 201.544 308.707 196.313 333.429Z" fill="#1B5CA8"/>
<path d="M193.325 278.055C193.31 277.96 191.571 268.739 188.584 265.022L189.817 264.026C193.057 268.043 194.811 277.359 194.89 277.754L193.325 278.055Z" fill="#1B5CA8"/>
<path d="M196.539 307.926L179.732 318.644L180.582 319.978L197.389 309.26L196.539 307.926Z" fill="#1B5CA8"/>
<path d="M211.817 316.189H194.1V316.979H211.817V316.189Z" fill="#1B5CA8"/>
<path d="M213.793 313.183H211.422V304.374H217.27V305.164H212.212V312.393H213.793V313.183Z" fill="#1B5CA8"/>
<path d="M214.994 302.207H211.422V298H220.573V298.79H212.212V301.416H214.994V302.207Z" fill="#1B5CA8"/>
<path d="M171.562 199.795H167.485V199.004H171.562V199.795ZM163.123 199.795H159.045V199.004H163.123V199.795ZM167.674 186.224H159.25V185.433H167.674V186.224Z" fill="#1B5CA8"/>
</g>
<defs>
<clipPath id="clip0">
<rect width="874" height="369" fill="white"/>
</clipPath>
</defs>
</svg>
