<svg width="234" height="369" viewBox="0 0 234 369" fill="none" xmlns="http://www.w3.org/2000/svg">
<g clip-path="url(#clip0)">
<path d="M99.0088 335.627C98.9614 335.627 98.9298 335.627 98.8824 335.627C98.2186 335.595 97.6022 335.295 97.1596 334.789C95.8636 333.334 94.7415 331.705 93.8564 329.965C93.6667 329.601 93.5719 329.206 93.5719 328.794C93.5719 327.845 94.0777 326.991 94.8995 326.564C95.4843 326.248 96.1481 326.185 96.7803 326.39C97.4125 326.596 97.9341 327.039 98.2502 327.64C98.9456 329 99.8307 330.281 100.842 331.42C101.759 332.448 101.68 334.045 100.668 334.979C100.226 335.39 99.641 335.627 99.0088 335.627ZM94.5676 329.601C95.4369 331.277 96.5116 332.859 97.7602 334.267C98.0605 334.615 98.4872 334.805 98.9298 334.836C99.3881 334.868 99.8149 334.71 100.147 334.393C100.842 333.761 100.905 332.653 100.273 331.942C99.2143 330.74 98.2976 329.411 97.5706 327.988C97.3651 327.576 97.0016 327.276 96.559 327.134C96.1323 327.007 95.674 327.039 95.2788 327.26C94.7099 327.561 94.3622 328.146 94.3622 328.794C94.3622 329.079 94.4253 329.348 94.5676 329.601ZM94.046 318.782C93.9512 318.782 93.8722 318.782 93.7773 318.767C92.5129 318.624 91.5488 317.549 91.5488 316.268C91.5488 316.173 91.5488 316.094 91.5646 315.999C91.7701 314.037 92.2126 312.108 92.8923 310.273C93.1293 309.64 93.5877 309.134 94.2041 308.85C94.8047 308.581 95.4843 308.549 96.1007 308.786C97.3809 309.277 98.0289 310.732 97.5548 312.029C97.0174 313.468 96.6697 314.986 96.5116 316.521C96.4484 317.201 96.1165 317.802 95.595 318.229C95.1366 318.593 94.5992 318.782 94.046 318.782ZM95.2314 309.419C94.9943 309.419 94.7573 309.466 94.536 309.577C94.1251 309.767 93.7932 310.115 93.6351 310.542C92.9871 312.313 92.5446 314.18 92.3549 316.078C92.3549 316.141 92.3391 316.204 92.3391 316.268C92.3391 317.153 92.9871 317.897 93.8564 317.992C94.2989 318.039 94.7415 317.913 95.0892 317.628C95.4527 317.343 95.674 316.916 95.7214 316.457C95.8952 314.86 96.2587 313.278 96.8119 311.776C97.1438 310.874 96.6855 309.878 95.8162 309.546C95.6265 309.466 95.4211 309.419 95.2314 309.419ZM102.581 303.946C102.438 303.946 102.312 303.931 102.17 303.915C101.506 303.804 100.937 303.44 100.542 302.887C100.242 302.46 100.084 301.954 100.084 301.432C100.084 300.625 100.479 299.85 101.127 299.376C102.707 298.237 104.414 297.288 106.216 296.576C106.832 296.339 107.496 296.355 108.112 296.623C108.729 296.892 109.203 297.398 109.44 298.031C109.93 299.328 109.298 300.783 108.018 301.289C106.611 301.843 105.268 302.586 104.019 303.472C103.608 303.788 103.102 303.946 102.581 303.946ZM101.206 302.444C101.474 302.824 101.87 303.077 102.312 303.14C102.755 303.219 103.197 303.108 103.561 302.839C104.857 301.906 106.248 301.131 107.733 300.546C108.602 300.198 109.045 299.202 108.713 298.3C108.555 297.873 108.223 297.525 107.812 297.335C107.401 297.161 106.943 297.145 106.532 297.304C104.793 297.984 103.134 298.901 101.617 300.008C101.174 300.34 100.905 300.862 100.905 301.416C100.89 301.795 101 302.143 101.206 302.444ZM125.103 302.982C124.66 302.982 124.218 302.855 123.839 302.634C122.527 301.843 121.136 301.226 119.682 300.799C118.623 300.483 117.896 299.486 117.896 298.379C117.896 298.142 117.927 297.905 117.991 297.683C118.18 297.035 118.607 296.497 119.192 296.165C119.777 295.848 120.44 295.769 121.073 295.959C122.938 296.513 124.724 297.304 126.383 298.3C127.553 299.012 127.948 300.562 127.252 301.748C126.905 302.333 126.367 302.744 125.719 302.903C125.514 302.966 125.308 302.982 125.103 302.982ZM119.887 300.04C121.405 300.483 122.874 301.131 124.234 301.954C124.613 302.191 125.071 302.254 125.514 302.143C125.956 302.033 126.32 301.748 126.557 301.353C127.031 300.53 126.778 299.47 125.956 298.98C124.36 298.015 122.622 297.256 120.82 296.718C120.393 296.592 119.935 296.639 119.54 296.861C119.144 297.082 118.844 297.446 118.718 297.905C118.67 298.063 118.654 298.221 118.654 298.395C118.67 299.138 119.176 299.818 119.887 300.04Z" fill="#1B5CA8"/>
<path d="M-17.6473 103.488H-65.2361C-69.1083 103.488 -72.6644 101.21 -74.2766 97.6829L-82.7006 79.225C-83.6331 77.1847 -83.6647 74.828 -82.7955 72.756L-63.9717 28.2799L-63.2447 28.5962L-82.0684 73.0724C-82.8587 74.9387 -82.8271 77.0581 -81.9894 78.9087L-73.5653 97.3666C-72.0796 100.609 -68.8239 102.713 -65.2519 102.713H-17.6631C-14.8656 102.713 -12.3842 101.036 -11.3411 98.4421L2.09315 65.2115C3.24692 62.3487 5.99696 60.4982 9.07893 60.4982H34.3353C35.9316 60.4982 37.2909 59.3436 37.5595 57.7619L41.2579 35.7137C41.3527 35.1127 41.1947 34.5116 40.7995 34.0529C40.4044 33.5943 39.8355 33.3254 39.2349 33.3254H10.7385C6.61338 33.3254 2.8834 35.7769 1.25549 39.5729L-19.0223 86.7537C-20.1129 89.2843 -22.5784 90.9134 -25.3285 90.9134H-52.3235C-54.9313 90.9134 -57.2862 89.4741 -58.4558 87.1333L-65.0939 73.9739C-65.9789 72.2183 -66.0738 70.1621 -65.3468 68.3274L-52.4657 36.03C-51.7229 34.1795 -52.4657 32.0442 -54.1884 31.0478L-60.1785 27.584C-61.4113 26.8722 -62.9286 26.8722 -64.1614 27.584L-77.7853 35.4606L-86.7309 48.6042L-87.3789 48.1613L-78.2594 34.8121L-64.5565 26.8881C-63.0866 26.034 -61.2533 26.034 -59.7834 26.8881L-53.7933 30.3519C-51.7387 31.5381 -50.8536 34.1004 -51.7229 36.3147L-64.6039 68.6121C-65.2519 70.2254 -65.1729 72.0443 -64.3826 73.6101L-57.7446 86.7695C-56.7014 88.8256 -54.631 90.1068 -52.3235 90.1068H-25.3285C-22.8945 90.1068 -20.6977 88.6675 -19.7494 86.4215L0.528427 39.2408C2.28278 35.1601 6.29728 32.5187 10.7385 32.5187H39.2349C40.0725 32.5187 40.8628 32.8825 41.4001 33.5152C41.9375 34.1478 42.1746 34.9861 42.0323 35.8244L38.3498 57.8885C38.0179 59.8497 36.3426 61.2732 34.3511 61.2732H9.09475C6.32887 61.2732 3.87911 62.934 2.83598 65.4962L-10.5983 98.7268C-11.7678 101.621 -14.5337 103.488 -17.6473 103.488Z" fill="#1B5CA8"/>
<path d="M18.6714 74.48H-0.152344V73.6892H18.6714C22.0537 73.6892 25.2463 72.3764 27.6329 69.9723L35.5511 62.0482L36.1043 62.6018L28.186 70.5259C25.6414 73.0724 22.2591 74.48 18.6714 74.48Z" fill="#1B5CA8"/>
<path d="M-21.9942 117.659L-23.3376 116.821L-11.6419 98.1733L-2.41183 75.2867C-2.17474 74.6857 -1.4635 73.2939 -0.183319 73.2939H18.6405C21.9279 73.2939 25.0099 72.0127 27.3174 69.6877L35.2357 61.7636C35.9153 61.0835 36.2788 60.1187 36.6739 59.0748C36.7687 58.8059 36.8794 58.5528 36.9742 58.2998C37.0532 58.11 37.1164 57.9044 37.148 57.6829L40.8464 35.6347C40.9255 35.1602 40.799 34.6699 40.4828 34.2903C40.1668 33.9265 39.7084 33.7051 39.2185 33.7051H10.7221C6.7551 33.7051 3.16736 36.0617 1.60266 39.7153L-18.6752 86.8961C-19.8289 89.5691 -22.4368 91.2931 -25.3449 91.2931H-52.3398C-55.0898 91.2931 -57.587 89.7589 -58.8198 87.3073L-65.4579 74.148C-66.3904 72.2816 -66.4852 70.1147 -65.7266 68.1851L-52.8456 35.8877C-52.1817 34.227 -52.8456 32.2974 -54.3944 31.3958L-60.3845 27.932C-61.4908 27.2994 -62.8659 27.2994 -63.9723 27.932L-77.5171 35.7612L-86.6524 49.1895H-102.631C-103.437 49.1895 -104.212 49.5216 -104.781 50.0752L-120.001 65.3065C-121.882 67.1887 -124.379 68.2326 -127.05 68.2326H-138.477C-141.18 68.2326 -143.693 67.2203 -145.558 65.4014C-159.592 51.6568 -167.7 50.9609 -189.116 50.9609H-383.881L-384.086 50.8027C-384.371 50.5971 -391.23 45.6782 -399.623 49.917L-400.334 48.5093C-391.799 44.2072 -384.719 48.4619 -383.359 49.3793H-189.053C-168.095 49.3793 -159.008 49.9486 -144.388 64.2784C-142.823 65.8126 -140.705 66.6509 -138.414 66.6509H-126.987C-124.742 66.6509 -122.64 65.781 -121.06 64.1994L-105.84 48.968C-104.986 48.1139 -103.785 47.6078 -102.568 47.6078H-87.4268L-78.4022 34.4801L-64.6993 26.556C-63.103 25.6386 -61.1274 25.6386 -59.5311 26.556L-53.541 30.0198C-51.3125 31.3009 -50.3484 34.0688 -51.3125 36.473L-64.1935 68.7703C-64.7941 70.2887 -64.7151 71.9811 -63.988 73.4362L-57.35 86.5956C-56.3859 88.5252 -54.4419 89.7273 -52.2766 89.7273H-25.2816C-23.0057 89.7273 -20.9511 88.3828 -20.066 86.2792L0.211823 39.0985C2.02939 34.8597 6.17026 32.1392 10.7853 32.1392H39.2818C40.2301 32.1392 41.131 32.5505 41.7473 33.278C42.3637 34.0056 42.6324 34.9546 42.4743 35.9036L38.776 57.9518C38.7286 58.284 38.6337 58.6003 38.5072 58.9008C38.4124 59.1381 38.3176 59.3911 38.2227 59.6442C37.7802 60.783 37.3378 61.9692 36.4211 62.8866L28.5027 70.8107C25.8791 73.4362 22.402 74.8755 18.7036 74.8755H-0.120117C-0.278168 74.8755 -0.625885 75.2235 -0.894562 75.872L-10.1879 98.885L-21.9942 117.659Z" fill="#1B5CA8"/>
<path d="M-16.2559 63.1079V61.5263C-16.1294 61.5263 -13.0158 61.4156 -11.4353 56.8288L-2.86904 35.7453C-0.419271 29.7034 5.31794 25.7809 11.7506 25.7334H35.9796C37.4653 25.7651 38.9035 26.4768 39.7254 27.758C40.5156 29.0075 40.6105 30.5733 39.9625 31.9177L39.3144 33.2779L37.892 32.5978L38.54 31.2376C38.9509 30.3677 38.9035 29.4029 38.3978 28.5962C37.8762 27.7896 36.9437 27.3309 35.9954 27.3151H11.7664C5.98176 27.3625 0.813522 30.9055 -1.38337 36.3463L-9.93387 57.3982C-11.9253 63.0447 -16.082 63.1079 -16.2559 63.1079Z" fill="#1B5CA8"/>
<path d="M-16.163 48.9838L-17.6328 48.3827L-15.9733 44.3021C-13.5393 38.3076 -7.80213 34.4167 -1.35369 34.3693H2.1076V35.9509H-1.35369C-7.15412 35.9984 -12.3223 39.5097 -14.5034 44.9031L-16.163 48.9838Z" fill="#1B5CA8"/>
<path d="M27.9966 15.2471C27.965 15.2471 27.9492 15.2471 27.9176 15.2471C27.3644 15.2471 26.8429 14.994 26.4952 14.5511C26.1317 14.0925 26.0052 13.5073 26.1316 12.9537C26.7955 9.94853 28.3759 4.60254 31.5527 2.59384C32.7381 1.85046 34.0341 1.62903 35.4249 1.94536L35.2511 2.72037C34.0815 2.45149 32.9752 2.64129 31.9795 3.27395C28.9449 5.20357 27.4276 10.8026 26.9061 13.1277C26.827 13.4598 26.9061 13.8078 27.1274 14.0766C27.3328 14.3297 27.6331 14.4721 27.9492 14.4721C29.7352 14.5037 32.1533 13.8394 33.0226 10.6128C33.876 7.48115 34.9508 4.79234 36.2468 2.62547C37.3373 0.806567 39.2497 -0.205692 41.1305 0.047373C42.5213 0.237172 43.5803 1.1229 43.928 2.43567C44.4812 4.47601 43.6277 6.64287 42.063 9.47403C40.8144 11.7042 39.5342 13.3491 38.096 14.4879L37.606 13.871C38.9494 12.7955 40.1822 11.2297 41.3676 9.07862C43.1061 5.94694 43.5961 4.20712 43.1693 2.64129C42.9007 1.64484 42.1104 0.980549 41.0199 0.8382C39.7397 0.648402 37.9695 1.28106 36.9264 3.0367C35.662 5.1403 34.6189 7.76585 33.7812 10.8184C32.7223 14.6619 29.7352 15.2471 27.9966 15.2471Z" fill="#1B5CA8"/>
<path d="M32.2654 33.1198L31.57 32.7402C33.4508 29.2605 35.379 23.9145 37.3072 16.8287C37.5442 15.9905 37.481 15.4052 37.1333 15.1047C36.2482 14.3614 33.3085 15.0098 29.4679 16.8287C28.9621 17.066 28.5828 17.4772 28.3616 17.9992C27.113 21.0992 23.7149 28.6595 19.4001 31.9968L18.9102 31.3641C23.1775 28.0585 26.6546 20.0711 27.6187 17.6986C27.9032 16.9869 28.4405 16.4333 29.1202 16.117C32.1705 14.6777 36.106 13.2384 37.6232 14.5037C38.2238 15.0098 38.3819 15.8639 38.05 17.0344C36.1218 24.1834 34.1778 29.5927 32.2654 33.1198Z" fill="#1B5CA8"/>
<path d="M-7.02726 112.566C-9.23996 112.566 -12.2429 111.57 -16.1783 109.514C-16.447 109.371 -16.7157 109.229 -16.9844 109.087L-16.6051 108.391C-16.3364 108.533 -16.0677 108.675 -15.799 108.818C-9.61926 112.044 -5.90509 112.645 -4.0401 110.652C-1.52711 107.979 -4.22976 101.083 -7.59622 95.5319C-8.05456 94.7727 -8.54454 94.0135 -9.0503 93.3017L-8.40229 92.843C-7.88072 93.5864 -7.39077 94.3456 -6.91662 95.1206C-5.20968 97.936 0.06917 107.426 -3.47114 111.19C-4.34042 112.108 -5.52579 112.566 -7.02726 112.566Z" fill="#1B5CA8"/>
<path d="M117.975 324.951C115.02 324.951 112.617 322.547 112.617 319.589C112.617 316.631 115.02 314.227 117.975 314.227C120.931 314.227 123.333 316.631 123.333 319.589C123.333 322.547 120.931 324.951 117.975 324.951ZM117.975 315.018C115.446 315.018 113.407 317.074 113.407 319.589C113.407 322.12 115.462 324.16 117.975 324.16C120.504 324.16 122.543 322.104 122.543 319.589C122.543 317.058 120.488 315.018 117.975 315.018Z" fill="#1B5CA8"/>
<path d="M117.975 329.553C112.49 329.553 108.018 325.077 108.018 319.589C108.018 314.101 112.49 309.625 117.975 309.625C123.459 309.625 127.932 314.101 127.932 319.589C127.932 325.077 123.459 329.553 117.975 329.553ZM117.975 310.415C112.917 310.415 108.808 314.528 108.808 319.589C108.808 324.65 112.917 328.763 117.975 328.763C123.032 328.763 127.142 324.65 127.142 319.589C127.142 314.528 123.017 310.415 117.975 310.415Z" fill="#1B5CA8"/>
<path d="M116.109 347.062C100.968 347.062 88.6562 334.741 88.6562 319.589C88.6562 304.437 100.968 292.116 116.109 292.116C131.251 292.116 143.563 304.437 143.563 319.589C143.563 334.741 131.251 347.062 116.109 347.062ZM116.109 293.697C101.838 293.697 90.2367 305.307 90.2367 319.589C90.2367 333.871 101.838 345.481 116.109 345.481C130.381 345.481 141.982 333.871 141.982 319.589C141.982 305.307 130.381 293.697 116.109 293.697Z" fill="#1B5CA8"/>
<path d="M114.562 363.638C90.0166 363.638 70.0391 343.662 70.0391 319.083C70.0391 294.504 90.0008 274.528 114.562 274.528C139.123 274.528 159.084 294.504 159.084 319.083C159.084 343.662 139.107 363.638 114.562 363.638ZM114.562 275.334C90.4591 275.334 70.8293 294.963 70.8293 319.099C70.8293 343.235 90.4433 362.863 114.562 362.863C138.68 362.863 158.294 343.235 158.294 319.099C158.294 294.963 138.68 275.334 114.562 275.334Z" fill="#1B5CA8"/>
<path d="M114.56 364.034C89.794 364.034 69.6426 343.867 69.6426 319.083C69.6426 294.298 89.794 274.132 114.56 274.132C139.327 274.132 159.478 294.298 159.478 319.083C159.478 343.867 139.327 364.034 114.56 364.034ZM114.56 275.73C90.6632 275.73 71.2231 295.184 71.2231 319.099C71.2231 343.013 90.6632 362.468 114.56 362.468C138.458 362.468 157.898 343.013 157.898 319.099C157.898 295.184 138.458 275.73 114.56 275.73Z" fill="#1B5CA8"/>
<path d="M64.1594 318.387H63.3691C63.3691 302.729 66.467 287.655 72.3148 274.781L73.0419 275.113C67.2256 287.877 64.1594 302.839 64.1594 318.387Z" fill="#1B5CA8"/>
<path d="M67.7621 320.38H64.6485C64.0005 320.38 63.1155 320.095 62.5939 319.716L53.5217 313.183C52.526 312.472 51.957 311.285 51.957 309.925C51.957 299.186 54.3594 286.153 58.3739 275.05L59.8596 275.587C55.8925 286.532 53.5217 299.36 53.5217 309.925C53.5217 310.763 53.8536 311.491 54.4226 311.902L63.4947 318.434C63.7634 318.624 64.3166 318.798 64.6327 318.798H67.7463C67.9676 318.798 68.1573 318.608 68.1573 318.387H69.7378C69.7536 319.478 68.8527 320.38 67.7621 320.38Z" fill="#1B5CA8"/>
<path d="M136.025 314.433C135.946 314.433 135.867 314.433 135.788 314.417C135.251 314.338 134.792 314.006 134.571 313.516C133.781 311.855 132.754 310.321 131.489 308.96C130.92 308.343 130.81 307.474 131.189 306.746C131.568 306.003 132.358 305.607 133.165 305.718C133.749 305.797 134.287 306.098 134.666 306.572C135.836 308.011 136.815 309.593 137.59 311.27C138.001 312.155 137.843 313.183 137.195 313.911C136.91 314.243 136.484 314.433 136.025 314.433ZM135.298 313.183C135.425 313.436 135.646 313.595 135.915 313.642C136.199 313.689 136.452 313.579 136.642 313.373C137.068 312.899 137.163 312.187 136.894 311.602C136.152 309.988 135.203 308.454 134.081 307.078C133.828 306.762 133.481 306.556 133.086 306.509C132.501 306.43 132.09 306.778 131.9 307.126C131.726 307.474 131.663 307.996 132.074 308.438C133.386 309.846 134.461 311.444 135.298 313.183Z" fill="#1B5CA8"/>
<path d="M113.898 343.077C113.74 343.077 113.566 343.061 113.408 343.029C111.622 342.65 109.883 342.033 108.255 341.194C107.149 340.625 106.643 339.249 107.117 338.11C107.291 337.715 107.623 337.398 108.034 337.272C108.445 337.13 108.887 337.177 109.267 337.383C110.926 338.316 112.681 338.98 114.514 339.36C115.273 339.518 115.826 340.087 115.952 340.846C116.079 341.606 115.747 342.333 115.083 342.744C114.735 342.966 114.324 343.077 113.898 343.077ZM108.524 337.984C108.445 337.984 108.366 338 108.287 338.031C108.081 338.094 107.923 338.237 107.844 338.442C107.512 339.202 107.86 340.135 108.603 340.514C110.168 341.305 111.843 341.906 113.566 342.27C113.945 342.349 114.34 342.286 114.688 342.08C115.146 341.811 115.241 341.337 115.178 341.005C115.115 340.673 114.878 340.261 114.356 340.151C112.444 339.755 110.61 339.059 108.887 338.094C108.777 338.015 108.65 337.984 108.524 337.984Z" fill="#1B5CA8"/>
<path d="M124.757 342.175C124.045 342.175 123.334 341.843 122.892 341.242C122.591 340.846 122.512 340.325 122.655 339.866C122.797 339.391 123.176 339.028 123.65 338.885C125.673 338.253 127.554 337.272 129.229 335.991C129.561 335.738 129.988 335.659 130.383 335.769C130.778 335.88 131.094 336.181 131.252 336.56C131.632 337.572 131.284 338.727 130.415 339.36C128.929 340.451 127.317 341.337 125.626 342.001C125.326 342.112 125.041 342.175 124.757 342.175ZM130.004 336.513C129.893 336.513 129.783 336.544 129.688 336.623C127.933 337.952 125.989 338.964 123.871 339.629C123.634 339.708 123.476 339.882 123.397 340.103C123.318 340.325 123.366 340.578 123.508 340.767C123.919 341.321 124.662 341.527 125.31 341.274C126.953 340.625 128.502 339.771 129.925 338.727C130.494 338.3 130.731 337.509 130.494 336.845C130.431 336.687 130.304 336.576 130.146 336.529C130.099 336.513 130.051 336.513 130.004 336.513Z" fill="#1B5CA8"/>
<path d="M135.93 330.629C135.646 330.629 135.361 330.582 135.093 330.471C134.871 330.392 134.698 330.202 134.603 329.981C134.508 329.759 134.524 329.506 134.619 329.285C135.756 326.912 136.357 324.366 136.42 321.756C136.42 321.534 136.515 321.329 136.689 321.186C136.847 321.044 137.084 320.965 137.29 320.997C138.491 321.123 139.392 322.151 139.392 323.385C139.392 324.018 139.012 326.627 138.127 329.047C137.906 329.648 137.463 330.139 136.879 330.408C136.594 330.566 136.262 330.629 135.93 330.629ZM137.226 321.787C137.179 324.508 136.547 327.149 135.361 329.633L135.251 330.091L135.393 329.727C135.788 329.87 136.199 329.87 136.578 329.696C136.973 329.522 137.258 329.205 137.416 328.794C138.269 326.469 138.633 323.986 138.633 323.401C138.617 322.563 138.017 321.882 137.226 321.787Z" fill="#1B5CA8"/>
<path d="M167.618 307.663L167.27 305.844C167.207 305.528 160.664 273.848 111.447 273.848H42.7902L42.7428 273.104C42.5373 270.115 42.9482 257.778 46.4095 254.077C47.1049 253.318 47.911 252.938 48.7802 252.938H111.447C150.786 252.938 164.868 274.433 168.25 281.028C172.992 290.265 173.15 299.897 168.677 306.161L167.618 307.663ZM44.3074 272.266H111.463C137.841 272.266 152.018 281.281 159.273 288.826C165.058 294.852 167.46 300.815 168.361 303.725C171.49 297.968 170.969 289.727 166.875 281.74C163.603 275.35 149.916 254.52 111.479 254.52H48.8119C48.3851 254.52 47.99 254.725 47.5949 255.152C45.0345 257.889 44.1652 267.885 44.3074 272.266Z" fill="#1B5CA8"/>
<path d="M158.657 314.828L158.23 314.164C158.309 314.117 165.675 309.324 167.698 305.512L168.393 305.876C166.291 309.878 158.973 314.623 158.657 314.828Z" fill="#1B5CA8"/>
<path d="M203.131 320.048H172.375C170.399 320.048 168.787 318.419 168.787 316.41V303.883H169.577V316.41C169.577 317.976 170.826 319.257 172.375 319.257H203.131C206.735 319.257 209.659 313.294 209.659 305.971V286.722H169.656V285.931H210.449V305.971C210.449 313.863 207.225 320.048 203.131 320.048Z" fill="#1B5CA8"/>
<path d="M202.121 314.322H174.051C172.234 314.322 170.748 312.82 170.748 310.969V303.013H171.538V310.969C171.538 312.377 172.66 313.531 174.051 313.531H202.121C205.377 313.531 208.032 308.106 208.032 301.447V286.327H208.822V301.447C208.838 308.66 205.883 314.322 202.121 314.322Z" fill="#1B5CA8"/>
<path d="M208.442 289.933H170.684V290.724H208.442V289.933Z" fill="#1B5CA8"/>
<path d="M203.133 320.048V319.257C211.715 319.257 230.523 316.236 230.523 307.252V289.285C230.523 287.877 229.448 286.722 228.136 286.722H210.371V285.931H228.136C229.891 285.931 231.313 287.434 231.313 289.285V307.252C231.313 317.865 209.075 320.048 203.133 320.048Z" fill="#1B5CA8"/>
<path d="M210.196 186.572H209.406V283.939H210.196V186.572Z" fill="#1B5CA8"/>
<path d="M105.458 253.745H104.668V126.279C104.668 124.318 105.427 122.499 106.786 121.139C108.208 119.731 110.136 118.94 112.223 118.94C112.239 118.94 112.254 118.94 112.27 118.94H186.301V119.731H112.27C110.389 119.715 108.635 120.411 107.339 121.692C106.122 122.91 105.458 124.524 105.458 126.279V253.745Z" fill="#1B5CA8"/>
<path d="M190.33 196.615C190.077 196.615 189.824 196.6 189.572 196.552L118.291 188.122C114.087 187.647 110.91 184.12 110.91 179.945V131.277C110.91 128.588 113.123 126.406 115.841 126.406H127.553V127.987H115.841C113.992 127.987 112.491 129.458 112.491 131.277V179.945C112.491 183.329 115.067 186.161 118.481 186.556L189.777 194.986C191.294 195.208 192.559 194.559 193.649 193.009C199.94 184.168 197.632 150.732 189.682 135.295C187.959 131.957 185.162 127.987 181.622 127.987H151.339V126.406H181.622C185.114 126.406 188.307 129.158 191.089 134.583C199.402 150.732 201.599 184.563 194.929 193.927C193.681 195.698 192.1 196.615 190.33 196.615Z" fill="#1B5CA8"/>
<path d="M209.864 130.376L209.769 130.028C206.672 119.636 189.27 120.142 189.096 120.142L188.686 120.158V111.38L189.096 111.396C207.699 112.108 213.689 115.065 214.716 124.049C215.064 127.07 213.12 129.743 210.212 130.297L209.864 130.376ZM189.634 119.352C190.993 119.352 194.644 119.446 198.5 120.395C204.838 121.946 208.948 125.077 210.417 129.458C212.725 128.842 214.211 126.627 213.942 124.144C212.978 115.635 207.478 112.93 189.492 112.218V119.367C189.523 119.352 189.571 119.352 189.634 119.352Z" fill="#1B5CA8"/>
<path d="M1.99728 215.453H1.20703V144.563C1.20703 137.968 1.20701 134.963 11.907 126.88C31.8055 111.855 52.0833 111.412 54.3276 111.396H186.679V112.187H54.3276C52.1149 112.187 32.0741 112.645 12.3811 127.513C1.99724 135.358 1.99728 138.237 1.99728 144.563V215.453Z" fill="#1B5CA8"/>
<path d="M52.4797 120.601H51.6895V213.903H52.4797V120.601Z" fill="#1B5CA8"/>
<path d="M44.482 255.817H35.252L35.4258 255.342V132.084H36.2161V254.267C36.3425 254.504 36.3583 254.789 36.3267 255.026H44.482V255.817Z" fill="#1B5CA8"/>
<path d="M4.68385 141.068L3.97266 139.66C24.8037 129.237 32.469 128.826 35.2507 130.312C36.4519 130.961 36.5942 131.878 36.61 131.989L35.0453 132.179L35.8355 132.084L35.0611 132.226C35.0611 132.21 34.9662 131.894 34.3657 131.625C32.6429 130.866 26.3367 130.249 4.68385 141.068Z" fill="#1B5CA8"/>
<path d="M9.10983 132.147L8.55664 131.578C16.5382 123.812 40.9094 115.461 45.319 116.426C45.809 116.536 46.1409 116.758 46.2673 117.09L45.5245 117.375C45.5087 117.343 45.4139 117.264 45.1452 117.201C40.8462 116.267 16.9649 124.508 9.10983 132.147Z" fill="#1B5CA8"/>
<path d="M17.9616 152.345C17.5191 152.345 17.1556 152.218 16.9027 151.965C15.259 150.32 19.1786 144.69 23.9043 139.961C28.6301 135.231 34.2566 131.325 35.9004 132.954C36.659 133.713 36.2955 135.31 34.8256 137.715C33.4822 139.897 31.3801 142.475 28.8987 144.959C26.4174 147.442 23.8412 149.545 21.6601 150.89C20.0637 151.87 18.8309 152.345 17.9616 152.345ZM34.8415 133.365C34.2409 133.365 33.1819 133.713 31.554 134.709C29.4203 136.022 26.9073 138.078 24.4575 140.53C22.0078 142.981 19.9531 145.496 18.6413 147.632C17.2504 149.909 17.124 151.095 17.4559 151.412C17.772 151.728 18.9574 151.617 21.2333 150.225C23.367 148.913 25.88 146.857 28.3297 144.405C30.7637 141.969 32.8342 139.439 34.146 137.303C35.5369 135.026 35.6633 133.84 35.3314 133.523C35.2366 133.428 35.0785 133.365 34.8415 133.365Z" fill="#1B5CA8"/>
<path d="M12.8235 262.65H12.0332V267.426H12.8235V262.65Z" fill="#1B5CA8"/>
<path d="M12.8235 241.329H12.0332V229.704L16.7747 224.073V151.681H17.5649V224.373L12.8235 230.004V241.329Z" fill="#1B5CA8"/>
<path d="M23.3663 232.044C17.8503 232.044 13.1562 231.301 12.1289 230.115L12.7295 229.593C14.1836 231.285 26.0847 232.155 35.2358 230.02L35.4097 230.795C31.6797 231.665 27.3175 232.044 23.3663 232.044Z" fill="#1B5CA8"/>
<path d="M23.9819 226.018C20.8525 226.018 18.1341 225.718 17.17 225.133C16.8539 224.943 16.6642 224.69 16.6484 224.405L17.4387 224.342V224.326C18.0077 225.56 30.3356 225.734 35.1877 223.709L35.488 224.437C32.975 225.496 28.107 226.018 23.9819 226.018Z" fill="#1B5CA8"/>
<path d="M126.952 237.928H110.278C108.65 237.928 107.322 236.6 107.322 234.971V228.138C107.322 226.509 108.65 225.18 110.278 225.18H126.952C128.58 225.18 129.908 226.509 129.908 228.138V234.971C129.908 236.6 128.596 237.928 126.952 237.928ZM110.294 226.762C109.535 226.762 108.919 227.379 108.919 228.138V234.971C108.919 235.73 109.535 236.347 110.294 236.347H126.968C127.727 236.347 128.343 235.73 128.343 234.971V228.138C128.343 227.379 127.727 226.762 126.968 226.762H110.294Z" fill="#1B5CA8"/>
<path d="M126.21 235.698C111.243 235.698 109.852 227.79 109.805 227.442L110.579 227.315C110.595 227.394 112.081 235.492 127.98 234.86L128.012 235.651C127.396 235.682 126.795 235.698 126.21 235.698Z" fill="#1B5CA8"/>
<path d="M173.356 267.537C167.35 244.603 132.026 240.237 111.179 242.879L111.084 242.088C123.649 240.506 137.684 241.566 148.652 244.935C162.608 249.221 171.412 256.971 174.13 267.331L173.356 267.537Z" fill="#1B5CA8"/>
<path d="M192.273 265.449H178.081C177.29 265.449 176.658 264.816 176.658 264.026V260.214C176.658 259.423 177.29 258.79 178.081 258.79H192.273C193.064 258.79 193.696 259.423 193.696 260.214V264.026C193.696 264.816 193.048 265.449 192.273 265.449ZM178.081 259.581C177.733 259.581 177.448 259.866 177.448 260.214V264.026C177.448 264.373 177.733 264.658 178.081 264.658H192.273C192.621 264.658 192.906 264.373 192.906 264.026V260.214C192.906 259.866 192.621 259.581 192.273 259.581H178.081Z" fill="#1B5CA8"/>
<path d="M216.029 247.94H214.938C214.432 247.94 214.021 247.529 214.021 247.023V222.159C214.021 221.653 214.432 221.242 214.938 221.242H216.029C216.535 221.242 216.945 221.653 216.945 222.159V247.023C216.945 247.545 216.535 247.94 216.029 247.94ZM214.938 222.048C214.875 222.048 214.812 222.096 214.812 222.175V247.039C214.812 247.102 214.859 247.165 214.938 247.165H216.029C216.092 247.165 216.155 247.118 216.155 247.039V222.175C216.155 222.112 216.108 222.048 216.029 222.048H214.938Z" fill="#1B5CA8"/>
<path d="M216.029 207.466H214.938C214.432 207.466 214.021 207.054 214.021 206.548V204.065C214.021 203.559 214.432 203.148 214.938 203.148H216.029C216.535 203.148 216.945 203.559 216.945 204.065V206.548C216.945 207.054 216.535 207.466 216.029 207.466ZM214.938 203.954C214.875 203.954 214.812 204.002 214.812 204.081V206.564C214.812 206.627 214.859 206.691 214.938 206.691H216.029C216.092 206.691 216.155 206.643 216.155 206.564V204.081C216.155 204.018 216.108 203.954 216.029 203.954H214.938Z" fill="#1B5CA8"/>
<path d="M219.047 282.499C214.464 281.835 212.125 280.348 212.125 278.071V264.073C212.125 261.606 213.215 259.281 215.112 257.699L215.839 257.098L216.851 258.316L216.124 258.917C214.59 260.198 213.705 262.064 213.705 264.073V278.071C213.705 279.858 217.198 280.633 219.269 280.933L219.047 282.499Z" fill="#1B5CA8"/>
<path d="M226.097 284.049H170.053V284.84H226.097V284.049Z" fill="#1B5CA8"/>
<path d="M220.724 281.946C220.724 281.756 219.918 262.238 216.836 258.695L217.437 258.173C220.692 261.922 221.483 281.107 221.514 281.914L220.724 281.946Z" fill="#1B5CA8"/>
<path d="M212.925 130.486L212.135 130.511L213.822 184.561L214.611 184.536L212.925 130.486Z" fill="#1B5CA8"/>
<path d="M195.009 196.758C194.124 196.758 193.318 196.694 192.67 196.6L192.796 195.825C196.068 196.347 202.39 195.635 206.167 192.408C208.317 190.573 209.392 188.185 209.392 185.275H210.182C210.182 188.422 208.996 191.016 206.673 193.009C203.354 195.856 198.47 196.758 195.009 196.758Z" fill="#1B5CA8"/>
<path d="M210.196 132.463H209.406V183.646H210.196V132.463Z" fill="#1B5CA8"/>
<path d="M198.422 163.717H198.027V129.458H198.422C205.977 129.458 209.407 138.252 209.407 146.43C209.407 150.906 208.443 155.081 206.689 158.229C204.697 161.819 201.836 163.717 198.422 163.717ZM198.818 130.265V162.91C202.5 162.736 204.76 160.079 206.009 157.833C207.668 154.86 208.617 150.7 208.617 146.43C208.632 138.79 205.55 130.581 198.818 130.265Z" fill="#1B5CA8"/>
<path d="M228.214 153.515C226.176 153.515 223.71 152.424 222.414 150.89L216.503 143.93C215.412 142.649 215.586 141.637 215.792 141.147C215.981 140.672 216.55 139.834 218.178 139.692L220.944 139.439C223.078 139.249 225.828 140.388 227.235 142.048L233.146 149.008C234.236 150.289 234.062 151.301 233.857 151.791C233.667 152.266 233.098 153.104 231.47 153.246L228.704 153.499C228.546 153.499 228.388 153.515 228.214 153.515ZM221.418 141.004C221.308 141.004 221.181 141.004 221.071 141.02L218.305 141.273C217.751 141.321 217.341 141.511 217.246 141.748C217.135 142.001 217.309 142.46 217.704 142.902L223.615 149.862C224.69 151.127 226.95 152.076 228.546 151.918L231.312 151.665C231.865 151.617 232.276 151.428 232.371 151.19C232.482 150.937 232.308 150.479 231.913 150.036L226.002 143.076C225.022 141.89 222.983 141.004 221.418 141.004Z" fill="#1B5CA8"/>
<path d="M228.562 144.373H227.771V137.351C227.771 134.868 225.764 132.859 223.283 132.859H214.227V132.068H223.283C226.191 132.068 228.562 134.441 228.562 137.351V144.373Z" fill="#1B5CA8"/>
<path d="M125.878 143.25C124.835 143.25 123.839 142.902 123.017 142.238C121.895 141.337 121.231 139.913 121.184 138.347L120.994 132.116C120.915 129.363 123.002 126.88 125.673 126.596L147.594 124.239C149.744 124.002 151.893 125.662 152.494 128.019L153.821 133.223C154.185 134.662 153.979 136.117 153.268 137.224C152.683 138.126 151.798 138.727 150.771 138.917L150.629 138.142L150.771 138.917L126.732 143.155C126.447 143.235 126.163 143.25 125.878 143.25ZM148.005 125.821C147.926 125.821 147.847 125.821 147.768 125.836L125.847 128.193C123.982 128.399 122.527 130.138 122.575 132.084L122.765 138.316C122.796 139.423 123.254 140.403 124.013 141.02C124.693 141.574 125.562 141.795 126.447 141.637L150.487 137.398C151.245 137.272 151.688 136.781 151.925 136.402C152.399 135.658 152.541 134.646 152.273 133.65L150.945 128.446C150.581 126.944 149.285 125.821 148.005 125.821Z" fill="#1B5CA8"/>
<path d="M140.702 129.854H139.911V125.22C139.911 123.986 139.121 122.91 137.936 122.547L136.039 121.961C134.87 121.613 133.621 122.04 132.926 123.037L131.882 124.524L131.234 124.065L132.278 122.578C133.178 121.297 134.775 120.743 136.276 121.202L138.173 121.787C139.69 122.246 140.717 123.638 140.717 125.22V129.854H140.702Z" fill="#1B5CA8"/>
<path d="M179.946 203.717L179.172 203.575C179.472 201.993 186.6 164.745 198.375 162.926L198.501 163.701C187.264 165.441 180.01 203.337 179.946 203.717Z" fill="#1B5CA8"/>
<path d="M198.502 126.738H197.711C197.711 125.109 195.878 123.654 192.67 122.752C186.458 121.012 177.734 121.977 175.379 125.852L174.699 125.441C177.544 120.743 187.248 120.411 192.875 121.977C196.51 123.005 198.502 124.682 198.502 126.738Z" fill="#1B5CA8"/>
<path d="M85.7486 185.433C85.5115 185.433 85.2902 185.417 85.0532 185.386L66.6561 182.602C64.3802 182.254 62.7207 180.34 62.7207 178.031V129.49C62.7207 126.944 64.7912 124.872 67.3358 124.872H85.7328C88.2774 124.872 90.3478 126.944 90.3478 129.49V180.815C90.3478 182.159 89.763 183.44 88.7357 184.326C87.9138 185.038 86.8391 185.433 85.7486 185.433ZM85.2902 183.82C86.1595 183.946 87.0604 183.693 87.7242 183.124C88.4038 182.539 88.7831 181.7 88.7831 180.815V129.49C88.7831 127.813 87.4239 126.453 85.7486 126.453H67.3516C65.6762 126.453 64.317 127.813 64.317 129.49V178.031C64.317 179.549 65.4075 180.815 66.909 181.036L85.2902 183.82Z" fill="#1B5CA8"/>
<path d="M64.443 121.882C63.147 121.882 62.0723 120.823 62.0723 119.51V118.703C62.0723 117.406 63.1312 116.331 64.443 116.331C65.2807 116.331 66.0393 116.758 66.466 117.469L65.7864 117.881C65.5019 117.406 64.9962 117.121 64.443 117.121C63.5737 117.121 62.8625 117.833 62.8625 118.703V119.51C62.8625 120.38 63.5737 121.091 64.443 121.091C65.2649 121.091 65.9603 120.443 66.0077 119.62L66.798 119.668C66.7348 120.902 65.6916 121.882 64.443 121.882Z" fill="#1B5CA8"/>
<path d="M88.9096 121.882C87.661 121.882 86.6337 120.902 86.5547 119.668L87.3449 119.62C87.3924 120.443 88.0878 121.091 88.9096 121.091C89.7789 121.091 90.4901 120.38 90.4901 119.51V118.703C90.4901 117.833 89.7789 117.121 88.9096 117.121C88.3565 117.121 87.8665 117.406 87.5662 117.865L86.9024 117.454C87.3449 116.758 88.0878 116.331 88.9096 116.331C90.2056 116.331 91.2804 117.39 91.2804 118.703V119.51C91.2804 120.823 90.2215 121.882 88.9096 121.882Z" fill="#1B5CA8"/>
<path d="M90.3628 119.636H88.7823C88.7823 118.988 88.2607 118.45 87.5969 118.45H66.4182C65.7702 118.45 65.2328 118.972 65.2328 119.636H63.6523C63.6523 118.118 64.8851 116.868 66.4182 116.868H87.5969C89.1142 116.868 90.3628 118.118 90.3628 119.636Z" fill="#1B5CA8"/>
<path d="M36.2318 291.594H29.9414V279.336H36.2318V291.594ZM30.7317 290.803H35.4415V280.127H30.7317V290.803Z" fill="#1B5CA8"/>
<path d="M62.499 346.161C62.1355 346.161 61.7878 346.05 61.4875 345.829L53.095 339.755C52.3838 339.233 51.957 338.411 51.957 337.525V315.825H53.5375V337.525C53.5375 337.905 53.7114 338.253 54.0117 338.474L62.4042 344.548C62.4516 344.579 62.5148 344.595 62.5622 344.563C62.6254 344.532 62.6412 344.484 62.6412 344.421V322.594H64.2217V344.421C64.2217 345.085 63.8582 345.671 63.2734 345.971C63.0364 346.098 62.7677 346.161 62.499 346.161Z" fill="#1B5CA8"/>
<path d="M73.2792 333.887H64.5391V335.469H73.2792V333.887Z" fill="#1B5CA8"/>
<path d="M52.2415 331.024H18.245L4.79492 322.911V315.841H6.37542V322.025L18.6717 329.443H52.2415V331.024Z" fill="#1B5CA8"/>
<path d="M2.21973 265.971H-30.2754V266.762H2.21973V265.971Z" fill="#1B5CA8"/>
<path d="M13.2204 272.456H7.16704C6.07649 272.456 5.19141 271.57 5.19141 270.479V269.024C5.19141 267.932 6.07649 267.046 7.16704 267.046H13.2204C14.3109 267.046 15.196 267.932 15.196 269.024V270.479C15.196 271.57 14.3109 272.456 13.2204 272.456ZM7.16704 267.837C6.50323 267.837 5.98166 268.375 5.98166 269.024V270.479C5.98166 271.143 6.51903 271.665 7.16704 271.665H13.2204C13.8842 271.665 14.4057 271.127 14.4057 270.479V269.024C14.4057 268.359 13.8684 267.837 13.2204 267.837H7.16704Z" fill="#1B5CA8"/>
<path d="M11.528 263.456H2.64555C1.36535 263.456 0.322266 262.412 0.322266 261.131V242.863C0.322266 241.582 1.36535 240.538 2.64555 240.538H11.528C12.8082 240.538 13.8513 241.582 13.8513 242.863V261.131C13.8513 262.412 12.8082 263.456 11.528 263.456ZM2.64555 241.313C1.79208 241.313 1.11251 242.009 1.11251 242.847V261.115C1.11251 261.969 1.80789 262.649 2.64555 262.649H11.528C12.3815 262.649 13.0611 261.953 13.0611 261.115V242.847C13.0611 241.993 12.3656 241.313 11.528 241.313H2.64555Z" fill="#1B5CA8"/>
<path d="M-1.63742 260.324L-7.24817 257.082C-8.08583 256.608 -8.60742 255.69 -8.60742 254.71V237.264C-8.60742 235.761 -7.37462 234.528 -5.87314 234.528H2.1874C2.67736 234.528 3.13571 234.654 3.57825 234.907L10.0425 238.64L9.64736 239.32L3.18313 235.587C2.86703 235.413 2.53511 235.319 2.1874 235.319H-5.87314C-6.94788 235.319 -7.81717 236.188 -7.81717 237.264V254.71C-7.81717 255.405 -7.45363 256.054 -6.85304 256.402L-1.2423 259.644L-1.63742 260.324Z" fill="#1B5CA8"/>
<path d="M7.13473 226.018C3.54697 226.018 -0.0565978 225.623 -1.27359 224.8C-1.9216 224.358 -1.87421 223.883 -1.79518 223.614L-0.198855 218.933C0.243687 217.651 1.44486 216.781 2.8041 216.781H11.3388C12.6981 216.781 13.8993 217.651 14.3418 218.933L15.9223 223.598C16.0962 223.994 16.0013 224.389 15.6378 224.706C14.6421 225.575 10.8963 226.018 7.13473 226.018ZM2.8041 217.572C1.79258 217.572 0.875908 218.221 0.559806 219.186L-1.03652 223.867C-1.06813 223.931 -0.9891 224.025 -0.831049 224.136C1.36586 225.607 13.4409 225.575 15.1163 224.105C15.2427 223.994 15.2269 223.962 15.1953 223.915L15.1795 223.867L13.5832 219.186C13.2513 218.221 12.3504 217.572 11.3388 217.572H2.8041Z" fill="#1B5CA8"/>
<path d="M2.59894 225.971H1.80859V233.753H2.59894V225.971Z" fill="#1B5CA8"/>
<path d="M19.0988 328.225H18.3086V303.156H52.0839V303.946H19.0988V328.225Z" fill="#1B5CA8"/>
<path d="M14.7997 303.63H-13.918V304.421H14.7997V303.63Z" fill="#1B5CA8"/>
<path d="M-14.1871 319.81L-14.3926 318.245L-9.50878 317.612L5.60083 317.913L5.56919 319.494L-9.42977 319.178L-14.1871 319.81Z" fill="#1B5CA8"/>
<path d="M28.3605 281.803H-30.3867V281.012H26.8274L25.642 279.336H-30.3867V278.545H26.053L28.3605 281.803Z" fill="#1B5CA8"/>
<path d="M47.0262 229.609H41.2574C40.4355 229.609 39.7559 228.929 39.7559 228.106V210.392C39.7559 209.569 40.4355 208.889 41.2574 208.889H47.0262C47.848 208.889 48.5276 209.569 48.5276 210.392V228.106C48.5276 228.929 47.8638 229.609 47.0262 229.609ZM41.2574 209.68C40.8622 209.68 40.5461 209.996 40.5461 210.392V228.106C40.5461 228.502 40.8622 228.818 41.2574 228.818H47.0262C47.4213 228.818 47.7374 228.502 47.7374 228.106V210.392C47.7374 209.996 47.4213 209.68 47.0262 209.68H41.2574Z" fill="#1B5CA8"/>
<path d="M43.6599 267.837H30.7946C29.388 267.837 28.25 266.699 28.25 265.291V262.159C28.25 260.751 29.388 259.613 30.7946 259.613H44.703V260.404H30.7946C29.8305 260.404 29.0402 261.194 29.0402 262.159V265.291C29.0402 266.256 29.8305 267.046 30.7946 267.046H43.6599V267.837Z" fill="#1B5CA8"/>
<path d="M20.6008 235.16H19.8105V270.178H20.6008V235.16Z" fill="#1B5CA8"/>
<path d="M-6.94804 235.445H-7.73828V213.539C-7.73828 212.131 -7.02709 210.803 -5.7469 209.791L0.575055 204.856L1.065 205.473L-5.25695 210.407C-6.34749 211.262 -6.94804 212.369 -6.94804 213.523V235.445Z" fill="#1B5CA8"/>
<path d="M203.133 320.443H172.376C170.179 320.443 168.393 318.64 168.393 316.41H169.974C169.974 317.738 171.064 318.861 172.376 318.861H203.133C211.589 318.861 230.128 315.935 230.128 307.252V289.285C230.128 288.098 229.243 287.118 228.136 287.118H226.003V283.527C226.003 283.353 225.939 283.195 225.813 283.084C225.687 282.974 225.592 282.942 225.37 282.895H220.329V281.946C220.107 276.536 219.017 261.811 216.535 258.964L215.16 257.683L223.537 250.74C225.102 249.443 226.003 247.529 226.003 245.489V222.871C226.003 220.862 225.133 218.964 223.616 217.699C219.854 214.536 213.564 206.263 213.564 186.445L211.746 128.43L212.031 128.177C213.137 127.212 213.706 125.726 213.532 124.207C212.584 115.904 207.1 113.294 189.051 112.614H54.3288C52.1161 112.614 32.2176 113.072 12.6195 127.845C2.39363 135.564 2.39363 138.205 2.39363 144.579V205.979H1.08179L-5.01892 210.74C-6.01463 211.515 -6.552 212.511 -6.552 213.555V235.84L-6.8523 236.078C-7.21582 236.378 -7.43708 236.821 -7.43708 237.28V254.725C-7.43708 255.279 -7.1368 255.801 -6.66265 256.07L-5.84081 256.528L-7.12101 258.063V266.319H-8.70151V257.493L-8.17992 256.861C-8.71729 256.291 -9.01758 255.532 -9.01758 254.71V237.264C-9.01758 236.457 -8.7015 235.682 -8.14832 235.097V213.539C-8.14832 212.005 -7.38967 210.566 -6.01464 209.49L0.512829 204.381H0.797307V144.563C0.797307 138.047 0.7973 134.773 11.6553 126.564C31.6486 111.475 52.0529 111 54.313 111H189.066C205.772 111.633 213.928 113.753 215.097 124.002C215.318 125.9 214.67 127.766 213.359 129.079L215.145 186.382C215.145 205.583 221.087 213.46 224.643 216.449C226.508 218.031 227.583 220.356 227.583 222.839V245.457C227.583 247.972 226.477 250.328 224.549 251.926L217.563 257.715L217.689 257.825C220.819 261.432 221.735 277.517 221.893 281.281H225.386C225.971 281.281 226.524 281.503 226.951 281.93C227.362 282.341 227.599 282.91 227.599 283.496V285.504H228.152C230.128 285.504 231.724 287.181 231.724 289.253V307.221C231.708 318.197 209.17 320.443 203.133 320.443Z" fill="#1B5CA8"/>
<path d="M56.2568 212.623L56.2266 213.413L101.192 215.138L101.222 214.347L56.2568 212.623Z" fill="#1B5CA8"/>
<path d="M53.949 197.124L53.875 197.911L101.097 202.354L101.171 201.567L53.949 197.124Z" fill="#1B5CA8"/>
<path d="M167.255 217.636L107.307 215.39L107.338 214.599L164.252 216.734C159.732 214.188 144.211 206.279 123.033 204.381L107.354 202.942L107.433 202.151L123.112 203.591C148.51 205.884 165.864 216.75 166.038 216.861L167.255 217.636Z" fill="#1B5CA8"/>
<path d="M146.583 216.228C146.488 216.149 136.309 208.968 120.631 205.457L120.805 204.682C136.657 208.225 146.946 215.5 147.057 215.579L146.583 216.228Z" fill="#1B5CA8"/>
<path d="M128.865 215.295C128.786 215.231 120.346 208.241 107.418 204.967L107.608 204.207C120.742 207.529 129.292 214.63 129.371 214.694L128.865 215.295Z" fill="#1B5CA8"/>
<path d="M15.954 189.751H6.10742V139.106H7.68793V188.169H15.954V189.751Z" fill="#1B5CA8"/>
</g>
<defs>
<clipPath id="clip0">
<rect width="874" height="369" fill="white" transform="translate(-640)"/>
</clipPath>
</defs>
</svg>
