<svg width="93" height="76" viewBox="0 0 93 76" fill="none" xmlns="http://www.w3.org/2000/svg">
<path d="M22.2845 29.38C25.4045 29.3107 27.7098 29.2413 29.2005 29.172V39H1.69247V29.172C5.43647 29.3107 8.2618 29.38 10.1685 29.38V11.44C8.92047 14.1787 6.37247 15.9467 2.52447 16.744C2.42047 12.6533 2.03914 8.92667 1.38047 5.564C4.1538 5.18266 6.0778 4.71466 7.15247 4.16C8.2618 3.57067 9.11114 2.92933 9.70047 2.236C10.3245 1.54266 10.7405 1.07466 10.9485 0.831999V0.727997H22.2845V29.38Z" fill="white"/>
<path d="M42.4129 29.9C53.6796 29.276 62.4156 28.5827 68.6209 27.82C68.0316 29.6227 67.5809 31.5293 67.2689 33.54C66.9569 35.5507 66.8009 37.3707 66.8009 39H29.6209L29.5689 37.908C29.5689 34.5107 30.5569 31.564 32.5329 29.068C34.5436 26.572 37.3343 24.2667 40.9049 22.152C41.9449 21.528 43.5743 20.7307 45.7929 19.76C48.6703 18.512 50.8889 17.42 52.4489 16.484C54.0089 15.5133 54.7889 14.56 54.7889 13.624C54.7889 12.4453 54.3036 11.5093 53.3329 10.816C52.3623 10.1227 50.8543 9.776 48.8089 9.776C46.5556 9.776 44.8396 10.348 43.6609 11.492C42.5169 12.636 41.9449 14.092 41.9449 15.86C41.9449 16.4147 41.9969 16.9867 42.1009 17.576C37.7329 17.0213 33.4863 16.64 29.3609 16.432C29.3609 13.4853 30.1236 10.8333 31.6489 8.476C33.2089 6.084 35.5316 4.19467 38.6169 2.808C41.7369 1.42133 45.5503 0.727997 50.0569 0.727997C54.1823 0.727997 57.6143 1.3 60.3529 2.444C63.1263 3.55333 65.1543 4.97467 66.4369 6.708C67.7543 8.40666 68.4129 10.1573 68.4129 11.96C68.4129 14.04 67.9449 15.8253 67.0089 17.316C66.1076 18.8067 64.7903 20.1413 63.0569 21.32C61.3583 22.464 59.0703 23.712 56.1929 25.064C55.7769 25.272 55.1009 25.5147 54.1649 25.792C53.2289 26.0347 52.6396 26.1907 52.3969 26.26C49.9356 26.988 47.9769 27.5947 46.5209 28.08C45.0649 28.5653 43.6956 29.172 42.4129 29.9Z" fill="white"/>
<path d="M0.679688 73H2.47969V63.16H2.95969L6.19969 73H8.83969L12.0797 63.16H12.5597V73H14.3597V61H10.9997L7.75969 70.96H7.27969L4.03969 61H0.679688V73Z" fill="white"/>
<path d="M25.9988 69.64C25.3988 70.864 24.1988 71.56 22.7588 71.56C20.7428 71.56 19.0627 70.12 18.7987 67.84H28.1588L28.2068 67.552C28.2308 67.336 28.2788 67 28.2788 66.52C28.2788 63.16 25.9028 60.76 22.7588 60.76C19.5188 60.76 16.9988 63.28 16.9988 67C16.9988 70.72 19.5188 73.24 22.7588 73.24C25.2788 73.24 27.0788 71.944 27.9188 69.64H25.9988ZM18.7987 66.16C19.0627 63.976 20.5748 62.44 22.7588 62.44C24.7988 62.44 26.3587 63.976 26.4788 66.16H18.7987Z" fill="white"/>
<path d="M39.4341 69.04C38.9541 70.744 37.6581 71.56 35.9541 71.56C33.7701 71.56 31.9941 69.76 31.9941 67C31.9941 64.24 33.7701 62.44 35.9541 62.44C37.6581 62.44 38.9541 63.28 39.4341 64.84H41.2341C40.6341 62.32 38.6181 60.76 35.9541 60.76C32.7141 60.76 30.1941 63.28 30.1941 67C30.1941 70.72 32.7141 73.24 35.9541 73.24C38.6181 73.24 40.6341 71.704 41.2341 69.04H39.4341Z" fill="white"/>
<path d="M42.7978 73H45.0778L49.3978 68.68H50.8378V73H52.6378V61H46.9978C44.7178 61 43.0378 62.536 43.0378 64.84C43.0378 67.144 44.7178 68.68 46.9978 68.68H47.1178L42.7978 73ZM46.9978 67C45.7738 67 44.8378 66.184 44.8378 64.84C44.8378 63.496 45.7738 62.68 46.9978 62.68H50.8378V67H46.9978Z" fill="white"/>
<path d="M55.9922 73H65.5922V75.88H67.3922V71.32H65.7122V61H63.9122V71.32H57.7922V61H55.9922V73Z" fill="white"/>
<path d="M77.8425 69.64C77.2425 70.864 76.0425 71.56 74.6025 71.56C72.5865 71.56 70.9065 70.12 70.6425 67.84H80.0025L80.0505 67.552C80.0745 67.336 80.1225 67 80.1225 66.52C80.1225 63.16 77.7465 60.76 74.6025 60.76C71.3625 60.76 68.8425 63.28 68.8425 67C68.8425 70.72 71.3625 73.24 74.6025 73.24C77.1225 73.24 78.9225 71.944 79.7625 69.64H77.8425ZM70.6425 66.16C70.9065 63.976 72.4185 62.44 74.6025 62.44C76.6425 62.44 78.2025 63.976 78.3225 66.16H70.6425Z" fill="white"/>
<path d="M82.7578 73H89.2378C91.1578 73 92.5978 71.584 92.5978 69.592C92.5978 68.608 92.1658 67.96 91.7578 67.552C91.4938 67.312 91.2298 67.12 90.9178 67V66.88C91.1818 66.736 91.4218 66.544 91.6378 66.304C91.9978 65.896 92.3578 65.296 92.3578 64.36C92.3578 62.32 91.0378 61 88.9978 61H82.7578V73ZM84.5578 71.44V67.72H88.9978C89.9578 67.72 90.7978 68.44 90.7978 69.592C90.7978 70.72 89.9578 71.44 88.9978 71.44H84.5578ZM84.5578 66.16V62.56H88.7578C89.7178 62.56 90.5578 63.28 90.5578 64.36C90.5578 65.44 89.7178 66.16 88.7578 66.16H84.5578Z" fill="white"/>
</svg>
