<svg width="121" height="88" viewBox="0 0 121 88" fill="transparent" xmlns="http://www.w3.org/2000/svg">
<path d="M100.228 40.56L107.717 34.8077C106.454 30.9903 104.423 27.4721 101.749 24.4696L93.0227 28.08L87.0632 24.64L85.8275 15.2773C81.8899 14.4631 77.8275 14.4631 73.8899 15.2773L72.6541 24.64L66.6947 28.08L57.9688 24.4696C55.2943 27.4721 53.263 30.9903 52 34.8077L59.4896 40.56V47.44L52 53.1923C53.263 57.0096 55.2943 60.528 57.9688 63.5304L66.6947 59.92L72.6541 63.36L73.8899 72.7221C77.8275 73.5363 81.8899 73.5363 85.8275 72.7221L87.0632 63.36L93.0227 59.92L101.749 63.5309C104.423 60.5285 106.454 57.0101 107.717 53.1928L100.228 47.44V40.56ZM104.535 54.1117C103.625 56.3309 102.419 58.4176 100.952 60.3152L94.0411 57.4555L92.8264 56.9528L91.6883 57.6101L85.7288 61.0501L84.5902 61.7075L84.4182 63.0104L83.4398 70.4237C81.0624 70.7448 78.6528 70.7448 76.2755 70.4237L75.2971 63.0104L75.1251 61.7075L73.9864 61.0501L68.0269 57.6101L66.8888 56.9528L65.6741 57.4555L58.7653 60.3152C57.2983 58.4171 56.0934 56.3301 55.1832 54.1107L61.1149 49.5563L62.1573 48.7563V39.2445L61.1149 38.4445L55.1821 33.8891C56.0927 31.6696 57.298 29.5827 58.7653 27.6848L65.6752 30.5445L66.8899 31.0472L68.028 30.3899L73.9875 26.9499L75.1262 26.2925L75.2982 24.9896L76.2766 17.5763C78.6539 17.2552 81.0635 17.2552 83.4408 17.5763L84.4192 24.9896L84.5912 26.2925L85.7299 26.9499L91.6894 30.3899L92.8275 31.0472L94.0422 30.5445L100.952 27.6848C102.419 29.5828 103.624 31.6696 104.534 33.8891L98.6024 38.4437L97.56 39.2437V48.7547L98.6024 49.5547L104.535 54.1117ZM79.8587 34.6667C78.0128 34.6667 76.2083 35.2141 74.6734 36.2396C73.1385 37.2652 71.9422 38.7229 71.2358 40.4283C70.5294 42.1339 70.3446 44.0104 70.7047 45.8208C71.0648 47.6315 71.9537 49.2944 73.259 50.5997C74.5643 51.9051 76.2272 52.7939 78.0379 53.1539C79.8483 53.5141 81.7248 53.3293 83.4304 52.6229C85.1358 51.9165 86.5936 50.7203 87.619 49.1853C88.6446 47.6504 89.192 45.8459 89.192 44C89.1891 41.5256 88.2048 39.1531 86.4552 37.4035C84.7054 35.6537 82.3331 34.6695 79.8587 34.6667ZM79.8587 50.6667C78.54 50.6667 77.2512 50.2757 76.155 49.5432C75.0584 48.8107 74.2041 47.7693 73.6995 46.5512C73.1949 45.3331 73.0629 43.9925 73.3201 42.6995C73.5773 41.4061 74.2123 40.2184 75.1446 39.2859C76.0771 38.3536 77.2648 37.7187 78.5582 37.4614C79.8512 37.2042 81.1918 37.3362 82.4099 37.8408C83.628 38.3454 84.6694 39.2 85.4019 40.2963C86.1344 41.3925 86.5254 42.6813 86.5254 44C86.5235 45.7675 85.8203 47.4621 84.5704 48.7117C83.3208 49.9616 81.6262 50.6648 79.8587 50.6667Z" fill="white"/>
<path d="M1 53L34.5 86.5L51.5 69.5M102 19L120 1" stroke="white" stroke-width="1.5"/>
</svg>
