<svg xmlns="http://www.w3.org/2000/svg" fill="none" viewBox="1.84 1.83 20.32 20.32">
<path d="M8.33079 15.6692C6.10457 13.4486 4.562 10.636 3.88609 7.56511C3.7751 6.97013 3.88774 6.35513 4.20239 5.83811C4.51704 5.3211 5.01154 4.93849 5.59099 4.76371L7.19409 4.25111L8.67549 7.08731L7.46389 8.29871L6.43389 9.32871L7.09799 10.6251C8.48364 13.3215 10.6787 15.5166 13.3751 16.9022L14.6715 17.5663L15.7015 16.5363L16.9129 15.3247L19.7491 16.8061L19.2365 18.4092C19.0617 18.9887 18.6791 19.4832 18.1621 19.7978C17.6451 20.1125 17.0301 20.2251 16.4351 20.1141C13.3642 19.4382 10.5516 17.8956 8.33099 15.6694L8.33079 15.6692ZM6.91659 17.0834C9.40625 19.581 12.5609 21.3109 16.0054 22.0672C17.0871 22.2861 18.2116 22.0953 19.1606 21.5319C20.1097 20.9685 20.8155 20.0726 21.1413 19.0181L22.1664 15.8122L16.5364 12.8722L14.2864 15.1222C11.9634 13.9276 10.0722 12.0362 8.87799 9.71301L11.128 7.46301L8.18799 1.83301L4.98189 2.85871C3.9274 3.18447 3.03152 3.89034 2.4681 4.83936C1.90469 5.78838 1.71391 6.91287 1.93279 7.99461C2.68915 11.4391 4.41901 14.5938 6.91659 17.0834Z" fill="currentColor"/>
</svg>
