<?xml version="1.0" ?><svg data-name="Layer 2" id="Layer_2" viewBox="0 0 35 35" xmlns="http://www.w3.org/2000/svg"><path d="M17.5,34.75a17,17,0,0,1-9-2.54l-3.8,1a2.33,2.33,0,0,1-2.84-2.87l1-3.7A16.86,16.86,0,0,1,.82,21.89a17.5,17.5,0,0,1-.53-5.66A17.26,17.26,0,1,1,20.6,34.47,17.1,17.1,0,0,1,17.5,34.75Zm-9-5.05a2.34,2.34,0,0,1,1.23.35,14.44,14.44,0,0,0,4.37,1.81,15,15,0,0,0,6,.15h0A14.73,14.73,0,0,0,28,7.17,14.73,14.73,0,0,0,2.79,16.41a14.75,14.75,0,0,0,2.24,9,2.37,2.37,0,0,1,.28,1.87l-1,3.49L8,29.78A2.25,2.25,0,0,1,8.53,29.7Z"/><path d="M12.65,10.83h0a1.49,1.49,0,0,1,1.34.86l.82,1.74a1.88,1.88,0,0,1-.15,1.85h0a1.85,1.85,0,0,0-.06,2,7.87,7.87,0,0,0,3.52,3.16,1.82,1.82,0,0,0,2-.42l.09-.09a1.88,1.88,0,0,1,2.13-.37l1.11.53a1.87,1.87,0,0,1,.86,2.55c-.54,1-1.77,1.9-4.56,1.33-5-1-8.38-6.58-8.82-7.34l-.09-.18c-.24-.59-1.39-3.72,1-5.41A1.33,1.33,0,0,1,12.65,10.83Z"/></svg>